<svg height="512" viewBox="0 0 58 58" width="512" xmlns="http://www.w3.org/2000/svg"><g id="Page-1" fill="none" fill-rule="evenodd"><g id="002---Scared" fill-rule="nonzero"><path id="Shape" d="m4.74 16.87c-2.71733022-.5840371-4.67784617-2.9578472-4.73781275-5.7365856-.05996657-2.77873833 1.79631577-5.2349168 4.48592025-5.93563833 2.68960449-.70072154 5.50837858.53746643 6.8118925 2.99222393z" fill="#f29c1f"/><path id="Shape" d="m53.26 16.87c2.7173302-.5840371 4.6778462-2.9578472 4.7378127-5.7365856.0599666-2.77873833-1.7963157-5.2349168-4.4859202-5.93563833-2.6896045-.70072154-5.5083786.53746643-6.8118925 2.99222393z" fill="#f29c1f"/><path id="Shape" d="m58 33c0-13.807-12.984-33-29-33s-29 19.193-29 33 12.984 25 29 25 29-11.193 29-25z" fill="#f0c419"/><path id="Shape" d="m39 19c.0056489 2.7289776-1.111833 5.3400517-3.09 7.22-2.2658236.5239909-4.5843839.7857097-6.91.78-2.3256161.0057097-4.6441764-.2560091-6.91-.78-3.640851-3.4743147-4.12527-9.1158664-1.13-13.16 5.2668305-1.4133485 10.8131695-1.4133485 16.08 0 1.2745023 1.7180209 1.9617669 3.8008532 1.96 5.94z" fill="#ecf0f1"/><path id="Shape" d="m23.9 9.416c-.5185935-.00343101-.9485087-.40274438-.9901546-.91967435-.0416459-.51692998.3187989-.97991786.8301546-1.06632565 3.1382356-.51373281 6.3347451-.56561545 9.488-.154.3618702.03773143.6746941.26902714.816829.60394709.1421349.33491994.0911506.72061031-.1331275 1.00709422-.2242781.2864839-.5864567.42855124-.9457015.37095869-2.9578573-.38553058-5.9561633-.33701866-8.9.144-.0547954.00968259-.1103569.0143685-.166.014z" fill="#f29c1f"/><circle id="Oval" cx="29" cy="19" fill="#3b97d3" r="6"/><circle id="Oval" cx="29" cy="19" fill="#35495e" r="3"/><g fill="#f29c1f"><path id="Shape" d="m32 52h-6c-.5522847 0-1-.4477153-1-1s.4477153-1 1-1h6c.5522847 0 1 .4477153 1 1s-.4477153 1-1 1z"/><path id="Shape" d="m10 42c-.55228475 0-1-.4477153-1-1-.07160175-4.3877337 2.5947922-8.3566076 6.684-9.949.3394023-.1136105.7136334-.0375219.9817241.1996039s.3893116.5992638.318.95c-.0713116.3507363-.3243218.6367856-.6637241.7503961-3.3012139 1.2828289-5.4336365 4.5091201-5.32 8.049 0 .5522847-.4477153 1-1 1z"/><path id="Shape" d="m48 42c-.5522847 0-1-.4477153-1-1 .1153613-3.5413261-2.0173657-6.7696816-5.32-8.053-.5246705-.1756266-.8076266-.7433295-.632-1.268s.7433295-.8076266 1.268-.632c4.0905987 1.5929024 6.7572887 5.5638127 6.684 9.953 0 .2652165-.1053568.5195704-.2928932.7071068s-.4418903.2928932-.7071068.2928932z"/></g><path id="Shape" d="m4 13c-.44484205.0002923-.8363958-.2932994-.96077371-.7203997s.04832684-.8850124.42377371-1.1236003c.58784239-.55422.87956927-1.3534108.787-2.156 0-.55228475.44771525-1 1-1s1 .44771525 1 1c.135772 1.5005804-.52211079 2.9630899-1.735 3.857-.15539125.0937918-.33349714.1432465-.515.143z" fill="#e57e25"/><path id="Shape" d="m53.987 13c-.1764079-.000513-.3493146-.0492727-.5-.141-1.2142868-.8938363-1.8730423-2.3573582-1.737-3.859 0-.55228475.4477153-1 1-1s1 .44771525 1 1c-.0956587.80393436.197354 1.6053555.789 2.158.44878.30676.5758193.9128437.288 1.374-.1817011.2892173-.4984497.4656915-.84.468z" fill="#e57e25"/><path id="Shape" d="m29 28c-4.6975895.1051816-9.3458663-.975805-13.515-3.143-.4598944-.289808-.6040531-.893912-.3245776-1.3601576s.8802129-.6238462 1.3525776-.3548424c3.8660657 1.9592576 8.1536024 2.9405805 12.487 2.858 4.3333976.0825805 8.6209343-.8987424 12.487-2.858.4723647-.2690038 1.0731021-.1114032 1.3525776.3548424s.1353168 1.0703496-.3245776 1.3601576c-4.1691337 2.167195-8.8174105 3.2481816-13.515 3.143z" fill="#f29c1f"/><path id="Shape" d="m43 41c.0024107.3359451-.0311132.6711847-.1 1-.3942168 1.9677159-1.9322841 3.5057832-3.9 3.9-.3288153.0688868-.6640549.1024107-1 .1h-18c-.3359451.0024107-.6711847-.0311132-1-.1-1.9629806-.403036-3.496964-1.9370194-3.9-3.9-.1333333-.66-.1333333-1.34 0-2 .3942168-1.9677159 1.9322841-3.5057832 3.9-3.9.3288153-.0688868.6640549-.1024107 1-.1h4c.3243681.1519103.6584309.2821948 1 .39.6529874.2076884 1.3218909.3615362 2 .46 1.325833.200005 2.674167.200005 4 0 .6781091-.0984638 1.3470126-.2523116 2-.46.3415691-.1078052.6756319-.2380897 1-.39h4c.3359451-.0024107.6711847.0311132 1 .1 1.9629806.403036 3.496964 1.9370194 3.9 3.9.0688868.3288153.1024107.6640549.1 1z" fill="#fff"/><path id="Shape" d="m43 41c.0024107.3359451-.0311132.6711847-.1 1h-3.9v3.9c-.3288153.0688868-.6640549.1024107-1 .1h-1v-4h-4v4h-2v-4h-4v4h-2v-4h-4v4h-1c-.3359451.0024107-.6711847-.0311132-1-.1v-3.9h-3.9c-.1333333-.66-.1333333-1.34 0-2h3.9v-3.9c.3288153-.0688868.6640549-.1024107 1-.1h1v4h4v-3.61c.6529874.2076884 1.3218909.3615362 2 .46v3.15h4v-3.15c.6781091-.0984638 1.3470126-.2523116 2-.46v3.61h4v-4h1c.3359451-.0024107.6711847.0311132 1 .1v3.9h3.9c.0688868.3288153.1024107.6640549.1 1z" fill="#ecf0f1"/><path id="Shape" d="m29 38c-2.884 0-4.922-.79-6.058-2.349-.9398544-1.473682-1.1882843-3.2846627-.68-4.957.1689992-.5260512.7324488-.8154991 1.2585-.6464999.5260512.1689991.8154991.7324487.6465 1.2584999-.3157179 1.0684293-.1707073 2.220176.4 3.177.74 1.007 2.233 1.517 4.433 1.517s3.693-.51 4.434-1.517c.5710235-.9581821.716021-2.111275.4-3.181-.1678946-.5263274.1226726-1.0891054.649-1.257.5263274-.1678945 1.0891054.1226726 1.257.649.5082843 1.6723373.2598544 3.483318-.68 4.957-1.138 1.559-3.176 2.349-6.06 2.349z" fill="#f29c1f"/><circle id="Oval" cx="26" cy="15" fill="#ecf0f1" r="3"/><path id="Shape" d="m42 16c-.1800641-.0000787-.3567112-.0491665-.511-.142-3.8666661-1.9595767-8.1549287-2.9409087-12.489-2.858-4.3333976-.0825805-8.6209343.8987424-12.487 2.858-.4723647.2690038-1.0731021.1114032-1.3525776-.3548424s-.1353168-1.0703496.3245776-1.3601576c4.1691337-2.167195 8.8174105-3.2481816 13.515-3.143 4.6975895-.1051816 9.3458663.975805 13.515 3.143.385003.2315033.5683703.6913367.448313 1.1242424s-.514068.7326155-.963313.7327576z" fill="#f29c1f"/></g></g></svg>