<svg height="512" viewBox="0 0 58 58" width="512" xmlns="http://www.w3.org/2000/svg"><g id="Page-1" fill="none" fill-rule="evenodd"><g id="003---Angry" fill-rule="nonzero"><path id="Shape" d="m47.28 8.79c-4.98-5.19-11.35-8.79-18.28-8.79s-13.3 3.6-18.28 8.79l-6.68 9.35c-2.49047144 4.5691376-3.87421504 9.658848-4.04 14.86 0 13.81 12.98 25 29 25s29-11.19 29-25c-.165785-5.201152-1.5495286-10.2908624-4.04-14.86z" fill="#955ba5"/><path id="Shape" d="m12.65 15.36c-.2310944.4738045-.519958.9171765-.86 1.32-1.52 1.87-3.85 2.68-6.2 3.32-4.03-3.83-3.99-9.75-3.11-14.35.05818619-.33075062.20704619-.63885621.43-.89v-.01c.43149068-.50090811 1.06828929-.77708916 1.72885642-.74980911.66056713.02728006 1.27242472.35502804 1.66114358.88980911 1.70903616 2.28021583 4.0334209 4.02523899 6.7 5.03.5617779 1.7940175.4370424 3.7327632-.35 5.44z" fill="#f9eab0"/><path id="Shape" d="m52.409 20c4.026-3.834 3.988-9.751 3.115-14.355-.1946856-.81561511-.8471858-1.44275278-1.6698747-1.60496707-.8226889-.16221428-1.664409.1702994-2.1541253.85096707-1.7101659 2.27978159-4.034099 4.02550628-6.7 5.033-.565068 1.7908407-.4405951 3.7281949.349 5.432 1.402 2.844 4.221 3.861 7.06 4.644z" fill="#f9eab0"/><circle id="Oval" cx="10" cy="28" fill="#894b9d" r="3"/><circle id="Oval" cx="48" cy="28" fill="#894b9d" r="3"/><path id="Shape" d="m41 46.59c-.59.19-1.26.37-2 .54-1.6489253.3440776-3.3195146.5746189-5 .69-.63.05-1.3.09-2 .12-.94.04-1.93.06-3 .06s-2.06-.02-3-.06c-.7-.03-1.37-.07-2-.12-2.0245843-.1287643-4.0330398-.4434223-6-.94-.6807457-.1747891-1.3489284-.3952894-2-.66-4.85-1.96-3.93-4.85-3.93-4.85.1397253-.8050205.343711-1.597555.61-2.37.2154476-.681813.4725991-1.349739.77-2 .6552338-1.5062699 1.5131654-2.9159693 2.55-4.19.6012881-.7472501 1.2708444-1.4368931 2-2.06 1.2040367-1.0213071 2.5604351-1.8479678 4.02-2.45h13.96c1.0674699.4388203 2.0808199.9991827 3.02 1.67.7146334.5150761 1.3837541 1.0905199 2 1.72 1.4929011 1.5422167 2.6954753 3.3409967 3.55 5.31.2974009.650261.5545524 1.318187.77 2 .266289.772445.4702747 1.5649795.61 2.37 0 0 1.05 3.27-4.93 5.22z" fill="#fff"/><path id="Shape" d="m45.32 39h-4.32v7.59c-.59.19-1.26.37-2 .54v-8.13h-5v8.82c-.63.05-1.3.09-2 .12v-8.94h-6v8.94c-.7-.03-1.37-.07-2-.12v-8.82h-6v7.88c-.6807457-.1747891-1.3489284-.3952894-2-.66v-7.22h-3.32c.2154476-.681813.4725991-1.349739.77-2h2.55v-4.19c.6012881-.7472501 1.2708444-1.4368931 2-2.06v6.25h6v-8c.0011158-.2604121.1012135-.5106562.28-.7.1904-.192.4496-.3.72-.3s.5296.108.72.3c.1787865.1893438.2788842.4395879.28.7v8h6v-8c.0011158-.2604121.1012135-.5106562.28-.7.1904-.192.4496-.3.72-.3s.5296.108.72.3c.1787865.1893438.2788842.4395879.28.7v8h5v-7.03c.7146334.5150761 1.3837541 1.0905199 2 1.72v5.31h3.55c.2974009.650261.5545524 1.318187.77 2z" fill="#ecf0f1"/><g fill="#894b9d"><path id="Shape" d="m32 53h-6c-.5522847 0-1-.4477153-1-1s.4477153-1 1-1h6c.5522847 0 1 .4477153 1 1s-.4477153 1-1 1z"/><path id="Shape" d="m8 39c-.00213131 2.7573219-1.88326566 5.1582434-4.56 5.82-2.17520051-3.4393788-3.36186473-7.4110713-3.43-11.48.63907348-.2260529 1.31212558-.3410467 1.99-.34 3.3137085 0 6 2.6862915 6 6z"/><path id="Shape" d="m57.99 33.34c-.0681353 4.0689287-1.2547995 8.0406212-3.43 11.48-2.1622781-.5171004-3.8613699-2.1874549-4.4152755-4.3405987-.5539056-2.1531437.1281878-4.4360685 1.7724941-5.9324294 1.6443064-1.4963608 3.9812417-1.9608293 6.0727814-1.2069719z"/></g><path id="Shape" d="m12.65 15.36c-.2310944.4738045-.519958.9171765-.86 1.32-7.37-1.62-8.73-8.13-8.88-11.92v-.01c.43149068-.50090811 1.06828929-.77708916 1.72885642-.74980911.66056713.02728006 1.27242472.35502804 1.66114358.88980911 1.70903616 2.28021583 4.0334209 4.02523899 6.7 5.03.5617779 1.7940175.4370424 3.7327632-.35 5.44z" fill="#f5efca"/><path id="Shape" d="m45.26 15.36c.2310944.4738045.519958.9171765.86 1.32 7.37-1.62 8.73-8.13 8.88-11.92v-.01c-.4314907-.50090811-1.0682893-.77708916-1.7288564-.74980911-.6605672.02728006-1.2724247.35502804-1.6611436.88980911-1.7090362 2.28021583-4.0334209 4.02523899-6.7 5.03-.5617779 1.7940175-.4370424 3.7327632.35 5.44z" fill="#f5efca"/><path id="Shape" d="m39 19c0 7.18-4.48 13-10 13s-10-5.82-10-13c-.0665076-3.4995289 1.0978858-6.9113078 3.29-9.64 2.2056975.46357594 4.4564382.6782517 6.71.64 2.2535618.0382517 4.5043025-.17642406 6.71-.64 2.1921142 2.7286922 3.3565076 6.1404711 3.29 9.64z" fill="#ecf0f1"/><circle id="Oval" cx="29" cy="18" fill="#65ddb9" r="7"/><circle id="Oval" cx="29" cy="18" fill="#35495e" r="3"/><path id="Shape" d="m29 11c-8.178 0-10.473-2.058-10.707-2.293-.3789722-.39237889-.3735524-1.01608478.0121814-1.40181858.3857338-.38573379 1.0094397-.39115363 1.4018186-.01218142 0 0 2.012 1.707 9.293 1.707s9.294-1.71 9.314-1.728c.4053662-.36017027 1.0224694-.3372493 1.4.052.3736746.38686934.3692299 1.00157466-.01 1.383-.231.235-2.526 2.293-10.704 2.293z" fill="#894b9d"/><circle id="Oval" cx="25" cy="15" fill="#ecf0f1" r="3"/></g></g></svg>