<svg height="512" viewBox="0 0 58 58" width="512" xmlns="http://www.w3.org/2000/svg"><g id="Page-1" fill="none" fill-rule="evenodd"><g id="004---Happy" fill-rule="nonzero"><path id="Shape" d="m4.74 16.87c-2.71733022-.5840371-4.67784617-2.9578472-4.73781275-5.7365856-.05996657-2.77873833 1.79631577-5.2349168 4.48592025-5.93563833 2.68960449-.70072154 5.50837858.53746643 6.8118925 2.99222393z" fill="#ff5364"/><path id="Shape" d="m53.26 16.87c2.7173302-.5840371 4.6778462-2.9578472 4.7378127-5.7365856.0599666-2.77873833-1.7963157-5.2349168-4.4859202-5.93563833-2.6896045-.70072154-5.5083786.53746643-6.8118925 2.99222393z" fill="#ff5364"/><path id="Shape" d="m58 33c0-13.807-12.984-33-29-33s-29 19.193-29 33 12.984 25 29 25 29-11.193 29-25z" fill="#fb7b76"/><path id="Shape" d="m39 19c.0035777 2.4032065-.8631868 4.7264195-2.44 6.54-5.0142857-.72-10.1057143-.72-15.12 0-3.0637109-3.5339382-3.2632202-8.7211799-.48-12.48 5.2668305-1.4133485 10.8131695-1.4133485 16.08 0 1.2745023 1.7180209 1.9617669 3.8008532 1.96 5.94z" fill="#ecf0f1"/><path id="Shape" d="m23.9 9.416c-.5185935-.00343101-.9485087-.40274438-.9901546-.91967435-.0416459-.51692998.3187989-.97991786.8301546-1.06632565 3.1382279-.51381878 6.33475-.56570162 9.488-.154.3618702.03773143.6746941.26902714.816829.60394709.1421349.33491994.0911506.72061031-.1331275 1.00709422-.2242781.2864839-.5864567.42855124-.9457015.37095869-2.9578573-.38553058-5.9561633-.33701866-8.9.144-.0547954.00968259-.1103569.0143685-.166.014z" fill="#ff5364"/><circle id="Oval" cx="29" cy="18" fill="#f0c419" r="6"/><circle id="Oval" cx="29" cy="18" fill="#35495e" r="3"/><path id="Shape" d="m4 13c-.44484205.0002923-.8363958-.2932994-.96077371-.7203997s.04832684-.8850124.42377371-1.1236003c.58784239-.55422.87956927-1.3534108.787-2.156 0-.55228475.44771525-1 1-1s1 .44771525 1 1c.135772 1.5005804-.52211079 2.9630899-1.735 3.857-.15539125.0937918-.33349714.1432465-.515.143z" fill="#df4d60"/><path id="Shape" d="m53.987 13c-.1764079-.000513-.3493146-.0492727-.5-.141-1.2142868-.8938363-1.8730423-2.3573582-1.737-3.859 0-.55228475.4477153-1 1-1s1 .44771525 1 1c-.0956587.80393436.197354 1.6053555.789 2.158.44878.30676.5758193.9128437.288 1.374-.1817011.2892173-.4984497.4656915-.84.468z" fill="#df4d60"/><path id="Shape" d="m34.79 33h12.79c.6174344.0020033 1.1993298.2890744 1.5766379.7778155.3773082.4887411.5077248 1.1243539.3533621 1.7221845-1.3 5.16-5.83 16.5-20.51 16.5s-19.21-11.34-20.51-16.5c-.15436267-.5978306-.02394607-1.2334434.35336205-1.7221845s.95920353-.7758122 1.57663795-.7778155h12.79s.642 3 5.975 3 5.605-3 5.605-3z" fill="#802d40"/><path id="Shape" d="m49.51 35.5c-.3870404 1.545433-.9159522 3.0518274-1.58 4.5h-37.86c-.66404775-1.4481726-1.19295957-2.954567-1.58-4.5-.15436267-.5978306-.02394607-1.2334434.35336205-1.7221845s.95920353-.7758122 1.57663795-.7778155h12.79s.54 2.54 4.79 2.95c.37.03.76.05 1.19.05.29 0 .56-.01.81-.02 4.55-.29 4.79-2.98 4.79-2.98h12.79c.6174344.0020033 1.1993298.2890744 1.5766379.7778155.3773082.4887411.5077248 1.1243539.3533621 1.7221845z" fill="#fff"/><g fill="#ecf0f1"><path id="Rectangle-path" d="m14 33h2v7h-2z"/><path id="Rectangle-path" d="m21 33h2v7h-2z"/><path id="Shape" d="m30 35.98v4.02h-2v-4.05c.37.03.76.05 1.19.05.29 0 .56-.01.81-.02z"/><path id="Rectangle-path" d="m35 33h2v7h-2z"/><path id="Rectangle-path" d="m42 33h2v7h-2z"/></g><path id="Shape" d="m38.57 49.97c-2.9930386 1.398852-6.2668104 2.0932885-9.57 2.03-3.3031896.0632885-6.5769614-.631148-9.57-2.03 1.24-2.88 5.06-4.97 9.57-4.97s8.33 2.09 9.57 4.97z" fill="#ff5364"/><path id="Shape" d="m39 27c-.0846924.0001354-.1690507-.0106194-.251-.032-3.2025604-.6905782-6.4731716-1.0153245-9.749-.968-3.2758284-.0473245-6.5464396.2774218-9.749.968-.348891.0982737-.7236464.0000596-.9794919-.2567006-.2558454-.2567602-.3527213-.6318638-.2532029-.9804018.0995184-.3485381.3798488-.6159376.7326948-.6988976 3.364646-.7409574 6.8041773-1.0872933 10.249-1.032 3.4454904-.0554489 6.8857019.2908879 10.251 1.032.4872811.1263257.8047011.5951711.7410144 1.0945158s-.4886248.8735093-.9920144.8734842z" fill="#ff5364"/><path id="Shape" d="m29 37c-2.884 0-4.922-.79-6.058-2.349-.9398544-1.473682-1.1882843-3.2846627-.68-4.957.1093233-.3402955.3918876-.5964182.7412538-.6718892.3493661-.075471.7124571.0411755.9525.306s.3205695.6375937.2112462.9778892c-.3157179 1.0684293-.1707073 2.220176.4 3.177.74 1.006 2.233 1.517 4.433 1.517s3.693-.51 4.434-1.517c.5710235-.9581821.716021-2.111275.4-3.181-.1678946-.5263274.1226726-1.0891054.649-1.257.5263274-.1678945 1.0891054.1226726 1.257.649.5082843 1.6723373.2598544 3.483318-.68 4.957-1.138 1.558-3.176 2.349-6.06 2.349z" fill="#ff5364"/><circle id="Oval" cx="25" cy="16" fill="#ecf0f1" r="3"/><path id="Shape" d="m42 16c-.1800641-.0000787-.3567112-.0491665-.511-.142-3.8666661-1.9595767-8.1549287-2.9409087-12.489-2.858-4.3333976-.0825805-8.6209343.8987424-12.487 2.858-.4723647.2690038-1.0731021.1114032-1.3525776-.3548424s-.1353168-1.0703496.3245776-1.3601576c4.1691337-2.167195 8.8174105-3.2481816 13.515-3.143 4.6975895-.1051816 9.3458663.975805 13.515 3.143.385003.2315033.5683703.6913367.448313 1.1242424s-.514068.7326155-.963313.7327576z" fill="#ff5364"/></g></g></svg>