<svg height="512" viewBox="0 0 58 58" width="512" xmlns="http://www.w3.org/2000/svg"><g id="Page-1" fill="none" fill-rule="evenodd"><g id="006---Silly" fill-rule="nonzero" transform="translate(-1 -1)"><path id="Shape" d="m9.49 12.31-2.253-2.253c-.6827772-.64770975-1.57674118-1.0266766-2.517-1.067-.79053239-.06113187-1.54493989-.35634994-2.167-.848-.79110177-.60173932-1.32662862-1.47928932-1.5-2.458-.22498582-1.28983126.19551881-2.60811981 1.12581337-3.52944239.93029457-.92132259 2.25259622-1.32903229 3.54018663-1.09155761.97662492.17993365 1.84960632.72121782 2.445 1.516.47690784.61583645.76363887 1.35751405.825 2.134.04092939.94287065.42047488 1.83936493 1.069 2.525l2.1 2.1z" fill="#24ae5f"/><path id="Shape" d="m50.51 12.31 2.253-2.253c.6827772-.64770975 1.5767412-1.0266766 2.517-1.067 1.4730653-.11076344 2.765169-1.0243851 3.3606664-2.37626257.5954975-1.35187748.3974358-2.92191189-.5151436-4.08354376-.9125795-1.16163187-2.3911-1.72573616-3.8455228-1.46719367-.9766249.17993365-1.8496063.72121782-2.445 1.516-.4769078.61583645-.7636389 1.35751405-.825 2.134-.0409294.94287065-.4204749 1.83936493-1.069 2.525l-2.1 2.1z" fill="#24ae5f"/><path id="Shape" d="m59 34c0 13.81-12.98 25-29 25s-29-11.19-29-25c0-6.9 3.24-15.16 8.49-21.68v-.01c.85-1.04 1.74-2.04 2.67-2.97 4.92-4.95 11.11-8.34 17.84-8.34 16.02 0 29 19.19 29 33z" fill="#4fba6f"/><circle id="Oval" cx="43" cy="22" fill="#ecf0f1" r="6"/><circle id="Oval" cx="43" cy="21" fill="#e64c3c" r="4"/><circle id="Oval" cx="24" cy="51" fill="#24ae5f" r="3"/><circle id="Oval" cx="18" cy="43" fill="#24ae5f" r="2"/><circle id="Oval" cx="17" cy="22" fill="#ecf0f1" r="6"/><circle id="Oval" cx="17" cy="21" fill="#e64c3c" r="4"/><circle id="Oval" cx="17" cy="21" fill="#35495e" r="2"/><circle id="Oval" cx="43" cy="21" fill="#35495e" r="2"/><circle id="Oval" cx="30" cy="11.326" fill="#ecf0f1" r="6"/><path id="Shape" d="m38.18 36.816 2.43 5.59c.636288 1.3205404.4993017 2.8833413-.3570203 4.073048-.856322 1.1897066-2.2947968 1.8157277-3.749023 1.6315666-1.4542263-.1841611-2.6912366-1.1490017-3.2239567-2.5146146l-4.03-9.25z" fill="#d75e72"/><circle id="Oval" cx="28" cy="29" fill="#4c8056" r="1"/><circle id="Oval" cx="32" cy="29" fill="#4c8056" r="1"/><path id="Shape" d="m13.8 54.74c-3.4139761-1.9603347-6.36451615-4.6345814-8.65-7.84 2.29198358-1.5712058 5.3629417-1.3630241 7.4219048.5031344 2.0589631 1.8661584 2.5671115 4.9019299 1.2280952 7.3368656z" fill="#24ae5f"/><path id="Shape" d="m54.85 46.9c-2.2854839 3.2054186-5.2360239 5.8796653-8.65 7.84-1.3390163-2.4349357-.8308679-5.4707072 1.2280952-7.3368656 2.0589631-1.8661585 5.1299212-2.0743402 7.4219048-.5031344z" fill="#24ae5f"/><path id="Shape" d="m43.982 38.424c-.5075124-.0011036-1.0143575-.0368534-1.517-.107-4.1312789-.5806572-8.2938577-.9112592-12.465-.99-4.1711423.0787408-8.3337211.4093428-12.465.99-2.1789887.4246173-4.436617-.0689943-6.239574-1.3642308-1.80295704-1.2952364-2.99134157-3.2772254-3.284426-5.4777692-.0828427-.5462096.29279039-1.0561573.839-1.139s1.05615728.2927904 1.139.839c.2396065 1.6693973 1.1544774 3.1670657 2.5303982 4.1423301s3.0920649 1.3424821 4.7466018 1.0156699c4.2199023-.5972235 8.4726679-.9331967 12.734-1.006 4.2613941.0737975 8.51416.4107726 12.734 1.009 1.6552068.3276929 3.3723399-.0395337 4.7487317-1.0155654 1.3763919-.9760316 2.2909709-2.4750135 2.5292683-4.1454346.092051-.5369773.5970067-.9014586 1.1356505-.819722.5386438.0817365.9127415.5796098.8413495 1.119722-.5307337 4.0062346-3.965947 6.9875382-8.007 6.949z" fill="#802d40"/><circle id="Oval" cx="30" cy="10.326" fill="#e64c3c" r="4"/><circle id="Oval" cx="30" cy="10.326" fill="#35495e" r="2"/><g fill="#ecf0f1"><circle id="Oval" cx="15" cy="19" r="2"/><circle id="Oval" cx="28" cy="8" r="2"/><circle id="Oval" cx="41" cy="19" r="2"/></g></g></g></svg>