<svg height="512" viewBox="0 0 58 58" width="512" xmlns="http://www.w3.org/2000/svg"><g id="Page-1" fill="none" fill-rule="evenodd"><g id="007---Open-Mouthed" fill-rule="nonzero" transform="translate(-1 -1)"><path id="Shape" d="m9.49 12.31-2.253-2.253c-.6827772-.64770975-1.57674118-1.0266766-2.517-1.067-.79053239-.06113187-1.54493989-.35634994-2.167-.848-.79110177-.60173932-1.32662862-1.47928932-1.5-2.458-.22498582-1.28983126.19551881-2.60811981 1.12581337-3.52944239.93029457-.92132259 2.25259622-1.32903229 3.54018663-1.09155761.97662492.17993365 1.84960632.72121782 2.445 1.516.47690784.61583645.76363887 1.35751405.825 2.134.04092939.94287065.42047488 1.83936493 1.069 2.525l2.1 2.1z" fill="#804169"/><path id="Shape" d="m50.51 12.31 2.253-2.253c.6827772-.64770975 1.5767412-1.0266766 2.517-1.067 1.4730653-.11076344 2.765169-1.0243851 3.3606664-2.37626257.5954975-1.35187748.3974358-2.92191189-.5151436-4.08354376-.9125795-1.16163187-2.3911-1.72573616-3.8455228-1.46719367-.9766249.17993365-1.8496063.72121782-2.445 1.516-.4769078.61583645-.7636389 1.35751405-.825 2.134-.0409294.94287065-.4204749 1.83936493-1.069 2.525l-2.1 2.1z" fill="#804169"/><path id="Shape" d="m59 34c0 13.81-12.98 25-29 25s-29-11.19-29-25c0-6.9 3.24-15.16 8.49-21.68v-.01c.85-1.04 1.74-2.04 2.67-2.97 4.92-4.95 11.11-8.34 17.84-8.34 16.02 0 29 19.19 29 33z" fill="#cc66a1"/><path id="Shape" d="m33.31 16c2.2086392-1.4608371 3.1984535-4.1968207 2.4357083-6.73263452-.7627451-2.53581383-3.0976653-4.27175355-5.7457083-4.27175355s-4.9829632 1.73593972-5.7457083 4.27175355c-.7627452 2.53581382.2270691 5.27179742 2.4357083 6.73263452z" fill="#ecf0f1"/><circle id="Oval" cx="30" cy="10" fill="#f0c419" r="4"/><circle id="Oval" cx="24" cy="51" fill="#804169" r="3"/><circle id="Oval" cx="36" cy="51" fill="#804169" r="3"/><circle id="Oval" cx="30" cy="10" fill="#35495e" r="2"/><ellipse id="Oval" cx="30" cy="36" fill="#802d40" rx="12" ry="6"/><path id="Shape" d="m18.31 27c2.2086392-1.4608371 3.1984535-4.1968207 2.4357083-6.7326345-.7627451-2.5358139-3.0976653-4.2717536-5.7457083-4.2717536s-4.9829632 1.7359397-5.74570833 4.2717536c-.76274516 2.5358138.22706916 5.2717974 2.43570833 6.7326345z" fill="#ecf0f1"/><circle id="Oval" cx="15" cy="21" fill="#f0c419" r="4"/><circle id="Oval" cx="15" cy="21" fill="#35495e" r="2"/><path id="Shape" d="m48.31 27c2.2086392-1.4608371 3.1984535-4.1968207 2.4357083-6.7326345-.7627451-2.5358139-3.0976653-4.2717536-5.7457083-4.2717536s-4.9829632 1.7359397-5.7457083 4.2717536c-.7627452 2.5358138.2270691 5.2717974 2.4357083 6.7326345z" fill="#ecf0f1"/><path id="Shape" d="m13.8 54.74c-3.4139761-1.9603347-6.36451615-4.6345814-8.65-7.84 2.29198358-1.5712058 5.3629417-1.3630241 7.4219048.5031344 2.0589631 1.8661584 2.5671115 4.9019299 1.2280952 7.3368656z" fill="#804169"/><path id="Shape" d="m54.85 46.9c-2.2854839 3.2054186-5.2360239 5.8796653-8.65 7.84-1.3390163-2.4349357-.8308679-5.4707072 1.2280952-7.3368656 2.0589631-1.8661585 5.1299212-2.0743402 7.4219048-.5031344z" fill="#804169"/><path id="Shape" d="m27.58 41.88c-1.842509-.1701651-3.6491815-.615092-5.36-1.32l.73-1.46c.3557289-.7106718 1.0984818-1.1432933 1.8921441-1.1020922.7936624.041201 1.4876265.5484061 1.7678559 1.2920922z" fill="#ecf0f1"/><path id="Shape" d="m37.78 40.56c-1.7108185.704908-3.517491 1.1498349-5.36 1.32l.97-2.59c.2802294-.7436861.9741935-1.2508912 1.7678559-1.2920922.7936623-.0412011 1.5364152.3914204 1.8921441 1.1020922z" fill="#ecf0f1"/><g fill="#804169"><path id="Shape" d="m35 17h-10c-.5522847 0-1-.4477153-1-1s.4477153-1 1-1h10c.5522847 0 1 .4477153 1 1s-.4477153 1-1 1z"/><path id="Shape" d="m20 28h-10c-.55228475 0-1-.4477153-1-1s.44771525-1 1-1h10c.5522847 0 1 .4477153 1 1s-.4477153 1-1 1z"/><path id="Shape" d="m50 28h-10c-.5522847 0-1-.4477153-1-1s.4477153-1 1-1h10c.5522847 0 1 .4477153 1 1s-.4477153 1-1 1z"/></g><circle id="Oval" cx="45" cy="21" fill="#f0c419" r="4"/><circle id="Oval" cx="45" cy="21" fill="#35495e" r="2"/><circle id="Oval" cx="28" cy="8" fill="#ecf0f1" r="2"/><circle id="Oval" cx="13" cy="19" fill="#ecf0f1" r="2"/><circle id="Oval" cx="43" cy="19" fill="#ecf0f1" r="2"/></g></g></svg>