<svg height="512" viewBox="0 0 58 58" width="512" xmlns="http://www.w3.org/2000/svg"><g id="Page-1" fill="none" fill-rule="evenodd"><g id="008---Excited" fill-rule="nonzero"><path id="Shape" d="m58 33c0 13.81-12.98 25-29 25s-29-11.19-29-25c0-6.9 3.24-15.16 8.49-21.68v-.01c.85-1.04 1.74-2.04 2.67-2.97 4.92-4.95 11.11-8.34 17.84-8.34 16.02 0 29 19.19 29 33z" fill="#65ddb9"/><path id="Shape" d="m48.47 38.52c-1.1659515 4.4845072-3.8521075 8.4253808-7.6 11.15-3.521707 2.300662-7.6655102 3.4631612-11.87 3.33-4.2044898.1331612-8.348293-1.029338-11.87-3.33-3.7478925-2.7246192-6.4340485-6.6654928-7.6-11.15-.1643157-.6008234-.03842547-1.2439154.34031148-1.7384321.37873692-.4945166.96680482-.7836393 1.58968852-.7815679h35.08c.6228837-.0020714 1.2109516.2870513 1.5896885.7815679.378737.4945167.5046272 1.1376087.3403115 1.7384321z" fill="#802d40"/><path id="Shape" d="m40.87 49.67c-3.521707 2.300662-7.6655102 3.4631612-11.87 3.33-4.2044898.1331612-8.348293-1.029338-11.87-3.33.86-4.34 5.84-7.67 11.87-7.67s11.01 3.33 11.87 7.67z" fill="#ff5364"/><g fill="#ecf0f1"><circle id="Oval" cx="18" cy="25" r="7"/><circle id="Oval" cx="40" cy="25" r="7"/><path id="Shape" d="m14.86 36 3.52 4.11c.3945524.4613333.9772777.718502 1.5840082.6990555s1.1717915-.3134032 1.5359918-.7990555l3-4.01z"/><path id="Shape" d="m33.5 36 3 4.01c.3642003.4856523.9292613.779609 1.5359918.7990555s1.1894558-.2377222 1.5840082-.6990555l3.52-4.11z"/></g><path id="Shape" d="m7 33c.00266015 3.4292001-2.48470374 6.3530179-5.87 6.9-.75045994-2.2229791-1.13216826-4.5537644-1.13-6.9.02233585-2.3408791.34155083-4.6694683.95-6.93 3.46785718.4684146 6.05393821 3.4306529 6.05 6.93z" fill="#46b29d"/><path id="Shape" d="m58 33c.0021683 2.3462356-.3795401 4.6770209-1.13 6.9-3.4186459-.555182-5.9156762-3.5294389-5.8706028-6.9925783.0450734-3.4631395 2.6186658-6.3714013 6.0506028-6.8374217.6084492 2.2605317.9276641 4.5891209.95 6.93z" fill="#46b29d"/><path id="Shape" d="m34.42 52.42c-3.5719541.7733482-7.2680459.7733482-10.84 0l4.01-4.01c.3736892-.3744562.8809811-.5848881 1.41-.5848881s1.0363108.2104319 1.41.5848881z" fill="#ecf0f1"/><path id="Shape" d="m26.218 18.7c-.2857736.000826-.5580211-.1216307-.747-.336-3.3100237-3.7328221-8.8674789-4.4492795-13.016-1.678-.2967641.2112181-.6849045.2443645-1.0131856.0865242-.328281-.1578403-.5447708-.481698-.5651158-.8453848-.0203451-.3636868.158673-.7096697.4673014-.9031394 4.9779952-3.3271403 11.6480033-2.4684637 15.621 2.011.2619932.2942374.3268083.7148835.165539 1.0743391s-.5185642.5907226-.912539.5906609z" fill="#46b29d"/><circle id="Oval" cx="18" cy="25" fill="#955ba5" r="4"/><circle id="Oval" cx="18" cy="25" fill="#35495e" r="2"/><circle id="Oval" cx="40" cy="25" fill="#955ba5" r="4"/><circle id="Oval" cx="40" cy="25" fill="#35495e" r="2"/><path id="Shape" d="m31.782 18.7c-.3939748.0000617-.7512697-.2312053-.912539-.5906609s-.0964542-.7801017.165539-1.0743391c3.9719125-4.4807697 10.6420467-5.3411705 15.621-2.015.3086284.1934697.4876465.5394526.4673014.9031394-.020345.3636868-.2368348.6875445-.5651158.8453848-.3282811.1578403-.7164215.1246939-1.0131856-.0865242-4.1485211-2.7712795-9.7059763-2.0548221-13.016 1.678-.188243.2158549-.4605934.3398162-.747.34z" fill="#46b29d"/><path id="Shape" d="m38.71 2.37c-1.0907893 4.47737758-5.1016672 7.62842692-9.71 7.62842692s-8.6192107-3.15104934-9.71-7.62842692c3.0095805-1.53096066 6.3335158-2.34226103 9.71-2.37 3.3764842.02773897 6.7004195.83903934 9.71 2.37z" fill="#46b29d"/><circle id="Oval" cx="38" cy="22" fill="#ecf0f1" r="2"/><circle id="Oval" cx="16" cy="22" fill="#ecf0f1" r="2"/></g></g></svg>