<svg height="512" viewBox="0 0 58 58" width="512" xmlns="http://www.w3.org/2000/svg"><g id="Page-1" fill="none" fill-rule="evenodd"><g id="010---Happy-Evil" fill-rule="nonzero"><path id="Shape" d="m47.28 8.79c-4.98-5.19-11.35-8.79-18.28-8.79s-13.3 3.6-18.28 8.79l-6.68 9.35c-2.49047144 4.5691376-3.87421504 9.658848-4.04 14.86 0 13.81 12.98 25 29 25s29-11.19 29-25c-.165785-5.201152-1.5495286-10.2908624-4.04-14.86z" fill="#f3d55b"/><circle id="Oval" cx="40" cy="25" fill="#ecf0f1" r="7"/><g fill="#f0c419"><path id="Shape" d="m29 50c-3.25 0-4.491-1.077-4.707-1.293-.3789722-.3923789-.3735524-1.0160848.0121814-1.4018186s1.0094397-.3911536 1.4018186-.0121814c.9982662.5702092 2.1486526.8171947 3.293.707 2.444 0 3.31-.724 3.318-.731.4087951-.3557074 1.0248061-.3279869 1.4.063.3700322.3855532.364705.9959638-.012 1.375-.215.216-1.456 1.293-4.706 1.293z"/><circle id="Oval" cx="13" cy="45" r="2"/><circle id="Oval" cx="45" cy="45" r="2"/><circle id="Oval" cx="52" cy="28" r="2"/><circle id="Oval" cx="6" cy="28" r="2"/></g><path id="Shape" d="m38.872 36c.302046-.0005653.5881644.1354216.7784573.3699867.1902928.234565.2643689.5425729.2015427.8380133-.41 2.002-1.966 5.792-7.852 5.792h-6c-5.886 0-7.442-3.79-7.852-5.792-.0628262-.2954404.0112499-.6034483.2015427-.8380133.1902929-.2345651.4764113-.370552.7784573-.3699867z" fill="#802d40"/><path id="Shape" d="m26.218 18.7c-.2857736.000826-.5580211-.1216307-.747-.336-3.3100237-3.7328221-8.8674789-4.4492795-13.016-1.678-.2967641.2112181-.6849045.2443645-1.0131856.0865242-.328281-.1578403-.5447708-.481698-.5651158-.8453848-.0203451-.3636868.158673-.7096697.4673014-.9031394 4.9779952-3.3271403 11.6480033-2.4684637 15.621 2.011.2619932.2942374.3268083.7148835.165539 1.0743391s-.5185642.5907226-.912539.5906609z" fill="#f29c1f"/><circle id="Oval" cx="18" cy="25" fill="#ecf0f1" r="7"/><circle id="Oval" cx="18" cy="25" fill="#955ba5" r="4"/><circle id="Oval" cx="40" cy="25" fill="#955ba5" r="4"/><circle id="Oval" cx="18" cy="25" fill="#35495e" r="2"/><circle id="Oval" cx="40" cy="25" fill="#35495e" r="2"/><path id="Shape" d="m31.782 18.7c-.3939748.0000617-.7512697-.2312053-.912539-.5906609s-.0964542-.7801017.165539-1.0743391c3.9719125-4.4807697 10.6420467-5.3411705 15.621-2.015.3086284.1934697.4876465.5394526.4673014.9031394-.020345.3636868-.2368348.6875445-.5651158.8453848-.3282811.1578403-.7164215.1246939-1.0131856-.0865242-4.1485211-2.7712795-9.7059763-2.0548221-13.016 1.678-.188243.2158549-.4605934.3398162-.747.34z" fill="#f29c1f"/><path id="Shape" d="m8 39c-.00213131 2.7573219-1.88326566 5.1582434-4.56 5.82-2.17520051-3.4393788-3.36186473-7.4110713-3.43-11.48.63907348-.2260529 1.31212558-.3410467 1.99-.34 3.3137085 0 6 2.6862915 6 6z" fill="#f0c419"/><path id="Shape" d="m57.99 33.34c-.0681353 4.0689287-1.2547995 8.0406212-3.43 11.48-2.1622781-.5171004-3.8613699-2.1874549-4.4152755-4.3405987-.5539056-2.1531437.1281878-4.4360685 1.7724941-5.9324294 1.6443064-1.4963608 3.9812417-1.9608293 6.0727814-1.2069719z" fill="#f0c419"/><path id="Shape" d="m13 9.92c-.1750021 1.9078694-.74001 3.7594615-1.66 5.44-1.13605 2.1173928-3.02302342 3.7332698-5.29 4.53-.14691771.0596263-.30200148.0967116-.46.11-4.03-3.83-3.99-9.75-3.11-14.35.06991242-.37766872.25097656-.72586901.52-1 .44562464-.45618138 1.06970377-.6926926 1.70574075-.64643537.63603698.04625724 1.2193284.37057722 1.59425925.88643537 1.70903616 2.28021583 4.0334209 4.02523899 6.7 5.03z" fill="#f9eab0"/><path id="Shape" d="m52.409 20c4.026-3.834 3.988-9.751 3.115-14.355-.1946856-.81561511-.8471858-1.44275278-1.6698747-1.60496707-.8226889-.16221428-1.664409.1702994-2.1541253.85096707-1.7101659 2.27978159-4.034099 4.02550628-6.7 5.033 0 0 .412 7.664 6.948 9.965.1474695.0591639.3027629.0965556.461.111z" fill="#f9eab0"/><path id="Shape" d="m13 9.92c-.1750021 1.9078694-.74001 3.7594615-1.66 5.44-4.55414681-1.7429146-7.76610215-5.86761984-8.34-10.71.44562464-.45618138 1.06970377-.6926926 1.70574075-.64643537.63603698.04625724 1.2193284.37057722 1.59425925.88643537 1.70903616 2.28021583 4.0334209 4.02523899 6.7 5.03z" fill="#f5efca"/><path id="Shape" d="m45 9.92c.1750021 1.9078694.74001 3.7594615 1.66 5.44 4.5541468-1.7429146 7.7661021-5.86761984 8.34-10.71-.4456246-.45618138-1.0697038-.6926926-1.7057408-.64643537-.6360369.04625724-1.2193283.37057722-1.5942592.88643537-1.7090362 2.28021583-4.0334209 4.02523899-6.7 5.03z" fill="#f5efca"/><circle id="Oval" cx="16" cy="22" fill="#ecf0f1" r="2"/><circle id="Oval" cx="38" cy="22" fill="#ecf0f1" r="2"/><path id="Shape" d="m36.87 41.75c-1.467225.8814126-3.1596474 1.3158126-4.87 1.25h-.63l1.02-2.71c.2802294-.7436861.9741935-1.2508912 1.7678559-1.2920922.7936623-.0412011 1.5364152.3914204 1.8921441 1.1020922z" fill="#ecf0f1"/><path id="Shape" d="m26.62 43h-.62c-1.7103526.0658126-3.402775-.3685874-4.87-1.25l.82-1.65c.3557289-.7106718 1.0984818-1.1432933 1.8921441-1.1020922.7936624.041201 1.4876265.5484061 1.7678559 1.2920922z" fill="#ecf0f1"/></g></g></svg>