<svg height="512" viewBox="0 0 58 58" width="512" xmlns="http://www.w3.org/2000/svg"><g id="Page-1" fill="none" fill-rule="evenodd"><g id="011---Excided" fill-rule="nonzero" transform="translate(0 -1)"><path id="Shape" d="m3.23 16.71v-.01l-3.17-13.22c-.16716829-.6747117.02797919-1.38783061.51540204-1.88341117.48742284-.49558055 1.1972048-.70253633 1.87459796-.54658883l13.75 2.93z" fill="#802f34"/><path id="Shape" d="m41.8 3.98 13.75-2.93c.6773932-.1559475 1.3871751.05100828 1.874598.54658883.4874228.49558056.6825703 1.20869947.515402 1.88341117l-3.171 13.22v.01z" fill="#802f34"/><circle id="Oval" cx="29" cy="30" fill="#e64c3c" r="29"/><path id="Shape" d="m48.47 39.52c-1.1584978 4.4532813-3.8181813 8.3703982-7.53 11.09-3.5302177 2.3450533-7.7041912 3.5301262-11.94 3.39-4.2358088.1401262-8.4097823-1.0449467-11.94-3.39-3.7118187-2.7196018-6.3715022-6.6367187-7.53-11.09-.1643157-.6008234-.03842547-1.2439154.34031148-1.7384321.37873692-.4945166.96680482-.7836393 1.58968852-.7815679h35.08c.6228837-.0020714 1.2109516.2870513 1.5896885.7815679.378737.4945167.5046272 1.1376087.3403115 1.7384321z" fill="#802d40"/><path id="Shape" d="m40.94 50.61c-3.5302177 2.3450533-7.7041912 3.5301262-11.94 3.39-4.2358088.1401262-8.4097823-1.0449467-11.94-3.39.63-4.27 5.73-7.61 11.94-7.61s11.31 3.34 11.94 7.61z" fill="#ff5364"/><path id="Shape" d="m14.86 37 3.52 4.11c.3945524.4613333.9772777.718502 1.5840082.6990555s1.1717915-.3134032 1.5359918-.7990555l3-4.01z" fill="#ecf0f1"/><path id="Shape" d="m33.5 37 3 4.01c.3642003.4856523.9292613.779609 1.5359918.7990555s1.1894558-.2377222 1.5840082-.6990555l3.52-4.11z" fill="#ecf0f1"/><circle id="Oval" cx="29" cy="19" fill="#ecf0f1" r="14"/><circle id="Oval" cx="29" cy="19" fill="#f0c419" r="7"/><circle id="Oval" cx="29" cy="19" fill="#35495e" r="3"/><g fill="#c03a2b"><circle id="Oval" cx="9" cy="22" r="2"/><circle id="Oval" cx="6" cy="29" r="2"/><circle id="Oval" cx="13" cy="31" r="2"/><circle id="Oval" cx="49" cy="22" r="2"/><circle id="Oval" cx="52" cy="29" r="2"/><circle id="Oval" cx="45" cy="31" r="2"/></g><path id="Shape" d="m34.42 53.42c-3.5719541.7733482-7.2680459.7733482-10.84 0l4.01-4.01c.3736892-.3744562.8809811-.5848881 1.41-.5848881s1.0363108.2104319 1.41.5848881z" fill="#ecf0f1"/><circle id="Oval" cx="25" cy="14" fill="#ecf0f1" r="4"/></g></g></svg>