<svg height="512" viewBox="0 0 58 58" width="512" xmlns="http://www.w3.org/2000/svg"><g id="Page-1" fill="none" fill-rule="evenodd"><g id="014---Annoyed" fill-rule="nonzero"><circle id="Oval" cx="29" cy="29" fill="#65ddb9" r="29"/><path id="Shape" d="m12.254 33.534c-.1674464-.0002499-.3321495-.0425432-.479-.123-4.17387395-2.2798333-6.77156403-6.6550719-6.775-11.411 0-.5522847.44771525-1 1-1s1 .4477153 1 1c.00387263 4.0252632 2.20312285 7.7278712 5.736 9.657.4008354.2196083.6017658.6830348.4880864 1.1257241s-.5130346.7519668-.9700864.7512759z" fill="#46b29d"/><path id="Shape" d="m45.746 33.534c-.4570518.0006909-.856407-.3085866-.9700864-.7512759s.087251-.9061158.4880864-1.1257241c3.5328771-1.9291288 5.7321274-5.6317368 5.736-9.657 0-.5522847.4477153-1 1-1s1 .4477153 1 1c-.003436 4.7559281-2.601126 9.1311667-6.775 11.411-.1468505.0804568-.3115536.1227501-.479.123z" fill="#46b29d"/><path id="Shape" d="m26 22c-.000553 1.7013746-.5435092 3.3582667-1.55 4.73v.01c-1.5098875 2.0497631-3.9041624 3.2598295-6.45 3.2598295s-4.9401125-1.2100664-6.45-3.2598295v-.01c-1.0064908-1.3717333-1.549447-3.0286254-1.55-4.73-.0033452-1.4058126.3695516-2.7869117 1.08-4l3.3.01 7.3.04 3.28.01c.6826978 1.200832 1.0411119 2.55867 1.04 3.94z" fill="#d1d4d1"/><path id="Shape" d="m48 22c-.000553 1.7013746-.5435092 3.3582667-1.55 4.73v.01c-1.5098875 2.0497631-3.9041624 3.2598295-6.45 3.2598295s-4.9401125-1.2100664-6.45-3.2598295v-.01c-1.863473-2.5370564-2.0631735-5.9319644-.51-8.67l3.28-.01 7.3-.04 3.3-.01c.7104484 1.2130883 1.0833452 2.5941874 1.08 4z" fill="#d1d4d1"/><path id="Shape" d="m42.92 45.71c-.1047511.7934664-.4543071 1.5345251-1 2.12-.7900875.7444226-1.8344573 1.1593092-2.92 1.16-1.1321787.0251703-2.2607296-.1370166-3.34-.48-1.05-.32-2.08-.75-3.06-1.16-1.1462635-.4443698-2.3715768-.6485887-3.6-.6-1.2284232-.0485887-2.4537365.1556302-3.6.6-.98.41-2.01.84-3.06 1.16-1.0792704.3429834-2.2078213.5051703-3.34.48-1.0855427-.0006908-2.1299125-.4155774-2.92-1.16-.5456929-.5854749-.8952489-1.3265336-1-2.12-.1993663-2.0908421.2585779-4.1917923 1.31-6.01 2.4274222-4.7277816 7.2954636-7.7005483 12.61-7.7005483s10.1825778 2.9727667 12.61 7.7005483c1.0514221 1.8182077 1.5093663 3.9191579 1.31 6.01z" fill="#802d40"/><path id="Shape" d="m25 24c-.0007108.9374458-.1876631 1.8654092-.55 2.73v.01c-1.5098875 2.0497631-3.9041624 3.2598295-6.45 3.2598295s-4.9401125-1.2100664-6.45-3.2598295v-.01c-.3623369-.8645908-.5492892-1.7925542-.55-2.73-.0017235-2.4512418 1.280859-4.724221 3.38-5.99l7.3.04c2.0649833 1.272076 3.3218809 3.5246485 3.32 5.95z" fill="#ecf0f1"/><path id="Shape" d="m47 24c-.0007108.9374458-.1876631 1.8654092-.55 2.73v.01c-1.5098875 2.0497631-3.9041624 3.2598295-6.45 3.2598295s-4.9401125-1.2100664-6.45-3.2598295v-.01c-.3623369-.8645908-.5492892-1.7925542-.55-2.73-.0018809-2.4253515 1.2550167-4.677924 3.32-5.95l7.3-.04c2.099141 1.265779 3.3817235 3.5387582 3.38 5.99z" fill="#ecf0f1"/><path id="Shape" d="m23 19h-15c-.55228475 0-1-.4477153-1-1s.44771525-1 1-1h15c1.6568542 0 3-1.3431458 3-3v-5c0-.55228475.4477153-1 1-1s1 .44771525 1 1v5c-.0033061 2.7600532-2.2399468 4.9966939-5 5z" fill="#46b29d"/><path id="Shape" d="m50 19h-15c-2.7600532-.0033061-4.9966939-2.2399468-5-5v-5c0-.55228475.4477153-1 1-1s1 .44771525 1 1v5c0 1.6568542 1.3431458 3 3 3h15c.5522847 0 1 .4477153 1 1s-.4477153 1-1 1z" fill="#46b29d"/><ellipse id="Oval" cx="15.5" cy="21" fill="#fff" rx="2.5" ry="2"/><ellipse id="Oval" cx="37.5" cy="21" fill="#fff" rx="2.5" ry="2"/><path id="Shape" d="m36 46.5c.0002149.6843283-.1147231 1.3638146-.34 2.01-1.05-.32-2.08-.75-3.06-1.16-1.1462635-.4443698-2.3715768-.6485887-3.6-.6-1.2284232-.0485887-2.4537365.1556302-3.6.6-.98.41-2.01.84-3.06 1.16-.2252769-.6461854-.3402149-1.3256717-.34-2.01.1415277-3.726337 3.2734029-6.6345069 7-6.5 3.7265971-.1345069 6.8584723 2.773663 7 6.5z" fill="#ff5364"/><g fill="#ecf0f1"><path id="Shape" d="m25.44 47.33c-.01.01-.03.01-.04.02-1.9896462 1.0030214-4.1731759 1.5625509-6.4 1.64-.5839851-.0144222-1.1602977-.1364649-1.7-.36l3.22-3.9c.3853769-.4769346.9720138-.7456729 1.5848728-.72603.6128589.0196429 1.1810827.325396 1.5351272.82603z"/><path id="Shape" d="m40.7 48.63c-.5397023.2235351-1.1160149.3455778-1.7.36-2.2268241-.0774491-4.4103538-.6369786-6.4-1.64-.01-.01-.03-.01-.04-.02l1.8-2.5c.3540445-.500634.9222683-.8063871 1.5351272-.82603.612859-.0196429 1.1994959.2490954 1.5848728.72603z"/></g></g></g></svg>