<svg height="512" viewBox="0 0 58 58" width="512" xmlns="http://www.w3.org/2000/svg"><g id="Page-1" fill="none" fill-rule="evenodd"><g id="016---Heart-Eyed" fill-rule="nonzero"><path id="Shape" d="m58 33c0 13.81-12.98 25-29 25s-29-11.19-29-25c0-6.9 3.24-15.16 8.49-21.68v-.01c.85-1.04 1.74-2.04 2.67-2.97 4.92-4.95 11.11-8.34 17.84-8.34 16.02 0 29 19.19 29 33z" fill="#f3d55b"/><path id="Shape" d="m48.47 38.52c-1.2453294 4.8620075-4.3046913 9.0628156-8.55 11.74-3.3200722 1.8969225-7.0976689 2.844781-10.92 2.74-3.8223311.104781-7.5999278-.8430775-10.92-2.74-4.2453087-2.6771844-7.3046706-6.8779925-8.55-11.74-.1643157-.6008234-.03842547-1.2439154.34031148-1.7384321.37873692-.4945166.96680482-.7836393 1.58968852-.7815679h35.08c.6228837-.0020714 1.2109516.2870513 1.5896885.7815679.378737.4945167.5046272 1.1376087.3403115 1.7384321z" fill="#802d40"/><path id="Shape" d="m14.86 36 3.52 4.11c.3945524.4613333.9772777.718502 1.5840082.6990555s1.1717915-.3134032 1.5359918-.7990555l3-4.01z" fill="#ecf0f1"/><path id="Shape" d="m33.5 36 3 4.01c.3642003.4856523.9292613.779609 1.5359918.7990555s1.1894558-.2377222 1.5840082-.6990555l3.52-4.11z" fill="#ecf0f1"/><path id="Shape" d="m27 21.58c-.0042262.5816339-.0678903 1.1613128-.19 1.73-.63 2.97-2.94 6.81-8.81 8.69-5.87-1.88-8.18-5.72-8.81-8.69-.12210965-.5686872-.18577381-1.1483661-.19-1.73 0-2.99 1.84-5.58 4.5-5.58 1.7144034.0046813 3.3476982.7305902 4.5 2 1.1523018-1.2694098 2.7855966-1.9953187 4.5-2 2.66 0 4.5 2.59 4.5 5.58z" fill="#df4d60"/><path id="Shape" d="m49 21.58c-.0042262.5816339-.0678903 1.1613128-.19 1.73-.63 2.97-2.94 6.81-8.81 8.69-5.87-1.88-8.18-5.72-8.81-8.69-.1221097-.5686872-.1857738-1.1483661-.19-1.73 0-2.99 1.84-5.58 4.5-5.58 1.7144034.0046813 3.3476982.7305902 4.5 2 1.1523018-1.2694098 2.7855966-1.9953187 4.5-2 2.66 0 4.5 2.59 4.5 5.58z" fill="#df4d60"/><g fill="#f0c419"><path id="Shape" d="m38.71 2.37c-1.0907893 4.47737758-5.1016672 7.62842692-9.71 7.62842692s-8.6192107-3.15104934-9.71-7.62842692c3.0095805-1.53096066 6.3335158-2.34226103 9.71-2.37 3.3764842.02773897 6.7004195.83903934 9.71 2.37z"/><path id="Shape" d="m7 33c.00266015 3.4292001-2.48470374 6.3530179-5.87 6.9-.75045994-2.2229791-1.13216826-4.5537644-1.13-6.9.02233585-2.3408791.34155083-4.6694683.95-6.93 3.46785718.4684146 6.05393821 3.4306529 6.05 6.93z"/><path id="Shape" d="m58 33c.0021683 2.3462356-.3795401 4.6770209-1.13 6.9-3.4186459-.555182-5.9156762-3.5294389-5.8706028-6.9925783.0450734-3.4631395 2.6186658-6.3714013 6.0506028-6.8374217.6084492 2.2605317.9276641 4.5891209.95 6.93z"/></g><path id="Shape" d="m40 49.5c-.0013562.2553617-.0281553.5099528-.08.76-3.3200722 1.8969225-7.0976689 2.844781-10.92 2.74-3.8223311.104781-7.5999278-.8430775-10.92-2.74-.0518447-.2500472-.0786438-.5046383-.08-.76 0-3.59 4.92-6.5 11-6.5s11 2.91 11 6.5z" fill="#ff5364"/><path id="Shape" d="m34.42 52.42c-3.5719541.7733482-7.2680459.7733482-10.84 0l4.01-4.01c.3736892-.3744562.8809811-.5848881 1.41-.5848881s1.0363108.2104319 1.41.5848881z" fill="#ecf0f1"/><path id="Shape" d="m27 21.58c-.0042262.5816339-.0678903 1.1613128-.19 1.73-1.68 2.2-5 3.69-8.81 3.69s-7.13-1.49-8.81-3.69c-.12210965-.5686872-.18577381-1.1483661-.19-1.73 0-2.99 1.84-5.58 4.5-5.58 1.7144034.0046813 3.3476982.7305902 4.5 2 1.1523018-1.2694098 2.7855966-1.9953187 4.5-2 2.66 0 4.5 2.59 4.5 5.58z" fill="#ff5364"/><path id="Shape" d="m49 21.58c-.0042262.5816339-.0678903 1.1613128-.19 1.73-1.68 2.2-5 3.69-8.81 3.69s-7.13-1.49-8.81-3.69c-.1221097-.5686872-.1857738-1.1483661-.19-1.73 0-2.99 1.84-5.58 4.5-5.58 1.7144034.0046813 3.3476982.7305902 4.5 2 1.1523018-1.2694098 2.7855966-1.9953187 4.5-2 2.66 0 4.5 2.59 4.5 5.58z" fill="#ff5364"/><ellipse id="Oval" cx="13.432" cy="18.918" fill="#fb7b76" rx="2.5" ry="2" transform="matrix(.922 -.387 .387 .922 -6.271 6.667)"/><ellipse id="Oval" cx="35.432" cy="18.917" fill="#fb7b76" rx="2.5" ry="2" transform="matrix(.922 -.387 .387 .922 -4.559 15.175)"/></g></g></svg>