<svg height="512" viewBox="0 0 58 58" width="512" xmlns="http://www.w3.org/2000/svg"><g id="Page-1" fill="none" fill-rule="evenodd"><g id="018---Evil" fill-rule="nonzero" transform="translate(-1 -1)"><path id="Shape" d="m59 30c.001047 1.2372562-.0791253 2.4732468-.24 3.7-.1461191 1.1933136-.3699277 2.3758244-.67 3.54v.01c-3.312654 12.8114559-14.87382 21.7585466-28.1066212 21.7514815-13.2328012-.007065-24.78440686-8.9664957-28.0833788-21.7814815-.31493139-1.2603979-.54874412-2.5396875-.7-3.83-1.26254485-10.694544 3.50494917-21.2080625 12.3817221-27.30479866 8.876773-6.0967362 20.4009316-6.77263409 29.9295457-1.75538339 9.528614 5.01725071 15.4924402 14.90137165 15.4887322 25.67018205z" fill="#e64c3c"/><g fill="#ecf0f1"><path id="Shape" d="m22.977 23.17c.670745.4220738 1.2000567 1.034961 1.52 1.76.5092763 1.2584088.6413117 2.6378321.38 3.97-.3445331 1.9894638-1.4718767 3.7579165-3.13 4.91-.9431206.6185934-2.0189739 1.0057635-3.14 1.13-2.2440443.3449534-4.5303815-.2601469-6.31-1.67-1.673381-1.3775228-2.51664367-3.5216033-2.23-5.67.44-2.91 2.99-4.91 5.87-5.42.6565547-.1198382 1.3225981-.1800833 1.99-.18z"/><path id="Shape" d="m42.073 22c.6674019-.0000833 1.3334453.0601618 1.99.18 2.88.51 5.43 2.51 5.87 5.42.2866437 2.1483967-.556619 4.2924772-2.23 5.67-1.7796185 1.4098531-4.0659557 2.0149534-6.31 1.67-1.1210261-.1242365-2.1968794-.5114066-3.14-1.13-1.6581233-1.1520835-2.7854669-2.9205362-3.13-4.91-.2613117-1.3321679-.1292763-2.7115912.38-3.97.3199433-.725039.849255-1.3379262 1.52-1.76z"/><path id="Shape" d="m8.17 39.55 2.17 4.34c.2769065.5553776.7959357.9507486 1.4049136 1.0701944.608978.1194459 1.2389025-.0505677 1.7050864-.4601944l2.99-2.62z"/><path id="Shape" d="m17.98 42.14 2.97 4.9c.32088.5289061.869074.8789223 1.4838985.9474537.6148244.0685313 1.2266351-.1521849 1.6561015-.5974537l4.29-4.41z"/><path id="Shape" d="m43.56 41.88 2.99 2.62c.4661839.4096267 1.0961084.5796403 1.7050864.4601944.6089779-.1194458 1.1280071-.5148168 1.4049136-1.0701944l2.17-4.34z"/><path id="Shape" d="m31.62 42.98 4.29 4.41c.4294664.4452688 1.0412771.665985 1.6561015.5974537.6148245-.0685314 1.1630185-.4185476 1.4838985-.9474537l2.97-4.9z"/></g><ellipse id="Oval" cx="18.628" cy="20.126" fill="#3f5c6c" rx="2" ry="8" transform="matrix(.31 -.951 .951 .31 -6.282 31.595)"/><ellipse id="Oval" cx="41.373" cy="20.126" fill="#3f5c6c" rx="8" ry="2" transform="matrix(.951 -.31 .31 .951 -4.201 13.822)"/><circle id="Oval" cx="18.997" cy="29" fill="#65ddb9" r="5"/><circle id="Oval" cx="41" cy="29" fill="#65ddb9" r="5"/><circle id="Oval" cx="18.997" cy="29" fill="#35495e" r="2"/><circle id="Oval" cx="41.003" cy="29" fill="#35495e" r="2"/><path id="Shape" d="m58.76 33.7c-.1461191 1.1933136-.3699277 2.3758244-.67 3.54v.01c-1.801313 1.3488475-3.784266 2.4362733-5.89 3.23-6.628 2.705-14.987 3.52-22.2 3.52-7.238 0-15.509-.8-22.21-3.52-2.10548418-.8072532-4.08795347-1.9045113-5.89-3.26-.31493139-1.2603979-.54874412-2.5396875-.7-3.83.41.59.78 1.12 1.09 1.52 1.83210658 1.6178525 3.95234551 2.8764263 6.25 3.71 6.447 2.618 14.473 3.38 21.46 3.38 6.911 0 15-.749 21.45-3.38 2.318423-.8131813 4.4528246-2.0775083 6.28-3.72.34-.37.69-.77 1.03-1.2z" fill="#c03a2b"/><circle id="Oval" cx="16" cy="27" fill="#ecf0f1" r="2"/><circle id="Oval" cx="38" cy="27" fill="#ecf0f1" r="2"/></g></g></svg>