<svg height="512" viewBox="0 0 60 58" width="512" xmlns="http://www.w3.org/2000/svg"><g id="Page-1" fill="none" fill-rule="evenodd"><g id="020---Cheerful" fill-rule="nonzero"><path id="Shape" d="m59 29c-.0064463-11.5895968-6.9125866-22.06248311-17.5627863-26.63326464-10.6501996-4.57078152-22.9991218-2.36165432-31.4041519 5.61796125-8.40503015 7.97961559-11.2520091 20.19725989-7.2400618 31.07030339-1.45193053 2.3787593-2.05373851 5.1797929-1.707 7.945.85210867-1.5861103 2.05373601-2.9576889 3.514-4.011.78513137 1.4225148 1.68830314 2.7766035 2.7 4.048-.47132165 2.2914118-.54371707 4.6469692-.214 6.963.93966709-1.3506859 2.02779583-2.5917698 3.244-3.7 1.2116859 1.1194111 2.5163883 2.1337335 3.9 3.032.0949624 1.2594185.3836929 2.4966423.856 3.668 0 0 .612-1.066 1.472-2.3 8.4195991 4.4066591 18.4644009 4.4066591 26.884 0 .86 1.239 1.472 2.3 1.472 2.3.4702943-1.1706843.757331-2.4068646.851-3.665 1.385456-.8989884 2.6918422-1.9143231 3.905-3.035 1.2162042 1.1082302 2.3043329 2.3493141 3.244 3.7.3297171-2.3160308.2573217-4.6715882-.214-6.963 1.0116969-1.2713965 1.9148686-2.6254852 2.7-4.048 1.460264 1.0533111 2.6618913 2.4248897 3.514 4.011.3467385-2.7652071-.2550695-5.5662407-1.707-7.945 1.1890382-3.2188668 1.7961572-6.6235418 1.793-10.055z" fill="#cb8252"/><path id="Shape" d="m15.087 58h-.07c-.3827058-.0266229-.716447-.2698383-.859-.626-1.0400428-2.5508573-1.2438218-5.365948-.582-8.04-2.406.992-4.8 3.947-5.658 5.223-.23112717.3420233-.6486602.5068806-1.05110299.4150138-.40244278-.0918667-.70707976-.4215758-.76689701-.8300138-.549574-3.8024215-.05671819-7.6827106 1.426-11.227-3.396.354-5.526 4.485-5.546 4.534-.19906798.3953223-.63433116.6127517-1.06997175.5344888-.43564058-.078263-.76800666-.4335971-.81702825-.8734888-1.065-9.582 7.46-13.961 7.546-14.01.49401871-.2485281 1.09597186-.0495187 1.3445.4445s.04951871 1.0959719-.4445 1.3445c-.261.131-5.578 2.893-6.424 8.925 1.542-1.7 3.975-3.439 7.171-2.8.31879102.0638858.58662325.2787663.7180984.576127.1314752.2973607.110179.6400767-.0570984.918873-1.40896817 2.7306187-2.11654655 5.7688414-2.059 8.841 1.652-1.878 4.363-4.35 7.198-4.35.346618-.0001616.6685998.1791823.8509316.4739691.1823318.2947867.1990067.6629693.0440684.9730309-.8127898 1.9335218-1.0148247 4.0693688-.579 6.121 1.744-2.654 4.156-5.449 6.132-4.463.4942948.2471474.6946474.8482051.4474999 1.3425-.2471474.4942948-.8482051.6946474-1.3424999.4475-.753-.062-3.006 2.667-4.684 5.6-.1777081.3119383-.5089937.5046793-.868.505z" fill="#a56a43"/><path id="Shape" d="m44.913 58c-.3579708.0007064-.6890149-.1899871-.868-.5-1.66-2.9-3.918-5.595-4.685-5.595h-.025c-.2357526.1181963-.5090293.137024-.758764.0522758-.2497347-.0847481-.4551111-.2660082-.570236-.5032758-.2415955-.4989038-.0364046-1.0993101.46-1.346 1.975-.984 4.389 1.809 6.132 4.463.4358149-2.0527092.2334309-4.189606-.58-6.124-.1539145-.3106046-.1359919-.6787642.0473649-.9729499.1833567-.2941857.5059897-.4724288.8526351-.4710501 2.836 0 5.547 2.474 7.2 4.358.0663761-3.0738398-.6420554-6.1149366-2.06-8.843-.1672774-.2787963-.1885736-.6215123-.0570984-.918873.1314751-.2973607.3993074-.5122412.7180984-.576127 3.2-.64 5.629 1.1 7.171 2.8-.846-6.031-6.163-8.794-6.424-8.925-.3195741-.1607695-.5291032-.4798174-.5496597-.8369614-.0205566-.3571441.1509825-.6981255.45-.8945s.6800856-.2183081.9996597-.0575386c.086.044 8.611 4.423 7.546 14.005-.0490216.4398917-.3813877.7952258-.8170283.8734888-.4356405.0782629-.8709037-.1391665-1.0699717-.5344888-.025-.053-2.156-4.183-5.551-4.538 1.4827182 3.5442894 1.975574 7.4245785 1.426 11.227-.0591615.4098064-.3647585.7407684-.7685583.8323496-.4037997.0915811-.8222756-.0751623-1.0524417-.4193496-.853-1.276-3.252-4.231-5.658-5.223.6618218 2.674052.4580428 5.4891427-.582 8.04-.142553.3561617-.4762942.5993771-.859.626z" fill="#a56a43"/><path id="Shape" d="m9.136 20.182c-.674-3.57 5.1-8.263 9.171-9.032s7.917 1.5 8.591 5.071-2.078 7.088-6.148 7.857-10.939-.326-11.614-3.896z" fill="#ecf0f1"/><circle id="Oval" cx="21" cy="18" fill="#2fa8cc" r="5"/><circle id="Oval" cx="21" cy="18" fill="#35495e" r="2"/><path id="Shape" d="m50.864 20.182c.674-3.57-5.1-8.263-9.171-9.032s-7.917 1.5-8.591 5.071 2.078 7.088 6.148 7.857 10.939-.326 11.614-3.896z" fill="#ecf0f1"/><path id="Shape" d="m30 43c-4.913 0-6.394-1.026-6.64-1.232-.2745586-.22865-.406278-.5864065-.3455406-.9385063.0607374-.3520997.304704-.6450503.6400001-.7685.335296-.1234497.7109819-.0586437.9855405.1700063.006 0 1.234.769 5.36.769 4.184 0 5.387-.791 5.4-.8.4431957-.3063873 1.0483119-.2148092 1.381.209.3288277.4153284.2672013 1.0169619-.139 1.357-.248.208-1.729 1.234-6.642 1.234z" fill="#a56a43"/><path id="Shape" d="m40.85 31.21c-.5397832 3.1034488-3.118845 5.443556-6.26 5.68-.5267284.0742541-1.0580645.1110132-1.59.11h-6c-.5319355.0010132-1.0632716-.0357459-1.59-.11-3.141155-.236444-5.7202168-2.5765512-6.26-5.68-.0635216-.295735.0102297-.6043298.2006055-.8393856s.4769152-.3713099.7793945-.3706144h19.74c.3024793-.0006955.5890187.1355586.7793945.3706144s.2641271.5436506.2006055.8393856z" fill="#802d40"/><circle id="Oval" cx="39" cy="18" fill="#2fa8cc" r="5"/><circle id="Oval" cx="39" cy="18" fill="#35495e" r="2"/><circle id="Oval" cx="18" cy="15" fill="#ecf0f1" r="2"/><circle id="Oval" cx="36" cy="15" fill="#ecf0f1" r="2"/><path id="Shape" d="m35 35.5c-.0063196.4922091-.1481811.973154-.41 1.39-.5267284.0742541-1.0580645.1110132-1.59.11h-6c-.5319355.0010132-1.0632716-.0357459-1.59-.11-.2618189-.416846-.4036804-.8977909-.41-1.39 0-1.93 2.24-3.5 5-3.5s5 1.57 5 3.5z" fill="#ff5364"/><g fill="#ecf0f1"><path id="Shape" d="m27.63 37h-.63c-1.7103526.0658126-3.402775-.3685874-4.87-1.25l.82-1.65c.3557289-.7106718 1.0984818-1.1432933 1.8921441-1.1020922.7936624.041201 1.4876265.5484061 1.7678559 1.2920922z"/><path id="Shape" d="m37.87 35.75c-1.467225.8814126-3.1596474 1.3158126-4.87 1.25h-.63l1.02-2.71c.2802294-.7436861.9741935-1.2508912 1.7678559-1.2920922.7936623-.0412011 1.5364152.3914204 1.8921441 1.1020922z"/></g></g></g></svg>