<svg height="512" viewBox="0 0 58 58" width="512" xmlns="http://www.w3.org/2000/svg"><g id="Page-1" fill="none" fill-rule="evenodd"><g id="022---Angry" fill-rule="nonzero" transform="translate(-1)"><path id="Shape" d="m14.99 4.17c9.2343787-5.55986629 20.7856213-5.55986629 30.02 0h.01l2.9 2.03c9.7193527 7.6388234 13.5278978 20.5991096 9.4863986 32.2817345-4.0414992 11.6826248-15.0444635 19.5190023-27.4063986 19.5190023s-23.36489938-7.8363775-27.4063986-19.5190023c-4.04149922-11.6826249-.23295413-24.6429111 9.4863986-32.2817345z" fill="#9fc9d3"/><path id="Shape" d="m22.977 10.155c.670745.4220738 1.2000567 1.034961 1.52 1.76.5092763 1.2584088.6413117 2.6378321.38 3.97-.3445331 1.9894638-1.4718767 3.7579165-3.13 4.91-.9431206.6185934-2.0189739 1.0057635-3.14 1.13-2.2440443.3449534-4.5303815-.2601469-6.31-1.67-1.673381-1.3775228-2.51664367-3.5216033-2.23-5.67.44-2.91 2.99-4.91 5.87-5.42.6565547-.11983815 1.3225981-.18008328 1.99-.18z" fill="#ecf0f1"/><ellipse id="Oval" cx="18.629" cy="7.111" fill="#35495e" rx="2" ry="8" transform="matrix(.31 -.951 .951 .31 6.091 22.617)"/><circle id="Oval" cx="18.997" cy="15.985" fill="#955ba5" r="4.985"/><circle id="Oval" cx="18.997" cy="15.985" fill="#35495e" r="2"/><path id="Shape" d="m42.073 8.985c.6674019-.00008328 1.3334453.06016185 1.99.18 2.88.51 5.43 2.51 5.87 5.42.2866437 2.1483967-.556619 4.2924772-2.23 5.67-1.7796185 1.4098531-4.0659557 2.0149534-6.31 1.67-1.1210261-.1242365-2.1968794-.5114066-3.14-1.13-1.6581233-1.1520835-2.7854669-2.9205362-3.13-4.91-.2613117-1.3321679-.1292763-2.7115912.38-3.97.3199433-.725039.849255-1.3379262 1.52-1.76z" fill="#ecf0f1"/><ellipse id="Oval" cx="41.372" cy="7.111" fill="#35495e" rx="8" ry="2" transform="matrix(.951 -.31 .31 .951 -.166 13.18)"/><circle id="Oval" cx="41.003" cy="15.985" fill="#955ba5" r="4.985"/><circle id="Oval" cx="41.003" cy="15.985" fill="#35495e" r="2"/><path id="Shape" d="m53 31.19s0 10.13-7.28 16.57c-3.4 3.03-8.39 5.24-15.72 5.24s-12.32-2.21-15.72-5.24c-7.28-6.44-7.28-16.57-7.28-16.57s8-5.19 23-5.19 23 5.19 23 5.19z" fill="#802d40"/><path id="Shape" d="m45.72 47.76c-3.4 3.03-8.39 5.24-15.72 5.24s-12.32-2.21-15.72-5.24c1.4-5.56 7.9-9.76 15.72-9.76s14.32 4.2 15.72 9.76z" fill="#ff5364"/><g fill="#ecf0f1"><path id="Shape" d="m34 26.13c-.04 4.36-1.81 7.87-4 7.87s-3.96-3.51-4-7.87c1.27-.08 2.6-.13 4-.13s2.73.05 4 .13z"/><path id="Shape" d="m17.98 34.83c-2.01.86-5.01-1.66-6.75-5.64 2.5016376-.9472842 5.0815167-1.6733981 7.71-2.17 1.25 3.66.88 7.03-.96 7.81z"/><path id="Shape" d="m48.67 29.15c-1.75 3.85-4.67 6.26-6.65 5.42-1.8-.77-2.19-4-1.05-7.57 2.6248539.4890266 5.2014923 1.2084775 7.7 2.15z"/><path id="Shape" d="m15.44 47.87c-.15.17-.31.34-.47.49-1.8364358-1.4889992-3.3881256-3.2981747-4.58-5.34 1.79-1.88 4.27-2.43 5.67-1.23 1.46 1.27 1.19 3.99-.62 6.08z"/><path id="Shape" d="m26.72 52.08c-.0700944.2489216-.1569597.4928125-.26.73-2.2935685-.2248046-4.5430937-.7770832-6.68-1.64.0444681-.355432.1180487-.7066121.22-1.05.77-2.65 2.9-4.36 4.76-3.82s2.73 3.13 1.96 5.78z"/><path id="Shape" d="m49.61 43.02c-1.1918744 2.0418253-2.7435642 3.8510008-4.58 5.34-.16-.15-.32-.32-.47-.49-1.81-2.09-2.08-4.81-.62-6.08 1.4-1.2 3.88-.65 5.67 1.23z"/><path id="Shape" d="m40.22 51.17c-2.1369063.8629168-4.3864315 1.4151954-6.68 1.64-.1030403-.2371875-.1899056-.4810784-.26-.73-.77-2.65.1-5.24 1.96-5.78s3.99 1.17 4.76 3.82c.1019513.3433879.1755319.694568.22 1.05z"/><circle id="Oval" cx="16" cy="14" r="2"/><circle id="Oval" cx="38" cy="14" r="2"/></g></g></g></svg>