<svg height="512" viewBox="0 0 58 58" width="512" xmlns="http://www.w3.org/2000/svg"><g id="Page-1" fill="none" fill-rule="evenodd"><g id="023---Scared" fill-rule="nonzero"><circle id="Oval" cx="29" cy="29" fill="#f0c419" r="29"/><path id="Shape" d="m29 30c-2.8695375-.0392284-5.6033862-1.2280149-7.589-3.3-.2591473-.2518304-.362276-.6238795-.269759-.973188.092517-.3493086.3662863-.6215334.7161127-.7120726.3498264-.0905393.7212861.0146927.9716463.2752606 1.5888662 1.7240234 3.8264846 2.7047842 6.171 2.7047842s4.5821338-.9807608 6.171-2.7047842c.2503602-.2605679.6218199-.3657999.9716463-.2752606.3498264.0905392.6235957.362764.7161127.7120726.092517.3493085-.0106117.7213576-.269759.973188-1.9856138 2.0719851-4.7194625 3.2607716-7.589 3.3z" fill="#f29c1f"/><ellipse id="Oval" cx="29" cy="15" fill="#ecf0f1" rx="7" ry="10"/><path id="Shape" d="m12 37c-2.79045095-.0307545-5.43863637-1.2364885-7.294-3.321-.36551053-.4065885-.33673323-1.0313491.06460631-1.4026156.40133955-.3712664 1.02644675-.3513935 1.40339369.0446156 1.47877545 1.6726574 3.59364392 2.6451484 5.826 2.679 2.2323561-.0338516 4.3472246-1.0063426 5.826-2.679.3769469-.3960091 1.0020541-.415882 1.4033937-.0446156.4013395.3712665.4301168.9960271.0646063 1.4026156-1.8553636 2.0845115-4.5035491 3.2902455-7.294 3.321z" fill="#f29c1f"/><ellipse id="Oval" cx="12" cy="23.5" fill="#ecf0f1" rx="6" ry="8.5"/><circle id="Oval" cx="29" cy="15" fill="#ff5364" r="5"/><circle id="Oval" cx="29" cy="15" fill="#35495e" r="2"/><circle id="Oval" cx="12" cy="23" fill="#ff5364" r="5"/><circle id="Oval" cx="12" cy="23" fill="#35495e" r="2"/><path id="Shape" d="m46 37c-2.7904509-.0307545-5.4386364-1.2364885-7.294-3.321-.3655105-.4065885-.3367332-1.0313491.0646063-1.4026156.4013396-.3712664 1.0264468-.3513935 1.4033937.0446156 1.4579187 1.7005363 3.5860556 2.6792027 5.826 2.6792027s4.3680813-.9786664 5.826-2.6792027c.2411169-.2682149.6079806-.3858135.9600945-.3077595.3521139.0780541.6349169.3396662.7401049.6846475s.0164618.719876-.2321994.981112c-1.8553636 2.0845115-4.5035491 3.2902455-7.294 3.321z" fill="#f29c1f"/><ellipse id="Oval" cx="46" cy="23.5" fill="#ecf0f1" rx="6" ry="8.5"/><circle id="Oval" cx="46" cy="23" fill="#ff5364" r="5"/><circle id="Oval" cx="46" cy="23" fill="#35495e" r="2"/><path id="Shape" d="m42.92 47.71c-.1047511.7934664-.4543071 1.5345251-1 2.12-.7900875.7444226-1.8344573 1.1593092-2.92 1.16-1.3554784.0171614-2.7021323-.2202839-3.97-.7-.83-.27-1.64-.61-2.43-.94-1.1462635-.4443698-2.3715768-.6485887-3.6-.6-1.2284232-.0485887-2.4537365.1556302-3.6.6-.79.33-1.6.67-2.43.94-1.2678677.4797161-2.6145216.7171614-3.97.7-1.0855427-.0006908-2.1299125-.4155774-2.92-1.16-.5456929-.5854749-.8952489-1.3265336-1-2.12-.1993663-2.0908421.2585779-4.1917923 1.31-6.01 2.4274222-4.7277816 7.2954636-7.7005483 12.61-7.7005483s10.1825778 2.9727667 12.61 7.7005483c1.0514221 1.8182077 1.5093663 3.9191579 1.31 6.01z" fill="#802d40"/><g fill="#ecf0f1"><circle id="Oval" cx="9" cy="21" r="2"/><circle id="Oval" cx="26" cy="13" r="2"/><circle id="Oval" cx="43" cy="21" r="2"/></g><path id="Shape" d="m36 47.5c-.0069346 1.0115009-.347949 1.9923568-.97 2.79-.83-.27-1.64-.61-2.43-.94-1.1462635-.4443698-2.3715768-.6485887-3.6-.6-1.2284232-.0485887-2.4537365.1556302-3.6.6-.79.33-1.6.67-2.43.94-.622051-.7976432-.9630654-1.7784991-.97-2.79 0-3.04 3.13-5.5 7-5.5s7 2.46 7 5.5z" fill="#ff5364"/><path id="Shape" d="m25.44 49.33c-.01.01-.03.01-.04.02-1.9896462 1.0030214-4.1731759 1.5625509-6.4 1.64-.5839851-.0144222-1.1602977-.1364649-1.7-.36l3.22-3.9c.3853769-.4769346.9720138-.7456729 1.5848728-.72603.6128589.0196429 1.1810827.325396 1.5351272.82603z" fill="#ecf0f1"/><path id="Shape" d="m40.7 50.63c-.5397023.2235351-1.1160149.3455778-1.7.36-2.2268241-.0774491-4.4103538-.6369786-6.4-1.64-.01-.01-.03-.01-.04-.02l1.8-2.5c.3540445-.500634.9222683-.8063871 1.5351272-.82603.612859-.0196429 1.1994959.2490954 1.5848728.72603z" fill="#ecf0f1"/></g></g></svg>