<svg height="512" viewBox="0 0 58 58" width="512" xmlns="http://www.w3.org/2000/svg"><g id="Page-1" fill="none" fill-rule="evenodd"><g id="025---Startled" fill-rule="nonzero"><circle id="Oval" cx="29" cy="29" fill="#955ba5" r="29"/><path id="Shape" d="m29 30c-2.8695375-.0392284-5.6033862-1.2280149-7.589-3.3-.2591473-.2518304-.362276-.6238795-.269759-.973188.092517-.3493086.3662863-.6215334.7161127-.7120726.3498264-.0905393.7212861.0146927.9716463.2752606 1.5888662 1.7240234 3.8264846 2.7047842 6.171 2.7047842s4.5821338-.9807608 6.171-2.7047842c.2503602-.2605679.6218199-.3657999.9716463-.2752606.3498264.0905392.6235957.362764.7161127.7120726.092517.3493085-.0106117.7213576-.269759.973188-1.9856138 2.0719851-4.7194625 3.2607716-7.589 3.3z" fill="#894b9d"/><ellipse id="Oval" cx="29" cy="15" fill="#ecf0f1" rx="7" ry="10"/><path id="Shape" d="m12 37c-2.79045095-.0307545-5.43863637-1.2364885-7.294-3.321-.36551053-.4065885-.33673323-1.0313491.06460631-1.4026156.40133955-.3712664 1.02644675-.3513935 1.40339369.0446156 1.47877545 1.6726574 3.59364392 2.6451484 5.826 2.679 2.2323561-.0338516 4.3472246-1.0063426 5.826-2.679.3769469-.3960091 1.0020541-.415882 1.4033937-.0446156.4013395.3712665.4301168.9960271.0646063 1.4026156-1.8553636 2.0845115-4.5035491 3.2902455-7.294 3.321z" fill="#894b9d"/><ellipse id="Oval" cx="12" cy="23.5" fill="#ecf0f1" rx="6" ry="8.5"/><circle id="Oval" cx="29" cy="15" fill="#f0c419" r="5"/><circle id="Oval" cx="29" cy="15" fill="#35495e" r="2"/><circle id="Oval" cx="12" cy="23" fill="#f0c419" r="5"/><circle id="Oval" cx="12" cy="23" fill="#35495e" r="2"/><path id="Shape" d="m46 37c-2.7904509-.0307545-5.4386364-1.2364885-7.294-3.321-.3655105-.4065885-.3367332-1.0313491.0646063-1.4026156.4013396-.3712664 1.0264468-.3513935 1.4033937.0446156 1.457731 1.700496 3.5857084 2.6791559 5.8255 2.6791559s4.367769-.9786599 5.8255-2.6791559c.3750014-.4056531 1.0078468-.4305013 1.4135-.0555.4056531.3750014.4305013 1.0078468.0555 1.4135-1.8552881 2.0846139-4.5035214 3.2903697-7.294 3.321z" fill="#894b9d"/><ellipse id="Oval" cx="46" cy="23.5" fill="#ecf0f1" rx="6" ry="8.5"/><circle id="Oval" cx="46" cy="23" fill="#f0c419" r="5"/><circle id="Oval" cx="46" cy="23" fill="#35495e" r="2"/><path id="Shape" d="m26.77 45.97c-5.6417601-.0950041-11.2598117-.754966-16.77-1.97 1.1515741-1.6407659 2.6950219-2.9676497 4.49-3.86 4.297-2.376 9.639-3.14 14.51-3.14 4.908 0 10.234.775 14.51 3.14 1.7949781.8923503 3.3384259 2.2192341 4.49 3.86-5.5029377 1.257555-11.125439 1.9180397-16.77 1.97z" fill="#802d40"/><g fill="#ecf0f1"><path id="Shape" d="m21.92 37.61-1 8.04-.46 3.69c-.0569984.4469521-.4058603.800587-.8519966.8636534-.4461364.0630664-.8793506-.1800133-1.0580034-.5936534l-1.9-4.43-2.16-5.04c2.3211956-1.2450121 4.8313672-2.0997542 7.43-2.53z"/><path id="Shape" d="m43.51 40.14-2.16 5.04-1.9 4.43c-.1786528.4136401-.611867.6567198-1.0580034.5936534-.4461363-.0630664-.7949982-.4167013-.8519966-.8636534l-.46-3.69-1-8.04c2.5986328.4302458 5.1088044 1.2849879 7.43 2.53z"/><path id="Shape" d="m33.65 37.25-2.42 8.72-1.27 4.56c-.1166115.4343209-.5102969.7362482-.96.7362482s-.8433885-.3019273-.96-.7362482l-1.27-4.56-2.42-8.72c3.0910394-.3333333 6.2089606-.3333333 9.3 0z"/><circle id="Oval" cx="10" cy="20" r="2"/><circle id="Oval" cx="27" cy="12" r="2"/><circle id="Oval" cx="44" cy="20" r="2"/></g></g></g></svg>