<svg height="512" viewBox="0 0 58 58" width="512" xmlns="http://www.w3.org/2000/svg"><g id="Page-1" fill="none" fill-rule="evenodd"><g id="027---Cheerful" fill-rule="nonzero"><circle id="Oval" cx="29" cy="29" fill="#fdd7ad" r="29"/><circle id="Oval" cx="18" cy="27" fill="#ecf0f1" r="7"/><circle id="Oval" cx="40" cy="27" fill="#ecf0f1" r="7"/><path id="Shape" d="m55.56 17.37c-5.3-3.2-18.04-9-26.56 2.63-8.52-11.63-21.26-5.83-26.56-2.63 4.61682897-10.5519673 15.0422258-17.37013596 26.56-17.37013596s21.943171 6.81816866 26.56 17.37013596z" fill="#35495e"/><circle id="Oval" cx="18" cy="27" fill="#e64c3c" r="4"/><circle id="Oval" cx="18" cy="27" fill="#35495e" r="2"/><circle id="Oval" cx="40" cy="27" fill="#e64c3c" r="4"/><circle id="Oval" cx="40" cy="27" fill="#35495e" r="2"/><path id="Shape" d="m12.33 38.31 2.87 11.49c.1088937.4256496.4828599.7303645.9217309.7510443s.8398332-.2475202.9882691-.6610443l3.37-9.44z" fill="#ecf0f1"/><path id="Shape" d="m37.52 40.45 3.37 9.44c.1484359.4135241.5493981.6817241.9882691.6610443s.8128372-.3253947.9217309-.7510443l2.87-11.49z" fill="#ecf0f1"/><path id="Shape" d="m29 42c-23.633 0-24.95-10.456-24.995-10.9-.03572657-.3563724.12138315-.704734.41214745-.9138604.2907643-.2091263.67100916-.2472461.99750002-.1.32649085.1472461.54962598.457488.58535253.8138604.005.08 1.368 9.1 23 9.1s23-9.02 23.006-9.111c.0703013-.5410638.5568711-.9289926 1.1-.877.5461208.0558018.9451523.5414241.894 1.088-.05.444-1.367 10.9-25 10.9z" fill="#802d40"/><g fill="#ecf0f1"><circle id="Oval" cx="16" cy="24" r="2"/><circle id="Oval" cx="38" cy="24" r="2"/></g></g></g></svg>