<svg height="512" viewBox="0 0 58 58" width="512" xmlns="http://www.w3.org/2000/svg"><g id="Page-1" fill="none" fill-rule="evenodd"><g id="033---Angry" fill-rule="nonzero"><circle id="Oval" cx="29" cy="29" fill="#955ba5" r="29"/><path id="Shape" d="m39.6 9.491c-.2881166-.3777238-.8022144-.50060572-1.23-.294-2.9652672 1.2417581-6.1556572 1.8556613-9.37 1.803-3.215811.0543031-6.4079658-.5585906-9.375-1.8-.4277856-.20660572-.9418834-.0837238-1.23.294-1.7343212 2.4348102-2.5708242 5.395614-2.367 8.378.4602085 7.0023387 6.3947454 12.3756062 13.4082388 12.1401308 7.0134934-.2354753 12.5742613-5.9946934 12.5637612-13.0121308.0031283-2.6921107-.8360684-5.3177474-2.4-7.509z" fill="#ecf0f1"/><path id="Shape" d="m40 47.97c-1.26-.94-1.99-1.82-3.08-2.52-1.4-.89-3.41-1.48-7.92-1.48s-6.52.59-7.92 1.48c-1.09.7-1.82 1.58-3.08 2.52-4 3-8.24-1.05-7-6 2-8 18-8 18-8s16 0 18 8c1.24 4.95-3 9-7 6z" fill="#802d40"/><ellipse id="Oval" cx="9" cy="30" fill="#b49aca" rx="5" ry="3"/><ellipse id="Oval" cx="49" cy="30" fill="#b49aca" rx="5" ry="3"/><path id="Shape" d="m19.44 40.65c-1.57.55-3.43-.7-4.15-2.79-.0853153-.2514578-.1521596-.5088084-.2-.77 1.7171816-.9508804 3.5629976-1.6481138 5.48-2.07.1539013.278683.2843511.5696866.39.87.72 2.09.04 4.22-1.52 4.76z" fill="#ecf0f1"/><path id="Shape" d="m42.89 37.07c-.041205.2312294-.101409.4586669-.18.68-.72 2.09-2.58 3.34-4.15 2.79s-2.24-2.67-1.52-4.76c.0932247-.2683102.2068914-.529075.34-.78 1.9238796.4307856 3.7783687 1.1274812 5.51 2.07z" fill="#ecf0f1"/><path id="Shape" d="m35 13c0 3.3137085-2.6862915 6-6 6s-6-2.6862915-6-6c-.0035521-.8819811.1912523-1.7534742.57-2.55 1.7855553.3742081 3.6056738.5585663 5.43.55 1.8243262.0085663 3.6444447-.1757919 5.43-.55.3787477.7965258.5735521 1.6680189.57 2.55z" fill="#f0c419"/><circle id="Oval" cx="29" cy="13" fill="#35495e" r="2"/><circle id="Oval" cx="24" cy="16" fill="#ecf0f1" r="2"/><path id="Shape" d="m37 44.5c-.0013799.3182894-.0281313.6359623-.08.95-1.4-.89-3.41-1.48-7.92-1.48s-6.52.59-7.92 1.48c-.0518687-.3140377-.0786201-.6317106-.08-.95 0-3.59 3.58-6.5 8-6.5s8 2.91 8 6.5z" fill="#ff5364"/></g></g></svg>