<svg height="512" viewBox="0 0 58 58" width="512" xmlns="http://www.w3.org/2000/svg"><g id="Page-1" fill="none" fill-rule="evenodd"><g id="035---Happy" fill-rule="nonzero"><circle id="Oval" cx="29" cy="29" fill="#f0c419" r="29"/><circle id="Oval" cx="29" cy="18" fill="#ecf0f1" r="14"/><path id="Shape" d="m50 33.9c-.0440153-1.6289081-1.0290825-3.0843162-2.5249611-3.7305563-1.4958785-.6462401-3.2308091-.3659085-4.4470389.7185563-8.1080895 6.8214517-19.9479105 6.8214517-28.056 0-1.2162298-1.0844648-2.9511604-1.3647964-4.4470389-.7185563-1.49587856.6462401-2.48094579 2.1016482-2.5249611 3.7305563v.1c0 11.05 9.4 20 21 20s21-8.95 21-20z" fill="#802d40"/><path id="Shape" d="m21.42 34.66c-1.4243611 1.3571964-2.5781205 2.9724595-3.4 4.76-.1739576.3738511-.5595489.6025959-.9710354.5760484-.4114864-.0265475-.7644881-.3029435-.8889646-.6960484l-2.86-9.31c.6156998.1693515 1.1861006.4733376 1.67.89 1.9085235 1.632953 4.0926277 2.9129397 6.45 3.78z" fill="#ecf0f1"/><path id="Shape" d="m44.7 29.99-2.86 9.31c-.1244765.3931049-.4774782.6695009-.8889646.6960484-.4114865.0265475-.7970778-.2021973-.9710354-.5760484-.8218795-1.7875405-1.9756389-3.4028036-3.4-4.76 2.3573723-.8670603 4.5414765-2.147047 6.45-3.78.4838994-.4166624 1.0543002-.7206485 1.67-.89z" fill="#ecf0f1"/><path id="Shape" d="m39.97 51.05c-6.78448 3.933284-15.15552 3.933284-21.94 0 1.87-2.98 6.08-5.05 10.97-5.05s9.1 2.07 10.97 5.05z" fill="#ff5364"/><path id="Shape" d="m29 10c-2.6875814.0039949-5.1941307 1.355235-6.6747057 3.5982257s-1.7379233 5.0789051-.6852943 7.5517743l4.21 4.21c2.4728692 1.052629 5.3087836.7952807 7.5517743-.6852943s3.5942308-3.9871243 3.5982257-6.6747057c.0017055-.7581769-.1060732-1.5126277-.32-2.24z" fill="#955ba5"/><circle id="Oval" cx="29" cy="18" fill="#2c3e50" r="4"/><g fill="#ecf0f1"><circle id="Oval" cx="32" cy="14" r="5"/><circle id="Oval" cx="24" cy="23" r="3"/></g></g></g></svg>