<svg height="512" viewBox="0 0 58 58" width="512" xmlns="http://www.w3.org/2000/svg"><g id="Page-1" fill="none" fill-rule="evenodd"><g id="041---Amazed" fill-rule="nonzero"><circle id="Oval" cx="29" cy="29" fill="#3b97d3" r="29"/><path id="Shape" d="m42.92 48.71c-.1047511.7934664-.4543071 1.5345251-1 2.12-.7900875.7444226-1.8344573 1.1593092-2.92 1.16-1.3554784.0171614-2.7021323-.2202839-3.97-.7-.83-.27-1.64-.61-2.43-.94-1.1462635-.4443698-2.3715768-.6485887-3.6-.6-1.2284232-.0485887-2.4537365.1556302-3.6.6-.79.33-1.6.67-2.43.94-1.2678677.4797161-2.6145216.7171614-3.97.7-1.0855427-.0006908-2.1299125-.4155774-2.92-1.16-.5456929-.5854749-.8952489-1.3265336-1-2.12-.1993663-2.0908421.2585779-4.1917923 1.31-6.01 2.4274222-4.7277816 7.2954636-7.7005483 12.61-7.7005483s10.1825778 2.9727667 12.61 7.7005483c1.0514221 1.8182077 1.5093663 3.9191579 1.31 6.01z" fill="#802d40"/><circle id="Oval" cx="16" cy="23" fill="#ecf0f1" r="11"/><circle id="Oval" cx="42" cy="23" fill="#ecf0f1" r="11"/><circle id="Oval" cx="16" cy="20" fill="#f3d55b" r="8"/><circle id="Oval" cx="16" cy="18" fill="#2c3e50" r="5"/><circle id="Oval" cx="42" cy="20" fill="#f3d55b" r="8"/><circle id="Oval" cx="10" cy="24" fill="#ecf0f1" r="3"/><circle id="Oval" cx="36" cy="24" fill="#ecf0f1" r="3"/><path id="Shape" d="m36 48.5c-.0069346 1.0115009-.347949 1.9923568-.97 2.79-.83-.27-1.64-.61-2.43-.94-1.1462635-.4443698-2.3715768-.6485887-3.6-.6-1.2284232-.0485887-2.4537365.1556302-3.6.6-.79.33-1.6.67-2.43.94-.622051-.7976432-.9630654-1.7784991-.97-2.79 0-3.04 3.13-5.5 7-5.5s7 2.46 7 5.5z" fill="#ff5364"/><path id="Shape" d="m25.44 50.33c-.01.01-.03.01-.04.02-1.9896462 1.0030214-4.1731759 1.5625509-6.4 1.64-.5839851-.0144222-1.1602977-.1364649-1.7-.36l3.22-3.9c.3853769-.4769346.9720138-.7456729 1.5848728-.72603.6128589.0196429 1.1810827.325396 1.5351272.82603z" fill="#ecf0f1"/><path id="Shape" d="m40.7 51.63c-.5397023.2235351-1.1160149.3455778-1.7.36-2.2268241-.0774491-4.4103538-.6369786-6.4-1.64-.01-.01-.03-.01-.04-.02l1.8-2.5c.3540445-.500634.9222683-.8063871 1.5351272-.82603.612859-.0196429 1.1994959.2490954 1.5848728.72603z" fill="#ecf0f1"/><circle id="Oval" cx="42" cy="18" fill="#2c3e50" r="5"/></g></g></svg>