<svg height="512" viewBox="0 0 58 58" width="512" xmlns="http://www.w3.org/2000/svg"><g id="Page-1" fill="none" fill-rule="evenodd"><g id="044---Happy" fill-rule="nonzero" transform="translate(-1 -1)"><path id="Shape" d="m10.913 6.633c-.4241177-.43785483-.5649706-1.07749717-.364-1.653.510551-1.10316193.3578661-2.39963047-.395-3.354-1.365-1.365-4.377-.573-6.718 1.767s-3.136 5.353-1.768 6.718c.92110175.7356909 2.17398658.9004834 3.254.428.69263867-.1982735 1.43814971.0021451 1.938.521l.232.232c1.01600847 1.0203657 1.16375195 2.6186816.352 3.808-4.036 5.985-6.444 12.95-6.444 18.9 0 13.81 12.98 25 29 25s29-11.19 29-25c0-5.95-2.408-12.915-6.444-18.9-.811752-1.1893184-.6640085-2.7876343.352-3.808l.416-.416c.4379152-.426858 1.0795648-.5693607 1.657-.368 1.1032315.5081476 2.3983739.3535498 3.351-.4 1.364-1.365.572-4.377-1.768-6.718s-5.353-3.129-6.718-1.764c-.7528661.95436953-.905551 2.25083807-.395 3.354.2009706.57550283.0601177 1.21514517-.364 1.653-1.1003554 1.09159884-2.849503 1.16990597-4.043.181-4.195729-3.61224533-9.5095164-5.66584542-15.044-5.814-5.5344836.14815458-10.848271 2.20175467-15.044 5.814-1.193497.98890597-2.9426446.91059884-4.043-.181z" fill="#65ddb9"/><path id="Shape" d="m40.96 13.28c3.0439112.8821366 5.117186 3.6970431 5.0567675 6.8656247-.0604186 3.1685817-2.2394968 5.9024042-5.3148242 6.6678591-3.0753275.7654548-6.2816742-.6279252-7.820357-3.3984875-1.5386829-2.7705622-1.0268332-6.2289111 1.2484137-8.4349963z" fill="#ecf0f1"/><circle id="Oval" cx="39" cy="20" fill="#f0c419" r="4"/><path id="Shape" d="m49.47 33.52c-.93 3.33-3.38 9.14-9.54 12.28-3.0837839 1.524434-6.4909106 2.2792858-9.93 2.2-3.4390894.0792858-6.8462161-.675566-9.93-2.2-6.16-3.14-8.61-8.95-9.54-12.28-.1643157-.6008234-.0384255-1.2439154.3403115-1.7384321.3787369-.4945166.9668048-.7836393 1.5896885-.7815679h35.08c.6228837-.0020714 1.2109516.2870513 1.5896885.7815679.378737.4945167.5046272 1.1376087.3403115 1.7384321z" fill="#802d40"/><path id="Shape" d="m40 45c.0019634.2682781-.0214745.5361397-.07.8-3.0837839 1.524434-6.4909106 2.2792858-9.93 2.2-3.4390894.0792858-6.8462161-.675566-9.93-2.2-.0485255-.2638603-.0719634-.5317219-.07-.8 0-3.87 4.48-7 10-7s10 3.13 10 7z" fill="#ff5364"/><path id="Shape" d="m15.86 31 3.52 4.11c.3945524.4613333.9772777.718502 1.5840082.6990555s1.1717915-.3134032 1.5359918-.7990555l3-4.01z" fill="#ecf0f1"/><path id="Shape" d="m34.5 31 3 4.01c.3642003.4856523.9292613.779609 1.5359918.7990555s1.1894558-.2377222 1.5840082-.6990555l3.52-4.11z" fill="#ecf0f1"/><path id="Shape" d="m32 54h-4c-.5522847 0-1-.4477153-1-1s.4477153-1 1-1h4c.5522847 0 1 .4477153 1 1s-.4477153 1-1 1z" fill="#46b29d"/><circle id="Oval" cx="39" cy="20" fill="#35495e" r="2"/><path id="Shape" d="m25.87 14.98c2.267058 2.2032636 2.7745929 5.6532233 1.2381111 8.4160382-1.5364819 2.7628148-4.735043 4.1517065-7.8027615 3.3881456-3.0677185-.763561-5.2420235-3.4897693-5.3041295-6.6504758-.0621061-3.1607064 2.0034249-5.9702251 5.0387799-6.853708z" fill="#ecf0f1"/><circle id="Oval" cx="21" cy="20" fill="#f0c419" r="4"/><circle id="Oval" cx="21" cy="20" fill="#35495e" r="2"/><path id="Shape" d="m33 16c-.5522847 0-1-.4477153-1-1s.4477153-1 1-1c7.945 0 9.026-3.233 9.036-3.267.1583721-.521408.7014906-.82348447 1.228-.683.5214998.1376839.8358962.6685061.706 1.192-.049.195-1.301 4.758-10.97 4.758z" fill="#46b29d"/><path id="Shape" d="m27 16c-9.669 0-10.921-4.563-10.97-4.758-.1210623-.5268604.1985008-1.05455.7214877-1.1913811.5229868-.13683109 1.0600359.1667397 1.2125123.6853811.036.105 1.183 3.264 9.036 3.264.5522847 0 1 .4477153 1 1s-.4477153 1-1 1z" fill="#46b29d"/><g fill="#ecf0f1"><path id="Shape" d="m35.42 47.42c-3.5719541.7733482-7.2680459.7733482-10.84 0l4.01-4.01c.3736892-.3744562.8809811-.5848881 1.41-.5848881s1.0363108.2104319 1.41.5848881z"/><circle id="Oval" cx="19" cy="18" r="2"/><circle id="Oval" cx="37" cy="18" r="2"/></g></g></g></svg>