<svg height="512" viewBox="0 0 58 58" width="512" xmlns="http://www.w3.org/2000/svg"><g id="Page-1" fill="none" fill-rule="evenodd"><g id="049---Grumpy" fill-rule="nonzero"><path id="Shape" d="m4.74 16.87c-2.71733022-.5840371-4.67784617-2.9578472-4.73781275-5.7365856-.05996657-2.77873833 1.79631577-5.2349168 4.48592025-5.93563833 2.68960449-.70072154 5.50837858.53746643 6.8118925 2.99222393z" fill="#14a085"/><path id="Shape" d="m53.26 16.87c2.7173302-.5840371 4.6778462-2.9578472 4.7378127-5.7365856.0599666-2.77873833-1.7963157-5.2349168-4.4859202-5.93563833-2.6896045-.70072154-5.5083786.53746643-6.8118925 2.99222393z" fill="#14a085"/><path id="Shape" d="m58 33c0-13.807-12.984-33-29-33s-29 19.193-29 33 12.984 25 29 25 29-11.193 29-25z" fill="#26b99a"/><path id="Shape" d="m4 13c-.4454805.0009968-.83790041-.2928047-.96239487-.7205371-.12449447-.4277324.04896179-.8862361.42539487-1.1244629.58822229-.5535509.88005102-1.35264994.787-2.155 0-.55228475.44771525-1 1-1s1 .44771525 1 1c.135772 1.5005804-.52211079 2.9630899-1.735 3.857-.15539125.0937918-.33349714.1432465-.515.143z" fill="#33907c"/><path id="Shape" d="m53.987 13c-.1763583-.0008662-.3491723-.0495997-.5-.141-1.2142868-.8938363-1.8730423-2.3573582-1.737-3.859 0-.55228475.4477153-1 1-1s1 .44771525 1 1c-.0956587.80393436.197354 1.6053555.789 2.158.4481865.3066979.575166.9120548.288 1.373-.1814628.2895998-.4982538.4664748-.84.469z" fill="#33907c"/><path id="Shape" d="m25 21c-.0031394 3.1522783-2.4450883 5.7645958-5.59 5.98-.14.01-.27.02-.41.02s-.27-.01-.41-.02c-3.1449117-.2154042-5.5868606-2.8277217-5.59-5.98l2.56-.04 6.81-.1 2.62-.04c.0083116.0596196.0116565.1198266.01.18z" fill="#2c3e50"/><path id="Shape" d="m45 21c-.0031394 3.1522783-2.4450883 5.7645958-5.59 5.98-.14.01-.27.02-.41.02s-.27-.01-.41-.02c-3.1449117-.2154042-5.5868606-2.8277217-5.59-5.98-.0016565-.0601734.0016884-.1203804.01-.18l2.62.04 6.81.1z" fill="#2c3e50"/><path id="Shape" d="m40.46 35.352.82-2.08c.1913873-.4950617.572795-.8930346 1.0592777-1.1052838.4864828-.2122492 1.0376407-.2211486 1.5307223-.0247162l1.86.73c.4954277.1939301.8931685.5772657 1.1052347 1.0652057.2120663.48794.2209785 1.0402664.0247653 1.5347943l-.83 2.12z" fill="#ecf0f1"/><path id="Shape" d="m11.97 37.592-.83-2.12c-.1962132-.4945279-.187301-1.0468543.0247653-1.5347943.2120662-.48794.609807-.8712756 1.1052347-1.0652057l1.86-.73c.4930816-.1964324 1.0442395-.187533 1.5307223.0247162.4864827.2122492.8678904.6102221 1.0592777 1.1052838l.82 2.08z" fill="#ecf0f1"/><path id="Shape" d="m50 42c-.3568992-.0003661-.6865505-.190916-.865-.5-.063-.1-4.108-6.5-20.135-6.5-16.231 0-20.1 6.434-20.132 6.5-.17254611.3192653-.50451883.5199915-.8673996.5244702s-.69970638-.187993-.88007957-.5029026c-.18037318-.3149095-.17597986-.7028239.01147917-1.0135676.175-.308 4.487-7.508 21.868-7.508s21.693 7.2 21.868 7.5c.1337094.2302805.1700521.5043795.1009734.7615476-.0690788.2571681-.2378733.4761645-.4689734.6084524-.1521868.0869125-.3247532.1317797-.5.13z" fill="#802d40"/><path id="Shape" d="m31 40h-4c-.5522847 0-1-.4477153-1-1s.4477153-1 1-1h4c.5522847 0 1 .4477153 1 1s-.4477153 1-1 1z" fill="#14a085"/><path id="Shape" d="m33 31c-.5522847 0-1-.4477153-1-1 .0431461-.8081057-.2590442-1.5964941-.8312751-2.1687249-.5722308-.5722309-1.3606192-.8744212-2.1687249-.8312751-.8090314-.042655-1.5980686.2605376-2.1703622.8339758s-.8739092 1.3630796-.8296378 2.1720242c-.0032997.5499402-.4500499.9940099-1 .994h-.006c-.5499402-.0032997-.9940099-.4500499-.994-1-.0507877-1.3410078.4596689-2.6425 1.4085844-3.5914156.9489156-.9489155 2.2504078-1.4593721 3.5914156-1.4085844 1.3410078-.0507877 2.6425.4596689 3.5914156 1.4085844.9489155.9489156 1.4593721 2.2504078 1.4085844 3.5914156 0 .5522847-.4477153 1-1 1z" fill="#14a085"/><path id="Shape" d="m13 17c-.4304304 0-.8125693-.2754301-.9486833-.6837722-.136114-.4083422.004339-.8579696.3486833-1.1162278 4.445-3.333 10.78-.227 11.047-.095.494571.2465951.6955951.847429.449 1.342-.2465952.494571-.847429.6955951-1.342.449-.055-.029-5.5-2.681-8.954-.1-.1723856.131642-.3830993.2032847-.6.204z" fill="#33907c"/><path id="Shape" d="m45 17c-.2164407.0004356-.4271088-.0697871-.6-.2-3.451-2.585-8.9.068-8.954.1-.494571.2465951-1.0954048.045571-1.342-.449-.2465951-.494571-.045571-1.0954048.449-1.342.268-.131 6.606-3.236 11.047.095.3408872.2592061.4788872.7066991.3431935 1.1128753-.1356936.4061763-.5149567.6808643-.9431935.6831247z" fill="#33907c"/><path id="Shape" d="m23 23c.0005475 2.050804-1.5499975 3.7697927-3.59 3.98-.14.01-.27.02-.41.02s-.27-.01-.41-.02c-2.0400025-.2102073-3.5905475-1.929196-3.59-3.98.0027349-.7175906.1959878-1.4215835.56-2.04l6.81-.1c.4114095.6379132.6301474 1.3809275.63 2.14z" fill="#35495e"/><path id="Shape" d="m43 23c.0005475 2.050804-1.5499975 3.7697927-3.59 3.98-.14.01-.27.02-.41.02s-.27-.01-.41-.02c-2.0400025-.2102073-3.5905475-1.929196-3.59-3.98-.0001474-.7590725.2185905-1.5020868.63-2.14l6.81.1c.3640122.6184165.5572651 1.3224094.56 2.04z" fill="#35495e"/><path id="Shape" d="m24 22h-12c-.5522847 0-1-.4477153-1-1s.4477153-1 1-1h12c1.1045695 0 2-.8954305 2-2v-2c0-.5522847.4477153-1 1-1s1 .4477153 1 1v2c0 2.209139-1.790861 4-4 4z" fill="#14a085"/><path id="Shape" d="m46 22h-12c-2.209139 0-4-1.790861-4-4v-2c0-.5522847.4477153-1 1-1s1 .4477153 1 1v2c0 1.1045695.8954305 2 2 2h12c.5522847 0 1 .4477153 1 1s-.4477153 1-1 1z" fill="#14a085"/><g fill="#3f5c6c"><ellipse id="Oval" cx="17.5" cy="24" rx="1.5" ry="1"/><ellipse id="Oval" cx="37.5" cy="24" rx="1.5" ry="1"/></g></g></g></svg>