<svg height="512" viewBox="0 0 60 58" width="512" xmlns="http://www.w3.org/2000/svg"><g id="Page-1" fill="none" fill-rule="evenodd"><g id="050---Perplexed" fill-rule="nonzero" transform="translate(-3)"><path id="Shape" d="m60.7 37.63c1.6036066 2.4589775 1.7315976 5.5987397.3334575 8.1800821-1.3981402 2.5813423-4.0977933 4.1895592-7.0334575 4.1899179-.3176214.0002552-.6349346-.0197857-.95-.06-11.2065886 10.7467285-28.8934114 10.7467285-40.1 0-.3150654.0402143-.6323786.0602552-.95.06-2.93566421-.0003587-5.63531728-1.6085756-7.03345746-4.1899179-1.39814018-2.5813424-1.27014915-5.7211046.33345746-8.1800821-.86154003-2.7956807-1.29972882-5.7045801-1.3-8.63-.00155852-2.5254424.32791447-5.0401954.98-7.48l14.63-16.96c3.8838866-2.86905512 8.5623185-4.46230748 13.39-4.56 4.844875.0972222 9.5390817 1.70157132 13.43 4.59l14.6 16.96c.6494367 2.429893.9755819 4.9348227.97 7.45-.0002712 2.9254199-.43846 5.8343193-1.3 8.63z" fill="#955ba5"/><ellipse id="Oval" cx="13.435" cy="14.549" fill="#ecf0f1" rx="11.883" ry="9.004" transform="matrix(.362 -.932 .932 .362 -4.995 21.797)"/><ellipse id="Oval" cx="52.566" cy="14.604" fill="#ecf0f1" rx="9.004" ry="11.883" transform="matrix(.932 -.362 .362 .932 -1.719 20.046)"/><ellipse id="Oval" cx="13.175" cy="13.853" fill="#f0c419" rx="6" ry="5" transform="matrix(.401 -.916 .916 .401 -4.795 20.376)"/><path id="Shape" d="m12.348 15.7c-.3464401-.000185-.6681037-.1796678-.8501945-.4743943-.1820909-.2947265-.1986643-.6627032-.0438055-.9726057l1-2c.2493412-.4893845.8467164-.6860743 1.3380295-.440555.491313.2455192.6926529.8413432.4509705 1.334555l-1 2c-.1694246.3390516-.515974.5531766-.895.553z" fill="#35495e"/><ellipse id="Oval" cx="52.825" cy="13.853" fill="#f0c419" rx="5" ry="6" transform="matrix(.916 -.401 .401 .916 -1.126 22.317)"/><path id="Shape" d="m53.652 15.7c-.3808256.0020788-.7297741-.2123306-.9-.553l-1-2c-.2416824-.4932118-.0403425-1.0890358.4509705-1.334555.4913131-.2455193 1.0886883-.0488295 1.3380295.440555l1 2c.1548588.3099025.1382854.6778792-.0438055.9726057-.1820908.2947265-.5037544.4742093-.8501945.4743943z" fill="#35495e"/><path id="Shape" d="m56 43c-.4290769-.0003239-.8101246-.2743402-.947-.681-.073-.212-1.822-5.18-6.889-4.333-1.5536287.2485671-3.0696312.6924145-4.512 1.321-2.152.871-4.184 1.693-10.652 1.693s-8.5-.822-10.652-1.693c-1.4423688-.6285855-2.9583713-1.0724329-4.512-1.321-5.069-.853-6.816 4.121-6.889 4.333-.1134318.3394023-.3993161.5925078-.7499631.6639741-.3506469.0714663-.71278486-.049564-.94999997-.3175s-.31346875-.6420718-.20003693-.9814741c.785-2.356 3.705-6.569 9.112-5.67 1.7004542.2717146 3.3603056.7547881 4.941 1.438 1.964.796 3.822 1.548 9.9 1.548s7.936-.752 9.9-1.548c1.5787842-.6827344 3.2365911-1.1657995 4.935-1.438 5.4-.906 8.327 3.314 9.112 5.67.1014653.3046381.050475.6394696-.1370723.900095s-.4888369.4153403-.8099277.415905z" fill="#802d40"/><path id="Shape" d="m36 46h-6c-.5522847 0-1-.4477153-1-1s.4477153-1 1-1h6c.5522847 0 1 .4477153 1 1s-.4477153 1-1 1z" fill="#894b9d"/><circle id="Oval" cx="29" cy="23" fill="#3d324c" r="2"/><circle id="Oval" cx="37" cy="23" fill="#3d324c" r="2"/><path id="Shape" d="m12 51c-3.78892618.0000635-7.17212315-2.3728759-8.46230569-5.9353737s-.21101061-7.5515141 2.69930569-9.9776263c.2738262-.2324007.65125023-.3001095.98878484-.1773851.33753461.1227243.58333333.4170309.64394959.7710317.06061627.3540007-.07326079.71332-.35073443.9413534-1.97714584 1.6501328-2.88856348 4.252622-2.37293489 6.7757492.51562859 2.5231273 2.37502195 4.559371 4.84105106 5.3014925 2.46602913.7421215 5.14039463.0702574 6.96288383-1.7492417.2510745-.2599566.6228779-.3642126.9725073-.2726972.3496295.0915155.6226744.3645604.7141899.7141899.0915154.3496294-.0127406.7214328-.2726972.9725073-1.6843301 1.6930733-3.9758152 2.6422177-6.364 2.636z" fill="#894b9d"/><path id="Shape" d="m54 51c-2.3881848.0062177-4.6796699-.9429267-6.364-2.636-.3789722-.3923789-.3735524-1.0160848.0121814-1.4018186s1.0094397-.3911536 1.4018186-.0121814c1.8224892 1.8194991 4.4968547 2.4913632 6.9628838 1.7492417s4.3254225-2.7783652 4.8410511-5.3014925c.5156286-2.5231272-.3957891-5.1256164-2.3729349-6.7757492-.2774736-.2280334-.4113507-.5873527-.3507344-.9413534.0606162-.3540008.306415-.6483074.6439496-.7710317.3375346-.1227244.7149586-.0550156.9887848.1773851 2.9103163 2.4261122 3.9894882 6.4151285 2.6993057 9.9776263-1.2901826 3.5624978-4.6733795 5.9354372-8.4623057 5.9353737z" fill="#894b9d"/><g fill="#ecf0f1"><circle id="Oval" cx="11" cy="9" r="2"/><circle id="Oval" cx="49" cy="9" r="2"/></g></g></g></svg>