<svg id="Capa_1" enable-background="new 0 0 512 512" height="512" viewBox="0 0 512 512" width="512" xmlns="http://www.w3.org/2000/svg"><g><circle cx="256" cy="256" fill="#d59b8d" r="256"/><path d="m165.965 345.788-47.969 47.969 117.418 117.418c6.792.54 13.655.825 20.586.825 141.385 0 256-114.615 256-256 0-6.929-.285-13.791-.825-20.581l-117.42-117.42z" fill="#a35d50"/><g><path d="m183.23 436.956c22.492 9.056 47.037 14.044 72.77 14.044l23.229-195-23.229-195c-62.451 0-118.04 29.361-153.729 75.027z" fill="#adcfff"/><path d="m392.908 117.16c-33.424-33.434-83.548-56.16-136.908-56.16v390c86.583 0 161.996-55.877 185.663-135.257z" fill="#8bbbff"/><path d="m392.908 117.16c-23.407 23.407-59.089 59.09-59.089 59.09l35.136 35.136v36.585l-23.002 23.001-17.93 42.924 29.341 29.341 84.299-27.494c6.054-18.829 9.337-38.901 9.337-59.743 0-54.339-22.234-103.479-58.092-138.84z" fill="#55ba9e"/><path d="m233.6 179.147h-96.833l-34.496-43.12c-25.857 33.085-41.271 74.728-41.271 119.973 0 81.969 50.582 152.115 122.23 180.956l31.778-31.778 10.001-56.508-34.231-23.907v-30.427h65.222l11.941-38.336-11.941-54.453z" fill="#96d7b8"/><path d="m286.485 232.032-30.485-30.485v92.789h30.485z" fill="#55ba9e"/></g><g><path d="m141.867 311.522h15v80h-15z" fill="#333940" transform="matrix(.707 .707 -.707 .707 292.312 -2.66)"/><circle cx="206" cy="294.889" fill="#555a65" r="50"/><circle cx="206" cy="294.889" fill="#fff" r="35"/></g></g></svg>