<svg id="Capa_1" enable-background="new 0 0 512 512" height="512" viewBox="0 0 512 512" width="512" xmlns="http://www.w3.org/2000/svg"><g><circle cx="256" cy="256" fill="#96d7b8" r="256"/><path d="m390.999 111.151-20.001-20.001-129.041 129.042-109.999-109.999-15.958 15.957 151.064 151.064-123.967 123.968-11.139-11.139-15.958 15.957 103.381 103.381c11.961 1.714 24.184 2.619 36.619 2.619 141.385 0 256-114.615 256-256 0-12.374-.897-24.538-2.594-36.443l-113.406-113.406z" fill="#55ba9e"/><path d="m116 106.151v20h140l10.072-10-10.072-10z" fill="#d59b8d"/><path d="m256 106.151h140v20h-140z" fill="#c1877a"/><path d="m116 386v20h140l10.072-10-10.072-10z" fill="#d59b8d"/><path d="m256 386h140v20h-140z" fill="#c1877a"/><g><path d="m151 116v280h105l25.576-140-25.576-140z" fill="#fff"/><path d="m256 116h105v280h-105z" fill="#e9edf5"/><path d="m141 91.151v50h115l12.73-25-12.73-25z" fill="#e9edf5"/><path d="m256 91.151h115v50h-115z" fill="#cdd2e1"/><path d="m141 371v50h115l12.73-25-12.73-25z" fill="#e9edf5"/><path d="m256 371h115v50h-115z" fill="#cdd2e1"/></g><g><path d="m181 316v15h75l8.302-7.5-8.302-7.5z" fill="#e9edf5"/><path d="m256 316h75v15h-75z" fill="#cdd2e1"/><path d="m181 271v15h75l8.302-7.5-8.302-7.5z" fill="#e9edf5"/><path d="m256 271h75v15h-75z" fill="#cdd2e1"/><path d="m181 226v15h75l8.302-7.5-8.302-7.5z" fill="#e9edf5"/><path d="m256 226h75v15h-75z" fill="#cdd2e1"/><path d="m181 181v15h75l8.302-7.5-8.302-7.5z" fill="#e9edf5"/><path d="m256 181h75v15h-75z" fill="#cdd2e1"/></g><g><path d="m315.018 284.461c.852 3.999 2.134 7.346 3.374 9.966 7.617 8.192 16.462 16.307 26.372 24.162 1.249-7.714 5.423-13.251 6.848-15.014-.058 3.955.347 9.676 2.583 16.092 1.306 3.746 2.925 6.837 4.429 9.254 7.618 5.347 15.726 10.517 24.234 15.46.783-7.279 4.19-12.725 5.395-14.524 1.019 3.668 2.263 7.591 3.79 11.706 1.369 3.689 2.809 7.109 4.256 10.252 16.699 8.777 34.714 16.622 53.617 23.103-6.481-18.902-14.326-36.918-23.103-53.617-3.143-1.447-6.563-2.887-10.252-4.256-4.115-1.527-8.038-2.772-11.706-3.79 1.8-1.204 7.246-4.611 14.524-5.395-4.943-8.508-10.113-16.616-15.46-24.234-2.417-1.505-5.507-3.124-9.254-4.429-6.416-2.236-12.136-2.641-16.092-2.583 1.763-1.425 7.3-5.599 15.014-6.848-7.854-9.909-15.969-18.755-24.162-26.372-2.62-1.241-5.967-2.523-9.966-3.374-7.12-1.517-13.221-1.012-17.232-.331 1.46-1.558 5.895-5.999 12.645-8.434-9.399-6.953-18.759-12.158-27.805-15.273-7.198-2.479-17.114-4.646-28.428-2.946l-10.607 10.607c-1.7 11.314.467 21.23 2.946 28.428 3.116 9.047 8.32 18.406 15.273 27.805 2.435-6.75 6.876-11.185 8.434-12.645-.679 4.009-1.183 10.11.333 17.23z" fill="#555a65"/><path d="m347.134 282.741 10.607-10.607-87.063-87.062-14.678-4.072 4.072 14.678z" fill="#333940"/></g></g></svg>