<svg id="Capa_1" enable-background="new 0 0 512 512" height="512" viewBox="0 0 512 512" width="512" xmlns="http://www.w3.org/2000/svg"><g><circle cx="256" cy="256" fill="#fdd437" r="256"/><path d="m396.441 134.888-54.842 54.842-98.813-98.813-60.671-11.888 135.093 135.093-182.331 182.329-.852 6.273 108.948 108.948c4.315.217 8.658.328 13.027.328 141.385 0 256-114.615 256-256 0-4.369-.111-8.713-.328-13.028l-108.947-108.948z" fill="#faba35"/><path d="m350.346 136.589c-13.105-12.859-46.233-42.278-95.319-54.601-31.67-7.951-57.53-5.659-72.912-2.96 24.711 11.002 56.094 27.927 88.809 53.965 17.03 13.555 31.386 27.162 43.291 39.727z" fill="#fff"/><path d="m375.411 161.654c12.859 13.105 42.278 46.233 54.601 95.319 7.951 31.67 5.659 57.53 2.96 72.912-11.002-24.711-27.927-56.094-53.965-88.809-13.555-17.031-27.162-31.386-39.727-43.291z" fill="#e9edf5"/><path d="m390.35 121.65-12.374-12.375-183.336 183.336-6.853 11.111-8.147 3.89-9.749 9.748-4.371 8.147-10.629 6.853-45.616 45.616 12.375 12.374 140.537-128.163z" fill="#d59b8d"/><path d="m390.35 121.65 12.375 12.374-183.336 183.336-11.111 6.853-3.89 8.147-9.748 9.749-8.147 4.371-6.853 10.629-45.616 45.616-12.374-12.375z" fill="#c1877a"/><path d="m369.137 142.863-17.678-17.678-49.497 49.498 17.678 17.677 30.27-19.227z" fill="#e9edf5"/><path d="m318.227 163.95h70v25h-70z" fill="#cdd2e1" transform="matrix(.707 -.707 .707 .707 -21.312 301.451)"/><path d="m194.64 317.36v-24.749l-15 15.001v9.748h-9.749l-15 15h24.749l10.516-4.484z" fill="#fff"/><path d="m194.64 317.36h24.749l-15.001 15h-9.748v9.749l-15 15v-24.749z" fill="#e9edf5"/></g></svg>