<svg id="Capa_1" enable-background="new 0 0 512 512" height="512" viewBox="0 0 512 512" width="512" xmlns="http://www.w3.org/2000/svg"><g><circle cx="256" cy="256" fill="#adcfff" r="256"/><path d="m382.9 151.086-19.541-19.541h-198.908l-20.56 20.56-33.198-33.198-28.289 28.289 34.134 34.134-4.494 4.494 44.582 44.582-14.193 14.193-18.191-18.191-22.862 22.862 70.986 70.986-15.151 15.151-12.426 71.66 12.82 12.82-21.448 21.448 64.689 64.689c17.766 3.902 36.214 5.976 55.15 5.976 141.385 0 256-114.615 256-256 0-22.765-2.987-44.83-8.563-65.84l-79.805-79.805z" fill="#8bbbff"/><path d="m179.882 441.337h-43.72l18.128-265.518h28.791z" fill="#fa5744"/><path d="m332.117 441.337h43.72l-18.128-265.518h-28.791z" fill="#f42520"/><path d="m255.999 222.612h-154.618v26.659h154.618l8.565-13.329z" fill="#fb8773"/><path d="m255.999 222.612h154.619v26.658h-154.619z" fill="#fa5744"/><path d="m255.999 148.502h-143.955v37.322h143.955l7.712-18.661z" fill="#fb8773"/><path d="m255.999 148.502h143.955v37.322h-143.955z" fill="#fa5744"/><path d="m255.999 121.702c-50.655 0-106.023-1.375-167.632-11.347l-5.963 36.842c64.212 10.394 121.381 11.827 173.595 11.827h.001l11.684-19.614-11.685-17.708c.001 0 .001 0 0 0z" fill="#555a65"/><path d="m423.631 110.355c-46.514 7.529-102.913 11.347-167.631 11.347v37.322c66.709 0 125.115-3.979 173.596-11.827z" fill="#333940"/></g></svg>