<svg id="Capa_1" enable-background="new 0 0 512 512" height="512" viewBox="0 0 512 512" width="512" xmlns="http://www.w3.org/2000/svg"><g><path d="m512 256c0 81.435-36.546 152.788-95.809 199.675h-320.382c-58.416-46.919-95.809-118.919-95.809-199.675 0-141.385 114.615-256 256-256s256 114.615 256 256z" fill="#fb8773"/><path d="m237.965 164.135 16.2 16.2-81.809 81.809 193.531 193.531h50.304c59.263-46.887 95.809-118.24 95.809-199.675 0-11.071-.704-21.978-2.067-32.679l-165.577-165.577z" fill="#fa5744"/><path d="m207.174 307.884v97.653h48.826l17.104-48.827-17.104-48.826z" fill="#fcbeac"/><path d="m256 307.884h48.826v97.652h-48.826z" fill="#f7a690"/><g><path d="m103.487 387.195c-4.866 7.845-7.678 17.089-7.678 26.999v41.481c43.858 35.231 99.557 56.325 160.191 56.325l17.104-70.362-17.104-60.166z" fill="#adcfff"/><path d="m256 381.472v130.528c60.634 0 116.333-21.094 160.191-56.325v-41.481c0-9.908-2.814-19.156-7.678-26.999z" fill="#8bbbff"/><path d="m256 375.234c-23.408 0-40.783-8.005-48.826-12.353h-44.635l-45.164 9.507c-5.553 3.96-10.284 8.996-13.888 14.808 4.63 11.144 11.159 22.715 20.46 33.566 30.237 35.276 81.145 52.914 132.053 52.914l11.23-52.699z" fill="#fcc74c"/><path d="m348.714 362.881h-43.888c-8.043 4.348-25.419 12.353-48.826 12.353v98.442c50.908 0 101.815-17.638 132.053-52.915 9.301-10.851 15.83-22.422 20.46-33.566-3.545-5.716-8.452-10.878-13.887-14.808z" fill="#f49f36"/><path d="m147.127 362.881c-5.29 0-10.397.802-15.199 2.289-5.265 1.63-10.165 4.088-14.553 7.218 2.622 4.688 5.55 9.331 8.836 13.865 29.719 41.009 79.754 63.513 129.79 63.513l11.23-28.789-11.231-24.318c-33.527 0-67.049-11.768-93.461-33.779h-15.412z" fill="#fde575"/><path d="m380.072 365.17c-4.802-1.487-9.909-2.289-15.199-2.289h-15.412c-26.412 22.011-59.934 33.779-93.461 33.779v53.106c50.035 0 100.07-22.504 129.79-63.513 3.286-4.534 6.214-9.177 8.836-13.865-4.389-3.13-9.289-5.588-14.554-7.218z" fill="#fcc74c"/></g><path d="m256 138.546c-41.066 0-74.356 33.29-74.356 74.356v8.006c-2.692-2.449-5.674-3.651-8.58-3.138-7.377 1.301-11.459 13.119-9.117 26.397 2.341 13.278 10.219 22.988 17.596 21.687.034-.006.067-.016.101-.023v7.712c0 6.548 2.148 12.915 6.113 18.125l30.103 39.546c5.659 7.435 14.467 11.799 23.81 11.799h14.33l17.104-101.201z" fill="#fdcdbf"/><path d="m338.936 217.771c-2.906-.512-5.888.689-8.58 3.138v-8.007c0-41.066-33.29-74.356-74.356-74.356v204.468h14.33c9.344 0 18.151-4.364 23.81-11.799l30.103-39.546c3.966-5.21 6.113-11.577 6.113-18.124v-7.712c.034.006.067.017.101.023 7.377 1.301 15.255-8.409 17.596-21.687 2.342-13.279-1.74-25.098-9.117-26.398z" fill="#fcbeac"/><g><path d="m256 38.248-83.238 76.241 2.143 23.762 11.201 21.259-6.795 27.593 2.332 25.854c11.788-6.638 38.314-19.497 74.356-19.497l11.043-84.418z" fill="#fde575"/><path d="m344.356 57.745c-16.506-7.657-47.648-19.497-88.356-19.497v155.213c13.529 0 42.952 1.812 74.356 19.497z" fill="#fcc74c"/><path d="m256 119.476c-35.994 0-64.19 10.527-81.095 18.776l4.406 48.853c11.409-6.162 32.408-15.688 60.255-18.552l16.434-6.574 6.689-19.654z" fill="#adcfff"/><path d="m256 42.83-12.5-4.204c-19.018 1.129-46.17 5.347-75.856 19.119l5.118 56.744c19.632-8.414 48.197-17.148 83.238-17.148l5.936-31.023z" fill="#adcfff"/><path d="m268.5 38.628-12.5 4.202v54.512c15.88 0 47.503 1.817 83.237 17.153l5.119-56.75c-14.751-6.843-41.346-17.028-75.856-19.117z" fill="#8bbbff"/><path d="m256 119.476v42.503l16.434 6.585c15.742 1.633 37.424 6.21 60.254 18.546l4.406-48.853c-34.598-16.914-65.985-18.781-81.094-18.781z" fill="#8bbbff"/><path d="m256 38.248c-.819 0-1.678.007-2.558.018-.145.002-.289.003-.435.006-2.877.042-6.055.147-9.507.355l-3.934 129.925c5.242-.539 10.725-.844 16.434-.844l5.936-64.301z" fill="#fcc74c"/><path d="m268.5 38.628c-1.964-.118-3.955-.208-5.969-.272-.175-.006-.352-.009-.528-.014-1.978-.058-3.976-.094-6.003-.094v129.459c4.174 0 9.778.167 16.434.857z" fill="#f49f36"/></g></g></svg>