<svg id="Capa_1" enable-background="new 0 0 512 512" height="512" viewBox="0 0 512 512" width="512" xmlns="http://www.w3.org/2000/svg"><g><circle cx="256" cy="256" fill="#96d7b8" r="256"/><path d="m416.977 218.248-88.224-88.224-1.067 1.067-40.994-40.994-49.169 49.169-3.408-3.408-51.149 51.149 31.589 31.589-21.693 21.693-58.598-58.598-51.149 51.149 80.424 80.424-82.104 82.104 107.823 107.823c21.279 5.733 43.65 8.809 66.742 8.809 141.385 0 256-114.615 256-256 0-15.987-1.479-31.626-4.283-46.801l-40.845-40.845z" fill="#55ba9e"/><path d="m81.433 326.404v68.965h174.567l14.716-34.482-14.716-34.483z" fill="#fcc74c"/><path d="m256 326.404h174.567v68.965h-174.567z" fill="#f49f36"/><g fill="#fb8773"><path d="m191.217 340.887-15 20 15 20 15-20z"/><path d="m126.434 340.887-15 20 15 20 15-20z"/><path d="m241 360.887 15 20 4.966-20-4.966-20z"/></g><path d="m256 340.887v40l15-20z" fill="#fa5744"/><path d="m385.566 340.887-15 20 15 20 15-20z" fill="#fa5744"/><path d="m320.783 340.887-15 20 15 20 15-20z" fill="#fa5744"/><path d="m256 77.479c-23.223 0-42.203 18.139-43.563 41.02-.332-.008-.662-.025-.996-.025-22.194 0-40.186 17.992-40.186 40.186 0 18.891 13.038 34.729 30.605 39.027-2.353 20.613-19.312 36.606-39.897 36.606-9.399 0-18.038-3.343-24.882-8.929 4.331-5.595 6.914-12.61 6.914-20.233 0-18.277-14.816-33.094-33.094-33.094-9.072 0-17.289 3.653-23.267 9.565l-42.508-13.251 36.305 161.082h174.569l16.83-91.209z" fill="#fde575"/><path d="m256 77.479c23.223 0 42.203 18.139 43.563 41.02.332-.008.662-.025.996-.025 22.194 0 40.186 17.992 40.186 40.186 0 18.891-13.038 34.729-30.605 39.027 2.353 20.613 19.312 36.606 39.897 36.606 9.399 0 18.038-3.343 24.882-8.929-4.331-5.595-6.914-12.61-6.914-20.233 0-18.277 14.816-33.094 33.094-33.094 9.072 0 17.289 3.653 23.267 9.565l42.508-13.251-36.305 161.082h-174.569z" fill="#fcc74c"/><g><path d="m256 113.037-39.832 22.997v45.994l39.832 22.997 7.633-45.994z" fill="#fb8773"/><path d="m256 113.037 39.832 22.997v45.994l-39.832 22.997z" fill="#fa5744"/><path d="m216.168 136.034v45.994l39.832-22.997z" fill="#fa5744"/><path d="m295.832 136.034v45.994l-39.832-22.997z" fill="#f42520"/><path d="m233.439 146.005v26.052l22.561 13.025 5.48-26.051-5.48-26.051z" fill="#f42520"/><path d="m278.561 146.005v26.052l-22.561 13.025v-52.102z" fill="#bd000c"/></g></g></svg>