<svg id="Capa_1" enable-background="new 0 0 512 512" height="512" viewBox="0 0 512 512" width="512" xmlns="http://www.w3.org/2000/svg"><g><circle cx="256" cy="256" fill="#adcfff" r="256"/><path d="m512 256c0-12.503-.914-24.792-2.646-36.816l-140.822-140.822-96.659 96.659-96.659-96.659-19.037 19.037 179.956 179.957-162.282 162.281 72.15 72.15c3.319.128 6.649.213 9.999.213 141.385 0 256-114.615 256-256z" fill="#8bbbff"/><path d="m256 121.511-85.723 16.34c-12.043 7.548-28.946 20.657-39.83 41.872-6.415 12.505-9.805 26.005-8.312 49.021l30.269 60-5.606 60c6.914 25.73 15.796 56.444 27.053 90.894h82.149l17.936-150.894z" fill="#d59b8d"/><path d="m256 121.511 85.723 16.34c12.043 7.548 28.946 20.657 39.83 41.872 6.415 12.505 9.805 26.005 8.312 49.021l-30.269 60 5.606 60c-6.914 25.73-15.796 56.444-27.053 90.894h-82.149z" fill="#c1877a"/><path d="m256 78.362h-59.691v24.255l-21.096-24.255h-31.745l26.809 59.489h85.723l15.894-29.745z" fill="#c1877a"/><path d="m256 78.362h112.532l-26.809 59.489h-85.723z" fill="#a35d50"/><path d="m256 228.745h-133.865c.408 6.289 1.009 12.116 2.184 20l22.468 40-5.236 40c1.607 6.275 3.353 12.953 5.246 20h109.203l15.894-60z" fill="#fcc74c"/><path d="m256 228.745h133.865c-.408 6.289-1.009 12.116-2.184 20l-22.468 40 5.236 40c-1.607 6.275-3.353 12.953-5.246 20h-109.203z" fill="#f49f36"/><path d="m256 248.745h-131.681c2.806 19.276 8.061 43.901 16.34 76.511.29 1.141.593 2.32.892 3.489h114.449l12.5-40z" fill="#c1877a"/><path d="m256 248.745h131.681c-2.806 19.276-8.061 43.901-16.34 76.511-.29 1.141-.593 2.32-.892 3.489h-114.449z" fill="#a35d50"/><circle cx="181.809" cy="288.745" fill="#fcc74c" r="27.5"/><circle cx="181.809" cy="288.745" fill="#fde575" r="12.5"/><path d="m256 261.245c-15.188 0-27.5 12.312-27.5 27.5s12.312 27.5 27.5 27.5l6.25-27.5z" fill="#fcc74c"/><path d="m256 276.245c-6.904 0-12.5 5.596-12.5 12.5s5.596 12.5 12.5 12.5l3.298-12.5z" fill="#fde575"/><path d="m256 261.245c15.188 0 27.5 12.312 27.5 27.5s-12.312 27.5-27.5 27.5z" fill="#f49f36"/><path d="m256 276.245c6.904 0 12.5 5.596 12.5 12.5s-5.596 12.5-12.5 12.5z" fill="#fcc74c"/><circle cx="330.191" cy="288.745" fill="#f49f36" r="27.5"/><circle cx="330.191" cy="288.745" fill="#fcc74c" r="12.5"/><path d="m200.087 372.745 9.181 25.532s-14.809 22.468-12.766 22.468 35.745-14.809 35.745-14.809l-17.969-18.383 10.809-24z" fill="#c1877a"/><path d="m305.206 175.681 24.481 14.723s10.791 24.651 11.903 22.937 7.028-38.047 7.028-38.047l-39.454-17.058z" fill="#a35d50"/></g></svg>