<svg id="Capa_1" enable-background="new 0 0 512 512" height="512" viewBox="0 0 512 512" width="512" xmlns="http://www.w3.org/2000/svg"><g><circle cx="256" cy="256" fill="#fb8773" r="256"/><path d="m118.412 391.306 14.928 14.928-.619 12.059 91.762 91.762c75.578 9.323 154.516-15.017 212.535-73.036 60.108-60.107 84.058-142.666 71.889-220.681l-107.763-107.764z" fill="#fa5744"/><path d="m171.541 235.764 10.431 39.535 5.752 7.508-2.891 11.238 1.573 29.267 104.804-86.422 109.935-128.316-70.607 10.403-64.061 50.321-18.747 7.843-6.655 7.4-9.523-.631-14.024 5.867z" fill="#e9edf5"/><path d="m401.145 108.574-214.739 214.738 29.277 1.574 10.982-1.802 7.319 5.396 45.752 15.479 27.465-27.465 19.742-37.912-4.102-9.007 12.323-6.608 23.683-44.054 21.861-21.861z" fill="#cdd2e1"/><path d="m258.452 251.267c2.126-29.378-3.554-54.747-10.722-74.126l-16.178 6.769c6.626 18.158 11.748 42.007 9.136 69.57-20.659 3.648-40.37 10.969-58.716 21.819l2.328 8.824.533 9.921 4.073-2.486c15.34-9.364 31.754-15.96 48.936-19.681l14.031-6.986z" fill="#c1877a"/><path d="m218.16 320.813-2.486 4.073 9.138.491 9.172 3.103c11.09-18.556 18.558-38.517 22.254-59.449 28.139-2.667 52.412 2.725 70.705 9.551l5.362-10.297 2.859-5.318c-19.683-7.618-46.008-13.922-76.712-11.7l-20.61 20.61c-3.721 17.18-10.318 33.594-19.682 48.936z" fill="#a35d50"/><path d="m184.341 284.081-17.049 17.05-7.983 13.36-9.538 4.161-23.775 23.775-5.066 9.81-12.455 7.71-17.049 17.05 20.648 20.648 51.501-41.415 41.414-51.501z" fill="#d59b8d"/><path d="m132.722 418.293 17.049-17.05 8.097-11.33 9.424-6.19 23.775-23.776 4.565-9.239 12.956-8.281 17.049-17.05-20.648-20.648-92.915 92.916z" fill="#c1877a"/><path d="m167.292 342.427v-41.296l-17.521 17.521v23.775h-23.775l-17.521 17.52h41.296l12.283-5.237z" fill="#fff"/><path d="m167.292 342.427h41.296l-17.521 17.52h-23.775v23.776l-17.521 17.52v-41.296z" fill="#e9edf5"/></g></svg>