<svg id="Capa_1" enable-background="new 0 0 512 512" height="512" viewBox="0 0 512 512" width="512" xmlns="http://www.w3.org/2000/svg"><g><circle cx="256" cy="256" fill="#fdd437" r="256"/><path d="m299.555 46.96-67.383 67.383 19.137 19.137-122.661 122.66 46.808 46.809-21.935 21.935 24.183 24.182-37.567 37.566 125.181 125.181c135.951-4.867 244.876-115.73 246.639-252.451z" fill="#faba35"/><path d="m256 124.337 12.871 88.927-12.871 143.334-12.782-8.304v-41.033c-4.283-1.526-10.57-4.093-17.585-8.304-11.934-7.164-14.968-12.48-23.447-16.608-5.748-2.799-14.621-5.356-27.844-3.503-.298 5.262-.091 15.455 5.618 25.973 11.577 21.331 35.574 25.198 38.672 25.645l9.299 19.784v114.792c-12.846-14.034-27.717-28.91-44.795-43.962-14.844-13.084-29.321-24.507-42.996-34.445v-146.434c-.002-63.989 51.871-115.862 115.86-115.862z" fill="#e9edf5"/><path d="m256 124.337v232.261l12.782-8.304v-41.033c4.283-1.526 10.57-4.093 17.585-8.304 11.934-7.164 14.968-12.48 23.447-16.608 5.748-2.799 14.621-5.356 27.844-3.503.298 5.262.091 15.455-5.618 25.973-11.577 21.331-35.574 25.198-38.672 25.645l-9.299 19.784v114.792c12.846-14.034 27.717-28.91 44.795-43.962 14.844-13.084 29.321-24.507 42.996-34.445v-146.434c.002-63.989-51.871-115.862-115.86-115.862z" fill="#cdd2e1"/><path d="m128.648 227.197v28.944h127.352l12.871-14.472-12.871-14.472z" fill="#cdd2e1"/><path d="m256 227.197h127.352v28.944h-127.352z" fill="#a8adba"/><path d="m212.443 46.96 19.392 131.255h24.165l3.689-65.628-3.689-65.627z" fill="#fb8773"/><path d="m299.557 46.96h-43.557v131.255h24.165z" fill="#fa5744"/></g></svg>