<svg id="Capa_1" enable-background="new 0 0 512 512" height="512" viewBox="0 0 512 512" width="512" xmlns="http://www.w3.org/2000/svg"><g><circle cx="256" cy="256" fill="#d59b8d" r="256"/><path d="m365.645 146.315-63.441-63.441-133.942 133.941 63.403 63.403-125.945 125.946 101.096 101.096c15.919 3.099 32.359 4.74 49.184 4.74 141.385 0 256-114.615 256-256 0-16.825-1.641-33.265-4.739-49.183l-101.059-101.059z" fill="#a35d50"/><path d="m406.222 105.778c-8.758-8.758-22.957-8.758-31.714 0l-90.396 90.396c-8.758 8.758-22.957 8.758-31.714 0-8.758-8.758-8.758-22.956 0-31.714l49.839-49.839c8.758-8.758 8.757-22.956 0-31.714-8.758-8.758-22.956-8.758-31.714 0l-164.745 155.524c-46.334 46.334-46.334 121.457 0 167.791l145.018-120.013z" fill="#fde575"/><path d="m406.222 105.778c8.758 8.758 8.758 22.957 0 31.714l-112.639 112.639c-8.758 8.758-8.758 22.957 0 31.714s22.956 8.758 31.714 0l23.718-23.718c8.758-8.758 22.956-8.757 31.714 0 8.758 8.758 8.758 22.956 0 31.714l-107.16 116.381c-46.334 46.334-121.457 46.334-167.791 0z" fill="#fcc74c"/><path d="m225.371 252.862c-3.004-.997-28.126-8.961-45.341 3.34-6.242 4.46-8.039 9.152-16.65 12.895-9.82 4.269-14.591 1.257-22.496 3.162-21.343 5.145-38.631 39.649-30.259 56.852 2.688 5.524 7.097 7.366 10.409 16.634 2.975 8.327.695 10.419 2.74 17.741 1.693 6.06 5.252 10.98 9.623 15.117l76.007-38.004 37.764-75.767c-6.622-5.344-14.564-9.571-21.797-11.97z" fill="#fb8773"/><path d="m188.81 401.895c16.287-1.71 17.561-10.967 36.195-16.345 3.161-.912 11.761-3.257 16.905-10.86.237-.351.405-.641.536-.867 3.226-5.552.406-15.766 3.161-22.494 2.608-6.37 11.064-9.788 12.895-16.649 1.891-7.088-3.052-16.903-2.368-23.921 1.151-11.808 5.621-13.31 5.709-21.426.098-9.009-6.209-17.67-14.675-24.502l-113.771 113.772c5.361 5.074 11.945 8.969 17.823 12.329 9.739 5.567 22.037 12.596 37.59 10.963z" fill="#fa5744"/></g></svg>