<svg id="Capa_1" enable-background="new 0 0 512 512" height="512" viewBox="0 0 512 512" width="512" xmlns="http://www.w3.org/2000/svg"><g><circle cx="256" cy="256" fill="#adcfff" r="256"/><path d="m355.462 117.957-4.227 4.227-72.294-72.294-55.525 55.525 16.282 16.282-133.698 133.7 99.808 99.808-28.429 28.429-22.213-22.213-49.166 49.166 95.601 95.601c17.533 3.795 35.729 5.812 54.399 5.812 135.378 0 246.196-105.087 255.37-238.135z" fill="#8bbbff"/><g><path d="m233.007 83-22.18 31.292h-81.891v98.347h81.891l24.398 8.941h20.775l17.47-61.539-17.47-77.041z" fill="#fcbeac"/><path d="m342.675 208.169c0-7.406-5.755-13.411-12.854-13.411h16.81c7.099 0 12.854-6.004 12.854-13.411s-5.755-13.411-12.854-13.411h12.317c7.099 0 12.854-6.004 12.854-13.411s-5.755-13.411-12.854-13.411h-12.317c7.099 0 12.854-6.004 12.854-13.411s-5.755-13.411-12.854-13.411h-63.169c8.282 0 14.996-7.005 14.996-15.646s-6.714-15.646-14.996-15.646h-27.462v138.58h73.821c7.099 0 12.854-6.005 12.854-13.411z" fill="#f7a690"/></g><path d="m233.059 49.891v307.163h22.941l3.509-153.581-3.509-153.582z" fill="#c1877a"/><path d="m256 49.891h22.941v307.163h-22.941z" fill="#a35d50"/><g><path d="m210.071 125.757-22.18 31.292h-81.891v98.347h81.891l24.398 8.941h20.775l17.47-61.539-17.47-77.041z" fill="#fdcdbf"/><path d="m319.739 250.926c0-7.406-5.755-13.411-12.854-13.411h16.81c7.099 0 12.854-6.004 12.854-13.411s-5.755-13.411-12.854-13.411h12.317c7.099 0 12.854-6.004 12.854-13.411s-5.755-13.411-12.854-13.411h-12.317c7.099 0 12.854-6.004 12.854-13.411s-5.755-13.411-12.854-13.411h-63.169c8.282 0 14.996-7.005 14.996-15.646s-6.714-15.646-14.996-15.646h-27.463v138.58h73.822c7.099 0 12.854-6.004 12.854-13.411z" fill="#fcbeac"/></g><path d="m255.015 373.467c.327.008.656.012.985.012l10.974-38.572-10.974-51.126-26.723 36.108c-16.07 21.714-1.266 52.894 25.738 53.578z" fill="#fb8773"/><path d="m256.985 373.467c-.327.008-.655.012-.985.012v-89.698l26.723 36.108c16.07 21.714 1.266 52.894-25.738 53.578z" fill="#fa5744"/><path d="m106 350.587v60h150l10.974-30-10.974-30z" fill="#d59b8d"/><path d="m256 350.587h150v60h-150z" fill="#c1877a"/></g></svg>