<svg id="Capa_1" enable-background="new 0 0 512 512" height="512" viewBox="0 0 512 512" width="512" xmlns="http://www.w3.org/2000/svg"><g><circle cx="256" cy="256" fill="#fb8773" r="256"/><path d="m294.613 222.486-116.973-116.974-83.774 83.774 65.299 65.299-23.165 23.164 95.75 95.75-70.75 70.75 66.12 66.12c9.482 1.065 19.114 1.631 28.88 1.631 141.385 0 256-114.615 256-256 0-24.677-3.502-48.535-10.018-71.114l-84.884-84.884z" fill="#fa5744"/><path d="m256 444.25 17.936-163.064-17.936-186.936h-94.092c-6.976-3.202-14.73-5-22.908-5-30.376 0-55 24.624-55 55s24.624 55 55 55c7.824 0 15.261-1.644 22-4.59v249.59h27.5l7.5-4 7.5 4h15l7.5-4 7.5 4z" fill="#fff"/><path d="m256 444.25v-350h94.092c6.976-3.202 14.73-5 22.908-5 30.376 0 55 24.624 55 55s-24.624 55-55 55c-7.824 0-15.261-1.644-22-4.59v249.59h-27.5l-7.5-4-7.5 4h-15l-7.5-4-7.5 4z" fill="#e9edf5"/><path d="m144.194 117.026c-18.785 0-34.068 15.283-34.068 34.068 0 15.855 12.899 28.755 28.755 28.755v-15c-7.584 0-13.755-6.17-13.755-13.755 0-10.514 8.554-19.068 19.068-19.068 14.177 0 25.71 11.534 25.71 25.71 0 18.234-14.423 33.158-32.459 33.974-25.473-.825-45.945-21.79-45.945-47.46 0-26.191 21.309-47.5 47.5-47.5 6.665 0 13.939 1.395 19.461 3.73l2.539 1.27h95l5.681-7.5-5.681-7.5h-91.731l.036-.085c-7.385-3.123-16.608-4.915-25.305-4.915-34.462 0-62.5 28.038-62.5 62.5 0 1.043.028 2.079.079 3.109h-.079c0 32.749 26.643 59.391 59.391 59.391.771 0 1.554-.039 1.554-.039.583-.02 1.105-.045 1.555-.07 25.582-1.61 45.904-22.924 45.904-48.904 0-22.448-18.262-40.711-40.71-40.711z" fill="#e9edf5"/><path d="m367.806 117.026c18.785 0 34.068 15.283 34.068 34.068 0 15.855-12.899 28.755-28.755 28.755v-15c7.584 0 13.755-6.17 13.755-13.755 0-10.514-8.554-19.068-19.068-19.068-14.177 0-25.71 11.534-25.71 25.71 0 18.234 14.423 33.158 32.459 33.974 25.473-.825 45.945-21.79 45.945-47.461 0-26.191-21.309-47.5-47.5-47.5-6.665 0-13.939 1.395-19.461 3.73l-2.539 1.271h-95v-15h91.731l-.036-.085c7.385-3.123 16.608-4.915 25.305-4.915 34.462 0 62.5 28.038 62.5 62.5 0 1.043-.028 2.079-.079 3.109h.079c0 32.749-26.643 59.391-59.391 59.391-.771 0-1.554-.039-1.554-.039-.583-.02-1.105-.045-1.555-.07-25.582-1.61-45.904-22.924-45.904-48.904 0-22.448 18.262-40.711 40.71-40.711z" fill="#cdd2e1"/><path d="m256 120.069h-60.404v15h60.404l5.681-7.5z" fill="#e9edf5"/><path d="m256 120.069h60.404v15h-60.404z" fill="#cdd2e1"/><path d="m233.5 166.314h15v50h-15z" fill="#e9edf5"/><path d="m203.5 166.314h15v50h-15z" fill="#e9edf5"/><path d="m263.5 166.314h15v50h-15z" fill="#cdd2e1" transform="matrix(-1 0 0 -1 542 382.628)"/><path d="m293.5 166.314h15v50h-15z" fill="#cdd2e1" transform="matrix(-1 0 0 -1 602 382.628)"/><path d="m256 277.75h-120v-35h120l9.426 17.5z" fill="#e9edf5"/><path d="m256 242.75h120v35h-120z" fill="#cdd2e1" transform="matrix(-1 0 0 -1 632 520.5)"/><path d="m218.5 304.25h15v140h-15z" fill="#e9edf5"/><path d="m188.5 344.25h15v100h-15z" fill="#e9edf5"/><g fill="#cdd2e1"><path d="m278.5 304.25h15v140h-15z" transform="matrix(-1 0 0 -1 572 748.5)"/><path d="m308.5 344.25h15v100h-15z" transform="matrix(-1 0 0 -1 632 788.5)"/></g></g></svg>