<svg id="Capa_1" enable-background="new 0 0 512 512" height="512" viewBox="0 0 512 512" width="512" xmlns="http://www.w3.org/2000/svg"><g><circle cx="256" cy="256" fill="#d59b8d" r="256"/><path d="m310.107 58.713-116.551 116.551 56.322 56.322-160.628 160.627 114.427 114.427c16.892 3.508 34.391 5.36 52.323 5.36 139.864 0 253.513-112.167 255.942-251.452z" fill="#a35d50"/><path d="m166.489 132.122-69.829 107.575-7.41 152.516h77.239l89.511-28.228 22.617-143.692-22.617-161.58h-60.617z" fill="#e9edf5"/><path d="m364.915 128.718-54.809-70.005h-54.106v305.272l89.511 28.228h77.239l-5.257-86.143-7.131-25.41 3.044-41.572-.832-13.625-38.808-41.936z" fill="#cdd2e1"/><path d="m166.489 309.803v82.41h89.511l17.78-80.516-17.78-91.404c-49.435 0-89.511 40.075-89.511 89.51z" fill="#cdd2e1"/><path d="m256 220.293v171.92h89.511v-82.41c0-49.435-40.076-89.51-89.511-89.51z" fill="#a8adba"/><path d="m191.924 130.207 17.021-16.144 7.319 17.882-8.207 19.745 8.207 16.392-22.353 12.791-21.111-20.863 17.882-2.483z" fill="#cdd2e1"/><path d="m413.406 237.088-16.281 38.016-26.087-5.201 19.277 39.252 27.178-5.085z" fill="#a8adba"/></g></svg>