<svg id="Capa_1" enable-background="new 0 0 512 512" height="512" viewBox="0 0 512 512" width="512" xmlns="http://www.w3.org/2000/svg"><g><circle cx="256" cy="256" fill="#96d7b8" r="256"/><path d="m315.263 133.027 47.415 47.415-182.235 182.235-47.489-47.49-43.699 43.699 152.727 152.727c4.642.25 9.315.387 14.019.387 141.385 0 256-114.615 256-256 0-4.705-.136-9.378-.387-14.021l-152.652-152.651z" fill="#55ba9e"/><path d="m372.807 115.607c-1.772-9.614-6.375-18.808-13.81-26.244-19.575-19.575-51.343-19.526-70.857.147-18.895 19.048-19.266 50.113-.808 69.584 1.484 1.565 3.047 3.005 4.67 4.335l-78.479 78.479-14.001 41.292-13.646-13.646-22.447 22.447c-1.33-1.623-2.77-3.186-4.335-4.67-19.471-18.459-50.536-18.087-69.584.808-19.673 19.514-19.722 51.282-.147 70.857 7.435 7.435 16.63 12.039 26.244 13.81 5.972 1.101 11.301 4.025 15.423 8.163l138.405-111.535 111.535-138.404c-4.138-4.122-7.062-9.451-8.163-15.423z" fill="#fff"/><path d="m139.216 396.518c1.866 9.984 6.788 19.508 14.767 27.072 16.439 15.584 41.143 17.746 59.901 6.67l-7.863-15.628 15.165 4.694 11.178-8.28c10.242-18.947 7.359-43.111-8.651-59.121-1.194-1.194-2.436-2.309-3.715-3.356l43.978-43.978 6.677-12.003 10.998-5.672 66.918-66.918c1.048 1.279 2.162 2.521 3.356 3.715 4.407 4.407 9.431 7.819 14.795 10.237l20.56-14.78 9.435 18.295c9.56-1.828 18.689-6.461 26.066-13.898 18.894-19.048 19.266-50.113.808-69.584-7.564-7.979-17.089-12.901-27.072-14.767-6.001-1.122-11.388-4.044-15.548-8.186l-249.939 249.94c4.142 4.161 7.064 9.548 8.186 15.548z" fill="#e9edf5"/><path d="m345.154 126.837-16.811-3.009-.001-27.484-14.998 30.823-15.909 17.192 26.126-6.148 7.274 1.301 15.731 12.744z" fill="#e9edf5"/><path d="m263.977 304.592 17.674-17.675-3.498-29.895-12.902 32.921-36.614 16.596z" fill="#cdd2e1"/></g></svg>