<svg id="Capa_1" enable-background="new 0 0 512 512" height="512" viewBox="0 0 512 512" width="512" xmlns="http://www.w3.org/2000/svg"><g><circle cx="256" cy="256" fill="#fdd437" r="256"/><path d="m305.172 85.736-41.672-41.672-10.465 10.465 11.521 11.521-85.605 85.605 58.581 58.581-94.574 94.574 27.992 27.992-19.903 19.903-41.79-41.79-21.492 21.492-13.15-13.15-10.465 10.465 86.089 86.089-17.812 17.812 73.46 73.46c16.206 3.216 32.96 4.917 50.113 4.917 141.385 0 256-114.615 256-256 0-6.718-.262-13.375-.77-19.963l-178.18-178.18z" fill="#faba35"/><path d="m248.5 44.064v320h7.5l6.298-160-6.298-160z" fill="#c1877a"/><path d="m256 44.064h7.5v320h-7.5z" fill="#a35d50"/><path d="m178.95 57.857c-5.46 18.721-6.7 35.135-6.7 46.9 0 19.501 3.406 35.605 6.7 46.9h77.05l6.714-46.9-6.714-46.9z" fill="#fff"/><path d="m339.75 104.757c0-19.501-3.406-35.605-6.7-46.9h-77.05v93.8h77.05c5.46-18.721 6.7-35.135 6.7-46.9z" fill="#e9edf5"/><path d="m142.957 167.196c-8.011 27.467-9.83 51.548-9.83 68.809 0 28.611 4.997 52.238 9.83 68.809h113.043l9.851-68.809-9.851-68.809z" fill="#fff"/><path d="m378.872 236.005c0-28.611-4.997-52.238-9.83-68.809h-113.042v137.617h113.043c8.011-27.467 9.829-51.547 9.829-68.808z" fill="#e9edf5"/><path d="m173.255 356.445v-26.581h-50.115l-13.885-18.949h-45.106v18.807l26.213 16.121 42.064 87.78h123.574l20.745-41.388-20.745-35.79z" fill="#d59b8d"/><path d="m408.4 367.188 52.004-54.004-91.553 8.72-41.872 34.541h-70.979v77.178h122.553z" fill="#c1877a"/></g></svg>