<svg id="Capa_1" enable-background="new 0 0 512 512" height="512" viewBox="0 0 512 512" width="512" xmlns="http://www.w3.org/2000/svg"><g><circle cx="256" cy="256" fill="#fb8773" r="256"/><path d="m212.331 206.457-17.235-17.235-117.33 117.33 84.159 84.159-19.051 19.051 101.981 101.981c3.697.159 7.409.257 11.145.257 141.385 0 256-114.615 256-256 0-11.725-.805-23.26-2.331-34.566l-156.157-156.158z" fill="#fa5744"/><path d="m256 59.149-77.894 13.021-39.063 49.021-24.511 18.427-11.489 22.211-25.277 15.91 8.604 77.474-8.604 51.34 19.915 16.085 32.17 61.277 13.021 25.849 24.011 4.789 20.351 38.298h68.766l20.915-194.172z" fill="#cdd2e1"/><path d="m256 452.851h69.936l45.192-62.042 6.893-32.171 29.608-16.851 26.307-91.936-14.553-77.411-36-14.483-29.872-92.68-97.511-6.128z" fill="#a8adba"/><path d="m256 98.979c-4.46 5.667-10.607 15.061-13.957 27.981-1.66 6.4-2.253 12.2-2.371 16.984-4.428 6.218-10.255 15.84-14.328 28.656-2.436 7.665-6.921 21.746-4.573 38.868 1.791 13.056 2.686 19.585 6.173 26.979 1.791 3.798 4.544 8.569 3.546 14.572-.214 1.287-1.189 7.152-5.832 9.206-3.841 1.699-7.833-.255-8.231-.457-5.86-2.978-6.695-10.744-8.46-17.148-3.33-12.087-10.109-19.826-17.376-28.122-4.947-5.648-15.38-15.352-35.362-20.806-1.304-2.322-4.033-6.448-8.993-9.831-6.163-4.204-12.294-4.891-15.014-5.03-.446 3.619-.685 8.499.076 14.175.773 5.765 2.326 10.47 3.734 13.871-1.297 7.428-2.412 18.925.076 32.466.805 4.382 3.518 17.304 15.242 36.582 14.719 24.203 20.61 20.554 31.094 38.716 8.808 15.258 4.533 17.631 18.901 57.921 8.171 22.914 11.911 28.757 17.681 33.533 12.796 10.593 29.272 10.724 37.973 10.06l16.319-159.475z" fill="#fff"/><g fill="#e9edf5"><path d="m256 98.979c4.46 5.667 10.607 15.061 13.957 27.981 1.66 6.4 2.253 12.2 2.371 16.984 4.428 6.218 10.255 15.84 14.328 28.656 2.436 7.665 6.921 21.746 4.573 38.868-1.791 13.056-2.686 19.585-6.173 26.979-1.791 3.798-4.544 8.569-3.546 14.572.214 1.287 1.189 7.152 5.832 9.206 3.841 1.699 7.833-.255 8.231-.457 5.86-2.978 6.695-10.744 8.46-17.148 3.33-12.087 10.109-19.826 17.376-28.122 4.947-5.648 15.38-15.352 35.362-20.806 1.304-2.322 4.033-6.448 8.993-9.831 6.163-4.204 12.294-4.891 15.014-5.03.446 3.619.685 8.499-.076 14.175-.773 5.765-2.326 10.47-3.734 13.871 1.297 7.428 2.412 18.925-.076 32.466-.805 4.382-3.518 17.304-15.242 36.582-14.719 24.203-20.61 20.554-31.094 38.716-8.808 15.258-4.533 17.631-18.901 57.921-8.171 22.914-11.911 28.757-17.681 33.533-12.796 10.593-29.272 10.724-37.973 10.06v-319.176z"/><path d="m168.527 348.511-16.459-11.235-14.43 12.075s5.954 24.372 6.729 24.203c.776-.169 13.554-8.635 13.554-8.635l15.505 3.692z"/><path d="m182.543 126.56 4.475-14.218 9.643 6.505 14.133-13.607 9.226 27.663-19.242 4.626-12.997 12.987-30.075-18.236z"/></g><path d="m336.315 130.414 11.514 9.467-2.301 24.707-29.107-1.786-4.283-36.485 28.158-21.077z" fill="#cdd2e1"/></g></svg>