<svg id="Capa_1" enable-background="new 0 0 512 512" height="512" viewBox="0 0 512 512" width="512" xmlns="http://www.w3.org/2000/svg"><g><circle cx="256" cy="256" fill="#fdd437" r="256"/><path d="m282.269 229.73-88.441-88.441-5.727 5.727-27.329-27.329-29.362 29.363.325.325-10.163 10.163 26.138 26.138-9.77 9.77 89.307 89.307-117.302 117.302 7.798 7.798-.442 6.06 91.782 91.782c15.211 2.818 30.889 4.305 46.917 4.305 141.385 0 256-114.615 256-256 0-26.1-3.917-51.283-11.176-75.006l-84.909-84.909z" fill="#faba35"/><g><path d="m316.557 137.941 11.555 24.734 1.77 19.443 42.454-34.16 43.58-51.874-29.688 2.768-25.992 19.836-7.769 2.883-2.649 2.983-4.056-.494-5.812 2.157z" fill="#fff"/><path d="m415.916 96.084-86.034 86.034 19.443 1.77 21.388 9.942 11.004-11.004 7.479-15.621-1.955-3.919 5.073-2.512 9.006-18.134 8.758-8.758z" fill="#e9edf5"/><path d="m106.694 405.306-10.607-10.607 38.462-38.461 10.588-6.706 4.412-8.294 6.213-6.214 8.873-3.636 6.127-11.364 152.046-152.046 10.607 10.607-108.057 118.664z" fill="#d59b8d"/><path d="m106.694 405.306 10.607 10.607 38.461-38.462 7.789-11.039 7.211-3.961 6.194-6.194 4.514-8.215 10.516-6.815 152.036-152.035-10.607-10.607z" fill="#c1877a"/><path d="m328.112 183.888-17.678-17.677 10.607-10.607 17.677 17.678-3.739 6.867z" fill="#c1877a"/><path d="m334.754 174.924h15v25h-15z" fill="#a35d50" transform="matrix(.707 -.707 .707 .707 -32.285 296.905)"/><path d="m155.762 335.024v6.214h-6.213l-15 15h21.213l10.615-4.386 4.385-10.614v-21.214z" fill="#fff"/><path d="m170.762 362.451v-6.213h6.214l15-15h-21.214l-15 15v21.213z" fill="#e9edf5"/></g><g><path d="m137.941 195.446 24.734-11.554 19.443-1.77-34.16-42.454-51.874-43.581 2.768 29.688 19.836 25.992 2.883 7.77 2.983 2.648-.494 4.057 2.157 5.812z" fill="#e9edf5"/><path d="m96.084 96.087 86.034 86.035 1.77-19.443 9.942-21.388-11.004-11.004-15.621-7.479-3.919 1.955-2.512-5.073-18.134-9.006-8.758-8.758z" fill="#cdd2e1"/><path d="m405.306 405.31-10.607 10.606-38.461-38.461-6.706-10.588-8.294-4.413-6.214-6.213-3.636-8.872-11.364-6.128-152.046-152.046 10.607-10.606 118.664 108.057z" fill="#a35d50"/><path d="m405.306 405.31 10.607-10.607-38.462-38.462-11.039-7.789-3.961-7.211-6.194-6.194-8.215-4.513-6.815-10.516-152.035-152.036-10.607 10.607z" fill="#8f5043"/><path d="m183.888 183.892-17.677 17.678-10.607-10.607 17.678-17.678 6.867 3.74z" fill="#c1877a"/><path d="m174.924 162.25h25v15h-25z" fill="#a35d50" transform="matrix(.707 -.707 .707 .707 -65.136 182.247)"/><path d="m335.024 356.241h6.214v6.213l15 15.001v-21.214l-4.386-10.614-10.614-4.386h-21.214z" fill="#e9edf5"/><path d="m362.451 341.241h-6.213v-6.213l-15-15v21.213l15 15h21.213z" fill="#cdd2e1"/></g></g></svg>