<svg id="Capa_1" enable-background="new 0 0 512 512" height="512" viewBox="0 0 512 512" width="512" xmlns="http://www.w3.org/2000/svg"><g><circle cx="256" cy="256" fill="#96d7b8" r="256"/><path d="m380.709 124.79 14.178 14.178-14.178 14.178-.257 84.965 11.362 11.362-14.808 14.809 10.34 10.34-43.112 43.112-208.234-208.234-15.29 15.29 14.125 14.125-14.125 14.125 13.715 13.715-13.715 13.715 9.474 9.474-71.639 71.639 86.071 86.071-32.252 32.252 131.812 131.812c3.92.178 7.859.282 11.823.282 141.385 0 256-114.615 256-256 0-11.027-.698-21.891-2.051-32.55l-113.948-113.95z" fill="#55ba9e"/><path d="m256 361.5c-66.168 0-120-53.832-120-120v-132h-20v132c0 77.196 62.804 140 140 140l5.426-9.834z" fill="#d59b8d"/><path d="m256 361.5c66.168 0 120-53.832 120-120v-132h20v132c0 77.196-62.804 140-140 140z" fill="#c1877a"/><g fill="#fff"><path d="m187.678 304.595c-19.647-19.647-50.633-14.219-57.32 10.041l-17.992 65.271 65.271-17.992c24.26-6.687 29.688-37.673 10.041-57.32z"/><path d="m158.63 225.156c-9.503-26.11-39.879-34.285-56.194-15.124l-43.892 51.552 66.76 11.278c24.815 4.192 42.829-21.596 33.326-47.706z"/><path d="m256 345.997c-27.786 0-45.857 25.748-33.431 47.632l33.431 58.877 9.851-66.541z"/></g><path d="m256 345.997c27.786 0 45.857 25.748 33.431 47.632l-33.431 58.877z" fill="#e9edf5"/><path d="m324.322 304.595c19.647-19.647 50.633-14.219 57.32 10.041l17.992 65.271-65.271-17.992c-24.26-6.687-29.688-37.673-10.041-57.32z" fill="#e9edf5"/><path d="m353.37 225.156c9.503-26.11 39.879-34.285 56.194-15.124l43.892 51.552-66.76 11.278c-24.815 4.192-42.829-21.596-33.326-47.706z" fill="#e9edf5"/></g></svg>