<svg id="Capa_1" enable-background="new 0 0 512 512" height="512" viewBox="0 0 512 512" width="512" xmlns="http://www.w3.org/2000/svg"><g><circle cx="256" cy="256" fill="#adcfff" r="256"/><path d="m364.524 100.974-17.498-17.498h-146.531l-24.235 24.234-24.235-24.235-26.025 26.026 41.097 41.097-22.251 22.251v180.101l21.35 21.35-50.196 50.197 80.549 80.549c19.08 4.537 38.982 6.954 59.451 6.954 141.385 0 256-114.615 256-256 0-19.537-2.198-38.559-6.344-56.841l-119.658-119.659z" fill="#8bbbff"/><path d="m229.121 344.111h-62.717v59.73h89.596l8.362-14.638-8.362-18.213c-14.845 0-26.879-12.034-26.879-26.879z" fill="#c1877a"/><path d="m282.879 344.111c0 14.845-12.034 26.879-26.879 26.879v32.852h89.596v-59.73h-62.717z" fill="#a35d50"/><g><path d="m248.5 107.543v40h7.5l3.186-20-3.186-20z" fill="#555a65"/><path d="m256 107.543h7.5v40h-7.5z" fill="#333940"/><path d="m267.361 167.736-11.361-28.388h-89.596v66l89.596-9.04z" fill="#fff"/><path d="m256 139.348v56.96l89.596-9.04v-47.92z" fill="#e9edf5"/><path d="m166.404 131.848v15h89.596l10.624-7.5-10.624-7.5z" fill="#c1877a"/><path d="m256 131.848h89.596v15h-89.596z" fill="#a35d50"/></g><path d="m342 103.842h30v300h-30z" fill="#c1877a"/><path d="m140 103.842h30v300h-30z" fill="#d59b8d"/><path d="m116 394.5v30h140l12.601-15-12.601-15z" fill="#e9edf5"/><path d="m256 394.5h140v30h-140z" fill="#cdd2e1"/><path d="m126 79.5v30h130l11.416-15-11.416-15z" fill="#c1877a"/><path d="m256 79.5h130v30h-130z" fill="#a35d50"/></g></svg>