<svg id="Capa_1" enable-background="new 0 0 512 512" height="512" viewBox="0 0 512 512" width="512" xmlns="http://www.w3.org/2000/svg"><g><circle cx="256" cy="256" fill="#d59b8d" r="256"/><path d="m121.551 390.252 121.421 121.421c4.316.216 8.659.327 13.028.327 141.385 0 256-114.615 256-256 0-4.37-.111-8.713-.328-13.029l-121.42-121.42z" fill="#a35d50"/><g><path d="m66 256c0 104.934 85.066 190 190 190l24.765-190-24.765-190c-104.934 0-190 85.066-190 190z" fill="#fff"/><g fill="#e9edf5"><circle cx="133.529" cy="272.471" r="25"/><circle cx="166" cy="160.294" r="10"/><circle cx="211.559" cy="126.588" r="20"/><circle cx="226" cy="231.235" r="15"/><circle cx="191.559" cy="341.882" r="12.5"/><path d="m446 256c0-104.934-85.066-190-190-190v380c104.934 0 190-85.066 190-190z"/></g><circle cx="380.765" cy="324.235" fill="#cdd2e1" r="10"/><circle cx="298.912" cy="371.882" fill="#cdd2e1" r="20"/><circle cx="376.765" cy="175.471" fill="#cdd2e1" r="10"/><circle cx="306.412" cy="165.471" fill="#cdd2e1" r="25"/></g><g><path d="m326.765 255v84.941h20v-89z" fill="#333940"/><path d="m326.765 205h80v50h-80z" fill="#fa5744"/></g></g></svg>