<svg id="Capa_1" enable-background="new 0 0 512 512" height="512" viewBox="0 0 512 512" width="512" xmlns="http://www.w3.org/2000/svg"><g><circle cx="256" cy="256" fill="#adcfff" r="256"/><path d="m295.309 209.832-67.027-67.027-142.282 142.283 62.886 62.886-52.886 52.886 105.252 105.252c17.641 3.844 35.955 5.888 54.748 5.888 141.385 0 256-114.615 256-256 0-19.701-2.231-38.88-6.444-57.304l-99.556-99.555z" fill="#8bbbff"/><path d="m256 99.141h-150v150h150l12.5-72.708z" fill="#c1877a"/><path d="m256 99.141h150v150h-150z" fill="#a35d50"/><path d="m256 114.141h-135v135h135l9.17-67.5z" fill="#d59b8d"/><path d="m256 114.141h135v135h-135z" fill="#c1877a"/><g><path d="m210 200.089-15.936-3.358-18.064 3.358h-34l-6 15 40 4 40-4z" fill="#fcc74c"/><path d="m136 215.089v33h80l3.979-15.868-3.979-17.132z" fill="#fde575"/><path d="m302 200.089 15.936-3.358 18.064 3.358h34l6 15-40 4-40-4z" fill="#f49f36"/><path d="m376 215.089v33h-80l-4.404-16.5 4.404-16.5z" fill="#fcc74c"/><path d="m256 196.731-34 3.358-6 15 40 4 3.809-11.179z" fill="#f49f36"/><path d="m256 215.089h-40v33h40l3.809-16.5z" fill="#fcc74c"/><path d="m256 196.731 34 3.358 6 15-40 4z" fill="#e27b00"/><path d="m256 215.089h40v33h-40z" fill="#f49f36"/><path d="m250 155.089-15.979-3.549-18.021 3.549h-34l-6 15 40 4 40-4z" fill="#fcc74c"/><path d="m176 170.089v30h80l4.957-15-4.957-15z" fill="#fde575"/><path d="m262 155.089 15.979-3.549 18.021 3.549h34l6 15-40 4-40-4z" fill="#f49f36"/><path d="m256 170.089h80v30h-80z" fill="#fcc74c"/><path d="m256 110.089h-34l-6 15 40 4 3.138-10.546z" fill="#fcc74c"/><path d="m256 125.089h-40v30h40l3.138-15z" fill="#fde575"/><path d="m256 110.089h34l6 15-40 4z" fill="#f49f36"/><path d="m256 125.089h40v30h-40z" fill="#fcc74c"/></g><path d="m256 280.859h-160v120h52.745l17.255-6.894 17.5 6.894h72.5l9.17-56.17z" fill="#d59b8d"/><path d="m256 280.859h160v120h-52.745l-17.255-6.894-17.5 6.894h-72.5z" fill="#a35d50"/><path d="m148.5 280.859h35v120h-35z" fill="#fde575"/><path d="m328.5 280.859h35v120h-35z" fill="#fcc74c" transform="matrix(-1 0 0 -1 692 681.718)"/><path d="m256 249.141-25-4.052h-145v40h170l6.872-16.741z" fill="#a35d50"/><path d="m256 249.141 25-4.052h145v40h-170z" fill="#84372d"/><path d="m256 245.089h-25v60h25l6.872-29.081z" fill="#fde575"/><path d="m256 245.089h25v60h-25z" fill="#fcc74c"/></g></svg>