<svg id="Capa_1" enable-background="new 0 0 512 512" height="512" viewBox="0 0 512 512" width="512" xmlns="http://www.w3.org/2000/svg"><g><circle cx="256" cy="256" fill="#96d7b8" r="256"/><path d="m372.506 139.494-9.571-9.571-40.432-1.177 26.572 26.572-19.283 19.282-36.37-36.37-20.17 20.17-40.852-40.851-16.851 16.851-25.362-25.362-21.232 21.232-16.851-16.851-38.61 38.61-10.894-10.894-21.05 21.05 36.734 36.734-9.364 9.364 15.207 15.207-10.787 10.787 17.365 71.365 13.12 13.12-6.737 6.737 7.808 7.808-21.476 21.476-24.734 14.521 142.242 142.242c4.989.29 10.011.454 15.072.454 141.385 0 256-114.615 256-256 0-17.615-1.781-34.814-5.169-51.428l-99.702-99.702z" fill="#55ba9e"/><path d="m154.549 357.451-47.978-214.559-14.639 3.274 49.016 219.203 7.32-1.637 5.28-1.941z" fill="#e9edf5"/><path d="m154.549 357.451 214.559 47.978-3.274 14.639-219.203-49.016 1.637-7.32z" fill="#cdd2e1"/><path d="m351.273 146.057-186.961 186.961 7.335 7.335 97.148-89.813 89.813-97.148z" fill="#d59b8d"/><path d="m136.594 245.353h264.402v10.373h-264.402z" fill="#c1877a" transform="matrix(.707 -.707 .707 .707 -98.43 263.448)"/><path d="m143.021 324.969-44.335 44.335 30.279 13.731 28.375-15.647 21.713-34.441-7.335-7.335z" fill="#c1877a"/><path d="m187.031 368.979-44.335 44.335-13.731-30.279 50.088-50.088 7.335 7.335z" fill="#a35d50"/><path d="m322.503 128.746 34.964 25.787 25.184-14.623 24.478-35.039z" fill="#e9edf5"/><path d="m383.254 189.497-25.787-34.964 49.662-49.662z" fill="#cdd2e1"/><path d="m337.757 174.243c-.605-.617-1.206-1.237-1.818-1.85-35.747-35.747-79.363-59.608-122.816-67.189-38.646-6.743-73.345-.054-99.567 18.844-9.581-6.607-22.941-5.531-31.628 3.156-9.763 9.763-9.921 25.434-.354 35.002 9.568 9.568 25.239 9.41 35.002-.354l.115.115c1.614-1.988 3.327-3.897 5.146-5.716 20.053-20.053 50.641-27.686 86.13-21.494 37.425 6.529 75.339 27.429 106.759 58.849.613.613 1.214 1.232 1.818 1.849z" fill="#c1877a"/><path d="m337.757 174.243c.617.605 1.237 1.206 1.85 1.818 35.747 35.747 59.608 79.363 67.189 122.816 6.743 38.646.054 73.345-18.844 99.567 6.607 9.581 5.531 22.941-3.156 31.628-9.763 9.763-25.434 9.921-35.002.354-9.568-9.568-9.41-25.239.354-35.002l-.115-.115c1.988-1.614 3.897-3.327 5.716-5.146 20.053-20.053 27.686-50.641 21.494-86.13-6.529-37.424-27.429-75.339-58.849-106.759-.612-.613-1.232-1.214-1.849-1.818z" fill="#a35d50"/><path d="m262.037 106.92-21.543 50.605c22.654 9.644 47.157 26.686 67.227 46.755l26.547-13.819 12.344-25.072c-25.226-25.226-55.262-45.991-84.575-58.469z" fill="#fde575"/><path d="m405.08 249.963-50.605 21.543c-9.644-22.654-26.686-47.157-46.755-67.227l38.891-38.891c25.226 25.226 45.991 55.262 58.469 84.575z" fill="#fcc74c"/></g></svg>