<svg id="Capa_1" enable-background="new 0 0 512 512" height="512" viewBox="0 0 512 512" width="512" xmlns="http://www.w3.org/2000/svg"><g><path d="m512 256c0 70.287-28.326 133.959-74.186 180.221l-363.626.002c-45.861-46.262-74.188-109.935-74.188-180.223 0-141.385 114.615-256 256-256s256 114.615 256 256z" fill="#fb8773"/><path d="m268.461 65.273-37.998 37.998 36.34 36.34-36.34 36.34 35.691 35.691-110.259 110.26 114.32 114.32 167.599-.001c35.096-35.404 59.904-81.011 69.625-131.969z" fill="#fa5744"/><path d="m238.5 317.399-10 60h27.5l7.453-30-7.453-30z" fill="#fde575"/><path d="m273.5 317.399h-17.5v60h27.5z" fill="#fcc74c"/><path d="m153.182 414.431c-4.198-.453-8.497-.688-12.874-.688-26.736 0-50.569 8.772-66.12 22.466 46.39 46.798 110.712 75.791 181.812 75.791l27.5-70.99-27.5-70.99c-44.779 0-83.588 18.039-102.818 44.411z" fill="#fff"/><path d="m437.811 436.209c-15.551-13.694-39.384-22.466-66.12-22.466-4.377 0-8.675.236-12.874.688-19.229-26.372-58.038-44.411-102.817-44.411v141.98c71.1 0 135.422-28.993 181.811-75.791z" fill="#e9edf5"/><g><path d="m155.894 321.903h66.376l6-69.371-6-101.967c-5.688 16.112-14.494 37.372-28.248 60.776-11.72 19.942-18.429 26.801-25.532 42.553-6.926 15.359-13.482 37.519-12.596 68.009z" fill="#e9edf5"/><path d="m356.106 321.903h-66.376l-6-69.371 6-101.967c5.688 16.112 14.494 37.372 28.248 60.776 11.72 19.942 18.429 26.801 25.532 42.553 6.926 15.359 13.482 37.519 12.596 68.009z" fill="#cdd2e1"/><path d="m256 55.234c-4.731 3.09-9.638 6.971-14.217 11.847-20.859 22.215-19.495 51.697-19.495 51.697v203.125h33.712l13.75-133.334z" fill="#fff"/><path d="m256 55.234c4.731 3.09 9.638 6.971 14.217 11.847 20.859 22.215 19.495 51.697 19.495 51.697v203.125h-33.712z" fill="#e9edf5"/></g></g></svg>