<svg id="Capa_1" enable-background="new 0 0 512 512" height="512" viewBox="0 0 512 512" width="512" xmlns="http://www.w3.org/2000/svg"><g><circle cx="256" cy="256" fill="#fdd437" r="256"/><path d="m287.663 189.189-3.068-3.068-135.784 135.786 72.933 72.933-32.278 32.278 84.261 84.261c133.113-9.107 238.273-119.954 238.273-255.379 0-.647-.02-1.289-.024-1.934l-144.595-144.595z" fill="#faba35"/><path d="m111.669 185.287c0 28.647 12.242 54.929 32.633 75.485v50.284c0 8.64 7.069 15.409 15.708 15.515 8.478.104 15.319 7.009 15.319 15.512v50.947c0 19.468 11.719 37.021 29.7 44.484l.524-14.812 16.213-.894-6.766 10.213 9.69 13.654c10.022 4.16 20.666 6.24 31.31 6.24l21.188-181.451-21.188-204.379c-79.712 0-144.331 53.368-144.331 119.202z" fill="#fff"/><path d="m306.971 437.514c17.98-7.463 29.7-25.017 29.7-44.484v-50.947c0-8.503 6.841-15.408 15.319-15.512 8.639-.106 15.708-6.875 15.708-15.515v-50.284c20.391-20.556 32.633-46.838 32.633-75.485l-18.31-.67 15.49-22.896c-13.244-54.546-71.567-95.636-141.511-95.636v385.83c10.644 0 21.288-2.08 31.31-6.24z" fill="#e9edf5"/><path d="m274.182 391.611 7.831 25.87s39.959-31.293 38.996-31.775-21.665-2.407-21.665-2.407l-13.239-17.091z" fill="#cdd2e1"/><path d="m331.942 143.919-15.074-34.448-2.656 61.305 21.465-10.069 26.716-1.918z" fill="#cdd2e1"/><path d="m163.767 242.609c5.126-12.732 22.465-15.16 30.313-16.259 7.562-1.059 26.593-3.724 34.998 7.992 8.07 11.249.496 27.602-1.653 32.242-2.113 4.561-10.422 22.501-26.731 23.699-15.458 1.136-25.987-13.658-29.211-18.188-3.37-4.735-12.51-17.578-7.716-29.486z" fill="#555a65"/><path d="m348.233 242.609c-5.126-12.732-22.465-15.16-30.313-16.259-7.562-1.059-26.593-3.724-34.998 7.992-8.07 11.249-.496 27.602 1.653 32.242 2.113 4.561 10.422 22.501 26.731 23.699 15.458 1.136 25.987-13.658 29.211-18.188 2.259-3.174 7.112-9.993 8.621-17.73l-5.244-4.897z" fill="#333940"/><path d="m256 281.123 8.219 30.05-8.219 15.797c-.11 1.274-.719 6.688-5.256 10.513-3.528 2.974-9.364 4.93-13.141 2.92-5.376-2.862-6.571-13.758-4.37-25.016l5.512-1.834-.85-12.281c5.235-10.676 13.311-16.99 18.105-20.149z" fill="#555a65"/><path d="m256 281.123v45.847c.11 1.274.719 6.688 5.256 10.513 3.528 2.974 9.364 4.93 13.141 2.92 7.688-4.092 6.826-24.616-.292-39.131-5.235-10.676-13.311-16.99-18.105-20.149z" fill="#333940"/><path d="m177.065 123.172-3.965 22.154h-36.219l40.62 19.766 22.655 20.965-8.102-34.43 1.715-9.585 16.794-20.731z" fill="#e9edf5"/></g></svg>