<svg id="Capa_1" enable-background="new 0 0 512 512" height="512" viewBox="0 0 512 512" width="512" xmlns="http://www.w3.org/2000/svg"><g><circle cx="256" cy="256" fill="#d59b8d" r="256"/><path d="m330.317 147.028-.443 3.354-99.553-99.552-8.087 40.723 27.691 27.691-20.285 20.285 53.545 53.545-202.179 202.179 107.823 107.823c21.409 5.807 43.924 8.924 67.171 8.924 119.102 0 219.201-81.336 247.797-191.492z" fill="#a35d50"/><path d="m229.64 50.83-148.633 344.423h148.633l30.601-172.212z" fill="#fcc74c"/><path d="m229.64 50.83 148.634 344.423-79.362-20.168-69.272 20.168z" fill="#f49f36"/><path d="m229.64 395.253h100.677l20.683-104.908-20.683-143.317z" fill="#fde575"/><path d="m330.317 147.028v248.225h100.676z" fill="#fcc74c"/></g></svg>