<svg id="Capa_1" enable-background="new 0 0 512 512" height="512" viewBox="0 0 512 512" width="512" xmlns="http://www.w3.org/2000/svg"><g><circle cx="256" cy="256" fill="#96d7b8" r="256"/><path d="m264.133 155.324-84.999-84.999-23.134 23.134 12.922 12.922-2.922 2.922 114.567 114.567-28.71 28.71 50.05 50.05-145.907 145.907 60.414 60.414c12.903 2.003 26.122 3.049 39.586 3.049 141.385 0 256-114.615 256-256 0-13.462-1.046-26.679-3.048-39.58l-152.957-152.957z" fill="#55ba9e"/><path d="m181 106v32.972c0 16.277 2.818 31.802 8.299 46.603l59.201 70.425c-41.775 24.166-67.5 68.768-67.5 117.029v32.971h75l6.106-150-6.106-150z" fill="#e9edf5"/><path d="m331 373.029c0-48.261-25.725-92.862-67.5-117.028l61.548-77.347c3.895-12.682 5.952-26.035 5.952-39.682v-32.972h-75v300h75z" fill="#cdd2e1"/><path d="m214.331 187.5c-10.529 0-18.449-.777-25.031-1.926 10.737 29.224 31.411 54.35 59.201 70.426v80c-13.579 9.153-29.999 22.272-45.875 40.613-8.864 10.24-15.96 20.262-21.625 29.387h75l4.83-129.473-4.831-95.007c-10.234 2.946-20.857 5.98-41.669 5.98z" fill="#fde575"/><path d="m309.375 376.613c-15.876-18.341-32.296-31.46-45.875-40.613v-80c30.187-17.463 51.987-45.599 61.761-78.074-7.07-1.417-15.639-2.426-27.596-2.426-20.763 0-31.32 3.04-41.529 5.98-.045.013-.091.026-.136.039v224.481h75c-5.665-9.125-12.761-19.147-21.625-29.387z" fill="#fcc74c"/><path d="m166 402.697v17h90l6.617-8.5-6.617-8.5z" fill="#d59b8d"/><path d="m256 402.697h90v17h-90z" fill="#c1877a"/><path d="m156 418.537v30h100l9.426-15-9.426-15z" fill="#c1877a"/><path d="m256 418.537h100v30h-100z" fill="#a35d50"/><path d="m166 92.303v17h90l4.745-7.755-4.745-9.245z" fill="#d59b8d"/><path d="m256 92.303h90v17h-90z" fill="#c1877a"/><path d="m156 63.463v30h100l6.447-15-6.447-15z" fill="#c1877a"/><path d="m256 63.463h100v30h-100z" fill="#a35d50"/></g></svg>