<svg id="Capa_1" enable-background="new 0 0 512 512" height="512" viewBox="0 0 512 512" width="512" xmlns="http://www.w3.org/2000/svg"><g><circle cx="256" cy="256" fill="#fb8773" r="256"/><path d="m289.051 126.094 23.652 23.652-47.882 47.882 27.149 27.149-34.979 34.979 8.85 8.85-20.001 20.001 7.596 7.596-12.495 12.495 8.192 8.192-8.739 8.739-14.227-14.227-13.021 13.021-13.021-13.021-15.163 15.162 49.485 49.485-64.974 64.974 70.461 70.461c5.315.329 10.668.516 16.066.516 141.385 0 256-114.615 256-256 0-17.4-1.744-34.392-5.052-50.817l-148.493-148.493z" fill="#fa5744"/><g><path d="m310.058 184.901 48.396-128.214c-10.3 5.069-27.611 14.533-45.947 30.908-9.395 8.358-18.987 18.465-27.906 30.593-3.296 4.516-6.918 9.866-9.978 14.953-3.147 5.23-5.963 10.468-8.482 15.688l5.703 17.998-9.807-8.891c-3.629 8.638-6.297 16.494-8.511 24.837-3.723 13.829-5.687 27.101-6.53 39.291l4.654 16.338-5.152-3.774c-.272 24.739 3.709 43.441 5.385 50.604z" fill="#555a65"/><path d="m347.206 186.632c2.38-5.286 4.582-10.81 6.566-16.582 1.929-5.614 3.699-11.827 5.04-17.255 3.558-14.628 5.135-28.473 5.498-41.042.757-24.572-3.12-43.916-5.858-55.065l-106.571 228.544c6.564-3.32 23.45-12.292 42.226-28.402l-6.203-1.52 15.507-6.937c8.796-8.481 17.701-18.517 25.901-30.258 4.968-7.059 9.272-14.153 13.556-22.485l-13.115-1.798z" fill="#333940"/><path d="m240.94 308.696-1.482-14.569 58.077-124.547 6.797 3.17-28.297 69.558z" fill="#333940"/><path d="m240.94 308.696 12.113-8.23 58.077-124.547-6.798-3.169z" fill="#1e2730"/></g><g><path d="m199.251 324.776-29.778 35.841v80.409h71.468l8-58.125-8-58.125z" fill="#cad5ff"/><path d="m312.409 360.617-29.778-35.841h-41.69v116.25h71.468z" fill="#adcfff"/><path d="m184.962 308.696v17.867h55.979l7.049-8.934-7.049-8.933z" fill="#adcfff"/><path d="m240.941 308.696h55.979v17.867h-55.979z" fill="#8bbbff"/></g></g></svg>