<svg id="Capa_1" enable-background="new 0 0 512 512" height="512" viewBox="0 0 512 512" width="512" xmlns="http://www.w3.org/2000/svg"><g><circle cx="256" cy="256" fill="#fdd437" r="256"/><path d="m511.617 242.207c-.018-.328-.04-.657-.059-.985-.115-1.994-.252-3.987-.413-5.979-.034-.421-.069-.841-.106-1.261-.169-1.974-.362-3.945-.577-5.916-.038-.35-.074-.701-.113-1.051-.259-2.283-.543-4.564-.863-6.841l-81.724-81.724-8.975 1.06-10.251-10.25-281.297 281.298 2.796 8.789 90.139 90.139c.002 0 .004 0 .006.001 2.274.32 4.551.604 6.831.862.353.04.707.076 1.06.114 1.967.215 3.936.407 5.907.576.422.036.845.072 1.267.106 1.99.161 3.981.298 5.973.413.33.019.66.041.99.059 7.061.379 14.134.468 21.201.264.3-.009.599-.022.899-.032 2-.065 4-.152 5.998-.263.468-.026.936-.055 1.403-.084 1.879-.115 3.758-.251 5.634-.407.465-.039.93-.075 1.395-.117 2.017-.179 4.032-.382 6.045-.608.278-.031.556-.058.834-.09 4.696-.544 9.38-1.216 14.046-2.019.238-.041.475-.088.713-.129 2.012-.352 4.021-.729 6.026-1.129.523-.104 1.044-.215 1.566-.323 1.744-.36 3.485-.737 5.223-1.134.585-.133 1.17-.268 1.754-.406 1.736-.409 3.467-.838 5.196-1.284.521-.134 1.044-.264 1.565-.402 2.03-.537 4.054-1.098 6.073-1.686.189-.055.379-.105.568-.161 2.297-.674 4.587-1.381 6.868-2.121.092-.03.184-.063.276-.093 2.079-.677 4.15-1.385 6.215-2.116.562-.199 1.121-.408 1.681-.611 1.606-.582 3.208-1.177 4.805-1.792.669-.258 1.337-.521 2.005-.784 1.514-.598 3.023-1.212 4.528-1.84.663-.277 1.327-.552 1.988-.835 1.592-.68 3.177-1.382 4.757-2.096.537-.243 1.077-.478 1.613-.724 4.233-1.948 8.423-4.017 12.566-6.208.541-.286 1.076-.584 1.615-.875 1.505-.81 3.005-1.631 4.497-2.473.694-.392 1.384-.792 2.075-1.191 1.345-.776 2.684-1.564 4.018-2.366.718-.432 1.435-.866 2.149-1.306 1.338-.823 2.668-1.664 3.994-2.514.664-.426 1.33-.847 1.991-1.279 1.524-.997 3.037-2.018 4.544-3.051.438-.3.88-.59 1.316-.893 1.94-1.348 3.865-2.725 5.776-4.133.416-.306.825-.626 1.239-.935 1.48-1.105 2.954-2.222 4.416-3.363.652-.509 1.297-1.03 1.946-1.547 1.221-.973 2.438-1.954 3.646-2.952.698-.577 1.392-1.16 2.085-1.745 1.166-.985 2.324-1.983 3.476-2.991.675-.591 1.351-1.181 2.022-1.781 1.223-1.093 2.433-2.206 3.64-3.327.569-.528 1.143-1.049 1.708-1.583 1.756-1.661 3.498-3.344 5.218-5.064s3.404-3.462 5.064-5.218c.534-.565 1.054-1.138 1.582-1.707 1.122-1.207 2.236-2.419 3.33-3.643.598-.669 1.187-1.344 1.777-2.017 1.01-1.153 2.009-2.313 2.995-3.48.585-.693 1.168-1.387 1.744-2.084.998-1.207 1.979-2.423 2.951-3.644.517-.649 1.039-1.295 1.549-1.948 1.139-1.46 2.255-2.932 3.358-4.41.311-.416.631-.827.939-1.245 1.407-1.91 2.785-3.836 4.132-5.775.302-.435.592-.877.891-1.314 1.033-1.508 2.055-3.021 3.052-4.545.433-.661.854-1.328 1.28-1.993.85-1.325 1.69-2.655 2.513-3.992.44-.715.875-1.432 1.307-2.15.802-1.332 1.589-2.671 2.364-4.014.4-.692.801-1.384 1.194-2.079.841-1.49 1.661-2.988 2.469-4.49.291-.541.591-1.079.878-1.621 2.191-4.143 4.26-8.333 6.208-12.566.246-.534.48-1.073.722-1.608.715-1.582 1.417-3.167 2.098-4.76.283-.662.558-1.326.835-1.99.627-1.504 1.241-3.012 1.839-4.525.264-.669.528-1.338.786-2.008.614-1.595 1.209-3.195 1.791-4.8.204-.562.413-1.122.613-1.685.73-2.061 1.437-4.129 2.113-6.204.031-.096.065-.191.096-.286.74-2.281 1.446-4.57 2.12-6.866.056-.19.106-.38.161-.57.587-2.018 1.149-4.041 1.685-6.07.138-.522.268-1.046.403-1.569.445-1.726.874-3.455 1.282-5.188.139-.588.274-1.176.408-1.764.396-1.734.772-3.471 1.131-5.211.108-.525.22-1.049.325-1.575.4-2.003.776-4.01 1.128-6.021.042-.238.088-.476.129-.715.803-4.665 1.476-9.349 2.019-14.044.032-.28.059-.561.091-.842.226-2.01.429-4.023.607-6.037.042-.466.078-.933.117-1.4.156-1.875.292-3.752.406-5.629.029-.469.058-.938.084-1.407.111-1.997.198-3.996.263-5.995.01-.301.024-.601.032-.902.203-7.07.115-14.144-.264-21.205z" fill="#faba35"/><path d="m279.555 195.065-101.104 101.104-9.467 15.967-9.723 3.223-18.19 18.19-5.306 11.015-13.884 8.175-29.227 29.227 18.69 18.69 101.343-85.557 85.558-101.344z" fill="#c1877a"/><path d="m316.935 232.445-18.69-18.69-186.901 186.901 18.69 18.69 29.227-29.227 9.328-14.048 9.862-5.142 18.19-18.19 4.113-10.943 15.077-8.247z" fill="#a35d50"/><path d="m159.261 315.359v18.19h-18.19l-19.19 19.19h37.38l15.247-3.943 3.943-15.247v-37.38z" fill="#fff"/><path d="m178.451 370.929v-18.19h18.19l19.19-19.19h-37.38l-19.19 19.19v37.38z" fill="#e9edf5"/><path d="m373.549 84.238-23.234 23.234 27.107 27.106 14.764-8.47 8.47-14.764z" fill="#e9edf5"/><path d="m386.163 117.347h32.858v38.334h-32.858z" fill="#cdd2e1" transform="matrix(.707 -.707 .707 .707 21.386 324.66)"/><path d="m290.942 221.058-79.433-79.433 32.707-60.742 60.743-32.708 79.433 79.433-34.043 59.408z" fill="#fff"/><path d="m370.375 300.491-79.433-79.433 93.45-93.45 79.433 79.433-32.708 60.743z" fill="#e9edf5"/><path d="m370.374 300.491h28.036l65.415-65.415v-28.035z" fill="#cdd2e1"/><path d="m276.924 48.175-65.415 65.415v28.036l93.45-93.451z" fill="#e9edf5"/></g></svg>