<svg id="Capa_1" enable-background="new 0 0 512 512" height="512" viewBox="0 0 512 512" width="512" xmlns="http://www.w3.org/2000/svg"><g><circle cx="256" cy="256" fill="#d59b8d" r="256"/><path d="m399.922 135.369-24.353 24.353-48.156-48.156-33.721 33.721-47.782-47.782-82.607 82.607-45.453-45.453-29.554 9.355 19.45 19.451-2.102 2.102 70.249 70.249-23.635 23.635 32.371 32.371-102.115 102.118 110.16 110.16c20.253 5.154 41.468 7.9 63.326 7.9 141.385 0 256-114.615 256-256 0-8.4-.417-16.702-1.208-24.895l-87.09-87.09z" fill="#a35d50"/><g><path d="m182.4 185.091h-37.892l-7.057 127.25h52.046z" fill="#fff"/><g fill="#e9edf5"><path d="m134.56 163.253h57.829v23.136h-57.829z"/><path d="m125.886 311.043h75.177v28.92h-75.177z"/></g></g><g><path d="m237.034 185.091-7.057 127.25h26.023l4.57-63.625-4.57-63.625z" fill="#fff"/><path d="m274.926 185.091h-18.926v127.25h26.023z" fill="#e9edf5"/><path d="m227.086 163.253v23.136h28.914l2.126-11.568-2.126-11.568z" fill="#e9edf5"/><path d="m256 163.253h28.914v23.136h-28.914z" fill="#cdd2e1"/><path d="m218.411 311.043v28.92h37.589l2.764-14.46-2.764-14.46z" fill="#e9edf5"/><path d="m256 311.043h37.589v28.92h-37.589z" fill="#cdd2e1"/></g><g><path d="m367.451 185.091h-37.891l-7.057 127.25h52.046z" fill="#e9edf5"/><g fill="#cdd2e1"><path d="m319.611 163.253h57.829v23.136h-57.829z"/><path d="m310.937 311.043h75.177v28.92h-75.177z"/></g></g><path d="m105.646 338.019v28.92h150.354l11.054-14.46-11.054-14.46z" fill="#fff"/><path d="m256 338.019h150.354v28.92h-150.354z" fill="#e9edf5"/><path d="m105.646 142.43v23.137h150.354l11.054-11.568-11.054-11.569z" fill="#fff"/><path d="m256 142.43h150.354v23.136h-150.354z" fill="#e9edf5"/><path d="m82.514 365.019v28.921h173.486l16.352-14.46-16.352-14.461z" fill="#e9edf5"/><path d="m256 365.019h173.486v28.92h-173.486z" fill="#cdd2e1"/><path d="m88.297 144.015h167.703l12.33-49.165-12.33-49.165z" fill="#e9edf5"/><path d="m256 45.685v98.33h167.703z" fill="#cdd2e1"/><path d="m152.081 127.632h103.919l7.64-30.127-7.64-30.126z" fill="#fff"/><path d="m256 67.379v60.253h103.919z" fill="#e9edf5"/></g></svg>