<svg id="Capa_1" enable-background="new 0 0 512 512" height="512" viewBox="0 0 512 512" width="512" xmlns="http://www.w3.org/2000/svg"><g><circle cx="256" cy="256" fill="#adcfff" r="256"/><path d="m310.936 56.193-37.148 37.147-17.293-17.293-67.598 67.598 92.182 92.182-184.092 184.093 79.458 79.458c25.043 8.181 51.779 12.622 79.555 12.622 140.97 0 255.314-113.946 255.984-254.759z" fill="#8bbbff"/><g><path d="m256 180.277h-39.106v30.959l-69.498 17.979c-8.511 4.632-15.33 9.425-20.434 13.418-1.62 11.708-2.951 32.882 4.872 57.38 6.043 18.924 15.264 32.683 21.969 41.131h102.197l14.593-68.378z" fill="#fff"/><path d="m256 180.277h39.106v30.959c11.296.09 28.081 1.517 47.167 8.12 19.483 6.74 33.781 16.25 42.764 23.277 1.62 11.708 2.951 32.882-4.872 57.38-.389 1.219-.792 2.414-1.207 3.591l-20.762 37.541h-102.196z" fill="#e9edf5"/><path d="m256 250.2c-7.473-5.879-14.794-12.337-21.856-19.476-6.332-6.401-12.061-12.93-17.25-19.488-4.555.274-9.882.599-15.523.947-9.21 1.047-19.994 3.142-31.644 7.173-8.416 2.911-15.859 6.34-22.33 9.862v103.115c.004.006.007.011.011.017 3.324 2.838 6.74 5.78 10.232 8.795h98.36l10.224-35.177z" fill="#e9edf5"/><path d="m256 341.144h102.197c6.273-7.904 14.748-20.459 20.762-37.541-34.928-6.496-81.377-20.689-122.959-53.403z" fill="#cdd2e1"/><path d="m256 60.57h-30.62c-15.98 0-28.934 15.384-28.934 34.361v15.684c-2.156-1.962-4.545-2.924-6.872-2.514-5.908 1.042-9.178 10.508-7.302 21.142 1.875 10.635 7.999 18.412 13.907 17.37l59.821 61.81 10.224-73.926z" fill="#e9edf5"/><path d="m322.426 108.102c-2.327-.41-4.715.552-6.872 2.514v-15.684c0-18.977-12.954-34.361-28.934-34.361h-30.62v147.853l59.822-61.808c5.908 1.042 12.031-6.735 13.907-17.37 1.874-10.636-1.395-20.102-7.303-21.144z" fill="#cdd2e1"/><path d="m242.314 171.386h13.686l3.157-6.422-3.157-6.075h-18.652c-3.098 0-6.051 1.312-8.129 3.61l-5.882 6.509c-10.481-8.578-16.559-21.407-16.559-34.95 0 0 .081-6.574.249-14.531 1.789-3.471 3.562-7.107 5.298-10.911 4.316-9.459 7.697-18.407 10.365-26.572 4.98 4.152 11.239 8.72 18.845 13.003 5.042 2.839 9.911 5.12 14.464 6.965l4.429-34.668-4.428-28.644c-11.543-.003-28.299-.849-41.758 10.557-5.113 4.332-8.254 9.106-10.109 12.488-3.243.78-7.975 2.473-11.594 6.542 0 0-.001.001-.001.002-7.695 8.796.001 44.85.001 44.85.741 3.471 1.661 7.623 2.765 12.315.552 13.897 1.143 27.327 1.143 27.327 0 5.244 1.72 10.344 4.896 14.517l24.11 31.674c4.533 5.955 11.587 9.45 19.07 9.45h11.477l2.78-11.421-2.78-12.414h-13.686c-2.294 0-4.154-1.86-4.154-4.154v-4.892c0-2.295 1.86-4.155 4.154-4.155z" fill="#cdd2e1"/><path d="m315.41 61.692c-13.713-21.228-51.542-22.99-59.41-22.992v63.313c4.298 1.742 8.314 3.096 11.92 4.153-1.244-1.853-2.975-4.914-3.958-9.046-.952-4.008-.82-7.423-.565-9.611 3.155.632 12.833 2.987 20.73 11.873 7.39 8.316 8.862 17.447 9.234 20.73 1.427-.428 5.028-1.718 7.915-5.277 2.173-2.679 3.038-5.529 3.377-7.672.386 12.076.569 26.895.569 26.895 0 13.544-6.078 26.372-16.559 34.95l-5.882-6.509c-2.077-2.299-5.031-3.61-8.129-3.61h-18.652v12.497h13.686c2.294 0 4.154 1.86 4.154 4.154v4.892c0 2.294-1.86 4.154-4.154 4.154h-13.686v23.836h11.477c7.483 0 14.538-3.496 19.07-9.45l24.11-31.674c3.176-4.173 4.897-9.272 4.897-14.517 0 0 .441-10.031.917-21.724 1.188 1.776 2.357 3.376 3.461 4.79 1.159-6.784 2.379-16.314 2.493-27.746.219-21.833.348-35.011-7.015-46.409z" fill="#a8adba"/></g><path d="m118.188 332.34v63.605h137.812l10.132-31.802-10.132-31.803z" fill="#fde575"/><path d="m256 332.34h137.812v63.605h-137.812z" fill="#fcc74c"/><path d="m96.987 393.419v26.502h159.013l14.988-13.251-14.988-13.251z" fill="#c1877a"/><path d="m256 393.419h159.013v26.502h-159.013z" fill="#a35d50"/></g></svg>