<svg id="Capa_1" enable-background="new 0 0 512 512" height="512" viewBox="0 0 512 512" width="512" xmlns="http://www.w3.org/2000/svg"><g><circle cx="256" cy="256" fill="#d59b8d" r="256"/><path d="m342.404 169.596-172.807 172.807-62.088 62.088 103.577 103.577c14.583 2.581 29.59 3.932 44.914 3.932 141.385 0 256-114.615 256-256 0-15.324-1.351-30.333-3.932-44.916l-103.576-103.576z" fill="#a35d50"/><g><path d="m404.492 107.508-137.885 10.606-66.291 82.202-82.202 66.291-10.606 137.885 160.688-136.296z" fill="#adcfff"/><path d="m404.492 107.508-10.606 137.885-82.202 66.291-66.291 82.202-137.885 10.606z" fill="#8bbbff"/><path d="m118.114 266.607 137.886-10.607 10.607-137.886z" fill="#cad5ff"/><path d="m393.886 245.393-148.493 148.493 10.607-137.886z" fill="#adcfff"/><path d="m263.071 164.076-98.995 98.995-17.678 102.531 119.907-99.297 99.297-119.907z" fill="#8bbbff"/><path d="m347.924 248.929-98.995 98.995-102.531 17.678 219.204-219.204z" fill="#5872dd"/></g><path d="m222.122 216.846c-6.689-12.273-8.122-26.52-8.481-31.124-.358 4.604-1.792 18.851-8.481 31.124s-14.453 14.904-16.962 15.562c2.509.658 10.273 3.289 16.962 15.562s8.122 26.52 8.481 31.124c.358-4.604 1.792-18.851 8.481-31.124s14.452-14.904 16.962-15.562c-2.509-.658-10.273-3.288-16.962-15.562z" fill="#fde575"/><path d="m359.42 291.05c-9.066-16.636-11.009-35.946-11.495-42.187-.486 6.241-2.429 25.551-11.495 42.187s-19.59 20.202-22.99 21.093c3.401.892 13.924 4.458 22.99 21.094s11.009 35.946 11.495 42.187c.486-6.241 2.429-25.551 11.495-42.187s19.589-20.202 22.99-21.094c-3.4-.891-13.924-4.457-22.99-21.093z" fill="#fcc74c"/></g></svg>