<svg id="Capa_1" enable-background="new 0 0 512 512" height="512" viewBox="0 0 512 512" width="512" xmlns="http://www.w3.org/2000/svg"><g><circle cx="256" cy="256" fill="#fdd437" r="256"/><path d="m221.495 202.814 9.223 9.223-82.74 82.74 71.798 71.798-75.202 75.202 66.247 66.247c14.666 2.612 29.763 3.976 45.179 3.976 141.385 0 256-114.615 256-256 0-3.525-.091-7.028-.232-10.518l-166.47-166.47z" fill="#faba35"/><path d="m187.128 309.777-39.149-15c3.214-24.897 5.447-53.352 5.447-84.745s-2.233-59.848-5.447-84.745l39.149-15z" fill="#cdd2e1"/><path d="m324.872 309.777 39.149-15c-3.214-24.897-5.447-53.352-5.447-84.745s2.233-59.848 5.447-84.745l-39.149-15z" fill="#a8adba"/><path d="m256 441.777h-111.426v-37.745c0-35.323 28.635-63.957 63.957-63.957h47.469l11.553 53.957z" fill="#cdd2e1"/><path d="m256 441.777h111.426v-37.745c0-35.323-28.635-63.957-63.957-63.957h-47.469z" fill="#a8adba"/><path d="m256 113.074h-71.255v152.293c0 22.88-3.796 45.601-11.234 67.238 2.179 3.261 30.525 44.085 82.489 44.085l11.553-137.383z" fill="#e9edf5"/><path d="m256 113.074h71.255v152.293c0 22.88 3.796 45.601 11.234 67.238-2.179 3.261-30.525 44.085-82.489 44.085z" fill="#cdd2e1"/><path d="m227.723 175.117h-28.447c-7.896 0-14.298-6.401-14.298-14.298v-47.745h57.043v47.745c0 7.897-6.401 14.298-14.298 14.298z" fill="#fff"/><path d="m284.277 175.117h28.447c7.897 0 14.298-6.401 14.298-14.298v-47.745h-57.043v47.745c0 7.897 6.401 14.298 14.298 14.298z" fill="#e9edf5"/><path d="m256 273.011h-39l22.979-48.256v-111.681h16.021l8.234 77.724z" fill="#cdd2e1"/><path d="m256 273.011h39l-22.979-48.256v-111.681h-16.021z" fill="#a8adba"/><path d="m256 50.223c-46.386 0-78.627 21.109-89.298 28.787v57.085c18.171-7.431 49.398-17.553 89.298-17.553l11.553-33.702z" fill="#cdd2e1"/><path d="m256 50.223c46.386 0 78.627 21.109 89.298 28.787v57.085c-18.171-7.431-49.398-17.553-89.298-17.553z" fill="#a8adba"/><path d="m256 303.189c-13.56 0-27.122 1.272-40.411 3.817l2.821 14.732c12.361-2.367 24.976-3.55 37.59-3.55l4.276-7.39z" fill="#fff"/><path d="m256 303.189c13.56 0 27.122 1.272 40.411 3.817l-2.821 14.732c-12.361-2.367-24.976-3.55-37.59-3.55z" fill="#e9edf5"/></g></svg>