<svg id="Capa_1" enable-background="new 0 0 512 512" height="512" viewBox="0 0 512 512" width="512" xmlns="http://www.w3.org/2000/svg"><g><circle cx="256" cy="256" fill="#adcfff" r="256"/><path d="m501.901 184.614-89.954-89.954-110.421 110.421-84.753-84.753-15.145 15.145-60.762 60.762-15.145 15.145 84.753 84.753-98.937 98.937 3.714 3.714-11.631 11.631 95.159 95.159c18.399 4.201 37.55 6.426 57.221 6.426 141.385 0 256-114.615 256-256 0-24.777-3.532-48.726-10.099-71.386z" fill="#8bbbff"/><g><path d="m411.947 94.66-116.719 25.667-150.834 186.937 27.474 27.475 115.005-85.885z" fill="#fff"/><path d="m411.947 94.66-25.667 116.718-186.938 150.835-27.474-27.474z" fill="#e9edf5"/><path d="m141.96 326.416-46.701 46.701c-7.99 7.99-7.99 20.945 0 28.936l4.647 4.647 41.289-19.88 19.88-41.289z" fill="#fcc74c"/><path d="m180.191 364.647-19.115-19.115-61.17 61.168 4.647 4.647c7.99 7.99 20.945 7.99 28.936 0z" fill="#f49f36"/><path d="m153.359 353.248-42.21-42.209 3.979-18.96 18.959-3.979 42.21 42.21-6.136 18.447z" fill="#fde575"/><path d="m153.359 353.248 42.209 42.21 18.959-3.979 3.979-18.96-42.209-42.209z" fill="#fcc74c"/></g><g><path d="m100.053 94.66 25.667 116.718 186.938 150.835 27.474-27.474-85.884-115.005z" fill="#cdd2e1"/><path d="m100.053 94.66 116.719 25.667 150.834 186.937-27.474 27.475z" fill="#a8adba"/><path d="m331.809 364.647 46.701 46.701c7.99 7.99 20.945 7.99 28.936 0l4.647-4.647-19.88-41.289-41.289-19.88z" fill="#fcc74c"/><path d="m370.04 326.416-19.115 19.115 61.169 61.169 4.647-4.647c7.99-7.99 7.99-20.945 0-28.936z" fill="#f49f36"/><path d="m358.641 353.248-42.209 42.21-18.959-3.979-3.979-18.96 42.209-42.209 18.447 6.136z" fill="#fde575"/><path d="m358.641 353.248 42.21-42.209-3.979-18.96-18.959-3.979-42.21 42.21z" fill="#fcc74c"/></g></g></svg>