<svg id="Capa_1" enable-background="new 0 0 512 512" height="512" viewBox="0 0 512 512" width="512" xmlns="http://www.w3.org/2000/svg"><g><circle cx="256" cy="256" fill="#96d7b8" r="256"/><path d="m345.444 94.24-45.362-45.362-15.853 15.853-28.229-28.229-7.799 32.82-6.966 6.966-16.82-16.82-20.31 20.31 53.435 53.435-179.226 179.226 11.242 11.242-14.273 14.273 21.366 21.366-10.69 10.69 16.598 16.598-2.378 2.379 16.759 16.758-2.401 2.401 100.59 100.59c13.311 2.138 26.96 3.264 40.873 3.264 141.385 0 256-114.615 256-256 0-7.854-.374-15.62-1.066-23.293l-151.978-151.978z" fill="#55ba9e"/><path d="m245.41 211.919c6.177-11.179 9.266-25.382 10.59-39.58l7.383-22.488-7.383-16.867c-.89-11.18-2.238-19.348-2.729-21.47-9.114-39.333-36.287-59.092-41.351-62.636-2.89 5.23-17.67 33.162-10.413 70.555-17.94-26.803-43.234-36.755-48.462-38.705-1.927 5.819-11.482 36.571 3.233 71.256-15.853-17.066-35.607-21.557-39.806-22.434-1.279 4.928-7.72 31.762 8.557 57.982.346.557.906 1.44 1.679 2.557-18.794-8.425-37.464-5.973-41.699-5.341-.281 5.286-1.237 32.778 18.438 53.32-18.624-3.745-34.237.919-37.894 2.083 1.107 5.101 7.602 32.615 34.314 48.07.574.332 1.501.855 2.731 1.483-17.763.105-30.679 9.134-33.398 11.109 1.909 3.224 11.968 19.53 32.17 25.644-.344.363-.626.67-.828.894-15.929 17.667-14.852 38.773-14.583 42.662 3.264-.111 18.604-.912 32.863-11.554-1.301 2.12-2.114 3.757-2.501 4.564-10.299 21.443-3.167 41.458-1.784 45.126 2.77-.902 14.573-4.975 24.68-15.807-1.172 3.385-2.085 7.123-2.52 11.25-.341 3.237-1.886 20.826 10.191 36.357 15.048-12.673 17.203-30.197 17.545-33.435 2.11-20.027-8.238-33.847-10.191-36.357v-83.494z" fill="#f49f36"/><path d="m266.59 211.919c-6.177-11.179-9.266-25.382-10.59-39.58v-39.355c.89-11.18 2.238-19.348 2.729-21.47 9.114-39.333 36.287-59.092 41.351-62.636 2.89 5.23 17.67 33.162 10.413 70.555 17.94-26.803 43.234-36.755 48.462-38.705 1.927 5.819 11.482 36.571-3.233 71.256 15.853-17.066 35.607-21.557 39.806-22.434 1.279 4.928 7.72 31.762-8.557 57.982-.346.557-.906 1.44-1.679 2.557 18.794-8.425 37.464-5.973 41.699-5.341.281 5.286 1.237 32.778-18.438 53.32 18.624-3.745 34.237.919 37.894 2.083-1.107 5.101-7.602 32.615-34.314 48.07-.574.332-1.501.855-2.731 1.483 17.763.105 30.679 9.134 33.398 11.109-1.909 3.224-11.968 19.53-32.17 25.644.344.363.626.67.828.894 15.929 17.667 14.852 38.773 14.583 42.662-3.264-.111-18.604-.912-32.863-11.554 1.301 2.12 2.114 3.757 2.501 4.564 10.299 21.443 3.167 41.458 1.784 45.126-2.77-.902-14.573-4.975-24.68-15.807 1.172 3.385 2.085 7.123 2.52 11.25.341 3.237 1.886 20.826-10.191 36.357-15.048-12.673-17.203-30.197-17.545-33.435-2.11-20.027 8.238-33.847 10.191-36.357v-83.494z" fill="#e27b00"/><path d="m187.337 73.994c-2.4 6.015-14.907 39.025-2.725 82.56 1.969 7.037 13.176 45.056 45.178 69.155 14.847-37.209 4.694-75.522 2.725-82.559-12.182-43.535-40.004-65.26-45.178-69.156z" fill="#fcc74c"/><path d="m107.843 160.239c-.764 5.443-4.366 34.994 16.382 60.252 3.354 4.083 21.978 25.869 55.923 27.772 4.726-33.668-13.028-56.169-16.382-60.252-20.747-25.259-50.436-27.465-55.923-27.772z" fill="#fcc74c"/><path d="m68.851 274.477c2.075 4.186 13.71 26.625 39.644 33.252 4.192 1.071 27.051 6.403 50.736-10.157-12.837-25.893-35.452-32.18-39.644-33.252-25.935-6.627-46.908 7.48-50.736 10.157z" fill="#fcc74c"/><path d="m145.637 335.524c-3.98-.376-25.469-2.031-38.514 13.311-2.109 2.48-13.198 16.225-6.946 40.153 24.622 2.324 36.406-10.831 38.514-13.31 13.045-15.342 7.957-36.286 6.946-40.154z" fill="#fcc74c"/><path d="m134.724 114.031c-1.168 5.633-6.959 36.355 12.076 68.495 3.077 5.195 20.229 33.097 54.26 43.511 7.225-34.848-8.999-63.299-12.076-68.494-19.035-32.141-48.759-41.828-54.26-43.512z" fill="#fde575"/><path d="m77.46 215.676c1.033 4.69 7.094 30.013 32.072 45.403 4.038 2.488 26.187 15.57 54.975 8.229-6.388-29.014-28.034-42.915-32.071-45.402-24.978-15.391-50.322-9.417-54.976-8.23z" fill="#fde575"/><path d="m154.24 343.822c-2.514 2.04-15.95 13.354-18.06 33.381-.341 3.237-1.875 20.828 10.706 36.412 15.553-12.619 17.719-30.143 18.06-33.38 2.111-20.028-8.672-33.894-10.706-36.413z" fill="#fde575"/><path d="m148.629 315.529c-3.238-2.021-20.952-12.64-41.998-6.206-3.402 1.04-21.736 7.065-31.347 28.631 20.028 12.504 38.596 7.246 41.998 6.206 21.046-6.435 29.793-25.145 31.347-28.631z" fill="#fde575"/><path d="m256 36.503c-4.686 5.894-29.427 38.192-29.427 89.543 0 8.307.663 53.354 29.427 89.543l14.714-89.543z" fill="#fde575"/><path d="m324.663 73.994c2.4 6.015 14.907 39.025 2.725 82.56-1.969 7.037-13.176 45.056-45.178 69.155-14.847-37.209-4.694-75.522-2.725-82.559 12.182-43.535 40.004-65.26 45.178-69.156z" fill="#f49f36"/><path d="m404.157 160.239c.764 5.443 4.366 34.994-16.382 60.252-3.354 4.083-21.978 25.869-55.923 27.772-4.726-33.668 13.028-56.169 16.382-60.252 20.747-25.259 50.436-27.465 55.923-27.772z" fill="#f49f36"/><path d="m443.149 274.477c-2.075 4.186-13.71 26.625-39.644 33.252-4.192 1.071-27.051 6.403-50.736-10.157 12.837-25.893 35.452-32.18 39.644-33.252 25.935-6.627 46.908 7.48 50.736 10.157z" fill="#f49f36"/><path d="m366.363 335.524c3.98-.376 25.469-2.031 38.514 13.311 2.109 2.48 13.198 16.225 6.946 40.153-24.622 2.324-36.406-10.831-38.514-13.31-13.045-15.342-7.957-36.286-6.946-40.154z" fill="#f49f36"/><g fill="#fcc74c"><path d="m377.276 114.031c1.168 5.633 6.959 36.355-12.076 68.495-3.077 5.195-20.229 33.097-54.26 43.511-7.225-34.848 8.999-63.299 12.076-68.494 19.035-32.141 48.759-41.828 54.26-43.512z"/><path d="m434.54 215.676c-1.033 4.69-7.094 30.013-32.072 45.403-4.038 2.488-26.187 15.57-54.975 8.229 6.388-29.014 28.034-42.915 32.071-45.402 24.978-15.391 50.322-9.417 54.976-8.23z"/><path d="m357.76 343.822c2.514 2.04 15.95 13.354 18.06 33.381.341 3.237 1.875 20.828-10.706 36.412-15.553-12.619-17.719-30.143-18.06-33.38-2.111-20.028 8.672-33.894 10.706-36.413z"/><path d="m363.371 315.529c3.238-2.021 20.952-12.64 41.998-6.206 3.402 1.04 21.736 7.065 31.347 28.631-20.028 12.504-38.596 7.246-41.998 6.206-21.046-6.435-29.793-25.145-31.347-28.631z"/><path d="m256 36.503c4.686 5.894 29.427 38.192 29.427 89.543 0 8.307-.663 53.354-29.427 89.543z"/></g><path d="m256 203.317c-62.837 0-113.792 50.94-113.792 113.777 0 10.525 1.459 20.703 4.133 30.376 13.294-48.083 57.346-83.401 109.659-83.401l14.714-30.771z" fill="#c1877a"/><path d="m256 203.317c62.837 0 113.792 50.94 113.792 113.777 0 10.525-1.459 20.703-4.133 30.376-13.294-48.083-57.346-83.401-109.659-83.401z" fill="#a35d50"/><circle cx="146.071" cy="342.869" fill="#555a65" r="21.87"/><circle cx="365.929" cy="342.869" fill="#333940" r="21.87"/></g></svg>