<svg id="Capa_1" enable-background="new 0 0 512 512" height="512" viewBox="0 0 512 512" width="512" xmlns="http://www.w3.org/2000/svg"><g><circle cx="256" cy="256" fill="#fb8773" r="256"/><path d="m349.583 249.173-161.441-161.441-81.717 81.716 51.747 51.747-85.596 85.596 96.387 96.387-9.434 9.434 99.351 99.352c137.332-1.517 248.696-111.154 252.976-247.806l-88.629-88.629z" fill="#fa5744"/><g fill="#cdd2e1"><path d="m262.336 284.887 23.471 46.22 25.174-46.22z"/><path d="m318.048 284.887 23.47 46.22 25.174-46.22z"/><path d="m375.409 284.887 23.471 46.22 25.173-46.22z"/></g><path d="m320.097 379.595 28.276-36.75 14.487 44.794z" fill="#a8adba"/><path d="m370.523 389.081 28.277-36.751 14.486 44.795z" fill="#a8adba"/><path d="m233.191 281.905h-131.849l58.187 130.705 94.485 9.322 12.007-27.783-12.007-35.44z" fill="#e9edf5"/><path d="m421.766 387.184-167.752-28.475v63.223l137.644 13.581z" fill="#cdd2e1"/><path d="m254.014 195.839-61.61 5.688-44.017-31.57v-26.541l71.818-5.029 33.809 36.319 12.008-17.239-12.008-39.643-44.345-41.338-89.447 10.524-56.64 73.044 11.799 49.083c-13.769 12.32-22.442 30.219-22.442 50.149 0 37.159 30.123 67.283 67.282 67.283 24.187 0 45.384-12.769 57.242-31.927l76.55-.736 19.667-64.436-19.667-54.761v21.13z" fill="#fff"/><path d="m462.106 235.613-38.878-60.085-140.516-30.95-28.698-26.753v56.882 119.197l208.092-2.001z" fill="#e9edf5"/></g></svg>