<svg id="Capa_1" enable-background="new 0 0 512 512" height="512" viewBox="0 0 512 512" width="512" xmlns="http://www.w3.org/2000/svg"><g><circle cx="256" cy="256" fill="#96d7b8" r="256"/><path d="m337.313 132.859-2.738-2.738h-72.18l-12.073 12.073-12.073-12.073-11.22 11.22-59.957-59.957-35.488 35.488 1.252 1.252-10.094 10.094 56.437 56.437-45.198 45.198 25.142 25.142-33.923 33.921 50.946 50.946-26.12 26.12 40.144 40.144-33.854 33.854 70.336 70.336c9.632 1.1 19.421 1.685 29.348 1.685 141.385 0 256-114.615 256-256 0-20.169-2.341-39.79-6.751-58.615l-116.231-116.232z" fill="#55ba9e"/><path d="m247.998 138.932v234.738h8.002l4.95-117.369-4.95-117.369z" fill="#fff"/><g fill="#e9edf5"><path d="m256 138.932h8.002v234.737h-8.002z"/><path d="m281.074 138.932h16.005v234.737h-16.005z"/><path d="m314.151 138.932h16.005v213.397h-16.005z"/></g><path d="m214.921 138.932h16.005v234.737h-16.005z" fill="#fff"/><path d="m181.844 138.932h16.005v213.397h-16.005z" fill="#fff"/><path d="m149.301 126.913v16.005h106.699l12.653-8.002-12.653-8.003z" fill="#fde575"/><path d="m256 126.913h106.699v16.005h-106.699z" fill="#fcc74c"/><path d="m170.436 323.032c-7.807-13.648-14.811-38.853-3.851-81.431 2.293-8.91 4.805-14.724 7.463-20.881 2.151-4.981 4.474-10.359 6.559-17.138 0 0 2.214-6.993 3.776-15.975 1.875-10.78 1.228-35.677-4.836-68.309-1.215-6.541-2.309-13.104-3.275-19.686-2.281-15.542-15.701-27.561-31.442-27.59-18.053-.033-31.783 15.719-31.783 32.691 0 16.933 12.517 30.859 28.553 32.523 2.864 14.807 3.12 29.245.726 43.109-1.779 10.301-4.162 15.818-7.46 23.455-3.042 7.044-6.489 15.027-9.614 27.163-14.53 56.449-3.595 92.749 8.136 113.26 33.978 59.401 113.665 62.034 122.612 62.139l11.056-21.52-11.056-21.158c-2.572-.029-62.992-1.191-85.564-40.652z" fill="#fcc74c"/><path d="m341.564 323.032c7.806-13.648 14.811-38.853 3.851-81.431-2.293-8.91-4.805-14.724-7.463-20.881-2.151-4.981-4.474-10.359-6.559-17.138 0 0-2.214-6.993-3.776-15.975-1.875-10.78-1.228-35.677 4.836-68.309 1.215-6.541 2.309-13.104 3.275-19.686 2.281-15.542 15.701-27.561 31.442-27.59 18.053-.033 31.783 15.719 31.783 32.691 0 16.933-12.517 30.859-28.553 32.523-2.864 14.807-3.12 29.245-.726 43.109 1.779 10.301 4.162 15.818 7.46 23.455 3.042 7.044 6.489 15.027 9.614 27.163 14.53 56.449 3.595 92.749-8.136 113.26-33.978 59.4-113.666 62.034-122.612 62.139v-42.677c2.572-.03 62.992-1.192 85.564-40.653z" fill="#f49f36"/><path d="m166.285 391.068v18.138h89.715l6.596-9.069-6.596-9.069z" fill="#fde575"/><path d="m256 391.068h89.715v18.139h-89.715z" fill="#fcc74c"/><path d="m156.316 407.969v32.01h99.684l9.396-16.005-9.396-16.005z" fill="#fcc74c"/><path d="m256 407.969h99.684v32.01h-99.684z" fill="#f49f36"/></g></svg>