<svg id="Capa_1" enable-background="new 0 0 512 512" height="512" viewBox="0 0 512 512" width="512" xmlns="http://www.w3.org/2000/svg"><g><circle cx="256" cy="256" fill="#adcfff" r="256"/><path d="m365.263 157.782-27.095-27.095-140.059 140.06-79.77-79.77-23.962 23.962 9.532 9.532-21.147 21.147 21.827 21.827-21.827 21.827 17.953 17.953-21.238 21.238 52.856 52.856-19.656 19.656-14.107-14.107-15.808 15.808 98.113 98.113c23.758 7.282 48.981 11.211 75.125 11.211 141.385 0 256-114.615 256-256 0-28.74-4.737-56.373-13.471-82.163l-74.661-74.661z" fill="#8bbbff"/><path d="m82.762 381.378v21.298h149.085l10.961-10.649-10.961-10.649z" fill="#fde575"/><path d="m231.847 381.378h149.085v21.298h-149.085z" fill="#fcc74c"/><path d="m107.934 228.59v86.823l-28.457 13.05v-113.83l28.457-39.152 31.63-2.39-6.253 34.11z" fill="#d59b8d"/><path d="m413.808 141.042 25.286-12.507-15.226-29.364-67.156-23.11-70.419 31.539-17.401 22.295-14.954 55.419z" fill="#84372d"/><path d="m187.598 185.314-48.034-12.223-20.521 21.994 19.071 81.901h48.124l45.609 7.575 22.091-51.689-22.091-47.558z" fill="#c1877a"/><path d="m282.486 286.593h43.739l11.998-16.948 12.779-34.258-7.613-36.977 10.332-35.345 9.425 10.06 5.62 29.092-9.607 9.516 11.057 11.057 18.307-4.713 25.285-46.856v-30.179l-11.963-11.691-44.046-17.129-54.921 23.11-14.954 30.452-33.986 19.53h-22.091v99.247l35.889-8.992z" fill="#a35d50"/><path d="m148.488 392.027-20.978-67.189 8.157-38.064-27.733-58.184 11.109-33.505 54.688 18.823 12.507 63.078-35.889 50.027 21.409 65.014z" fill="#a35d50"/><path d="m297.984 392.027.884-55.588-17.107-49.846 11.284-14.32h24.56l8.62 14.32-7.17 49.846 2.13 55.588z" fill="#84372d"/><circle cx="157.418" cy="392.027" fill="#c1877a" r="31.947"/><circle cx="309.403" cy="392.027" fill="#a35d50" r="31.947"/></g></svg>