<svg id="Capa_1" enable-background="new 0 0 512 512" height="512" viewBox="0 0 512 512" width="512" xmlns="http://www.w3.org/2000/svg"><g><circle cx="256" cy="256" fill="#fdd437" r="256"/><path d="m255.999 48.38-7.153 31.625 30.52 30.52-49.037 49.037 49.532 49.532-55.915 55.915 54.383 54.383-81.138 81.138-5.143-5.143-36.048 36.048 79.771 79.771c6.675.522 13.42.794 20.229.794 126.2 0 231.064-91.321 252.134-211.485z" fill="#faba35"/><path d="m226 94.219-20 294.161h50l15-143.252-15-150.909z" fill="#cdd2e1"/><path d="m286 94.219h-30v294.161h50z" fill="#a8adba"/><path d="m166 385.596v17h90l6.617-8.5-6.617-8.5z" fill="#d59b8d"/><path d="m256 385.596h90v17h-90z" fill="#c1877a"/><path d="m156 401.436v30h100l9.426-15-9.426-15z" fill="#c1877a"/><path d="m256 401.436h100v30h-100z" fill="#a35d50"/><path d="m256 118.745 8.83-35.183-8.83-35.182-30 45.839z" fill="#e9edf5"/><path d="m256 118.745v-70.365l30 45.839z" fill="#cdd2e1"/></g></svg>