<svg id="Capa_1" enable-background="new 0 0 512 512" height="512" viewBox="0 0 512 512" width="512" xmlns="http://www.w3.org/2000/svg"><g><circle cx="256" cy="256" fill="#d59b8d" r="256"/><path d="m206.523 212.267 23.533 23.533-129.309 129.308 55.285 55.285-7.031 7.031 83.49 83.49c7.744.706 15.582 1.086 23.509 1.086 141.385 0 256-114.615 256-256 0-11.723-.805-23.257-2.331-34.562l-156.158-156.159z" fill="#a35d50"/><path d="m256 59.149-77.894 13.021-47.3 23.17-19 26.809-29.295 11.489v78.681l14.872 30.766h-14.872v80.468l18.234 41.553 34.893 29.268 13.362 33.052 38.234 25.425h68.766l20.915-194.172z" fill="#cdd2e1"/><path d="m256 452.851 68.404-9 46.724-39.042 29.106-12.83 16.433-48.809 17.269-50.042v-120.688l-52.742-57.951-27.683-49.212-97.511-6.128z" fill="#a8adba"/><g><circle cx="185.005" cy="125.106" fill="#e9edf5" r="25"/><circle cx="236.771" cy="126.298" fill="#e9edf5" r="17.5"/><g fill="#cdd2e1"><circle cx="275.559" cy="136.872" r="15"/><circle cx="331.707" cy="177.362" r="10"/><circle cx="306.707" cy="155.085" r="12.5"/></g><path d="m227.707 398.149c-4.869-1.971-16.668-7.643-24.34-20.255-4.16-6.839-5.95-13.817-4.596-73.021.243-10.63.549-21.235-2.553-35.234-2.319-10.464-4.547-13.824-7.66-23.319-6.211-18.946-13.288-40.536-4.936-59.064 8.582-19.038 29.509-26.085 35.574-28.128 14.201-4.782 27.049-3.781 36.814-1.749l17.176 99.153-17.176 144.533c-7.721 1.255-17.803 1.335-28.303-2.916z" fill="#e9edf5"/><path d="m267.452 160.404c7.728 2.331 35.833 11.271 52.34 38.936 10.709 17.947 11.648 35.584 12.255 46.979.708 13.294-.96 22.923-3.234 35.574-2.832 15.753-7.404 40.115-21.957 68.596-12.678 24.811-19.959 39.059-37.06 46.581-1.585.697-6.689 2.842-13.786 3.995v-243.686c4.538.945 8.412 2.111 11.442 3.025z" fill="#cdd2e1"/></g><path d="m403.374 182.789-7.831-25.87s-39.959 31.293-38.996 31.775c.963.481 21.665 2.407 21.665 2.407l13.239 17.091z" fill="#cdd2e1"/><path d="m377.902 328.795 10.5-5.097-5.955-10.335.391-19.615 26.072 13.063-10.378 35.24-34.17 8.337z" fill="#cdd2e1"/><path d="m131.109 319.487 14.438 3.707 8.367 23.36-27.129 10.697-19.316-31.248 16.596-31.01z" fill="#e9edf5"/></g></svg>