<svg id="Capa_1" enable-background="new 0 0 512 512" height="512" viewBox="0 0 512 512" width="512" xmlns="http://www.w3.org/2000/svg"><g><circle cx="256" cy="256" fill="#96d7b8" r="256"/><path d="m331.206 111.771-67.708-67.708-13.228 13.228 11.702 11.702-11.702 11.702 11.006 11.006-120.276 120.278 118.244 118.245-28.299 28.299-29.702-29.702-6.141 6.141-70.719-70.719-8.047 8.047-51.503-5.546 75.448 75.448-53.706 53.708 108.878 108.877c19.413 4.709 39.685 7.223 60.547 7.223 141.385 0 256-114.615 256-256 0-16.205-1.523-32.053-4.402-47.422l-136.599-136.599z" fill="#55ba9e"/><path d="m159.505 348.277c-15.943 0-28.867-12.924-28.867-28.867 0-3.114.499-6.11 1.411-8.92 7.385-17.141 3.338-36.631-9.348-47.83-15.513-13.694-41.469-12.806-57.872 4.085 2.959.429 11.659 2.095 18.042 9.532 7.609 8.864 8.837 22.328 3.128 34.213-12.852 21.151-14 41.416-14 50 0 .248.001.494.003.74.21 27.304 22.558 49.26 49.863 49.26h134.135l18.702-32.085-18.702-30.128z" fill="#d59b8d"/><path d="m426 310.489c-6.496-7.993-12.992-15.986-19.489-23.978 1.635-.545 6.146-1.805 11.51-.192 6.432 1.935 9.707 6.683 10.553 8 1.482-1.982 3.613-5.369 4.766-10.042 1.624-6.578.411-12.062-.34-14.638.426-3.631.851-7.262 1.277-10.894-1.998.216-5.219.379-9.021-.34-7-1.324-11.163-4.73-21.532-12.341-3.09-2.268-8.206-5.992-14.809-10.638-11.858-.341-35.574 0-35.574 0l12.255 14.468s-6.128 14.638-9.191 21.958c4.051 4.015 8.814 9.463 13.277 16.51 5.253 8.296 8.372 16.098 10.269 22.128.912 2.81 1.412 5.806 1.412 8.92 0 15.943-12.924 28.867-28.867 28.867h-96.496v62.213h134.139c27.451 0 49.76-22.198 49.861-49.649 0-.119.001-.236.001-.351-.001-24.75-9.543-42.665-14.001-50.001z" fill="#c1877a"/><path d="m248.5 44.064v320h7.5l6.298-160-6.298-160z" fill="#c1877a"/><path d="m256 44.064h7.5v320h-7.5z" fill="#a35d50"/><g><circle cx="181.809" cy="348.277" fill="#fcc74c" r="27.5"/><circle cx="181.809" cy="348.277" fill="#fde575" r="12.5"/><path d="m256 320.777c-15.188 0-27.5 12.312-27.5 27.5s12.312 27.5 27.5 27.5l6.25-27.5z" fill="#fcc74c"/><path d="m256 335.777c-6.904 0-12.5 5.596-12.5 12.5s5.596 12.5 12.5 12.5l3.298-12.5z" fill="#fde575"/><path d="m256 320.777c15.188 0 27.5 12.312 27.5 27.5s-12.312 27.5-27.5 27.5z" fill="#f49f36"/><path d="m256 335.777c6.904 0 12.5 5.596 12.5 12.5s-5.596 12.5-12.5 12.5z" fill="#fcc74c"/><circle cx="330.191" cy="348.277" fill="#f49f36" r="27.5"/><circle cx="330.191" cy="348.277" fill="#fcc74c" r="12.5"/></g><path d="m141 71.979c-8.15 27.943-10 52.44-10 70 0 29.107 5.083 53.143 10 70h46l22.309-7.915 23.691 7.915h23l10.021-70-10.021-70h-23l-26 10.425-20-10.425z" fill="#fff"/><path d="m381 141.979c0-29.107-5.083-53.143-10-70h-46l-22.979 10.766-23.021-10.766h-23v140h23l24.553-7.915 21.447 7.915h46c8.15-27.943 10-52.44 10-70z" fill="#e9edf5"/><path d="m233 71.979h-46c-4.89 27.943-6 52.44-6 70 0 29.107 3.05 53.143 6 70h46c-.983-16.857-2-40.893-2-70 0-17.56.37-42.058 2-70z" fill="#adcfff"/><path d="m325 71.979h-46c.983 16.857 2 40.893 2 70 0 17.56-.37 42.057-2 70h46c4.89-27.943 6-52.44 6-70 0-29.107-3.05-53.143-6-70z" fill="#8bbbff"/></g></svg>