<svg id="Capa_1" enable-background="new 0 0 512 512" height="512" viewBox="0 0 512 512" width="512" xmlns="http://www.w3.org/2000/svg"><g><circle cx="256" cy="256" fill="#fb8773" r="256"/><path d="m192.198 226.591 15.032 15.032-106.485 106.484 95.615 95.615-9.128 9.128 58.944 58.944c3.261.123 6.532.206 9.823.206 141.385 0 256-114.615 256-256 0-11.724-.805-23.259-2.331-34.565l-156.157-156.158z" fill="#fa5744"/><path d="m256 59.149-77.894 13.021-47.3 23.17v26.809l-29.295 11.489-3.064 56.681-23.745 49.021 3.064 67.213 22.979 41.553 30.061 23.745 19.726 20.681 9.191 31.404 27.511 28.915h68.766l20.915-194.172z" fill="#cdd2e1"/><path d="m256 452.851 68.404-9 46.724-53.042 29.106-12.83 6.894-65.873 26.808-62.255v-77.411l-52.742-57.951-27.683-49.212-97.511-6.128z" fill="#a8adba"/><g><path d="m218.802 115.925-3.594 8.455-9.356 88.597c-31.558 8.692-54.746 37.58-54.746 71.902 0 51.495 41.745 93.24 93.24 93.24 3.934 0 7.821-.198 11.655-.579l18.931-121.54-18.932-134.319c-11.847-3.449-24.313-5.444-37.198-5.756z" fill="#fff"/><g fill="#e9edf5"><path d="m360.895 261.569c0-66.299-44.291-122.245-104.895-139.888v255.859c58.896-5.848 104.895-55.537 104.895-115.971z"/><path d="m215.208 107.383v16.997c14.199 0 27.901 2.169 40.792 6.191l3.67-7.766-3.67-9.935c-12.999-3.57-26.675-5.487-40.792-5.487z"/><path d="m207.939 279.509h-16.997c0 25.744 20.944 46.689 46.689 46.689 6.432 0 12.608-1.1 18.368-3.097l5.34-10.229-5.34-8.25c-5.484 2.918-11.735 4.579-18.368 4.579-16.372 0-29.692-13.32-29.692-29.692z"/><path d="m244.345 369.62c-46.727 0-84.742-38.015-84.742-84.741 0-36.445 29.649-66.094 66.093-66.094 11.333 0 21.814 3.709 30.303 9.969l5.34-7.541-5.339-12.295c-9.135-4.554-19.422-7.13-30.303-7.13-45.816 0-83.09 37.274-83.09 83.091 0 56.098 45.64 101.738 101.738 101.738 3.93 0 7.816-.191 11.655-.548l5.34-7.951-5.34-9.128c-3.83.413-7.717.63-11.655.63z"/></g><path d="m369.393 261.569c0-70.901-48.108-130.768-113.393-148.698v17.701c55.789 17.409 96.396 69.55 96.396 130.998 0 55.642-42.278 101.59-96.396 107.421v17.079c63.507-5.899 113.393-59.479 113.393-124.501z" fill="#cdd2e1"/><path d="m276.872 269.96c0 15.004-8.468 28.062-20.872 34.662v18.479c22.014-7.632 37.869-28.563 37.869-53.141 0-26.708-15.447-49.865-37.869-61.042v19.836c12.648 9.326 20.872 24.321 20.872 41.206z" fill="#cdd2e1"/></g><path d="m148.394 128.509-12.756 23.83 18.383 17.702s32-11.574 31.66-12.596c-.34-1.021-13.617-17.021-13.617-17.021l2.723-21.447z" fill="#e9edf5"/><g fill="#cdd2e1"><path d="m393.133 207.026-10.332-10.744 10.332-5.344-5.166-18.927 28.7 5.167-5.166 19.104 5.166 17.632-30.422 17.651z"/><path d="m313.833 412.452-6.478 13.425-24.55 3.603-5.145-28.704 34.44-12.785 27.135 22.379z"/></g></g></svg>