<svg id="Capa_1" enable-background="new 0 0 512 512" height="512" viewBox="0 0 512 512" width="512" xmlns="http://www.w3.org/2000/svg"><g><circle cx="256" cy="256" fill="#adcfff" r="256"/><path d="m432.543 177.562-13.979-.999-228.31 228.31-36.559-36.559-42.189 42.189 97.101 97.101c15.36 2.875 31.198 4.396 47.393 4.396 141.048 0 255.443-114.073 255.987-254.993z" fill="#8bbbff"/><path d="m329.545 104.369-35.439-65.243-69.268 69.268 17.706 95.791z" fill="#fde575"/><path d="m417.641 192.465 65.243 35.439-69.268 69.267-95.792-17.706z" fill="#fcc74c"/><path d="m173.031 348.978-36.306-51.79 207.722-207.721 44.048 44.048-90.965 125.655z" fill="#555a65"/><path d="m173.031 348.978 51.79 36.307 207.722-207.722-44.048-44.048z" fill="#333940"/><path d="m111.505 410.504c-3.397-9.093-8.712-27.407-5.151-51.112 4.891-32.558 23.418-54.616 30.37-62.203l44.048 44.048-14.021 42.974z" fill="#fde575"/><path d="m111.505 410.504c9.093 3.397 27.407 8.712 51.112 5.151 32.558-4.891 54.616-23.418 62.203-30.37l-44.048-44.048z" fill="#fcc74c"/><g><path d="m270.366 225.788-22.623-22.623c-.911.911-1.78 1.849-2.607 2.811-9.851 11.366-14.106 27.248-11.258 42.017.235 1.245.518 2.492.852 3.736l30.906-8.281c-1.627-6.1-.054-12.875 4.73-17.66z" fill="#fde575"/><path d="m316.034 200.558c-4.724-4.051-10.196-7.211-16.067-9.276-1.196-.419-2.417-.797-3.661-1.13l-8.281 30.906c3.002.801 5.841 2.374 8.197 4.73l14.525-8.061 8.099-14.563c-.912-.911-1.85-1.779-2.812-2.606z" fill="#fde575"/><path d="m331.857 225.703c-.334-1.244-.711-2.465-1.13-3.661-2.065-5.871-5.225-11.343-9.276-16.067-.827-.961-1.695-1.899-2.606-2.81l-22.623 22.623c2.355 2.355 3.928 5.194 4.73 8.196z" fill="#fcc74c"/><path d="m296.221 251.643c-4.785 4.784-11.56 6.358-17.659 4.729l-8.281 30.906c1.245.333 2.491.617 3.737.852 14.769 2.849 30.651-1.407 42.017-11.259.961-.826 1.899-1.695 2.81-2.606z" fill="#fcc74c"/><path d="m276.83 232.252c-3.57 3.57-3.57 9.358 0 12.928l8.688-4.239 4.24-8.688c-3.57-3.571-9.358-3.571-12.928-.001z" fill="#fde575"/><path d="m289.758 245.179c3.57-3.57 3.57-9.358 0-12.928l-12.928 12.928c3.57 3.57 9.358 3.57 12.928 0z" fill="#fcc74c"/></g></g></svg>