<svg id="Capa_1" enable-background="new 0 0 512 512" height="512" viewBox="0 0 512 512" width="512" xmlns="http://www.w3.org/2000/svg"><g><circle cx="256" cy="256" fill="#96d7b8" r="256"/><path d="m388.231 188.169-98.575-98.575-97.757 97.757-44.867-44.867-54.244 54.244 120.972 120.971-31.977 31.977 54.423 54.423-54.423 54.423 52.556 52.556c7.143.6 14.364.922 21.661.922 141.385 0 256-114.615 256-256 0-24.759-3.527-48.692-10.085-71.337l-55.089-55.089z" fill="#55ba9e"/><path d="m65.156 129.574c0 17.381 4.649 33.675 12.769 47.711l147.328 16.513v-64.224z" fill="#e9edf5"/><path d="m160.578 224.996h64.675v-47.711h-147.328c16.499 28.521 47.334 47.711 82.653 47.711z" fill="#cdd2e1"/><path d="m446.844 129.574c0 17.381-4.649 33.675-12.769 47.711l-147.328 16.513v-64.224z" fill="#cdd2e1"/><path d="m351.422 224.996h-64.675v-47.711h147.328c-16.499 28.521-47.334 47.711-82.653 47.711z" fill="#a8adba"/><path d="m202.988 347.952v79.519h53.012l8.599-39.759-8.599-39.76z" fill="#fff"/><path d="m256 347.952h53.012v79.518h-53.012z" fill="#e9edf5"/><path d="m219.335 92.874c-6.897 8.273-11.046 18.917-11.046 30.53v121.928h47.711l12.986-76.23-12.986-76.229z" fill="#fff"/><path d="m303.711 123.404c0-11.614-4.15-22.259-11.047-30.533l-36.664.002v152.46h47.711z" fill="#e9edf5"/><path d="m181.783 426.716v31.807h74.217l8.599-15.903-8.599-15.904z" fill="#e9edf5"/><path d="m256 426.716h74.217v31.807h-74.217z" fill="#cdd2e1"/><path d="m181.783 243.652v106.024h74.217l12.986-53.012-12.986-53.012z" fill="#e9edf5"/><path d="m256 243.652h74.217v106.024h-74.217z" fill="#cdd2e1"/><path d="m256 75.693c-14.738 0-27.911 6.686-36.663 17.186l36.663 57.031z" fill="#e9edf5"/><path d="m256 75.693v74.217l36.663-57.031c-8.752-10.5-21.925-17.186-36.663-17.186z" fill="#cdd2e1"/><path d="m230.029 296.642 25.971 34.628 8.599-34.628-8.599-34.628z" fill="#fff"/><path d="m256 262.014v69.256l25.971-34.628z" fill="#e9edf5"/><path d="m230.029 146.515-9.458 12.611 9.458 12.611 9.458-12.611z" fill="#e9edf5"/><path d="m281.971 146.515 9.458 12.611-9.458 12.611-9.458-12.611z" fill="#cdd2e1"/></g></svg>