<svg id="Capa_1" enable-background="new 0 0 512 512" height="512" viewBox="0 0 512 512" width="512" xmlns="http://www.w3.org/2000/svg"><g><circle cx="256" cy="256" fill="#fdd437" r="256"/><path d="m512 256c0-13.164-.997-26.095-2.913-38.724l-108.086-108.085-71.286 71.286-14.692-14.692-219.023 219.023 124.768 124.768c11.519 1.585 23.277 2.424 35.232 2.424 141.385 0 256-114.615 256-256z" fill="#faba35"/><path d="m256 384.808h-160v-250h160l20.294 125z" fill="#d59b8d"/><path d="m256 134.808h160v250h-160z" fill="#c1877a"/><path d="m256 359.191h-145v-250h145l11.552 125z" fill="#fff"/><path d="m256 109.191h145v250h-145z" fill="#e9edf5"/><g><g><g><path d="m133.499 314.774h50v15h-50z" fill="#e9edf5"/></g><g><path d="m133.499 254.774h100v15h-100z" fill="#e9edf5"/></g><g><path d="m133.499 284.774h100v15h-100z" fill="#e9edf5"/></g><g><path d="m133.499 194.774h100v15h-100z" fill="#e9edf5"/></g><g><path d="m133.499 224.774h100v15h-100z" fill="#e9edf5"/></g><g><path d="m133.499 134.808h100v15h-100z" fill="#e9edf5"/></g><g><path d="m133.499 164.809h100v15h-100z" fill="#e9edf5"/></g></g></g><g><g fill="#cdd2e0"><path d="m328.5 314.774h50v15h-50z"/><path d="m278.5 254.774h100v15h-100z"/><path d="m278.5 284.774h100v15h-100z"/><path d="m278.499 134.808h100v104.966h-100z"/></g><path d="m363.645 165.363c-.766.039-2.493.233-4.229 1.417-1.397.953-2.166 2.115-2.533 2.769-5.628 1.536-8.567 4.27-9.961 5.86-2.047 2.337-3.957 4.517-4.894 7.921-.497 1.804-.732 3.991-2.383 4.83-.112.057-1.236.607-2.318.129-1.308-.578-1.583-2.23-1.643-2.593-.281-1.691.494-3.035.999-4.105.982-2.083 1.234-3.922 1.739-7.599.661-4.823-.602-8.789-1.288-10.948-1.147-3.61-2.789-6.32-4.036-8.071-.033-1.348-.2-2.981-.668-4.784-.944-3.639-2.675-6.285-3.931-7.881-1.256 1.596-2.988 4.242-3.931 7.881-.467 1.803-.635 3.436-.668 4.784-1.247 1.751-2.889 4.462-4.036 8.071-.686 2.159-1.949 6.125-1.288 10.948.504 3.678.757 5.517 1.739 7.599.504 1.07 1.28 2.414.999 4.105-.06.363-.335 2.015-1.643 2.593-1.082.478-2.206-.072-2.318-.129-1.651-.839-1.886-3.026-2.383-4.83-.938-3.404-2.847-5.584-4.894-7.921-1.393-1.591-4.332-4.324-9.961-5.86-.367-.654-1.136-1.816-2.533-2.769-1.736-1.184-3.463-1.378-4.229-1.417-.126 1.019-.193 2.394.021 3.993.218 1.624.655 2.949 1.052 3.907-.365 2.092-.68 5.331.021 9.145.227 1.234.991 4.874 4.293 10.304 4.146 6.817 5.805 5.789 8.758 10.905 2.481 4.298 1.277 4.966 5.324 16.315 2.302 6.454 3.355 8.1 4.98 9.445 3.604 2.984 8.245 3.021 10.696 2.834 2.451.187 7.091.15 10.696-2.834 1.625-1.345 2.679-2.991 4.98-9.445 4.047-11.349 2.843-12.017 5.324-16.315 2.953-5.116 4.612-4.088 8.758-10.905 3.302-5.43 4.066-9.07 4.293-10.304.701-3.814.387-7.053.021-9.145.397-.958.834-2.283 1.052-3.907.216-1.599.149-2.973.023-3.993z" fill="#e9edf5"/></g></g></svg>