<svg id="Capa_1" enable-background="new 0 0 512 512" height="512" viewBox="0 0 512 512" width="512" xmlns="http://www.w3.org/2000/svg"><g><circle cx="256" cy="256" fill="#d59b8d" r="256"/><path d="m416.574 165.638-31.294-31.294-33.384 33.384 2.536 2.536-200.814 200.815 48.737 48.738-14.307 14.307 1.472 15.638 62.185 62.185c1.43.024 2.859.054 4.295.054 141.385 0 256-114.615 256-256 0-1.436-.031-2.865-.054-4.295l-83.397-83.397z" fill="#a35d50"/><path d="m370.351 131.042-11.314 11.314 5.304 5.303 8.308-3.005 3.005-8.308z" fill="#e9edf5"/><path d="m364.649 140.904h16v7.5h-16z" fill="#cdd2e1" transform="matrix(.707 -.707 .707 .707 6.86 305.871)"/><path d="m343.695 83.452-10.606 10.606 42.426 42.427h10.607v-10.607z" fill="#fff"/><path d="m394.532 122.395h15v60h-15z" fill="#e9edf5" transform="matrix(.707 -.707 .707 .707 9.993 328.915)"/><path d="m197.762 73.821-49.497 49.498 120.208 120.208 31.82-17.678 17.677-31.82z" fill="#e9edf5"/><path d="m318.326 193.882h70v170h-70z" fill="#cdd2e1" transform="matrix(.707 -.707 .707 .707 -93.713 331.522)"/><path d="m351.65 134.401c-5.4-5.4-13.246-7.556-20.647-5.673-3.774.96-7.219 2.92-9.972 5.673l-87.237 87.237c-20.698 20.698-39.518 43.226-56.335 67.432l-39.109 56.295 14.142 14.142 129.024-114.882 83.108-97.25z" fill="#fff"/><path d="m222.93 334.541c24.206-16.816 46.734-35.637 67.432-56.335l87.237-87.237c2.753-2.753 4.713-6.198 5.673-9.972 1.883-7.401-.273-15.247-5.673-20.647l-12.975-12.975-212.132 212.133 14.142 14.142z" fill="#e9edf5"/><path d="m150.436 327.968-66.127-27.557-22.07 22.071 63.639 63.64 30.412-10.944 10.944-30.412z" fill="#e9edf5"/><path d="m211.589 427.691-27.557-66.127-16.798-16.798-41.356 41.356 63.64 63.639z" fill="#cdd2e1"/><path d="m307.364 176.352-56.569 56.569c-7.81 7.81-7.81 20.474 0 28.284l49.497-35.355 35.355-49.497c-7.809-7.812-20.473-7.812-28.283-.001z" fill="#e9edf5"/><path d="m279.08 261.205 56.569-56.569c7.81-7.81 7.81-20.474 0-28.284l-84.853 84.853c7.81 7.81 20.473 7.81 28.284 0z" fill="#cdd2e1"/></g></svg>