<svg id="Capa_1" enable-background="new 0 0 512 512" height="512" viewBox="0 0 512 512" width="512" xmlns="http://www.w3.org/2000/svg"><g><circle cx="256" cy="256" fill="#adcfff" r="256"/><path d="m428.792 161.84-44.829 44.829-28.582-28.582-103.452 103.453-169.571-169.571 4.54 55.261 51.197 51.197-36.098 36.098 54.015 54.015-32.779 32.779 34.539 34.539-42.439 42.439 88.345 88.345c16.892 3.508 34.39 5.36 52.322 5.36 141.385 0 256-114.615 256-256 0-24.978-3.593-49.113-10.263-71.936l-72.095-72.095z" fill="#8bbbff"/><path d="m82.361 111.969c-4.516 12.319-9.851 31.437-9.653 55.024.149 17.784.488 58.316 29.282 87.523 38.974 39.534 99.349 27.15 104.256 26.064v-73.365c-13.091.01-34.043-1.868-56.311-12.871-48.502-23.966-64.409-72.034-67.574-82.375z" fill="#fff"/><path d="m429.639 111.969c4.516 12.319 9.851 31.437 9.653 55.024-.149 17.784-.488 58.316-29.282 87.523-38.974 39.534-99.349 27.15-104.256 26.064v-73.365c13.091.01 34.043-1.868 56.311-12.871 48.502-23.966 64.409-72.034 67.574-82.375z" fill="#e9edf5"/><path d="m233.493 138.767c-66.99 10.773-118.161 68.839-118.161 138.867v5.627l140.668 8.009 11.253-84.141-11.253-68.362z" fill="#c1877a"/><path d="m396.667 277.634c0-70.028-51.171-128.094-118.161-138.867h-22.506v152.503l140.667-8.01z" fill="#a35d50"/><path d="m115.333 418.301v-90.027l45.014-22.507v67.52c-.001 24.861-20.154 45.014-45.014 45.014z" fill="#fde575"/><path d="m396.667 418.301v-90.027l-45.014-22.507v67.52c.001 24.861 20.154 45.014 45.014 45.014z" fill="#fcc74c"/><path d="m256 136.967c-7.662 0-15.178.622-22.507 1.801v215.539l22.507 18.733 11.253-136.418z" fill="#fde575"/><path d="m278.507 138.767c-7.329-1.179-14.845-1.801-22.507-1.801v236.074l22.507-18.733z" fill="#fcc74c"/><path d="m115.333 283.261v45.013h140.667l11.253-22.507-11.253-22.506z" fill="#555a65"/><path d="m256 283.261h140.667v45.014h-140.667z" fill="#333940"/><g fill="#fde575"><circle cx="206" cy="305.767" r="12.5"/><circle cx="156" cy="305.767" r="12.5"/><path d="m256 293.267c-6.904 0-12.5 5.596-12.5 12.5s5.596 12.5 12.5 12.5l3.298-12.5z"/></g><path d="m256 293.267c6.904 0 12.5 5.596 12.5 12.5s-5.596 12.5-12.5 12.5z" fill="#fcc74c"/><circle cx="306" cy="305.767" fill="#fcc74c" r="12.5"/><circle cx="356" cy="305.767" fill="#fcc74c" r="12.5"/></g></svg>