<svg id="Capa_1" enable-background="new 0 0 512 512" height="512" viewBox="0 0 512 512" width="512" xmlns="http://www.w3.org/2000/svg"><g><circle cx="256" cy="256" fill="#96d7b8" r="256"/><path d="m312.326 505.769c87.827-19.721 158.579-84.57 186.634-168.927l-244.504-244.504-101.463 101.464 106.789 106.788-76.317 76.317z" fill="#55ba9e"/><path d="m105.396 155.32c-4.557 85.9 23.863 164.946 74.53 217.965l22.521-123.902-22.521-100.063z" fill="#fff"/><path d="m151.651 206.109-16.677-8.495-11.996 12.976s8.464 21.99 9.167 21.74c.702-.25 11.592-9.667 11.592-9.667l14.886 1.583z" fill="#e9edf5"/><path d="m246.872 421.468c65.21 30.022 128.811 18.658 156.228 11.882-21.896-11.547-47.399-28.595-71.236-53.866-79.12-83.881-78.611-193.396-77.409-224.163l-74.53-6v223.965c19.29 20.184 41.798 36.604 66.947 48.182z" fill="#e9edf5"/><path d="m274.439 362.069 13.738 2.266 9.957 21.082-24.153 12.201 1.65-15.469-22.502-12.062 12.474-30.265z" fill="#cdd2e1"/><path d="m105.396 92.338v62.982h74.53l15.033-31.491-15.033-31.491z" fill="#fde575"/><path d="m254.456 92.338h-74.53v62.982h74.53v-17.256l-17.286-14.235h12.256l5.03-8.574z" fill="#fcc74c"/></g></svg>