<svg id="Capa_1" enable-background="new 0 0 512 512" height="512" viewBox="0 0 512 512" width="512" xmlns="http://www.w3.org/2000/svg"><g><circle cx="256" cy="256" fill="#d59b8d" r="256"/><path d="m269.431 187.298-14.263-14.263-195.168 195.167 136.938 136.938c18.961 4.478 38.733 6.86 59.062 6.86 141.385 0 256-114.615 256-256 0-9.366-.517-18.61-1.498-27.716l-141.029-141.029z" fill="#a35d50"/><path d="m142.526 87.255v59.023h113.474l4.51-29.511-4.51-29.512z" fill="#fff"/><path d="m256 87.255h113.474v59.023h-113.474z" fill="#e9edf5"/><path d="m121.895 142.737v59.022h134.105l5.33-29.511-5.33-25.97-21.76-3.541z" fill="#e9edf5"/><path d="m390.105 142.737h-112.345l-21.76 3.541v55.481h134.105z" fill="#cdd2e1"/><path d="m101.263 198.218v59.023h154.737l6.15-29.512-6.15-29.511z" fill="#fff"/><path d="m256 198.218h154.737v59.023h-154.737z" fill="#e9edf5"/><path d="m80.632 253.699v59.023h175.368l6.97-29.512-6.97-29.511z" fill="#e9edf5"/><path d="m256 253.699h175.368v59.023h-175.368z" fill="#cdd2e1"/><path d="m60 309.18v59.023h149.861l46.139-8.699 7.79-20.813-7.79-29.511z" fill="#fff"/><path d="m452 309.18h-196v50.324l46.139 8.699h149.861z" fill="#e9edf5"/><path d="m234.24 142.737-24.379 225.466h46.139l10.255-112.733-10.255-112.733z" fill="#555a65"/><path d="m277.76 142.737h-21.76v225.466h46.139z" fill="#333940"/></g></svg>