<svg id="Capa_1" enable-background="new 0 0 512 512" height="512" viewBox="0 0 512 512" width="512" xmlns="http://www.w3.org/2000/svg"><g><circle cx="256" cy="256" fill="#fb8773" r="256"/><path d="m383.298 163.701-37.701-37.701-112.299 112.298-127.298-127.298-25.569 25.569 24.569 24.569-24.569 24.569v142.59l34.135 34.135-38.566 38.566 97.365 97.365c25.925 8.837 53.719 13.637 82.635 13.637 141.385 0 256-114.615 256-256 0-28.917-4.8-56.711-13.637-82.637l-62.364-62.363z" fill="#fa5744"/><path d="m96 126v260h36.83l.681-20.191 16.68 7.148 8.171-11.234 15.319 24.277h82.319l32.69-130-32.69-130z" fill="#fff"/><path d="m256 126v260h95.594l18.512-13.043 18.513 13.043h27.381v-260h-31.851l-7.404 12.064 8.425 12.255-29.361-5.461-10.213-18.858z" fill="#e9edf5"/><path d="m76 111h30v290h-30z" fill="#e9edf5"/><path d="m406 111h30v290h-30z" fill="#cdd2e1"/><path d="m370.106 324.167-7.414 14.828-12.974-21.624-20.388 33.98h20.388 6.796 13.592 13.593z" fill="#333940"/><g fill="#555a65"><path d="m170.728 159-14.142-14.142-7.071 7.071-7.071-7.071-14.143 14.142 7.072 7.071-7.072 7.071 14.143 14.142 7.071-7.071 7.071 7.071 14.142-14.142-7.071-7.071z"/><path d="m157.015 326.861v-102.148h98.985l5.596-6.734-5.596-8.266h-113.985v132.148h113.985l5.596-7.5-5.596-7.5z"/><path d="m189.341 158.571v15h66.659l5.596-7.5-5.596-7.5z"/></g><path d="m256 326.861h51.298v15h-51.298z" fill="#333940"/><path d="m364.014 224.713v-66.142h-108.014v15h93.014v36.142h-93.014v15z" fill="#333940"/><path d="m255.995 275.643c-11.249 0-17.364 3.262-22.277 5.883-4.313 2.3-7.721 4.117-15.22 4.117s-10.906-1.817-15.22-4.117c-4.913-2.621-11.028-5.883-22.278-5.883v15c7.499 0 10.906 1.817 15.22 4.117 4.913 2.621 11.028 5.883 22.278 5.883s17.365-3.262 22.278-5.883c4.313-2.3 7.72-4.117 15.219-4.117h.005l5.596-7.047-5.596-7.953c-.002 0-.003 0-.005 0z" fill="#555a65"/><path d="m293.498 300.643c11.25 0 17.366-3.262 22.28-5.882 4.313-2.301 7.721-4.118 15.222-4.118v-15c-11.25 0-17.366 3.262-22.28 5.882-4.313 2.301-7.721 4.118-15.222 4.118s-10.909-1.817-15.223-4.118c-4.913-2.62-11.029-5.881-22.275-5.882v15c7.497.001 10.904 1.818 15.217 4.117 4.914 2.621 11.03 5.883 22.281 5.883z" fill="#333940"/><path d="m255.995 246.415c-11.249 0-17.364 3.262-22.277 5.883-4.313 2.3-7.721 4.117-15.22 4.117s-10.906-1.817-15.22-4.117c-4.913-2.621-11.028-5.883-22.278-5.883v15c7.499 0 10.906 1.817 15.22 4.117 4.913 2.621 11.028 5.883 22.278 5.883s17.365-3.262 22.278-5.883c4.313-2.3 7.72-4.117 15.219-4.117h.005l5.596-7.181-5.596-7.819c-.002 0-.003 0-.005 0z" fill="#555a65"/><path d="m293.498 271.415c11.25 0 17.366-3.262 22.28-5.882 4.313-2.301 7.721-4.118 15.222-4.118v-15c-11.25 0-17.366 3.262-22.28 5.882-4.313 2.301-7.721 4.118-15.222 4.118s-10.909-1.817-15.223-4.118c-4.913-2.62-11.029-5.881-22.275-5.882v15c7.497.001 10.904 1.818 15.217 4.117 4.914 2.621 11.03 5.883 22.281 5.883z" fill="#333940"/></g></svg>