<svg id="Capa_1" enable-background="new 0 0 512 512" height="512" viewBox="0 0 512 512" width="512" xmlns="http://www.w3.org/2000/svg"><g><path d="m512 256c0 85.259-41.68 160.762-105.775 207.289h-300.45c-64.095-46.527-105.775-122.03-105.775-207.289 0-141.385 114.615-256 256-256s256 114.615 256 256z" fill="#fdd437"/><path d="m511.86 264.448-148.977-148.977-31.809 6.161-57.6-57.6-63.212 63.212 21.928 21.928-37.276 37.276 61.055 61.055-38.808 38.808 176.979 176.978h12.086c61.969-44.984 102.982-117.055 105.634-198.841z" fill="#faba35"/><path d="m256 260.31h-45v49.511h-23.468l-15.238 11.297-14.762-11.297h-3.632c-4.961 0-9.751.934-14.254 2.664-19.62 7.538-33.872 30.23-33.872 57.055v93.749c15.963 11.589 33.311 21.382 51.757 29.075l98.469 19.636 20.234-121.471z" fill="#fcbeac"/><path d="m256 260.31h45v49.511h57.1c4.961 0 9.751.934 14.254 2.664 19.62 7.538 33.872 30.23 33.872 57.055v93.749c-15.963 11.589-33.311 21.382-51.757 29.075l-98.469 19.636z" fill="#f7a690"/><path d="m157.532 492.364c30.319 12.654 63.562 19.636 98.468 19.636l14.362-60-14.362-61.471-68.468-80.709h-30z" fill="#c1877a"/><path d="m354.468 492.364c-30.319 12.654-63.562 19.636-98.468 19.636v-121.471h98.468z" fill="#a35d50"/><path d="m256 105.364h-38.231c-19.952 0-36.125 19.208-36.125 42.902v19.583c-2.692-2.449-5.674-3.651-8.58-3.138-7.377 1.301-11.459 13.119-9.117 26.397 2.341 13.278 9.987 22.988 17.364 21.687l74.689 77.171 12.765-92.301z" fill="#fdcdbf"/><path d="m338.936 164.711c-2.906-.512-5.887.689-8.58 3.138v-19.583c0-23.694-16.174-42.902-36.125-42.902h-38.231v184.602l74.689-77.171c7.377 1.301 15.023-8.409 17.364-21.687 2.342-13.278-1.741-25.097-9.117-26.397z" fill="#fcbeac"/><path d="m256 260.205h-20.444l-5.83-6.911 5.83-9.571h20.444l4.059-7.901-4.059-7.701h-29.363l-11.418 12.635c-13.086-10.71-20.675-26.727-20.675-43.637 0 0 .141-11.404.434-23.601 4.729-8.143 8.516-17.528 8.523-24.22 7.363 4.131 25.792 7.804 31.734 8.644-3.824-1.283-7.071-10.469-4.334-14.277.203-.033.267-.043.471-.076 5.589 7.372 14.762 13.445 24.628 18.004l9-44.71-9-40.815c-25.455 15.521-37.66 1.757-60.06 20.509-10.104 9.431-13.688 21.697-15.126 29.488-11.008 16.348-9.517 46.785-.543 61.667.673 16.858 1.373 32.764 1.373 32.764 0 6.548 2.148 12.915 6.114 18.125l30.103 39.546c5.659 7.435 14.467 11.799 23.81 11.799h14.329l7.005-15.145z" fill="#555a65"/><path d="m362.882 115.471c-51.488-5.528-39.939-32.021-89.936-31.378 6.02-4.803 4.987-17.018-.416-20.856-6.128 5.692-11.578 9.812-16.529 12.832v85.526c15.241 7.043 32.138 10.465 40.059 9.407-7.006-4.909-17.718-17.23-21.939-26.529 5.741 1.224 18.526 3.424 34.035 1.209-.475 7.492 3.598 18.514 8.866 27.804.294 12.21.435 23.634.435 23.634 0 16.91-7.589 32.927-20.675 43.637l-11.418-12.635h-29.364v15.603h20.444l5.83 9.571-5.83 6.911h-20.444v29.761h14.33c9.344 0 18.151-4.365 23.81-11.799l30.103-39.546c3.966-5.21 6.114-11.577 6.114-18.125 0 0 .695-15.793 1.366-32.584 5.746-9.493 11.013-36.879 4.237-51.029 12.786-6.577 21.52-15.089 26.922-21.414z" fill="#333940"/></g></svg>