<svg id="Layer_1" viewBox="0 0 128 128" xmlns="http://www.w3.org/2000/svg" data-name="Layer 1"><circle cx="64" cy="64" fill="#f85565" r="58"/><path d="m53 107a71.65 71.65 0 0 1 -36.75-10.09 58 58 0 0 0 105.31-39.91 72 72 0 0 1 -68.56 50z" fill="#393c54" opacity=".2"/><path d="m90.3 76.14c1.91.5 3.51-1.74 3.28-3.7-1.81-14.9-14.36-23.44-29.58-23.44s-27.77 8.54-29.58 23.44c-.24 2 1.37 4.23 3.28 3.7 10.22-2.88 41.71-2.83 52.6 0z" fill="#393c54"/><path d="m83 74.92v-6.78a4 4 0 0 0 -4-4h-30a4 4 0 0 0 -4 4v6.74a201.51 201.51 0 0 1 38 .04z" fill="#fff"/><path d="m83 57.14v-2.6a33 33 0 0 0 -19-5.54 33 33 0 0 0 -19 5.54v2.6a4 4 0 0 0 4 4h30a4 4 0 0 0 4-4z" fill="#fff"/><path d="m45 71.88v3a201.51 201.51 0 0 1 38 0v-3a201.51 201.51 0 0 0 -38 0z" fill="#515570" opacity=".1"/><path d="m64 53a33.09 33.09 0 0 1 18.78 5.38 4 4 0 0 0 .22-1.24v-2.6a33 33 0 0 0 -19-5.54 33 33 0 0 0 -19 5.54v2.6a4 4 0 0 0 .22 1.25 33.09 33.09 0 0 1 18.78-5.39z" fill="#515570" opacity=".1"/><g fill="none" stroke="#393c54" stroke-linecap="round" stroke-linejoin="round" stroke-width="4"><path d="m32 36s9-2 14 4c-5-1-12 2-15 6"/><path d="m96 36s-9-2-14 4c5-1 12 2 15 6"/><path d="m57 80h14" opacity=".2"/></g></svg>