<svg id="Layer_1" viewBox="0 0 128 128" xmlns="http://www.w3.org/2000/svg" data-name="Layer 1"><path d="m122 64a58 58 0 1 0 -80.7 53.39 10 10 0 0 0 9.7 7.61h26a10 10 0 0 0 9.7-7.61 58 58 0 0 0 35.3-53.39z" fill="#f8dc25"/><circle cx="39" cy="63" fill="#fff" r="9"/><circle cx="39" cy="63" fill="#515570" r="4.85"/><circle cx="89" cy="61" fill="#fff" r="13"/><path d="m87.51 78a17 17 0 0 1 -12-5" style="fill:none;stroke-linecap:round;stroke-width:4;stroke:#f2bc0f;stroke-linejoin:round;opacity:.5"/><path d="m40.49 78a17 17 0 0 0 12-5" style="fill:none;stroke-linecap:round;stroke-width:4;stroke:#f2bc0f;stroke-linejoin:round;opacity:.5"/><circle cx="89" cy="61" fill="#515570" r="7"/><path d="m121.89 60.57c0-.41-.06-.82-.09-1.23-.07-.78-.14-1.56-.23-2.34a72 72 0 0 1 -68.57 50 71.65 71.65 0 0 1 -36.75-10.09l.09.13a58.21 58.21 0 0 0 25 20.34 10 10 0 0 0 9.66 7.62h26a10 10 0 0 0 9.7-7.61 58 58 0 0 0 35.25-51v-.27c0-.69 0-1.39 0-2.09s0-1.64-.06-2.45c.03-.36.02-.68 0-1.01z" fill="#f2bc0f" opacity=".7"/><path d="m64 78a17 17 0 0 1 17 17v20a4 4 0 0 1 -4 4h-26a4 4 0 0 1 -4-4v-20a17 17 0 0 1 17-17z" fill="#393c54"/><path d="m52 116v-5.12a12.21 12.21 0 0 1 10.93-12.29 12 12 0 0 1 13.07 11.93v5.48z" fill="#f85565" opacity=".2"/><path d="m64 108.21a15.82 15.82 0 0 0 -14.83 10.33 4 4 0 0 0 1.83.46h26a4 4 0 0 0 1.83-.46 15.82 15.82 0 0 0 -14.83-10.33z" fill="#f85565"/><g fill="none" stroke="#393c54" stroke-linecap="round" stroke-miterlimit="10" stroke-width="4"><path d="m81 36 20 7" opacity=".3"/><path d="m27 49 18-4" opacity=".3"/></g></svg>