<svg id="Layer_1" viewBox="0 0 128 128" xmlns="http://www.w3.org/2000/svg" data-name="Layer 1"><circle cx="64" cy="64" fill="#f8dc25" r="58"/><path d="m53 107a71.65 71.65 0 0 1 -36.75-10.09 58 58 0 0 0 105.31-39.91 72 72 0 0 1 -68.56 50z" fill="#f2bc0f" opacity=".7"/><path d="m90.3 77a3.3 3.3 0 0 1 3.28 3.7 29.76 29.76 0 0 1 -59.15 0 3.3 3.3 0 0 1 3.27-3.7z" fill="#393c54"/><path d="m50 81h28a0 0 0 0 1 0 0v30a14 14 0 0 1 -14 14 14 14 0 0 1 -14-14v-30a0 0 0 0 1 0 0z" fill="#f85565"/><path d="m45 77h38a0 0 0 0 1 0 0v5a4 4 0 0 1 -4 4h-30a4 4 0 0 1 -4-4v-5a0 0 0 0 1 0 0z" fill="#fff"/><circle cx="39" cy="58" fill="#fff" r="13"/><circle cx="39" cy="58" fill="#515570" r="7"/><circle cx="89" cy="58" fill="#fff" r="13"/><circle cx="89" cy="58" fill="#515570" r="7"/><path d="m64 84v32" style="fill:none;stroke-linecap:round;stroke-linejoin:round;stroke-width:4;stroke:#fff;opacity:.1"/><path d="m43 77h42v4h-42z" fill="#515570" opacity=".1"/><path d="m43 86h42v4h-42z" fill="#515570" opacity=".2"/><g fill="none" stroke="#f2bc0f" stroke-linecap="round" stroke-linejoin="round" stroke-width="4"><path d="m38 38c-5-1-12 2-15 6" opacity=".5"/><path d="m90 37c5-1 12 2 15 6" opacity=".5"/></g></svg>