<svg id="Layer_1" viewBox="0 0 128 128" xmlns="http://www.w3.org/2000/svg" data-name="Layer 1"><circle cx="64" cy="64" fill="#00adfe" r="58"/><path d="m53 107a71.65 71.65 0 0 1 -36.75-10.09 58 58 0 0 0 105.31-39.91 72 72 0 0 1 -68.56 50z" fill="#356cb6" opacity=".4"/><path d="m48.89 103a1.9 1.9 0 0 1 -1.89-2.16 17.12 17.12 0 0 1 34 0 1.9 1.9 0 0 1 -1.89 2.16z" fill="#393c54"/><g fill="none" stroke-linecap="round" stroke-width="4"><path d="m29.65 78.19 10.37-10.38" stroke="#393c54" stroke-miterlimit="10"/><path d="m29.65 67.81 10.37 10.38" stroke="#393c54" stroke-miterlimit="10"/><path d="m87.98 78.19 10.37-10.38" stroke="#393c54" stroke-miterlimit="10"/><path d="m87.98 67.81 10.37 10.38" stroke="#393c54" stroke-miterlimit="10"/><path d="m24 58h25" opacity=".4" stroke="#356cb6" stroke-linejoin="round"/><path d="m79 58h25" opacity=".4" stroke="#356cb6" stroke-linejoin="round"/></g><path d="m64 122a12 12 0 0 1 -12-12v-6.87a2.75 2.75 0 0 1 2.15-2.67 43.76 43.76 0 0 1 19.71 0 2.75 2.75 0 0 1 2.14 2.67v6.87a12 12 0 0 1 -12 12z" fill="#f85565"/></svg>