<svg id="Layer_1" viewBox="0 0 128 128" xmlns="http://www.w3.org/2000/svg" data-name="Layer 1"><circle cx="64" cy="64" fill="#f8dc25" r="58"/><path d="m53 107a71.65 71.65 0 0 1 -36.75-10.09 58 58 0 0 0 105.31-39.91 72 72 0 0 1 -68.56 50z" fill="#f2bc0f" opacity=".7"/><circle cx="88" cy="35" fill="#fff" r="13"/><path d="m99.88 29.73a13 13 0 0 0 -6.61-6.61 5.53 5.53 0 1 0 6.61 6.61z" fill="#515570"/><circle cx="39.5" cy="44.5" fill="#fff" r="13" transform="matrix(.83 -.557 .557 .83 -18.1 29.58)"/><path d="m27.82 38.83a13 13 0 0 0 -1 8.67 5.08 5.08 0 1 0 1-8.67z" fill="#515570"/><path d="m53 32.5s-6.5-16-26.5-13" fill="none" stroke="#393c54" stroke-linecap="round" stroke-miterlimit="10" stroke-width="4"/><path d="m86.5 8s-11.5 4-17.5 20.5c-.5-7.5 2.5-17 2.5-17" fill="none" stroke="#393c54" stroke-linecap="round" stroke-linejoin="round" stroke-width="4"/><path d="m101.82 69.38c6.14 6.8 6.22 16.76-2.57 19.38-6.15 1.84-14.47 2.32-23.37 3.9-19.53 3.48-34.27 12.76-38.12-5.83a1 1 0 0 1 .71-1.15c14-3.61 10.65-30.51 30.1-34 15.61-2.76 26.94 10.72 33.25 17.7z" fill="#393c54"/><path d="m90 85.3v-.19c-.05-5.14-3.29-9.79-7.41-10.63a24.69 24.69 0 0 0 -9.46.16 24.58 24.58 0 0 0 -8.9 3.36c-3.54 2.34-4.8 7.94-2.88 12.74v.06c.81 1.98 2.65 2.2 4.71 2.2a66.52 66.52 0 0 0 20.75-4c1.92-.69 3.19-1.58 3.19-3.7z" fill="#f85565"/><g fill="#fff"><path d="m70.9 75.16c.49.17 3.43 1.37 4.84 5.62a1.74 1.74 0 0 0 1.84 1.35l.25-.08a2 2 0 0 0 .84-2.5 14.49 14.49 0 0 0 -3-5.28q-1.25.14-2.53.38c-.77.14-1.51.35-2.24.51z" opacity=".2"/><path d="m51.08 98c6.59-.46 15.11-3.47 24.81-5.2 8.42-1.5 16.31-2.17 22.34-3.8l-.65-3.63a4 4 0 0 0 -4.64-3.24l-39.38 7a4 4 0 0 0 -3.24 4.64z"/><path d="m68.58 51.7c-6.58.3-10.83 5.3-13.77 10.3l.1.57a3 3 0 0 0 3.48 2.43l9-1.61a3 3 0 0 0 2.45-3.29l-.84-8.45a3.21 3.21 0 0 1 -.42.05z"/><path d="m69.47 51.57 2 8.2a3 3 0 0 0 3.47 2.23l10-1.79a3 3 0 0 0 2.43-3.48l-.14-.81c-5.04-3.21-11.23-5.92-17.76-4.35z"/><path d="m69.47 51.57 2 8.2a3 3 0 0 0 3.47 2.23l10-1.79a3 3 0 0 0 2.43-3.48l-.14-.81c-5.04-3.21-11.23-5.92-17.76-4.35z"/></g><path d="m69.41 55.74-.41-4.09a3.21 3.21 0 0 1 -.37.05c-6.63.3-10.88 5.3-13.82 10.3l.1.57a3 3 0 0 0 1.68 2.18c2.84-4.38 6.69-7.86 12.82-9.01z" fill="#515570" opacity=".2"/><path d="m86.83 59.07a3 3 0 0 0 .57-2.33l-.14-.81c-5.07-3.22-11.26-5.93-17.79-4.36l1 4a25.26 25.26 0 0 1 16.36 3.5z" fill="#515570" opacity=".2"/><path d="m50.55 95 .53 3c6.59-.46 15.11-3.47 24.81-5.2 8.42-1.5 16.31-2.17 22.34-3.8l-.51-2.87c-6 1.51-13.64 2-21.84 3.5-9.96 1.81-18.67 5.08-25.33 5.37z" fill="#515570" opacity=".2"/></svg>