<svg id="Layer_1" viewBox="0 0 128 128" xmlns="http://www.w3.org/2000/svg" data-name="Layer 1"><path d="m122.68 71a9.08 9.08 0 0 0 -1-1 58.65 58.65 0 0 0 .31-6 58 58 0 1 0 -58 58h12.01a49.77 49.77 0 0 0 48.93-43.71 9.29 9.29 0 0 0 -2.25-7.29z" fill="#f8dc25"/><path d="m121.69 70a57.37 57.37 0 0 0 -.12-13 72 72 0 0 1 -68.57 50 71.65 71.65 0 0 1 -36.75-10.09c.4.59.81 1.17 1.24 1.74l.05.07a57.91 57.91 0 0 0 46.46 23.28h12a49.77 49.77 0 0 0 48.93-43.71 9.29 9.29 0 0 0 -2.25-7.29 9.08 9.08 0 0 0 -.99-1z" fill="#f2bc0f" opacity=".7"/><path d="m115.85 72a5 5 0 0 1 5.07 5.7 45.41 45.41 0 0 1 -90.26-.09 5 5 0 0 1 5-5.61z" fill="#393c54"/><path d="m89.71 107.45v-.18a10.11 10.11 0 0 0 -6.69-11.83 38.86 38.86 0 0 0 -11.81-1.62 38.68 38.68 0 0 0 -11.89 1.65 10.1 10.1 0 0 0 -6.62 12v.07a5.76 5.76 0 0 0 5.08 4 106.64 106.64 0 0 0 26.78 0 5.73 5.73 0 0 0 5.15-4.09z" fill="#f85565"/><path d="m30.66 77.61c.14 1.15.33 2.27.55 3.39h60.79a9 9 0 0 0 9-9h-65.36a5 5 0 0 0 -4.98 5.61z" fill="#ff8475"/><path d="m53.35 112a45 45 0 0 0 39.45 2.65 1.38 1.38 0 0 0 -.53-2.65z" fill="#ff8475"/><path d="m88 104h-37a2 2 0 0 0 -2 2v3.15a45.29 45.29 0 0 0 8.25 4.85h32.75a2 2 0 0 0 2-2v-4a4 4 0 0 0 -4-4z" fill="#fff"/><path d="m77.64 47.43a10.5 10.5 0 0 0 16 11.24" style="fill:none;stroke:#f2bc0f;stroke-linecap:round;stroke-linejoin:round;stroke-width:4;opacity:.4"/><path d="m50.34 47.35a10.5 10.5 0 0 1 -16 11.32" style="fill:none;stroke:#f2bc0f;stroke-linecap:round;stroke-linejoin:round;stroke-width:4;opacity:.4"/><path d="m91 76h-59a2 2 0 0 0 -1.36.54 5 5 0 0 0 0 1.07 46.17 46.17 0 0 0 1.83 8.39h56.53a4 4 0 0 0 4-4v-4a2 2 0 0 0 -2-2z" fill="#fff"/><g fill="#515570" opacity=".3"><path d="m35.66 77.61a5 5 0 0 1 5-5.61h-5a5 5 0 0 0 -5 5.61 45.66 45.66 0 0 0 45.13 40.39c.84 0 1.67 0 2.5-.08a45.7 45.7 0 0 1 -42.63-40.31z"/><path d=""/></g><path d="m68.35 93.9a8.63 8.63 0 0 1 4.65 6.43 2 2 0 0 0 2 1.67h.33a2 2 0 0 0 1.67-2.33 12.63 12.63 0 0 0 -2.49-5.76q-1.59-.1-3.24-.1c-1.01 0-1.98.03-2.92.09z" fill="#fff" opacity=".2"/><circle cx="43" cy="49" fill="#fff" r="7"/><circle cx="43" cy="49" fill="#515570" r="3.77"/><circle cx="85" cy="49" fill="#fff" r="7"/><circle cx="85" cy="49" fill="#515570" r="3.77"/><g fill="none" stroke="#f2bc0f" stroke-linecap="round" stroke-linejoin="round" stroke-width="4"><path d="m26 77s-2-9 8-9c21 0 25-10 25-10" opacity=".4"/><path d="m71 58s3 10 24 10h21.67" opacity=".4"/><path d="m66 61s0 5 2 7" opacity=".4"/><path d="m42.95 29a12.2 12.2 0 0 1 8.63 3.57l.09.09a12.13 12.13 0 0 0 6.2 3.34 36.72 36.72 0 0 0 14.13-.05 12.29 12.29 0 0 0 6.38-3.37 12.2 12.2 0 0 1 8.67-3.58" opacity=".4"/><path d="m57.67 26.33a16 16 0 0 0 16 .33" opacity=".4"/></g></svg>