<svg aria-hidden="true" xmlns="http://www.w3.org/2000/svg" width="512" height="512" fill="#d4af37" viewBox="0 0 24 24"><path d="M17.133 12.632v-1.8a5.407 5.407 0 00-4.154-5.262.955.955 0 00.021-.106V3.1a1 1 0 00-2 0v2.364a.933.933 0 00.021.106 5.406 5.406 0 00-4.154 5.262v1.8C6.867 15.018 5 15.614 5 16.807 5 17.4 5 18 5.538 18h12.924C19 18 19 17.4 19 16.807c0-1.193-1.867-1.789-1.867-4.175zm-13.267-.8a1 1 0 01-1-1 9.424 9.424 0 012.517-6.391A1.001 1.001 0 116.854 5.8a7.43 7.43 0 00-1.988 5.037 1 1 0 01-1 .995zm16.268 0a1 1 0 01-1-1A7.431 7.431 0 0017.146 5.8a1 1 0 011.471-1.354 9.424 9.424 0 012.517 6.391 1 1 0 01-1 .995zM8.823 19a3.453 3.453 0 006.354 0H8.823z"/></svg>
