<svg aria-hidden="true" xmlns="http://www.w3.org/2000/svg" width="512" height="512" fill="#d4af37" viewBox="0 0 24 24"><path fill-rule="evenodd" d="M12 14a3 3 0 013-3h4a2 2 0 012 2v2a2 2 0 01-2 2h-4a3 3 0 01-3-3zm3-1a1 1 0 100 2h4v-2h-4z" clip-rule="evenodd"/><path fill-rule="evenodd" d="M12.293 3.293a1 1 0 011.414 0L16.414 6h-2.828l-1.293-1.293a1 1 0 010-1.414zM12.414 6L9.707 3.293a1 1 0 00-1.414 0L5.586 6h6.828zM4.586 7l-.056.055A2 2 0 003 9v10a2 2 0 002 2h12a2 2 0 002-2h-4a5 5 0 010-10h4a2 2 0 00-1.53-1.945L17.414 7H4.586z" clip-rule="evenodd"/></svg>
