<svg id="Layer_1" viewBox="0 0 128 128" xmlns="http://www.w3.org/2000/svg" data-name="Layer 1"><circle cx="64" cy="64" fill="#00adfe" r="58"/><path d="m53 107a71.65 71.65 0 0 1 -36.75-10.09 58 58 0 0 0 105.31-39.91 72 72 0 0 1 -68.56 50z" fill="#356cb6" opacity=".4"/><path d="m85.17 107h-40.46a13.26 13.26 0 0 1 -13.39-12.4 13 13 0 0 1 13-13.6h40.45a13.26 13.26 0 0 1 13.38 12.4 13 13 0 0 1 -12.98 13.6z" fill="#393c54"/><path d="m81 92h-29.76a7.24 7.24 0 0 1 -7.24-7.24v-3.76h43v5a6 6 0 0 1 -6 6z" fill="#fff"/><path d="m87 107h-43v-5a6 6 0 0 1 6-6h31a6 6 0 0 1 6 6z" fill="#fff"/><g fill="none" stroke="#393c54" stroke-linecap="round" stroke-miterlimit="10" stroke-width="4"><path d="m24.94 69.47a9.94 9.94 0 1 1 19.88 0"/><path d="m83.18 69.47a9.94 9.94 0 1 1 19.88 0"/><path d="m83 48h16" opacity=".3"/><path d="m29 48h16" opacity=".3"/></g></svg>