<svg id="Layer_1" viewBox="0 0 128 128" xmlns="http://www.w3.org/2000/svg" data-name="Layer 1"><path d="m17.93 42.21a11.55 11.55 0 0 1 9.75-13 11.55 11.55 0 0 1 13-9.75 11.62 11.62 0 0 1 16.84-3.8 11.64 11.64 0 0 1 20.48 7.58c0 6.43-5.21 36.88-11.65 36.88-2.49 0-36.27 3.88-42.7 3.88a11.64 11.64 0 0 1 -5.72-21.79z" fill="#ff8475"/><path d="m12 52.35c0-.05 0-.1 0-.15q1.92.15 3.87.15a50.48 50.48 0 0 0 49.53-40.71c.32 0 .63-.05 1-.05a11.65 11.65 0 0 1 11.6 11.65c0 6.43-5.21 36.88-11.65 36.88-2.49 0-36.27 3.88-42.7 3.88a11.65 11.65 0 0 1 -11.65-11.65z" fill="#356cb6" opacity=".3"/><path d="m75.64 7.19a4 4 0 0 0 -4.76 3.1 58 58 0 0 1 -56.88 46.71q-1.86 0-3.69-.12a4 4 0 0 0 -4.21 3.78q-.1 1.66-.1 3.34a58 58 0 1 0 69.64-56.81z" fill="#4bc190"/><path d="m53 107a71.65 71.65 0 0 1 -36.75-10.09 58 58 0 0 0 105.31-39.91 72 72 0 0 1 -68.56 50z" fill="#356cb6" opacity=".2"/><circle cx="91" cy="70" fill="#fff" r="10"/><circle cx="91" cy="70" fill="#393c54" r="4"/><circle cx="37" cy="70" fill="#393c54" r="10"/><path d="m48.39 70h-23.76a11.88 11.88 0 1 1 23.76 0z" fill="#4bc190"/><path d="m48.39 70h-23.76a11.88 11.88 0 1 1 23.76 0z" fill="#356cb6" opacity=".3"/><path d="m103.37 70h-23.76a11.88 11.88 0 0 1 23.76 0z" fill="#4bc190"/><path d="m103.37 70h-23.76a11.88 11.88 0 0 1 23.76 0z" fill="#356cb6" opacity=".3"/><path d="m75.92 107h-23.69a8.21 8.21 0 0 1 -8.3-7.5 8 8 0 0 1 8-8.5h23.67a8.21 8.21 0 0 1 8.3 7.5 8 8 0 0 1 -7.98 8.5z" fill="#393c54"/><path d="m51 91h6a0 0 0 0 1 0 0v3a3 3 0 0 1 -3 3 3 3 0 0 1 -3-3v-3a0 0 0 0 1 0 0z" fill="#fff"/><path d="m63.92 96.82c-8.15 0-14.81 4.07-15.52 9.27a8.53 8.53 0 0 0 3.83.91h23.69a8 8 0 0 0 3.54-.83c-.66-5.23-7.35-9.35-15.54-9.35z" fill="#f85565"/><path d="m70.63 85.74-5.44-12.45a1.3 1.3 0 0 0 -2.38 0l-5.45 12.47a1 1 0 0 0 .92 1.4h11.43a1 1 0 0 0 .92-1.42z" fill="#356cb6" opacity=".2"/><g fill="none" stroke-linecap="round" stroke-linejoin="round"><path d="m73 104v8" stroke="#f85565" stroke-width="6"/><path d="m83.22 23.19a47.21 47.21 0 0 1 18.35 21.69" stroke="#f85565" stroke-width="6"/><path d="m102.96 36-10.22 6.14" stroke="#515570" stroke-width="4"/><path d="m93.88 24.63-8.43 8.43" stroke="#515570" stroke-width="4"/></g></svg>