<svg id="Layer_1" viewBox="0 0 128 128" xmlns="http://www.w3.org/2000/svg" data-name="Layer 1"><circle cx="64" cy="64" fill="#f85565" r="58"/><path d="m53 107a71.65 71.65 0 0 1 -36.75-10.09 58 58 0 0 0 105.31-39.91 72 72 0 0 1 -68.56 50z" fill="#393c54" opacity=".2"/><path d="m96.93 22.57c3-1.44 12.44-6.45 17.85-14.56a1 1 0 0 1 1.86.28c3.81 13.75-3.37 25.42-5.22 28.12a1 1 0 0 1 -1.13.38c-2.17-.72-8.85-3.62-13.81-12.85a1 1 0 0 1 .45-1.37z" fill="#f85565"/><path d="m31.81 22.57c-2.99-1.44-12.44-6.45-17.81-14.57a1 1 0 0 0 -1.86.28c-3.85 13.72 3.33 25.43 5.18 28.13a1 1 0 0 0 1.13.38c2.17-.72 8.85-3.62 13.81-12.85a1 1 0 0 0 -.45-1.37z" fill="#f85565"/><g fill="#393c54"><path d="m101.09 30.47a22.85 22.85 0 0 0 9.2 6.32 1 1 0 0 0 1.13-.38c1.62-2.36 7.33-11.6 6.17-23.09-.83 4.91-2.71 10.39-6.84 14.18-3.05 2.8-6.97 3.15-9.66 2.97z" opacity=".2"/><path d="m31.81 22.57c-.6-.29-1.48-.73-2.52-1.31a11 11 0 0 1 -7.29 6.74 12.25 12.25 0 0 1 -9.06-.42 38 38 0 0 0 4.38 8.83 1 1 0 0 0 1.13.38c2.17-.72 8.85-3.62 13.81-12.85a1 1 0 0 0 -.45-1.37z" opacity=".2"/><rect height="29" rx="6" width="44" x="42" y="81"/></g><path d="m52 109v-5.12a12.21 12.21 0 0 1 10.93-12.29 12 12 0 0 1 13.07 11.93v5.48z" fill="#f85565" opacity=".2"/><path d="m80 81h-2.28l-.12.12-.13-.12h-8.82l-.12.12-.12-.12h-8.82l-.12.12-.12-.12h-8.82l-.12.12-.13-.12h-2.28a6 6 0 0 0 -5.85 4.68l2.44 2.44a1.81 1.81 0 0 0 2.56 0l3.25-3.25 3.25 3.25a1.81 1.81 0 0 0 2.56 0l3.25-3.25 3.25 3.25a1.81 1.81 0 0 0 2.56 0l3.25-3.25 3.25 3.25a1.81 1.81 0 0 0 2.56 0l3.25-3.25 3.25 3.25a1.81 1.81 0 0 0 2.56 0l2.44-2.44a6 6 0 0 0 -5.83-4.68z" fill="#fff"/><path d="m85.85 105.32-2.44-2.44a1.81 1.81 0 0 0 -2.56 0l-3.25 3.25-3.25-3.25a1.81 1.81 0 0 0 -2.56 0l-3.25 3.25-3.25-3.25a1.81 1.81 0 0 0 -2.56 0l-3.25 3.25-3.25-3.25a1.81 1.81 0 0 0 -2.56 0l-3.25 3.25-3.25-3.25a1.81 1.81 0 0 0 -2.56 0l-2.44 2.44a6 6 0 0 0 5.83 4.68h2.28l.12-.12.12.12h8.82l.12-.12.12.12h8.82l.12-.12.12.12h8.82l.12-.12.12.12h2.3a6 6 0 0 0 5.85-4.68z" fill="#fff"/><path d="m48 84h32a6 6 0 0 1 4.94 2.6l.91-.91a6 6 0 0 0 -5.85-4.69h-2.28l-.12.12-.13-.12h-8.82l-.12.12-.12-.12h-8.82l-.12.12-.12-.12h-8.82l-.12.12-.13-.12h-2.28a6 6 0 0 0 -5.85 4.68l.91.91a6 6 0 0 1 4.94-2.59z" fill="#515570" opacity=".1"/><path d="m103.11 54.75a13 13 0 1 1 -24.11 9.66" fill="#fff"/><path d="m97.54 57a7 7 0 0 1 -13 5.2" fill="#515570"/><path d="m78.04 64.78 26.92-10.77" fill="none" stroke="#393c54" stroke-linecap="round" stroke-miterlimit="10" stroke-width="4"/><path d="m24.89 54.75a13 13 0 0 0 24.11 9.66" fill="#fff"/><path d="m30.46 57a7 7 0 0 0 13 5.2" fill="#515570"/><path d="m49.96 64.78-26.92-10.77" fill="none" stroke="#393c54" stroke-linecap="round" stroke-miterlimit="10" stroke-width="4"/></svg>