<svg id="Layer_1" viewBox="0 0 128 128" xmlns="http://www.w3.org/2000/svg" data-name="Layer 1"><circle cx="64" cy="64" fill="#4bc190" r="58"/><path d="m53 107a71.65 71.65 0 0 1 -36.75-10.09 58 58 0 0 0 105.31-39.91 72 72 0 0 1 -68.56 50z" fill="#356cb6" opacity=".2"/><path d="m34.76 80.07c.21-4.26 3.42-7.85 8-8.93" style="opacity:.2;fill:none;stroke-linecap:round;stroke-linejoin:round;stroke-width:4;stroke:#356cb6"/><path d="m85.22 71.14c4.6 1.08 7.82 4.68 8 9" style="opacity:.2;fill:none;stroke-linecap:round;stroke-linejoin:round;stroke-width:4;stroke:#356cb6"/><path d="m78.58 108.39a116.47 116.47 0 0 1 -29.25 0 6.29 6.29 0 0 1 -5.55-4.32 82.06 82.06 0 0 1 -2-23.8c.12-2.42 2.08-4.56 4.92-5.23a74.67 74.67 0 0 1 34.6-.04c2.85.67 4.82 2.82 4.93 5.25a87.55 87.55 0 0 1 -2.09 23.75c-.53 2.28-2.77 4-5.56 4.39z" fill="#393c54"/><g fill="none" stroke="#393c54" stroke-linecap="round" stroke-linejoin="round" stroke-width="4"><path d="m64 17.14v11.61"/><path d="m74.72 19.29-4.29 11.61"/><path d="m83.29 25.72-6.43 7.32"/><path d="m53.28 19.29 4.29 11.61"/><path d="m44.71 25.72 6.43 7.32"/></g><circle cx="64" cy="45.55" fill="#fff" r="19.29"/><circle cx="64" cy="45.55" fill="#393c54" r="9.11"/><path d="m83.29 45.55a19.29 19.29 0 0 0 -38.59 0 45.51 45.51 0 0 1 38.59 0z" fill="#4bc190"/><path d="m83.29 45.55a19.29 19.29 0 0 0 -38.59 0 45.51 45.51 0 0 1 38.59 0z" fill="#356cb6" opacity=".3"/><path d="m84.14 104c.58-2.51 1-5.08 1.36-7.68-4.07-5-12.17-7.22-21.52-7.22s-17.58 2.23-21.62 7.35a69.67 69.67 0 0 0 1.42 7.6 6.29 6.29 0 0 0 5.55 4.32 116.47 116.47 0 0 0 29.25 0c2.79-.37 5.03-2.09 5.56-4.37z" fill="#f85565"/><path d="m64 89.11c-.6 0-1.18 0-1.77.05v8.44a1.84 1.84 0 0 0 3.6 0v-8.44c-.64-.02-1.24-.05-1.83-.05z" fill="#515570" opacity=".3"/><path d="m77.65 103.82a119 119 0 0 1 -27.3 0 2.11 2.11 0 0 0 -2.55 1.79v2.39a7.82 7.82 0 0 0 1.52.36 116.47 116.47 0 0 0 29.25 0 7.79 7.79 0 0 0 1.63-.36v-2.38a2.11 2.11 0 0 0 -2.55-1.8z" fill="#fff"/><path d="m81.3 75a74.67 74.67 0 0 0 -34.62 0c-.23.06-.45.13-.67.21v1.4c0 1.75 1.84 3.09 4 2.93a188.55 188.55 0 0 1 28.06 0c2.12.16 4-1.18 4-2.93v-1.4c-.3-.04-.53-.12-.77-.21z" fill="#fff"/></svg>