<svg id="Layer_1" viewBox="0 0 128 128" xmlns="http://www.w3.org/2000/svg" data-name="Layer 1"><circle cx="64" cy="64" fill="#f8dc25" r="58"/><path d="m53 107a71.65 71.65 0 0 1 -36.75-10.09 58 58 0 0 0 105.31-39.91 72 72 0 0 1 -68.56 50z" fill="#f2bc0f" opacity=".7"/><g fill="none" stroke-linecap="round"><path d="m26.79 71.9c1.45 3.14 5 4.57 9.25 4.57s7.65-1.38 9.16-4.38" stroke="#393c54" stroke-miterlimit="10" stroke-width="4"/><path d="m82.79 71.9c1.45 3.14 5 4.57 9.25 4.57s7.65-1.38 9.16-4.38" stroke="#393c54" stroke-miterlimit="10" stroke-width="4"/><path d="m83 59h16" opacity=".5" stroke="#f2bc0f" stroke-linejoin="round" stroke-width="4"/><path d="m29 59h16" opacity=".5" stroke="#f2bc0f" stroke-linejoin="round" stroke-width="4"/></g><circle cx="81" cy="100" fill="#393c54" r="7"/><path d="m80.32 14h14.86l-14.86 21h14.86" fill="none" stroke="#00adfe" stroke-linecap="round" stroke-linejoin="round" stroke-width="6"/><path d="m104 31h7.57l-7.78 11h8.21" fill="none" stroke="#00adfe" stroke-linecap="round" stroke-linejoin="round" stroke-width="4"/></svg>