<svg id="Layer_1" viewBox="0 0 128 128" xmlns="http://www.w3.org/2000/svg" data-name="Layer 1"><path d="m20.18 17c0-6 19.62-10.81 43.82-10.81s43.82 4.81 43.82 10.81" fill="none" stroke="#00adfe" stroke-miterlimit="10" stroke-width="6"/><circle cx="64" cy="64" fill="#f8dc25" r="58"/><circle cx="39" cy="68" fill="#fff" r="13"/><circle cx="39" cy="68" fill="#515570" r="7"/><path d="m16.5 81c0-7.18 10.07-10 22.5-10s22.5 2.82 22.5 10" fill="#f8dc25"/><circle cx="89" cy="68" fill="#fff" r="13"/><circle cx="89" cy="68" fill="#515570" r="7"/><path d="m66.5 81c0-7.18 10.07-10 22.5-10s22.5 2.82 22.5 10" fill="#f8dc25"/><path d="m38 47c-5-1-12 2-15 6" style="fill:none;stroke:#f2bc0f;stroke-linecap:round;stroke-linejoin:round;stroke-width:4;opacity:.5"/><path d="m90 46c5-1 12 2 15 6" style="fill:none;stroke:#f2bc0f;stroke-linecap:round;stroke-linejoin:round;stroke-width:4;opacity:.5"/><path d="m53 107a71.65 71.65 0 0 1 -36.75-10.09 58 58 0 0 0 105.31-39.91 72 72 0 0 1 -68.56 50z" fill="#f2bc0f" opacity=".7"/><path d="m107.82 17c0 6-19.62 10.81-43.82 10.81s-43.82-4.81-43.82-10.81" fill="none" stroke="#00adfe" stroke-miterlimit="10" stroke-width="6"/><path d="m64 83a17 17 0 0 1 17 17v5a4 4 0 0 1 -4 4h-26a4 4 0 0 1 -4-4v-5a17 17 0 0 1 17-17z" fill="#393c54" transform="matrix(-1 0 0 -1 128 192)"/><path d="m57 90h14a6 6 0 0 0 6-6v-1.1h-26v1.1a6 6 0 0 0 6 6z" fill="#fff"/><path d="m64 99a22.31 22.31 0 0 0 -12.87 4.1 16.93 16.93 0 0 0 12.87 5.9 16.93 16.93 0 0 0 12.85-5.9 22.31 22.31 0 0 0 -12.85-4.1z" fill="#f85565"/></svg>