<svg id="Layer_1" viewBox="0 0 128 128" xmlns="http://www.w3.org/2000/svg" data-name="Layer 1"><circle cx="64" cy="64" fill="#f8dc25" r="58"/><path d="m53 107a71.65 71.65 0 0 1 -36.75-10.09 58 58 0 0 0 105.31-39.91 72 72 0 0 1 -68.56 50z" fill="#f2bc0f" opacity=".7"/><path d="m113.1 92a12.52 12.52 0 0 1 0-12l.15-.29a20.47 20.47 0 0 0 -17.75-30.71h-.5-.08c-12.92 0-38.92 15-38.92 15v41c9-9 17 18 38.84 18h.16.5a20.47 20.47 0 0 0 18.08-30.12z" fill="#f8dc25"/><path d="m73.42 103.77a22 22 0 0 1 3-11l.16-.31a13.48 13.48 0 0 0 0-12.89l-.53-1a22 22 0 0 1 .81-22.13" style="fill:none;stroke-linecap:round;stroke-width:4;stroke:#f2bc0f;stroke-linejoin:round;opacity:.5"/><path d="m109.59 93.9a16.51 16.51 0 0 1 0-15.8 16.5 16.5 0 1 0 -28.17 0 16.51 16.51 0 0 1 0 15.8 16.5 16.5 0 1 0 28.17 0z" fill="#393c54"/><circle cx="47" cy="41" fill="#fff" r="13"/><circle cx="44" cy="44" fill="#515570" r="5"/><circle cx="88" cy="35" fill="#fff" r="13"/><circle cx="92.5" cy="30.5" fill="#515570" r="5"/><path d="m107.32 58a16.47 16.47 0 0 0 -23.64 0z" fill="#ff8475"/><path d="m82.77 113a16.5 16.5 0 0 0 25.46 0z" fill="#ff8475"/><path d="m80.07 63.7a4 4 0 0 0 2.93 1.3h20a4 4 0 0 0 4-4v-3h-23.32a16.49 16.49 0 0 0 -3.61 5.7z" fill="#fff"/><path d="m103 106h-20a4 4 0 0 0 -3.19 1.6 16.47 16.47 0 0 0 3 5.4h24.19v-3a4 4 0 0 0 -4-4z" fill="#fff"/><path d="m83 102.5a16.4 16.4 0 0 1 2.41-8.56 16.51 16.51 0 0 0 0-15.8 16.46 16.46 0 0 1 12.09-25.01 16.41 16.41 0 0 0 -18.5 16.37 16.4 16.4 0 0 0 2.41 8.56 16.51 16.51 0 0 1 0 15.8 16.47 16.47 0 0 0 14.09 25.14 16.59 16.59 0 0 0 2-.13 16.49 16.49 0 0 1 -14.5-16.37z" fill="#515570" opacity=".3"/><g fill="none" stroke-linecap="round" stroke-width="4"><path d="m53 74s10-3 14-10" opacity=".4" stroke="#f2bc0f" stroke-linejoin="round"/><path d="m52 89s10 3 14 10" opacity=".4" stroke="#f2bc0f" stroke-linejoin="round"/><path d="m27 32s4-10 18-10" stroke="#393c54" stroke-miterlimit="10"/><path d="m103.16 20.67s-7.16-8.06-20.32-3.34" stroke="#393c54" stroke-miterlimit="10"/></g></svg>