<svg id="Layer_1" viewBox="0 0 128 128" xmlns="http://www.w3.org/2000/svg" data-name="Layer 1"><circle cx="64" cy="64" fill="#f8dc25" r="58"/><path d="m53 107a71.65 71.65 0 0 1 -36.75-10.09 58 58 0 0 0 105.31-39.91 72 72 0 0 1 -68.56 50z" fill="#f2bc0f" opacity=".7"/><circle cx="94.6" cy="30.6" fill="#fff" r="13" transform="matrix(.072 -.997 .997 .072 57.28 122.76)"/><circle cx="99.59" cy="30.96" fill="#515570" r="7" transform="matrix(.072 -.997 .997 .072 61.55 128.07)"/><path d="m81.63 29.67a13 13 0 1 1 25.93 1.87" fill="#f8dc25"/><path d="m81.63 29.67a13 13 0 1 1 25.93 1.87" fill="#f2bc0f" opacity=".7"/><circle cx="49.72" cy="27.37" fill="#fff" r="13" transform="matrix(.072 -.997 .997 .072 18.84 74.99)"/><circle cx="54.7" cy="27.73" fill="#515570" r="7" transform="matrix(.072 -.997 .997 .072 23.11 80.3)"/><path d="m36.75 26.44a13 13 0 0 1 25.93 1.87" fill="#f8dc25"/><path d="m36.75 26.44a13 13 0 0 1 25.93 1.87" fill="#f2bc0f" opacity=".7"/><g fill="none" stroke-linecap="round" stroke-miterlimit="10"><path d="m46.28 60.67s32.88-18.78 55.63 6.94" stroke="#393c54" stroke-width="6"/><path d="m41.82 57.74 4.98 6.7" stroke="#393c54" stroke-width="6"/><path d="m68.16 63.43c6.67-2.32 15.89.06 18.22 2.6" stroke="#f2bc0f" stroke-width="4"/><path d="m46.7 6.6 18.23 11.34 5.28-3.63" stroke="#393c54" stroke-width="4"/><path d="m82.24 21.19 17.11-7.79" stroke="#393c54" stroke-width="4"/></g></svg>