<svg id="Layer_1" viewBox="0 0 128 128" xmlns="http://www.w3.org/2000/svg" data-name="Layer 1"><circle cx="64" cy="64" fill="#f8dc25" r="58"/><path d="m53 107a71.65 71.65 0 0 1 -36.75-10.09 58 58 0 0 0 105.31-39.91 72 72 0 0 1 -68.56 50z" fill="#f2bc0f" opacity=".7"/><ellipse cx="36.63" cy="74.03" fill="#f85565" opacity=".2" rx="10.76" ry="6.03"/><ellipse cx="91.67" cy="74.03" fill="#f85565" opacity=".2" rx="10.76" ry="6.03"/><path d="m92.17 49.09a9.42 9.42 0 0 0 -13.94.69 9.69 9.69 0 0 0 .91 12.92l11.46 11.47a2.22 2.22 0 0 0 3.14 0l11.47-11.47a9.69 9.69 0 0 0 .91-12.92 9.42 9.42 0 0 0 -13.95-.69z" fill="#f85565"/><path d="m36.12 49.09a9.42 9.42 0 0 0 -13.94.69 9.69 9.69 0 0 0 .91 12.92l11.46 11.47a2.22 2.22 0 0 0 3.14 0l11.47-11.47a9.69 9.69 0 0 0 .91-12.92 9.42 9.42 0 0 0 -13.95-.69z" fill="#f85565"/><g fill="none" stroke="#fff" stroke-linecap="round"><path d="m42.78 50.91a4.94 4.94 0 0 1 1.08.12" stroke-linejoin="round" stroke-width="2"/><path d="m47 53.43a5.24 5.24 0 0 1 -1.11 6" stroke-linejoin="round" stroke-width="2"/><path d="m98.77 50.91a4.94 4.94 0 0 1 1.08.12" stroke-linejoin="round" stroke-width="2"/><path d="m103 53.43a5.24 5.24 0 0 1 -1.11 6" stroke-linejoin="round" stroke-width="2"/><path d="m50 99v15" opacity=".7" stroke-miterlimit="10" stroke-width="8"/><path d="m46 91v18" opacity=".7" stroke-miterlimit="10" stroke-width="8"/><path d="m79 101v13" opacity=".7" stroke-miterlimit="10" stroke-width="8"/><path d="m83 97v10" opacity=".7" stroke-miterlimit="10" stroke-width="8"/></g><path d="m83.2 85.29c4.23-2.12 6.34 1.52 6.34 3.39 0 11.43-9.11 20.09-23.27 20.09a27.71 27.71 0 0 1 -27.5-24.32c-.23-1.86 1.93-5.14 5.18-3.39 15.23 8.23 29.13 9.29 39.25 4.23z" fill="#393c54"/><path d="m66.26 108.76c6.8 0 12.42-2 16.45-5.36-3.72-4.51-9.64-5.14-16.45-5.14s-12.7.63-16.42 5.11a27.58 27.58 0 0 0 16.42 5.39z" fill="#f85565"/></svg>