<svg id="Layer_1" viewBox="0 0 128 128" xmlns="http://www.w3.org/2000/svg" data-name="Layer 1"><circle cx="64" cy="64" fill="#f8dc25" r="58"/><path d="m85 52h23" fill="none" stroke="#00adfe" stroke-linecap="round" stroke-linejoin="round" stroke-width="4"/><path d="m20 52h23" fill="none" stroke="#00adfe" stroke-linecap="round" stroke-linejoin="round" stroke-width="4"/><path d="m53 107a71.65 71.65 0 0 1 -36.75-10.09 58 58 0 0 0 105.31-39.91 72 72 0 0 1 -68.56 50z" fill="#f2bc0f" opacity=".7"/><path d="m86 117.67a58.12 58.12 0 0 0 22-15.9v-52.77h-22z" fill="#00adfe"/><path d="m108 101.77v-20.32a72.28 72.28 0 0 1 -22 17.55v18.67a57.74 57.74 0 0 0 9.05-4.67l.21-.14q1.37-.86 2.74-1.86a58.38 58.38 0 0 0 10-9.23z" fill="#356cb6" opacity=".4"/><path d="m79 41a8 8 0 0 0 8 8h21" fill="none" stroke="#393c54" stroke-linecap="round" stroke-miterlimit="10" stroke-width="4"/><path d="m20 101.77a58.12 58.12 0 0 0 22 15.9v-68.67h-22z" fill="#00adfe"/><path d="m42 106.15a71.51 71.51 0 0 1 -22-7.15v2.78q1.1 1.28 2.26 2.48 1.17 1.21 2.41 2.36 1.24 1.15 2.55 2.22 1.42 1.16 2.78 2.16a57.83 57.83 0 0 0 12 6.68z" fill="#356cb6" opacity=".4"/><path d="m49 41a8 8 0 0 1 -8 8h-21" fill="none" stroke="#393c54" stroke-linecap="round" stroke-miterlimit="10" stroke-width="4"/><path d="m48.89 72a1.9 1.9 0 0 1 -1.89-2.16 17.12 17.12 0 0 1 34 0 1.9 1.9 0 0 1 -1.89 2.16z" fill="#393c54"/><path d="m75.5 72a12.13 12.13 0 0 0 -23 0z" fill="#f85565"/><path d="m58 78h12" fill="none" stroke="#f2bc0f" stroke-linecap="round" stroke-linejoin="round" stroke-width="4"/></svg>