<svg id="Layer_1" viewBox="0 0 128 128" xmlns="http://www.w3.org/2000/svg" data-name="Layer 1"><circle cx="64" cy="64" fill="#f8dc25" r="58"/><path d="m53 107a71.65 71.65 0 0 1 -36.75-10.09 58 58 0 0 0 105.31-39.91 72 72 0 0 1 -68.56 50z" fill="#f2bc0f" opacity=".7"/><g fill="#393c54"><path d="m107.22 57.3a17.27 17.27 0 0 0 -30.75 0c4.68-1.56 26.08-1.56 30.75 0z"/><path d="m51.53 57.3a17.27 17.27 0 0 0 -30.75 0c4.67-1.56 26.07-1.56 30.75 0z"/><path d="m90.3 77a3.3 3.3 0 0 1 3.28 3.7 29.76 29.76 0 0 1 -59.15 0 3.3 3.3 0 0 1 3.27-3.7z"/></g><path d="m64 89.1a33.08 33.08 0 0 0 -21.91 8.32 29.56 29.56 0 0 0 43.81 0 33.08 33.08 0 0 0 -21.9-8.32z" fill="#f85565"/><path d="m112.52 70a5.52 5.52 0 1 1 -11 0c0-3 2.47-11 5.52-11s5.48 8 5.48 11z" fill="#00adfe"/><path d="m26.52 70a5.52 5.52 0 0 1 -11 0c0-3 2.47-11 5.52-11s5.48 8 5.48 11z" fill="#00adfe"/></svg>