<svg height="24" viewBox="0 0 24 24" width="24" fill="white" xmlns="http://www.w3.org/2000/svg"><path d="M21 6c0 2.85-4.3 5-10 5S1 8.85 1 6s4.3-5 10-5 10 2.15 10 5zm-8 15c-4.25 0-7.88-1.1-10-2.95C3.06 20.88 7.33 23 13 23s9.91-2.11 10-4.91C20.91 19.9 17.37 21 13 21zm-2-4a18.74 18.74 0 01-7.51-1.4C4.77 17.62 8.43 19 13 19c5.7 0 10-2.15 10-5a3 3 0 00-.57-1.72C20.94 15.14 16.63 17 11 17zm1-4h-2c-3.92-.15-7.11-1.22-9-2.89C1.09 12.89 5.36 15 11 15s9.91-2.11 10-4.91c-1.93 1.67-5.12 2.74-9 2.91z"/></svg>
