<svg height="512" viewBox="0 0 58 58" width="512" xmlns="http://www.w3.org/2000/svg"><g id="Page-1" fill="none" fill-rule="evenodd"><g id="005---Lovey" fill-rule="nonzero"><path id="Shape" d="m47.28 8.79c-4.98-5.19-11.35-8.79-18.28-8.79s-13.3 3.6-18.28 8.79l-6.68 9.35c-2.49047144 4.5691376-3.87421504 9.658848-4.04 14.86 0 13.81 12.98 25 29 25s29-11.19 29-25c-.165785-5.201152-1.5495286-10.2908624-4.04-14.86z" fill="#9fc9d3"/><path id="Shape" d="m13 9.92c-.1750021 1.9078694-.74001 3.7594615-1.66 5.44-1.13605 2.1173928-3.02302342 3.7332698-5.29 4.53-.14691771.0596263-.30200148.0967116-.46.11-4.03-3.83-3.99-9.75-3.11-14.35.06991242-.37766872.25097656-.72586901.52-1 .44562464-.45618138 1.06970377-.6926926 1.70574075-.64643537.63603698.04625724 1.2193284.37057722 1.59425925.88643537 1.70903616 2.28021583 4.0334209 4.02523899 6.7 5.03z" fill="#f9eab0"/><path id="Shape" d="m52.409 20c4.026-3.834 3.988-9.751 3.115-14.355-.1946856-.81561511-.8471858-1.44275278-1.6698747-1.60496707-.8226889-.16221428-1.664409.1702994-2.1541253.85096707-1.7101659 2.27978159-4.034099 4.02550628-6.7 5.033 0 0 .412 7.664 6.948 9.965.1474695.0591639.3027629.0965556.461.111z" fill="#f9eab0"/><g fill="#84b5cb"><circle id="Oval" cx="10" cy="28" r="3"/><circle id="Oval" cx="13" cy="36" r="2"/><circle id="Oval" cx="48" cy="28" r="3"/><circle id="Oval" cx="45" cy="36" r="2"/><path id="Shape" d="m8 39c-.00213131 2.7573219-1.88326566 5.1582434-4.56 5.82-2.17520051-3.4393788-3.36186473-7.4110713-3.43-11.48.63907348-.2260529 1.31212558-.3410467 1.99-.34 3.3137085 0 6 2.6862915 6 6z"/><path id="Shape" d="m57.99 33.34c-.0681353 4.0689287-1.2547995 8.0406212-3.43 11.48-2.1622781-.5171004-3.8613699-2.1874549-4.4152755-4.3405987-.5539056-2.1531437.1281878-4.4360685 1.7724941-5.9324294 1.6443064-1.4963608 3.9812417-1.9608293 6.0727814-1.2069719z"/></g><path id="Shape" d="m13 9.92c-.1750021 1.9078694-.74001 3.7594615-1.66 5.44-4.55414681-1.7429146-7.76610215-5.86761984-8.34-10.71.44562464-.45618138 1.06970377-.6926926 1.70574075-.64643537.63603698.04625724 1.2193284.37057722 1.59425925.88643537 1.70903616 2.28021583 4.0334209 4.02523899 6.7 5.03z" fill="#f5efca"/><path id="Shape" d="m45 9.92c.1750021 1.9078694.74001 3.7594615 1.66 5.44 4.5541468-1.7429146 7.7661021-5.86761984 8.34-10.71-.4456246-.45618138-1.0697038-.6926926-1.7057408-.64643537-.6360369.04625724-1.2193283.37057722-1.5942592.88643537-1.7090362 2.28021583-4.0334209 4.02523899-6.7 5.03z" fill="#f5efca"/><path id="Shape" d="m29 50c-3.25 0-4.491-1.077-4.707-1.293-.3789722-.3923789-.3735524-1.0160848.0121814-1.4018186s1.0094397-.3911536 1.4018186-.0121814c.998195.5703954 2.1486411.8173936 3.293.707 2.445 0 3.31-.724 3.318-.731.4084331-.356744 1.0252598-.3289867 1.4.063.3708401.3850706.3659533.9959117-.011 1.375-.216.216-1.457 1.293-4.707 1.293z" fill="#84b5cb"/><path id="Shape" d="m41 16.32c0 .12 0 .25-.01.38v.01c-.16 3.97-2.82 10.41-11.99 13.29-9.17-2.88-11.83-9.32-11.99-13.29v-.01c-.01-.13-.01-.26-.01-.38 0-3.92 2.45-7.32 6-7.32 2.2774763.00021525 4.451806.94967254 6 2.62 1.548194-1.67032746 3.7225237-2.61978475 6-2.62 3.55 0 6 3.4 6 7.32z" fill="#df4d60"/><path id="Shape" d="m39.85 37.21c-.3975387 2.2652882-1.9084757 4.17839-4.02 5.09-1.2162362.4897865-2.5191446.727916-3.83.7h-6c-1.3108554.027916-2.6137638-.2102135-3.83-.7-2.1115243-.91161-3.6224613-2.8247118-4.02-5.09-.0635216-.295735.0102297-.6043298.2006055-.8393856s.4769152-.3713099.7793945-.3706144h19.74c.3024793-.0006955.5890187.1355586.7793945.3706144s.2641271.5436506.2006055.8393856z" fill="#802d40"/><path id="Shape" d="m41 16.32c0 .12 0 .25-.01.38v.01c-2.6792316 3.9855541-7.1879985 6.3508706-11.99 6.29-4.8020015.0608706-9.3107684-2.3044459-11.99-6.29v-.01c-.01-.13-.01-.26-.01-.38 0-3.92 2.45-7.32 6-7.32 2.2774763.00021525 4.451806.94967254 6 2.62 1.548194-1.67032746 3.7225237-2.61978475 6-2.62 3.55 0 6 3.4 6 7.32z" fill="#ff5364"/><ellipse id="Oval" cx="22.5" cy="12.5" fill="#fb7b76" rx="3.5" ry="2.5" transform="matrix(.962 -.272 .272 .962 -2.554 6.6)"/><path id="Shape" d="m35.83 42.3c-1.2162362.4897865-2.5191446.727916-3.83.7h-6c-1.3108554.027916-2.6137638-.2102135-3.83-.7.69-2.46 3.48-4.3 6.83-4.3s6.14 1.84 6.83 4.3z" fill="#ff5364"/><path id="Shape" d="m36.87 41.75c-1.467225.8814126-3.1596474 1.3158126-4.87 1.25h-.63l1.02-2.71c.2802294-.7436861.9741935-1.2508912 1.7678559-1.2920922.7936623-.0412011 1.5364152.3914204 1.8921441 1.1020922z" fill="#ecf0f1"/><path id="Shape" d="m26.63 43h-.63c-1.7103526.0658126-3.402775-.3685874-4.87-1.25l.82-1.65c.3557289-.7106718 1.0984818-1.1432933 1.8921441-1.1020922.7936624.041201 1.4876265.5484061 1.7678559 1.2920922z" fill="#ecf0f1"/></g></g></svg>