<svg height="512" viewBox="0 0 58 58" width="512" xmlns="http://www.w3.org/2000/svg"><g id="Page-1" fill="none" fill-rule="evenodd"><g id="009---Death" fill-rule="nonzero"><path id="Shape" d="m58 33c0 13.81-12.98 25-29 25s-29-11.19-29-25c0-6.9 3.24-15.16 8.49-21.68v-.01c.85-1.04 1.74-2.04 2.67-2.97 4.92-4.95 11.11-8.34 17.84-8.34 16.02 0 29 19.19 29 33z" fill="#ecf0f1"/><path id="Shape" d="m13.989 12.167c-.4017081-.0020608-.7631894-.2443024-.9178184-.6150631s-.0723862-.7980614.2088184-1.0849369c2.630499-2.75269954 5.8284784-4.90004106 9.372-6.293.3349365-.12504297.7111402-.06190094.9868988.16564109.2757587.22754203.4091779.58491502.35.93750002-.0591778.35258499-.3019623.64681594-.6368988.77185889-3.2718394 1.2928894-6.2233739 3.28184832-8.65 5.829-.1896175.1875606-.4463036.291603-.713.289z" fill="#fff"/><path id="Shape" d="m18 42c-7.1762751-.008266-12.99173398-5.8237249-13-13 0-.5522847.44771525-1 1-1s1 .4477153 1 1c.0071635 6.0721626 4.9278374 10.9928365 11 11 .5522847 0 1 .4477153 1 1s-.4477153 1-1 1z" fill="#d1d4d1"/><path id="Shape" d="m40 42c-.5522847 0-1-.4477153-1-1s.4477153-1 1-1c6.0721626-.0071635 10.9928365-4.9278374 11-11 0-.5522847.4477153-1 1-1s1 .4477153 1 1c-.008266 7.1762751-5.8237249 12.991734-13 13z" fill="#d1d4d1"/><path id="Shape" d="m26 29c-.000553 1.7013746-.5435092 3.3582667-1.55 4.73v.01c-1.5098875 2.0497631-3.9041624 3.2598295-6.45 3.2598295s-4.9401125-1.2100664-6.45-3.2598295v-.01c-1.0064908-1.3717333-1.549447-3.0286254-1.55-4.73-.0033452-1.4058126.3695516-2.7869117 1.08-4l3.3.01 7.3.04 3.28.01c.6826978 1.200832 1.0411119 2.55867 1.04 3.94z" fill="#2c3e50"/><path id="Shape" d="m48 29c-.000553 1.7013746-.5435092 3.3582667-1.55 4.73v.01c-1.5098875 2.0497631-3.9041624 3.2598295-6.45 3.2598295s-4.9401125-1.2100664-6.45-3.2598295v-.01c-1.863473-2.5370564-2.0631735-5.9319644-.51-8.67l3.28-.01 7.3-.04 3.3-.01c.7104484 1.2130883 1.0833452 2.5941874 1.08 4z" fill="#2c3e50"/><path id="Shape" d="m29 42h2.613c.3212672-.0002439.6228543-.1548257.8106349-.4155001s.2388857-.5956946.1373651-.9004999l-1.333-4c-.1360719-.4085428-.5183926-.6841037-.949-.684h-2.558c-.4306074-.0001037-.8129281.2754572-.949.684l-1.333 4c-.1015206.3048053-.0504155.6398255.1373651.9004999s.4893677.4152562.8106349.4155001z" fill="#3f5c6c"/><path id="Shape" d="m41 46c-.5522847 0-1 .4477153-1 1v3c0 .5522847-.4477153 1-1 1h-2c-.5522847 0-1-.4477153-1-1v-3c0-.5522847-.4477153-1-1-1s-1 .4477153-1 1v3c0 .5522847-.4477153 1-1 1h-2c-.5522847 0-1-.4477153-1-1v-3c0-.5522847-.4477153-1-1-1s-1 .4477153-1 1v3c0 .5522847-.4477153 1-1 1h-2c-.5522847 0-1-.4477153-1-1v-3c0-.5522847-.4477153-1-1-1s-1 .4477153-1 1v3c0 .5522847-.4477153 1-1 1h-2c-.5522847 0-1-.4477153-1-1v-3c0-.5522847-.4477153-1-1-1s-1 .4477153-1 1v3c0 1.6568542 1.3431458 3 3 3h2c.740399-.0026037 1.4533329-.2806479 2-.78.5466671.4993521 1.259601.7773963 2 .78h2c.740399-.0026037 1.4533329-.2806479 2-.78.5466671.4993521 1.259601.7773963 2 .78h2c.740399-.0026037 1.4533329-.2806479 2-.78.5466671.4993521 1.259601.7773963 2 .78h2c1.6568542 0 3-1.3431458 3-3v-3c0-.5522847-.4477153-1-1-1z" fill="#95a5a5"/><path id="Shape" d="m25 31c-.0007108.9374458-.1876631 1.8654092-.55 2.73v.01c-1.5098875 2.0497631-3.9041624 3.2598295-6.45 3.2598295s-4.9401125-1.2100664-6.45-3.2598295v-.01c-.3623369-.8645908-.5492892-1.7925542-.55-2.73-.0017235-2.4512418 1.280859-4.724221 3.38-5.99l7.3.04c2.0649833 1.272076 3.3218809 3.5246485 3.32 5.95z" fill="#35495e"/><path id="Shape" d="m47 31c-.0007108.9374458-.1876631 1.8654092-.55 2.73v.01c-1.5098875 2.0497631-3.9041624 3.2598295-6.45 3.2598295s-4.9401125-1.2100664-6.45-3.2598295v-.01c-.3623369-.8645908-.5492892-1.7925542-.55-2.73-.0018809-2.4253515 1.2550167-4.677924 3.32-5.95l7.3-.04c2.099141 1.265779 3.3817235 3.5387582 3.38 5.99z" fill="#35495e"/><ellipse id="Oval" cx="17" cy="28.5" fill="#3f5c6c" rx="3" ry="2.5"/><ellipse id="Oval" cx="39" cy="28.5" fill="#3f5c6c" rx="3" ry="2.5"/><g fill="#d1d4d1"><path id="Shape" d="m23 26h-15c-.55228475 0-1-.4477153-1-1s.44771525-1 1-1h15c1.6568542 0 3-1.3431458 3-3v-5c0-.5522847.4477153-1 1-1s1 .4477153 1 1v5c-.0033061 2.7600532-2.2399468 4.9966939-5 5z"/><path id="Shape" d="m50 26h-15c-2.7600532-.0033061-4.9966939-2.2399468-5-5v-5c0-.5522847.4477153-1 1-1s1 .4477153 1 1v5c0 1.6568542 1.3431458 3 3 3h15c.5522847 0 1 .4477153 1 1s-.4477153 1-1 1z"/></g></g></g></svg>