<svg height="512" viewBox="0 0 60 58" width="512" xmlns="http://www.w3.org/2000/svg"><g id="Page-1" fill="none" fill-rule="evenodd"><g id="012---Annoyed" fill-rule="nonzero"><path id="Shape" d="m59 29c-.0064463-11.5895968-6.9125866-22.06248311-17.5627863-26.63326464-10.6501996-4.57078152-22.9991218-2.36165432-31.4041519 5.61796125-8.40503015 7.97961559-11.2520091 20.19725989-7.2400618 31.07030339-1.45193053 2.3787593-2.05373851 5.1797929-1.707 7.945.85210867-1.5861103 2.05373601-2.9576889 3.514-4.011.78513137 1.4225148 1.68830314 2.7766035 2.7 4.048-.47132165 2.2914118-.54371707 4.6469692-.214 6.963.93966709-1.3506859 2.02779583-2.5917698 3.244-3.7 1.2116859 1.1194111 2.5163883 2.1337335 3.9 3.032.0949624 1.2594185.3836929 2.4966423.856 3.668 0 0 .612-1.066 1.472-2.3 8.4195991 4.4066591 18.4644009 4.4066591 26.884 0 .86 1.239 1.472 2.3 1.472 2.3.4702943-1.1706843.757331-2.4068646.851-3.665 1.385456-.8989884 2.6918422-1.9143231 3.905-3.035 1.2162042 1.1082302 2.3043329 2.3493141 3.244 3.7.3297171-2.3160308.2573217-4.6715882-.214-6.963 1.0116969-1.2713965 1.9148686-2.6254852 2.7-4.048 1.460264 1.0533111 2.6618913 2.4248897 3.514 4.011.3467385-2.7652071-.2550695-5.5662407-1.707-7.945 1.1890382-3.2188668 1.7961572-6.6235418 1.793-10.055z" fill="#cb8252"/><path id="Shape" d="m43.92 39.71c-.1425905 1.3091702-.9966381 2.4325122-2.22 2.92-.034311.0146351-.0677053.0313323-.1.05-.0075808.0010568-.0146061.0045695-.02.01-.5064413.1867276-1.0403626.2881051-1.58.3-1.0123709.0470084-2.0256393-.0712063-3-.35-1.2-.35-2.2-.88-3.4-1.29-.01-.01-.03-.01-.04-.02-1.1459989-.3905882-2.3492859-.5866293-3.56-.58-1.2254789-.007303-2.4431317.1956391-3.6.6-.01 0-.02.01-.03.01-1.19.41-2.19.93-3.37 1.28-.9743607.2787937-1.9876291.3970084-3 .35-.5652584-.0109077-1.1240278-.1226615-1.65-.33-.02-.01-.03-.02-.05-.03-1.2229428-.488039-2.0767663-1.6110862-2.22-2.92-.1993663-2.0908421.2585779-4.1917923 1.31-6.01 2.4274222-4.7277816 7.2954636-7.7005483 12.61-7.7005483s10.1825778 2.9727667 12.61 7.7005483c1.0514221 1.8182077 1.5093663 3.9191579 1.31 6.01z" fill="#802d40"/><path id="Shape" d="m18.83 25.16c-4.07.77-7.92-1.5-8.59-5.07s2.08-7.09 6.15-7.86c.38-.07.78-.12 1.2-.16 2.8491882-.3117824 5.7282347.1946523 8.3 1.46 1.0533482.5118277 1.8259541 1.4638539 2.11 2.6.67 3.57-5.1 8.26-9.17 9.03z" fill="#ecf0f1"/><path id="Shape" d="m26 10.16c-.2163702 0-.4269038-.0701779-.6-.2-3.6-2.7-9.18-1.823-9.237-1.813-.5448289.0905747-1.0599253-.27767109-1.1505-.8225s.2776711-1.0599253.8225-1.1505c.265-.045 6.473-1.034 10.765 2.186.3443443.25825824.4847973.70788563.3486833 1.11622777s-.5182529.68377223-.9486833.68377223z" fill="#805333"/><path id="Shape" d="m27 17c.0032261 2.8516949-2.0011952 5.3116691-4.7947676 5.8844935-2.7935723.5728244-5.6043732-.8997843-6.7237044-3.5226209-1.1193313-2.6228367-.2378983-5.6711565 2.108472-7.2918726 2.8491882-.3117824 5.7282347.1946523 8.3 1.46.7234823 1.0122726 1.1116601 2.2257654 1.11 3.47z" fill="#26b99a"/><circle id="Oval" cx="21" cy="17" fill="#35495e" r="3"/><path id="Shape" d="m49.82 20.09c-.68 3.57-4.52 5.84-8.59 5.07s-9.85-5.46-9.18-9.03c.2682774-1.1043788 1.0063349-2.0360851 2.02-2.55l.02-.01c2.5697436-1.2842385 5.4527311-1.8081027 8.31-1.51.44.04.87.1 1.27.17 4.07.77 6.82 4.29 6.15 7.86z" fill="#ecf0f1"/><path id="Shape" d="m34.055 10.16c-.4304304 0-.8125693-.27543009-.9486833-.68377223s.004339-.85796953.3486833-1.11622777c4.294-3.219 10.5-2.229 10.765-2.186.5448289.09057472.9130747.6056711.8225 1.15049999s-.6056711.91307468-1.1505.82250001c-.057-.01-5.637-.887-9.237 1.813-.1728912.1302129-.3835593.2004356-.6.2z" fill="#805333"/><g fill="#a56a43"><path id="Shape" d="m30 48c-4.913 0-6.393-1.026-6.64-1.232-.4244308-.3534622-.4819622-.9840692-.1285-1.4085s.9840692-.4819622 1.4085-.1285c.007 0 1.234.769 5.36.769 4.183 0 5.387-.791 5.4-.8.4434358-.3053476 1.047775-.2138871 1.381.209.3277392.4156453.2661996 1.0164309-.139 1.357-.249.208-1.729 1.234-6.642 1.234z"/><path id="Shape" d="m15.087 58h-.07c-.3827058-.0266229-.716447-.2698383-.859-.626-1.0400428-2.5508573-1.2438218-5.365948-.582-8.04-2.406.992-4.8 3.947-5.658 5.223-.23112717.3420233-.6486602.5068806-1.05110299.4150138-.40244278-.0918667-.70707976-.4215758-.76689701-.8300138-.549574-3.8024215-.05671819-7.6827106 1.426-11.227-3.396.354-5.526 4.485-5.546 4.534-.19906798.3953223-.63433116.6127517-1.06997175.5344888-.43564058-.078263-.76800666-.4335971-.81702825-.8734888-1.065-9.582 7.46-13.961 7.546-14.01.49401871-.2485281 1.09597186-.0495187 1.3445.4445s.04951871 1.0959719-.4445 1.3445c-.261.131-5.578 2.893-6.424 8.925 1.542-1.7 3.975-3.439 7.171-2.8.31879102.0638858.58662325.2787663.7180984.576127.1314752.2973607.110179.6400767-.0570984.918873-1.40896817 2.7306187-2.11654655 5.7688414-2.059 8.841 1.652-1.878 4.363-4.35 7.198-4.35.346618-.0001616.6685998.1791823.8509316.4739691.1823318.2947867.1990067.6629693.0440684.9730309-.8127898 1.9335218-1.0148247 4.0693688-.579 6.121 1.744-2.654 4.156-5.449 6.132-4.463.4942948.2471474.6946474.8482051.4474999 1.3425-.2471474.4942948-.8482051.6946474-1.3424999.4475-.753-.062-3.006 2.667-4.684 5.6-.1777081.3119383-.5089937.5046793-.868.505z"/><path id="Shape" d="m44.913 58c-.3579708.0007064-.6890149-.1899871-.868-.5-1.66-2.9-3.918-5.595-4.685-5.595h-.025c-.2357526.1181963-.5090293.137024-.758764.0522758-.2497347-.0847481-.4551111-.2660082-.570236-.5032758-.2415955-.4989038-.0364046-1.0993101.46-1.346 1.975-.984 4.389 1.809 6.132 4.463.4358149-2.0527092.2334309-4.189606-.58-6.124-.1539145-.3106046-.1359919-.6787642.0473649-.9729499.1833567-.2941857.5059897-.4724288.8526351-.4710501 2.836 0 5.547 2.474 7.2 4.358.0663761-3.0738398-.6420554-6.1149366-2.06-8.843-.1672774-.2787963-.1885736-.6215123-.0570984-.918873.1314751-.2973607.3993074-.5122412.7180984-.576127 3.2-.64 5.629 1.1 7.171 2.8-.846-6.031-6.163-8.794-6.424-8.925-.3195741-.1607695-.5291032-.4798174-.5496597-.8369614-.0205566-.3571441.1509825-.6981255.45-.8945s.6800856-.2183081.9996597-.0575386c.086.044 8.611 4.423 7.546 14.005-.0490216.4398917-.3813877.7952258-.8170283.8734888-.4356405.0782629-.8709037-.1391665-1.0699717-.5344888-.025-.053-2.156-4.183-5.551-4.538 1.4827182 3.5442894 1.975574 7.4245785 1.426 11.227-.0591615.4098064-.3647585.7407684-.7685583.8323496-.4037997.0915811-.8222756-.0751623-1.0524417-.4193496-.853-1.276-3.252-4.231-5.658-5.223.6618218 2.674052.4580428 5.4891427-.582 8.04-.142553.3561617-.4762942.5993771-.859.626z"/></g><path id="Shape" d="m45 17c0 3.3137085-2.6862915 6-6 6s-6-2.6862915-6-6c-.0044281-1.2230464.3692956-2.4175652 1.07-3.42l.02-.01c2.5697436-1.2842385 5.4527311-1.8081027 8.31-1.51 1.6284421 1.1170079 2.6012156 2.9652776 2.6 4.94z" fill="#26b99a"/><circle id="Oval" cx="39.054" cy="17" fill="#35495e" r="3"/><circle id="Oval" cx="18" cy="15" fill="#ecf0f1" r="2"/><circle id="Oval" cx="36" cy="15" fill="#ecf0f1" r="2"/><path id="Shape" d="m38 39.5c-.0045671 1.1242729-.35357 2.220142-1 3.14-2.19-.64-3.75-1.89-7-1.89s-4.81 1.25-7 1.89c-.64643-.919858-.9954329-2.0157271-1-3.14 0-3.59 3.58-6.5 8-6.5s8 2.91 8 6.5z" fill="#ff5364"/><path id="Shape" d="m26.44 41.33c-.0213311.0141434-.0450471.0243074-.07.03-1.19.41-2.19.93-3.37 1.28-.9743607.2787937-1.9876291.3970084-3 .35-.5652584-.0109077-1.1240278-.1226615-1.65-.33-.02-.01-.03-.02-.05-.03l3.22-3.9c.3853769-.4769346.9720138-.7456729 1.5848728-.72603.6128589.0196429 1.1810827.325396 1.5351272.82603z" fill="#ecf0f1"/><path id="Shape" d="m41.7 42.63c-.034311.0146351-.0677053.0313323-.1.05-.0075808.0010568-.0146061.0045695-.02.01-.5064413.1867276-1.0403626.2881051-1.58.3-1.0123709.0470084-2.0256393-.0712063-3-.35-1.2-.35-2.2-.88-3.4-1.29-.01-.01-.03-.01-.04-.02l1.8-2.5c.3540445-.500634.9222683-.8063871 1.5351272-.82603.612859-.0196429 1.1994959.2490954 1.5848728.72603z" fill="#ecf0f1"/></g></g></svg>