<svg height="512" viewBox="0 0 58 58" width="512" xmlns="http://www.w3.org/2000/svg"><g id="Page-1" fill="none" fill-rule="evenodd"><g id="015---Heart-Eyed" fill-rule="nonzero"><path id="Shape" d="m4.74 16.87c-2.71733022-.5840371-4.67784617-2.9578472-4.73781275-5.7365856-.05996657-2.77873833 1.79631577-5.2349168 4.48592025-5.93563833 2.68960449-.70072154 5.50837858.53746643 6.8118925 2.99222393z" fill="#84b5cb"/><path id="Shape" d="m53.26 16.87c2.7173302-.5840371 4.6778462-2.9578472 4.7378127-5.7365856.0599666-2.77873833-1.7963157-5.2349168-4.4859202-5.93563833-2.6896045-.70072154-5.5083786.53746643-6.8118925 2.99222393z" fill="#84b5cb"/><path id="Shape" d="m4 13c-.44484205.0002923-.8363958-.2932994-.96077371-.7203997s.04832684-.8850124.42377371-1.1236003c.58784239-.55422.87956927-1.3534108.787-2.156 0-.55228475.44771525-1 1-1s1 .44771525 1 1c.135772 1.5005804-.52211079 2.9630899-1.735 3.857-.15539125.0937918-.33349714.1432465-.515.143z" fill="#3b97d3"/><path id="Shape" d="m53.987 13c-.1764221-.000411-.3493557-.0491783-.5-.141-1.2142868-.8938363-1.8730423-2.3573582-1.737-3.859 0-.55228475.4477153-1 1-1s1 .44771525 1 1c-.0956587.80393436.197354 1.6053555.789 2.158.4483198.3070672.5752745.9127471.288 1.374-.1817011.2892173-.4984497.4656915-.84.468z" fill="#3b97d3"/><path id="Shape" d="m58 33c0-13.807-12.984-33-29-33s-29 19.193-29 33 12.984 25 29 25 29-11.193 29-25z" fill="#9fc9d3"/><path id="Shape" d="m41 13.24v.08c0 3.93-2.53 10.7-12 13.68-9.47-2.98-12-9.75-12-13.68v-.08c.03-3.89 2.47-7.24 6-7.24 2.2774763.00021525 4.451806.94967254 6 2.62 1.548194-1.67032746 3.7225237-2.61978475 6-2.62 3.53 0 5.97 3.35 6 7.24z" fill="#df4d60"/><g fill="#84b5cb"><path id="Shape" d="m29 38c-2.884 0-4.922-.79-6.058-2.349-.9398544-1.473682-1.1882843-3.2846627-.68-4.957.1689992-.5260512.7324488-.8154991 1.2585-.6464999.5260512.1689991.8154991.7324487.6465 1.2584999-.3157179 1.0684293-.1707073 2.220176.4 3.177.74 1.007 2.233 1.517 4.433 1.517s3.693-.51 4.434-1.517c.5710235-.9581821.716021-2.111275.4-3.181-.1678946-.5263274.1226726-1.0891054.649-1.257.5263274-.1678945 1.0891054.1226726 1.257.649.5082843 1.6723373.2598544 3.483318-.68 4.957-1.138 1.559-3.176 2.349-6.06 2.349z"/><path id="Shape" d="m14 45c-.5522847 0-1-.4477153-1-1-.0716018-4.3877337 2.5947922-8.3566076 6.684-9.949.5246705-.1756265 1.0923734.1073295 1.2679999.632.1756266.5246705-.1073294 1.0923734-.6319999 1.268-3.3012139 1.2828289-5.4336365 4.5091201-5.32 8.049 0 .5522847-.4477153 1-1 1z"/><path id="Shape" d="m44 45c-.5522847 0-1-.4477153-1-1 .1153613-3.5413261-2.0173657-6.7696816-5.32-8.053-.5246705-.1756266-.8076266-.7433295-.632-1.268s.7433295-.8076266 1.268-.632c4.0905987 1.5929024 6.7572887 5.5638127 6.684 9.953 0 .5522847-.4477153 1-1 1z"/></g><circle id="Oval" cx="29" cy="45" fill="#802d40" r="4"/><path id="Shape" d="m30 54h-2c-.5522847 0-1-.4477153-1-1s.4477153-1 1-1h2c.5522847 0 1 .4477153 1 1s-.4477153 1-1 1z" fill="#84b5cb"/><path id="Shape" d="m41 13.24c-1.96 3.97-6.6 6.76-12 6.76s-10.04-2.79-12-6.76c.03-3.89 2.47-7.24 6-7.24 2.2774763.00021525 4.451806.94967254 6 2.62 1.548194-1.67032746 3.7225237-2.61978475 6-2.62 3.53 0 5.97 3.35 6 7.24z" fill="#ff5364"/><ellipse id="Oval" cx="22.5" cy="9.5" fill="#fb7b76" rx="3.5" ry="2.5" transform="matrix(.94 -.341 .341 .94 -1.891 8.235)"/></g></g></svg>