<svg height="512" viewBox="0 0 58 58" width="512" xmlns="http://www.w3.org/2000/svg"><g id="Page-1" fill="none" fill-rule="evenodd"><g id="017---Angry" fill-rule="nonzero" transform="translate(-1 -1)"><path id="Shape" d="m50.51 12.31 2.253-2.253c.6827772-.64770975 1.5767412-1.0266766 2.517-1.067 1.4730653-.11076344 2.765169-1.0243851 3.3606664-2.37626257.5954975-1.35187748.3974358-2.92191189-.5151436-4.08354376-.9125795-1.16163187-2.3911-1.72573616-3.8455228-1.46719367-.9766249.17993365-1.8496063.72121782-2.445 1.516-.4769078.61583645-.7636389 1.35751405-.825 2.134-.0409294.94287065-.4204749 1.83936493-1.069 2.525l-2.1 2.1z" fill="#894b9d"/><path id="Shape" d="m9.49 12.31-2.253-2.253c-.6827772-.64770975-1.57674118-1.0266766-2.517-1.067-.79053239-.06113187-1.54493989-.35634994-2.167-.848-.79110177-.60173932-1.32662862-1.47928932-1.5-2.458-.22498582-1.28983126.19551881-2.60811981 1.12581337-3.52944239.93029457-.92132259 2.25259622-1.32903229 3.54018663-1.09155761.97662492.17993365 1.84960632.72121782 2.445 1.516.47690784.61583645.76363887 1.35751405.825 2.134.04092939.94287065.42047488 1.83936493 1.069 2.525l2.1 2.1z" fill="#894b9d"/><path id="Shape" d="m59 34c0 13.81-12.98 25-29 25s-29-11.19-29-25c0-6.9 3.24-15.16 8.49-21.68v-.01c.85-1.04 1.74-2.04 2.67-2.97 4.92-4.95 11.11-8.34 17.84-8.34 16.02 0 29 19.19 29 33z" fill="#955ba5"/><path id="Shape" d="m33.31 7c2.2086392 1.46083708 3.1984535 4.1968207 2.4357083 6.7326345-.7627451 2.5358139-3.0976653 4.2717536-5.7457083 4.2717536s-4.9829632-1.7359397-5.7457083-4.2717536c-.7627452-2.5358138.2270691-5.27179742 2.4357083-6.7326345z" fill="#ecf0f1"/><circle id="Oval" cx="30" cy="13" fill="#65ddb9" r="4"/><circle id="Oval" cx="24" cy="51" fill="#894b9d" r="3"/><circle id="Oval" cx="36" cy="51" fill="#894b9d" r="3"/><circle id="Oval" cx="30" cy="13" fill="#35495e" r="2"/><path id="Shape" d="m35 8h-10c-.5522847 0-1-.44771525-1-1s.4477153-1 1-1h10c.5522847 0 1 .44771525 1 1s-.4477153 1-1 1z" fill="#894b9d"/><path id="Shape" d="m23.08 19.83c.6045959.94645.9239779 2.0469292.92 3.17.0092578 2.8177394-1.9434783 5.2622923-4.6936375 5.8757786-2.7501593.6134863-5.5566942-.7694018-6.7458461-3.3239387-1.189152-2.5545369-.4404967-5.5923869 1.7994836-7.3018399z" fill="#ecf0f1"/><circle id="Oval" cx="18" cy="24" fill="#65ddb9" r="4"/><circle id="Oval" cx="18" cy="24" fill="#35495e" r="2"/><path id="Shape" d="m45.64 18.25c2.2305381 1.7105799 2.9724564 4.7415808 1.7841789 7.289007-1.1882774 2.5474262-3.9874044 3.9266641-6.7313924 3.3168168s-4.6953978-3.044885-4.6927865-5.8558238c-.0039779-1.1230708.3154041-2.22355.92-3.17z" fill="#ecf0f1"/><path id="Shape" d="m45 38.57s-.68 4.08-8 5.74c-.61.14-1.28.26-2 .36-1.3257854.1846096-2.6616018.2881353-4 .31-.32.02-.66.02-1 .02s-.68 0-1-.02c-1.3383982-.0218647-2.6742146-.1253904-4-.31-.72-.1-1.39-.22-2-.36-7.32-1.66-8-5.74-8-5.74s.13-.21.4-.57c.5145286-.7007507 1.0722788-1.3687151 1.67-2 1.6903932-1.8149786 3.7005849-3.3031306 5.93-4.39.6470022-.3162189 1.3152939-.586877 2-.81 1.2951836-.4256467 2.6393574-.6844001 4-.77.33-.02.66-.03 1-.03s.67.01 1 .03c1.3606426.0855999 2.7048164.3443533 4 .77.6847061.223123 1.3529978.4937811 2 .81 2.2294151 1.0868694 4.2396068 2.5750214 5.93 4.39.5977212.6312849 1.1554714 1.2992493 1.67 2 .27.36.4.57.4.57z" fill="#fff"/><path id="Shape" d="m44.6 38h-7.6v6.31c-.61.14-1.28.26-2 .36v-6.67h-4v6.98c-.32.02-.66.02-1 .02s-.68 0-1-.02v-6.98h-4v6.67c-.72-.1-1.39-.22-2-.36v-6.31h-7.6c.5145286-.7007507 1.0722788-1.3687151 1.67-2h5.93v-4.39c.6470022-.3162189 1.3152939-.586877 2-.81v5.2h4v-5.97c.33-.02.66-.03 1-.03s.67.01 1 .03v5.97h4v-5.2c.6847061.223123 1.3529978.4937811 2 .81v4.39h5.93c.5977212.6312849 1.1554714 1.2992493 1.67 2z" fill="#ecf0f1"/><g fill="#894b9d"><path id="Shape" d="m13.8 54.74c-3.4139761-1.9603347-6.36451615-4.6345814-8.65-7.84 2.29198358-1.5712058 5.3629417-1.3630241 7.4219048.5031344 2.0589631 1.8661584 2.5671115 4.9019299 1.2280952 7.3368656z"/><path id="Shape" d="m54.85 46.9c-2.2854839 3.2054186-5.2360239 5.8796653-8.65 7.84-1.3390163-2.4349357-.8308679-5.4707072 1.2280952-7.3368656 2.0589631-1.8661585 5.1299212-2.0743402 7.4219048-.5031344z"/><path id="Shape" d="m24 21c-.0603599.00011-.1206058-.0052452-.18-.016l-11-2c-.3515493-.0639505-.6422771-.3105926-.762669-.6470185-.1203919-.336426-.0521575-.7115247.179-.984.2311575-.2724754.5901197-.400932.941669-.3369815l11 2c.5093104.0922185.8640825.5578376.8178311 1.0733588-.0462514.5155213-.4782393.910554-.9958311.9106412z"/></g><circle id="Oval" cx="42" cy="24" fill="#65ddb9" r="4"/><circle id="Oval" cx="42" cy="24" fill="#35495e" r="2"/><circle id="Oval" cx="28" cy="11" fill="#ecf0f1" r="2"/><circle id="Oval" cx="16" cy="22" fill="#ecf0f1" r="2"/><circle id="Oval" cx="40" cy="22" fill="#ecf0f1" r="2"/><path id="Shape" d="m36 21c-.5175918-.0000872-.9495797-.3951199-.9958311-.9106412-.0462514-.5155212.3085207-.9811403.8178311-1.0733588l11-2c.5434482-.098859 1.064141.2615518 1.163.805s-.2615518 1.064141-.805 1.163l-11 2c-.0593942.0107548-.1196401.01611-.18.016z" fill="#894b9d"/></g></g></svg>