<svg height="512" viewBox="0 0 60 58" width="512" xmlns="http://www.w3.org/2000/svg"><g id="Page-1" fill="none" fill-rule="evenodd"><g id="021---Not-Amused" fill-rule="nonzero" transform="translate(-1)"><path id="Shape" d="m58.7 37.63c1.6036066 2.4589775 1.7315976 5.5987397.3334575 8.1800821-1.3981402 2.5813423-4.0977933 4.1895592-7.0334575 4.1899179-.3176214.0002552-.6349346-.0197857-.95-.06-11.2065886 10.7467285-28.8934114 10.7467285-40.1 0-.3150654.0402143-.6323786.0602552-.95.06-2.93566421-.0003587-5.63531728-1.6085756-7.03345746-4.1899179-1.39814018-2.5813424-1.27014915-5.7211046.33345746-8.1800821-.86154003-2.7956807-1.29972882-5.7045801-1.3-8.63.00000024-16.0162576 12.9837424-28.99999957 29-28.99999957s28.9999998 12.98374197 29 28.99999957c-.0002712 2.9254199-.43846 5.8343193-1.3 8.63z" fill="#65ddb9"/><path id="Shape" d="m54 43c-.4294448.0001053-.8110071-.2739917-.948-.681-.072-.212-1.827-5.179-6.887-4.333-1.5538474.2485089-3.0701467.6920088-4.513 1.32-2.152.871-4.184 1.694-10.652 1.694s-8.5-.823-10.652-1.694c-1.4428533-.6279912-2.9591526-1.0714911-4.513-1.32-5.067-.844-6.815 4.121-6.887 4.333-.17535041.5246705-.74282949.8078504-1.2675.6325s-.80785041-.7428295-.6325-1.2675c.785-2.356 3.694-6.576 9.114-5.67 1.6997316.2711398 3.3587021.7545862 4.938 1.439 1.964.796 3.821 1.547 9.9 1.547s7.936-.751 9.9-1.547c1.5780249-.6840939 3.2356321-1.1675346 4.934-1.439 5.417-.9 8.329 3.314 9.114 5.67.1015206.3048053.0504155.6398255-.1373651.9004999s-.4893677.4152562-.8106349.4155001z" fill="#802d40"/><path id="Shape" d="m23 25c-.0005537.4966129-.0474233.9920919-.14 1.48-.69-2.55-3.95-4.48-7.86-4.48s-7.17 1.93-7.86 4.48c-.56596308-2.9854179.60824818-6.0337483 3.0307455-7.8680168 2.4224974-1.8342684 5.6750301-2.1377834 8.3950814-.7833997 2.7200513 1.3543836 4.4379969 4.1328281 4.4341731 7.1714165z" fill="#46b29d"/><path id="Shape" d="m22.86 26.48v.01c-.7183301 3.7759506-4.0204717 6.5073515-7.8641412 6.5049064-3.8436694-.0024451-7.14233332-2.738045-7.8558588-6.5149064.69-2.55 3.95-4.48 7.86-4.48s7.17 1.93 7.86 4.48z" fill="#ecf0f1"/><circle id="Oval" cx="15" cy="27" fill="#f0c419" r="5"/><circle id="Oval" cx="15" cy="27" fill="#35495e" r="2"/><path id="Shape" d="m55 25c-.0005537.4966129-.0474233.9920919-.14 1.48-.69-2.55-3.95-4.48-7.86-4.48s-7.17 1.93-7.86 4.48c-.5659631-2.9854179.6082482-6.0337483 3.0307455-7.8680168 2.4224974-1.8342684 5.6750301-2.1377834 8.3950814-.7833997 2.7200513 1.3543836 4.4379969 4.1328281 4.4341731 7.1714165z" fill="#46b29d"/><path id="Shape" d="m54.86 26.48v.01c-.7183301 3.7759506-4.0204717 6.5073515-7.8641412 6.5049064-3.8436694-.0024451-7.1423333-2.738045-7.8558588-6.5149064.69-2.55 3.95-4.48 7.86-4.48s7.17 1.93 7.86 4.48z" fill="#ecf0f1"/><circle id="Oval" cx="47" cy="27" fill="#f0c419" r="5"/><circle id="Oval" cx="47" cy="27" fill="#35495e" r="2"/><path id="Shape" d="m39 13c-.0005537.4966129-.0474233.9920919-.14 1.48-.69-2.55-3.95-4.48-7.86-4.48s-7.17 1.93-7.86 4.48c-.5659631-2.9854179.6082482-6.03374834 3.0307455-7.86801677 2.4224974-1.83426844 5.6750301-2.13778348 8.3950814-.78339978s4.4379969 4.13282815 4.4341731 7.17141655z" fill="#46b29d"/><path id="Shape" d="m38.86 14.48v.01c-.7183301 3.7759506-4.0204717 6.5073515-7.8641412 6.5049064-3.8436694-.0024451-7.1423333-2.738045-7.8558588-6.5149064.69-2.55 3.95-4.48 7.86-4.48s7.17 1.93 7.86 4.48z" fill="#ecf0f1"/><circle id="Oval" cx="31" cy="15" fill="#f0c419" r="5"/><circle id="Oval" cx="31" cy="15" fill="#35495e" r="2"/><g fill="#46b29d"><path id="Shape" d="m34 46h-6c-.5522847 0-1-.4477153-1-1s.4477153-1 1-1h6c.5522847 0 1 .4477153 1 1s-.4477153 1-1 1z"/><path id="Shape" d="m10 51c-3.78924907.0001476-7.17271449-2.373115-8.46273737-5.936014-1.29002289-3.5628991-.21024797-7.5521721 2.70073737-9.977986.42415469-.3537384 1.0547616-.2966547 1.40849998.1275s.29665469 1.0547616-.12749998 1.4085c-1.97714584 1.6501328-2.88856348 4.252622-2.37293489 6.7757492.51562859 2.5231273 2.37502195 4.559371 4.84105106 5.3014925 2.46602913.7421215 5.14039463.0702574 6.96288383-1.7492417.2510745-.2599566.6228779-.3642126.9725073-.2726972.3496295.0915155.6226744.3645604.7141899.7141899.0915154.3496294-.0127406.7214328-.2726972.9725073-1.6841402 1.6933566-3.9757492 2.6425523-6.364 2.636z"/><path id="Shape" d="m52 51c-2.3882508.0065523-4.6798598-.9426434-6.364-2.636-.3789722-.3923789-.3735524-1.0160848.0121814-1.4018186s1.0094397-.3911536 1.4018186-.0121814c1.8224892 1.8194991 4.4968547 2.4913632 6.9628838 1.7492417s4.3254225-2.7783652 4.8410511-5.3014925c.5156286-2.5231272-.3957891-5.1256164-2.3729349-6.7757492-.4241547-.3537384-.4812383-.9843453-.1275-1.4085.3537384-.4241547.9843453-.4812384 1.4085-.1275 2.9109853 2.4258139 3.9907603 6.4150869 2.7007374 9.977986-1.2900229 3.562899-4.6734883 5.9361616-8.4627374 5.936014z"/></g><circle id="Oval" cx="12" cy="25" fill="#ecf0f1" r="2"/><circle id="Oval" cx="28" cy="13" fill="#ecf0f1" r="2"/><circle id="Oval" cx="44" cy="25" fill="#ecf0f1" r="2"/></g></g></svg>