<svg height="512" viewBox="0 0 58 58" width="512" xmlns="http://www.w3.org/2000/svg"><g id="Page-1" fill="none" fill-rule="evenodd"><g id="024---Confused" fill-rule="nonzero"><circle id="Oval" cx="29" cy="29" fill="#65ddb9" r="29"/><path id="Shape" d="m24.96 20.06c1.6546335 2.9196373 1.3111657 6.5616415-.8601272 9.1204658-2.1712928 2.5588243-5.7088263 3.4905009-8.8588457 2.3331452s-5.24287772-4.1577071-5.2410271-7.513611c-.0033452-1.4058126.3695516-2.7869117 1.08-4z" fill="#ecf0f1"/><path id="Shape" d="m46.92 20c.7104484 1.2130883 1.0833452 2.5941874 1.08 4 .0018506 3.3559039-2.0910077 6.3562553-5.2410271 7.513611s-6.6875529.2256791-8.8588457-2.3331452c-2.1712929-2.5588243-2.5147607-6.2008285-.8601272-9.1204658z" fill="#ecf0f1"/><circle id="Oval" cx="20" cy="25" fill="#f0c419" r="5"/><circle id="Oval" cx="20" cy="25" fill="#35495e" r="2"/><circle id="Oval" cx="38" cy="25" fill="#f0c419" r="5"/><circle id="Oval" cx="38" cy="25" fill="#35495e" r="2"/><path id="Shape" d="m14 44.07v-5.07c.0032948-1.1032019.8967981-1.9967052 2-2h4c1.1032019.0032948 1.9967052.8967981 2 2v2.39z" fill="#ecf0f1"/><path id="Shape" d="m10 47c-.44778862.0006537-.84142445-.2964545-.96355033-.7272681-.12212589-.4308136.05703354-.8902964.43855033-1.1247319.542-.333 13.552-8.148 40.525-8.148.5522847 0 1 .4477153 1 1s-.4477153 1-1 1c-26.345 0-39.349 7.774-39.477 7.852-.1571974.0969653-.3383023.1482148-.523.148z" fill="#802d40"/><circle id="Oval" cx="17" cy="23" fill="#ecf0f1" r="2"/><circle id="Oval" cx="35" cy="23" fill="#ecf0f1" r="2"/><g fill="#46b29d"><path id="Shape" d="m23 21h-15c-.55228475 0-1-.4477153-1-1s.44771525-1 1-1h15c1.6568542 0 3-1.3431458 3-3v-5c0-.5522847.4477153-1 1-1s1 .4477153 1 1v5c-.0033061 2.7600532-2.2399468 4.9966939-5 5z"/><path id="Shape" d="m50 21h-15c-2.7600532-.0033061-4.9966939-2.2399468-5-5v-5c0-.5522847.4477153-1 1-1s1 .4477153 1 1v5c0 1.6568542 1.3431458 3 3 3h15c.5522847 0 1 .4477153 1 1s-.4477153 1-1 1z"/></g></g></g></svg>