<svg height="512" viewBox="0 0 58 58" width="512" xmlns="http://www.w3.org/2000/svg"><g id="Page-1" fill="none" fill-rule="evenodd"><g id="026---Zombie" fill-rule="nonzero"><path id="Shape" d="m58 33c0 13.81-12.98 25-29 25s-29-11.19-29-25c0-5.66 2.18-12.22 5.86-18 .43-.68.88-1.35 1.36-2 5.31-7.36 13.1-13 21.78-13s16.47 5.64 21.78 13c.48.65.93 1.32 1.36 2 3.68 5.78 5.86 12.34 5.86 18z" fill="#71c285"/><path id="Shape" d="m52.14 15h-46.28c.43-.68.88-1.35 1.36-2h43.56c.48.65.93 1.32 1.36 2z" fill="#4c8056"/><g fill="#5f5346"><path id="Shape" d="m13 17c-.5522847 0-1-.4477153-1-1v-4c0-.5522847.4477153-1 1-1s1 .4477153 1 1v4c0 .5522847-.4477153 1-1 1z"/><path id="Shape" d="m17 17c-.5522847 0-1-.4477153-1-1v-4c0-.5522847.4477153-1 1-1s1 .4477153 1 1v4c0 .5522847-.4477153 1-1 1z"/><path id="Shape" d="m21 17c-.5522847 0-1-.4477153-1-1v-4c0-.5522847.4477153-1 1-1s1 .4477153 1 1v4c0 .5522847-.4477153 1-1 1z"/><path id="Shape" d="m25 17c-.5522847 0-1-.4477153-1-1v-4c0-.5522847.4477153-1 1-1s1 .4477153 1 1v4c0 .5522847-.4477153 1-1 1z"/><path id="Shape" d="m29 17c-.5522847 0-1-.4477153-1-1v-4c0-.5522847.4477153-1 1-1s1 .4477153 1 1v4c0 .5522847-.4477153 1-1 1z"/><path id="Shape" d="m33 17c-.5522847 0-1-.4477153-1-1v-4c0-.5522847.4477153-1 1-1s1 .4477153 1 1v4c0 .5522847-.4477153 1-1 1z"/><path id="Shape" d="m37 17c-.5522847 0-1-.4477153-1-1v-4c0-.5522847.4477153-1 1-1s1 .4477153 1 1v4c0 .5522847-.4477153 1-1 1z"/><path id="Shape" d="m41 17c-.5522847 0-1-.4477153-1-1v-4c0-.5522847.4477153-1 1-1s1 .4477153 1 1v4c0 .5522847-.4477153 1-1 1z"/><path id="Shape" d="m45 17c-.5522847 0-1-.4477153-1-1v-4c0-.5522847.4477153-1 1-1s1 .4477153 1 1v4c0 .5522847-.4477153 1-1 1z"/></g><path id="Shape" d="m16 41h2c1.1045695 0 2 .8954305 2 2v4h-6v-4c0-1.1045695.8954305-2 2-2z" fill="#f5efca"/><path id="Shape" d="m40 41h2c1.1045695 0 2 .8954305 2 2v4h-6v-4c0-1.1045695.8954305-2 2-2z" fill="#f5efca"/><path id="Shape" d="m46 48h-34c-.5522847 0-1-.4477153-1-1s.4477153-1 1-1h34c.5522847 0 1 .4477153 1 1s-.4477153 1-1 1z" fill="#802d40"/><path id="Shape" d="m26 28c-.000553 1.7013746-.5435092 3.3582667-1.55 4.73v.01c-1.5098875 2.0497631-3.9041624 3.2598295-6.45 3.2598295s-4.9401125-1.2100664-6.45-3.2598295v-.01c-1.0064908-1.3717333-1.549447-3.0286254-1.55-4.73-.0033452-1.4058126.3695516-2.7869117 1.08-4l3.3.01 7.3.04 3.28.01c.6826978 1.200832 1.0411119 2.55867 1.04 3.94z" fill="#2c3e50"/><path id="Shape" d="m48 28c-.000553 1.7013746-.5435092 3.3582667-1.55 4.73v.01c-1.5098875 2.0497631-3.9041624 3.2598295-6.45 3.2598295s-4.9401125-1.2100664-6.45-3.2598295v-.01c-1.863473-2.5370564-2.0631735-5.9319644-.51-8.67l3.28-.01 7.3-.04 3.3-.01c.7104484 1.2130883 1.0833452 2.5941874 1.08 4z" fill="#2c3e50"/><path id="Shape" d="m25 30c-.0007108.9374458-.1876631 1.8654092-.55 2.73v.01c-1.5098875 2.0497631-3.9041624 3.2598295-6.45 3.2598295s-4.9401125-1.2100664-6.45-3.2598295v-.01c-.3623369-.8645908-.5492892-1.7925542-.55-2.73-.0017235-2.4512418 1.280859-4.724221 3.38-5.99l7.3.04c2.0649833 1.272076 3.3218809 3.5246485 3.32 5.95z" fill="#35495e"/><path id="Shape" d="m47 30c-.0007108.9374458-.1876631 1.8654092-.55 2.73v.01c-1.5098875 2.0497631-3.9041624 3.2598295-6.45 3.2598295s-4.9401125-1.2100664-6.45-3.2598295v-.01c-.3623369-.8645908-.5492892-1.7925542-.55-2.73-.0018809-2.4253515 1.2550167-4.677924 3.32-5.95l7.3-.04c2.099141 1.265779 3.3817235 3.5387582 3.38 5.99z" fill="#35495e"/><path id="Shape" d="m23 25h-15c-.55228475 0-1-.4477153-1-1s.44771525-1 1-1h15c1.6568542 0 3-1.3431458 3-3v-1c0-.5522847.4477153-1 1-1s1 .4477153 1 1v1c-.0033061 2.7600532-2.2399468 4.9966939-5 5z" fill="#4c8056"/><path id="Shape" d="m50 25h-15c-2.7600532-.0033061-4.9966939-2.2399468-5-5v-1c0-.5522847.4477153-1 1-1s1 .4477153 1 1v1c0 1.6568542 1.3431458 3 3 3h15c.5522847 0 1 .4477153 1 1s-.4477153 1-1 1z" fill="#4c8056"/><ellipse id="Oval" cx="15.5" cy="27" fill="#3f5c6c" rx="2.5" ry="2"/><ellipse id="Oval" cx="37.5" cy="27" fill="#3f5c6c" rx="2.5" ry="2"/></g></g></svg>