<svg height="512" viewBox="0 0 58 58" width="512" xmlns="http://www.w3.org/2000/svg"><g id="Page-1" fill="none" fill-rule="evenodd"><g id="029---Heart-Eyed" fill-rule="nonzero"><circle id="Oval" cx="29" cy="29" fill="#9fc9d3" r="29"/><path id="Shape" d="m27 16.58c0 .16-.01.32-.02.5-.2 3.03-2.26 7.77-8.98 9.92-6.72-2.15-8.78-6.89-8.98-9.92-.01-.18-.02-.34-.02-.5 0-2.99 1.84-5.58 4.5-5.58 1.7144034.0046813 3.3476982.7305902 4.5 2 1.1523018-1.2694098 2.7855966-1.9953187 4.5-2 2.66 0 4.5 2.59 4.5 5.58z" fill="#df4d60"/><path id="Shape" d="m49 16.58c0 .16-.01.32-.02.5-.2 3.03-2.26 7.77-8.98 9.92-6.72-2.15-8.78-6.89-8.98-9.92-.01-.18-.02-.34-.02-.5 0-2.99 1.84-5.58 4.5-5.58 1.7144034.0046813 3.3476982.7305902 4.5 2 1.1523018-1.2694098 2.7855966-1.9953187 4.5-2 2.66 0 4.5 2.59 4.5 5.58z" fill="#df4d60"/><path id="Shape" d="m41 36c0 2.33-2.65 4.35-6.53 5.34-3.5935897.8798956-7.3464103.8798956-10.94 0-3.88-.99-6.53-3.01-6.53-5.34 0-3.31 5.37-6 12-6s12 2.69 12 6z" fill="#802d40"/><path id="Shape" d="m27 16.58c0 .16-.01.32-.02.5-1.62 2.32-5.04 3.92-8.98 3.92s-7.36-1.6-8.98-3.92c-.01-.18-.02-.34-.02-.5 0-2.99 1.84-5.58 4.5-5.58 1.7144034.0046813 3.3476982.7305902 4.5 2 1.1523018-1.2694098 2.7855966-1.9953187 4.5-2 2.66 0 4.5 2.59 4.5 5.58z" fill="#ff5364"/><path id="Shape" d="m49 16.58c0 .16-.01.32-.02.5-1.62 2.32-5.04 3.92-8.98 3.92s-7.36-1.6-8.98-3.92c-.01-.18-.02-.34-.02-.5 0-2.99 1.84-5.58 4.5-5.58 1.7144034.0046813 3.3476982.7305902 4.5 2 1.1523018-1.2694098 2.7855966-1.9953187 4.5-2 2.66 0 4.5 2.59 4.5 5.58z" fill="#ff5364"/><ellipse id="Oval" cx="13.468" cy="14.041" fill="#fb7b76" rx="2.5" ry="2" transform="matrix(.963 -.269 .269 .963 -3.282 4.143)"/><ellipse id="Oval" cx="35.468" cy="14.041" fill="#fb7b76" rx="2.5" ry="2" transform="matrix(.963 -.269 .269 .963 -2.47 10.064)"/><path id="Shape" d="m35 39.5c-.0029855.6505622-.1864606 1.2875321-.53 1.84-3.5935897.8798956-7.3464103.8798956-10.94 0-.3435394-.5524679-.5270145-1.1894378-.53-1.84 0-2.49 2.69-4.5 6-4.5s6 2.01 6 4.5z" fill="#ff5364"/><g fill="#ecf0f1"><path id="Shape" d="m26.58 41.88c-1.842509-.1701651-3.6491815-.615092-5.36-1.32l.73-1.46c.3557289-.7106718 1.0984818-1.1432933 1.8921441-1.1020922.7936624.041201 1.4876265.5484061 1.7678559 1.2920922z"/><path id="Shape" d="m36.78 40.56c-1.7108185.704908-3.517491 1.1498349-5.36 1.32l.97-2.59c.2802294-.7436861.9741935-1.2508912 1.7678559-1.2920922.7936623-.0412011 1.5364152.3914204 1.8921441 1.1020922z"/></g></g></g></svg>