<svg height="512" viewBox="0 0 60 59" width="512" xmlns="http://www.w3.org/2000/svg"><g id="Page-1" fill="none" fill-rule="evenodd"><g id="030---Amazed" fill-rule="nonzero" transform="translate(-1)"><path id="Shape" d="m58.7 38.63c1.6036066 2.4589775 1.7315976 5.5987397.3334575 8.1800821-1.3981402 2.5813423-4.0977933 4.1895592-7.0334575 4.1899179-.3176214.0002552-.6349346-.0197857-.95-.06-11.2065886 10.7467285-28.8934114 10.7467285-40.1 0-.3150654.0402143-.6323786.0602552-.95.06-2.93566421-.0003587-5.63531728-1.6085756-7.03345746-4.1899179-1.39814018-2.5813424-1.27014915-5.7211046.33345746-8.1800821-.86154003-2.7956807-1.29972882-5.7045801-1.3-8.63-.0042311-3.5741712.65703681-7.117889 1.95-10.45-1.27811238-1.9449336-1.95622772-4.2227056-1.95-6.55-.0006594-4.4051517 2.41236153-8.45653181 6.2860674-10.55409345 3.8737059-2.09756163 8.5852774-1.90405622 12.2739326.50409345 6.7068502-2.59305309 14.1381875-2.60018147 20.85-.02 4.7443542-3.07481812 10.9913961-2.42103292 14.9963307 1.56944346 4.0049346 3.99047637 4.6813088 10.23511294 1.6236693 14.99055654 1.3100012 3.3487784 1.9782908 6.9141203 1.97 10.51-.0002712 2.9254199-.43846 5.8343193-1.3 8.63z" fill="#e64c3c"/><circle id="Oval" cx="14" cy="13" fill="#ecf0f1" r="8"/><circle id="Oval" cx="31" cy="26" fill="#ecf0f1" r="9"/><circle id="Oval" cx="48" cy="13" fill="#ecf0f1" r="8"/><path id="Shape" d="m54 44c-.4290769-.0003239-.8101246-.2743402-.947-.681-.073-.212-1.822-5.176-6.889-4.333-1.5534643.2487778-3.0693995.6922695-4.512 1.32-2.152.871-4.184 1.694-10.652 1.694s-8.5-.823-10.652-1.694c-1.4426005-.6277305-2.9585357-1.0712222-4.512-1.32-5.069-.844-6.816 4.121-6.889 4.333-.17535041.5246705-.74282949.8078504-1.2675.6325s-.80785041-.7428295-.6325-1.2675c.785-2.356 3.705-6.567 9.112-5.67 1.7007288.2710089 3.3607079.7544556 4.941 1.439 1.964.796 3.822 1.547 9.9 1.547s7.936-.751 9.9-1.547c1.5783826-.6840646 3.2363166-1.1675028 4.935-1.439 5.4-.9 8.327 3.314 9.112 5.67.1014653.3046381.050475.6394696-.1370723.900095s-.4888369.4153403-.8099277.415905z" fill="#802d40"/><path id="Shape" d="m34 47h-6c-.5522847 0-1-.4477153-1-1s.4477153-1 1-1h6c.5522847 0 1 .4477153 1 1s-.4477153 1-1 1z" fill="#c03a2b"/><circle id="Oval" cx="14" cy="13" fill="#65ddb9" r="5"/><circle id="Oval" cx="14" cy="13" fill="#35495e" r="2"/><circle id="Oval" cx="31" cy="26" fill="#65ddb9" r="5"/><circle id="Oval" cx="31" cy="26" fill="#35495e" r="2"/><circle id="Oval" cx="48" cy="13" fill="#65ddb9" r="5"/><circle id="Oval" cx="48" cy="13" fill="#35495e" r="2"/><g fill="#c03a2b"><path id="Shape" d="m10 52c-3.78943236.0005687-7.17328402-2.3725441-8.46356726-5.9355438-1.29028323-3.5629998-.21055896-7.552525 2.70056726-9.9784562.27437997-.2290073.65009144-.2942387.98560752-.1711223.33551609.1231164.57986391.4158764.64100001.768.0611361.3521237-.07022755.7101151-.34460753.9391223-1.97714584 1.6501328-2.88856348 4.252622-2.37293489 6.7757492.51562859 2.5231273 2.37502195 4.559371 4.84105106 5.3014925 2.46602913.7421215 5.14039463.0702574 6.96288383-1.7492417.2510745-.2599566.6228779-.3642126.9725073-.2726972.3496295.0915155.6226744.3645604.7141899.7141899.0915154.3496294-.0127406.7214328-.2726972.9725073-1.6842668 1.6931677-3.9757932 2.6423292-6.364 2.636z"/><path id="Shape" d="m52 52c-2.3882068.0063292-4.6797332-.9428323-6.364-2.636-.3789722-.3923789-.3735524-1.0160848.0121814-1.4018186s1.0094397-.3911536 1.4018186-.0121814c1.8224892 1.8194991 4.4968547 2.4913632 6.9628838 1.7492417s4.3254225-2.7783652 4.8410511-5.3014925c.5156286-2.5231272-.3957891-5.1256164-2.3729349-6.7757492-.4241547-.3540145-.4810145-.9848453-.127-1.409s.9848453-.4810145 1.409-.127c2.9111262 2.4259312 3.9908505 6.4154564 2.7005673 9.9784562-1.2902833 3.5629997-4.6741349 5.9361125-8.4635673 5.9355438z"/><path id="Shape" d="m6.063 23c-.24410575.000381-.47992076-.0885387-.663-.25-3.61849278-3.1942807-5.16935265-8.1304086-4.02791786-12.82018962 1.1414348-4.68978102 4.78724201-8.3611043 9.46894836-9.53521905 4.6817063-1.17411475 9.6285302.34228161 12.8479695 3.93840867.3492722.41322564.3065315 1.02930463-.0964555 1.390342-.402987.36103736-1.0200419.33607148-1.3925445-.056342-2.723462-3.04526625-6.9103225-4.33028838-10.873231-3.33718843-3.96290855.99309994-7.04898089 4.10070998-8.0144962 8.07042933-.9655153 3.9697194.34859388 8.1475417 3.4127272 10.8497591.31199824.2751565.421064.7147277.27387729 1.1038164-.14718671.3890888-.51987979.6464175-.93587729.6461836z"/><path id="Shape" d="m55.882 23c-.4159975.0002339-.7886906-.2570948-.9358773-.6461836-.1471867-.3890887-.0381209-.8286599.2738773-1.1038164 3.0641333-2.7022174 4.3782425-6.8800397 3.4127272-10.8497591-.9655153-3.96971935-4.0515877-7.07732939-8.0144962-8.07042933-3.9629085-.99309995-8.149769.29192218-10.873231 3.33718843-.3697514.40536269-.9970687.43709925-1.4058429.07112289-.4087742-.36597635-.4463269-.99297235-.0841571-1.40512289 3.2194393-3.59612706 8.1662632-5.11252342 12.8479695-3.93840867 4.6817064 1.17411475 8.3275136 4.84543803 9.4689484 9.53521905s-.4094251 9.62590892-4.0279179 12.82018962c-.182821.1612331-.4182386.250137-.662.25z"/></g><circle id="Oval" cx="12" cy="10" fill="#ecf0f1" r="2"/><circle id="Oval" cx="29" cy="23" fill="#ecf0f1" r="2"/><circle id="Oval" cx="46" cy="10" fill="#ecf0f1" r="2"/></g></g></svg>