<svg height="512" viewBox="0 0 58 58" width="512" xmlns="http://www.w3.org/2000/svg"><g id="Page-1" fill="none" fill-rule="evenodd"><g id="034---Heart-Eyed" fill-rule="nonzero"><path id="Shape" d="m58 33c0 13.81-12.98 25-29 25s-29-11.19-29-25c0-5.66 2.18-12.22 5.86-18 .43-.68.88-1.35 1.36-2 5.31-7.36 13.1-13 21.78-13s16.47 5.64 21.78 13c.48.65.93 1.32 1.36 2 3.68 5.78 5.86 12.34 5.86 18z" fill="#65ddb9"/><path id="Shape" d="m52.14 15h-46.28c.43-.68.88-1.35 1.36-2h43.56c.48.65.93 1.32 1.36 2z" fill="#33907c"/><g fill="#46b29d"><path id="Shape" d="m13 17c-.5522847 0-1-.4477153-1-1v-4c0-.5522847.4477153-1 1-1s1 .4477153 1 1v4c0 .5522847-.4477153 1-1 1z"/><path id="Shape" d="m17 17c-.5522847 0-1-.4477153-1-1v-4c0-.5522847.4477153-1 1-1s1 .4477153 1 1v4c0 .5522847-.4477153 1-1 1z"/><path id="Shape" d="m21 17c-.5522847 0-1-.4477153-1-1v-4c0-.5522847.4477153-1 1-1s1 .4477153 1 1v4c0 .5522847-.4477153 1-1 1z"/><path id="Shape" d="m25 17c-.5522847 0-1-.4477153-1-1v-4c0-.5522847.4477153-1 1-1s1 .4477153 1 1v4c0 .5522847-.4477153 1-1 1z"/><path id="Shape" d="m29 17c-.5522847 0-1-.4477153-1-1v-4c0-.5522847.4477153-1 1-1s1 .4477153 1 1v4c0 .5522847-.4477153 1-1 1z"/><path id="Shape" d="m33 17c-.5522847 0-1-.4477153-1-1v-4c0-.5522847.4477153-1 1-1s1 .4477153 1 1v4c0 .5522847-.4477153 1-1 1z"/><path id="Shape" d="m37 17c-.5522847 0-1-.4477153-1-1v-4c0-.5522847.4477153-1 1-1s1 .4477153 1 1v4c0 .5522847-.4477153 1-1 1z"/><path id="Shape" d="m41 17c-.5522847 0-1-.4477153-1-1v-4c0-.5522847.4477153-1 1-1s1 .4477153 1 1v4c0 .5522847-.4477153 1-1 1z"/><path id="Shape" d="m45 17c-.5522847 0-1-.4477153-1-1v-4c0-.5522847.4477153-1 1-1s1 .4477153 1 1v4c0 .5522847-.4477153 1-1 1z"/></g><path id="Shape" d="m13.24 44.9 1.04-2.63c.1913873-.4950617.572795-.8930346 1.0592777-1.1052838.4864828-.2122492 1.0376407-.2211486 1.5307223-.0247162l1.86.73c.4954277.1939301.8931685.5772657 1.1052347 1.0652057.2120663.48794.2209785 1.0402664.0247653 1.5347943l-.94 2.39z" fill="#ecf0f1"/><path id="Shape" d="m39.08 46.862-.94-2.38c-.1962132-.4945279-.187301-1.0468543.0247653-1.5347943.2120662-.48794.609807-.8712756 1.1052347-1.0652057l1.86-.73c1.0272284-.4020486 2.1860261.1035272 2.59 1.13l1.04 2.62z" fill="#ecf0f1"/><path id="Shape" d="m27 25.58c0 2.99-1.9 8.15-9 10.42-7.1-2.27-9-7.43-9-10.42-.00064649-.3851174.02944908-.769672.09-1.15.41-2.47 2.1-4.43 4.41-4.43 1.7144034.0046813 3.3476982.7305902 4.5 2 1.1523018-1.2694098 2.7855966-1.9953187 4.5-2 2.31 0 4 1.96 4.41 4.43.0605509.380328.0906465.7648826.09 1.15z" fill="#df4d60"/><path id="Shape" d="m49 25.58c0 2.99-1.9 8.15-9 10.42-7.1-2.27-9-7.43-9-10.42-.0006465-.3851174.0294491-.769672.09-1.15.41-2.47 2.1-4.43 4.41-4.43 1.7144034.0046813 3.3476982.7305902 4.5 2 1.1523018-1.2694098 2.7855966-1.9953187 4.5-2 2.31 0 4 1.96 4.41 4.43.0605509.380328.0906465.7648826.09 1.15z" fill="#df4d60"/><path id="Shape" d="m29 49c-13.21 0-19.384-5.018-19.64-5.232-.28435232-.2256201-.42411485-.5876116-.36515967-.9457805.05895517-.3581689.30736928-.6562658.64903532-.7788424.34166604-.1225765.72292625-.0503823.99612435.1886229.06.047 5.938 4.768 18.36 4.768s18.3-4.723 18.362-4.77c.4252593-.3529099 1.05609-.2942592 1.409.131.3529099.4252593.2942592 1.05609-.131 1.409-.256.214-6.43 5.23-19.64 5.23z" fill="#802d40"/><path id="Shape" d="m26.91 24.43c-.63 3.15-4.38 5.57-8.91 5.57s-8.28-2.42-8.91-5.57c.41-2.47 2.1-4.43 4.41-4.43 1.7144034.0046813 3.3476982.7305902 4.5 2 1.1523018-1.2694098 2.7855966-1.9953187 4.5-2 2.31 0 4 1.96 4.41 4.43z" fill="#ff5364"/><path id="Shape" d="m48.91 24.43c-.63 3.15-4.38 5.57-8.91 5.57s-8.28-2.42-8.91-5.57c.41-2.47 2.1-4.43 4.41-4.43 1.7144034.0046813 3.3476982.7305902 4.5 2 1.1523018-1.2694098 2.7855966-1.9953187 4.5-2 2.31 0 4 1.96 4.41 4.43z" fill="#ff5364"/><ellipse id="Oval" cx="13.461" cy="23.049" fill="#fb7b76" rx="2.5" ry="2" transform="matrix(.955 -.295 .295 .955 -6.203 5)"/><ellipse id="Oval" cx="35.798" cy="22.95" fill="#fb7b76" rx="2.5" ry="2" transform="matrix(.955 -.295 .295 .955 -5.179 11.588)"/></g></g></svg>