<svg height="512" viewBox="0 0 58 58" width="512" xmlns="http://www.w3.org/2000/svg"><g id="Page-1" fill="none" fill-rule="evenodd"><g id="040---Sad" fill-rule="nonzero"><path id="Shape" d="m3.98 14.32c-2.99-4.44-1.87-10.41-.92-13.63.08978457-.37152331.40443969-.64581242.78473879-.68406736.38029909-.03825494.74327985.16786962.90526121.51406736 1.20796694 2.62994368 3.28915294 4.7605976 5.89 6.03z" fill="#802f34"/><path id="Shape" d="m47.36 6.55c2.6008471-1.2694024 4.6820331-3.40005632 5.89-6.03.1619814-.34619774.5249621-.5523223.9052612-.51406736s.6949542.31254405.7847388.68406736c.95 3.22 2.07 9.19-.92 13.63z" fill="#802f34"/><circle id="Oval" cx="29" cy="29" fill="#e64c3c" r="29"/><path id="Shape" d="m19.31 28c2.2086392-1.4608371 3.1984535-4.1968207 2.4357083-6.7326345-.7627451-2.5358139-3.0976653-4.2717536-5.7457083-4.2717536s-4.9829632 1.7359397-5.7457083 4.2717536c-.76274519 2.5358138.2270691 5.2717974 2.4357083 6.7326345z" fill="#ecf0f1"/><circle id="Oval" cx="16" cy="22" fill="#f0c419" r="4"/><circle id="Oval" cx="16" cy="22" fill="#35495e" r="2"/><path id="Shape" d="m45.31 28c2.2086392-1.4608371 3.1984535-4.1968207 2.4357083-6.7326345-.7627451-2.5358139-3.0976653-4.2717536-5.7457083-4.2717536s-4.9829632 1.7359397-5.7457083 4.2717536c-.7627452 2.5358138.2270691 5.2717974 2.4357083 6.7326345z" fill="#ecf0f1"/><circle id="Oval" cx="42" cy="22" fill="#f0c419" r="4"/><circle id="Oval" cx="42" cy="22" fill="#35495e" r="2"/><path id="Shape" d="m40.46 38.35.82-2.08c.1913873-.4950617.572795-.8930346 1.0592777-1.1052838.4864828-.2122492 1.0376407-.2211486 1.5307223-.0247162l1.86.73c.4954277.1939301.8931685.5772657 1.1052347 1.0652057.2120663.48794.2209785 1.0402664.0247653 1.5347943l-.83 2.12z" fill="#ecf0f1"/><path id="Shape" d="m11.97 40.59-.83-2.12c-.1962132-.4945279-.187301-1.0468543.0247653-1.5347943.2120662-.48794.609807-.8712756 1.1052347-1.0652057l1.86-.73c.4930816-.1964324 1.0442395-.187533 1.5307223.0247162.4864827.2122492.8678904.6102221 1.0592777 1.1052838l.82 2.08z" fill="#ecf0f1"/><path id="Shape" d="m31 43h-4c-.5522847 0-1-.4477153-1-1s.4477153-1 1-1h4c.5522847 0 1 .4477153 1 1s-.4477153 1-1 1z" fill="#c03a2b"/><path id="Shape" d="m32.31 15c2.2086392-1.4608371 3.1984535-4.1968207 2.4357083-6.73263452-.7627451-2.53581383-3.0976653-4.27175355-5.7457083-4.27175355s-4.9829632 1.73593972-5.7457083 4.27175355c-.7627452 2.53581382.2270691 5.27179742 2.4357083 6.73263452z" fill="#ecf0f1"/><circle id="Oval" cx="29" cy="9" fill="#f0c419" r="4"/><circle id="Oval" cx="29" cy="9" fill="#35495e" r="2"/><path id="Shape" d="m21 29h-10c-.5522847 0-1-.4477153-1-1s.4477153-1 1-1h10c.5522847 0 1 .4477153 1 1s-.4477153 1-1 1z" fill="#c03a2b"/><path id="Shape" d="m47 29h-10c-.5522847 0-1-.4477153-1-1s.4477153-1 1-1h10c.5522847 0 1 .4477153 1 1s-.4477153 1-1 1z" fill="#c03a2b"/><path id="Shape" d="m34 16h-10c-.5522847 0-1-.4477153-1-1s.4477153-1 1-1h10c.5522847 0 1 .4477153 1 1s-.4477153 1-1 1z" fill="#c03a2b"/><path id="Shape" d="m50 45c-.3568992-.0003661-.6865505-.190916-.865-.5-.063-.1-4.108-6.5-20.135-6.5-16.231 0-20.1 6.431-20.132 6.5-.27614237.4793832-.88861684.6441424-1.368.368s-.64414237-.8886168-.368-1.368c.175-.3 4.487-7.5 21.868-7.5s21.693 7.2 21.868 7.5c.2737673.4794043.1072509 1.0899643-.372 1.364-.1504281.0883254-.3215597.1352486-.496.136z" fill="#802d40"/><g fill="#ecf0f1"><circle id="Oval" cx="27" cy="7" r="2"/><circle id="Oval" cx="14" cy="20" r="2"/><circle id="Oval" cx="40" cy="20" r="2"/></g></g></g></svg>