<svg height="512" viewBox="0 0 58 58" width="512" xmlns="http://www.w3.org/2000/svg"><g id="Page-1" fill="none" fill-rule="evenodd"><g id="043---Angry" fill-rule="nonzero"><path id="Shape" d="m4.74 16.87c-2.71733022-.5840371-4.67784617-2.9578472-4.73781275-5.7365856-.05996657-2.77873833 1.79631577-5.2349168 4.48592025-5.93563833 2.68960449-.70072154 5.50837858.53746643 6.8118925 2.99222393z" fill="#14a085"/><path id="Shape" d="m53.26 16.87c2.7173302-.5840371 4.6778462-2.9578472 4.7378127-5.7365856.0599666-2.77873833-1.7963157-5.2349168-4.4859202-5.93563833-2.6896045-.70072154-5.5083786.53746643-6.8118925 2.99222393z" fill="#14a085"/><path id="Shape" d="m58 33c0-13.807-12.984-33-29-33s-29 19.193-29 33 12.984 25 29 25 29-11.193 29-25z" fill="#26b99a"/><path id="Shape" d="m4 13c-.4454805.0009968-.83790041-.2928047-.96239487-.7205371-.12449447-.4277324.04896179-.8862361.42539487-1.1244629.58822229-.5535509.88005102-1.35264994.787-2.155 0-.55228475.44771525-1 1-1s1 .44771525 1 1c.135772 1.5005804-.52211079 2.9630899-1.735 3.857-.15539125.0937918-.33349714.1432465-.515.143z" fill="#33907c"/><path id="Shape" d="m53.987 13c-.1763372-.0010159-.3491121-.0497384-.5-.141-1.2142868-.8938363-1.8730423-2.3573582-1.737-3.859 0-.55228475.4477153-1 1-1s1 .44771525 1 1c-.0956587.80393436.197354 1.6053555.789 2.158.448647.3063902.5757113.9121515.288 1.373-.1814628.2895998-.4982538.4664748-.84.469z" fill="#33907c"/><path id="Shape" d="m29 54c12.464 0 17.256-6.393 19.025-10.326.785004-1.7437464.2038165-3.7994122-1.378-4.874-7.206-4.8-17.647-4.8-17.647-4.8s-10.441 0-17.647 4.8c-1.58282921 1.074786-2.1641376 3.1317234-1.378 4.876 1.769 3.931 6.561 10.324 19.025 10.324z" fill="#802d40"/><path id="Shape" d="m40.53 51.51c-3.584597 1.7525719-7.5416262 2.6071255-11.53 2.49-3.9883738.1171255-7.945403-.7374281-11.53-2.49 1.43-3.76 6.05-6.51 11.53-6.51s10.1 2.75 11.53 6.51z" fill="#ff5364"/><g fill="#ecf0f1"><path id="Shape" d="m17.58 40.64-2.73 1.27c-.4999117.2265995-1.0890349.0079098-1.32-.49l-1.44-3.09c1.4369697-.8532361 2.9542495-1.5633096 4.53-2.12l1.44 3.11c.1119911.2386104.1243097.5120053.0342315.7597205-.0900783.2477152-.2751309.4493388-.5142315.5602795z"/><path id="Shape" d="m27 34.1v3.9c0 .5522847-.4477153 1-1 1h-3c-.5522847 0-1-.4477153-1-1v-3.24c1.6525483-.316214 3.3220027-.5365819 5-.66z"/><path id="Shape" d="m45.91 38.33-1.44 3.09c-.2309651.4979098-.8200883.7165995-1.32.49l-2.73-1.27c-.2391006-.1109407-.4241532-.3125643-.5142315-.5602795-.0900782-.2477152-.0777596-.5211101.0342315-.7597205l1.44-3.11c1.5757505.5566904 3.0930303 1.2667639 4.53 2.12z"/><path id="Shape" d="m36 34.76v3.24c0 .5522847-.4477153 1-1 1h-3c-.5522847 0-1-.4477153-1-1v-3.9c1.6779973.1234181 3.3474517.343786 5 .66z"/></g><path id="Shape" d="m25 21c-.0031394 3.1522783-2.4450883 5.7645958-5.59 5.98-.14.01-.27.02-.41.02s-.27-.01-.41-.02c-3.1449117-.2154042-5.5868606-2.8277217-5.59-5.98l2.56-.04 6.81-.1 2.62-.04c.0083116.0596196.0116565.1198266.01.18z" fill="#2c3e50"/><path id="Shape" d="m45 21c-.0031394 3.1522783-2.4450883 5.7645958-5.59 5.98-.14.01-.27.02-.41.02s-.27-.01-.41-.02c-3.1449117-.2154042-5.5868606-2.8277217-5.59-5.98-.0016565-.0601734.0016884-.1203804.01-.18l2.62.04 6.81.1z" fill="#2c3e50"/><path id="Shape" d="m33 31c-.5522847 0-1-.4477153-1-1 .0431461-.8081057-.2590442-1.5964941-.8312751-2.1687249-.5722308-.5722309-1.3606192-.8744212-2.1687249-.8312751-.8090314-.042655-1.5980686.2605376-2.1703622.8339758s-.8739092 1.3630796-.8296378 2.1720242c-.0032997.5499402-.4500499.9940099-1 .994h-.006c-.5499402-.0032997-.9940099-.4500499-.994-1-.0507877-1.3410078.4596689-2.6425 1.4085844-3.5914156.9489156-.9489155 2.2504078-1.4593721 3.5914156-1.4085844 1.3410078-.0507877 2.6425.4596689 3.5914156 1.4085844.9489155.9489156 1.4593721 2.2504078 1.4085844 3.5914156 0 .5522847-.4477153 1-1 1z" fill="#14a085"/><path id="Shape" d="m13 17c-.4304304 0-.8125693-.2754301-.9486833-.6837722-.136114-.4083422.004339-.8579696.3486833-1.1162278 4.443-3.331 10.78-.227 11.047-.095.494571.2465951.6955951.847429.449 1.342-.2465952.494571-.847429.6955951-1.342.449-.054-.029-5.5-2.682-8.954-.1-.172594.1312508-.3831725.2028475-.6.204z" fill="#33907c"/><path id="Shape" d="m45 17c-.2163702 0-.4269038-.0701779-.6-.2-3.45-2.586-8.9.068-8.954.1-.494571.2465951-1.0954048.045571-1.342-.449-.2465951-.494571-.045571-1.0954048.449-1.342.267-.131 6.6-3.236 11.047.095.3408872.2592061.4788872.7066991.3431935 1.1128753-.1356936.4061763-.5149567.6808643-.9431935.6831247z" fill="#33907c"/><path id="Shape" d="m23 23c.0005475 2.050804-1.5499975 3.7697927-3.59 3.98-.14.01-.27.02-.41.02s-.27-.01-.41-.02c-2.0400025-.2102073-3.5905475-1.929196-3.59-3.98.0027349-.7175906.1959878-1.4215835.56-2.04l6.81-.1c.4114095.6379132.6301474 1.3809275.63 2.14z" fill="#35495e"/><path id="Shape" d="m43 23c.0005475 2.050804-1.5499975 3.7697927-3.59 3.98-.14.01-.27.02-.41.02s-.27-.01-.41-.02c-2.0400025-.2102073-3.5905475-1.929196-3.59-3.98-.0001474-.7590725.2185905-1.5020868.63-2.14l6.81.1c.3640122.6184165.5572651 1.3224094.56 2.04z" fill="#35495e"/><path id="Shape" d="m24 22h-12c-.5522847 0-1-.4477153-1-1s.4477153-1 1-1h12c1.1045695 0 2-.8954305 2-2v-2c0-.5522847.4477153-1 1-1s1 .4477153 1 1v2c0 2.209139-1.790861 4-4 4z" fill="#14a085"/><path id="Shape" d="m46 22h-12c-2.209139 0-4-1.790861-4-4v-2c0-.5522847.4477153-1 1-1s1 .4477153 1 1v2c0 1.1045695.8954305 2 2 2h12c.5522847 0 1 .4477153 1 1s-.4477153 1-1 1z" fill="#14a085"/><ellipse id="Oval" cx="17.5" cy="24" fill="#3f5c6c" rx="1.5" ry="1"/><ellipse id="Oval" cx="37.5" cy="24" fill="#3f5c6c" rx="1.5" ry="1"/></g></g></svg>