<svg height="512" viewBox="0 0 58 58" width="512" xmlns="http://www.w3.org/2000/svg"><g id="Page-1" fill="none" fill-rule="evenodd"><g id="045---Sad" fill-rule="nonzero" transform="translate(-1 -1)"><path id="Shape" d="m10.913 6.633c-.4241177-.43785483-.5649706-1.07749717-.364-1.653.510551-1.10316193.3578661-2.39963047-.395-3.354-1.365-1.365-4.377-.573-6.718 1.767s-3.136 5.353-1.768 6.718c.92110175.7356909 2.17398658.9004834 3.254.428.69263867-.1982735 1.43814971.0021451 1.938.521l.232.232c1.01600847 1.0203657 1.16375195 2.6186816.352 3.808-4.036 5.985-6.444 12.95-6.444 18.9 0 13.81 12.98 25 29 25s29-11.19 29-25c0-5.95-2.408-12.915-6.444-18.9-.811752-1.1893184-.6640085-2.7876343.352-3.808l.416-.416c.4379152-.426858 1.0795648-.5693607 1.657-.368 1.1032315.5081476 2.3983739.3535498 3.351-.4 1.364-1.365.572-4.377-1.768-6.718s-5.353-3.129-6.718-1.764c-.7528661.95436953-.905551 2.25083807-.395 3.354.2009706.57550283.0601177 1.21514517-.364 1.653-1.1003554 1.09159884-2.849503 1.16990597-4.043.181-4.195729-3.61224533-9.5095164-5.66584542-15.044-5.814-5.5344836.14815458-10.848271 2.20175467-15.044 5.814-1.193497.98890597-2.9426446.91059884-4.043-.181z" fill="#955ba5"/><path id="Shape" d="m41.46 35.35.82-2.08c.1913873-.4950617.572795-.8930346 1.0592777-1.1052838.4864828-.2122492 1.0376407-.2211486 1.5307223-.0247162l1.86.73c.4954277.1939301.8931685.5772657 1.1052347 1.0652057.2120663.48794.2209785 1.0402664.0247653 1.5347943l-.83 2.12z" fill="#ecf0f1"/><path id="Shape" d="m12.97 37.59-.83-2.12c-.1962132-.4945279-.187301-1.0468543.0247653-1.5347943.2120662-.48794.609807-.8712756 1.1052347-1.0652057l1.86-.73c.4930816-.1964324 1.0442395-.187533 1.5307223.0247162.4864827.2122492.8678904.6102221 1.0592777 1.1052838l.82 2.08z" fill="#ecf0f1"/><path id="Shape" d="m51 42c-.3568992-.0003661-.6865505-.190916-.865-.5-.063-.1-4.108-6.5-20.135-6.5-16.232 0-20.1 6.432-20.132 6.5-.27614239.4793831-.88861683.6441423-1.36799998.368-.47938315-.2761424-.64414236-.8886168-.36800002-1.368.175-.3 4.488-7.5 21.868-7.5s21.693 7.2 21.868 7.5c.2737673.4794043.1072509 1.0899643-.372 1.364-.1504281.0883254-.3215597.1352486-.496.136z" fill="#802d40"/><path id="Shape" d="m32 40h-4c-.5522847 0-1-.4477153-1-1s.4477153-1 1-1h4c.5522847 0 1 .4477153 1 1s-.4477153 1-1 1z" fill="#894b9d"/><path id="Shape" d="m42.6 27.11c-2.41.96-6.35 1.89-12.6 1.89s-10.19-.93-12.6-1.89c-2.850515-5.885577-1.2467644-12.960488 3.8630167-17.041614 5.1097811-4.08112602 12.3641855-4.08112602 17.4739666 0 5.1097811 4.081126 6.7135317 11.156037 3.8630167 17.041614z" fill="#ecf0f1"/><circle id="Oval" cx="30.001" cy="18" fill="#65ddb9" r="7"/><circle id="Oval" cx="30.001" cy="16" fill="#35495e" r="2"/><circle id="Oval" cx="26" cy="13" fill="#ecf0f1" r="2"/></g></g></svg>