<svg height="512" viewBox="0 0 58 59" width="512" xmlns="http://www.w3.org/2000/svg"><g id="Page-1" fill="none" fill-rule="evenodd"><g id="046---Goofy" fill-rule="nonzero" transform="translate(-1)"><path id="Shape" d="m18.29 3.17c7.4593361-3.29332278 15.9606639-3.29332278 23.42 0l14.39 13.87c5.9046383 12.1915523 2.5825833 26.8467252-8.0019632 35.3004862s-25.6115271 8.453761-36.1960736 0c-10.58454651-8.453761-13.90660146-23.1089339-8.0019632-35.3004862z" fill="#f0c419"/><path id="Shape" d="m30 53c22.218 0 24.287-17 24.2-24.021-.0064199-.4097357-.26217-.7740883-.6453366-.9193741-.3831665-.1452858-.8161945-.0420983-1.0926634.2603741-2.441 2.666-8.438 6.68-22.462 6.68s-20.021-4.014-22.457-6.68c-.27646887-.3024724-.7094969-.4056599-1.09266343-.2603741s-.63891667.5096384-.64533657.9193741c-.092 7.021 1.977 24.021 24.195 24.021z" fill="#802d40"/><path id="Shape" d="m42.66 50.48c-3.9759577 1.7839871-8.3039578 2.6454848-12.66 2.52-4.3560422.1254848-8.6840423-.7360129-12.66-2.52 1.35-4.86 6.5-8.48 12.66-8.48s11.31 3.62 12.66 8.48z" fill="#ff5364"/><path id="Shape" d="m20.63 34.28c-1.1852993 1.5757499-2.0391339 3.3752658-2.51 5.29-.244076.7831514-.9338967 1.3436341-1.750427 1.4222306-.8165304.0785965-1.6005953-.3400148-1.989573-1.0622306-1.1979088-2.4167252-1.6371256-5.1391719-1.26-7.81 2.4020042 1.0344469 4.9254516 1.760232 7.51 2.16z" fill="#ecf0f1"/><path id="Shape" d="m45.62 39.93c-.3889777.7222158-1.1730426 1.1408271-1.989573 1.0622306-.8165303-.0785965-1.506351-.6390792-1.750427-1.4222306-.4708661-1.9147342-1.3247007-3.7142501-2.51-5.29 2.5845484-.399768 5.1079958-1.1255531 7.51-2.16.3771256 2.6708281-.0620912 5.3932748-1.26 7.81z" fill="#ecf0f1"/><path id="Shape" d="m19.39 15.43c.3077875 1.7293764 1.015624 3.3628452 2.067 4.77.7735344 1.0497649.560128 2.5262343-.479 3.314-1.0387026.7648045-2.4961658.571801-3.3-.437-1.2842338-1.6469019-3.1139128-2.7815866-5.16-3.2h-.018z" fill="#f3d55b"/><path id="Shape" d="m40.61 15.43c-.3077875 1.7293764-1.015624 3.3628452-2.067 4.77-.7735344 1.0497649-.560128 2.5262343.479 3.314 1.0387026.7648045 2.4961658.571801 3.3-.437 1.2842338-1.6469019 3.1139128-2.7815866 5.16-3.2h.02z" fill="#f3d55b"/><path id="Shape" d="m5.99 1.35c1.51993913-.88822331 3.24956335-1.35428972 5.01-1.35 5.5228475 0 10 4.4771525 10 10s-4.4771525 10-10 10-10-4.4771525-10-10c-.00428972-1.76043665.46177668-3.49006087 1.35-5.01z" fill="#ecf0f1"/><circle id="Oval" cx="8" cy="7" fill="#e64c3c" r="6"/><circle id="Oval" cx="7" cy="5" fill="#35495e" r="2"/><path id="Shape" d="m57.65 4.99c.8882233 1.51993913 1.3542897 3.24956335 1.35 5.01 0 5.5228475-4.4771525 10-10 10s-10-4.4771525-10-10 4.4771525-10 10-10c1.7604367-.00428972 3.4900609.46177669 5.01 1.35z" fill="#ecf0f1"/><circle id="Oval" cx="52" cy="7" fill="#e64c3c" r="6"/><circle id="Oval" cx="53" cy="5" fill="#35495e" r="2"/><g fill="#ecf0f1"><circle id="Oval" cx="9" cy="4" r="1"/><circle id="Oval" cx="55" cy="4" r="1"/></g></g></g></svg>