<svg height="512" viewBox="0 0 58 58" width="512" xmlns="http://www.w3.org/2000/svg"><g id="Page-1" fill="none" fill-rule="evenodd"><g id="047---Amazed" fill-rule="nonzero" transform="translate(-4)"><path id="Shape" d="m19.61 4.56c3.8838866-2.86905512 8.5623185-4.46230748 13.39-4.56 4.844875.0972222 9.5390817 1.70157132 13.43 4.59l13.7 18.52v.01c1.1789858 3.1634917 1.8113358 6.5044637 1.87 9.88 0 13.81-12.98 25-29 25s-29-11.19-29-25c.05591759-3.3906401.69525837-6.7463335 1.89-9.92z" fill="#26b99a"/><ellipse id="Oval" cx="13.435" cy="14.549" fill="#ecf0f1" rx="11.883" ry="9.004" transform="matrix(.362 -.932 .932 .362 -4.995 21.797)"/><ellipse id="Oval" cx="52.566" cy="14.604" fill="#ecf0f1" rx="9.004" ry="11.883" transform="matrix(.932 -.362 .362 .932 -1.719 20.046)"/><ellipse id="Oval" cx="13.175" cy="13.853" fill="#e64c3c" rx="6" ry="5" transform="matrix(.401 -.916 .916 .401 -4.795 20.376)"/><ellipse id="Oval" cx="52.825" cy="13.853" fill="#e64c3c" rx="5" ry="6" transform="matrix(.916 -.401 .401 .916 -1.126 22.317)"/><path id="Shape" d="m12.348 15.7c-.3464401-.000185-.6681037-.1796678-.8501945-.4743943-.1820909-.2947265-.1986643-.6627032-.0438055-.9726057l1-2c.2493412-.4893845.8467164-.6860743 1.3380295-.440555.491313.2455192.6926529.8413432.4509705 1.334555l-1 2c-.1694246.3390516-.515974.5531766-.895.553z" fill="#35495e"/><path id="Shape" d="m53.652 15.7c-.3808256.0020788-.7297741-.2123306-.9-.553l-1-2c-.2416824-.4932118-.0403425-1.0890358.4509705-1.334555.4913131-.2455193 1.0886883-.0488295 1.3380295.440555l1 2c.1548588.3099025.1382854.6778792-.0438055.9726057-.1820908.2947265-.5037544.4742093-.8501945.4743943z" fill="#35495e"/><path id="Shape" d="m46.92 33.71c-.1047511.7934664-.4543071 1.5345251-1 2.12-.7900875.7444226-1.8344573 1.1593092-2.92 1.16-1.7583254-.0146179-3.4946497-.3925238-5.1-1.11-.44-.17-.87-.35-1.3-.53-1.1462635-.4443698-2.3715768-.6485887-3.6-.6-1.2284232-.0485887-2.4537365.1556302-3.6.6-.43.18-.86.36-1.3.53-1.6053503.7174762-3.3416746 1.0953821-5.1 1.11-1.0855427-.0006908-2.1299125-.4155774-2.92-1.16-.5456929-.5854749-.8952489-1.3265336-1-2.12-.1993663-2.0908421.2585779-4.1917923 1.31-6.01 2.4274222-4.7277816 7.2954636-7.7005483 12.61-7.7005483s10.1825778 2.9727667 12.61 7.7005483c1.0514221 1.8182077 1.5093663 3.9191579 1.31 6.01z" fill="#802d40"/><path id="Shape" d="m34 40h-2c-.5522847 0-1-.4477153-1-1s.4477153-1 1-1h2c.5522847 0 1 .4477153 1 1s-.4477153 1-1 1z" fill="#14a085"/><path id="Shape" d="m39 33c-.0073435 1.0612434-.3980078 2.0840738-1.1 2.88-.44-.17-.87-.35-1.3-.53-1.1462635-.4443698-2.3715768-.6485887-3.6-.6-1.2284232-.0485887-2.4537365.1556302-3.6.6-.43.18-.86.36-1.3.53-.7019922-.7959262-1.0926565-1.8187566-1.1-2.88 0-2.76 2.69-5 6-5s6 2.24 6 5z" fill="#ff5364"/><g fill="#ecf0f1"><path id="Shape" d="m29.44 35.33c-.01.01-.03.01-.04.02-1.9896462 1.0030214-4.1731759 1.5625509-6.4 1.64-.5839851-.0144222-1.1602977-.1364649-1.7-.36l3.22-3.9c.3853769-.4769346.9720138-.7456729 1.5848728-.72603.6128589.0196429 1.1810827.325396 1.5351272.82603z"/><path id="Shape" d="m44.7 36.63c-.5397023.2235351-1.1160149.3455778-1.7.36-2.2268241-.0774491-4.4103538-.6369786-6.4-1.64-.01-.01-.03-.01-.04-.02l1.8-2.5c.3540445-.500634.9222683-.8063871 1.5351272-.82603.612859-.0196429 1.1994959.2490954 1.5848728.72603z"/><circle id="Oval" cx="11" cy="10" r="2"/><circle id="Oval" cx="49" cy="10" r="2"/></g></g></g></svg>