<svg height="512" viewBox="0 0 58 58" width="512" xmlns="http://www.w3.org/2000/svg"><g id="Page-1" fill="none" fill-rule="evenodd"><g id="048---Happy" fill-rule="nonzero"><circle id="Oval" cx="29" cy="29" fill="#955ba5" r="29"/><circle id="Oval" cx="16" cy="23" fill="#ecf0f1" r="11"/><circle id="Oval" cx="42" cy="23" fill="#ecf0f1" r="11"/><circle id="Oval" cx="16" cy="20" fill="#f0c419" r="8"/><circle id="Oval" cx="16" cy="18" fill="#2c3e50" r="5"/><circle id="Oval" cx="42" cy="20" fill="#f0c419" r="8"/><circle id="Oval" cx="10" cy="24" fill="#ecf0f1" r="3"/><circle id="Oval" cx="36" cy="24" fill="#ecf0f1" r="3"/><circle id="Oval" cx="42" cy="18" fill="#2c3e50" r="5"/><path id="Shape" d="m43.89 37c.2811919-.0010911.5498495.1162574.7401348.3232879.1902853.2070304.2846124.4846091.2598652.7647121-.325 3.751-2.412 15.912-15.945 15.912s-15.619-12.161-15.945-15.912c-.0247472-.280103.0695799-.5576817.2598652-.7647121.1902853-.2070305.4589429-.324379.7401348-.3232879z" fill="#802d40"/><path id="Shape" d="m18.515 37 2.56 4.48c.1775612.3133105.509873.5069483.87.5069483s.6924388-.1936378.87-.5069483l2.56-4.48z" fill="#ecf0f1"/><path id="Shape" d="m32.515 37 2.56 4.48c.1775612.3133105.509873.5069483.87.5069483s.6924388-.1936378.87-.5069483l2.56-4.48z" fill="#ecf0f1"/><path id="Shape" d="m36.39 52.42c-2.3238722 1.0966328-4.8710172 1.6375587-7.44 1.58-2.5689828.0575587-5.1161278-.4833672-7.44-1.58 1.4104053-2.793897 4.3118085-4.5175801 7.44-4.42 3.1281915-.0975801 6.0295947 1.626103 7.44 4.42z" fill="#ff5364"/></g></g></svg>