<svg xmlns="http://www.w3.org/2000/svg" viewBox="0 0 64 64"><defs><style>.a{fill:#ffd42a;}.b{fill:#ffbc2a;}.c{fill:#0085a6;}.d,.e{fill:none;stroke-linecap:round;stroke-linejoin:round;stroke-width:4px;}.d{stroke:#1a1a1a;}.e{stroke:#ffbc2a;}</style></defs><circle class="a" cx="32" cy="32" r="30.45"/><path class="b" d="M11.33,9.68A30.42,30.42,0,1,0,58.47,47q-.84.8-1.74,1.53c-.8.63-1.62,1.22-2.48,1.77s-1.73,1-2.64,1.52a20.61,20.61,0,0,1-2.77,1.24,29.9,29.9,0,0,1-2.89,1q-1.48.41-3,.66a27.31,27.31,0,0,1-3,.37c-.72,0-1.44.08-2.16.08a29.83,29.83,0,0,1-3-.15c-1-.11-2-.26-3-.46a29.63,29.63,0,0,1-2.95-.75,28.76,28.76,0,0,1-2.86-1,27.6,27.6,0,0,1-2.74-1.32,27.81,27.81,0,0,1-2.6-1.59C19.8,49.25,19,48.65,18.22,48A29.19,29.19,0,0,1,16,45.92c-.71-.73-1.37-1.49-2-2.28a27.08,27.08,0,0,1-1.76-2.48,28.68,28.68,0,0,1-1.52-2.64c-.46-.91-.87-1.83-1.24-2.78a29,29,0,0,1-1-2.89,28.21,28.21,0,0,1-.67-3q-.25-1.5-.36-3c-.06-.71-.08-1.43-.08-2.15q0-1.5.15-3t.45-3c.2-1,.46-2,.76-3s.65-1.92,1-2.86a21.59,21.59,0,0,1,1.33-2.74l.24-.39Z"/><path class="c" d="M23.68,61.25V21.55h-11V55.48A30.26,30.26,0,0,0,23.68,61.25Z"/><path class="c" d="M49.75,56.68V21.55h-11v40.1A30.44,30.44,0,0,0,49.75,56.68Z"/><path class="d" d="M11.55,21.55h13.9"/><path class="d" d="M36.94,21.55H50.83"/><path class="e" d="M35.92,48.13s-4.87-1.83-8.66.22"/><path class="d" d="M19.36,41.55a5.63,5.63,0,0,1,5.88-.06c2.9,1.89,6.69-2.4,9.59-1.39s4.49,3.6,8.72.82"/></svg>