<svg xmlns="http://www.w3.org/2000/svg" viewBox="0 0 64 64"><defs><style>.a{fill:#ffd42a;}.b{fill:#ffbc2a;}.c,.d,.e{fill:none;stroke-linecap:round;stroke-linejoin:round;stroke-width:4px;}.c{stroke:#1a1a1a;}.d{stroke:#ffbc2a;}.e{stroke:#fff;}.f{fill:#1a1a1a;}.g{fill:#009cb3;}</style></defs><circle class="a" cx="32" cy="32" r="30.45"/><path class="b" d="M11.33,9.68A30.43,30.43,0,1,0,58.47,47c-.56.53-1.14,1-1.74,1.52a26.5,26.5,0,0,1-2.47,1.77c-.86.55-1.74,1.06-2.64,1.52s-1.83.87-2.78,1.24A29.64,29.64,0,0,1,46,54a30.33,30.33,0,0,1-3,.67c-1,.17-2,.29-3,.37-.72.05-1.43.07-2.15.07-1,0-2,0-3-.15s-2-.25-3-.45-2-.46-3-.76-1.92-.65-2.86-1-1.85-.84-2.74-1.33a26.42,26.42,0,0,1-2.59-1.59A27,27,0,0,1,18.2,48,29.8,29.8,0,0,1,14,43.6c-.63-.79-1.22-1.62-1.77-2.47s-1-1.74-1.51-2.64-.88-1.84-1.25-2.78a29.64,29.64,0,0,1-1-2.89,30.28,30.28,0,0,1-.66-3,28,28,0,0,1-.37-3c-.05-.72-.08-1.43-.08-2.15a28,28,0,0,1,.16-3,30.33,30.33,0,0,1,.45-3,29.63,29.63,0,0,1,.75-2.95,28.76,28.76,0,0,1,1-2.86,27.6,27.6,0,0,1,1.32-2.74l.24-.4Z"/><path class="c" d="M42.64,33.5s5.43-3.16,6.32-.13-8,7.7-18.31,7.7-12.76-1.13-12.76-1.13"/><path class="c" d="M16,34.22s3.29,7.07-1.64,11.23"/><path class="d" d="M37,47.54s-4.87-1.83-8.67.22"/><path class="e" d="M15.49,18.72s8.4-4.35,13.64.89"/><path class="e" d="M38.48,18.72s8.39-4.35,13.63.89"/><ellipse class="f" cx="25.53" cy="17.92" rx="2.67" ry="2.63"/><ellipse class="f" cx="47.17" cy="16.89" rx="2.67" ry="2.63"/><path class="g" d="M16.41,27.4A3.69,3.69,0,0,1,9,27.4c0-2,1.66-7.2,3.69-7.2S16.41,25.37,16.41,27.4Z"/></svg>