<svg xmlns="http://www.w3.org/2000/svg" viewBox="0 0 64 64"><defs><style>.a{fill:#ffd42a;}.b{fill:#ffbc2a;}.c{fill:#fff;}.d{fill:#1a1a1a;}.e{fill:#ff8080;}.f{fill:none;stroke:#ffbc2a;stroke-linecap:round;stroke-linejoin:round;stroke-width:4px;}</style></defs><circle class="a" cx="32" cy="32" r="30.45"/><path class="b" d="M11.33,9.68A30.43,30.43,0,1,0,58.47,47c-.56.53-1.14,1-1.74,1.52a26.5,26.5,0,0,1-2.47,1.77c-.86.55-1.74,1.06-2.64,1.52s-1.83.87-2.78,1.24A29.64,29.64,0,0,1,46,54a30.33,30.33,0,0,1-3,.67c-1,.17-2,.29-3,.37-.72.05-1.43.07-2.15.07-1,0-2,0-3-.15a28.05,28.05,0,0,1-3-.46,29.63,29.63,0,0,1-3-.75c-1-.3-1.92-.65-2.86-1s-1.85-.84-2.74-1.33a26.42,26.42,0,0,1-2.59-1.59A27,27,0,0,1,18.2,48,29.8,29.8,0,0,1,14,43.6c-.63-.79-1.22-1.62-1.77-2.47s-1-1.74-1.51-2.64-.88-1.84-1.25-2.78a29.64,29.64,0,0,1-1-2.89,30.28,30.28,0,0,1-.66-3,28,28,0,0,1-.37-3c-.05-.72-.08-1.43-.08-2.15a28,28,0,0,1,.16-3,30.33,30.33,0,0,1,.45-3,29.63,29.63,0,0,1,.75-2.95,28.76,28.76,0,0,1,1-2.86,27.6,27.6,0,0,1,1.32-2.74l.24-.4Z"/><rect class="c" x="12.96" y="13.65" width="15.53" height="12.12" rx="6.06"/><ellipse class="d" cx="28.07" cy="19.71" rx="2.67" ry="2.63"/><rect class="c" x="37.08" y="13.65" width="15.53" height="12.12" rx="6.06"/><ellipse class="d" cx="52.63" cy="19.71" rx="2.67" ry="2.63"/><path class="d" d="M47.11,32.72v1.22a3.38,3.38,0,0,1-.26,1.32,3.49,3.49,0,0,1-.73,1.08,3.33,3.33,0,0,1-1.08.73,3.41,3.41,0,0,1-1.32.26H34.57V51.6a6.94,6.94,0,0,0,7,7,7.26,7.26,0,0,0,7-7V36.66A6.78,6.78,0,0,0,47.11,32.72Z"/><path class="e" d="M34.57,37.33h9.15A3.41,3.41,0,0,0,45,37.07a3.33,3.33,0,0,0,1.08-.73,3.49,3.49,0,0,0,.73-1.08,3.38,3.38,0,0,0,.26-1.32V32.72a6.81,6.81,0,0,0-5.59-3,6.94,6.94,0,0,0-7,7Z"/><path class="c" d="M37.69,34.17a1.59,1.59,0,0,0-1.6,1.6v3.06h9.34V35.77a1.6,1.6,0,0,0-1.61-1.6H42.36a1.59,1.59,0,0,0-1.6,1.6,1.6,1.6,0,0,0-1.61-1.6Z"/><path class="f" d="M34.72,27.89a8.1,8.1,0,0,0-4.29,7.59"/></svg>