<svg id="Flat" height="512" viewBox="0 0 512 512" width="512" xmlns="http://www.w3.org/2000/svg"><path d="m424 392c0 91.311-76.689 96-168 96s-168-4.689-168-96 76.689-288 168-288 168 196.689 168 288z" fill="#38b37a"/><circle cx="200" cy="256" fill="#e9eef2" r="40"/><circle cx="312" cy="256" fill="#e9eef2" r="40"/><circle cx="200" cy="248" fill="#967c3f" r="16"/><circle cx="312" cy="248" fill="#967c3f" r="16"/><path d="m240 248s0-64-104-64-80 0-80 0l32 24h-16s24 32 56 32 96 0 112 8z" fill="#ffd33a"/><path d="m272 248s0-64 104-64 80 0 80 0l-32 24h16s-24 32-56 32-96 0-112 8z" fill="#ffd33a"/><path d="m160 360s0 80 16 80 40-64 40-64z" fill="#e9eef2"/><path d="m352 360s-1 80-17 80-39-64-39-64z" fill="#e9eef2"/><path d="m375.15 347.58h.01c-1.87 3.73-21.05 36.42-119.16 36.42s-117.29-32.69-119.16-36.42h.01c-.54-1.08-.85-2.29-.85-3.58 0-4.42 3.58-8 8-8 3.05 0 5.7 1.71 7.05 4.22.01.01.01.02.02.03.68 1.1 18.32 27.75 104.93 27.75 84.56 0 103.38-25.41 104.86-27.63 0 .02-.01.03-.01.04.02-.04.04-.06.04-.09l.01-.01c.02-.03.03-.06.05-.09 1.35-2.51 4-4.22 7.05-4.22 4.42 0 8 3.58 8 8 0 1.29-.31 2.5-.85 3.58z" fill="#248256"/><path d="m256 352c-33.503 0-50.855-8.483-51.578-8.845-3.952-1.976-5.554-6.781-3.578-10.733 1.969-3.939 6.749-5.544 10.695-3.597.351.168 15.34 7.175 44.461 7.175 29.323 0 44.318-7.105 44.466-7.177 3.958-1.92 8.745-.293 10.689 3.654 1.943 3.947.357 8.711-3.578 10.678-.722.362-18.074 8.845-51.577 8.845z" fill="#248256"/><path d="m288 112c0-32 40-88 104-88 41.34 0 79.24 21.06 96 56-12.58-21-37.74-32-64-32-39.76 0-72 32.24-72 72 0 17.67-14.33 32-32 32-24 0-32-24-32-40z" fill="#ffd33a"/><path d="m488 80c-12.58-21-37.74-32-64-32-1.56 0-3.11.05-4.65.15-7.4.47-14.49 2.06-21.11 4.6-8.32 3.19-15.89 7.87-22.39 13.73-4.05 3.63-7.67 7.72-10.81 12.19-4.53 6.45-8.04 13.69-10.26 21.46-1.81 6.31-2.78 12.98-2.78 19.87 0 .7-.02 1.39-.07 2.07-1.06 16.71-14.96 29.93-31.93 29.93-24 0-32-24-32-40 0-7.04 1.94-15.24 5.64-23.76 2.2-5.05 5.01-10.21 8.43-15.3 4.4-6.59 9.79-13.07 16.09-19.05 4.76-4.51 10.04-8.74 15.8-12.51 5.57-3.66 11.6-6.88 18.04-9.53 9.05-3.72 18.93-6.31 29.57-7.34h.01c3.4-.34 6.87-.51 10.42-.51 41.34 0 79.24 21.06 96 56z" fill="#ffd33a"/><g fill="#967c3f"><path d="m375.85 66.48c-4.05 3.63-7.67 7.72-10.81 12.19-4.44-5.98-10.33-12.37-16.62-15.51-7.22-3.61-23.47-7.72-30.26-9.27 4.76-4.51 10.04-8.74 15.8-12.51 7.34 1.99 16.06 4.68 21.62 7.46 8.1 4.05 15.02 11.05 20.27 17.64z"/><path d="m419.35 48.15c-7.4.47-14.49 2.06-21.11 4.6-14.21-9.54-33.88-20.75-46.24-20.75v-.15c9.05-3.72 18.93-6.31 29.57-7.34h.01c5.03 2.43 10.39 5.39 16.07 8.86 9.7 5.94 17.76 11.82 21.7 14.78z"/><path d="m354.78 100.13c-1.81 6.31-2.78 12.98-2.78 19.87 0 .7-.02 1.39-.07 2.07-5.14-7.14-17.01-21.66-27.51-26.91-9.71-4.85-23.23-6.42-30.78-6.92 2.2-5.05 5.01-10.21 8.43-15.3 8.82 1.06 20.23 3.26 29.51 7.9 8.56 4.28 16.84 12.17 23.2 19.29z"/></g><path d="m288 112c0-32 40-88 104-88 41.34 0 79.24 21.06 96 56-12.58-21-37.74-32-64-32-39.76 0-72 32.24-72 72 0 17.67-14.33 32-32 32-24 0-32-24-32-40z" fill="#ffd33a"/><path d="m375.85 66.48c-4.05 3.63-7.67 7.72-10.81 12.19-4.44-5.98-10.33-12.37-16.62-15.51-7.22-3.61-23.47-7.72-30.26-9.27 4.76-4.51 10.04-8.74 15.8-12.51 7.34 1.99 16.06 4.68 21.62 7.46 8.1 4.05 15.02 11.05 20.27 17.64z" fill="#967c3f"/><path d="m419.35 48.15c-7.4.47-14.49 2.06-21.11 4.6-14.21-9.54-33.88-20.75-46.24-20.75v-.15c9.05-3.72 18.93-6.31 29.57-7.34h.01c5.03 2.43 10.39 5.39 16.07 8.86 9.7 5.94 17.76 11.82 21.7 14.78z" fill="#967c3f"/><path d="m354.78 100.13c-1.81 6.31-2.78 12.98-2.78 19.87 0 .7-.02 1.39-.07 2.07-5.14-7.14-17.01-21.66-27.51-26.91-9.71-4.85-23.23-6.42-30.78-6.92 2.2-5.05 5.01-10.21 8.43-15.3 8.82 1.06 20.23 3.26 29.51 7.9 8.56 4.28 16.84 12.17 23.2 19.29z" fill="#967c3f"/><path d="m224 112c0-32-40-88-104-88-41.34 0-79.24 21.06-96 56 12.58-21 37.74-32 64-32 39.76 0 72 32.24 72 72 0 17.67 14.33 32 32 32 24 0 32-24 32-40z" fill="#ffd33a"/><path d="m24 80c12.58-21 37.74-32 64-32 1.56 0 3.11.05 4.65.15 7.4.47 14.49 2.06 21.11 4.6 8.32 3.19 15.89 7.87 22.39 13.73 4.05 3.63 7.67 7.72 10.81 12.19 4.53 6.45 8.04 13.69 10.26 21.46 1.81 6.31 2.78 12.98 2.78 19.87 0 .7.02 1.39.07 2.07 1.06 16.71 14.96 29.93 31.93 29.93 24 0 32-24 32-40 0-7.04-1.94-15.24-5.64-23.76-2.2-5.05-5.01-10.21-8.43-15.3-4.4-6.59-9.79-13.07-16.09-19.05-4.76-4.51-10.04-8.74-15.8-12.51-5.57-3.66-11.6-6.88-18.04-9.53-9.05-3.72-18.93-6.31-29.57-7.34h-.01c-3.4-.34-6.87-.51-10.42-.51-41.34 0-79.24 21.06-96 56z" fill="#ffd33a"/><path d="m136.15 66.48c4.05 3.63 7.67 7.72 10.81 12.19 4.44-5.98 10.33-12.37 16.62-15.51 7.22-3.61 23.47-7.72 30.26-9.27-4.76-4.51-10.04-8.74-15.8-12.51-7.34 1.99-16.06 4.68-21.62 7.46-8.1 4.05-15.02 11.05-20.27 17.64z" fill="#967c3f"/><path d="m92.65 48.15c7.4.47 14.49 2.06 21.11 4.6 14.21-9.54 33.88-20.75 46.24-20.75v-.15c-9.05-3.72-18.93-6.31-29.57-7.34h-.01c-5.03 2.43-10.39 5.39-16.07 8.86-9.7 5.94-17.76 11.82-21.7 14.78z" fill="#967c3f"/><path d="m157.22 100.13c1.81 6.31 2.78 12.98 2.78 19.87 0 .7.02 1.39.07 2.07 5.14-7.14 17.01-21.66 27.51-26.91 9.71-4.85 23.23-6.42 30.78-6.92-2.2-5.05-5.01-10.21-8.43-15.3-8.82 1.06-20.23 3.26-29.51 7.9-8.56 4.28-16.84 12.17-23.2 19.29z" fill="#967c3f"/><path d="m224 112c0-32-40-88-104-88-41.34 0-79.24 21.06-96 56 12.58-21 37.74-32 64-32 39.76 0 72 32.24 72 72 0 17.67 14.33 32 32 32 24 0 32-24 32-40z" fill="#ffd33a"/><path d="m136.15 66.48c4.05 3.63 7.67 7.72 10.81 12.19 4.44-5.98 10.33-12.37 16.62-15.51 7.22-3.61 23.47-7.72 30.26-9.27-4.76-4.51-10.04-8.74-15.8-12.51-7.34 1.99-16.06 4.68-21.62 7.46-8.1 4.05-15.02 11.05-20.27 17.64z" fill="#967c3f"/><path d="m92.65 48.15c7.4.47 14.49 2.06 21.11 4.6 14.21-9.54 33.88-20.75 46.24-20.75v-.15c-9.05-3.72-18.93-6.31-29.57-7.34h-.01c-5.03 2.43-10.39 5.39-16.07 8.86-9.7 5.94-17.76 11.82-21.7 14.78z" fill="#967c3f"/><path d="m157.22 100.13c1.81 6.31 2.78 12.98 2.78 19.87 0 .7.02 1.39.07 2.07 5.14-7.14 17.01-21.66 27.51-26.91 9.71-4.85 23.23-6.42 30.78-6.92-2.2-5.05-5.01-10.21-8.43-15.3-8.82 1.06-20.23 3.26-29.51 7.9-8.56 4.28-16.84 12.17-23.2 19.29z" fill="#967c3f"/></svg>