<svg id="Flat" height="512" viewBox="0 0 512 512" width="512" xmlns="http://www.w3.org/2000/svg"><ellipse cx="376" cy="220" fill="#ff6aa0" rx="32" ry="36"/><ellipse cx="136" cy="220" fill="#ff6aa0" rx="32" ry="36"/><g fill="#fd84b3"><path d="m256 104 40-48c9.612-12.015-.613-32-16-32-6.135 0-12.597 2.895-16 8l-8 16z"/><path d="m256 104-40-48c-9.612-12.015.613-32 16-32 6.135 0 12.597 2.895 16 8l8 16z"/><path d="m208 80h-96c-13.255 0-24 10.745-24 24 0 13.255 10.745 24 24 24h144c0-26.51-21.49-48-48-48z"/><path d="m304 80h96c13.255 0 24 10.745 24 24 0 13.255-10.745 24-24 24h-144c0-26.51 21.49-48 48-48z"/></g><path d="m256 128 120-64c8.572-4.538 12.338-15.324 8-24-4.492-8.985-15.136-12.727-24-8l-104 56z" fill="#fda2c6"/><path d="m256 128-120-64c-8.572-4.538-12.338-15.324-8-24 4.492-8.985 15.136-12.727 24-8l104 56z" fill="#fda2c6"/><path d="m192 216-40 160 56 80-48-16c-26.51 0-48 21.49-48 48h128v-48l-48-64 48-160z" fill="#eb423f"/><path d="m320 216 40 160-56 80 48-16c26.51 0 48 21.49 48 48h-128v-48l49-64-49-160z" fill="#eb423f"/><path d="m120 384v16c0 8.837-7.163 16-16 16-17.673 0-32-14.327-32-32v-144l32-32v160c8.837 0 16 7.163 16 16z" fill="#eb423f"/><path d="m392 384v16c0 8.837 7.163 16 16 16 17.673 0 32-14.327 32-32v-144l-32-32v160c-8.837 0-16 7.163-16 16z" fill="#eb423f"/><path d="m256 168-96 40c-35.742 15.049-56 49.218-56 88 0 13.255 10.745 24 24 24 13.255 0 24-10.745 24-24 0-19.363 6.096-32.628 24-40l112-56c0-17.673-14.327-32-32-32z" fill="#ff6aa0"/><path d="m256 167 96 40c35.742 15.049 56 49.218 56 88 0 13.255-10.745 24-24 24-13.255 0-24-10.745-24-24 0-19.363-6.096-32.628-24-40l-112-56c0-17.673 14.327-32 32-32z" fill="#ff6aa0"/><path d="m288 208c0-17.673-14.327-32-32-32l-67.716 67.716c-18.11 18.11-28.284 42.672-28.284 68.284 0 13.255 10.745 24 24 24 13.255 0 24-10.745 24-24 0-15.367 6.104-30.104 16.971-40.971z" fill="#d95a88"/><path d="m280 168c-23.571 0-42.001 17.205-48 40l-32 112c-3.414 12.517 3.691 27.897 16 32 13.876 4.625 29.017-1.681 32-16z" fill="#fd84b3"/><path d="m224 207c0-17.673 14.327-32 32-32l67.716 67.716c18.11 18.11 28.284 42.672 28.284 68.284 0 13.255-10.745 24-24 24-13.255 0-24-10.745-24-24v-1.373c0-14.488-5.755-28.383-16-38.627z" fill="#d95a88"/><path d="m232.145 167c23.571 0 41.856 17.205 47.855 40l32.145 112c3.414 12.517-3.691 27.897-16 32-13.876 4.625-29.017-1.681-32-16z" fill="#fd84b3"/><path d="m224 112h-92c-55.228 0-100 44.771-100 100 0 11.046 8.954 20 20 20 11.046 0 20-8.954 20-20 0-37.555 30.445-68 68-68h116c0-17.673-14.327-32-32-32z" fill="#fda2c6"/><path d="m288 112h92c55.228 0 100 44.771 100 100 0 11.046-8.954 20-20 20-11.046 0-20-8.954-20-20 0-37.555-30.445-68-68-68h-116c0-17.673 14.327-32 32-32z" fill="#fda2c6"/><path d="m224 112-96 40c-35.742 15.049-56 49.218-56 88 0 13.255 10.745 24 24 24 13.255 0 24-10.745 24-24 0-19.363 6.096-32.628 24-40l112-56c0-17.673-14.327-32-32-32z" fill="#fd84b3"/><path d="m288 112 96 40c35.742 15.049 56 49.218 56 88 0 13.255-10.745 24-24 24-13.255 0-24-10.745-24-24 0-19.363-6.096-32.628-24-40l-112-56c0-17.673 14.327-32 32-32z" fill="#fd84b3"/><path d="m256 152c0-17.673-14.327-32-32-32l-67.716 67.716c-18.11 18.11-28.284 42.672-28.284 68.284 0 13.255 10.745 24 24 24 13.255 0 24-10.745 24-24 0-15.367 6.104-30.104 16.971-40.971z" fill="#fda2c6"/><path d="m248 112c-23.571 0-42.001 17.205-48 40l-32 112c-3.414 12.517 3.691 27.897 16 32 13.876 4.625 29.017-1.681 32-16z" fill="#ff6aa0"/><path d="m256 152c0-17.673 14.327-32 32-32l67.716 67.716c18.11 18.11 28.284 42.672 28.284 68.284 0 13.255-10.745 24-24 24-13.255 0-24-10.745-24-24v-1.373c0-14.488-5.755-28.383-16-38.627z" fill="#fda2c6"/><path d="m264.145 112c23.571 0 41.856 17.205 47.855 40l32.145 112c3.414 12.517-3.691 27.897-16 32-13.876 4.625-29.017-1.681-32-16z" fill="#ff6aa0"/><path d="m256 312c-13.255 0-24-10.745-24-24v-176c0-13.255 10.745-24 24-24 13.255 0 24 10.745 24 24v176c0 13.255-10.745 24-24 24z" fill="#fda2c6"/><path d="m296 264h-80c-17.673 0-32-14.327-32-32 0-17.673 14.327-32 32-32h80c17.673 0 32 14.327 32 32 0 17.673-14.327 32-32 32z" fill="#eb423f"/><path d="m296 240h-80c-4.418 0-8-3.582-8-8s3.582-8 8-8h80c4.418 0 8 3.582 8 8s-3.582 8-8 8z" fill="#962523"/><circle cx="192" cy="120" fill="#e9eef2" r="48"/><circle cx="320" cy="120" fill="#e9eef2" r="48"/><circle cx="192" cy="120" fill="#962523" r="16"/><circle cx="320" cy="120" fill="#962523" r="16"/></svg>