<svg id="Flat" height="512" viewBox="0 0 512 512" width="512" xmlns="http://www.w3.org/2000/svg"><circle cx="424" cy="432" fill="#960e35" r="16"/><circle cx="392" cy="448" fill="#b3113f" r="24"/><circle cx="352" cy="456" fill="#960e35" r="32"/><circle cx="296" cy="432" fill="#b3113f" r="48"/><circle cx="264" cy="392" fill="#960e35" r="56"/><path d="m200 344-104-56-72 56s56-16 56 16c0 0 16-16 40-16s32 32 32 32 0-32 48-32z" fill="#660a23"/><path d="m312 344 104-56 72 56s-56-16-56 16c0 0-16-16-40-16s-32 32-32 32 0-32-48-32z" fill="#660a23"/><circle cx="256" cy="303" fill="#b3113f" r="80"/><path d="m408 216c0 48.6-68.05 88-152 88s-152-39.4-152-88c0-27.52 21.82-47.87 56-64v-48c-14.13-6.17-24-23.6-24-40 0-22.09 17.91-40 40-40s40 17.91 40 40c0 16.4-9.87 33.83-24 40v32c19.45-5.24 41.13-8 64-8s44.55 2.92 64 8.16v-32.16c-14.13-6.17-24-23.6-24-40 0-22.09 17.91-40 40-40s40 17.91 40 40c0 16.4-9.87 33.83-24 40v48c34.18 16.13 56 36.48 56 64z" fill="#eb423f"/><g fill="#660a23"><path d="m176 80c-8.822 0-16-7.178-16-16s7.178-16 16-16 16 7.178 16 16-7.178 16-16 16zm0-16.01v.01c0-.007 0-.01 0-.01z"/><path d="m336 80c-8.822 0-16-7.178-16-16s7.178-16 16-16 16 7.178 16 16-7.178 16-16 16zm0-16.01v.01c0-.007 0-.01 0-.01z"/><path d="m344 224c0 26.51-39.4 48-88 48s-88-21.49-88-48c0-11.01 6.79-21.15 18.21-29.24 16.09-11.41 41.36-18.76 69.79-18.76 28.66 0 54.11 7.47 70.18 19.04 11.19 8.04 17.82 18.08 17.82 28.96z"/></g><path d="m326.18 195.04-22.18 36.96-24-48-24 48-24-48-16 48-29.79-37.24c16.09-11.41 41.36-18.76 69.79-18.76 28.66 0 54.11 7.47 70.18 19.04z" fill="#e9eef2"/></svg>