<svg id="Flat" height="512" viewBox="0 0 512 512" width="512" xmlns="http://www.w3.org/2000/svg"><g fill="#ffb632"><path d="m216 488c-13.255 0-24-10.745-24-24v-72h48v72c0 13.255-10.745 24-24 24z"/><path d="m296 488c-13.255 0-24-10.745-24-24v-72h48v72c0 13.255-10.745 24-24 24z"/><path d="m184 264v48c-26.51 0-48 21.49-48 48v8c0 13.255-10.745 24-24 24-13.255 0-24-10.745-24-24v-8c0-53.019 42.981-96 96-96z"/><path d="m328 264v48c26.51 0 48 21.49 48 48v8c0 13.255 10.745 24 24 24 13.255 0 24-10.745 24-24v-8c0-53.019-42.981-96-96-96z"/></g><path d="m280 432h-48c-35.346 0-64-28.654-64-64v-80c0-35.346 28.654-64 64-64h48c35.346 0 64 28.654 64 64v80c0 35.346-28.654 64-64 64z" fill="#eba72e"/><circle cx="168" cy="56" fill="#bd620e" r="32"/><circle cx="344" cy="56" fill="#bd620e" r="32"/><path d="m360 208c0 57.438-46.562 64-104 64s-104-6.562-104-64 0-176 104-176 104 118.562 104 176z" fill="#ffb632"/><circle cx="224" cy="120" fill="#e9eef2" r="32"/><circle cx="288" cy="120" fill="#e9eef2" r="32"/><path d="m264 184h-16c-3.236 0-6.153-1.949-7.391-4.938s-.554-6.43 1.734-8.718l8-8c3.124-3.124 8.189-3.124 11.313 0l8 8c2.288 2.288 2.973 5.729 1.734 8.718s-4.154 4.938-7.39 4.938z" fill="#bd620e"/><path d="m320 216v17.26c-3.43 2.41-7.6 4.71-12.66 6.74h-102.68c-5.06-2.03-9.23-4.33-12.66-6.74v-17.26l16-16 22.77 30.36 1.23 1.64 24-24 24 24 1.23-1.65 22.77-30.35z" fill="#e9eef2"/><path d="m336 208c0 .95-.31 14.25-16 25.26-3.43 2.41-7.6 4.71-12.66 6.74-11.69 4.7-28.16 8-51.34 8s-39.65-3.3-51.34-8c-5.06-2.03-9.23-4.33-12.66-6.74-13.85-9.72-15.71-21.23-15.96-24.44-.03-.27-.04-.54-.04-.82 0-4.42 3.58-8 8-8 4.38 0 7.94 3.52 8 7.89v-.13c0 .08.23 2.49 2.46 5.78 3.72 5.5 13.05 13.43 36.31 16.82.82.12 1.66.24 2.53.34 6.49.82 14.01 1.3 22.7 1.3s16.21-.48 22.7-1.3c.86-.11 1.7-.22 2.53-.35 23.28-3.4 32.62-11.35 36.33-16.79 2.18-3.17 2.44-5.49 2.44-5.56 0-4.42 3.58-8 8-8s8 3.58 8 8z" fill="#bd620e"/><path d="m304 336h-96s0 56 48 56 48-56 48-56z" fill="#bd620e"/><circle cx="224" cy="120" fill="#bd620e" r="8"/><circle cx="288" cy="120" fill="#bd620e" r="8"/></svg>