<svg id="Flat" height="512" viewBox="0 0 512 512" width="512" xmlns="http://www.w3.org/2000/svg"><g fill="#6ed2f0"><path d="m96 240s-72-16-72-88c0-56 96 32 96 32z"/><path d="m168 160s-124.149-84.543-72-128c48-40 112 96 112 96z"/><path d="m416 240s72-16 72-88c0-56-96 32-96 32z"/><path d="m344 160s124.149-84.543 72-128c-48-40-112 96-112 96z"/></g><path d="m440 280v160c0 26.51 21.49 48 48 48h-463c25.958 0 47-21.043 47-47v-161c0-97.2 82.38-176 184-176s184 78.8 184 176z" fill="#67c5e0"/><circle cx="256" cy="224" fill="#e1e3e6" r="56"/><circle cx="256" cy="224" fill="#1261a0" r="24"/><circle cx="272" cy="200" fill="#e9eef2" r="16"/><path d="m416 312s-10.07 75.55-86.17 106.75c-19.81 8.13-44.09 13.25-73.83 13.25-30.47 0-54.49-5.37-73.43-13.85-70.57-31.56-70.57-106.15-70.57-106.15z" fill="#22334f"/><path d="m144 312 40 56 40-56 32 64 32-64 40 56 40-56z" fill="#e9eef2"/><path d="m216 376 40 56c-30.47 0-54.49-5.37-73.43-13.85l1.43-2.15z" fill="#e9eef2"/><path d="m329.83 418.75c-19.81 8.13-44.09 13.25-73.83 13.25l40-56 32 40z" fill="#e9eef2"/></svg>