<svg id="Flat" height="512" viewBox="0 0 512 512" width="512" xmlns="http://www.w3.org/2000/svg"><path d="m199.999 39.871c.035 4.471-1.762 8.52-4.679 11.449-2.9 2.89-6.9 4.68-11.32 4.68h-40s-88 56-88 136 72 88 72 88c8.837 0 16 7.163 16 16 0 8.837-7.163 16-16 16s-104-16-104-120 112-168 112-168h47.59c8.854 0 16.34 7.018 16.409 15.871z" fill="#eba72e"/><path d="m312.001 39.871c-.035 4.471 1.762 8.52 4.679 11.449 2.9 2.89 6.9 4.68 11.32 4.68h40s88 56 88 136-72 88-72 88c-8.837 0-16 7.163-16 16 0 8.837 7.163 16 16 16s104-16 104-120-112-168-112-168h-47.59c-8.854 0-16.34 7.018-16.409 15.871z" fill="#eba72e"/><path d="m184 424 40 64h-104c0-17.673 14.327-32 32-32h16l-16-32 40-64h32z" fill="#eba72e"/><path d="m328 424-40 64h104c0-17.673-14.327-32-32-32h-16l16-32-40-64h-32z" fill="#eba72e"/><path d="m416 208s8 32 0 64l-16-8s8 32-8 56l-8-8s-8 24-32 48l-8-8s-8 48-24 48l-16-16s-32 40-48 40-48-40-48-40l-16 16c-16 0-24-48-24-48l-8 8c-24-24-32-48-32-48l-8 8c-16-24-8-56-8-56l-16 8c-8-32 0-64 0-64h-16c0-32 40-56 40-56l-24 8c0-40 56-56 56-56h-24c24-24 72-16 72-16v-16c32 0 56 24 56 24s24-24 56-24v16s48-8 72 16h-24s56 16 56 56l-24-8s40 24 40 56z" fill="#ffd33a"/><g fill="#e9eef2"><path d="m224 240s-17.909 40-40 40-40-40-40-40 17.909-40 40-40 40 40 40 40z"/><path d="m296 168s-17.909 40-40 40-40-40-40-40 17.909-40 40-40 40 40 40 40z"/><path d="m376 240s-17.909 40-40 40-40-40-40-40 17.909-40 40-40 40 40 40 40z"/><path d="m208 312 16 40 16-40z"/><path d="m288 312 16 40 16-40z"/></g><path d="m328 320h-136c-4.418 0-8-3.582-8-8s3.582-8 8-8h136c4.418 0 8 3.582 8 8s-3.582 8-8 8z" fill="#bd620e"/><circle cx="256" cy="168" fill="#bd620e" r="8"/><circle cx="184" cy="240" fill="#bd620e" r="8"/><circle cx="336" cy="240" fill="#bd620e" r="8"/></svg>