<svg id="Flat" height="512" viewBox="0 0 512 512" width="512" xmlns="http://www.w3.org/2000/svg"><path d="m232 296h48v176h-48z" fill="#67c5e0"/><path d="m24 440v16c0 17.673 14.327 32 32 32 48 0 56-56 56-56 0 30.928 25.072 56 56 56 35.346 0 64-28.654 64-64v-144h-48v140c0 11.046-8.954 20-20 20-11.046 0-20-8.954-20-20 0-15.464-12.536-28-28-28h-4c-17.673 0-32 14.327-32 32 0 8.837-7.163 16-16 16z" fill="#67c5e0"/><path d="m488 440v16c0 17.673-14.327 32-32 32-48 0-56-56-56-56 0 30.928-25.072 56-56 56-35.346 0-64-28.654-64-64v-144h48v140c0 11.046 8.954 20 20 20 11.046 0 20-8.954 20-20 0-15.464 12.536-28 28-28h4c17.673 0 32 14.327 32 32 0 8.837 7.163 16 16 16z" fill="#67c5e0"/><path d="m232 440c-4.418 0-8-3.582-8-8v-136c0-4.418 3.582-8 8-8s8 3.582 8 8v136c0 4.418-3.582 8-8 8z" fill="#5098ad"/><path d="m280 440c-4.418 0-8-3.582-8-8v-136c0-4.418 3.582-8 8-8s8 3.582 8 8v136c0 4.418-3.582 8-8 8z" fill="#5098ad"/><ellipse cx="184" cy="336" fill="#20754d" rx="16" ry="24"/><ellipse cx="48" cy="440" fill="#20754d" rx="24" ry="16"/><ellipse cx="112" cy="384" fill="#20754d" rx="24" ry="16"/><ellipse cx="168" cy="472" fill="#20754d" rx="24" ry="16"/><path d="m256 24c79.53 0 144 64.47 144 144v128h-288v-128c0-79.53 64.47-144 144-144z" fill="#2d85cc"/><path d="m328 152s-32.236 32-72 32-72-32-72-32 32.236-64 72-64 72 64 72 64z" fill="#e9eef2"/><circle cx="256" cy="137" fill="#20754d" r="16"/><ellipse cx="256" cy="239" fill="#20754d" rx="80" ry="24"/><path d="m315.77 223.05-19.77 32.95-16-32-24 32-24-32-16 32-19.77-32.95c14.65-4.94 36-8.05 59.77-8.05s45.12 3.11 59.77 8.05z" fill="#e9eef2"/><g fill="#20754d"><ellipse cx="232" cy="376" rx="16" ry="24"/><ellipse cx="328" cy="336" rx="16" ry="24"/><ellipse cx="280" cy="376" rx="16" ry="24"/><ellipse cx="464" cy="440" rx="24" ry="16"/><ellipse cx="256" cy="472" rx="24" ry="16"/><ellipse cx="400" cy="384" rx="24" ry="16"/><ellipse cx="344" cy="472" rx="24" ry="16"/></g><path d="m160 104s-76-76-104-48 80 88 80 88z" fill="#2d85cc"/><path d="m352.365 104s76-76 104-48-80 88-80 88z" fill="#2d85cc"/></svg>