<svg id="Flat" height="512" viewBox="0 0 512 512" width="512" xmlns="http://www.w3.org/2000/svg"><g fill="#3dc285"><path d="m472 208h-40l8 40-40-8v40l-40-16-8 40-32-24-16 32-16-40-32 16 16-40-32-8h-32v120h208l64-144z"/><path d="m72 128s-48-24-48-56 24-48 24-48 0 64 56 56v48z"/><path d="m264 128s48-24 48-56-24-48-24-48 0 64-56 56v48z"/></g><path d="m211.882 392c-26.51 26.51-26.51 69.49 0 96h-64c-26.51-26.51-26.51-69.49 0-96z" fill="#a36eb8"/><path d="m488 224c0 128.13-103.87 232-232 232-88.366 0-160-71.634-160-160v-200c0-39.764 32.235-72 72-72 39.764 0 72 32.235 72 72v152c0 35.346 28.654 64 64 64 176 0 184-168 184-168z" fill="#b077c7"/><path d="m360 392c-26.51 26.51-26.51 69.49 0 96h-64c-26.51-26.51-26.51-69.49 0-96z" fill="#c082d9"/><circle cx="128" cy="120" fill="#e9eef2" r="32"/><circle cx="208" cy="120" fill="#e9eef2" r="32"/><path d="m144 184h-48c-17.673 0-32 14.327-32 32h112c0-17.673-14.327-32-32-32z" fill="#fda2c6"/><path d="m144 248h-24c-17.673 0-32-14.327-32-32h88c0 17.673-14.327 32-32 32z" fill="#ff6aa0"/><circle cx="144" cy="312" fill="#c082d9" r="16"/><circle cx="216" cy="352" fill="#a36eb8" r="16"/><circle cx="384" cy="352" fill="#c082d9" r="16"/><circle cx="280" cy="328" fill="#c082d9" r="16"/><circle cx="224" cy="432" fill="#9363a6" r="16"/><circle cx="152" cy="392" fill="#a36eb8" r="16"/><circle cx="128" cy="120" fill="#22334f" r="8"/><circle cx="208" cy="120" fill="#22334f" r="8"/></svg>