<svg id="Flat" height="512" viewBox="0 0 512 512" width="512" xmlns="http://www.w3.org/2000/svg"><path d="m368 160h-224c-17.673 0-32-14.327-32-32s14.327-32 32-32h224c17.673 0 32 14.327 32 32s-14.327 32-32 32z" fill="#ff6aa0"/><path d="m376 240h-15.99c-7.445-12.073-15.507-22.972-24.01-32 17.56-19.77 32-43.46 32-72 0-61.86-50.14-112-112-112s-112 50.14-112 112c0 28.54 14.44 52.23 32 72-8.503 9.028-16.565 19.927-24.01 32h-15.99c-61.856 0-112 50.144-112 112v16c0 17.673 14.327 32 32 32 17.673 0 32-14.327 32-32v-16c0-21.262 13.83-39.283 32.98-45.59-10.686 30.743-16.98 61.665-16.98 85.59 0 83.95 68.05 96 152 96s152-12.05 152-96c0-24.018-6.342-55.088-17.104-85.949 19.732 5.959 34.104 24.272 34.104 45.949v15c0 17.673 14.327 32 32 32 17.673 0 32-14.327 32-32v-15c0-61.856-51.144-112-113-112z" fill="#fd84b3"/><circle cx="216" cy="104" fill="#e9eef2" r="32"/><circle cx="296" cy="104" fill="#e9eef2" r="32"/><path d="m280 136c0 13.255-10.745 24-24 24s-24-10.745-24-24 24-56 24-56 24 42.745 24 56z" fill="#ffd33a"/><path d="m120 424c-35.346 0-64 28.654-64 64h80c8.837 0 16-7.163 16-16v-16c0-17.673-14.327-32-32-32z" fill="#ff6aa0"/><path d="m393 424c35.346 0 64 28.654 64 64h-80c-8.837 0-16-7.163-16-16v-16c0-17.673 14.327-32 32-32z" fill="#ff6aa0"/><path d="m312 168c0 .88-.14 1.74-.41 2.53-.04.12-.08.23-.12.34-.03.08-.07.16-.1.25-1.66 4.26-13.14 28.88-55.37 28.88s-53.71-24.62-55.37-28.88c-.03-.09-.07-.17-.1-.25-.04-.11-.08-.22-.12-.34-.27-.79-.41-1.65-.41-2.53 0-4.42 3.58-8 8-8 3.49 0 6.46 2.23 7.55 5.35.01.04.03.08.04.12l-.02-.07c.49 1.26 7.8 18.6 40.43 18.6s39.94-17.34 40.43-18.6l-.02.07c.01-.04.03-.08.04-.12 1.09-3.12 4.06-5.35 7.55-5.35 4.42 0 8 3.58 8 8z" fill="#eb423f"/><g fill="#22334f"><circle cx="216" cy="104" r="8"/><circle cx="296" cy="104" r="8"/></g></svg>