<svg id="Flat" height="512" viewBox="0 0 512 512" width="512" xmlns="http://www.w3.org/2000/svg"><path d="m112 160s-48-32-48-96c0 0 48 40 80 40z" fill="#ffd33a"/><path d="m400 160s48-32 48-96c0 0-48 40-80 40z" fill="#ffd33a"/><path d="m224 400v88h-96c0-17.673 14.327-32 32-32h32v-56z" fill="#2e9163"/><path d="m280 400v88h96c0-17.673-14.327-32-32-32h-32v-56z" fill="#2e9163"/><path d="m336 96h-160c-35.346 0-64 28.654-64 64l-13.539 176h-42.461c0 5.44.42 10.78 1.23 16 3.44 22.31 13.98 42.29 29.23 57.54 18.82 18.82 44.82 30.46 73.54 30.46h24 152c35.346 0 64-28.654 64-64v-216c0-35.346-28.654-64-64-64z" fill="#3dc285"/><g fill="#e9eef2"><circle cx="256" cy="168" r="32"/><circle cx="176" cy="232" r="32"/><circle cx="336" cy="232" r="32"/><path d="m64 336s-8-24-8-48l72 48z"/><path d="m224 336s-8-24-8-48l72 48z"/></g><path d="m256 24-40 72h80z" fill="#ffd33a"/><path d="m320 344c0 3.16-1.83 5.89-4.49 7.19-1.06.52-2.25.81-3.51.81h-254.77c-.81-5.22-1.23-10.56-1.23-16h256c4.42 0 8 3.58 8 8z" fill="#2e9163"/><circle cx="336" cy="232" fill="#20754d" r="8"/><circle cx="256" cy="168" fill="#20754d" r="8"/><circle cx="176" cy="232" fill="#20754d" r="8"/></svg>