<svg id="Flat" height="512" viewBox="0 0 512 512" width="512" xmlns="http://www.w3.org/2000/svg"><g fill="#35a872"><path d="m240 344v144h-112c-17.673 0-32-14.327-32-32 0-17.673 14.327-32 32-32 17.673 0 32 14.327 32 32h32c8.837 0 16-7.163 16-16v-96z"/><path d="m272 344v144h112c17.673 0 32-14.327 32-32 0-17.673-14.327-32-32-32-17.673 0-32 14.327-32 32h-32c-8.837 0-16-7.163-16-16v-96z"/><path d="m200 168v32c-35.346 0-64 28.654-64 64v64h-32v-64c0-53.019 42.981-96 96-96z"/><path d="m312 168v32c35.346 0 64 28.654 64 64v64h32v-64c0-53.019-42.981-96-96-96z"/></g><path d="m368 368c0 13.255 10.745 24 24 24 22.091 0 40-17.909 40-40 0-17.673-14.327-32-32-32h-16c-17.673 0-32 14.327-32 32 0 8.837 7.163 16 16 16z" fill="#3dc285"/><path d="m392 24v32c-8.84 0-18.21 2.21-24 8s-8 15.16-8 24v167.31c0 52.69-39.05 97.79-91.39 103.95-63.08 7.41-116.61-41.67-116.61-103.26v-160c0-17.63-14.427-31.852-32.056-32.001-17.585-.149-31.944-14.394-31.944-31.999v-8h48c0 8.84 7.16 16 16 16 24 0 40 24 40 40v8c0 8.837 7.163 16 16 16h8c8.837 0 16-7.163 16-16v-32c0-8.84 7.16-16 16-16 8 0 16-8 16-16h32v32c0 8.776-7.057 15.896-15.809 15.999-8.904.104-16.191 7.096-16.191 16.001 0 8.837 7.163 16 16 16h32c8.837 0 16-7.163 16-16 0-35.35 28.65-64 64-64z" fill="#3dc285"/><path d="m144 368c0 13.255-10.745 24-24 24-22.091 0-40-17.909-40-40 0-17.673 14.327-32 32-32h16c17.673 0 32 14.327 32 32 0 8.837-7.163 16-16 16z" fill="#3dc285"/><circle cx="232" cy="176" fill="#e9eef2" r="32"/><circle cx="328" cy="176" fill="#e9eef2" r="32"/><path d="m352 272c0 17.67-35.82 32-80 32s-80-14.33-80-32c0-8.26 7.82-15.78 20.64-21.46 14.64-6.47 35.81-10.54 59.36-10.54 23.99 0 45.52 4.23 60.18 10.92 12.34 5.62 19.82 13 19.82 21.08z" fill="#eb423f"/><path d="m332.18 250.92-28.18 45.08-32-48-24 48-35.36-45.46c14.64-6.47 35.81-10.54 59.36-10.54 23.99 0 45.52 4.23 60.18 10.92z" fill="#e9eef2"/><circle cx="248" cy="176" fill="#20754d" r="8"/><circle cx="344" cy="176" fill="#20754d" r="8"/></svg>