<svg id="Flat" height="512" viewBox="0 0 512 512" width="512" xmlns="http://www.w3.org/2000/svg"><path d="m200 384-8 16-8-16-8 16-8-16z" fill="#ffd33a"/><path d="m240 248c-44.183 0-80 35.817-80 80v56h48v-56c0-17.673 14.327-32 32-32z" fill="#2d85cc"/><path d="m40 144 24 32 24-32 24 32 24-32 24 32 24-32 24 32 24-32 24 32 32-32z" fill="#e9eef2"/><path d="m384 295.713v-23.713c0-35.346-28.654-64-64-64h-112v160c0 35.346 28.654 64 64 64h48c35.346 0 64-28.654 64-64v-11.796c59.668-14.392 104-68.117 104-132.204v-40c0 59.166-45.879 107.61-104 111.713z" fill="#0f5287"/><path d="m232 104s-40-16-32-80l64 32z" fill="#ffd33a"/><path d="m400 113.1v.01c0 70.079-56.811 126.89-126.89 126.89h-184.16c-23.8 0-45.65-12.82-56.95-32h216c17.673 0 32-14.327 32-32 0-17.673-14.327-32-32-32h-224v-31.361c0-17.495 13.774-32.239 31.265-32.631 9.131-.205 17.415 3.412 23.365 9.362 5.79 5.79 9.37 13.79 9.37 22.63h136c0-49.6 41.04-89.62 91.02-87.95 47.59 1.59 84.98 41.44 84.98 89.05z" fill="#2d85cc"/><path d="m384 104s40-16 32-80l-64 32z" fill="#ffd33a"/><path d="m392 384 8 16 8-16 8 16 8-16z" fill="#ffd33a"/><path d="m280 424v64h-80c0-17.673 14.327-32 32-32v-32c0-13.255 10.745-24 24-24 13.255 0 24 10.745 24 24z" fill="#2d85cc"/><circle cx="320" cy="88" fill="#e9eef2" r="40"/><circle cx="320" cy="88" fill="#22334f" r="8"/><path d="m360 424v64h-80c0-17.673 14.327-32 32-32v-32c0-13.255 10.745-24 24-24 13.255 0 24 10.745 24 24z" fill="#2d85cc"/><path d="m352 248c44.183 0 80 35.817 80 80v56h-48v-56c0-17.673-14.327-32-32-32-13.255 0-24-10.745-24-24 0-13.255 10.745-24 24-24z" fill="#2d85cc"/><circle cx="56" cy="112" fill="#22334f" r="8"/></svg>