<svg id="Flat" height="512" viewBox="0 0 512 512" width="512" xmlns="http://www.w3.org/2000/svg"><path d="m184 120h-96c-22.091 0-40-17.909-40-40 0-30.928 25.072-56 56-56l-8 32c-8.837 0-16 7.163-16 16 0 8.837 7.163 16 16 16h88z" fill="#d13330"/><path d="m328 120h96c22.091 0 40-17.909 40-40 0-30.928-25.072-56-56-56l8 32c8.837 0 16 7.163 16 16 0 8.837-7.163 16-16 16h-88z" fill="#d13330"/><path d="m208 200v112c0 53.019-42.981 96-96 96-8.837 0-16 7.163-16 16l-64 64v-88c0-30.928 25.072-56 56-56 30.928 0 56-25.072 56-56v-88z" fill="#d13330"/><path d="m304 200v112c0 53.019 42.981 96 96 96 8.837 0 16 7.163 16 16l64 64v-88c0-30.928-25.072-56-56-56-30.928 0-56-25.072-56-56v-88z" fill="#d13330"/><path d="m344 376c-13.255 0-24-10.745-24-24v-88h-128v88c0 13.255-10.745 24-24 24s-24 10.745-24 24v88l64-32c0-17.673 14.327-32 32-32 5.831 0 11.292-1.567 16-4.292 4.708 2.725 10.169 4.292 16 4.292 17.673 0 32 14.327 32 32l64 32v-88c0-13.255-10.745-24-24-24z" fill="#d13330"/><path d="m368 408c-4.418 0-8-3.582-8-8 0-8.822-7.178-16-16-16-17.645 0-32-14.355-32-32v-88c0-4.418 3.582-8 8-8s8 3.582 8 8v88c0 8.822 7.178 16 16 16 17.645 0 32 14.355 32 32 0 4.418-3.582 8-8 8z" fill="#962523"/><path d="m144 408c4.418 0 8-3.582 8-8 0-8.822 7.178-16 16-16 17.645 0 32-14.355 32-32v-88c0-4.418-3.582-8-8-8s-8 3.582-8 8v88c0 8.822-7.178 16-16 16-17.645 0-32 14.355-32 32 0 4.418 3.582 8 8 8z" fill="#962523"/><g fill="#ffd33a"><ellipse cx="121.199" cy="318.801" rx="28.284" ry="16.971" transform="matrix(.707 -.707 .707 .707 -189.928 179.075)"/><ellipse cx="144" cy="408" rx="16" ry="24"/><path d="m72 360c-11.201 7.087-27.276 7.468-32 0s4.799-16.913 16-24 27.276-7.468 32 0-4.799 16.913-16 24z"/><ellipse cx="40" cy="400" rx="16" ry="24"/><ellipse cx="390.801" cy="318.801" rx="16.971" ry="28.284" transform="matrix(.707 -.707 .707 .707 -110.964 369.713)"/><ellipse cx="182.801" cy="369.199" rx="28.284" ry="16.971" transform="matrix(.707 -.707 .707 .707 -207.522 237.396)"/><ellipse cx="368" cy="408" rx="16" ry="24"/><ellipse cx="329.199" cy="369.199" rx="16.971" ry="28.284" transform="matrix(.707 -.707 .707 .707 -164.643 340.914)"/><path d="m440 360c11.201 7.087 27.276 7.468 32 0s-4.799-16.913-16-24-27.276-7.468-32 0 4.799 16.913 16 24z"/><ellipse cx="472" cy="400" rx="16" ry="24"/></g><path d="m256 424c-4.418 0-8-3.582-8-8v-152c0-4.418 3.582-8 8-8s8 3.582 8 8v152c0 4.418-3.582 8-8 8z" fill="#962523"/><path d="m376 208c0 30.928 25.072 56 56 56h-352c30.928 0 56-25.072 56-56v-64c0-66.274 53.726-120 120-120 66.274 0 120 53.726 120 120z" fill="#eb423f"/><ellipse cx="256" cy="120" fill="#e9eef2" rx="64" ry="32"/><path d="m256 120c-8.822 0-16-7.178-16-16s7.178-16 16-16 16 7.178 16 16-7.178 16-16 16zm0-16.01v.01c0-.007 0-.01 0-.01z" fill="#962523"/><path d="m192 184 8 40 24-32z" fill="#e9eef2"/><path d="m320 184-8 40-24-32z" fill="#e9eef2"/><path d="m169.35 172.44c.07.11.15.22.22.33-.1-.13-.17-.24-.23-.33z"/><path d="m342.66 172.44c-.06.09-.13.2-.23.33.07-.11.15-.22.22-.33z"/><path d="m104 88h16v32h-16z" fill="#f7b030"/><path d="m96.96 88-21.08 30.12c-5.22-1.65-9.98-4.36-14.03-7.86l20.71-29.58c.61.96 1.32 1.84 2.12 2.64 2.9 2.89 6.9 4.68 11.32 4.68z" fill="#f7b030"/><path d="m80 72c0 2.92.78 5.65 2.14 8h-34.14c0-5.56.81-10.93 2.32-16h31.82c-1.36 2.35-2.14 5.08-2.14 8z" fill="#f7b030"/><path d="m392 88h16v32h-16z" fill="#f7b030"/><path d="m450.15 110.26c-4.05 3.5-8.81 6.21-14.03 7.86l-21.08-30.12h.96c4.42 0 8.42-1.79 11.32-4.68.8-.8 1.51-1.68 2.12-2.64z" fill="#f7b030"/><path d="m429.86 80c1.36-2.35 2.14-5.08 2.14-8s-.78-5.65-2.14-8h31.82c1.51 5.07 2.32 10.44 2.32 16z" fill="#f7b030"/><path d="m344 168c0 1.64-.5 3.17-1.35 4.44-.07.11-.15.22-.22.33-.01.01-.01.01-.02.02-2.89 4.06-22.21 27.21-86.41 27.21s-83.52-23.15-86.41-27.21c-.01-.01-.01-.01-.02-.02-.07-.11-.15-.22-.22-.33-.85-1.27-1.35-2.8-1.35-4.44 0-4.42 3.58-8 8-8 2.76 0 5.2 1.4 6.63 3.53.01.01.02.02.02.03h.01c1.44 1.75 18.01 20.44 73.34 20.44s71.9-18.69 73.34-20.44h.01c0-.01.01-.02.02-.03 1.43-2.13 3.87-3.53 6.63-3.53 4.42 0 8 3.58 8 8z" fill="#962523"/></svg>