<svg id="Flat" height="512" viewBox="0 0 512 512" width="512" xmlns="http://www.w3.org/2000/svg"><g fill="#bd620e"><path d="m104 120s-40-96-16-96 80 56 80 56v40z"/><path d="m416.522 120s31.478-96 16-96c-24.522 0-80 56-80 56l-.522 40z"/><path d="m216 360v128h-128c0-26.51 21.49-48 48-48h32v-80z"/><path d="m288 360v128h128c0-26.51-21.49-48-48-48h-32v-80z"/></g><path d="m456 264s8 24 0 56l-16-8s0 40-16 64l-16-16s0 32-24 56l-8-16s-8 24-32 40l-8-16s-8 24-40 32v-16l-40 32-40-32v16c-32-8-40-32-40-32l-8 16c-24-16-32-40-32-40l-8 16c-24-24-24-56-24-56l-16 16c-16-24-16-64-16-64l-16 8c-8-32 0-56 0-56h-16c0-32 40-64 40-64h-32c0-32 56-64 56-64h-32c24-32 80-40 80-40h-32c8-16 62.33-32 80-32h112c17.67 0 72 16 80 32h-32s56 8 80 40h-32s56 32 56 64h-32s40 32 40 64z" fill="#ffd33a"/><path d="m336 208c0 44.18-35.82 80-80 80s-80-35.82-80-80c0-2.7 0-16 0-16 19.29-6.48 49.53-16 80-16s60.71 9.52 80 16z" fill="#e1e3e6"/><path d="m175.989 160.029c-2.049 0-4.099-.786-5.666-2.353-3.124-3.125-3.104-8.209.02-11.333 1.076-1.075 27.017-26.343 85.657-26.343s84.581 25.268 85.657 26.343c3.124 3.124 3.124 8.189 0 11.313-3.125 3.124-8.189 3.124-11.314 0-.184-.177-22.864-21.656-74.343-21.656s-74.159 21.479-74.382 21.695c-1.557 1.557-3.593 2.334-5.629 2.334z" fill="#e09f2c"/><circle cx="256" cy="216" fill="#bd620e" r="40"/><path d="m152 312c11.232-11.232 27.243-9.464 40 0 14.062 10.432 38.912 24 64 24s49.938-13.568 64-24c12.757-9.464 28.768-11.232 40 0 12.182 12.182 11.909 35.552 0 48-16.966 17.735-49.933 40-104 40s-87.034-22.265-104-40c-11.909-12.448-12.182-35.818 0-48z" fill="#eb423f"/><path d="m256 376c-59.318 0-85.322-33.763-86.4-35.2-2.65-3.535-1.935-8.549 1.601-11.2 3.521-2.642 8.52-1.94 11.177 1.569.936 1.221 22.747 28.831 73.622 28.831 50.918 0 72.723-27.657 73.626-28.834 2.679-3.492 7.689-4.181 11.195-1.521 3.507 2.66 4.22 7.635 1.579 11.156-1.078 1.436-27.082 35.199-86.4 35.199z" fill="#962523"/><circle cx="288" cy="200" fill="#e9eef2" r="16"/><circle cx="256" cy="216" fill="#20754d" r="8"/></svg>