<svg id="Flat" height="512" viewBox="0 0 512 512" width="512" xmlns="http://www.w3.org/2000/svg"><g fill="#eba72e"><path d="m256 376-232-128s-8 104 48 128v-32s24 80 88 80 96-48 96-48z"/><path d="m256 376 232-128s8 104-48 128v-32s-24 80-88 80-96-48-96-48z"/><circle cx="128" cy="216" r="48"/><circle cx="384" cy="216" r="48"/></g><path d="m360 424c0 57.438-46.562 64-104 64s-104-6.562-104-64 46.562-144 104-144 104 86.562 104 144z" fill="#319c6a"/><circle cx="256" cy="216" fill="#3dc285" r="128"/><path d="m256 152c13.25 0 24-10.75 24-24l-24-104-24 104c0 13.25 10.75 24 24 24z" fill="#eba72e"/><circle cx="200" cy="200" fill="#e9eef2" r="40"/><circle cx="312" cy="200" fill="#e9eef2" r="40"/><path d="m200 216c-8.822 0-16-7.178-16-16s7.178-16 16-16 16 7.178 16 16-7.178 16-16 16zm0-16.01v.01c0-.007 0-.01 0-.01z" fill="#22334f"/><path d="m312 216c-8.822 0-16-7.178-16-16s7.178-16 16-16 16 7.178 16 16-7.178 16-16 16zm0-16.01v.01c0-.007 0-.01 0-.01z" fill="#22334f"/><path d="m208 272 16 32 16-32z" fill="#e9eef2"/><path d="m272 272 16 32 16-32z" fill="#e9eef2"/><path d="m226.385 400.846-10.385 31.154v56h-56v-8c0-13.255 10.745-24 24-24v-32l11.185-33.554c2.717-8.152 11.252-12.837 19.588-10.753 9.293 2.323 14.641 12.066 11.612 21.153z" fill="#3dc285"/><path d="m312 280h-112c-4.418 0-8-3.582-8-8s3.582-8 8-8h112c4.418 0 8 3.582 8 8s-3.582 8-8 8z" fill="#20754d"/><path d="m316.815 390.446 11.185 33.554v32c13.255 0 24 10.745 24 24v8h-56v-56l-10.385-31.154c-3.029-9.087 2.319-18.83 11.612-21.153 8.336-2.084 16.871 2.602 19.588 10.753z" fill="#3dc285"/></svg>