<svg id="Flat" height="512" viewBox="0 0 512 512" width="512" xmlns="http://www.w3.org/2000/svg"><path d="m200 344v144h-112c-17.673 0-32-14.327-32-32 0-17.673 14.327-32 32-32 17.673 0 32 14.327 32 32h32c8.837 0 16-7.163 16-16v-96z" fill="#6ed2f0"/><path d="m320 344v144h112c17.673 0 32-14.327 32-32 0-17.673-14.327-32-32-32-17.673 0-32 14.327-32 32h-32c-8.837 0-16-7.163-16-16v-96z" fill="#6ed2f0"/><path d="m416 272s8 32 0 64l-16-8s8 32-8 56l-8-8s-8 24-32 48l-8-8s-8 48-24 48l-16-16s-32 40-48 40-48-40-48-40l-16 16c-16 0-24-48-24-48l-8 8c-24-24-32-48-32-48l-8 8c-16-24-8-56-8-56l-16 8c-8-32 0-64 0-64h-16c0-32 40-56 40-56l-24 8c0-40 56-56 56-56h-24c15.14-15.14 39.83-16.29 56-16v-56c0-39.764 32.235-72 72-72 39.764 0 72 32.235 72 72v56c16.17-.29 40.86.86 56 16h-24s56 16 56 56l-24-8s40 24 40 56z" fill="#ffd33a"/><circle cx="256" cy="96" fill="#e9eef2" r="40"/><path d="m256 112c-8.822 0-16-7.178-16-16s7.178-16 16-16 16 7.178 16 16-7.178 16-16 16zm0-16.01v.01c0-.007 0-.01 0-.01z" fill="#bd620e"/><path d="m352 256c-53.019 53.019-138.981 53.019-192 0-4.243-4.243-8-17.999-8-24 0-20.159 25.746-38.254 40-24 35.346 35.346 92.654 35.346 128 0 14.254-14.254 40 3.841 40 24 0 6.001-3.757 19.757-8 24z" fill="#eb423f"/><path d="m208.85 155.58c.01.04.03.08.05.11-.03-.04-.04-.08-.06-.11z"/><path d="m303.16 155.58c-.02.03-.03.07-.06.11.02-.03.04-.07.05-.11z"/><path d="m322.372 234.314c-.222.217-22.64 21.686-66.372 21.686-43.676 0-66.093-21.413-66.371-21.685-3.127-3.099-8.172-3.087-11.286.027-3.125 3.125-3.125 8.189 0 11.314 1.076 1.076 26.927 26.344 77.657 26.344s76.581-25.268 77.657-26.343c3.113-3.113 3.111-8.142.014-11.271-3.097-3.128-8.155-3.153-11.299-.072z" fill="#962523"/><path d="m256 176c27.003 0 44.908-17.594 45.657-18.343 3.115-3.115 3.113-8.148.012-11.276-3.101-3.129-8.16-3.149-11.301-.062-.139.137-14.158 13.681-34.368 13.681-20.171 0-34.173-13.491-34.367-13.681-3.126-3.1-8.174-3.092-11.29.023-3.125 3.125-3.125 8.189 0 11.314.749.75 18.654 18.344 45.657 18.344z" fill="#d4a811"/></svg>