<svg id="Flat" height="512" viewBox="0 0 512 512" width="512" xmlns="http://www.w3.org/2000/svg"><path d="m160 64h24v32h-32z" fill="#ffd33a"/><path d="m160 96c-39.765 0-72-32.235-72-72 0 22.091 72 40 72 40 4.417 4.417 6.626 10.206 6.627 15.996.001 5.792-2.208 11.585-6.627 16.004z" fill="#ffd33a"/><path d="m120 192s-113.036-38.273-88-80c24-40 112 40 112 40z" fill="#d95a88"/><path d="m350.627 96c39.765 0 72-32.235 72-72 0 22.091-72 40-72 40-8.836 8.837-8.836 23.163 0 32z" fill="#ffd33a"/><path d="m352 64h-24v32h32z" fill="#ffd33a"/><path d="m392 192s113.036-38.273 88-80c-24-40-112 40-112 40z" fill="#d95a88"/><path d="m456 352c0 110.457-89.543 136-200 136s-200-25.543-200-136 89.543-328 200-328 200 217.543 200 328z" fill="#fd84b3"/><circle cx="216" cy="168" fill="#e9eef2" r="40"/><circle cx="296" cy="168" fill="#e9eef2" r="40"/><path d="m240 184c-8.822 0-16-7.178-16-16s7.178-16 16-16 16 7.178 16 16-7.178 16-16 16zm0-16.01v.01c0-.007 0-.01 0-.01z" fill="#9e3c6b"/><path d="m272 184c-8.822 0-16-7.178-16-16s7.178-16 16-16 16 7.178 16 16-7.178 16-16 16zm0-16.01v.01c0-.007 0-.01 0-.01z" fill="#9e3c6b"/><path d="m152 312 24 64 24-64z" fill="#e9eef2"/><path d="m312 312 24 64 24-64z" fill="#e9eef2"/><path d="m376 320h-240c-4.418 0-8-3.582-8-8s3.582-8 8-8h240c4.418 0 8 3.582 8 8s-3.582 8-8 8z" fill="#9e3c6b"/><g fill="#d95a88"><path d="m280 352h-48c-4.418 0-8-3.582-8-8s3.582-8 8-8h48c4.418 0 8 3.582 8 8s-3.582 8-8 8z"/><path d="m312 288h-112c-4.418 0-8-3.582-8-8s3.582-8 8-8h112c4.418 0 8 3.582 8 8s-3.582 8-8 8z"/><circle cx="120" cy="256" r="16"/></g><circle cx="96" cy="312" fill="#ba5183" r="8"/><circle cx="416" cy="360" fill="#ba5183" r="16"/><path d="m392 432c-8.822 0-16-7.178-16-16s7.178-16 16-16 16 7.178 16 16-7.178 16-16 16zm0-16.01v.01c0-.007 0-.01 0-.01z" fill="#ba5183"/><circle cx="256" cy="456" fill="#d95a88" r="32"/><circle cx="184" cy="440" fill="#ba5183" r="16"/><circle cx="128" cy="400" fill="#ba5183" r="8"/></svg>