<svg id="Flat" height="512" viewBox="0 0 512 512" width="512" xmlns="http://www.w3.org/2000/svg"><path d="m96 248c-39.765 0-72 32.235-72 72v40l16-16 16 16 16-16 16 16z" fill="#c7312e"/><path d="m416 248c39.765 0 72 32.235 72 72v40l-16-16-16 16-16-16-16 16z" fill="#c7312e"/><path d="m120 72s16-48-96-48c0 0 40 16 24 48s-16 56 24 56z" fill="#962523"/><path d="m392 72s-16.21-48 95.79-48c0 0-40 16-24 48s16.21 56-23.79 56z" fill="#962523"/><path d="m440 104-16 288c0 13.255-10.745 24-24 24v32c0 22.091-9.909 40-32 40l-40-64h-144l-40 64c-22.091 0-32-17.909-32-40v-32c-13.255 0-24-10.745-24-24l-16-288c0-17.673 14.327-32 32-32h304c17.673 0 32 14.327 32 32z" fill="#eb423f"/><path d="m240 192c0 35.346-28.654 64-64 64s-64-28.654-64-64z" fill="#e9eef2"/><path d="m400 192c0 35.346-28.654 64-64 64s-64-28.654-64-64z" fill="#e9eef2"/><path d="m208 192c0 17.673-14.327 32-32 32s-32-14.327-32-32z" fill="#962523"/><path d="m368 192c0 17.673-14.327 32-32 32s-32-14.327-32-32z" fill="#962523"/><path d="m208 304 24 32 8-48h-16z" fill="#e9eef2"/><path d="m304 304-24 32-8-48h16z" fill="#e9eef2"/><path d="m160 392h-8c-22.056 0-40-17.944-40-40 0-4.418 3.582-8 8-8s8 3.582 8 8c0 13.234 10.767 24 24 24h8c4.418 0 8 3.582 8 8s-3.582 8-8 8z" fill="#d13330"/><path d="m360 392h-8c-4.418 0-8-3.582-8-8s3.582-8 8-8h8c13.233 0 24-10.766 24-24 0-4.418 3.582-8 8-8s8 3.582 8 8c0 22.056-17.944 40-40 40z" fill="#d13330"/><g fill="#962523"><path d="m216 72 40-48 40 48z"/><path d="m200.015 320.046c-.648 0-1.308-.079-1.966-.244-4.286-1.071-6.882-5.457-5.81-9.743.388-1.553 10.131-38.059 63.761-38.059s63.373 36.506 63.761 38.06c1.072 4.287-1.534 8.63-5.82 9.702-4.288 1.073-8.63-1.535-9.701-5.821-.27-.98-7.573-25.941-48.24-25.941s-47.97 24.961-48.261 26.024c-.906 3.627-4.15 6.022-7.724 6.022z"/></g></svg>