<svg id="Flat" height="512" viewBox="0 0 512 512" width="512" xmlns="http://www.w3.org/2000/svg"><path d="m464 80c0 12.6-5.83 23.84-14.94 31.17-4.17 3.36-9.02 5.9-14.32 7.37-3.42.95-7.02 1.46-10.74 1.46h-96v-32h88c4.42 0 8.42-1.79 11.32-4.68.65-.65 1.24-1.36 1.77-2.11.27-.39.53-.79.77-1.21 1.36-2.35 2.14-5.08 2.14-8s-.78-5.65-2.14-8c-2.76-4.78-7.94-8-13.86-8l-8-32c15.46 0 29.46 6.27 39.6 16.4 6.49 6.49 11.39 14.57 14.08 23.6 1.51 5.07 2.32 10.44 2.32 16z" fill="#ff6aa0"/><path d="m392 88h16v32h-16z" fill="#ba5183"/><path d="m449.06 111.17c-4.17 3.36-9.02 5.9-14.32 7.37l-20.36-30.54h1.62c4.42 0 8.42-1.79 11.32-4.68.65-.65 1.24-1.36 1.77-2.11z" fill="#ba5183"/><path d="m429.86 80c1.36-2.35 2.14-5.08 2.14-8s-.78-5.65-2.14-8h31.82c1.51 5.07 2.32 10.44 2.32 16z" fill="#ba5183"/><path d="m184 88v32h-96c-3.72 0-7.32-.51-10.74-1.46-5.3-1.47-10.15-4.01-14.32-7.37-9.11-7.33-14.94-18.57-14.94-31.17 0-5.56.81-10.93 2.32-16 2.69-9.03 7.59-17.11 14.08-23.6 10.14-10.13 24.14-16.4 39.6-16.4l-8 32c-5.92 0-11.1 3.22-13.86 8-1.36 2.35-2.14 5.08-2.14 8s.78 5.65 2.14 8c.24.42.5.82.77 1.21.53.75 1.12 1.46 1.77 2.11 2.9 2.89 6.9 4.68 11.32 4.68z" fill="#ff6aa0"/><path d="m104 88h16v32h-16z" fill="#ba5183"/><path d="m97.62 88-20.36 30.54c-5.3-1.47-10.15-4.01-14.32-7.37l19.97-29.96c.53.75 1.12 1.46 1.77 2.11 2.9 2.89 6.9 4.68 11.32 4.68z" fill="#ba5183"/><path d="m80 72c0 2.92.78 5.65 2.14 8h-34.14c0-5.56.81-10.93 2.32-16h31.82c-1.36 2.35-2.14 5.08-2.14 8z" fill="#ba5183"/><path d="m464 448v-72l-69.635-69.635c-5.391-56.254-13.411-118.55-18.365-138.365-16.073-64.292-53.73-144-120-144s-103.927 79.708-120 144c-4.954 19.815-12.974 82.111-18.365 138.365l-69.635 69.635v72c-8.837 0-16 7.163-16 16 0 8.836 7.163 16 16 16h32c8.837 0 16-7.164 16-16 0-8.837-7.163-16-16-16v-56l33.343-33.343c-.852 13.248-1.343 24.732-1.343 33.343 0 79.53 64.47 80 144 80s144-.47 144-80c0-8.611-.491-20.095-1.343-33.343l33.343 33.343v56c-8.837 0-16 7.163-16 16 0 8.836 7.163 16 16 16h32c8.837 0 16-7.164 16-16 0-8.837-7.163-16-16-16z" fill="#b077c7"/><path d="m200 232s-14.327 32-32 32-32-32-32-32 14.327-32 32-32 32 32 32 32z" fill="#e9eef2"/><path d="m256 152s-14.327 32-32 32-32-32-32-32 14.327-32 32-32 32 32 32 32z" fill="#e9eef2"/><path d="m48 496c-4.418 0-8-3.582-8-8v-8c0-4.418 3.582-8 8-8s8 3.582 8 8v8c0 4.418-3.582 8-8 8z" fill="#d1a6f7"/><path d="m64 496c-4.418 0-8-3.582-8-8v-8c0-4.418 3.582-8 8-8s8 3.582 8 8v8c0 4.418-3.582 8-8 8z" fill="#d1a6f7"/><path d="m80 496c-4.418 0-8-3.582-8-8v-8c0-4.418 3.582-8 8-8s8 3.582 8 8v8c0 4.418-3.582 8-8 8z" fill="#d1a6f7"/><path d="m344 216s-14.327 32-32 32-32-32-32-32 14.327-32 32-32 32 32 32 32z" fill="#e9eef2"/><path d="m464 496c-4.418 0-8-3.582-8-8v-8c0-4.418 3.582-8 8-8s8 3.582 8 8v8c0 4.418-3.582 8-8 8z" fill="#d1a6f7"/><path d="m448 496c-4.418 0-8-3.582-8-8v-8c0-4.418 3.582-8 8-8s8 3.582 8 8v8c0 4.418-3.582 8-8 8z" fill="#d1a6f7"/><path d="m432 496c-4.418 0-8-3.582-8-8v-8c0-4.418 3.582-8 8-8s8 3.582 8 8v8c0 4.418-3.582 8-8 8z" fill="#d1a6f7"/><path d="m344 96s-14.327 32-32 32-32-32-32-32 14.327-32 32-32 32 32 32 32z" fill="#e9eef2"/><path d="m280 280s-14.327 32-32 32-32-32-32-32 14.327-32 32-32 32 32 32 32z" fill="#e9eef2"/><path d="m152 384s0-64 24-64 24 64 24 64z" fill="#e9eef2"/><path d="m312 384s0-64 24-64 24 64 24 64z" fill="#e9eef2"/><path d="m168 424c-17.645 0-32-14.355-32-32v-8c0-4.418 3.582-8 8-8h224c4.418 0 8 3.582 8 8s-3.582 8-8 8h-216c0 8.822 7.178 16 16 16 4.418 0 8 3.582 8 8s-3.582 8-8 8z" fill="#9363a6"/><path d="m160 488c0-22.091 17.909-40 40-40s40 17.909 40 40z" fill="#d1a6f7"/><path d="m272 488c0-22.091 17.909-40 40-40s40 17.909 40 40z" fill="#d1a6f7"/><g fill="#764f85"><circle cx="312" cy="96" r="8"/><circle cx="224" cy="152" r="8"/><circle cx="168" cy="232" r="8"/><circle cx="248" cy="280" r="8"/><circle cx="312" cy="216" r="8"/></g></svg>