<svg id="Flat" height="512" viewBox="0 0 512 512" width="512" xmlns="http://www.w3.org/2000/svg"><path d="m168 368h-16c-48.601 0-88 39.399-88 88h-8c-17.673 0-32 14.327-32 32h72v-16c0-39.764 32.235-72 72-72z" fill="#9363a6"/><path d="m344 368h16c48.601 0 88 39.399 88 88h8c17.673 0 32 14.327 32 32h-72v-16c0-39.764-32.235-72-72-72z" fill="#9363a6"/><path d="m400 360c0-79.529-64.471-200-144-200s-144 120.471-144 200c0 46.387 21.939 68.594 56 79.052v32.948c0 8.836 7.163 16 16 16h56v-8c0-13.518-6.712-25.46-16.978-32.701 10.591.527 21.63.701 32.978.701s22.387-.174 32.978-.701c-10.266 7.241-16.978 19.183-16.978 32.701v8h56c8.837 0 16-7.164 16-16v-32.948c34.061-10.458 56-32.665 56-79.052z" fill="#b077c7"/><path d="m192 56s-64 0-64-32v8c0 35.346 28.654 64 64 64l16-40z" fill="#764f85"/><path d="m320 56s64 0 64-32v8c0 35.346-28.654 64-64 64l-16-40z" fill="#764f85"/><path d="m360 168c0 57.438-46.562 64-104 64s-104-6.562-104-64 46.562-144 104-144 104 86.562 104 144z" fill="#c082d9"/><path d="m232 168-16-32-16 32z" fill="#e9eef2"/><path d="m312 168-16-32-16 32z" fill="#e9eef2"/><path d="m328 176h-144c-4.418 0-8-3.582-8-8s3.582-8 8-8h144c4.418 0 8 3.582 8 8s-3.582 8-8 8z" fill="#764f85"/><circle cx="256" cy="88" fill="#e9eef2" r="32"/><path d="m152 264s-48-8-56 0 32 48 32 48z" fill="#c082d9"/><path d="m368 264s40-8 48 0-32 48-32 48z" fill="#c082d9"/><path d="m128 344s-48 16-48 24 56 24 56 24z" fill="#c082d9"/><path d="m384 344s48 16 48 24-56 24-56 24z" fill="#c082d9"/><path d="m264 208h-16c-4.418 0-8-3.582-8-8s3.582-8 8-8h16c4.418 0 8 3.582 8 8s-3.582 8-8 8z" fill="#764f85"/><g fill="#9363a6"><path d="m223.994 455.998c-1.672 0-3.358-.522-4.798-1.604-5.569-4.183-12.207-6.394-19.196-6.394-4.418 0-8-3.582-8-8v-144c0-4.418 3.582-8 8-8s8 3.582 8 8v136.658c7.521 1.254 14.603 4.284 20.805 8.942 3.533 2.653 4.246 7.668 1.592 11.201-1.572 2.093-3.973 3.197-6.403 3.197z"/><path d="m168 448c-4.418 0-8-3.582-8-8v-144c0-4.418 3.582-8 8-8s8 3.582 8 8v144c0 4.418-3.582 8-8 8z"/><path d="m288.006 455.998c1.672 0 3.358-.522 4.798-1.604 5.569-4.183 12.207-6.394 19.196-6.394 4.418 0 8-3.582 8-8v-144c0-4.418-3.582-8-8-8s-8 3.582-8 8v136.658c-7.521 1.254-14.603 4.284-20.805 8.942-3.533 2.653-4.246 7.668-1.592 11.201 1.572 2.093 3.973 3.197 6.403 3.197z"/><path d="m344 448c4.418 0 8-3.582 8-8v-144c0-4.418-3.582-8-8-8s-8 3.582-8 8v144c0 4.418 3.582 8 8 8z"/></g><circle cx="256" cy="88" fill="#764f85" r="8"/></svg>