<svg id="Flat" height="512" viewBox="0 0 512 512" width="512" xmlns="http://www.w3.org/2000/svg"><path d="m488 392h-32c-17.673 0-32-14.327-32-32 0-26.51-21.49-48-48-48h-32v24h16c17.673 0 32 14.327 32 32 0 30.928 25.072 56 56 56h40z" fill="#fd84b3"/><path d="m224 368v120h-112c0-17.673 14.327-32 32-32h48v-88z" fill="#d95a88"/><path d="m400 488h-112v-120h32v88h48c17.673 0 32 14.327 32 32z" fill="#d95a88"/><path d="m376 112c0 13.08-6.28 24.7-16 32v176c0 57.44-46.56 104-104 104s-104-46.56-104-104v-160c-9.72-7.3-16-18.92-16-32 0-22.09 17.91-40 40-40s40 17.91 40 40c0 13.08-6.28 24.7-16 32v72.34c9.69-6.2 20.47-13.62 32-16.34v-120c-9.72-7.3-16-18.92-16-32 0-22.09 17.91-40 40-40s40 17.91 40 40c0 13.08-6.28 24.7-16 32v120c11.53 2.72 22.31 9.8 32 16v-88c-9.72-7.3-16-18.92-16-32 0-22.09 17.91-40 40-40s40 17.91 40 40z" fill="#fd84b3"/><circle cx="176" cy="128" fill="#9e3c6b" r="8"/><circle cx="256" cy="64" fill="#9e3c6b" r="8"/><circle cx="336" cy="112" fill="#9e3c6b" r="8"/><path d="m320 328c0 7.03-2.9 13.63-8 19.37-7.07 7.97-18.37 14.27-32 17.72-7.41 1.88-15.51 2.91-24 2.91s-16.59-1.03-24-2.91c-13.63-3.45-24.93-9.75-32-17.72-5.1-5.74-8-12.34-8-19.37 0-18.64 20.4-34.3 48-38.74 5.11-.82 10.48-1.26 16-1.26s10.89.44 16 1.26c27.6 4.44 48 20.1 48 38.74z" fill="#eb423f"/><path d="m272 289.26v6.74s0 24-16 24-16-24-16-24v-6.74c5.11-.82 10.48-1.26 16-1.26s10.89.44 16 1.26z" fill="#e9eef2"/><path d="m232 360v5.09c-13.63-3.45-24.93-9.75-32-17.72v-3.37s8-16 16-16 16 32 16 32z" fill="#e9eef2"/><path d="m312 344v3.37c-7.07 7.97-18.37 14.27-32 17.72v-5.09s8-32 16-32 16 16 16 16z" fill="#e9eef2"/><g fill="#fd84b3"><path d="m152 232h-32c-17.673 0-32-14.327-32-32 0-26.51-21.49-48-48-48h-16v24c17.673 0 32 14.327 32 32 0 30.928 25.072 56 56 56h40z"/><path d="m24 344h32c17.673 0 32-14.327 32-32 0-26.51 21.49-48 48-48h16v24c-17.673 0-32 14.327-32 32 0 30.928-25.072 56-56 56h-40z"/><path d="m360 280h32c17.673 0 32-14.327 32-32 0-26.51 21.49-48 48-48h16v24c-17.673 0-32 14.327-32 32 0 30.928-25.072 56-56 56h-40z"/></g><circle cx="240" cy="248" fill="#d95a88" r="8"/><circle cx="272" cy="248" fill="#d95a88" r="8"/></svg>