<svg id="Flat" height="512" viewBox="0 0 512 512" width="512" xmlns="http://www.w3.org/2000/svg"><g fill="#2d85cc"><circle cx="120" cy="120" r="96"/><path d="m256 432v8h48c0-26.51 21.49-48 48-48 44.183 0 80-35.817 80-80v-56h-48v48c0 22.091-17.909 40-40 40-48.601 0-88 39.399-88 88z"/><circle cx="392" cy="224" r="96"/><path d="m272 392v48h-48v-40c0-26.51-21.49-48-48-48-44.183 0-80-35.817-80-80v-64h48v56c0 22.091 17.909 40 40 40 48.601 0 88 39.399 88 88z"/></g><circle cx="392" cy="184" fill="#e1e3e6" r="56"/><circle cx="120" cy="80" fill="#e1e3e6" r="56"/><circle cx="120" cy="80" fill="#22334f" r="24"/><circle cx="392" cy="184" fill="#22334f" r="24"/><circle cx="136" cy="56" fill="#e9eef2" r="16"/><circle cx="368" cy="168" fill="#e9eef2" r="16"/><path d="m240 488s-24-88-80-88-56 48-80 48-32-32-56-32c0 0 8 24 8 40s8 32 48 32 56-40 80-40 16 40 40 40 40 0 40 0z" fill="#266fab"/><path d="m272 488s24-88 80-88 56 48 80 48 32-32 56-32c0 0-8 24-8 40s-8 32-48 32-56-40-80-40-16 40-40 40-40 0-40 0z" fill="#266fab"/><path d="m320 488h-96c-13.255 0-24-10.745-24-24 0-39.764 32.235-72 72-72 39.764 0 72 32.235 72 72 0 13.255-10.745 24-24 24z" fill="#2978b8"/><path d="m392.001 288.001c-7.944 0-18.369-4.12-22.925-11.994-2.212-3.824-.905-8.718 2.919-10.931 3.823-2.212 8.718-.906 10.931 2.919 1.043 1.803 5.436 4.006 9.075 4.006s8.032-2.203 9.075-4.006c2.212-3.824 7.106-5.131 10.931-2.919s5.131 7.106 2.919 10.931c-4.556 7.875-14.981 11.994-22.925 11.994z" fill="#22334f"/><path d="m119.999 192c-7.944 0-18.369-4.12-22.925-11.994-2.212-3.824-.905-8.718 2.919-10.931 3.823-2.212 8.718-.906 10.931 2.919 1.043 1.803 5.436 4.006 9.075 4.006s8.032-2.203 9.075-4.006c2.212-3.824 7.106-5.131 10.931-2.919s5.131 7.106 2.919 10.931c-4.556 7.874-14.981 11.994-22.925 11.994z" fill="#22334f"/></svg>