<svg id="Flat" height="512" viewBox="0 0 512 512" width="512" xmlns="http://www.w3.org/2000/svg"><path d="m72 128s-48-24-48-56 24-48 24-48 0 64 56 56z" fill="#ffd33a"/><path d="m440 128s48-24 48-56-24-48-24-48 0 64-56 56z" fill="#ffd33a"/><path d="m424 280h-336c-35.346 0-64-28.654-64-64 0-88.366 71.634-160 160-160h144c88.366 0 160 71.634 160 160 0 35.346-28.654 64-64 64z" fill="#fd84b3"/><path d="m232 312c0 97.202-78.798 176-176 176v-48c70.692 0 128-57.307 128-128z" fill="#eba72e"/><path d="m280 312c0 97.202 78.798 176 176 176v-48c-70.692 0-128-57.307-128-128z" fill="#eba72e"/><path d="m232 312h48v176h-48z" fill="#eba72e"/><path d="m488 288c0 30.93-11.74 59.73-32 80-20.27 20.26-49.07 32-80 32 0 0-120 8-120-64 0 72-120 64-120 64-30.93 0-58.93-12.54-79.2-32.8-20.26-20.27-32.8-48.27-32.8-79.2 0 0 32 48 64 48s32-64 104-64h128c72 0 72 64 104 64s64-48 64-48z" fill="#ffd33a"/><circle cx="256" cy="168" fill="#e1e3e6" r="72"/><circle cx="256" cy="168" fill="#bd620e" r="40"/><circle cx="288" cy="152" fill="#e9eef2" r="16"/><g fill="#ff6aa0"><path d="m104 224c-13.234 0-24-10.766-24-24 0-4.418 3.582-8 8-8s8 3.582 8 8c0 4.411 3.589 8 8 8s8-3.589 8-8c0-4.418 3.582-8 8-8s8 3.582 8 8c0 13.234-10.766 24-24 24z"/><path d="m384 168c-4.418 0-8-3.582-8-8s3.582-8 8-8c8.822 0 16-7.178 16-16s-7.178-16-16-16c-4.418 0-8-3.582-8-8s3.582-8 8-8c17.645 0 32 14.355 32 32s-14.355 32-32 32z"/><path d="m392 256c-17.645 0-32-14.355-32-32 0-4.418 3.582-8 8-8s8 3.582 8 8c0 8.822 7.178 16 16 16s16-7.178 16-16c0-4.418 3.582-8 8-8s8 3.582 8 8c0 17.645-14.355 32-32 32z"/><path d="m152 144c-17.645 0-32-14.355-32-32s14.355-32 32-32c4.418 0 8 3.582 8 8s-3.582 8-8 8c-8.822 0-16 7.178-16 16s7.178 16 16 16c4.418 0 8 3.582 8 8s-3.582 8-8 8z"/></g></svg>