<svg id="Flat" height="512" viewBox="0 0 512 512" width="512" xmlns="http://www.w3.org/2000/svg"><path d="m248 376v80c0 17.673-14.327 32-32 32h-80c-17.673 0-32-14.327-32-32 0-17.673 14.327-32 32-32 8.837 0 16 7.163 16 16 0 8.837 7.163 16 16 16h32c8.837 0 16-7.163 16-16v-64z" fill="#eb423f"/><path d="m264 376v80c0 17.673 14.327 32 32 32h80c17.673 0 32-14.327 32-32 0-17.673-14.327-32-32-32-8.837 0-16 7.163-16 16 0 8.837-7.163 16-16 16h-32c-8.837 0-16-7.163-16-16v-64z" fill="#eb423f"/><path d="m424 193.608v166.392c0 17.673-14.327 32-32 32h-16.001c-17.673 0-32-14.327-32-32 0 17.673-14.327 32-32 32h-24.001c-17.673 0-31.999-14.327-32-31.999v-.001.001c.002 17.672-14.325 31.999-31.998 31.999h-24c-17.673 0-32-14.327-32-32v.001c0 17.672-14.327 31.999-32 31.999h-16c-17.673 0-32-14.327-32-32v-168c0-92.812 75.272-168.052 168.096-168 93.009.052 167.904 76.6 167.904 169.608z" fill="#ffb632"/><path d="m160 120s-40-16-32-80l64 32z" fill="#eb423f"/><path d="m351.942 120s40-16 32-80l-64 32z" fill="#eb423f"/><circle cx="224" cy="152" fill="#e9eef2" r="32"/><circle cx="288" cy="152" fill="#e9eef2" r="32"/><path d="m336 280h-160c-17.673 0-32-14.327-32-32 0-17.673 14.327-32 32-32h160c17.673 0 32 14.327 32 32 0 17.673-14.327 32-32 32z" fill="#eb423f"/><path d="m336 256h-160c-4.418 0-8-3.582-8-8s3.582-8 8-8h160c4.418 0 8 3.582 8 8s-3.582 8-8 8z" fill="#962523"/><path d="m111.996 239.548c.25 13.516-11.019 24.452-24.538 24.452-35.047 0-63.458-28.411-63.458-63.458v-128.542c0-17.673 14.327-32 32-32 13.255 0 24 10.745 24 24 0 13.255-10.745 24-24 24v96c0 17.673 14.327 32 32 32 13.099 0 23.755 10.506 23.996 23.548z" fill="#eb423f"/><path d="m400.004 240.452c-.25-13.516 11.019-24.452 24.537-24.452 35.048 0 63.459 28.411 63.459 63.458v128.542c0 17.673-14.327 32-32 32-13.255 0-24-10.745-24-24 0-13.255 10.745-24 24-24v-96c0-17.673-14.327-32-32-32-13.099 0-23.755-10.506-23.996-23.548z" fill="#eb423f"/><g fill="#962523"><circle cx="224" cy="152" r="8"/><circle cx="288" cy="152" r="8"/></g></svg>