<svg id="Flat" height="512" viewBox="0 0 512 512" width="512" xmlns="http://www.w3.org/2000/svg"><path d="m416 440 48-64-40-24 16-48-40-32 16-48-40-24 8-48-40-16 8-40h-56-24v344z" fill="#3dc285"/><path d="m392 392c-32.413-97.619-82.38-368-184-368-67.037 0-125.699 115.924-157.864 224h-26.136v152l.186-.126c4.226 93.435 84.899 88.126 183.814 88.126h280c-53.02 0-85.304-63.788-96-96z" fill="#b077c7"/><circle cx="168" cy="160" fill="#e1e3e6" r="48"/><path d="m32 255s0-16 8-40 16-16 24 8 24 32 24 32z" fill="#e9eef2"/><path d="m224 255s0-16-8-40-16-16-24 8-24 32-24 32z" fill="#e9eef2"/><circle cx="168" cy="160" fill="#764f85" r="16"/><path d="m184 152.005c-4.418 0-8.005-3.586-8.005-8.005s3.586-8.005 8.005-8.005 8.005 3.586 8.005 8.005-3.587 8.005-8.005 8.005zm7.995-8.005h.01zm-7.995 0h.01z" fill="#e9eef2"/><circle cx="88" cy="440" fill="#9363a6" r="40"/><circle cx="208" cy="400" fill="#764f85" r="24"/><circle cx="304" cy="440" fill="#764f85" r="32"/><g fill="#9363a6"><path d="m184 480c-8.822 0-16-7.178-16-16s7.178-16 16-16 16 7.178 16 16-7.178 16-16 16zm0-16.01v.01c0-.007 0-.01 0-.01z"/><path d="m304 360c-8.822 0-16-7.178-16-16s7.178-16 16-16 16 7.178 16 16-7.178 16-16 16zm0-16.01v.01c0-.007 0-.01 0-.01z"/><circle cx="120" cy="328" r="16"/></g><path d="m272 256c0 4.42-3.58 8-8 8h-240v-16h240c4.42 0 8 3.58 8 8z" fill="#764f85"/></svg>