<svg id="Flat" height="512" viewBox="0 0 512 512" width="512" xmlns="http://www.w3.org/2000/svg"><g fill="#ffd33a"><path d="m304 360c0 8.837 7.163 16 16 16h16c26.51 0 48 21.49 48 48v48c0 8.837 7.163 16 16 16h48c8.837 0 16-7.163 16-16 0-8.837-7.163-16-16-16h-32v-32c0-44.183-35.817-80-80-80h-16c-8.837 0-16 7.163-16 16z"/><path d="m208 360c0 8.837-7.163 16-16 16h-16c-26.51 0-48 21.49-48 48v48c0 8.837-7.163 16-16 16h-48c-8.837 0-16-7.163-16-16 0-8.837 7.163-16 16-16h32v-32c0-44.183 35.817-80 80-80h16c8.837 0 16 7.163 16 16z"/><path d="m184 160c0-53.019-42.981-96-96-96-20.226 0-43.365-8.206-56-24l-8-16v24c0 35.346 28.654 64 64 64 26.51 0 48 21.49 48 48z"/><path d="m328 160c0-53.019 42.981-96 96-96 20.226 0 43.365-8.206 56-24l8-16v24c0 35.346-28.654 64-64 64-26.51 0-48 21.49-48 48z"/></g><path d="m320 248c20.82 17.6 32 42.6 32 72 0 53.02-42.98 96-96 96s-96-42.98-96-96c0-29.4 11.18-54.4 32-72-48.52-15.44-80-49.77-80-88 0-31.4 21.03-62.49 56-80l72-16h24l72 16c39.03 17.17 64 46.5 64 80 0 38.23-31.48 72.56-80 88z" fill="#eb423f"/><path d="m184 296c0-8.837-7.163-16-16-16h-40c-17.673 0-32-14.327-32-32v-48h8c8.837 0 16-7.163 16-16 0-8.837-7.163-16-16-16-22.091 0-40 17.909-40 40v40c0 35.346 28.654 64 64 64h40c8.837 0 16-7.163 16-16z" fill="#ffd33a"/><path d="m328 296c0-8.837 7.163-16 16-16h40c17.673 0 32-14.327 32-32v-48h-8c-8.837 0-16-7.163-16-16 0-8.837 7.163-16 16-16 22.091 0 40 17.909 40 40v40c0 35.346-28.654 64-64 64h-40c-8.837 0-16-7.163-16-16z" fill="#ffd33a"/><path d="m344 176c0 22.09-39.4 40-88 40s-88-17.91-88-40c0-7.61 4.68-14.73 12.81-20.79 15.45-11.52 43.34-19.21 75.19-19.21 32.48 0 60.86 8 76.1 19.9 7.57 5.91 11.9 12.78 11.9 20.1z" fill="#660a23"/><circle cx="208" cy="72" fill="#e9eef2" r="40"/><circle cx="296" cy="72" fill="#e9eef2" r="40"/><path d="m332.1 155.9-36.1 52.1-16-64-24 72-24-72-16 64-35.19-52.79c15.45-11.52 43.34-19.21 75.19-19.21 32.48 0 60.86 8 76.1 19.9z" fill="#e9eef2"/><path d="m257.118 259.567c-19.498 0-34.144-3.578-35.059-3.806-4.286-1.072-6.892-5.415-5.821-9.702 1.071-4.284 5.406-6.892 9.694-5.823.356.088 30.583 7.39 60.127.002 4.292-1.071 8.631 1.535 9.701 5.821 1.072 4.287-1.534 8.63-5.82 9.702-11.418 2.855-22.765 3.806-32.822 3.806z" fill="#d13330"/><path d="m344 472c0 4.42-1.79 8.42-4.68 11.32-2.9 2.89-6.9 4.68-11.32 4.68h-16c-8.837 0-16-7.163-16-16v-88c0-4.418-3.582-8-8-8-8.837 0-16-7.163-16-16 0-8.837 7.163-16 16-16 22.091 0 40 17.909 40 40v72c4.42 0 8.42 1.79 11.32 4.68 2.89 2.9 4.68 6.9 4.68 11.32z" fill="#ffd33a"/><path d="m168 472c0 4.42 1.79 8.42 4.68 11.32 2.9 2.89 6.9 4.68 11.32 4.68h16c8.837 0 16-7.163 16-16v-88c0-4.418 3.582-8 8-8 8.837 0 16-7.163 16-16 0-8.837-7.163-16-16-16-22.091 0-40 17.909-40 40v72c-4.42 0-8.42 1.79-11.32 4.68-2.89 2.9-4.68 6.9-4.68 11.32z" fill="#ffd33a"/><circle cx="296" cy="72" fill="#660a23" r="8"/><circle cx="208" cy="72" fill="#660a23" r="8"/></svg>