<svg id="Flat" height="512" viewBox="0 0 512 512" width="512" xmlns="http://www.w3.org/2000/svg"><path d="m152 208-40-72-88 56s24-8 32 8c0 0 0-8 24-8s24 16 24 16 24-24 48 0z" fill="#660a23"/><path d="m360 208 40-72 88 56s-24-8-32 8c0 0 0-8-24-8s-24 16-24 16-24-24-48 0z" fill="#660a23"/><path d="m416 408c0 17.67-14.33 32-32 32v16c0 17.67-14.33 32-32 32-8.84 0-16.84-3.58-22.63-9.37s-9.37-13.79-9.37-22.63v-16h-32v16c0 17.67-14.33 32-32 32-8.84 0-16.84-3.58-22.63-9.37s-9.37-13.79-9.37-22.63v-16h-32v16c0 17.67-14.33 32-32 32-8.84 0-16.84-3.58-22.63-9.37s-9.37-13.79-9.37-22.63v-16c-17.67 0-32-14.33-32-32l56-320c0-17.67 14.33-32 32-32h144c17.67 0 32 14.33 32 32l29.4 168 21 120z" fill="#b3113f"/><circle cx="208" cy="56" fill="#e9eef2" r="32"/><circle cx="304" cy="56" fill="#e9eef2" r="32"/><path d="m192 176v-48l32 32z" fill="#e9eef2"/><path d="m320 176v-48l-32 32z" fill="#e9eef2"/><path d="m336.006 200c-2.433 0-4.834-1.105-6.406-3.201-.877-1.143-22.682-28.8-73.6-28.8s-72.723 27.657-73.626 28.834c-2.678 3.492-7.688 4.182-11.195 1.521-3.507-2.66-4.219-7.635-1.579-11.156 1.078-1.438 27.082-35.2 86.4-35.2s85.322 33.763 86.4 35.2c2.651 3.535 1.935 8.549-1.6 11.2-1.439 1.081-3.124 1.602-4.794 1.602z" fill="#660a23"/><g fill="#730b29"><circle cx="136" cy="328" r="24"/><circle cx="256" cy="368" r="24"/><path d="m403.4 336h-19.4c-22.09 0-40-17.91-40-40s17.91-40 40-40h5.4z"/><circle cx="216" cy="296" r="16"/><path d="m416 408c0 17.67-14.33 32-32 32v16c0 17.67-14.33 32-32 32-8.84 0-16.84-3.58-22.63-9.37s-9.37-13.79-9.37-22.63v-16c0-35.35 28.65-64 64-64h26.4z"/><circle cx="160" cy="424" r="32"/></g><circle cx="208" cy="56" fill="#660a23" r="8"/><circle cx="304" cy="56" fill="#660a23" r="8"/><circle cx="288" cy="312" fill="#730b29" r="8"/><circle cx="192" cy="360" fill="#730b29" r="8"/></svg>