<svg id="Flat" height="512" viewBox="0 0 512 512" width="512" xmlns="http://www.w3.org/2000/svg"><path d="m192 160v32h-16c-17.673 0-32-14.327-32-32 0-40-32-56-56-56-35.35 0-64-20.65-64-56v-24l8 16c6.32 7.9 15.26 13.9 25.15 17.92 9.89 4.03 20.73 6.08 30.85 6.08 53.02 0 96 42.98 96 96z" fill="#962523"/><path d="m320 160v32h16c17.673 0 32-14.327 32-32 0-40 32-56 56-56 35.35 0 64-20.65 64-56v-24l-8 16c-6.32 7.9-15.26 13.9-25.15 17.92-9.89 4.03-20.73 6.08-30.85 6.08-53.02 0-96 42.98-96 96z" fill="#962523"/><path d="m216 296h32v192h-32z" fill="#a82a27"/><path d="m264 296h32v192h-32z" fill="#a82a27"/><path d="m184 256-96-88-64 64s24-16 48 0 16 40 16 40 16-16 48-16 48 0 48 0z" fill="#962523"/><path d="m328 256 96-88 64 64s-24-16-48 0-16 40-16 40-16-16-48-16-48 0-48 0z" fill="#962523"/><path d="m248 488h-48v-8c0-13.255 10.745-24 24-24 13.255 0 24 10.745 24 24z" fill="#eb423f"/><path d="m312 488h-48v-8c0-13.255 10.745-24 24-24 13.255 0 24 10.745 24 24z" fill="#eb423f"/><path d="m352 328v-56c0-53.019-10.667-184-96-184s-96 130.981-96 184v56c-8.837 0-16 7.163-16 16s7.163 16 16 16h32c8.837 0 16-7.163 16-16s-7.163-16-16-16v-2.188c16.985 7.822 39.411 10.188 64 10.188s47.015-2.366 64-10.188v2.188c-8.837 0-16 7.163-16 16s7.163 16 16 16h32c8.837 0 16-7.163 16-16s-7.163-16-16-16z" fill="#eb423f"/><path d="m256 216c-56 0-40-72-40-72s10.46 10.46 27.16 14.46c3.95.95 8.25 1.54 12.84 1.54s8.89-.59 12.84-1.54c16.7-4 27.16-14.46 27.16-14.46s16 72-40 72z" fill="#e9eef2"/><g fill="#a82a27"><path d="m268.84 158.46c-3.95.95-8.25 1.54-12.84 1.54s-8.89-.59-12.84-1.54c-1.98 2.67-3.16 5.97-3.16 9.54 0 8.82 7.18 16 16 16s16-7.18 16-16c0-3.57-1.18-6.87-3.16-9.54z"/><path d="m291.578 248.845-16-8c-3.952-1.976-8.757-.374-10.733 3.578s-.375 8.757 3.578 10.733l3.531 1.766c-.482 8.392-7.443 15.078-15.954 15.078h-24c-4.418 0-8 3.582-8 8s3.582 8 8 8h24c14.907 0 27.464-10.246 31.003-24.065.33.042.661.067.991.067 2.935 0 5.76-1.621 7.162-4.424 1.975-3.952.374-8.758-3.578-10.733z"/><path d="m192 328c-4.418 0-8-3.582-8-8v-64c0-4.418 3.582-8 8-8s8 3.582 8 8v64c0 4.418-3.582 8-8 8z"/><path d="m320 328c-4.418 0-8-3.582-8-8v-64c0-4.418 3.582-8 8-8s8 3.582 8 8v64c0 4.418-3.582 8-8 8z"/><path d="m320 376c-4.418 0-8-3.582-8-8v-8c0-4.418 3.582-8 8-8s8 3.582 8 8v8c0 4.418-3.582 8-8 8z"/><path d="m336 376c-4.418 0-8-3.582-8-8v-8c0-4.418 3.582-8 8-8s8 3.582 8 8v8c0 4.418-3.582 8-8 8z"/><path d="m352 376c-4.418 0-8-3.582-8-8v-8c0-4.418 3.582-8 8-8s8 3.582 8 8v8c0 4.418-3.582 8-8 8z"/><path d="m160 376c-4.418 0-8-3.582-8-8v-8c0-4.418 3.582-8 8-8s8 3.582 8 8v8c0 4.418-3.582 8-8 8z"/><path d="m176 376c-4.418 0-8-3.582-8-8v-8c0-4.418 3.582-8 8-8s8 3.582 8 8v8c0 4.418-3.582 8-8 8z"/><path d="m192 376c-4.418 0-8-3.582-8-8v-8c0-4.418 3.582-8 8-8s8 3.582 8 8v8c0 4.418-3.582 8-8 8z"/></g></svg>