<svg id="Flat" height="512" viewBox="0 0 512 512" width="512" xmlns="http://www.w3.org/2000/svg"><path d="m488 208v192c0 44.18-35.82 80-80 80h-304c-44.18 0-80-35.82-80-80v-192c0-61.86 103.87-112 232-112s232 50.14 232 112z" fill="#fd84b3"/><path d="m288 384h-64c-39.764 0-72-32.235-72-72 0-39.764 32.235-72 72-72h64c39.764 0 72 32.235 72 72 0 39.765-32.235 72-72 72z" fill="#dadcde"/><circle cx="256" cy="152" fill="#fda2c6" r="128"/><path d="m120 288v192h-16v-192c0-4.42 3.58-8 8-8s8 3.58 8 8z" fill="#d95a88"/><path d="m408 288v192h-16v-192c0-4.42 3.58-8 8-8s8 3.58 8 8z" fill="#d95a88"/><path d="m264 424v56h-16v-56c0-4.42 3.58-8 8-8s8 3.58 8 8z" fill="#d95a88"/><g fill="#fda2c6"><path d="m304 472c0-13.255-10.745-24-24-24s-24 10.745-24 24v8h48z"/><path d="m352 472c0-13.255-10.745-24-24-24s-24 10.745-24 24v8h48z"/><path d="m400 472c0-13.255-10.745-24-24-24s-24 10.745-24 24v8h48z"/><path d="m160 472c0-13.255-10.745-24-24-24s-24 10.745-24 24v8h48z"/><path d="m208 472c0-13.255-10.745-24-24-24s-24 10.745-24 24v8h48z"/><path d="m256 472c0-13.255-10.745-24-24-24s-24 10.745-24 24v8h48z"/></g><circle cx="256" cy="128" fill="#dadcde" r="48"/><circle cx="256" cy="128" fill="#1261a0" r="16"/><circle cx="256" cy="104" fill="#e9eef2" r="8"/><path d="m333.657 194.343-16-16c-3.125-3.124-8.189-3.124-11.314 0-3.124 3.124-3.124 8.189 0 11.313l4.159 4.159c-1.283 2.219-3.412 5.178-6.816 8.205-7.175 6.378-21.272 13.98-47.686 13.98-37.309 0-50.364-14.884-54.519-22.167l4.176-4.176c3.124-3.124 3.124-8.189 0-11.313-3.125-3.124-8.189-3.124-11.314 0l-16 16c-3.124 3.124-3.124 8.189 0 11.313 1.562 1.562 3.609 2.343 5.657 2.343s4.095-.781 5.657-2.343l.287-.287c7.921 11.222 26.073 26.63 66.056 26.63s58.135-15.408 66.056-26.63l.287.287c1.562 1.562 3.609 2.343 5.657 2.343s4.095-.781 5.657-2.343c3.124-3.124 3.124-8.19 0-11.314z" fill="#d95a88"/><path d="m320 80c0 13.25 10.75 24 24 24h32c44.18 0 64-35.82 64-80 0 0-32 32-64 32h-32c-13.25 0-24 10.75-24 24z" fill="#3dc285"/><path d="m344 56h16v48h-16z" fill="#319c6a"/><path d="m400.84 99.43c-4.71 1.94-9.88 3.29-15.51 4l-9.48-47.43h.15c5.28 0 10.55-.87 15.69-2.33z" fill="#319c6a"/><path d="m431.42 68.69c-2.51 5.52-5.59 10.56-9.26 14.98l-20.82-31.23c-.39-.58-.69-1.19-.9-1.82 4.99-2.07 9.75-4.56 14.13-7.19.03.04.06.09.09.13z" fill="#319c6a"/><path d="m192 80c0 13.25-10.75 24-24 24h-32c-44.18 0-64-35.82-64-80 0 0 32 32 64 32h32c13.25 0 24 10.75 24 24z" fill="#3dc285"/><path d="m152 56h16v48h-16z" fill="#319c6a"/><path d="m136 56c0 .52-.05 1.04-.16 1.57l-9.17 45.86c-5.63-.71-10.8-2.06-15.51-4l9-45c.05-.26.11-.51.19-.75 5.12 1.45 10.39 2.32 15.65 2.32z" fill="#319c6a"/><path d="m111.56 50.62c-.21.63-.51 1.24-.9 1.82l-21.24 30.73c-3.6-4.45-6.62-9.49-9.08-15.02l17-24.59c.03-.04.06-.09.09-.13 4.38 2.63 9.14 5.12 14.13 7.19z" fill="#319c6a"/></svg>