<svg id="Flat" height="512" viewBox="0 0 512 512" width="512" xmlns="http://www.w3.org/2000/svg"><path d="m480 376c0 123.712-100.288 112-224 112s-224 11.712-224-112 100.288-352 224-352 224 228.288 224 352z" fill="#b077c7"/><path d="m120 160s-104-24-80-72 96 32 96 32z" fill="#c082d9"/><path d="m392.404 160s104-24 80-72-96 32-96 32z" fill="#c082d9"/><circle cx="160" cy="152" fill="#e9eef2" r="40"/><circle cx="256" cy="96" fill="#e9eef2" r="40"/><circle cx="352" cy="152" fill="#e9eef2" r="40"/><path d="m160 168c-8.822 0-16-7.178-16-16s7.178-16 16-16 16 7.178 16 16-7.178 16-16 16zm0-16.01v.01c0-.007 0-.01 0-.01z" fill="#22334f"/><path d="m256 112c-8.822 0-16-7.178-16-16s7.178-16 16-16 16 7.178 16 16-7.178 16-16 16zm0-16.01v.01c0-.007 0-.01 0-.01z" fill="#22334f"/><path d="m368 288c0 26.51-10.74 50.51-28.12 67.88-10.02 10.02-22.24 17.84-35.88 22.65-10.01 3.55-20.78 5.47-32 5.47h-32c-11.22 0-21.99-1.92-32-5.47-37.29-13.17-64-48.73-64-90.53z" fill="#eb423f"/><g fill="#fff"><path d="m176 288v16c0 8.837 7.163 16 16 16 8.837 0 16-7.163 16-16v-16z"/><path d="m240 288v16c0 8.837 7.163 16 16 16 8.837 0 16-7.163 16-16v-16z"/><path d="m304 288v16c0 8.837 7.163 16 16 16 8.837 0 16-7.163 16-16v-16z"/><path d="m304 368v10.53c-10.01 3.55-20.78 5.47-32 5.47v-16c0-8.84 7.16-16 16-16 4.42 0 8.42 1.79 11.32 4.68 2.89 2.9 4.68 6.9 4.68 11.32z"/><path d="m272 368v16h-32v-16c0-8.84 7.16-16 16-16 4.42 0 8.42 1.79 11.32 4.68 2.89 2.9 4.68 6.9 4.68 11.32z"/><path d="m240 368v16c-11.22 0-21.99-1.92-32-5.47v-10.53c0-4.42 1.79-8.42 4.68-11.32 2.9-2.89 6.9-4.68 11.32-4.68 8.84 0 16 7.16 16 16z"/></g><path d="m352 168c-8.822 0-16-7.178-16-16s7.178-16 16-16 16 7.178 16 16-7.178 16-16 16zm0-16.01v.01c0-.007 0-.01 0-.01z" fill="#22334f"/><path d="m408 296h-272c-22.056 0-40-17.944-40-40 0-4.418 3.582-8 8-8 13.233 0 24-10.766 24-24 0-4.418 3.582-8 8-8s8 3.582 8 8c0 18.95-13.248 34.866-30.968 38.972 2.994 9.843 12.158 17.028 22.968 17.028h272c4.418 0 8 3.582 8 8s-3.582 8-8 8z" fill="#d1a6f7"/><path d="m304 264h-96c-4.418 0-8-3.582-8-8s3.582-8 8-8h96c4.418 0 8 3.582 8 8s-3.582 8-8 8z" fill="#764f85"/><path d="m256 432c-27.795 0-47.84-2.976-59.578-8.845-11.526-5.763-12.422-13.057-12.422-15.155 0-4.418 3.582-8 8-8 3.818 0 7.013 2.676 7.81 6.255 1.242 1.432 10.446 9.745 56.19 9.745s54.948-8.313 56.19-9.745c.797-3.579 3.991-6.255 7.81-6.255 4.418 0 8 3.582 8 8 0 2.098-.896 9.392-12.422 15.155-11.738 5.869-31.783 8.845-59.578 8.845zm56-24.011v.011c0-.004 0-.007 0-.011zm-112 0v.011c0-.004 0-.007 0-.011zm112-.013v.01c0-.004 0-.007 0-.01zm-112 0v.01c0-.004 0-.007 0-.01zm112-.01v.005c0-.002 0-.004 0-.005zm-112 0v.005c0-.002 0-.003 0-.005z" fill="#764f85"/><path d="m136 360s-60 148-96 112 56-136 56-136l6.86 4.11 26.28 15.77z" fill="#c082d9"/><path d="m415.646 336s92 100 56 136-96-112-96-112z" fill="#c082d9"/><circle cx="240" cy="208" fill="#764f85" r="8"/><circle cx="272" cy="208" fill="#764f85" r="8"/></svg>