<svg id="Flat" height="512" viewBox="0 0 512 512" width="512" xmlns="http://www.w3.org/2000/svg"><path d="m160 104s-80 0-80-80c0 0 24 40 88 40z" fill="#ffd33a"/><path d="m352 104s80 0 80-80c0 0-24 40-88 40z" fill="#ffd33a"/><path d="m176 232-112-72-40 24s32 16 16 48c0 0 40-8 48 24 0 0 32-24 64 0z" fill="#1261a0"/><path d="m336 232 112-72 40 24s-32 16-16 48c0 0-40-8-48 24 0 0-32-24-64 0z" fill="#1261a0"/><path d="m383.983 260.642c.008-1.54.017-3.079.017-4.642 0-86.622-35.017-183.907-48-216-2.447-6.049-9.475-16-16-16h-128c-6.525 0-13.553 9.951-16 16-12.983 32.093-48 129.378-48 216 0 1.563.009 3.102.017 4.642-46.271 13.764-80.017 56.617-80.017 107.358v40c0 22.091 17.909 40 40 40 22.091 0 40-17.909 40-40v-40c0-6.945 2.22-13.368 5.978-18.613 9.261 65.456 26.022 90.613 26.022 90.613v32c0 8.837 7.163 16 16 16h48c8.837 0 16-7.163 16-16v-32h32v32c0 8.837 7.163 16 16 16h48c8.837 0 16-7.163 16-16v-32s16.761-25.157 26.022-90.613c3.758 5.245 5.978 11.668 5.978 18.613v40c0 22.091 17.909 40 40 40 22.091 0 40-17.909 40-40v-40c0-50.741-33.746-93.594-80.017-107.358z" fill="#2d85cc"/><path d="m176 176.028c0-13.255 35.817-8 80-8s80-5.255 80 8-35.817 40-80 40-80-26.745-80-40z" fill="#a82a27"/><circle cx="216" cy="104" fill="#e9eef2" r="32"/><circle cx="296" cy="104" fill="#e9eef2" r="32"/><g fill="#2978b8"><path d="m240 392c0 13.255-10.745 16-24 16s-24-2.745-24-16z"/><path d="m320 392c0 13.255-10.745 16-24 16s-24-2.745-24-16z"/><path d="m240 352c0 13.255-10.745 16-24 16s-24-2.745-24-16z"/><path d="m320 352c0 13.255-10.745 16-24 16s-24-2.745-24-16z"/><path d="m240 312c0 13.255-10.745 16-24 16s-24-2.745-24-16z"/><path d="m320 312c0 13.255-10.745 16-24 16s-24-2.745-24-16z"/></g><circle cx="216" cy="104" fill="#22334f" r="8"/><circle cx="296" cy="104" fill="#22334f" r="8"/></svg>