<svg id="Flat" height="512" viewBox="0 0 512 512" width="512" xmlns="http://www.w3.org/2000/svg"><path d="m89.79 268.6c3.47-2.66 5.76-4.28 6.15-4.55-.4.33-2.66 2.16-6.15 4.55z" style="fill:#fff;stroke:#000;stroke-width:16;stroke-linecap:round;stroke-linejoin:round;stroke-miterlimit:10"/><path d="m88 272c-12.981 9.941-43.55 23.13-56-8-14.93-37.31 61.78-61.03 72-64-9.72 2.7-80 20.62-80-24 0-46.56 128.32-17.76 136-16-6.42-1.66-95.42-25.44-80-64 16-40 96 32 96 32s-56-64-16-88 64 64 64 64c0-80 32-80 32-80s32 0 32 80c0 0 24-88 64-64s-16 88-16 88 80-72 96-32c15.42 38.56-73.58 62.34-80 64 7.68-1.76 136-30.56 136 16 0 44.62-70.28 26.7-80 24 10.22 2.97 86.93 26.69 72 64-12.45 31.13-44.28 13.81-57.79 4.6-3.47-2.66-5.76-4.28-6.15-4.55.4.33 2.66 2.16 6.15 4.55 18.32 14.03 69.65 56.93 49.79 83.4-23.22 30.96-76.39-42.91-79.83-47.75 3.55 5.4 62.64 96.46 23.83 119.75-38.06 22.83-69.09-63.61-72-72 3.09 9.54 37.91 120-8 120-35.68 0-39.92-41.31-40-64 .5-7.94 0-16 0-16s0 8 0 16c-1.65 26.27-9.28 80-40 80s-38.35-53.73-40-80v-16s-.5 8.06 0 16c-.08 22.69-4.32 64-40 64-45.91 0-11.09-110.46-8-120-2.91 8.39-33.94 94.83-72 72-38.81-23.29 20.45-114.6 24-120-3.44 4.84-56.78 78.96-80 48-19.86-26.47 29.68-65.97 48-80z" fill="#fda2c6"/><path d="m240 208s-25.07 48-56 48-56-48-56-48z" fill="#e9eef2"/><circle cx="184" cy="216" fill="#660a23" r="16"/><path d="m240 208h-112s25.07-48 56-48 56 48 56 48z" fill="#395a8d"/><path d="m384 208s-25.07 48-56 48-56-48-56-48z" fill="#e9eef2"/><circle cx="328" cy="216" fill="#660a23" r="16"/><path d="m384 208h-112s25.07-48 56-48 56 48 56 48z" fill="#395a8d"/><path d="m240 208s-40 80 16 80 16-80 16-80z" fill="#395a8d"/><path d="m296 352h-80c-17.673 0-32-14.327-32-32 0-17.673 14.327-32 32-32h80c17.673 0 32 14.327 32 32 0 17.673-14.327 32-32 32z" fill="#eb423f"/><path d="m296 328h-80c-4.418 0-8-3.582-8-8s3.582-8 8-8h80c4.418 0 8 3.582 8 8s-3.582 8-8 8z" fill="#962523"/></svg>