<svg id="Flat" height="512" viewBox="0 0 512 512" width="512" xmlns="http://www.w3.org/2000/svg"><path d="m256 256-192 56-40 176s16-32 56-32c0 0-16-48 40-48z" fill="#800c2e"/><path d="m256 256 192 56 40 176s-16-32-56-32c0 0 16-48-40-48z" fill="#800c2e"/><path d="m232 424v64h-96c0-17.673 14.327-32 32-32v-32z" fill="#660a23"/><path d="m280 424v64h96c0-17.673-14.327-32-32-32v-32z" fill="#660a23"/><path d="m328 440h-144c-35.346 0-64-28.654-64-64l-24-192c0-35.346 28.654-64 64-64h192c35.346 0 64 28.654 64 64l-24 192c0 35.346-28.654 64-64 64z" fill="#b3113f"/><path d="m240 240c0 22.091-17.909 40-40 40s-40-17.909-40-40z" fill="#e9eef2"/><path d="m352 240c0 22.091-17.909 40-40 40s-40-17.909-40-40z" fill="#e9eef2"/><path d="m200 256c-8.822 0-16-7.178-16-16 0-4.418 3.582-8 8-8s8 3.582 8 8c0-4.418 3.582-8 8-8s8 3.582 8 8c0 8.822-7.178 16-16 16z" fill="#660a23"/><path d="m312 256c-8.822 0-16-7.178-16-16 0-4.418 3.582-8 8-8s8 3.582 8 8c0-4.418 3.582-8 8-8s8 3.582 8 8c0 8.822-7.178 16-16 16z" fill="#660a23"/><path d="m240 240h-72c-17.673 0-32-14.327-32-32h72c17.673 0 32 14.327 32 32z" fill="#ed6f6d"/><path d="m344 240h-72c0-17.673 14.327-32 32-32h72c0 17.673-14.327 32-32 32z" fill="#ed6f6d"/><path d="m233 352s-2.37 1.78-5.99 4.21c-9.66 6.49-28.19 17.61-34.01 11.79-4.42-4.42.93-18.6 6.6-30.42 4.41-9.18 9.02-16.94 9.37-17.54 1.77 6.81 5.9 12.26 12.23 16.22z" fill="#e9eef2"/><path d="m319.37 368c-5.85 5.85-24.5-5.39-34.13-11.87-3.55-2.39-5.87-4.13-5.87-4.13l12.15-16.2c5.72-3.79 9.55-8.85 11.32-15.1l.53-.7s4.7 7.84 9.25 17.26c5.73 11.88 11.21 26.28 6.75 30.74z" fill="#e9eef2"/><path d="m320 312c0 9.57-2.52 18.13-7.38 25.26-2.34 3.43-5.22 6.53-8.61 9.26-5.18 4.16-11.45 7.37-18.77 9.61-8.39 2.57-18.16 3.87-29.24 3.87-10.97 0-20.66-1.27-28.99-3.79-7.43-2.24-13.78-5.48-19.02-9.69-3.29-2.64-6.09-5.63-8.39-8.94-5-7.2-7.6-15.86-7.6-25.58 0-4.42 3.58-8 8-8s8 3.58 8 8c0 2.86.33 5.54.97 8.04 1.77 6.81 5.9 12.26 12.23 16.22 8.11 5.08 19.83 7.74 34.8 7.74 15.42 0 27.39-2.82 35.52-8.2 5.72-3.79 9.55-8.85 11.32-15.1.77-2.68 1.16-5.59 1.16-8.7 0-4.42 3.58-8 8-8s8 3.58 8 8z" fill="#660a23"/><path d="m125.61 401.73-5.61 6.27c-3.23 0-6.22.16-8.99.46l-34.89-59.8 8.05 72.49c-11.05 14.21-4.17 34.85-4.17 34.85-2.78 0-5.45.15-8 .45l-13.41-120.67 5.41-23.78 7.91-2.31z" fill="#660a23"/><path d="m453.41 335.78-13.41 120.67c-2.55-.3-5.22-.45-8-.45 0 0 6.88-20.64-4.17-34.85l8.05-72.49-34.89 59.8c-2.77-.3-5.76-.46-8.99-.46l-5.61-6.27 53.7-92.04 7.91 2.31z" fill="#660a23"/><path d="m240.002 128v1.197c0 21.43-17.371 38.803-38.802 38.803h-2.193c-21.735 0-39.007-17.271-39.007-38.578 0-.472 0-.945 0-1.419 0-30.928-25.072-56.003-56-56.003-8.837 0-16 7.164-16 16l-48 48v-32c0-44.183 35.817-80 80-80h16c57.438 0 104.001 46.562 104.002 104z" fill="#660a23"/><path d="m272 128v1.197c0 21.43 17.371 38.803 38.802 38.803h2.193c21.735 0 39.007-17.271 39.007-38.578 0-.472 0-.945 0-1.419 0-30.928 25.072-56.003 56-56.003 8.837 0 16 7.164 16 16l48 48v-32c0-44.183-35.817-80-80-80h-16c-57.438 0-104.001 46.562-104.002 104z" fill="#660a23"/><g fill="#800c2e"><path d="m94.88 74.85c-.79.54-1.52 1.16-2.2 1.83-2.89 2.9-4.68 6.9-4.68 11.32l-1.94 1.94-27.25-37.47c3.48-4.13 7.37-7.9 11.61-11.25z"/><path d="m239.58 118.67-11.49-7.66c-2.21-.94-14.89-5.65-33.56.58-20.29 6.76-27.31 19.86-27.37 19.99-.39.77-.9 1.47-1.5 2.08l-4.63 4.63c-.68-2.85-1.03-5.82-1.03-8.87v-1.42c0-4.07-.43-8.03-1.26-11.85 5.48-6.23 15.18-14.56 30.73-19.74 25.01-8.33 42.78-1.09 45.71.24h.01c2.23 7.05 3.72 14.42 4.39 22.02z"/><path d="m353.26 116.15c-.83 3.82-1.26 7.78-1.26 11.85v1.42c0 3.72-.53 7.32-1.52 10.72l-5.13-7.7c-.19-.28-.35-.57-.5-.86-.25-.47-7.16-13.25-27.38-19.99-18.55-6.19-31.4-1.48-33.57-.58l-11.48 7.66c.67-7.6 2.16-14.97 4.39-22.02 2.9-1.31 20.67-8.58 45.72-.24 15.55 5.19 25.25 13.51 30.73 19.74z"/><path d="m155.64 25.86-7.2 4.8c-20.26 13.5-28.02 40.85-28.64 43.14l-.09.44c-4.98-1.46-10.26-2.24-15.71-2.24h-.15l.31-1.57c.02-.12.05-.25.08-.37.32-1.26 7.15-27.82 26.9-46.06h4.86c6.72 0 13.28.64 19.64 1.86z"/><path d="m408 72c-5.44 0-10.7.78-15.68 2.23-.03-.09-.06-.19-.08-.28-.1-.4-7.67-29.29-28.68-43.29l-7.2-4.8c6.36-1.22 12.92-1.86 19.64-1.86h4.86c19.75 18.24 26.59 44.8 26.9 46.06.16.65.24 1.3.24 1.94z"/><path d="m453.96 53.39-27.67 36.9-2.29-2.29c0-4.42-1.79-8.42-4.68-11.32-.53-.53-1.11-1.03-1.71-1.49l24.91-33.22c4.19 3.41 8.02 7.24 11.44 11.42z"/><path d="m226.56 76.84-13.53-5.41c-.21-.08-.41-.18-.61-.27-.48-.23-13.67-6.31-33.89.43-12.12 4.04-24.57 16.88-28.34 21.48-.17.2-.35.4-.53.59l-.81.81c-3.21-4.29-7.02-8.1-11.31-11.32l.55-.55c2.29-2.72 17.55-20.24 35.38-26.19 14.71-4.9 26.92-4.41 35.08-2.91 7.05 6.85 13.13 14.71 18.01 23.34z"/><path d="m374.4 83.2c-4.37 3.28-8.25 7.19-11.49 11.59l-1.32-1.98c-1.83-2.15-14.61-16.72-28.12-21.22-20.22-6.74-33.41-.66-33.96-.4-.2.1-.33.16-.54.24l-13.53 5.41c4.88-8.63 10.96-16.49 18.01-23.34 8.15-1.51 20.36-1.99 35.08 2.91 18.95 6.32 34.99 25.7 35.66 26.52.07.09.14.18.21.27z"/></g><path d="m240 304c-4.418 0-8 3.582-8 8 0 .653.273 16 24 16s24-15.347 24-16c0-4.418-3.582-8-8-8-3.905 0-7.157 2.799-7.859 6.5-.619.422-2.731 1.5-8.141 1.5s-7.521-1.078-8.141-1.5c-.702-3.701-3.954-6.5-7.859-6.5z" fill="#660a23"/></svg>