<svg id="Flat" height="512" viewBox="0 0 512 512" width="512" xmlns="http://www.w3.org/2000/svg"><path d="m128 272h256v64h-256z" fill="#ffd33a"/><path d="m304 272h80v64h-80z" fill="#ffb632"/><path d="m120 232v48c0 35.346-28.654 64-64 64h-32c-8.837 0-16-7.163-16-16v-16c0-8.837 7.163-16 16-16 8.837 0 16 7.163 16 16h16c17.673 0 32-14.327 32-32v-48z" fill="#ff8e26"/><path d="m224 456v32h-72c0-8.84 2.21-18.21 8-24s15.16-8 24-8z" fill="#395a8d"/><path d="m192 408h32v48h-32z" fill="#ff8e26"/><path d="m328 456v32h-72c0-8.84 2.21-18.21 8-24s15.16-8 24-8z" fill="#395a8d"/><path d="m296 408h32v48h-32z" fill="#ff8e26"/><path d="m368 424h-96v-24h-32v24h-96c-8.837 0-16-7.163-16-16v-40h256v40c0 8.837-7.163 16-16 16z" fill="#2d85cc"/><path d="m128 336h256v32h-256z" fill="#395a8d"/><path d="m184 336h-64c-44.183 0-80-35.817-80-80v-160c0-39.764 32.235-72 72-72 39.764 0 72 32.235 72 72z" fill="#ffb632"/><path d="m216 248v32c0 35.346-28.654 64-64 64h-32c-8.837 0-16-7.163-16-16v-16c0-8.837 7.163-16 16-16 8.837 0 16 7.163 16 16h16c17.673 0 32-14.327 32-32v-32c0-8.837 7.163-16 16-16 8.837 0 16 7.163 16 16z" fill="#ff8e26"/><path d="m328 336h-64c-44.183 0-80-35.817-80-80v-160c0-39.764 32.235-72 72-72 39.764 0 72 32.235 72 72z" fill="#ffd33a"/><path d="m360 248v32c0 35.346-28.654 64-64 64h-32c-8.837 0-16-7.163-16-16v-16c0-8.837 7.163-16 16-16 8.837 0 16 7.163 16 16h16c17.673 0 32-14.327 32-32v-32c0-8.837 7.163-16 16-16 8.837 0 16 7.163 16 16z" fill="#ff8e26"/><path d="m472 336h-64c-44.183 0-80-35.817-80-80v-160c0-39.764 32.235-72 72-72 39.764 0 72 32.235 72 72z" fill="#ffb632"/><g fill="#e9eef2"><circle cx="80" cy="128" r="48"/><circle cx="224" cy="128" r="48"/><circle cx="368" cy="128" r="48"/></g><path d="m72 144c-8.822 0-16-7.178-16-16s7.178-16 16-16 16 7.178 16 16-7.178 16-16 16zm0-16.01v.01c0-.007 0-.01 0-.01z" fill="#22334f"/><path d="m216 144c-8.822 0-16-7.178-16-16s7.178-16 16-16 16 7.178 16 16-7.178 16-16 16zm0-16.01v.01c0-.007 0-.01 0-.01z" fill="#22334f"/><path d="m360 144c-8.822 0-16-7.178-16-16s7.178-16 16-16 16 7.178 16 16-7.178 16-16 16zm0-16.01v.01c0-.007 0-.01 0-.01z" fill="#22334f"/><path d="m40 248c0-22.091 17.909-40 40-40s40 17.909 40 40z" fill="#eb423f"/><path d="m184 248c0-22.091 17.909-40 40-40s40 17.909 40 40z" fill="#eb423f"/><path d="m328 248c0-22.091 17.909-40 40-40s40 17.909 40 40z" fill="#eb423f"/><path d="m504 248v32c0 35.346-28.654 64-64 64h-32c-8.837 0-16-7.163-16-16v-16c0-8.837 7.163-16 16-16 8.837 0 16 7.163 16 16h16c17.673 0 32-14.327 32-32v-32c0-8.837 7.163-16 16-16 8.837 0 16 7.163 16 16z" fill="#ff8e26"/></svg>