<svg id="Flat" height="512" viewBox="0 0 512 512" width="512" xmlns="http://www.w3.org/2000/svg"><path d="m256 384-128-88-104 88s24-16 40-8 16 32 16 32 8-24 40-16 32 24 32 24 8-24 40-32 64 0 64 0z" fill="#eba72e"/><path d="m256 384 128-88 104 88s-24-16-40-8-16 32-16 32-8-24-40-16-32 24-32 24-8-24-40-32-64 0-64 0z" fill="#eba72e"/><path d="m184 280c-70.692 0-128-25.308-128-96s128-160 128-160z" fill="#ffd33a"/><path d="m256 304h-72v88c0 17.673 14.327 32 32 32v-32c0 53.019 42.981 96 96 96h88c-53.019 0-96-42.981-96-96 0 17.673 14.327 32 32 32v-120z" fill="#d13330"/><path d="m184 256c-53.019 0-96-10.981-96-64s96-128 96-128z" fill="#eba72e"/><path d="m328 280c70.692 0 128-25.308 128-96s-128-160-128-160z" fill="#ffd33a"/><path d="m328 256c53.019 0 96-10.981 96-64s-96-128-96-128z" fill="#eba72e"/><circle cx="256" cy="256" fill="#eb423f" r="104"/><path d="m312 224s-25.072 56-56 56-56-56-56-56 25.072-56 56-56 56 56 56 56z" fill="#e9eef2"/><path d="m256 104s-72 0-72 48 120 48 120 48v-32h32s8-64-80-64z" fill="#d13330"/><circle cx="256" cy="224" fill="#22334f" r="16"/><path d="m309.657 306.343-16-16c-3.125-3.123-8.189-3.123-11.314 0-3.124 3.125-3.124 8.189 0 11.314l3.921 3.921c-3.549 5.46-12.132 14.422-30.264 14.422-25.382 0-32.104-17.683-32.433-18.596-1.423-4.148-5.922-6.381-10.098-4.994-4.191 1.397-6.456 5.928-5.06 10.12.403 1.203 10.254 29.47 47.591 29.47 22.759 0 35.294-10.499 41.713-18.973l.63.63c1.562 1.562 3.609 2.343 5.657 2.343s4.095-.781 5.657-2.343c3.124-3.125 3.124-8.189 0-11.314z" fill="#962523"/><g fill="#ffd33a"><path d="m434.47 393.46c-2.47 7.64-2.47 14.54-2.47 14.54s-3.53-10.59-15.28-15.35l-30.17-70.38-17.03 79.48c-9.52 7.12-9.52 14.25-9.52 14.25s-1.84-5.52-7.29-12.15l21.7-101.25 9.59-6.6 13.65 11.55z"/><path d="m158.04 405.43c-4.48 5.9-6.04 10.57-6.04 10.57s0-7.97-11.25-15.48l-15.54-77.69-29.93 69.82c-11.75 4.76-15.28 15.35-15.28 15.35s0-6.9-2.47-14.54l36.82-85.91 13.65-11.55 9.45 6.5z"/></g></svg>