<svg id="Flat" height="512" viewBox="0 0 512 512" width="512" xmlns="http://www.w3.org/2000/svg"><path d="m72 16c-4.418 0-8 3.582-8 8v56c0 8.822-7.178 16-16 16s-16-7.178-16-16v-56c0-4.418-3.582-8-8-8s-8 3.582-8 8v56c0 14.883 10.214 27.426 24 30.987v377.013c0 4.418 3.582 8 8 8s8-3.582 8-8v-377.013c13.786-3.561 24-16.104 24-30.987v-56c0-4.418-3.582-8-8-8z" fill="#b3113f"/><g fill="#ff6aa0"><path d="m480 344v40h-32v-40c0-26.51-21.49-48-48-48v-32c44.183 0 80 35.817 80 80z"/><path d="m280 352v120c0 8.837-7.163 16-16 16h-120c0-17.673 14.327-32 32-32h72v-104z"/><path d="m312 352v120c0 8.837 7.163 16 16 16h120c0-17.673-14.327-32-32-32h-72v-104z"/><path d="m32 272h160v32h-160z"/></g><path d="m296 408 16-16 16 16 16-16 16 16 16-16 16 16v-64l16 8v-48l8 8v-48l8 8v-48l8 8v-48l8 8v-40l8 8v-40.001l8 8.001-8-64h8c0-22.091-17.909-40-40-40h-240c-22.091 0-40 17.909-40 40h8l-8 64 8-8.001v40.001l8-8v40l8-8v48l8-8v48l8-8v48l8-8v48l16-8v64l16-16 16 16 16-16 16 16 16-16z" fill="#b077c7"/><path d="m280 120c0 26.51-21.49 48-48 48s-48-21.49-48-48z" fill="#e9eef2"/><path d="m245.84 120h-27.68c-1.37 2.35-2.16 5.09-2.16 8 0 8.82 7.18 16 16 16s16-7.18 16-16c0-2.91-.79-5.65-2.16-8z" fill="#22334f"/><path d="m408 120c0 26.51-21.49 48-48 48s-48-21.49-48-48z" fill="#e9eef2"/><path d="m373.84 120h-27.68c-1.37 2.35-2.16 5.09-2.16 8 0 8.82 7.18 16 16 16s16-7.18 16-16c0-2.91-.79-5.65-2.16-8z" fill="#22334f"/><path d="m224 224h144v96h-144z" fill="#764f85"/><path d="m224 224 24 32 24-32 24 32 24-32 24 32 24-32z" fill="#e9eef2"/><path d="m368 320-24-32-24 32-24-32-24 32-24-32-24 32z" fill="#e9eef2"/><path d="m40 320c-8.837 0-16-7.163-16-16v-32c0-8.837 7.163-16 16-16 17.673 0 32 14.327 32 32 0 17.673-14.327 32-32 32z" fill="#b077c7"/><circle cx="464" cy="400" fill="#b077c7" r="24"/><path d="m280 96h-96c-4.418 0-8-3.582-8-8s3.582-8 8-8h96c4.418 0 8 3.582 8 8s-3.582 8-8 8z" fill="#764f85"/><path d="m416 96h-96c-4.418 0-8-3.582-8-8s3.582-8 8-8h96c4.418 0 8 3.582 8 8s-3.582 8-8 8z" fill="#764f85"/></svg>