<svg id="Flat" height="512" viewBox="0 0 512 512" width="512" xmlns="http://www.w3.org/2000/svg"><path d="m280 472c-4.418 0-8-3.582-8-8v-48c0-4.418 3.582-8 8-8s8 3.582 8 8v48c0 4.418-3.582 8-8 8z" fill="#3397e8"/><path d="m272 448v32h64c0-17.673-14.327-32-32-32z" fill="#395a8d"/><g fill="#3397e8"><path d="m232 472c-4.418 0-8-3.582-8-8v-48c0-4.418 3.582-8 8-8s8 3.582 8 8v48c0 4.418-3.582 8-8 8z"/><path d="m184 320v32h-80c0 6.62-2.69 12.62-7.03 16.97-4.35 4.34-10.35 7.03-16.97 7.03h-40v-16h-16v-16h-8v-16h8v-16h32c0-8.837 7.163-16 16-16h8c13.25 0 24 10.75 24 24z"/><path d="m320 320v32h80c0 6.62 2.69 12.62 7.03 16.97 4.35 4.34 10.35 7.03 16.97 7.03h40v-16h16v-16h8v-16h-8v-16h-32c0-8.837-7.163-16-16-16h-8c-13.25 0-24 10.75-24 24z"/></g><path d="m352 328c0 53.02-42.98 96-96 96s-96-42.98-96-96c0-44.73 30.59-85.34 72-96v-88c-23.46-9.48-40-29.14-40-56 0-35.35 28.65-64 64-64s64 28.65 64 64c0 26.86-16.54 46.52-40 56v88c41.41 10.66 72 51.27 72 96z" fill="#2d85cc"/><circle cx="256" cy="88" fill="#e9eef2" r="32"/><path d="m192 312h128s0 72-64 72-64-72-64-72z" fill="#eb423f"/><path d="m192 312s16 32 32 32 24-32 24-32z" fill="#e9eef2"/><path d="m320 312s-16 32-32 32-24-32-24-32z" fill="#e9eef2"/><path d="m240 448v32h-64c0-17.673 14.327-32 32-32z" fill="#395a8d"/><circle cx="256" cy="88" fill="#22334f" r="8"/></svg>