<svg id="Flat" height="512" viewBox="0 0 512 512" width="512" xmlns="http://www.w3.org/2000/svg"><path d="m152 280c-70.692 0-128-1.308-128-72s128-184 128-184z" fill="#b077c7"/><path d="m152 248c-48.601 0-88 .601-88-48s88-128 88-128z" fill="#d1a6f7"/><path d="m360 280c70.692 0 128-1.308 128-72s-128-184-128-184z" fill="#b077c7"/><path d="m360 248c48.601 0 88 .601 88-48s-88-128-88-128z" fill="#d1a6f7"/><path d="m424 368c0 92.784-75.216 96-168 96s-168-3.216-168-96 75.216-240 168-240 168 147.216 168 240z" fill="#ffd33a"/><path d="m112 488c0-26.51 21.49-48 48-48s48 21.49 48 48z" fill="#b077c7"/><path d="m304 488c0-26.51 21.49-48 48-48s48 21.49 48 48z" fill="#b077c7"/><path d="m248 264c0 30.93-25.07 56-56 56s-56-25.07-56-56z" fill="#e9eef2"/><path d="m376 264c0 30.93-25.07 56-56 56s-56-25.07-56-56z" fill="#e9eef2"/><path d="m205.84 264h-27.68c-1.37 2.35-2.16 5.09-2.16 8 0 8.82 7.18 16 16 16s16-7.18 16-16c0-2.91-.79-5.65-2.16-8z" fill="#bd620e"/><path d="m333.84 264h-27.68c-1.37 2.35-2.16 5.09-2.16 8 0 8.82 7.18 16 16 16s16-7.18 16-16c0-2.91-.79-5.65-2.16-8z" fill="#bd620e"/><path d="m384 384c0 17.67-57.31 32-128 32s-128-14.33-128-32c0-7.86 11.34-15.06 30.15-20.63 23.48-6.95 58.61-11.37 97.85-11.37s74.37 4.42 97.85 11.37c18.81 5.57 30.15 12.77 30.15 20.63z" fill="#eb423f"/><path d="m353.85 363.37-17.85 44.63-32-48-24 48-24-48-24 48-24-48-32 48-17.85-44.63c23.48-6.95 58.61-11.37 97.85-11.37s74.37 4.42 97.85 11.37z" fill="#e9eef2"/><g fill="#dbb532"><path d="m168 240h72c4.418 0 8-3.582 8-8v-16c0-4.418-3.582-8-8-8s-8 3.582-8 8v8h-51.056l2.211-4.422-.006-.003c.54-1.077.851-2.289.851-3.575 0-4.418-3.582-8-8-8-3.132 0-5.836 1.804-7.149 4.425l-.006-.003-8 16c-1.24 2.48-1.107 5.426.35 7.784s4.033 3.794 6.805 3.794z"/><path d="m328 216c0 1.287.311 2.498.851 3.575l-.006.003 2.211 4.422h-51.056v-8c0-4.418-3.582-8-8-8s-8 3.582-8 8v16c0 4.418 3.582 8 8 8h72c2.772 0 5.348-1.436 6.805-3.794s1.59-5.304.35-7.784l-8-16-.006.003c-1.313-2.621-4.017-4.425-7.149-4.425-4.418 0-8 3.582-8 8z"/></g></svg>