<svg id="Flat" height="512" viewBox="0 0 512 512" width="512" xmlns="http://www.w3.org/2000/svg"><path d="m384 432c0 30.928 25.072 56 56 56h-280c-17.673 0-32-14.327-32-32v-200c0-70.692 57.307-128 128-128 70.692 0 128 57.307 128 128z" fill="#fd84b3"/><g fill="#d95a88"><path d="m288 152c0 17.67-14.33 32-32 32s-32-14.33-32-32l32-128z"/><path d="m176 176-88-56 56 88c17.673 0 32-14.327 32-32z"/><path d="m336 176 88-56-56 88c-17.673 0-32-14.327-32-32z"/><path d="m152 272c0 13.25-10.75 24-24 24l-104-24 104-24c13.25 0 24 10.75 24 24z"/><path d="m360 272c0 13.25 10.75 24 24 24l104-24-104-24c-13.25 0-24 10.75-24 24z"/></g><path d="m328 232c0 39.764-32.236 72-72 72s-72-32.236-72-72z" fill="#e9eef2"/><path d="m288 232c0 17.673-14.327 32-32 32s-32-14.327-32-32z" fill="#eb423f"/><path d="m344 384c0 26.51-39.4 48-88 48s-88-21.49-88-48c0-10.28 5.92-19.8 16-27.6 9.87-7.65 23.74-13.66 39.95-17.12 9.93-2.12 20.74-3.28 32.05-3.28s22.12 1.16 32.05 3.28c16.21 3.46 30.08 9.47 39.95 17.12 10.08 7.8 16 17.32 16 27.6z" fill="#eb423f"/><path d="m223.95 339.28c-.3 11.99-2.3 52.72-15.95 52.72-16 0-24-32-24-32v-3.6c9.87-7.65 23.74-13.66 39.95-17.12z" fill="#e9eef2"/><path d="m328 356.4v3.6s-8 32-24 32c-13.65 0-15.65-40.74-15.95-52.72 16.21 3.46 30.08 9.47 39.95 17.12z" fill="#e9eef2"/></svg>