<svg id="Flat" height="512" viewBox="0 0 512 512" width="512" xmlns="http://www.w3.org/2000/svg"><g fill="#eb423f"><path d="m449 272v80l24 24-8 40h-24c-13.255 0-24-10.745-24-24h-8c-8.837 0-16-7.163-16-16l24-24v-80c0-17.673-14.327-32-32-32v-32c35.346 0 64 28.654 64 64z"/><path d="m65 168v-80l-24-24 8-40h24c13.255 0 24 10.745 24 24h8c8.837 0 16 7.163 16 16l-24 24v80c0 17.673 14.327 32 32 32v32c-35.347 0-64-28.654-64-64z"/><path d="m249 352v120c0 8.837-7.163 16-16 16h-64c0-17.673 14.327-32 32-32h16v-104z"/><path d="m281 352v120c0 8.837 7.163 16 16 16h64c0-17.673-14.327-32-32-32h-16v-104z"/></g><path d="m401 24v240c0 75.11-60.89 136-136 136-69.7 0-140.93-52.43-150.83-120-.77-5.25-1.17-10.59-1.17-16h16v-240l40 64 32-64 32 64 32-64 32 64 32-64 32 64z" fill="#ffb632"/><circle cx="209" cy="160" fill="#e9eef2" r="40"/><circle cx="321" cy="160" fill="#e9eef2" r="40"/><path d="m161 264s0-40 16-40 16 40 16 40z" fill="#e9eef2"/><path d="m281 264s0-40 16-40 16 40 16 40z" fill="#e9eef2"/><path d="m369 272c0 4.42-3.58 8-8 8h-246.83c-.77-5.25-1.17-10.59-1.17-16h248c4.42 0 8 3.58 8 8z" fill="#bd620e"/><path d="m209 176c-8.822 0-16-7.178-16-16s7.178-16 16-16 16 7.178 16 16-7.178 16-16 16zm0-16.01v.01c0-.007 0-.01 0-.01z" fill="#bd620e"/><path d="m321 176c-8.822 0-16-7.178-16-16s7.178-16 16-16 16 7.178 16 16-7.178 16-16 16zm0-16.01v.01c0-.007 0-.01 0-.01z" fill="#bd620e"/></svg>