<svg id="Flat" height="512" viewBox="0 0 512 512" width="512" xmlns="http://www.w3.org/2000/svg"><path d="m392 200 72 88v72c8.837 0 16 7.163 16 16 0 8.837-7.163 16-16 16h-32c-8.837 0-16-7.163-16-16 0-8.837 7.163-16 16-16v-56l-40-48h-272l-40 48v56c8.837 0 16 7.163 16 16 0 8.837-7.163 16-16 16h-32c-8.837 0-16-7.163-16-16 0-8.837 7.163-16 16-16v-72l72-88z" fill="#35a872"/><path d="m319 281 33 119-48 56 48-16c26.51 0 48 21.49 48 48h-128v-48l41-40-42-119z" fill="#3dc285"/><path d="m193 281-33 119 48 56-48-16c-26.51 0-48 21.49-48 48h128v-48l-41-40 42-119z" fill="#3dc285"/><path d="m400 384-24-24-24 24-24-24-24 24-24-24-24 24-24-24-24 24-24-24-24 24-24-24-24 24v-216c0-79.529 64.471-144 144-144 79.529 0 144 64.471 144 144z" fill="#35a872"/><path d="m184 96c-24-24-64-72-88-72-32 0-32 16-32 16l88 88z" fill="#ffd33a"/><path d="m152 128c-24-24-64-72-88-72-32 0-32 16-32 16l88 88z" fill="#ffb632"/><path d="m152 240s8 72 24 72 24-48 24-48z" fill="#e9eef2"/><path d="m360 248s-8 64-24 64-24-48-24-48z" fill="#e9eef2"/><path d="m208 264s8 32 24 32 24-32 24-32z" fill="#e9eef2"/><path d="m328 96c24-24 64-72 88-72 32 0 32 16 32 16l-88 88z" fill="#ffd33a"/><path d="m360 128c24-24 64-72 88-72 32 0 32 16 32 16l-88 88z" fill="#ffb632"/><path d="m328 160s-40-16-72-16-72 16-72 16 32.24-56 72-56 72 56 72 56z" fill="#20754d"/><path d="m304 264s-8 32-24 32-24-32-24-32z" fill="#e9eef2"/><path d="m328 160s-32.24 72-72 72-72-72-72-72 40-16 72-16 72 16 72 16z" fill="#e9eef2"/><circle cx="256" cy="168" fill="#20754d" r="24"/><path d="m256 272c-65.667 0-114.396-31.982-116.438-33.344-3.676-2.45-4.67-7.418-2.219-11.094 2.449-3.674 7.41-4.67 11.086-2.224.464.308 46.917 30.662 107.571 30.662 61.401 0 107.959-22.924 108.422-23.155 3.953-1.976 8.758-.373 10.733 3.577 1.976 3.952.375 8.758-3.578 10.733-2.028 1.015-50.437 24.845-115.577 24.845z" fill="#20754d"/><g fill="#ffd33a"><path d="m464 408c-4.418 0-8-3.582-8-8v-8c0-4.418 3.582-8 8-8s8 3.582 8 8v8c0 4.418-3.582 8-8 8z"/><path d="m448 408c-4.418 0-8-3.582-8-8v-8c0-4.418 3.582-8 8-8s8 3.582 8 8v8c0 4.418-3.582 8-8 8z"/><path d="m432 408c-4.418 0-8-3.582-8-8v-8c0-4.418 3.582-8 8-8s8 3.582 8 8v8c0 4.418-3.582 8-8 8z"/><path d="m48 408c-4.418 0-8-3.582-8-8v-8c0-4.418 3.582-8 8-8s8 3.582 8 8v8c0 4.418-3.582 8-8 8z"/><path d="m64 408c-4.418 0-8-3.582-8-8v-8c0-4.418 3.582-8 8-8s8 3.582 8 8v8c0 4.418-3.582 8-8 8z"/><path d="m80 408c-4.418 0-8-3.582-8-8v-8c0-4.418 3.582-8 8-8s8 3.582 8 8v8c0 4.418-3.582 8-8 8z"/></g></svg>