<svg id="Flat" height="512" viewBox="0 0 512 512" width="512" xmlns="http://www.w3.org/2000/svg"><path d="m383 120s32-48 32-96c0 0-40 48-72 40h-23v56h64z" fill="#d95a88"/><path d="m368 96s120-64 120 16-48 128-48 128l-24 16z" fill="#b077c7"/><path d="m391.735 128s48-32 64-16-32 88-32 88h-15.735l-24-64z" fill="#764f85"/><path d="m128 120s-32-48-32-96c0 0 40 48 72 40h24v56z" fill="#d95a88"/><path d="m144 96s-120-64-120 16 48 128 48 128l16 16z" fill="#b077c7"/><path d="m120 128s-48-32-64-16 32 88 32 88h24l16-64z" fill="#764f85"/><path d="m451.832 305.56c-18.84-115.611-99.358-281.56-195.832-281.56s-176.992 165.949-195.832 281.56c-21.607 12.426-36.168 35.725-36.168 62.44v120h64v-16c0-17.673-14.327-32-32-32v-72c0-1.69.117-3.351.32-4.985 5.831 101.148 92.996 124.985 199.68 124.985s193.849-23.837 199.68-124.985c.203 1.634.32 3.296.32 4.985v72c-17.673 0-32 14.327-32 32v16h64v-120c0-26.715-14.561-50.014-36.168-62.44z" fill="#fda2c6"/><path d="m328.006 240c-2.433 0-4.834-1.105-6.406-3.201-.878-1.151-22.459-28.8-65.6-28.8-43.497 0-65.384 28.512-65.6 28.8-2.65 3.535-7.666 4.251-11.2 1.6-3.535-2.651-4.251-7.666-1.6-11.2 1.078-1.438 26.991-35.2 78.4-35.2s77.322 33.763 78.4 35.2c2.651 3.534 1.935 8.549-1.6 11.2-1.439 1.08-3.124 1.601-4.794 1.601z" fill="#d95a88"/><path d="m323.578 120.845-12.588-6.294c.654-3.42 1.01-6.944 1.01-10.551 0-4.418-3.582-8-8-8s-8 3.582-8 8c0 22.056-17.944 40-40 40s-40-17.944-40-40c0-4.418-3.582-8-8-8s-8 3.582-8 8c0 3.607.356 7.131 1.011 10.551l-12.588 6.294c-3.952 1.976-5.554 6.781-3.578 10.733 1.401 2.804 4.227 4.424 7.162 4.424 1.202 0 2.423-.272 3.571-.847l10.738-5.369c2.49 4.777 5.646 9.15 9.348 12.999l-6.819 13.637c-1.976 3.952-.375 8.757 3.578 10.733 1.148.574 2.369.847 3.571.847 2.935 0 5.76-1.621 7.162-4.424l5.397-10.794c5.905 3.336 12.469 5.633 19.448 6.635v8.581c0 4.418 3.582 8 8 8s8-3.582 8-8v-8.581c6.979-1.003 13.543-3.3 19.448-6.635l5.397 10.794c1.401 2.804 4.227 4.424 7.162 4.424 1.202 0 2.423-.272 3.571-.847 3.952-1.976 5.554-6.781 3.578-10.733l-6.819-13.637c3.702-3.849 6.859-8.221 9.348-12.999l10.738 5.369c1.148.574 2.369.847 3.571.847 2.935 0 5.76-1.621 7.162-4.424 1.974-3.952.373-8.758-3.579-10.733z" fill="#d95a88"/><path d="m360 384c0 57.438-46.562 56-104 56s-104 1.438-104-56 46.562-152 104-152 104 94.562 104 152z" fill="#764f85"/><g fill="#e9eef2"><path d="m200 344c-16 8-32-24-32-24l-1.2-2.4c8.28-20.27 19.67-39.84 33.2-55.14v1.54s16 72 0 80z"/><path d="m345.24 317.7-1.13 2.3s-16 32-32 24 0-80 0-80l.45-.9c13.31 15.23 24.52 34.58 32.68 54.6z"/><path d="m248 232.61v7.39s0 40-16 48-24-32-24-32v-1.83c12.13-11.47 25.65-19.38 40-21.56z"/><path d="m304 254.17v1.83s-8 40-24 32-16-48-16-48v-7.39c14.35 2.18 27.87 10.09 40 21.56z"/><path d="m184 432-.89 1.77c-17.4-6.1-28.81-18.16-30.79-41.98 2.86-1.85 24.22-15.25 31.68-7.79 8 8 0 48 0 48z"/><path d="m256 432v8c-17.32 0-33.64.13-48-1.26v-6.74s8-48 24-48 24 48 24 48z"/><path d="m359.68 391.79c-2.01 24.23-13.78 36.29-31.68 42.28v-2.07s-8-40 0-48c7.46-7.46 28.82 5.94 31.68 7.79z"/><path d="m304 432v6.74c-14.36 1.39-30.68 1.26-48 1.26v-8s8-48 24-48 24 48 24 48z"/></g></svg>