<svg id="Flat" height="512" viewBox="0 0 512 512" width="512" xmlns="http://www.w3.org/2000/svg"><path d="m216 184v304h-88c0-8.84 3.58-16.84 9.37-22.63s13.79-9.37 22.63-9.37l24 8v-280z" fill="#5098ad"/><path d="m184 392h32v32h-32z" fill="#ffd33a"/><path d="m144 408v64c0 8.84-7.16 16-16 16s-16-7.16-16-16c0 8.84-7.16 16-16 16-4.42 0-8.42-1.79-11.32-4.68-2.89-2.9-4.68-6.9-4.68-11.32 0 8.84-7.16 16-16 16-4.42 0-8.42-1.79-11.32-4.68-2.89-2.9-4.68-6.9-4.68-11.32v-64c0-8.84 7.16-16 16-16h16v-224h32v224h16c8.84 0 16 7.16 16 16z" fill="#57a6bd"/><path d="m384 488h-88v-304h32v280l24-8c8.84 0 16.84 3.58 22.63 9.37s9.37 13.79 9.37 22.63z" fill="#5098ad"/><path d="m296 392h32v32h-32z" fill="#ffd33a"/><path d="m464 408v64c0 8.84-7.16 16-16 16s-16-7.16-16-16c0 8.84-7.16 16-16 16-4.42 0-8.42-1.79-11.32-4.68-2.89-2.9-4.68-6.9-4.68-11.32 0 8.84-7.16 16-16 16-4.42 0-8.42-1.79-11.32-4.68-2.89-2.9-4.68-6.9-4.68-11.32v-64c0-8.84 7.16-16 16-16h16v-224h32v224h16c8.84 0 16 7.16 16 16z" fill="#57a6bd"/><path d="m128 160c-57.438 0-104-46.562-104-104h48c0 26.51 21.49 48 48 48h8z" fill="#ffb632"/><path d="m384 160c57.438 0 104-46.562 104-104h-48c0 26.51-21.49 48-48 48h-8z" fill="#ffb632"/><path d="m408 440v45.86c-1.22-.7-2.33-1.56-3.32-2.54-2.89-2.9-4.68-6.9-4.68-11.32 0 5.92-3.22 11.1-8 13.86v-45.86c0-4.42 3.58-8 8-8s8 3.58 8 8z" fill="#5098ad"/><path d="m440 440v45.86c-4.78-2.76-8-7.94-8-13.86 0 5.92-3.22 11.1-8 13.86v-45.86c0-4.42 3.58-8 8-8s8 3.58 8 8z" fill="#5098ad"/><path d="m24 56v-8c0-13.255 10.745-24 24-24 13.255 0 24 10.745 24 24v8z" fill="#ffd33a"/><path d="m488 56v-8c0-13.255-10.745-24-24-24-13.255 0-24 10.745-24 24v8z" fill="#ffd33a"/><ellipse cx="256" cy="152" fill="#6ed2f0" rx="192" ry="104"/><g fill="#e9eef2"><circle cx="184" cy="128" r="32"/><circle cx="328" cy="128" r="32"/><path d="m200 216 16-40 16 40z"/><path d="m280 216 16-40 16 40z"/></g><path d="m320 224h-128c-4.418 0-8-3.582-8-8s3.582-8 8-8h128c8.822 0 16-7.178 16-16 0-4.418 3.582-8 8-8s8 3.582 8 8c0 17.645-14.355 32-32 32z" fill="#5098ad"/><path d="m88 440v45.86c-1.22-.7-2.33-1.56-3.32-2.54-2.89-2.9-4.68-6.9-4.68-11.32 0 5.92-3.22 11.1-8 13.86v-45.86c0-4.42 3.58-8 8-8s8 3.58 8 8z" fill="#5098ad"/><path d="m120 440v45.86c-4.78-2.76-8-7.94-8-13.86 0 5.92-3.22 11.1-8 13.86v-45.86c0-4.42 3.58-8 8-8s8 3.58 8 8z" fill="#5098ad"/><path d="m478.21 100.09c-2.31 4.94-5 9.66-8.03 14.14l-38.13-31.77c3.05-4.6 5.33-9.76 6.64-15.3z" fill="#ffd33a"/><path d="m79.95 82.46-38.13 31.77c-3.03-4.48-5.72-9.2-8.03-14.14l39.52-32.93c1.31 5.54 3.59 10.7 6.64 15.3z" fill="#ffd33a"/><circle cx="184" cy="128" fill="#22334f" r="8"/><circle cx="328" cy="128" fill="#22334f" r="8"/></svg>