<svg id="Layer_1" enable-background="new 0 0 512 512" height="512" viewBox="0 0 512 512" width="512" xmlns="http://www.w3.org/2000/svg"><g><path d="m245.002 10.998c-104.28 0-193.329 65.156-228.695 156.973l70.853 275.395c42.636 35.955 97.703 57.636 157.842 57.636 135.311 0 245.002-109.691 245.002-245.002s-109.691-245.002-245.002-245.002z" fill="#45304c"/><path d="m276.091 12.953c-10.181-1.289-20.557-1.955-31.089-1.955-81.827 0-154.269 40.123-198.762 101.76 14.116 12.751 39.811 27.941 77.093 19.242 60-14 65.333-76.667 116.667-85.333 27.815-4.696 35.179-20.353 36.091-33.714z" fill="#543e5b"/><path d="m411.314 75.611c3.904-.803 7.642-2.158 11.191-3.918-5.099-5.099-15.172-9.36-19.8 5.14 3.096-.246 5.994-.684 8.609-1.222z" fill="#d37044"/><path d="m374.315 72.335c7.602 3.314 15.145 4.57 22.016 4.697-1.787-4.634-10.346-23.662-24.575-5.85.847.393 1.699.779 2.559 1.153z" fill="#d37044"/><g fill="#fcf2c8"><path d="m393.434 165.107 6.126 9.807c1.179 1.888 3.986 1.676 4.889-.359 2.234-5.036 3.519-9.595 4.235-13.521-5.304.749-10.407 2.002-15.25 4.073z"/><path d="m414.299 160.42 3.998 11.744c.717 2.107 3.499 2.541 4.842.766 3.555-4.699 5.935-9.116 7.534-12.954-5.594-.033-11.069.019-16.374.444z"/><path d="m479.448 155.698 9.863 17.158c1.233 2.146 4.36 2.024 5.445-.2 6.231-12.765 6.74-22.933 6.474-27.935-7.136 5.222-14.433 8.689-21.782 10.977z"/><path d="m434.804 160.009 5.224 15.343c.753 2.21 3.669 2.665 5.078.803 4.608-6.09 7.337-11.733 8.959-16.331-6.502.32-12.947.247-19.261.185z"/><path d="m455.951 159.719 10.427 18.137c1.233 2.145 4.36 2.024 5.446-.2 4.221-8.647 5.812-16.097 6.319-21.563-7.387 2.161-14.821 3.173-22.192 3.626z"/><path d="m468.423 292.074c1.492-4.387 2.76-9.837 3.249-16.391.184-2.468-2.454-4.15-4.602-2.919l-20.201 11.581c1.199-5.009 2.028-12.026.973-20.838-.277-2.318-3.026-3.397-4.79-1.867l-15.026 13.023c13.663 9.897 29.491 14.932 40.397 17.411z"/><path d="m418.981 267.002c2.416 2.416 4.993 4.599 7.652 6.615.958-4.646 1.522-10.812.613-18.4-.265-2.21-2.885-3.238-4.567-1.78l-9.215 7.986c1.777 1.812 3.606 3.668 5.517 5.579z"/><path d="m409.174 257.024c1.187-3.524 2.204-7.719 2.752-12.637.247-2.212-2.07-3.811-4.04-2.775l-9.151 4.81c3.375 3.339 6.802 6.866 10.439 10.602z"/></g><path d="m293.327 77.371c-23.066-2.371-60.873 1.604-87.012 44.298-19.151 31.28-51.331 47.27-91.028 52.155-7.463 17.73-17.549 50.47-6.774 80.333 8.357 23.163 27.561 40.503 57.091 51.554-.177.606-.391 1.391-.613 2.322 19.585-10.989 35.973-26.791 55.87-54.149 10.738-14.764 23.29-22.967 37.31-24.382 8.294-.836 16.163.822 22.92 3.354-2.781-18.242-1.079-37.155 1.417-51.774 1.114-6.524 4.802-11.974 9.79-15.476-22.71-24.631-20.951-60.042 1.029-88.235z" fill="#e17f51"/><path d="m166.812 306.992c.37-1.392.652-2.193.652-2.193-83.698-30.465-62.893-102.393-50.508-131.185-29.974 3.946-64.325 1.458-100.648-5.643-10.525 27.322-16.308 56.998-16.308 88.029 0 36.984 8.211 72.045 22.883 103.484 18.751-14.161 44.64-20.615 70.081-26.945 32.079-7.98 54.457-14.253 73.848-25.547z" fill="#d37044"/><path d="m280.83 231.136c-16.934-6.081-40.512-6.554-61.182 21.866-19.413 26.693-35.763 42.271-54.11 52.937-1.495 5.226-5.159 21.75 3.816 34.43 6.613 9.342 18.542 14.349 35.477 14.911 1.077-.499 2.161-.985 3.259-1.444 29.368-12.275 80.214-37.763 95.557-72.168l.169-3.376c-14.026-12.217-20.562-29.444-22.986-47.156z" fill="#fcd2ae"/><path d="m167.464 304.799c-17.45 10.557-36.571 16.403-61.816 22.988-28.746 7.498-60.91 13.549-83.372 30.396 15.166 33.001 37.449 62.047 64.885 85.183 26.926-11.894 57.281-31.508 85.418-63.833 9.724-11.171 21.849-19.985 35.514-25.697-57.909 0-40.63-49.036-40.629-49.037z" fill="#fbb989"/><path d="m100.705 374.685c4.27-12.301 19.897-16.613 29.472-7.789 4.09 3.769 6.976 9.631 6.72 18.71-.818 29.053-10.589 37.024-10.589 37.024s23.953 3.311 34.402 14.365c7.089 7.499 16.455-6.5 28.983-13.456 8.564-4.755 19.298-2.894 26.027 4.225 1.823 1.928.146 5.044-2.472 4.612-4.765-.786-10.296-.588-14.102 3.009-8.025 7.586-7.736 7.594-7.736 7.594s-12.071 10.002-4.868 22.319c1.289 2.205-.859 4.82-3.275 3.995-6.697-2.288-15.432-5.673-20.71-9.284-3.405-2.329-7.437-3.613-11.559-3.444-9.561.392-28.006-1.136-46.479-15.308-18.426-14.137-10.463-47.42-3.814-66.572z" fill="#ef8e5e"/><path d="m434.047 214.528c-1.172-.865-2.343-1.777-3.511-2.744-22.068-18.256-41.898-17.105-50.751-15.262-1.336 10.304-1.269 21.803 1.42 33.454 11.442-3.005 28.037.795 46.79 6.922-4.955-10.071.781-17.829 6.052-22.37z" fill="#ff4155"/><path d="m485.271 227.053c-14.86 2.325-33.483.792-51.751-12.924-5.323 4.422-11.471 12.202-6.706 22.388 5.507 1.779 11.205 3.765 17.023 5.851 18.83 6.75 34.307 1.654 45.187-5.287 4.986-3.182 2.09-10.943-3.753-10.028z" fill="#ff7186"/><path d="m383.977 233.083c-7.25-26.738-.152-53.177 6.574-66.719-25.697 10.972-57.968 7.081-70.156 4.806 1.401 2.506 2.359 7.286 2.76 10.236 1.348 9.921 8.902 24.81 27.16 32.263 14.249 5.816 24.566 12.14 33.662 19.414z" fill="#fbb989"/><path d="m414.102 134.467c-.404-6.164-2.854-10.826-7.28-13.859-4.472-3.063-10.378-4.039-16.089-4.039-6.773 0-13.273 1.373-16.779 2.264.671-4.607-.68-14.404-17.543-27.881-5.821-4.652-8.812-9.909-8.891-15.623-.081-5.955 2.988-11.474 5.97-15.415-17.187-8.522-33.594-13.16-55.174 8.421-29.69 29.69-34.384 71.055-7.982 98.401 5.442-3.322 12.247-4.403 18.903-2.308 4.819 1.517 8.879 4.533 11.722 8.466 11.328 2.247 44.238 7.118 71.357-5.298 8.891-4.071 18.685-5.253 29.012-5.544-4.38-4.384-6.254-12.752-7.226-27.585z" fill="#ef8e5e"/><path d="m465.426 65.545c-3.271-.796-6.429-1.986-9.45-3.473-5.023-2.472-14.666-5.107-25.564 2.826-5.725 4.167-12.161 7.286-19.098 8.713-9.726 2.001-23.27 2.709-36.999-3.276-7.798-3.399-15.057-7.637-22.208-11.097-5.724 7.675-11.564 20.955 3.366 32.886 22.663 18.111 16.283 28.876 16.283 28.876s39.154-12.29 40.849 13.565c.923 14.079 2.765 22.655 6.786 27.554 27.027-1.084 57.921 4.882 85.974-18.631 3.817-3.199 6.193-7.814 6.49-12.786.979-16.381-1.804-54.297-46.429-65.157z" fill="#f9a373"/><path d="m470.59 290.552c-13.253-2.785-35.667-9.608-51.609-25.55-14.702-14.702-24.907-26.399-38.113-36.323-5.835 1.354-63.65 16.303-32.34 70.747 39.602 12.399 52.847 11.769 72.581 22.99 16.189 9.205 36.77 6.477 49.176-7.412 2.616-2.929 5.017-6.394 7.042-10.493 2.836-5.739-.472-12.643-6.737-13.959z" fill="#e17f51"/><path d="m476.767 100.943c5.466-.674 8.128-7.121 4.574-11.329-3.863-4.572-10.128-8.556-19.618-5.788-16.588 4.839-9.474 20.14 15.044 17.117z" fill="#945230"/><path d="m259.055 500.592c85.665-4.846 159.551-53.697 199.424-124.313-35.06-22.912-106.02-60.179-158.808-28.447-57.973 34.849-78.208 101.159-40.616 152.76z" fill="#543e5b"/><ellipse cx="358.005" cy="110.235" fill="#d37044" rx="20.131" ry="22.902"/><circle cx="358.005" cy="100.801" fill="#543e5b" r="15.93"/><ellipse cx="365.97" cy="105.266" fill="#fee884" rx="7.965" ry="7.965" transform="matrix(.249 -.969 .969 .249 172.85 433.472)"/><path d="m78.39 76.4c8.231 9.02 22.892 17.992 45.61 8.471 27.251-11.42 38.938-43.433 43.464-61.342-33.496 11.171-63.769 29.38-89.074 52.871z" fill="#6c5475"/><path d="m430.453 416.084c-36.846-34.433-87.298-40.786-114.33-13.754-21.303 21.303-21.855 57.15-4.289 89.423 46.707-13.214 87.741-39.928 118.619-75.669z" fill="#6c5475"/><path d="m383.331 230.575c-8.94-7.06-19.101-13.227-33.016-18.907-18.258-7.452-23.812-20.342-25.16-30.263-1.202-8.846-7.323-16.228-15.819-18.946-13.42-4.293-27.457 4.732-29.828 18.622-5.811 34.035-7.394 91.366 42.14 109.253 10.634 3.84 19.855 6.908 27.959 9.428-30.662-55.768 33.446-69.129 33.724-69.187z" fill="#d37044"/></g></svg>