<svg id="Layer_1" enable-background="new 0 0 512 512" height="512" viewBox="0 0 512 512" width="512" xmlns="http://www.w3.org/2000/svg"><g><path d="m245.002 10.998c-99.217 0-184.655 58.979-223.178 143.787l87.994 305.559c38.748 25.685 85.214 40.658 135.184 40.658 135.311 0 245.002-109.691 245.002-245.002s-109.691-245.002-245.002-245.002z" fill="#945230"/><path d="m433.816 335.348c-1.332 0-2.672.061-4.013.186-16.794 1.556-32.891.188-46.548-3.969-11.547-3.515-20.159-11.511-27.759-18.564-15.11-14.027-28.159-26.143-55.738 1.439-16.161 16.16-33.196 23.603-49.268 21.532-9.993-1.29-16.809-5.893-18.95-7.517-28.851 17.167-83.362-2.668-83.362-2.668l-.605-.021c-4.4 8.497-7.578 18.463-8.746 30.138-2.508 25.057-13.454 42.597-24.04 59.559-7.405 11.866-14.399 23.096-17.786 35.783 4.17 3.166 8.444 6.199 12.817 9.098 36.888-8.89 69.339-20.074 84.501-45.344 36-60 89-57.5 123.5-72s49 10 93 10c25.013 0 37.899-6.462 44.369-12.04-6.467-3.624-13.816-5.612-21.372-5.612z" fill="#fcf2c8"/><path d="m233.036 329.513c-1.426-.949-2.2-1.616-2.223-1.636l-.278-.247-.362-.088c-24.008-5.83-29.591-22.001-30.782-31.121-.546-4.179-3.105-7.73-6.846-9.498-.478-.226-.973-.474-1.482-.747-1.921.891-3.866 1.849-5.823 2.89-13.529 7.198-29.27 19.24-38.644 38.666l1.582.054c0 .001 56.443 20.538 84.858 1.727z" fill="#fee884"/><path d="m102.386 204.707c0-34.123-21.534-50.606-37.026-58.049-13.835 1.143-28.395 3.698-43.536 8.128-14.015 30.851-21.824 65.12-21.824 101.214 0 80.32 38.65 151.612 98.367 196.293 7.831-30.929 37.605-52.802 41.952-96.239 1.176-11.747 4.391-21.762 8.912-30.312-33.39-16.043-46.845-70.183-46.845-121.035z" fill="#ffb332"/><path d="m176.059 251.791c.561-3.528-.477-7.172-2.848-9.999-16.142-19.244-10.086-38.36-5.039-48.042 1.766-3.389 1.866-7.453.268-10.872-3.629-7.76-4.633-14.782-4.049-21.004-25.245-10.148-61.355-19.285-104.059-14.739 15.405 7.66 36.053 24.158 36.053 57.573 0 53.293 14.778 110.2 51.792 123.08 0 0 .001.005.001.005 10.289-20.977 28.395-33.439 44.592-40.744 0-.013 0-.006.001-.019-7.648-3.551-20.267-12.904-16.712-35.239z" fill="#ff9433"/><g fill="#fcf2c8"><path d="m214.953 84.886c-19.379-8.195-64.104-23.78-24.223 26.468 3.779-8.498 10.889-18.501 24.223-26.468z"/><path d="m172.947 141.341c-22.141-1.109-52.196 1.652-7.758 32.194-3.121-13.735 1.865-24.647 7.758-32.194z"/><path d="m164.831 201.77c-20.458 8.481-51.05 25.304 3.646 33.364-7.418-12.515-6.461-24.507-3.646-33.364z"/><path d="m175.493 257.294c-14.013 15.229-28.17 36.536 12.973 27.331-6.469-4.275-13.651-12.414-12.973-27.331z"/></g><path d="m398.106 292.29c-14.408-6.475-29.308-13.17-39.176-25.984-6.299-8.179-8.285-15.784-5.905-22.604 4.575-13.107 23.913-20.414 31.644-22.857-1.637-2.355-3.17-4.794-4.562-7.332-13.088-23.873-32.594-36.953-46.033-43.579-9.333-4.602-16.299-12.9-19.067-22.931-2.286-8.285-5.644-18.693-10.28-29.108-5.403-.654-12.51-.514-18.548 2.99-5.68 3.295-9.34 8.949-10.882 16.809l-10.397 10.54c-2.768-.08-12.787.064-17.918 6.061-2.817 3.292-3.657 7.712-2.5 13.14l-4.016 11.316c-2.047.917-8.158 4.13-10.309 10.551-1.636 4.883-.587 10.395 3.115 16.387l-.521 9.919c-1.677 1.761-7.496 8.52-6.666 16.695.573 5.648 4.174 10.646 10.703 14.863l2.438 7.438c-.539 3.172-3.335 23.458 9.755 40.299 9.99 12.854 26.568 20.228 49.296 21.935l-1.486 2.497c1.331-1.207 2.673-2.48 4.027-3.834 40.5-40.5 47.5 7 82 17.5 16.845 5.127 33.989 5.247 47.123 4.028 3.204-.297 6.385-.203 9.498.214-.412-26.552-20.361-35.529-41.333-44.953z" fill="#ffc839"/><path d="m468.379 354.812c1.304 1.857 4.155 1.583 5.05-.502 27.145-63.263-15.36-91.16-48.721-102.969-16.793-5.944-31.128-17.091-40.933-31.795-12.171 3.895-48.547 18.438-26.033 47.673 24.566 31.9 79.276 26.613 80.184 69.836 12.125 1.182 23.304 7.572 30.453 17.757z" fill="#ffdd40"/><path d="m240.771 254.496-2.724-8.308c-21.228-13.312-3.827-29.933-3.827-29.933l.575-10.961c-11.73-18.455 6.863-25.419 6.863-25.419l4.382-12.346c-4.485-19.47 19.458-17.767 19.458-17.767l11.188-11.34c3.564-19.39 19.332-20.241 28.751-18.912-11.453-26.469-31.111-53.688-62.452-46.844-46.619 10.181-55.767 39.918-57.562 51.195-.436 2.742-1.841 5.246-4.027 6.957-8.307 6.502-27.196 25.154-14.315 52.694 1.421 3.038 1.311 6.569-.239 9.543-4.651 8.924-11.848 29.352 5.22 49.7 2.057 2.452 3.019 5.639 2.516 8.799-1.417 8.902-1.808 27.671 17.326 36.723 3.291 1.557 5.528 4.727 5.999 8.337 1.206 9.234 6.887 26.307 31.916 32.385 0 0 30.5 27 71-13.5-71.207-3.999-60.048-61.003-60.048-61.003z" fill="#ffb332"/><path d="m424.708 251.342s7.245 27.05 39.095 22.854c0 0 24.786-10.871 25.843-39.771.114-3.116-3.759-4.623-5.806-2.27-7.077 8.136-23.287 19.187-59.132 19.187z" fill="#fcf2c8"/><path d="m509.288 78.49c-7.521 8.163-29.664 28.817-64.136 32.677-18.437 2.064-37.147 4.657-54.725 11.237-2.63 8.281-5.903 27.356 18.641 29.691 7.032-4.297 15.228-7.868 24.751-10.095 51.654-12.079 76.027-31.888 78.177-62.317.104-1.481-1.702-2.284-2.708-1.193z" fill="#fcf2c8"/><ellipse cx="447.625" cy="298.801" fill="#ffb332" rx="7.974" ry="12.468" transform="matrix(.575 -.818 .818 .575 -54.224 493.216)"/><ellipse cx="341.812" cy="235.774" fill="#ff9433" rx="20.131" ry="22.902"/><circle cx="341.812" cy="226.34" fill="#fcf2c8" r="15.93"/><ellipse cx="349.777" cy="230.805" fill="#543e5b" rx="7.965" ry="7.965" transform="matrix(.707 -.707 .707 .707 -60.756 314.931)"/><path d="m265.499 149.762c7.209 3.432 14.73-4.184 11.188-11.34-9.723-19.646-26.963-45.095-46.954-32.634-21.153 13.186 12.348 32.827 35.766 43.974z" fill="#ff9433"/><path d="m241.659 179.876c6.566.044 9.514-8.25 4.382-12.346-14.09-11.245-35.801-24.193-46.349-7.944-11.161 17.193 20.638 20.148 41.967 20.29z" fill="#ff9433"/><path d="m234.22 216.255c5.284-1.53 5.674-8.895.575-10.961-13.998-5.672-34.522-10.895-39.119 4.671-4.864 16.47 21.38 11.261 38.544 6.29z" fill="#ff9433"/><path d="m240.771 254.496c3.485-2.656 1.658-8.239-2.724-8.308-12.029-.189-28.778 1.832-27.718 14.717 1.122 13.634 19.121 2.219 30.442-6.409z" fill="#ff9433"/><g fill="#b26847"><path d="m41.825 119.068c28.835 4.862 80.784 5.372 100.452-47.471 8.581-23.056 20.84-40.074 35.044-51.125-55.95 16.049-103.692 51.497-135.496 98.596z"/><path d="m248.936 11.048c20.862 8.836 40.633 27.488 55.589 55.862 30.768 58.368 77.272 31.726 102.46 5.295-42.267-37.281-97.487-60.203-158.049-61.157z"/></g><path d="m474.049 168.898c-5.639-1.911-12.052-2.998-18.861-2.998-22.46 0-40.667 11.764-40.667 26.276s18.207 26.276 40.667 26.276c12.101 0 22.962-3.419 30.411-8.839-2.69-14.035-6.576-27.642-11.55-40.715z" fill="#b26847"/><path d="m191.148 495.054c17.329 3.89 35.35 5.948 53.854 5.948 76.114 0 144.121-34.708 189.058-89.161-43.411-26.139-111.865-50.489-170.152 3.708-43.735 40.665-65.64 62.278-72.76 79.505z" fill="#b26847"/><path d="m274.008 499.292c45.941-5.419 87.99-23.542 122.533-50.77-35.859-18.512-89.049-27.505-122.533 50.77z" fill="#c67859"/><path d="m334.075 169.934s.649 29.796 36.946 29.796c0 0 9.519-31.172 39.778-48.664-23.95-2.421-21.068-20.953-18.468-29.357-22.002 7.846-42.326 21.689-58.256 48.225z" fill="#fee884"/></g></svg>