<svg id="Layer_1" enable-background="new 0 0 512 512" height="512" viewBox="0 0 512 512" width="512" xmlns="http://www.w3.org/2000/svg"><g><path d="m245.002 10.998c-125.743 0-229.341 94.732-243.367 216.716l86.608 216.568c42.483 35.409 97.13 56.72 156.759 56.72 135.311 0 245.002-109.691 245.002-245.002s-109.691-245.002-245.002-245.002z" fill="#88ce65"/><path d="m420.166 169.824c-1.346-.538-2.684-1.09-4.003-1.674-20.709-9.171-44.378-14.101-57.685-16.753 14.511 7.507 36.722 18.274 51.886 33.118 1.194 1.169 2.376 2.268 3.553 3.333-1.427-8.539 1.851-14.253 6.249-18.024z" fill="#ff4155"/><path d="m360.669 208.644c-7.543.176-15.086-1.708-21.706-5.416-26.02-14.579-25.256-31.548-26.253-33.225-1.51 2.233-13.544 13.136-19.391 37.06-10.523 43.052-22.965 65.346-42.94 76.952-3.978 2.312-6.354 6.662-6.201 11.352.179 5.473-.225 14.819-3.736 24.913.634-.03 1.263-.054 1.91-.099 1.337 3.141 5.901 12.137 15.667 16.154 3.89 1.6 8.12 2.197 12.653 1.818.508-.494 1.01-.986 1.492-1.468 26.812-26.812 10.182-54.012 32.727-66.375 11.279-6.185 16.551-15.038 19.004-22.342 2.844-8.467 8.423-15.74 16.056-20.378 9.952-6.047 18.99-13.17 25.639-18.879-1.631-.067-3.269-.102-4.921-.067z" fill="#f9cac2"/><path d="m272.164 336.684c.076-.076.147-.152.223-.229-21.807 3.094-29.047-17.856-29.047-17.856-.812.068-1.608.12-2.393.163-3.674 11.481-11.267 24.152-26.627 33.309-13.842 8.252-21.032 19.749-20.792 33.25.067 3.775.746 7.649 1.967 11.54 22.388-15.777 58.827-42.335 76.669-60.177z" fill="#fcbab1"/><path d="m156.78 383.31c-1.919-8.771-4.817-22.025 2.432-44.444 2.98-9.213-5.179-18.195-14.684-16.191-38.076 8.036-102.183 27.571-102.183 66.542 0 1.532.014 3.042.035 4.541 12.879 18.907 28.335 35.914 45.863 50.523 34.433-3.876 60.368-16.339 74.937-25.118-3.273-7.732-5.199-16.957-5.199-28.128.001-2.23-.556-4.777-1.201-7.725z" fill="#fcbab1"/><path d="m236.528 439.036c-13.849-7.603-25.567-18.249-32.848-29.778-8.069 8.016-19.68 17.14-35.018 23.544 6 7.796 13.575 13.624 21.568 18.32 9.348-.953 18.2-2.964 26.462-6.027 2.644-.981 4.77.381 5.787 1.844 1.024 1.474 1.561 3.958-.292 6.109-2.466 2.862-5.433 5.992-8.879 9.186 1.211.516 2.411 1.026 3.583 1.529 21.876 9.375 24.412 12.863 24.694 37.196 1.139.016 2.275.043 3.417.043 9.54 0 18.947-.565 28.204-1.626 10.519-29.667-.885-40.689-36.678-60.34z" fill="#ef6b50"/><path d="m473.404 170.126c-3.387-9.902-18.653-17.271-41.883-20.218-16.678-2.115-24.162-7.093-27.504-10.896-3.491-3.972-3.251-7.395-3.24-7.525l.05-.49-.25-.424c-3.906-6.628-5.018-13.338-3.307-19.943 1.861-7.184 6.758-13.113 11.177-17.242-3.497-3.009-8.104-5.677-13.668-6.047-3.758-.25-7.421-1.32-10.838-2.905-.166-.077-.351-.159-.524-.238-12.281 5.593-24.021 15.461-30.639 24.706-1.729 2.416-2.781 2.84-3.11 2.72-.382-.141-3.722-2.103-3.43-27.452.037-3.201.128-6.391.244-9.397-14.444-.805-30.759 1.894-46.139 12.522-10.519 7.269-18.888 12.479-25.612 16.682 1.26 11.065 4.652 24.38 12.745 36.805 1.069 1.643.591 3.313-.215 4.329-.828 1.045-2.392 1.918-4.296 1.229-9.317-3.372-21.211-9.745-32.277-21.75-2.172 4.21-3.64 9.429-4.891 16.724-1.591 9.277-2.897 22.85-5.468 36.958 6.28 3.99 13.13 7.792 20.24 10.845 2.124.912 2.772 2.864 2.671 4.387-.101 1.5-.988 3.322-3.179 3.933-6.566 1.831-14.969 2.705-24.195.14-6.601 22.509-18.444 41.889-42.251 41.889-1.471 0-2.973-.045-4.5-.122 1.363 7.544 4.009 15.859 8.86 23.961 1.336 2.23.574 4.383-.583 5.654-.441.484-1.015.922-1.684 1.219-.671 5.564-2.051 25.382 10.013 38.519 8.05 8.764 20.366 12.627 36.627 11.48.08.188.173.4.277.628 3.468-10.117 3.925-19.556 3.729-25.512-.126-3.829 1.805-7.471 5.117-9.395 20.129-11.694 32.962-33.32 43.962-78.32 3.711-15.181 10.24-26.29 17.487-34.398-1.029-5.438-.598-10.583.456-15.039 2.209-9.352 10.855-15.735 20.573-15.157 4.468.262 15.752 3.998 29.264 10.675 12.241 2.058 31.321 6.545 53.311 16.283 17.698 7.838 38.203 10.984 55.823 11.402 2.273-4.656 1.991-8.49 1.057-11.22z" fill="#fc7e65"/><path d="m215.437 353.945c16.325-9.732 24.209-23.19 27.903-35.345-55.16 4.599-45.945-49.639-45.945-49.639-1.166 1.279-3.252 2.244-5.612 1.115-8.823-4.217-20.402-13.65-30.394-34.62-17.495-3.36-37.963-8.023-62.261-10.722 1.658 14.177 5.62 29.676 13.833 44.057 1.398 2.449.402 4.77-.876 6.011-1.286 1.252-3.648 2.186-6.075.707-15.514-9.457-34.314-25.853-44.872-52.936-13.661-.016-28.321.805-44.074 2.828-.128 15.726 2.386 36.53 13.048 56.528 2.251 4.223.557 8.212-1.579 10.345-2.143 2.141-6.146 3.834-10.38 1.57-5.236-2.799-11.026-6.585-16.757-11.651 4.513 42.442 19.858 81.648 43.225 114.798-.058-2.548-.093-5.136-.093-7.773 0-38.384 66.846-57.315 100.452-64.407 7.846-1.656 14.624 5.756 12.157 13.385-9.863 30.499-1.336 44.747-1.336 52.84 0 4.294.292 8.299.818 12.065 15.002 1.239 29.115-.033 42.007-3.78-6.404-16.547-2.896-33.628 16.811-45.376z" fill="#ef6b50"/><path d="m504.927 156.132c-2.938-2.771-5.313-6.054-7.163-9.644-2.319-4.501-8.545-11.076-25-16.931-1.323 4.645-3.828 10.719-8.491 15.382-.282.281-.978.922-1.38.751-2.26-.941-3.879-10.367-4.616-21.541-4.227-1.734-7.568-3.28-10.19-4.623-7.059 9.967-15.512 19.917-19.871 19.917-.026 0-.054-.001-.08-.001-.516-.015-1.188-.182-1.815-1.35-2.352-4.385-2.017-11.367-1.661-18.759.248-5.155.509-10.612-.058-15.886-5.278-1.456-10.156-4.106-13.989-8.028-.991-1.014-2.113-2.037-3.35-3-8.285 7.795-18.082 21.769-7.978 38.913 0 0-1.618 15.792 32.048 20.063 29.349 3.723 47.36 14.963 39.383 29.902 14.013.463 26.347-.8 34.204-2.846 5.43-1.414 8.428-7.191 6.487-12.456-1.165-3.157-3.138-6.712-6.48-9.863z" fill="#f98"/><path d="m411.257 184.818c-27.908-27.32-62.263-39.467-72.03-42.52-1.684-.526-3.417-.842-5.178-.945-10.405-.61-19.863 6.272-22.261 16.415-5.791 24.489 12.298 39.627 26.109 47.364 6.959 3.899 14.845 5.867 22.82 5.694 28.723-.625 54.122 15.117 86.383 22.542 23.638 5.44 34.898-4.587 39.775-11.867 2.272-3.392.562-7.981-3.371-9.076-19.085-5.313-42.873 1.149-72.247-27.607z" fill="#fce2de"/><ellipse cx="390.581" cy="120.253" fill="#e2573b" rx="16.305" ry="18.55"/><ellipse cx="390.581" cy="112.611" fill="#fcf2c8" rx="12.903" ry="12.903" transform="matrix(.925 -.38 .38 .925 -13.508 156.732)"/><path d="m403.484 116.228c0 3.563-2.888 6.451-6.451 6.451s-6.451-2.888-6.451-6.451 2.888-6.451 6.451-6.451c3.562-.001 6.451 2.888 6.451 6.451z" fill="#543e5b"/><path d="m245.002 10.998c-103.628 0-192.228 64.337-228.038 155.247 75.501-27.658 130.311 44.599 165.036 21.603 41-27.153 5-106.848 90-131.403 30.607-8.842 46.042-20.579 53.265-31.981-25.148-8.717-52.149-13.466-80.263-13.466z" fill="#b4d667"/><path d="m489.376 273.482c-39.71-16.382-108.644-34.181-138.376 22.518-16.789 32.017-33.884 55.649-48.485 72.563-15.79 18.291-14.148 45.549 3.037 62.535 13.176 13.024 23.597 31.385 20.712 56.086 90.117-31.676 156.12-114.537 163.112-213.702z" fill="#b4d667"/><path d="m199.501 496.769c-15.501-36.995-49.145-32.577-70.668-25.031 21.784 11.758 45.548 20.311 70.668 25.031z" fill="#b4d667"/><path d="m261.164 187.74c-7.249-3.112-14.202-6.993-20.547-11.048-1.311 7.441-2.962 15.07-5.18 22.334 9.561 2.665 18.265 1.745 25.03-.143 5.358-1.494 5.808-8.948.697-11.143z" fill="#ef6b50"/><g fill="#e2573b"><path d="m105.229 276.79c5.69 3.468 12.338-2.957 9.034-8.743-8.068-14.128-11.997-29.276-13.666-43.15-12.607-1.45-26.257-2.379-41.067-2.325 10.727 27.934 30.082 44.698 45.699 54.218z"/><path d="m198.104 397.906c-14.351 4.154-28.726 4.766-41.672 3.669 1.654 13.781 6.547 24.258 13.228 32.473 14.874-6.268 26.391-15.127 34.853-23.499-2.737-4.123-4.906-8.371-6.409-12.643z"/><path d="m216.169 443.688c-9.394 3.482-18.913 5.349-28.102 6.128 8.815 5.472 18.27 9.449 26.771 13.07 3.173-2.984 5.999-5.976 8.483-8.859 4.351-5.047-.904-12.655-7.152-10.339z"/></g><path d="m249.995 126.034c11.25 12.042 23.266 18.389 32.462 21.718 4.741 1.716 9.029-3.561 6.278-7.786-8.083-12.41-11.369-25.846-12.543-36.899-14.745 9.217-21.933 13.584-26.197 22.967z" fill="#ef6b50"/><path d="m1.635 227.714c-1.068 9.283-1.635 18.718-1.635 28.286 0 9.619.56 19.106 1.639 28.435 5.25 4.449 10.634 7.966 15.808 10.732 8.944 4.782 18.76-4.996 13.989-13.945-10.621-19.921-13.088-40.507-12.93-56.007-5.49.683-11.11 1.508-16.871 2.499z" fill="#e2573b"/><path d="m471.801 129.217c-6.04-2.088-10.985-3.99-15.045-5.698.75 12.515 2.827 28.231 8.577 22.481 4.858-4.858 7.468-11.116 8.85-15.926-.773-.287-1.561-.573-2.382-.857z" fill="#ef6b50"/><path d="m425 138.803c4.188 7.805 16.538-7.405 24.425-18.606-.47-.231-.927-.459-1.357-.68-4.21-2.157-7.987-5.12-10.872-8.869-1.714-2.227-5.156-5.337-11.649-6.936-.851-.21-1.689-.461-2.519-.732 1.6 13.127-2.335 27.796 1.972 35.823z" fill="#ef6b50"/><path d="m191.136 271.43c5.596 2.676 11.316-3.573 8.13-8.894-4.657-7.778-7.224-15.802-8.571-23.123-9.253-.315-19.551-2.055-31.132-4.31 10.095 21.691 21.983 31.742 31.573 36.327z" fill="#e2573b"/><path d="m383.943 84.436c-7.768-3.602-22.188-9.082-38.958-9.724-.77 19.92-.407 48.227 9.015 35.065 7.124-9.951 19.21-19.589 31.274-24.756-.447-.187-.892-.381-1.331-.585z" fill="#ef6b50"/><path d="m60.02 95.364c10.315 12.985 25.825 24.088 48.98 30.15 67.99 17.799 81.304-70.992 83.898-108.962-52.563 11.384-98.835 39.641-132.878 78.812z" fill="#cbe87c"/><path d="m399.285 332.867c-31.241 46.622-51.871 72.01-14.105 124.076 44.567-31.146 78.287-76.738 94.374-129.986-22.544-15.653-56.594-29.421-80.269 5.91z" fill="#cbe87c"/></g></svg>