<svg id="Layer_1" enable-background="new 0 0 512 512" height="512" viewBox="0 0 512 512" width="512" xmlns="http://www.w3.org/2000/svg"><g><path d="m245.002 10.998c-74.355 0-140.967 33.13-185.9 85.426l-38.277 258.533c8.285 18.742 18.838 36.256 31.334 52.177l54.635 51.175c39.343 26.929 86.932 42.692 138.208 42.692 135.311 0 245.002-109.691 245.002-245.002s-109.691-245.001-245.002-245.001z" fill="#45304c"/><path d="m451.654 183.306c-4.206.036-9.364-.774-17.096-2.951-16.905-4.76-21.688 4.86-22.476 5.503 8.224 2.798 16.772 6.596 24.403 11.754 2.751 1.86 5.642 3.482 8.636 4.881-4.98-8.067 1.072-15.008 6.533-19.187z" fill="#ff4155"/><path d="m467.796 164.928c-10.596.555-14.743-5.251-16.321-10.716-5.395-.539-9.652-1.569-11.62-3.34-8.671-7.807-23.364-20.305-38.026-16.032s-25.671-5.163-25.671-5.163-26.466 10.9-21.662 35.683-23.474 29.77-27.867 51.029-32.891 12.238-24.826 56.377c0 0 26.939-25.625 53.909-36.461 18.3-7.353 27.07-20.466 30.822-28.141-.306-.191-.614-.38-.912-.575-7.908-5.167-12.203-10.976-12.762-17.265-.288-3.229.915-6.363 3.299-8.599 2.441-2.29 5.738-3.315 9.047-2.802 6.872 1.058 17.431 3.157 28.438 7.12 3.128-3.475 9.32-6.981 21.018-3.687 19.989 5.628 22.81 2.142 36.301-1.569 8.2-2.256 21.446-1.076 30.579.195-5.946-14.093-17.545-16.903-33.746-16.054z" fill="#ffc839"/><path d="m385.435 177.437c12.338 1.899 33.936 6.681 50.945 18.179 6.382 4.314 13.486 7.434 20.997 9.145 12.275 2.797 30.478 6.558 43.467 7.55 3.647.279 5.323 4.65 2.867 7.362-5.254 5.801-14.118 12.452-25.243 8.783-18.342-6.048-31.708-12.691-45.812-7.946-11.866 3.992-59.254-7.164-61.292-30.055-.698-7.854 6.279-14.217 14.071-13.018z" fill="#fee884"/><path d="m229.439 333.502c-2.654-1.617-5.216-3.238-7.672-4.914-5.083-3.471-7.892-7.352-8.348-11.534-.645-5.926 3.584-11.41 6.162-14.151 2.002-2.127 2.853-5.208 2.28-8.241-.561-2.976-.392-5.867.505-8.593.441-1.34.013-2.76-1.091-3.618-1.09-.846-2.547-.906-3.718-.16-21.042 13.459-54.342 20.616-72.319 23.684-9.413 1.606-15.824 10.544-14.291 19.923 2.685 16.434-.033 32.409-4.94 48.562 36.026-7.154 74.724-24.911 103.432-40.958z" fill="#ffdd40"/><path d="m265.4 262.858c.533 2.684 2.905 11.774 11.206 16.711 4.487 2.668 9.897 3.645 16.166 2.932 5.728-6.221 9.03-9.737 9.03-9.737.156-1.442.446-2.847.835-4.22-3.032-21.234 3.445-28.208 10.986-33.93l4.565-3.462-5.676.781c-18.721 2.578-33.259 11.835-40.258 17.124-4.025 3.04-6.574 7.677-6.994 12.72-.025.305-.053.625-.081.955z" fill="#fee884"/><path d="m272.435 304.845c9.191-10.208 16.778-18.488 21.938-24.08-24.452 3.936-27.618-18.863-27.618-18.863l-1.403-.797c-.027.225-.073.446-.092.672-.858 10.296-3.384 35.254-8.304 44.613-1.954 3.717-2.395 7.601-1.687 11.487 8.827-5.834 14.909-10.525 17.166-13.032z" fill="#ffdd40"/><path d="m511.015 168.441c-2.279-9.611-11.464-15.954-21.303-15.085-11.304.999-28.26 2.051-39.488.719 1.311 5.773 5.255 12.5 16.626 11.904 15.708-.823 27.09 1.794 33.188 14.797 1.963.258 3.78.526 5.357.778 3.578.571 6.748-2.282 6.6-5.903-.086-2.12-.358-4.588-.98-7.21z" fill="#88ce65"/><g fill="#b4d667"><path d="m316.972 375.949c-1.275-.689-2.668-1.152-4.102-1.362l-5.256-.768c-4.389-.641-8.134-3.581-9.689-7.734-2.285-6.103-7.189-15.116-17.294-21.114-6.986-4.146-13.241-9.285-17.643-14.793-4.712.217-9.144 1.45-11.666 4.733-2.336 3.042-2.745 7.271-1.245 12.744 13.135 8.428 24.963 18.26 29.74 32.741 5.555 16.84 6.714 24.79 10.655 31.629 1.988 3.449 7.288 1.743 6.916-2.22-1.123-11.958-.004-26.756 14.784-17.086 7.744 5.063 11.851 11.25 13.889 17.243 1.745 5.135 9.217 4.521 9.913-.858 1.437-11.122-1.871-23.901-19.002-33.155z"/><path d="m376.237 130.485-.079-.809s-16.212-13.169-36.738-3.582c-20.526 9.588-38.055 9.505-36.982 29.977s-12.943 30.086-25.426 30.74c-5.625.295-15.352-.082-27.256-5.536-11.016 4.055-25.476 12.233-40.338 28.739-.644.715-1.295 1.392-1.949 2.051l7.144 10.237c-.379 1.641-1.246 6.002-1.2 11.391.075 9.029 2.724 16.611 7.659 21.926 8.492 9.146 23.464 11.845 44.509 8.028.169.691.426 1.586.788 2.598.148-1.572.278-3.037.386-4.343.384-4.62 2.704-8.854 6.403-11.648 7.767-5.869 22.695-15.1 41.808-17.129 5.812-4.381 11.83-7.982 13.66-16.842 4.393-21.259 32.671-26.246 27.867-51.029-4.009-20.686 13.757-31.693 19.744-34.769z"/></g><path d="m264.194 331.627c-6.871-7.915-10.016-16.73-5.911-24.538 4.956-9.426 7.493-33.434 8.472-45.187-64.722 12.486-50.524-39.902-50.524-39.902l-7.7-11.035c-30.808 32.74-72.602 1.761-96.349 40.696-20.479 33.576-72.254 4.322-109.658 39.509 2.033 14.143 5.277 27.893 9.618 41.147l6.195 16.784c.807 1.964 1.632 3.919 2.489 5.857 19.672 6.936 46.621 21.494 33.808 46.922-.868 1.722-1.693 3.475-2.474 5.256 15.474 19.717 33.913 36.991 54.635 51.175-1.957-10.603-2.031-20.506.799-28.771 12.851-37.534 30.506-69.186 24.835-103.883-1.408-8.613 4.461-16.733 13.064-18.202 19.735-3.368 52.018-10.559 72.875-23.899 1.399-.895 3.095.467 2.576 2.045-.828 2.517-1.249 5.658-.554 9.34.471 2.495-.159 5.085-1.898 6.936-5.051 5.371-13.096 17.349 2.432 27.952 9.463 6.462 20.795 12.291 31.121 19.109-4.568-13.822 3.391-17.237 12.149-17.311z" fill="#88ce65"/><g fill="#6faf46"><path d="m207.742 142.867c-.109 4.178-1.044 7.559-2.824 10.103-3.143 4.494-8.575 5.967-13.777 6.552 2.834 2.516 6.284 5.457 10.281 8.761 5.435 4.494 5.55 10.684 3.846 14.979-2.152 5.424-7.312 8.688-13.144 8.305-1.797-.117-3.49-.249-5.032-.395-9.742-.92-16.874 1.328-21.139 3.376-4.367 2.095-9.491 2.242-14.058.406-10.034-4.035-24.349-7.504-35.561-1.126-4.104 2.336-8.675 3.055-12.872 2.022-10.055-2.47-28.581-4.982-39.666 5.974-3.269 3.23-7.8 5.08-12.378 5.084-11.294.004-30.948 2.352-49.185 15.987-1.462 10.829-2.233 21.876-2.233 33.105 0 12.585.952 24.947 2.783 37.021 37.392-34.962 89.053-5.833 109.504-39.363 23.975-39.309 66.348-7.341 97.237-41.647 16.013-17.785 31.562-25.904 42.834-29.61-12.88-5.262-28.634-16.41-44.616-39.534z"/><path d="m44.867 132.592c9.502-13.041 23.158-8.066 32.941-1.591 4.927 3.259 11.414 2.459 15.427-1.905.995-1.082 2.032-1.98 3.099-2.72-.914-.382-1.734-.711-2.423-.963-3.289-1.208-5.395-3.099-6.259-5.622-1.882-5.496 2.406-12.446 2.449-12.516l.244-.39-.054-1.636c-.485.389-.972.796-1.46 1.229-2.074 1.84-5.168 1.884-7.276.082-4.481-3.83-12.68-9.5-22.454-10.138-12.081 14.061-22.586 29.509-31.261 46.07 6.823-.774 12.964-4.324 17.027-9.9z"/></g><path d="m202.76 135.271c-3.228-5.179-8.508-8.855-14.561-9.636-3.657-.472-7.804.036-11.887 2.732-2.506 1.655-5.893.97-7.566-1.525-6.267-9.348-20.616-26.895-34.588-16.698-2.195 1.602-5.226 1.37-7.143-.555-6.561-6.589-21.642-17.784-38.183-3.11 0 0-9.542 15.165 4.563 20.343.468.172.996.378 1.575.613 10.208-8.681 23.817-.947 31.271 4.69 3.571 2.7 8.177 3.234 12.014 1.393 8.832-4.231 18.703 7.193 23.805 14.378 2.871 4.044 7.932 5.843 12.9 4.579 4.264-1.084 9.466 1.007 15.06 6.044.816.735 1.696 1.514 2.628 2.328 7.585-1.083 15.419-4.372 16.491-15.995-2.124-2.981-4.252-6.167-6.379-9.581z" fill="#88ce65"/><path d="m496.959 167.281c.117 2.23-2.769 4.194-6.446 4.386-3.677.193-6.752-1.459-6.869-3.689s2.769-4.194 6.446-4.386 6.752 1.459 6.869 3.689z" fill="#ef6b50"/><ellipse cx="412.864" cy="155.847" fill="#ff9433" rx="11.646" ry="13.25" transform="matrix(.999 -.052 .052 .999 -7.59 21.819)"/><path d="m421.781 149.914c.266 5.083-3.638 9.419-8.721 9.686-5.083.266-9.419-3.638-9.686-8.721-.266-5.083 3.638-9.419 8.721-9.686 5.083-.266 9.42 3.638 9.686 8.721z" fill="#543e5b"/><path d="m421.916 152.493c.133 2.541-1.819 4.71-4.36 4.843s-4.71-1.819-4.843-4.36 1.819-4.71 4.36-4.843c2.542-.133 4.71 1.819 4.843 4.36z" fill="#a98bbc"/><path d="m93.766 162.159s-.162-1.249-.442-3.439c-.527.953-1.225 1.664-2.149 2.06-8.758 3.754-16.202-18.712-20.259-35.263-8.715-3.762-19.319-4.708-27.262 6.192-.343.47-.707.919-1.08 1.358.176 1.271.354 2.53.529 3.759 1.785 12.515 3.473 24.336-1.724 26.564-5.823 2.496-11.063-6.601-15.115-17.842-12.356 24.421-20.75 51.186-24.319 79.458 18.284-14.223 38.258-16.593 49.477-16.597 5.023-.002 9.859-1.987 13.431-5.517 8.306-8.21 21.089-8.488 31.145-6.99-17.171-14.403-2.232-33.743-2.232-33.743z" fill="#ffb332"/><path d="m202.378 167.128c-4.16-3.439-8.09-6.783-11.356-9.723-7.247-6.525-12.703-7.331-16.432-6.383-4.269 1.085-8.758-.402-11.308-3.994-5.819-8.196-15.689-19.028-25.124-15.099.203 1.483.412 2.951.617 4.39 1.787 12.514 3.474 24.335-1.724 26.562-9.352 4.008-17.206-21.878-21.037-38.537-7.716-3.244-16.71-4.063-23.883 3.737-.023.026-.05.048-.074.073.273 2.061.562 4.093.842 6.06 1.739 12.18 3.364 23.676-1.34 26.338.133 1.037.207 1.605.207 1.605s-14.731 19.063 1.857 33.431c3.494.398 6.747 1.046 9.483 1.718 4.755 1.168 9.715.246 13.971-2.175 10.94-6.224 25.267-2.401 34.259 1.214 4.921 1.979 10.485 1.849 15.267-.446 4.488-2.154 11.25-4.092 20.349-3.234 1.604.151 3.306.283 5.076.398 14.215.926 21.329-16.859 10.35-25.935z" fill="#ffc839"/><g fill="#6faf46"><ellipse cx="205.883" cy="218.961" rx="17.529" ry="10.75" transform="matrix(.999 -.052 .052 .999 -11.179 11.077)"/><path d="m243.728 195.365c.19 3.636-4.461 6.836-10.39 7.146-5.929.311-10.89-2.385-11.08-6.021-.191-3.636 4.461-6.836 10.39-7.146 5.929-.311 10.89 2.385 11.08 6.021z"/><path d="m264.876 215.869c.191 3.636-4.461 6.836-10.39 7.146-5.929.311-10.89-2.385-11.08-6.021-.191-3.636 4.461-6.836 10.39-7.146s10.89 2.385 11.08 6.021z"/><path d="m304.208 198.796c.191 3.636-4.461 6.836-10.39 7.146-5.929.311-10.89-2.385-11.08-6.021-.191-3.636 4.461-6.836 10.39-7.146s10.889 2.385 11.08 6.021z"/><ellipse cx="182.664" cy="250.887" rx="18.08" ry="11.088" transform="matrix(.999 -.052 .052 .999 -12.882 9.905)"/><ellipse cx="143.878" cy="233.164" rx="18.079" ry="11.088" transform="matrix(.999 -.052 .052 .999 -12.008 7.851)"/><ellipse cx="97.236" cy="269.144" rx="30.382" ry="18.632" transform="matrix(.999 -.052 .052 .999 -13.956 5.459)"/><path d="m51.349 309.308c-20.232 1.06-36.551 10.948-39.229 22.952 1.891 5.778 3.99 11.46 6.289 17.039 7.566 6.837 20.776 10.973 35.57 10.198 22.599-1.185 40.33-13.38 39.604-27.24-.726-13.859-19.635-24.134-42.234-22.949z"/></g><path d="m78.636 129.751c-2.726-1.804-5.964-3.62-9.439-4.926 3.902 16.442 11.811 41.944 22.569 37.334 7.335-3.143 3.743-18.903 1.629-35.337-.426.395-.85.808-1.264 1.26-3.496 3.802-9.187 4.519-13.495 1.669z" fill="#ffdd40"/><path d="m137.642 164.26c6.96-2.982 4.082-17.325 1.964-32.823-.668.174-1.334.41-1.998.728-3.405 1.632-7.45 1.04-10.462-1.237-3.347-2.531-7.876-5.454-12.82-7.248 3.576 16.044 11.819 45.507 23.316 40.58z" fill="#ffdd40"/><path d="m41.97 164.769c7.036-3.015 4.017-17.639 1.894-33.331-.069.092-.14.176-.209.271-3.603 4.944-8.982 8.199-14.952 9.154-1.158 2.171-2.282 4.363-3.376 6.572 4.225 11.197 9.868 20.237 16.643 17.334z" fill="#ffc839"/><path d="m424.874 89.673c-44.756-48.377-108.771-78.675-179.872-78.675-54.146 0-104.175 17.582-144.727 47.327 73.388 1.58 137.154 93.697 175.142 63.673 32.769-25.9 67.305-38.108 110.577-25.574 20.522 5.944 32.265 1.493 38.88-6.751z" fill="#543e5b"/><path d="m489.594 270.05c-33.901-13.085-82.435-22.975-118.277 4.045-59.567 44.905-57.567 80.905-9.567 107.905s-60 107-90 56c-27.126-46.114-139.623-63.608-135.269 37.695 32.711 16.193 69.548 25.307 108.521 25.307 130.594 0 237.309-102.18 244.592-230.952z" fill="#543e5b"/><path d="m451.875 300.321c-33.206 0-60.125 17.608-60.125 39.329s26.919 39.329 60.125 39.329c1.731 0 3.44-.059 5.133-.153 12.82-22.084 22.291-46.35 27.714-72.111-9.444-4.038-20.722-6.394-32.847-6.394z" fill="#6c5475"/><path d="m324.896 24.346c-25.043-8.639-51.915-13.348-79.894-13.348-21.681 0-42.699 2.826-62.716 8.116 17.79 24.515 52.144 62.512 87.464 50.39 27.682-9.501 45.049-29.163 55.146-45.158z" fill="#6c5475"/><path d="m250.704 500.932c-.559-5.391-1.756-10.987-3.651-16.604-8.947-26.513-29.916-43.378-46.836-37.669-14.345 4.841-21.169 24.355-17.463 46.34 19.877 5.212 40.735 8.002 62.248 8.002 1.906.001 3.806-.025 5.702-.069z" fill="#6c5475"/></g></svg>