<svg id="Layer_1" enable-background="new 0 0 512 512" height="512" viewBox="0 0 512 512" width="512" xmlns="http://www.w3.org/2000/svg"><g><path d="m245.002 10.998c-35.116 0-68.497 7.403-98.692 20.709l-127.361 129.671c-12.201 29.114-18.949 61.079-18.949 94.622 0 135.311 109.691 245.002 245.002 245.002s245.002-109.691 245.002-245.002-109.691-245.002-245.002-245.002z" fill="#45304c"/><path d="m419.398 253.279c3.589 2.333 8.941 5.425 15.973 8.472-3.01-5.04-2.291-9.474-.251-13.033-5.935 1.192-11.305 2.689-15.722 4.561z" fill="#fc7e65"/><path d="m485.204 271.879c-33.22-2.553-54.222-15.206-61.503-20.341-3.378 1.583-6.084 3.423-7.886 5.563-5.169 6.142-12.487 9.589-20.045 11.458 36.884 18.877 71.676 13.684 89.966 8.518 2.848-.804 2.417-4.972-.532-5.198z" fill="#ffb332"/><path d="m360.527 214.29c-11.12-3.703-8.972-13.47-7.114-18.269-9.916.584-16.388 1.263-23.131 7.518-1.423 1.32-.979 3.705.839 4.385 1.995.746 3.996 2.186 4.236 4.964.455 5.269-12.668 4.261-19.045 13.871-.848 1.278-.362 3.006.988 3.734 3.458 1.865 8.458 6.666.358 17.19 5.591-5.644 11.232-8.583 14.511-9.946 1.303-.542 1.616-2.245.608-3.233l-1.824-1.79c-.678-.665-.782-1.715-.267-2.513 6.719-10.427 20.15-14.396 29.841-15.911z" fill="#ef6b50"/><path d="m376.284 182.809c-2.133-.386-3.794 1.807-2.844 3.755 1.68 3.448 1.467 7.815-9.405 8.753-4.856.419-8.998.591-12.671.834-1.883 4.941-3.952 14.868 7.838 18.361.503-.088 1.004-.173 1.489-.248 5.247-5.91 13.074-10.225 22.689-11.055 5.217-.45 10.905 1.156 15.461 1.519-1.353-6.254-6.744-19.054-22.557-21.919z" fill="#fc7e65"/><path d="m374.576 265.311c-1.501-4.014-4.988-9.228-12.426-15.484-12.091-10.17-10.956-26.041-1.421-36.654-9.737 1.211-24.998 4.923-32.306 16.262-.514.798-.409 1.847.268 2.512l1.824 1.79c1.007.988.694 2.691-.608 3.233-4.828 2.008-14.777 7.412-22.145 19.874-.825 1.396.247 3.144 1.862 3.005l1.696-.146c1.672-.144 2.743 1.138 2.375 2.469-1.666 6.027-7.471 20.345-25.725 25.368-1.055.29-1.444 1.594-.708 2.403.639.702 1.498 1.502 2.586 2.215 1.112.729.838 2.415-.46 2.702-11.506 2.55-43.809 5.993-51.381-33.195-7.579-39.218-7.379-75.81 9.181-107.096 7.895-14.915 6.656-33.014-3.41-46.559-.7-.942-1.437-1.909-2.182-2.881-2.363 8.122-6.858 16.77-13.434 21.154-7.974 5.318-14.266 3.522-24.869 1.036 5.341 11.177 6.12 22.989 2.277 35.178-11.089 35.168-12.82 67.603-5.005 93.797 7.274 24.384 22.412 42.826 43.775 53.333 22.193 10.916 22.481 25.672 18.816 36.128-2.872 8.188.601 17.172 8.257 21.36 4.772 2.611 7.986 6.016 9.632 10.125 8.478-6.922 16.156-15.037 20.681-24.058 1.194-2.381 4.466-2.708 6.159-.65l1.929 2.346c1.598 1.942 4.618 1.773 5.983-.339 5.596-8.653 18.053-29.358 23.289-49.654 6.108-23.676 26.011-28.792 38.639-34.747-1.357-1.325-2.45-2.956-3.149-4.827z" fill="#c67859"/><path d="m272.132 365.799c-6.989-3.824-10.198-12.031-7.562-19.549 3.935-11.221 3.486-26.63-19.568-37.969-40.665-20-61.335-71.333-38.002-145.333 4.095-12.988 2.904-24.701-1.835-35.189-7.723-1.818-17.748-4.264-32.773-4.473-7.332-.125-11.195 8.677-6.144 14.023 3.573 4.479 7.93 6.345 6.533 10.622-1.796 5.488-7.468 1.357-25.678 11.054-2.625 1.398-4.475 4.04-4.615 7.011-.166 3.512 1.795 6.654 4.958 8.062 5.607 2.498 12.393 6.659 12.88 12.303.599 6.945-9.353 5.656-23.088 8.264-7.4 1.406-9.303 11.014-2.993 15.174 5.894 3.886 8.359 8.198 7.327 12.818-1.896 8.487-11.253 15.542-23.125 18.807.25.035.493.073.745.106 2.54.342 3.36 3.601 1.258 5.068l-6.764 4.721c-2.978 2.079-2.535 5.002-.326 5.705 10.872 3.461 35.153 11.881 46.298 21.255 11.809 9.933-90.149-.237-148.638 50.589 16.342 52.533 49.898 97.471 94.058 128.252 9.923-11.068 18.587-23.762 24.914-38.27 4.034-9.249 13.665-14.784 23.706-13.791 18.832 1.862 50.503 1.81 84.422-11.999 1.707-.695 3.43.956 2.797 2.687l-.752 2.057c-.649 1.776 1.166 3.454 2.882 2.659 7.985-3.697 24.923-12.26 39.216-24.241-2.081-4.817-5.967-8.144-10.131-10.423z" fill="#b26847"/><path d="m201.323 123.553c1.059 1.832 1.976 3.684 2.782 5.552 1.457.35 2.935.719 4.445 1.126 21.657 5.824 30.745-12.201 34.246-23.517-6.675-8.859-15.266-19.008-25.901-29.229-13.974 1.906-35.275 2.823-58.187-3.424-10.173-2.773-20.006-3.485-27.126-.379 26.683 10.835 56.708 27.322 69.741 49.871z" fill="#ffc839"/><path d="m79.354 204.721-.593.179c1.295.199 2.598.382 3.916.534 2.496.286 3.412 3.427 1.437 4.979l-11.7 9.195c-1.401 1.101-1.429 3.203-.065 4.349 5.265 4.422 19.367 13.888 46.849 17.574.693.093 1.252.409 1.664.842 11.324-3.593 20.347-10.601 22.312-19.398 1.411-6.316-2.857-11.139-8.025-14.546-5.066-3.34-3.565-11.06 2.396-12.192 13.642-2.591 25.178-1.185 24.416-10.017-.539-6.25-7.299-10.745-13.846-13.661-5.082-2.263-5.392-9.363-.49-11.992 8.348-4.476 15.864-6.703 21.751-7.783 5.051-.927 7.037-7.107 3.51-10.839l-5.445-5.763c-4.049-4.285-.967-11.339 4.928-11.256 8.294.116 19.77 1.149 33.568 4.626-10.615-26.044-43.154-44.706-72.199-56.677-6.872 2.141-11.726 7.246-12.818 16.614-.489 4.2-4.309 7.193-8.519 6.644-35.037-4.566-65.014 12.838-64.715 25.862.405 17.656 48.214 27.657 35.834 42.38-16.237 19.302-18.944 27.06-4.166 40.346z" fill="#ffb332"/><path d="m431.106 216.299c-4.242-1.015-8.355-2.559-12.234-4.612-7.655-4.052-19.716-8.948-34.849-10.151-26.897-2.139-44.585 24.802-28.693 43.44 6.306 7.396 8.887 13.113 9.706 17.319 1.166 5.987 6.266 10.429 12.365 10.521 12.251.185 29.596-1.88 39.332-13.448 4.932-5.861 16.608-9.479 30.447-11.681-26.065-6.569-20.338-23.584-16.074-31.388z" fill="#ffc839"/><path d="m133.747 74.571c5.378-1.886 13.202-2.013 24.528 1.074 23.996 6.541 46.08 5.369 60.138 3.316-17.905-17.515-41.774-35.361-72.104-47.255-17.983 7.924-34.831 17.949-50.237 29.759 9.656 2.776 23.263 7.126 37.675 13.106z" fill="#ffdd40"/><path d="m84.775 165.43c17.26-20.52-61.772-31.617-26.085-56.306 19.031-13.166 40.785-13.023 53.499-11.366 5.106.665 9.765-2.966 10.36-8.081.735-6.309 3.811-13.596 13.616-15.79-14.614-6.174-28.528-10.668-38.563-13.571-34.411 25.957-61.767 60.767-78.654 101.062 8.644 1.982 16.069 3.613 21.586 4.8 2.809.605 2.987 4.545.245 5.404l-16.653 5.219c-2.209.692-2.676 3.611-.787 4.949 9.165 6.491 31.714 20.513 59.337 23.683-15.854-13.336-15.161-19.483 2.099-40.003z" fill="#ffc839"/><path d="m407.538 231.563c-.209 7.74-5.894 13.865-12.697 13.682-6.803-.184-12.149-6.607-11.94-14.347s5.893-13.865 12.697-13.682c6.803.184 12.149 6.607 11.94 14.347z" fill="#ff9433"/><path d="m405.123 225.721c-.145 5.383-4.627 9.63-10.011 9.485s-9.63-4.627-9.485-10.011 4.627-9.63 10.011-9.485 9.631 4.627 9.485 10.011z" fill="#fcf2c8"/><g fill="#543e5b"><path d="m405.05 228.453c-.073 2.692-2.314 4.815-5.005 4.742-2.692-.073-4.815-2.314-4.742-5.005.073-2.692 2.314-4.815 5.005-4.742 2.691.072 4.814 2.313 4.742 5.005z"/><path d="m245.002 10.998c-3.331 0-6.641.088-9.939.22-1.942 11.74.578 27.215 17.093 43.73 17.912 17.912 31.331 39.268 37.394 61.839 7.191 26.769 33.61 43.876 60.937 39.231 22.783-3.872 47.846-1.891 68.912 14.93 22.53 17.99 43.745 20.117 60.859 16.46-29.669-101.924-123.758-176.41-235.256-176.41z"/><path d="m5.858 202.59c-3.826 17.194-5.858 35.063-5.858 53.41 0 8.481.432 16.861 1.273 25.119 26.991-.117 49.078-5.337 49.078-22.112-.001-30.226-27.834-48.304-44.493-56.417z"/><path d="m245.002 501.002c110.303 0 203.571-72.897 234.283-173.139-27.77-14.827-83.413-33.996-111.618 21.085-32.309 63.096-96.667 96-168.667 96-30.499 0-44.246 17.347-45.558 38.356 28.289 11.405 59.188 17.698 91.56 17.698z"/></g><path d="m455.669 381.136c-15.171-5.289-35.68-6.002-55.493 13.812-38.254 38.254-62.317 49.67-84.285 62.172-15.123 8.607-24.409 23.798-21.113 38.817 68.356-14.109 126.302-56.691 160.891-114.801z" fill="#6c5475"/><path d="m442.729 111.339c-29.991-40.928-72.373-72.199-121.629-88.282-5.259 32.305-7.388 116.498 121.629 88.282z" fill="#6c5475"/><path d="m510.209 238.082c-13.742-7.625-39.063-18.999-69.815-20.444-4.048-.19-8.036-.893-11.898-2.036-4.332 7.548-11.401 25.847 16.89 32.381 20.978-3.578 47.545-3.718 63.071-3.405 3.615.073 4.913-4.742 1.752-6.496z" fill="#ffdd40"/></g></svg>