<svg id="Layer_1" enable-background="new 0 0 512 512" height="512" viewBox="0 0 512 512" width="512" xmlns="http://www.w3.org/2000/svg"><g><path d="m245.002 10.998c-123.865 0-226.243 91.924-242.68 211.271l155.833 262.875c26.996 10.237 56.263 15.858 86.847 15.858 135.311 0 245.002-109.691 245.002-245.002s-109.691-245.002-245.002-245.002z" fill="#45304c"/><path d="m455.637 66.236c-.784-2.823-4.236-3.861-6.417-1.906-10.402 9.325-45.433 45.151-59.446 114.624-8.498 42.131-21.646 76.612-40.194 105.415-19.204 29.821-43.628 52.691-74.667 69.919-13.263 7.361-25.934 15.519-37.912 23.912.696.093 1.382.194 2.092.274-1.167 3.846-3.106 12.811 1.608 19.262 2.26 3.091 5.714 5.133 10.3 6.131 11.664-10.022 24.909-20.092 40.639-29.797 88.549-54.637 109.731-157.117 114.026-185.845 1.622-10.851 3.817-21.615 6.794-32.175 14.958-53.062 38.046-75.406 47.697-82.786-2.089-1.752-3.688-4.033-4.52-7.028z" fill="#7ff7cf"/><path d="m241.12 377.175c-.774-.073-1.522-.163-2.274-.251-20.623 14.321-39.241 29.409-55.319 42.448-14.206 11.522-26.474 21.473-35.444 26.924-6.573 3.995-12.042 9.731-15.813 16.59-1.359 2.471-2.849 5.277-4.402 8.348 9.714 5.298 19.833 9.945 30.287 13.909 34.801-17.779 56.017-49.983 94.297-82.516-20.144-3.448-11.332-25.452-11.332-25.452z" fill="#6ae5bf"/><path d="m503.046 75.724c-.016-.073-.033-.146-.051-.22-.066-.273-.009-.54.117-.763-4.454-4.043-10.995-5.343-17.805-5.343-6.729 0-10.448-3.047-12.045-4.825-1.295-1.441-2.783-2.713-4.511-3.589-9.893-5.018-14.56 5.653-14.56 5.653 1.124 4.048 4.485 9.964 14.448 12.178 13.113 2.914 17.648-1.364 24.931 3.254 4.601 2.917 10.642-1.024 9.476-6.345z" fill="#52ceaa"/><path d="m511.461 65.372-.013-.027c-.732-1.556-2.159-2.653-3.841-3.005-2.921-.611-7.906-2.716-12.467-9.775-5.14-7.955-11.16-10.453-14.866-11.492-1.298-.364-2.514-2.503-5.261-3.008-6.124-1.125-6.979 4.219-16.207 2-37.962-9.129-64.371 26.624-87.703 72.364 8.313 6.476 9.931 20.297-.31 27.75-3.645 2.651-5.258 7.304-4.11 11.852 2.711 10.751-1.708 22.171-11.501 28.165-4.671 2.86-6.705 8.377-4.947 13.415 5.748 16.481-2.989 34.317-18.895 40.279-5.239 1.964-8.249 7.583-7.002 13.069 5.244 23.07-15.874 43.741-38.859 37.926-5.083-1.282-10.466 1.213-12.799 5.943-12 24.33-44.505 28.056-61.945 8.132-3.96-4.522-11.027-5.075-15.761-1.184-1.969 1.619-4.052 3.033-6.213 4.266.269.251.54.501.823.749-1.541 5.466-8.026 32.149 5.577 52.703 8.565 12.939 23.339 20.666 43.932 22.979-.013.043-.027.096-.041.141 11.609-8.089 23.849-15.945 36.588-23.015 63-34.966 99-94.034 115.604-176.349 13.858-68.7 48.047-104.004 58.977-113.803 1.353-1.213 3.484-.561 3.97 1.19.055.199.121.407.188.615.953-1.858 5.613-9.71 14.372-5.267 1.727.876 3.216 2.148 4.511 3.589 1.597 1.778 5.315 4.825 12.045 4.825 6.769 0 13.273 1.285 17.726 5.271-.012-.055-.024-.109-.038-.164-.146-.603.249-1.204.865-1.274 2.142-.245 6.485-1.196 7.855-4.895.477-1.287.33-2.724-.254-3.965z" fill="#6ae5bf"/><path d="m191.299 302.282c-.417-.346-.81-.693-1.192-1.041-18.933 11.703-44.854 8.084-59.33-11.266-3.581-4.789-10.342-5.888-15.393-2.503-18.595 12.474-43.778 9.243-58.632-7.86-3.896-4.487-10.607-5.281-15.28-1.806-11.627 8.65-26.473 10.946-39.797 6.858 9.434 80.615 58.167 150.009 127.513 187.278 1.551-3.065 3.038-5.867 4.395-8.333 3.618-6.579 8.862-12.131 15.279-16.031 19.193-11.664 51.98-42.62 92.257-70.4l.001-.003c-71.406-6.771-49.821-74.893-49.821-74.893z" fill="#52ceaa"/><path d="m481.277 50.501c.215 4.113-2.541 7.601-6.156 7.791-3.616.189-6.721-2.991-6.937-7.104s2.541-7.601 6.156-7.791c3.616-.19 6.721 2.991 6.937 7.104z" fill="#34a086"/><path d="m479.75 47.504c.15 2.861-2.048 5.302-4.909 5.452s-5.302-2.048-5.452-4.909 2.048-5.302 4.909-5.452c2.861-.149 5.302 2.048 5.452 4.909z" fill="#ffc839"/><g fill="#543e5b"><path d="m479.826 48.956c.075 1.431-1.024 2.651-2.454 2.726s-2.651-1.024-2.726-2.454c-.075-1.431 1.024-2.651 2.454-2.726 1.431-.075 2.651 1.024 2.726 2.454z"/><path d="m490.004 256c0-25.633-3.944-50.343-11.245-73.565-21.504 7.544-44.447 26.872-52.233 73.565-16 95.947-53 133.568-116 156.257-42.59 15.339-56.377 55.038-35.204 86.877 121.003-14.935 214.682-118.09 214.682-243.134z"/><path d="m29.164 140.025c7.037 55.927 100.264 34.048 171.187 73.215 83.826 46.292 104.174-78.293 130.174-123.79 13.459-23.552 7.624-46.688-1.136-63.529-26.309-9.652-54.732-14.923-84.387-14.923-93.349 0-174.485 52.216-215.838 129.027z"/></g><path d="m274.562 67.021c8.728-20.844-.376-40.789-11.412-55.348-5.993-.439-12.043-.675-18.148-.675-69.958 0-133.056 29.327-177.69 76.353 16.723 39.098 70.576 41.271 116.111 54.599 54.666 16 74-34 91.139-74.929z" fill="#6c5475"/><path d="m371.782 111.102c-28.052 54.615-51.56 124.078-85.142 148.218-31.823 22.875-56.437 23.478-96.91 8.738-2.033 2.014-8.764 9.397-8.583 18.678.113 5.853 2.95 11.251 8.438 16.056-.051.183-.109.393-.171.622 2.301-1.309 4.481-2.807 6.514-4.478 4.094-3.365 10.19-2.974 13.68 1.013 7.157 8.176 17.667 13.34 29.387 13.34 15.373 0 28.663-8.885 35.032-21.798 2.026-4.107 6.645-6.275 11.085-5.152 3.484.882 7.188 1.215 11.014.897 16.15-1.339 29.167-14.45 30.403-30.608.265-3.46-.003-6.817-.726-10.001-1.076-4.735 1.519-9.629 6.065-11.333 12.638-4.738 21.633-16.925 21.633-31.217 0-3.841-.652-7.528-1.849-10.96-1.54-4.415.327-9.201 4.315-11.642 7.793-4.77 12.993-13.36 12.993-23.166 0-2.293-.285-4.519-.821-6.646-.965-3.829.346-7.949 3.539-10.271 4.691-3.413 7.742-8.938 7.742-15.185-.002-6.198-3.012-11.68-7.638-15.105z" fill="#b26847"/><path d="m116.22 288.719c4.35-2.918 10.218-2.039 13.355 2.155 8.427 11.265 21.869 18.558 37.02 18.558 9.085 0 17.557-2.623 24.703-7.151-19.476-16.165 0-33.65 0-33.65l.007-.007c-10.281-3.679-21.57-8.359-34.292-13.957-45.48-20.48-104.873-29.377-154.695-32.405-1.52 11.03-2.318 22.29-2.318 33.738 0 10.234.634 20.334 1.862 30.262 4.115 1.201 8.462 1.858 12.965 1.858 10.323 0 19.85-3.389 27.541-9.11 4.125-3.069 9.881-2.297 13.252 1.585 8.474 9.757 20.968 15.928 34.906 15.928 9.511 0 18.347-2.877 25.694-7.804z" fill="#945230"/></g></svg>