<svg id="Layer_1" enable-background="new 0 0 512 512" height="512" viewBox="0 0 512 512" width="512" xmlns="http://www.w3.org/2000/svg"><g><path d="m245.002 10.998c-123.865 0-226.243 91.924-242.68 211.271l155.833 262.875c26.996 10.237 56.263 15.858 86.847 15.858 135.311 0 245.002-109.691 245.002-245.002s-109.691-245.002-245.002-245.002z" fill="#88ce65"/><path d="m455.637 66.236c-.784-2.823-4.236-3.861-6.417-1.906-10.402 9.325-45.433 45.151-59.446 114.624-8.498 42.131-21.646 76.612-40.194 105.415-19.204 29.821-43.628 52.691-74.667 69.919-16.8 9.324-32.637 19.929-47.332 30.667.489.159.967.323 1.468.476-.896 3.703-2.521 13.464 3.064 20.215 2.424 2.929 5.873 4.871 10.293 5.838 13.69-12.502 29.51-25.245 49.234-37.414 88.549-54.637 109.731-157.117 114.026-185.844 1.622-10.851 3.817-21.615 6.794-32.175 14.958-53.062 38.046-75.406 47.697-82.786-2.089-1.753-3.688-4.034-4.52-7.029z" fill="#f9c8b9"/><path d="m230.882 384.408c-.617-.176-1.212-.36-1.805-.544-16.759 12.17-32.053 24.561-45.55 35.509-14.206 11.522-26.474 21.473-35.444 26.924-6.573 3.995-12.042 9.731-15.813 16.59-1.359 2.471-2.849 5.277-4.402 8.348 9.714 5.298 19.833 9.945 30.287 13.909 32.083-16.39 52.62-45.041 85.625-74.906-20.089-3.529-12.898-25.83-12.898-25.83z" fill="#eab19d"/><path d="m511.461 65.372-.013-.027c-.732-1.556-2.159-2.653-3.841-3.005-2.921-.611-7.906-2.716-12.467-9.775-5.14-7.955-11.16-10.453-14.866-11.492-1.298-.364-2.514-2.503-5.261-3.008-6.124-1.125-6.979 4.219-16.207 2-9.74-2.342-18.718-1.733-27.079 1.239.831 6.077 1.334 19.69-9.409 25.582-7.25 3.979-11.821 11.575-11.932 19.828-.121 9.069-4.221 16.327-12.185 21.569-7.462 4.912-11.604 13.233-10.807 21.714.929 9.904-.645 23.631-13.419 32.782-7.852 5.627-11.498 15.656-9.071 24.957 3.677 14.096 2.811 32.823-22.189 41.991-9.286 3.406-15.451 11.962-15.704 21.799-.347 13.476-3.43 31.803-16.148 42.589-9.164 7.772-22.17 10.548-38.659 8.255-8.71-1.213-17.584 2.114-23.174 8.683-6.593 7.747-19.732 16.853-45.334 18.279.946.564 1.914 1.12 2.911 1.667-2.723 4.484-10.271 18.787-5.351 32.543 3.574 9.996 12.921 17.355 27.792 21.889-.028.115-.058.253-.087.38 14.525-10.59 30.186-21.057 46.678-30.211 63-34.966 99-94.034 115.604-176.349 13.858-68.7 48.047-104.004 58.977-113.803 1.353-1.213 3.484-.561 3.97 1.19.055.199.121.407.188.615.953-1.858 5.613-9.71 14.372-5.267 1.728.876 3.216 2.148 4.511 3.589 1.597 1.778 5.315 4.825 12.045 4.825 6.769 0 13.273 1.285 17.726 5.271-.012-.055-.024-.109-.038-.164-.145-.603.249-1.204.865-1.274 2.142-.245 6.485-1.196 7.855-4.895.478-1.288.331-2.725-.253-3.966z" fill="#e17f51"/><path d="m208.742 330.445c-.81-.428-1.594-.859-2.363-1.293-3.058.242-6.294.378-9.739.378-21.898 0-37.195 7.911-50.691 14.892-16.843 8.711-31.387 16.231-54.385 7.205-8.319-3.265-17.905-1.916-25.017 3.523-8.71 6.664-22.201 13.914-39.219 13.383 3.207 6.191 6.679 12.221 10.385 18.089 2.82-.464 5.766-.714 8.8-.714 20.133 0 36.513 10.842 36.513 24.168 0 7.189-4.773 13.651-12.325 18.082 17.132 17.344 36.832 32.146 58.488 43.784 1.55-3.065 3.038-5.867 4.394-8.333 3.618-6.579 8.862-12.131 15.279-16.031 17.541-10.66 46.432-37.434 82.02-63.17v-.001c-49.643-14.204-22.14-53.962-22.14-53.962z" fill="#d37044"/><path d="m481.277 50.501c.216 4.113-2.541 7.601-6.156 7.791-3.615.189-6.721-2.991-6.937-7.104s2.541-7.601 6.156-7.791c3.616-.19 6.721 2.991 6.937 7.104z" fill="#d37044"/><path d="m479.75 47.504c.15 2.861-2.048 5.302-4.909 5.452s-5.302-2.048-5.452-4.909 2.048-5.302 4.909-5.452c2.861-.149 5.302 2.048 5.452 4.909z" fill="#ffc839"/><path d="m479.826 48.956c.075 1.431-1.024 2.651-2.454 2.726-1.431.075-2.651-1.024-2.726-2.454-.075-1.431 1.024-2.651 2.454-2.726s2.651 1.024 2.726 2.454z" fill="#543e5b"/><path d="m503.046 75.724c-.016-.073-.033-.146-.051-.219-.066-.273-.009-.54.117-.764-4.454-4.042-10.995-5.343-17.805-5.343-6.729 0-10.448-3.047-12.045-4.825-1.295-1.441-2.783-2.713-4.511-3.589-9.893-5.018-14.56 5.653-14.56 5.653 1.124 4.048 4.485 9.964 14.448 12.178 13.113 2.914 17.648-1.364 24.931 3.254 4.601 2.917 10.642-1.024 9.476-6.345z" fill="#d37044"/><path d="m433.184 40.816c-64.059 20.485-91.979 179.281-146.544 218.504-32.994 23.717-58.238 23.496-101.445 7.05-4.517 7.838-8.83 18.948-6.861 30.902 2.163 13.133 11.494 24.362 27.717 33.409 24.68-1.862 37.558-10.944 44.122-18.656 5.351-6.287 13.647-9.308 21.824-8.17 47.835 6.66 55.938-29.887 56.514-52.291.237-9.206 6.077-17.258 14.722-20.428 26.311-9.649 26.84-29.53 23.124-43.779-2.288-8.771 1.125-18.078 8.494-23.358 13.248-9.492 15.029-23.59 14.039-34.142-.763-8.125 3.322-15.835 10.138-20.322 10-6.583 12.76-15.337 12.86-22.803.103-7.698 4.403-14.829 11.153-18.532 11.783-6.463 11.058-21.136 10.143-27.384z" fill="#b26847"/><path d="m67.459 356.342c6.713-5.135 15.69-6.407 23.557-3.319 42.609 16.727 57.279-21.993 105.624-21.993 4.338 0 8.358-.21 12.101-.585-39.1-20.665-30.855-48.415-22.094-63.523-9.943-3.735-20.834-8.345-33.008-13.745-51.802-22.977-125.217-29.328-151.321-30.915-1.52 11.03-2.318 22.29-2.318 33.738 0 41.184 10.177 79.985 28.13 114.052 17.174.278 30.734-7.135 39.329-13.71z" fill="#945230"/><path d="m490.004 256c0-25.633-3.944-50.343-11.245-73.565-21.504 7.544-44.447 26.872-52.233 73.565-16 95.947-53 133.568-116 156.258-42.59 15.339-56.376 55.038-35.204 86.877 121.003-14.936 214.682-118.091 214.682-243.135z" fill="#b4d667"/><path d="m29.164 140.025c7.037 55.927 100.264 34.048 171.187 73.215 83.826 46.293 104.174-78.292 130.174-123.79 13.459-23.552 7.624-46.688-1.136-63.529-26.309-9.652-54.732-14.923-84.387-14.923-93.349 0-174.485 52.216-215.838 129.027z" fill="#b4d667"/><path d="m274.562 67.021c8.728-20.844-.376-40.789-11.412-55.348-5.993-.439-12.043-.675-18.148-.675-69.958 0-133.056 29.327-177.69 76.353 16.723 39.098 70.576 41.271 116.111 54.598 54.666 16.001 74-33.999 91.139-74.928z" fill="#cbe87c"/><g fill="#945230"><ellipse cx="110.775" cy="384.408" rx="21.25" ry="14.349"/><path d="m84.525 410.076c0-14.176-17.019-25.668-38.013-25.668-3.341 0-6.58.294-9.667.84 9.949 15.99 21.692 30.745 34.942 43.993 7.814-4.7 12.738-11.543 12.738-19.165z"/><ellipse cx="150.716" cy="350.919" rx="23.175" ry="15.649"/></g></g></svg>