<svg id="Layer_1" enable-background="new 0 0 512 512" height="512" viewBox="0 0 512 512" width="512" xmlns="http://www.w3.org/2000/svg"><g><path d="m245.002 10.998c-106.568 0-197.229 68.047-230.943 163.056l.004.006 45.232 241.744c44.93 52.166 111.459 85.198 185.708 85.198 135.311 0 245.002-109.691 245.002-245.002s-109.692-245.002-245.003-245.002z" fill="#45304c"/><path d="m452.03 102.576c6.803-9.602 9.078-19.733 9.835-25.65-2.466.158-4.994.378-7.618.706-10.369 1.296-17.505 1.131-22.577-.091-2.018 3.978-4.831 8.983-8.508 14.39 4.021 6.361 13.16 16.315 28.868 10.645z" fill="#ff7186"/><path d="m431.322 119.749c10.879-5.163 17.923-12.493 22.494-19.873-15.969 6.766-25.503-2.348-29.991-8.935-3.939 5.907-8.92 12.348-15.072 18.5 0 0-7.231 4.67-6.858 36.78 4.517-8.279 13.122-18.733 29.427-26.472z" fill="#ff4155"/><path d="m364.503 41.727c2.75 6.507-5.008 11.17-14.029 19.019-1.43 1.245-.43 3.592 1.459 3.425 4.541-.401 10.552.01 14.835 3.82 9.998-14.258 23.065-20.905 33.026-23.994l2.917-.905-2.404-1.882c-2.162-1.693-2.358-5.182.173-6.982 7.271-5.163 16.119-6.225 20.746-6.397 2.785-.105 5.496-.749 8.055-1.915 1.966-.896 3.849-1.542 5.652-1.972-6.072-5.347-19.045-13.901-39.149-12.859-1.439.075-2.299 1.639-1.607 2.903 2.338 4.268 4.127 12.031-15.338 10.227-18.029-1.671-28.115 8.197-32.829 14.945-1.136 1.626.634 3.716 2.433 2.879 5.723-2.665 13.922-5.372 16.06-.312z" fill="#ef8e5e"/><path d="m419.433 59.756c-.577 1.016-38.941 18.181-34.491 99.533 3.082 56.309-32.46 107.423-81.389 140.494.611.125 1.213.257 1.838.37-1.466 4.053-4.275 14.109.56 21.604 1.796 2.784 4.437 4.887 7.891 6.306 63.684-36.093 96.562-106.897 91.891-152.335-5.865-57.045 5.154-64.153 5.154-64.153 12.087-12.087 19.698-25.314 23.643-33.355-9.931-2.321-11.633-9.128-15.097-18.464z" fill="#deeeff"/><path d="m307.467 298.986c-.741-.119-1.455-.254-2.173-.387-42.782 29.484-96.167 45.109-142.965 38.091-66.622-9.988-111.836 1.127-147.862 2.413 10.226 28.363 25.532 54.297 44.828 76.7 22.66-7.053 45.939-18.395 78.273-18.395 42.727 0 78.378-18.239 99.796-32.57 14.854-9.939 30.954-17.902 47.832-23.781 10.783-3.756 20.893-8.482 30.322-13.963-17.936-6.254-8.051-28.108-8.051-28.108z" fill="#deeeff"/><path d="m162.329 336.69c-66.622-9.988-111.836 1.127-147.862 2.413 10.226 28.363 25.532 54.297 44.828 76.7 22.66-7.053 45.939-18.395 78.273-18.395 42.727 0 78.378-18.239 99.796-32.57 14.854-9.939 30.954-17.902 47.832-23.781 10.783-3.756 20.893-8.482 30.322-13.963-1.101-.384-2.094-.828-2.994-1.321-.03-.017-.061-.033-.091-.05-.434-.241-.847-.493-1.237-.757-.016-.011-.032-.022-.048-.033-.797-.543-1.504-1.132-2.128-1.757-.007-.007-.015-.015-.023-.022-.307-.309-.594-.628-.862-.954-.014-.017-.027-.033-.041-.05-.811-.997-1.447-2.066-1.935-3.179-.006-.014-.012-.028-.019-.042-.161-.37-.306-.743-.436-1.121-.001-.004-.002-.007-.003-.011-.263-.769-.464-1.552-.612-2.342 0-.001-.001-.003-.001-.004-.073-.391-.133-.782-.181-1.175-.002-.012-.003-.025-.005-.037-.143-1.182-.179-2.366-.137-3.524 0-.013.001-.025.001-.038.014-.383.037-.763.067-1.14 0-.003 0-.005.001-.008.061-.761.152-1.505.264-2.224.001-.005.002-.011.002-.016.055-.353.115-.698.18-1.037.003-.016.006-.031.009-.047.195-1.023.425-1.978.663-2.839.005-.017.009-.034.014-.051.077-.279.155-.548.233-.806.003-.01.006-.02.009-.03.157-.52.312-.994.457-1.413.004-.012.008-.024.012-.036.07-.202.137-.39.201-.565.006-.017.012-.033.018-.05.063-.172.124-.332.179-.475.001-.003.002-.006.003-.009.057-.147.109-.278.155-.393.001-.003.003-.007.004-.01.044-.11.082-.201.115-.278.005-.013.01-.023.015-.036.028-.066.051-.119.067-.156.007-.016.008-.019.013-.029.011-.026.019-.043.019-.043-.741-.119-1.455-.254-2.173-.387-42.781 29.484-96.167 45.109-142.964 38.091z" fill="#d3dcfb"/><path d="m420.693 60.897c-.936-2.449-2.006-4.989-3.499-7.522-3.881-6.585-9.059-9.591-13.634-10.894-.619-.176-1.177-.434-1.672-.754-19.918 5.321-57.38 25.189-51.069 99.348 6.227 73.17-47.776 91.213-84.443 88.573-3.344 12.722-5.877 31.78 2.5 47.281 6.602 12.217 18.882 20.024 36.515 23.225-.039.109-.083.24-.124.358 48.858-33.241 84.388-84.401 81.273-141.31-3.576-65.322 19.808-89.61 34.153-98.305z" fill="#b26847"/><path d="m267.943 229.752c-14.263-.786-26.132-4.692-31.213-9.774-14.242-14.242-56.131-29.143-100.841-24.014-22.621 2.595-45.477-1.514-66.141-11.078-13.886-6.427-32.551-11.688-55.685-10.827-9.094 25.623-14.063 53.199-14.063 81.941 0 29.775 5.316 58.307 15.043 84.705 35.977-1.395 80.823-12.362 147.048-2.434 47.294 7.09 101.855-8.952 145.367-39.286-48.759-7.815-45.159-47.853-39.515-69.233z" fill="#945230"/><path d="m311.304 467.384c-1.53-15.587-9.247-41.368-43.468-42.201-25.588-.622-45.259-8.172-55.452-22.371-14.162 1.241-28.912 7.247-22.305 28.215 23.065 18.862 50.723 17.915 70.027 17.627 15.303-.228 23.459 14.081 27.184 23.588.937 2.391 4.485 1.86 4.684-.7.655-8.415-2.359-15.489-4.954-19.889-1.022-1.733.846-3.777 2.616-2.82 7.435 4.019 13.33 12.854 17.109 19.937 1.247 2.338 4.818 1.251 4.559-1.386z" fill="#c67859"/><path d="m473.551 78.805c5.018-5.685 8.917-13.293-1.177-23.387-5.716-5.716-6.32-11.357-5.244-15.854-1.73-1.354-3.277-2.952-4.57-4.767-5.683-7.97-16.847-18.127-33.941-10.338-2.347 1.069-4.875 1.676-7.452 1.773-5.059.19-14.086 1.348-21.611 6.692-4.121 2.927-2.988 9.237 1.874 10.621 4.575 1.303 9.753 4.309 13.634 10.894 8.797 14.928 2.932 30.122 41.318 25.324 6.157-.768 11.882-1.037 17.169-.958z" fill="#73c3f9"/><path d="m500.33 82.6c7.696 2.194 14.259-5.85 10.653-12.995-5.228-10.359-15.273-21.708-34.544-25.699-3.802-.787-7.289-2.572-10.186-5.082-1.321 4.608-.979 10.56 5.054 16.593 10.086 10.086 6.201 17.69 1.19 23.373 11.362.069 20.714 1.78 27.833 3.81z" fill="#ffdd40"/><ellipse cx="441.082" cy="48.299" fill="#1e9ef4" rx="14.409" ry="16.393"/><ellipse cx="441.082" cy="41.545" fill="#deeeff" rx="11.402" ry="11.402" transform="matrix(.23 -.973 .973 .23 299.308 461.283)"/><g fill="#543e5b"><path d="m452.484 44.741c0 3.149-2.552 5.701-5.701 5.701s-5.701-2.552-5.701-5.701 2.553-5.701 5.701-5.701c3.149 0 5.701 2.553 5.701 5.701z"/><path d="m92.953 448.097c26.704 21.167 57.915 36.891 91.971 45.478-9.987-41.764-34.048-82.894-91.971-45.478z"/><path d="m484.024 202.019c-18.982 4.629-40.15 18.211-49.091 53.981-10.17 40.689-41.265 74.062-72.3 97.155-25.462 18.946-31.053 54.742-12.898 80.774 7.513 10.772 13.521 22.802 15.728 35.447 74.351-42.066 124.541-121.854 124.541-213.376 0-18.549-2.074-36.612-5.98-53.981z"/><path d="m245.002 10.998c-76.726 0-145.204 35.275-190.123 90.488 8.275 21.71 27.199 46.026 70.329 50.451 80.792 8.288 186.109 57.288 186.109-34.712 0-43.251 6.14-73.404 12.647-93.219-24.776-8.431-51.334-13.008-78.962-13.008z"/></g><path d="m90.041 66.264c35.588 54.078 103.635 48.038 155.126 29.828 33.628-11.893 30.182-53.654 22.551-84.041-7.481-.688-15.055-1.053-22.716-1.053-58.8 0-112.741 20.735-154.961 55.266z" fill="#6c5475"/><path d="m405.985 440.666c26.783-23.365 48.437-52.457 63.05-85.371-32.897 4.38-90.22 21.159-63.05 85.371z" fill="#6c5475"/><path d="m213.143 403.834c-10.068-13.117-11.746-32.18-2.004-56.971 10.312-26.241 2.948-46.665-6.476-60.215-8.58-12.335-24.574-17.09-38.674-11.9l-18.84 6.935c-18.24 6.714-27.1 27.622-18.825 45.209 5.042 10.715 11.932 19.441 18.735 26.245 10.114 10.116 16.705 23.386 17.985 37.633.639 7.118 3.97 16.278 12.752 27.581 4.153 5.345 8.585 9.74 13.188 13.384-6.344-20.616 8.136-26.62 22.159-27.901z" fill="#b26847"/></g></svg>