<svg id="Layer_1" enable-background="new 0 0 512 512" height="512" viewBox="0 0 512 512" width="512" xmlns="http://www.w3.org/2000/svg"><g><path d="m245.002 10.998c-113.737 0-209.361 77.506-236.966 182.58l17.598 171.608c40.149 80.507 123.292 135.816 219.367 135.816 135.311 0 245.002-109.691 245.002-245.002s-109.69-245.002-245.001-245.002z" fill="#49b1f7"/><path d="m393.144 207.516c-10.463-1.465-19.926-1.485-28.631 1.421-5.667 1.892-10.855 2.797-15.579 3.013l-1.426 2.081c-.431 5.529 1.361 11.852 9.296 16.628 9.341 5.621 17.235 4.792 26.35 5.28-9.483-14.783-1.068-23.364 9.99-28.423z" fill="#ff7186"/><path d="m91.545 281.617c-6.364-5.219-14.85-6.733-22.727-3.922-24.459 8.728-47.046 12.872-66.143 14.558 3.835 25.85 11.711 50.379 22.96 72.934 21.551-1.435 42.043-4.77 61.347-9.387 5.768-16.512 10.063-34.202 12.801-52.825 1.199-8.158-1.88-16.142-8.238-21.358z" fill="#d3dcfb"/><path d="m227.643 233.694c-.998 2.198-2.771 6.529-4.016 11.968-2.384 10.409-1.629 19.889 2.184 27.413 3.004 5.931 7.86 10.702 14.482 14.309.517-.323 1.044-.651 1.551-.968 30.605-19.136 58.781-27.739 86.98-27.996l-.023-.448c-19.197-2.203-33.206-20.48-29.263-39.956.047-.234.097-.469.148-.705 1.871-8.59 9.219-14.235 17.152-14.749-5.569-1.458-11.535-.925-16.72 1.675-17.583 8.816-48.361 22.788-76.097 28.061 1.178.487 2.377.959 3.622 1.396z" fill="#deeeff"/><path d="m241.753 286.473c-31.538-16.421-12.026-53.655-12.026-53.655-1.029-.337-2.022-.693-2.995-1.058-6.377 1.33-12.623 2.234-18.544 2.537-30.986 1.59-30.719 14.164-30.132 41.715.267 12.544.586 27.826-1.514 47.256 26.509-12.872 48.49-26.341 65.211-36.795z" fill="#d3dcfb"/><path d="m475.857 258.132c-17.774-.09-45.13-2.214-61.358-13.194-14.579-9.865-24.91-9.999-34.392-10.288-2.928 2.525-9.319 9.007-9.304 17.51.009 4.606 1.905 9.036 5.632 13.238 5.209 1.507 10.463 3.241 15.776 5.199 33.641 12.393 66.483 2.963 85.141-5.02 3.871-1.656 2.714-7.424-1.495-7.445z" fill="#deeeff"/><path d="m382.406 234.723c-8.01-.272-15.248-.105-23.657-5.165-8.273-4.979-9.876-11.642-9.236-17.332-11.32.642-19.863-2.848-25.564-6.533-.071-.046-.142-.091-.213-.136-10.865-6.871-25.31-.602-28.045 11.959-.051.236-.101.471-.148.705-4.224 20.865 12.148 40.376 33.435 40.199 16.613-.138 33.237 2.626 50.371 7.846-17.45-16.752 3.029-31.522 3.057-31.543z" fill="#d3dcfb"/><path d="m446.659 203.354c-9.522-16.775-52.861-18.437-63.4-18.591.055-.529.01-1.104-.196-1.703-1.058-3.074-5.745-5.155-14.328-6.361-3.56-.5-6.248-2.091-8.22-4.863-3.742-5.261-3.869-13.475-3.471-18.746-2.565 1.029-5.213 2.36-7.985 3.989l-7.242 4.257c-6.199 3.644-13.564 4.734-20.551 3.036-19.208-4.669-63.873-12.296-124.302-2.299-3.307 10.894-6.755 29.219.32 45.496 5.176 11.906 15.149 20.592 29.643 25.858 27.512-5.727 57.371-19.38 73.943-27.69 7.103-3.562 15.498-2.95 22.17 1.364 8.3 5.368 22.186 10.307 41.576 3.834 21.298-7.11 47.125 3.282 81.065 9.552 3.455-6.421 3.79-12.178.978-17.133z" fill="#2a428c"/><path d="m198.644 161.806c-6.991 1.124-14.184 2.47-21.588 4.098-51.303 11.279-118.795 21.117-169.02 27.673-5.236 19.931-8.036 40.849-8.036 62.423 0 12.915 1.007 25.594 2.932 37.969 19.154-1.714 41.818-5.906 66.45-14.695 15.412-5.5 31.122 7.266 28.741 23.456-2.891 19.659-8.566 44.949-19.696 70.273-8.988 20.451 12.409 40.937 32.616 31.411 30.664-14.457 61.475-37.681 66.267-73.493 9.344-69.831-12.968-92.695 30.963-94.949 6.823-.35 14.074-1.487 21.453-3.155-43.139-14.124-36.529-53.415-31.082-71.011z" fill="#1c2e7a"/><path d="m506.692 223.792c4.025-.379 6.458-4.61 4.76-8.279-3.661-7.907-12.019-20.152-30.117-26.707-28.146-10.194-68.254-9.816-85.28-25.18-14.858-13.407-26.328-16.185-40.566-9.881-.517 8.352.474 22.673 13.037 24.439 17.867 2.511 12.5 8.066 12.5 8.066s82.312-.5 63.096 33.944c18.29 3.47 38.954 5.823 62.57 3.598z" fill="#3e60a3"/><path d="m386.393 180.695c.375 7.308-4.529 13.499-10.952 13.829-6.424.33-11.935-5.327-12.31-12.635s4.528-13.499 10.952-13.829c6.423-.33 11.935 5.327 12.31 12.635z" fill="#1c2e7a"/><path d="m383.686 175.369c.261 5.083-3.648 9.415-8.731 9.676s-9.415-3.648-9.676-8.731 3.648-9.415 8.732-9.676c5.082-.262 9.414 3.648 9.675 8.731z" fill="#d3dcfb"/><path d="m383.818 177.948c.13 2.542-1.824 4.708-4.366 4.838s-4.708-1.824-4.838-4.366c-.13-2.541 1.824-4.707 4.366-4.838 2.542-.13 4.708 1.825 4.838 4.366z" fill="#543e5b"/><path d="m54.699 101.708c6.144 18.248 23.592 42.016 73.168 30.375 76.658-18 205.054 6.813 234.658-22.791 14.591-14.591 16.684-38.673 15.057-59.349-38.217-24.641-83.727-38.945-132.58-38.945-76.829 0-145.386 35.371-190.303 90.71z" fill="#73c3f9"/><path d="m245.002 501.002c93.451 0 174.671-52.327 215.987-129.273-42.441-113.31-194.202-67.713-253.464 6.076-33.366 41.545-83.466 58.463-120.645 65.326 42.671 36.101 97.85 57.871 158.122 57.871z" fill="#73c3f9"/><g fill="#9bd8f9"><path d="m428.375 418.469c-12.546-25.957-35.392-56.097-73.183-53.027-54.897 4.46-148.852 64.479-120.125 135.35 3.296.132 6.606.209 9.935.209 72.975.001 138.492-31.908 183.373-82.532z"/><path d="m110.675 51.108c29.079 30.096 107.467 20.529 158.989 20.529 41.751 0 51.128-29.434 52.878-48.103-24.369-8.127-50.439-12.536-77.541-12.536-49.606 0-95.753 14.763-134.326 40.11z"/></g></g></svg>