<svg id="Layer_1" enable-background="new 0 0 512 512" height="512" viewBox="0 0 512 512" width="512" xmlns="http://www.w3.org/2000/svg"><g><path d="m245.002 15.011c-74.523 0-141.264 33.281-186.2 85.78 0 .001 4.293 329.359 69.676 374.79 6.932 3.755 14.066 7.186 21.381 10.271l65.126 17.329c9.839 1.202 19.854 1.833 30.017 1.833 135.311 0 245.002-109.691 245.002-245.002s-109.691-245.001-245.002-245.001z" fill="#52ceaa"/><path d="m126.238 417.449c16.031-25.429 42.191-23.991 59.836-19.183-11.183-35.534 27.119-42.267 42.004-75.581 2.974-6.655 3.148-12.978 1.441-18.878-2.946 1.353-6.141 2.507-9.581 3.321-2.347.555-4.345 1.158-6.113 1.791-6.661 2.386-12.119 7.143-16.003 13.057-6.42 9.771-20.195 17.166-36.981 16.982-6.123-.067-12.17 1.464-17.376 4.688-1.579.978-3.142 2.006-4.708 3.081-8.739 6.003-17.961 10.955-27.474 15.032-.463 5.725-.167 11.355 1.096 16.785 1.465 6.298 3.262 12.496 5.289 18.523 2.353 6.997 5.242 13.797 8.57 20.382z" fill="#7f3e21"/><path d="m244.09 251.185-.044-.71-.544-.461c-25.126-21.306-22.868-33.041-22.849-33.13l.044-.245c.088-.836 1.785-20.592-29.735-30.878-3.796-1.24-5.861-5.225-4.702-9.075.145-.483.283-.983.412-1.496l.483-1.919-1.972-.153c-10.981-.857-22.176-2.617-33.274-5.232-2.066-.487-2.776-2.212-2.756-3.542s.781-3.034 2.861-3.458c10.793-2.199 21.126-4.265 30.712-6.142l2.19-.428-1.028-1.98c-2.348-4.522-4.763-7.201-6.526-9.158-3.113-3.454-4.162-4.619-1.255-11.609l.683-1.644-1.683-.577c-11.045-3.789-22.078-8.641-32.792-14.424-1.868-1.008-2.104-2.858-1.738-4.137.107-.373.291-.754.539-1.11-12.488-1.885-26.45-3.772-41.113-5.384-4.318 4.294-8.743 10.178-10.539 17.376-1.891 7.572-.518 15.271 4.079 22.895-1.448 2.838-5.683 12.531-1.454 21.814 3.521 7.728 11.922 13.013 24.981 15.723-.83 4.22-2.615 16.468 1.003 30.677 7.358 28.896 31.175 42.409 49.859 48.658 16.276 5.443 26.872 14.619 31.493 27.273 3.807 10.427 3.107 21.973.769 32.306 3.624-4.415 8.222-7.932 13.632-9.87 1.768-.633 3.767-1.236 6.113-1.791 20.854-4.933 32.882-22.212 32.882-22.212-5.973-12.14-8.094-25.676-8.731-35.957z" fill="#b26847"/><path d="m168.408 260.013c-64.288-21.5-49.545-79.087-49.545-79.087-40.5-7.587-23.589-36.413-23.589-36.413-11.253-17.832-1.69-32.054 6.692-40.006-13.933-1.562-28.541-2.883-43.163-3.716-17.507 20.454-31.694 43.83-41.75 69.289.589-.02 1.182-.033 1.78-.033 16.836 0 30.534 8.083 30.534 18.019s-13.697 18.019-30.534 18.019c-4.456 0-8.689-.571-12.509-1.588-4.136 17.837-6.324 36.421-6.324 55.516 0 43.78 11.496 84.87 31.614 120.439 36.106-1.312 74.879-9.334 107.143-31.498 1.566-1.076 3.129-2.104 4.708-3.081 5.206-3.223 11.253-4.755 17.376-4.688 16.786.184 30.562-7.21 36.981-16.982 1.298-1.976 2.786-3.806 4.421-5.478 4.152-21.418.64-47.182-33.835-58.712z" fill="#945230"/><path d="m406.265 318.151c-14.492-29.972-48.569-3.09-75.51-35.576-6.53-7.874-16.479-12.001-26.64-10.814-12.575 1.469-31.014-.288-51.121-15.215-4.067-3.019-7.61-5.879-10.741-8.595.852 23.333 8.619 66.268 53.79 70.571 62.347 5.938 64.203 10.762 81.645 28.205 12.859 12.859 35.895 13.708 52.249 8.141-6.695-7.742-15.461-19.733-23.672-36.717z" fill="#945230"/><g fill="#deeeff"><path d="m219.096 45.237c-12.916-12.588-27.662-26.582-38.494-36.791-4.093-3.858-10.577.566-8.477 5.784 8.506 21.139 18.178 36.092 23.588 43.607 8.37-1.049 18.271-4.177 23.383-12.6z"/><path d="m174.786 90.73c4.144-4.686 9.234-12.233 9.391-21.147-12.529-5.737-25.227-11.438-35.241-15.901-5.138-2.29-9.796 4.027-6.091 8.259 12.015 13.723 23.426 23.457 31.396 29.52.176-.246.34-.5.545-.731z"/><path d="m177.898 108.759c-12.06-.857-23.945-1.629-33.554-2.23-5.614-.351-7.773 7.195-2.823 9.866 14.275 7.704 26.997 12.616 36.383 15.648 2.307-5.548 3.889-13.746-.006-23.284z"/><path d="m184.871 152.624c-11.94 2.327-23.698 4.693-33.188 6.627-5.512 1.123-5.631 8.971-.156 10.261 14.679 3.459 27.435 4.937 37.073 5.516 1.323-5.958 1.266-13.867-3.729-22.404z"/></g><path d="m450.748 330.748c-10.103-8.604-10.396-24.598-10.372-27.264.2-.425.307-.977.203-1.626-.738-4.627-12.45-11.768-34.811-21.227-35.094-14.844-53.103-36.331-55.833-39.775.179-1.599.387-5.744-1.37-10.766-2.018-5.768-7.123-13.854-19.991-19.624-5.96-2.673-9.689-6.536-11.081-11.483-1.949-6.928 1.004-14.575 3.228-18.968-2.722-.06-5.289-.284-7.606-.846-8.882-2.153-15.552-3.657-21.519-11.178-4.838-.098-9.882-.922-14.709-2.972-10.397-4.414-17.96-13.687-22.479-27.561-6.116-18.779-13.619-34.901-22.299-47.916-3.967-5.946-4.299-13.222-.888-19.464 3.33-6.094 9.428-9.704 16.368-9.716-6.563-8.43-13.105-14.701-18.267-19.013-4.264-3.561-10.592-2.248-13.411 2.539-5.766 9.794-17.945 12.548-26.926 13.164-4.905.337-8.479 4.666-8.186 9.573.581 9.714-4.927 17.985-9.354 22.99-2.7 3.053-3.011 7.522-.731 10.901 9.39 13.913 6.213 25.888 2.891 32.509-1.71 3.409-1.057 7.488 1.589 10.235 12.297 12.767 11.83 25.095 9.468 32.944-1.414 4.698 1.119 9.622 5.783 11.144 30.598 9.985 28.592 29.117 28.592 29.117s-3.897 15.03 32.844 42.307c20.106 14.928 38.546 16.684 51.121 15.215 10.16-1.187 20.109 2.94 26.639 10.814 26.941 32.486 61.018 5.604 75.51 35.576 10.383 21.474 21.666 34.995 28.507 41.995 3.517 3.599 9.259 3.862 13.03.53 9.509-8.4 15.528-17.427 18.775-26.6-5.888-.38-10.814-2.233-14.715-5.554z" fill="#c67859"/><path d="m438.885 303.041s-1.389 32.612 26.043 34.729c14.707-37.973-19.125-78.894-52.169-88.46-42.307-12.247-43.42-35.07-43.42-35.07-3.506-42.575-31.348-33.323-50.275-34.285-3.808 7.806-8.867 23.915 8.898 31.882 23.967 10.748 20.401 29.439 20.401 29.439s17.888 24.269 56.822 40.738c38.933 16.468 33.7 21.027 33.7 21.027z" fill="#dd9176"/><path d="m507.578 181.777c-5.788 6.407-17.099 15.814-35.256 18.587-11.186 1.708-22.239 6.318-32.371 12.771-2.158 7.243-2.822 19.492 16.111 21.735 5.115-5.609 11.265-10.531 18.553-13.598 24.262-10.209 35.236-21.16 37.363-37.479.32-2.471-2.729-3.866-4.4-2.016z" fill="#deeeff"/><ellipse cx="435.397" cy="298.482" fill="#945230" rx="8.721" ry="12.432"/><path d="m355.679 227.098c.626 11.956-7.385 22.095-17.894 22.646s-19.537-8.695-20.164-20.651 7.385-22.095 17.894-22.646 19.537 8.695 20.164 20.651z" fill="#945230"/><path d="m351.707 218.363c.436 8.316-5.953 15.411-14.269 15.847s-15.411-5.952-15.847-14.269c-.436-8.316 5.952-15.411 14.268-15.847 8.318-.435 15.412 5.953 15.848 14.269z" fill="#deeeff"/><path d="m351.929 222.584c.218 4.158-2.976 7.706-7.134 7.923-4.158.218-7.706-2.976-7.924-7.134s2.976-7.706 7.134-7.924 7.706 2.977 7.924 7.135z" fill="#876d93"/><ellipse cx="76.715" cy="147.935" fill="#c67859" rx="26.349" ry="15.892"/><ellipse cx="112.895" cy="183.066" fill="#c67859" rx="17.622" ry="10.628"/><path d="m18.832 207.084c17.416 0 31.534-8.515 31.534-19.019s-14.118-19.019-31.534-19.019c-.465 0-.926.009-1.385.021-4.687 11.713-8.494 23.873-11.343 36.398 3.894 1.039 8.197 1.619 12.728 1.619z" fill="#c67859"/><path d="m131.279 283.754c-20.083-18.381-50.843-15.3-67.376 6.605-17.407 23.063-36.621 55.273-35.604 84.027 22.65 42.825 57.608 78.135 100.18 101.196-1.954-4.24-4.419-8.226-6.677-11.478-2.631-3.788-4.277-8.183-4.887-12.791-.428-3.232-1.147-6.415-1.935-9.572l-1.634-6.546c-2.07-8.293-4.852-16.363-8.047-24.257-17.12-42.3 24.323-48.231 39.952-84.788 7.063-16.52-1.619-31.09-13.972-42.396z" fill="#b26847"/><path d="m293.051 169.689c-6.996-7.577-12.905-22.384-20.016-54.537-5.505-24.893-16.259-43.399-26.73-56.416-15.482.947-24.433 18.469-15.586 31.732 6.859 10.283 14.963 25.588 22.102 47.507 8.367 25.692 25.51 31.83 40.23 31.714z" fill="#dd9176"/><path d="m456.242 168.346c3.216-5.431 5.652-12.028 6.876-20.025-30.754-59.938-85.488-105.54-151.536-124.148-10.319 39.204-19.409 103.651 24.513 123.762 29.272 13.403 46.202 24.055 55.964 31.697 20.553 16.088 50.885 11.172 64.183-11.286z" fill="#6ae5bf"/><path d="m421.653 429.765c-21.841-26.882-60.302-67.154-99.624-74.549-60-11.283-100.667 12.964-84 69.63 12.437 42.285 51.595 50.051 67.627 72.596 44.913-11.438 84.864-35.286 115.997-67.677z" fill="#6ae5bf"/><path d="m443.161 115.916c-21.199-29.101-48.658-53.342-80.389-70.77-5.716 45.411-4.424 120.998 80.389 70.77z" fill="#7ff7cf"/><path d="m325.67 431.934c-10.26 11.179-5.601 33.251 9.819 55.814 23.722-9.434 45.621-22.464 65.024-38.423-29.921-23.486-61.953-31.435-74.843-17.391z" fill="#7ff7cf"/><path d="m221.454 475.554c-4.222-1.372-7.687-4.431-9.491-8.488-2.036-4.579-4.816-8.919-7.334-12.388-2.631-3.624-4.277-7.83-4.887-12.238-.428-3.092-1.147-6.138-1.935-9.159l-1.634-6.263c-2.07-7.935-4.852-15.656-8.047-23.209-1.105-2.612-1.962-5.077-2.601-7.417-17.646-4.906-44.114-6.593-60.283 19.05 1.195 2.446 2.443 4.867 3.758 7.253l10.352 18.797c3.25 4.847 4.163 10.803 2.88 16.497-1.901 8.439 1.807 14.908 5.083 18.736 2.166 2.531 3.086 5.866 2.544 9.127 20.442 8.622 42.3 14.541 65.126 17.33 9.736-.497 17.876-1.025 21.882-1.297 1.743-.118 3.402-.753 4.801-1.841l.08-.062c3.884-3.025 4.569-8.753 1.301-12.435-5.206-5.863-14.894-9.816-21.595-11.993z" fill="#945230"/><path d="m438.779 262.968c3.379-8.079 9.325-19.773 18.33-29.217-18.22-2.57-17.257-14.836-15.067-21.915-14.009 8.463-26.4 20.501-35.161 33.425-2.039 3.008-2.256 6.859-.563 10.074 2.398 4.554 7.094 10.765 15.827 14.392 6.472 2.688 13.93-.294 16.634-6.759z" fill="#d3dcfb"/></g></svg>