<svg id="Layer_1" enable-background="new 0 0 512 512" height="512" viewBox="0 0 512 512" width="512" xmlns="http://www.w3.org/2000/svg"><g><path d="m245.002 10.998c-123.865 0-226.243 91.924-242.68 211.271l155.833 262.875c26.996 10.237 56.263 15.858 86.847 15.858 135.311 0 245.002-109.691 245.002-245.002s-109.691-245.002-245.002-245.002z" fill="#49b1f7"/><path d="m455.637 66.236c-.784-2.823-4.236-3.861-6.417-1.906-10.402 9.325-45.433 45.151-59.446 114.624-8.498 42.131-21.646 76.612-40.194 105.415-19.204 29.821-43.628 52.691-74.667 69.919-13.244 7.351-25.899 15.496-37.862 23.876.578.148 1.153.297 1.739.44-.828 3.482-2.147 11.972 2.699 18.021 2.498 3.117 6.219 5.079 11.118 5.873 11.273-9.569 24.02-19.164 39.033-28.428 88.549-54.637 109.731-157.116 114.026-185.844 1.622-10.851 3.817-21.615 6.794-32.175 14.958-53.062 38.046-75.406 47.697-82.786-2.089-1.753-3.688-4.034-4.52-7.029z" fill="#f9a373"/><path d="m240.643 377.503c-.661-.154-1.29-.322-1.938-.482-20.568 14.293-39.137 29.341-55.178 42.352-14.206 11.523-26.474 21.473-35.444 26.924-6.573 3.995-12.042 9.731-15.813 16.59-1.359 2.471-2.849 5.277-4.402 8.348 9.714 5.298 19.833 9.945 30.287 13.909 35.313-18.04 56.635-50.934 95.995-83.952-20.516-2.333-13.507-23.689-13.507-23.689z" fill="#ef8e5e"/><path d="m503.046 75.724c-.016-.073-.033-.146-.051-.22-.066-.273-.009-.54.117-.763-4.454-4.043-10.995-5.343-17.805-5.343-6.729 0-10.448-3.047-12.045-4.825-1.295-1.441-2.783-2.713-4.511-3.589-9.893-5.018-14.56 5.653-14.56 5.653 1.124 4.048 4.485 9.964 14.448 12.178 13.113 2.914 17.648-1.364 24.931 3.254 4.601 2.917 10.642-1.024 9.476-6.345z" fill="#fcd2ae"/><path d="m511.461 65.372-.013-.027c-.732-1.556-2.159-2.653-3.841-3.005-2.921-.611-7.906-2.716-12.467-9.775-5.14-7.955-11.16-10.453-14.866-11.492-1.298-.364-2.514-2.503-5.261-3.008-6.124-1.125-6.979 4.219-16.207 2-83.118-19.989-110.851 175.18-172.166 219.255-32.105 23.078-56.862 23.498-97.982 8.352l.928 1.153c-1.411 2.689-5.561 11.106-8.541 22.399-3.307 12.532-5.679 31.041 1.805 48.041 8.416 19.12 27.232 32.35 55.939 39.338-.017.071-.035.156-.052.231 11.702-8.166 24.049-16.101 36.903-23.236 63-34.966 99-94.034 115.604-176.349 13.858-68.7 48.047-104.004 58.977-113.803 1.353-1.213 3.484-.561 3.971 1.19.055.2.121.407.188.615.953-1.858 5.613-9.71 14.372-5.267 1.728.876 3.216 2.148 4.511 3.589 1.597 1.778 5.315 4.825 12.045 4.825 6.769 0 13.273 1.285 17.726 5.271-.012-.054-.024-.109-.038-.164-.146-.603.249-1.204.865-1.274 2.142-.245 6.485-1.196 7.855-4.895.476-1.286.329-2.723-.255-3.964z" fill="#c67859"/><path d="m481.277 50.501c.215 4.113-2.541 7.601-6.156 7.791-3.616.189-6.721-2.991-6.937-7.104s2.541-7.601 6.156-7.791c3.616-.19 6.721 2.991 6.937 7.104z" fill="#45304c"/><path d="m479.75 47.504c.15 2.861-2.048 5.302-4.909 5.452s-5.302-2.048-5.452-4.909 2.048-5.302 4.909-5.452c2.861-.149 5.302 2.048 5.452 4.909z" fill="#deeeff"/><path d="m479.826 48.956c.075 1.431-1.024 2.651-2.454 2.726s-2.651-1.024-2.726-2.454c-.075-1.431 1.024-2.651 2.454-2.726 1.431-.075 2.651 1.024 2.726 2.454z" fill="#876d93"/><path d="m490.004 256c0-25.633-3.944-50.343-11.245-73.565-21.504 7.544-44.447 26.872-52.233 73.565-16 95.947-53 133.568-116 156.257-42.59 15.339-56.376 55.038-35.204 86.877 121.003-14.935 214.682-118.09 214.682-243.134z" fill="#73c3f9"/><path d="m29.164 140.025c7.037 55.927 100.264 34.048 171.187 73.215 83.826 46.292 104.174-78.293 130.174-123.79 13.459-23.552 7.624-46.688-1.136-63.529-26.309-9.652-54.732-14.923-84.387-14.923-93.349 0-174.485 52.216-215.838 129.027z" fill="#73c3f9"/><path d="m274.562 67.021c8.728-20.844-.376-40.789-11.412-55.348-5.993-.439-12.043-.675-18.148-.675-69.958 0-133.056 29.327-177.69 76.353 16.723 39.098 70.576 41.271 116.111 54.599 54.666 16 74-34 91.139-74.929z" fill="#9bd8f9"/><path d="m191.379 268.66-.01-.012c-10.298-3.683-21.607-8.371-34.356-13.979-45.48-20.482-104.873-29.379-154.695-32.407-1.52 11.03-2.318 22.29-2.318 33.738 0 92.638 51.744 174.321 129.188 215.943 1.551-3.065 3.038-5.867 4.395-8.333 3.618-6.579 8.862-12.131 15.279-16.031 19.118-11.618 51.721-42.379 91.782-70.075-97.704-22.768-49.265-108.844-49.265-108.844z" fill="#b26847"/></g></svg>