<svg id="Layer_1" enable-background="new 0 0 512 512" height="512" viewBox="0 0 512 512" width="512" xmlns="http://www.w3.org/2000/svg"><g><path d="m245.002 10.998c-123.865 0-226.243 91.924-242.68 211.271l155.833 262.875c26.996 10.237 56.263 15.858 86.847 15.858 135.311 0 245.002-109.691 245.002-245.002s-109.691-245.002-245.002-245.002z" fill="#1c2e7a"/><path d="m455.637 66.236c-.784-2.823-4.236-3.861-6.417-1.906-10.402 9.325-45.433 45.151-59.446 114.624-8.498 42.131-21.646 76.612-40.194 105.415-19.204 29.821-43.628 52.691-74.667 69.919-18.1 10.045-35.088 21.575-50.725 33.159.537.14 1.073.282 1.618.418-.785 3.421-1.978 11.688 2.994 17.405 3.065 3.526 7.867 5.38 14.328 5.559 13.524-12.292 29.134-24.802 48.513-36.759 88.549-54.637 109.731-157.117 114.026-185.844 1.622-10.851 3.817-21.615 6.794-32.175 14.958-53.062 38.046-75.406 47.697-82.786-2.09-1.753-3.689-4.034-4.521-7.029z" fill="#cbe87c"/><path d="m227.649 386.769c-.648-.154-1.264-.321-1.898-.481-15.462 11.383-29.622 22.864-42.224 33.085-14.206 11.523-26.474 21.473-35.444 26.924-6.573 3.995-12.042 9.732-15.814 16.59-1.359 2.471-2.849 5.277-4.402 8.348 9.714 5.298 19.833 9.945 30.287 13.909 32.404-16.554 53.025-45.615 86.615-75.802-24.528.382-17.12-22.573-17.12-22.573z" fill="#b4d667"/><path d="m503.046 75.724c-.016-.073-.033-.146-.051-.219-.066-.273-.009-.54.117-.764-4.454-4.042-10.995-5.343-17.805-5.343-6.729 0-10.448-3.047-12.045-4.825-1.295-1.441-2.783-2.713-4.511-3.589-9.893-5.018-14.56 5.653-14.56 5.653 1.124 4.048 4.485 9.964 14.448 12.178 13.113 2.914 17.648-1.364 24.931 3.254 4.601 2.917 10.642-1.024 9.476-6.345z" fill="#ffdd40"/><path d="m511.461 65.372-.013-.027c-.732-1.556-2.159-2.653-3.841-3.005-2.921-.611-7.906-2.716-12.467-9.775-5.14-7.955-11.16-10.453-14.866-11.492-1.298-.364-2.513-2.503-5.261-3.008-6.124-1.125-6.979 4.219-16.207 2-76.864-18.485-106.366 147.019-158.858 206.888-13.041 25.863-42.889 51.283-111.224 35.213-2.753-.647-5.488-1.263-8.21-1.856.318 1.243.838 2.495 1.567 3.754-1.393 2.478-5.635 10.474-8.807 21.232-6.333 21.482-3.195 36.592.552 45.482 7.549 17.914 25.034 30.386 51.979 37.085-.022.094-.044.205-.066.307 15.419-11.389 32.183-22.738 49.901-32.572 63-34.966 99-94.034 115.604-176.349 13.858-68.7 48.047-104.004 58.977-113.803 1.353-1.213 3.484-.561 3.97 1.19.055.199.121.407.188.615.953-1.858 5.613-9.71 14.372-5.267 1.728.876 3.216 2.148 4.511 3.589 1.597 1.778 5.315 4.825 12.045 4.825 6.769 0 13.273 1.285 17.726 5.271-.012-.054-.024-.109-.038-.164-.145-.603.249-1.204.865-1.274 2.142-.245 6.485-1.196 7.855-4.895.477-1.286.33-2.723-.254-3.964z" fill="#88ce65"/><path d="m183.826 284.041c-.754-1.166-1.28-2.284-1.632-3.358-79.486-17.61-145.821-12.669-181.583-7.312 6.012 85.4 56.013 159.572 128.578 198.571 1.55-3.065 3.038-5.867 4.395-8.333 3.618-6.579 8.862-12.131 15.279-16.031 17.005-10.334 44.686-35.813 78.787-60.81-92.24-21.921-43.824-102.727-43.824-102.727z" fill="#6faf46"/><path d="m481.277 50.501c.216 4.113-2.541 7.601-6.156 7.791-3.615.189-6.721-2.991-6.937-7.104s2.541-7.601 6.156-7.791c3.616-.19 6.721 2.991 6.937 7.104z" fill="#6faf46"/><path d="m479.75 47.504c.15 2.861-2.048 5.302-4.909 5.452s-5.302-2.048-5.452-4.909 2.048-5.302 4.909-5.452c2.861-.149 5.302 2.048 5.452 4.909z" fill="#ffc839"/><path d="m479.826 48.956c.075 1.431-1.024 2.651-2.454 2.726-1.431.075-2.651-1.024-2.726-2.454-.075-1.431 1.024-2.651 2.454-2.726s2.651 1.024 2.726 2.454z" fill="#543e5b"/><path d="m490.004 256c0-25.633-3.944-50.343-11.245-73.565-21.504 7.544-44.447 26.872-52.233 73.565-16 95.947-53 133.568-116 156.258-42.59 15.339-56.376 55.038-35.204 86.877 121.003-14.936 214.682-118.091 214.682-243.135z" fill="#2a428c"/><path d="m29.164 140.025c7.037 55.927 100.264 34.048 171.187 73.215 83.826 46.293 104.174-78.292 130.174-123.79 13.459-23.552 7.624-46.688-1.136-63.529-26.309-9.652-54.732-14.923-84.387-14.923-93.349 0-174.485 52.216-215.838 129.027z" fill="#2a428c"/><path d="m274.562 67.021c8.728-20.844-.376-40.789-11.412-55.348-5.993-.439-12.043-.675-18.148-.675-69.958 0-133.056 29.327-177.69 76.353 16.723 39.098 70.576 41.271 116.111 54.598 54.666 16.001 74-33.999 91.139-74.928z" fill="#3e60a3"/><path d="m286.64 259.32c-32.75 23.542-57.87 23.492-100.495 7.407-2.302 1.872-4.46 4.304-5.442 7.294-1.018 3.103-.625 6.32 1.137 9.582 2.285.505 4.578 1.022 6.885 1.564 74.062 17.417 102.919-13.901 114.163-41.698-5.176 6.385-10.567 11.768-16.248 15.851z" fill="#6faf46"/><path d="m183.826 284.041c-4.917-7.609-.59-13.263 3.963-16.694-9.329-3.466-19.491-7.714-30.775-12.679-45.481-20.481-104.874-29.378-154.696-32.406-1.52 11.03-2.318 22.29-2.318 33.738 0 6.843.289 13.625.844 20.337 36.06-5.38 102.942-10.286 182.975 7.715.001-.001.007-.011.007-.011z" fill="#5ea033"/></g></svg>