<svg id="Layer_1" enable-background="new 0 0 512 512" height="512" viewBox="0 0 512 512" width="512" xmlns="http://www.w3.org/2000/svg"><g><path d="m245.002 10.998c-100.82 0-187.402 60.905-224.999 147.922l45.282 263.573c44.748 48.279 108.698 78.509 179.717 78.509 135.311 0 245.002-109.691 245.002-245.002s-109.691-245.002-245.002-245.002z" fill="#49b1f7"/><path d="m340.739 30.414c-29.411-12.497-61.765-19.416-95.737-19.416-74.522 0-141.259 33.281-186.19 85.782 35.636 20.58 96.837 7.776 162.301 15.928 60.729 7.562 100.304-46.395 119.626-82.294z" fill="#73c3f9"/><path d="m293.116 253.251c-.784 3.656-1.863 12.006 2.82 17.883 3.465 4.348 9.289 6.355 17.29 5.992 7.817-10.335 15.247-20.893 22.366-31.415 24.828-36.699 46.991-55.482 64.043-65.012-8.169-1.429-13.494-4.658-16.876-7.787-5.952-5.505-14.955-6.089-21.407-1.391-17.078 12.44-30.901 31.074-45.535 50.802-7.646 10.308-15.412 20.769-23.918 30.805.406.041.805.089 1.217.123z" fill="#fee884"/><path d="m254.939 339.53c22.377-18.263 41.893-40.585 59.459-63.973-27.353 2.047-19.391-23.678-19.391-23.678-.661-.037-1.305-.085-1.941-.139-10.945 13.066-23.087 25.462-37.812 35.91l-.861.611c.046.762 5.689 18.679.546 51.269z" fill="#ffdd40"/><path d="m195.035 330.737c-4.089-9.212-4.519-15.618-4.806-16.926-.969-.037-43.869 9.219-101.724-9.428-4.059-1.311-8.304-.31-11.355 2.673-3.026 2.956-4.155 7.314-2.949 11.373 3.994 13.436 9.023 34.211 10.29 56.886.047.84.049 1.686.025 2.534 47.854 11.625 87.99 6.664 122.343-8.416-.337-8.75-4.308-21.75-11.824-38.696z" fill="#ffdd40"/><path d="m511.94 163.088c-1.263-22.616-31.977-34.09-57.051-48.517-25.075-14.427-81.111-40.05-135.982 21.313 0 0-3.447 6.231-10.795 13.562 6.447 1.593 11.248 7.411 11.248 14.344 0 8.155-6.635 14.79-14.789 14.79-8.155 0-14.79-6.635-14.79-14.79 0-.221.023-.437.033-.655-11.971 6.504-27.868 11.059-48.112 9.03-.542 4.536-.359 10.121 2.375 14.843 2.725 4.705 7.464 7.683 14.094 8.857l3.814 6.567c-1.162 3.85-6.252 23.082 3.175 36.972 5.514 8.122 14.914 12.776 27.958 13.848-.072.336-.146.723-.218 1.133 25.327-29.798 43.681-62.863 69.386-81.587 5.934-4.322 14.013-3.712 19.403 1.273 6.189 5.725 18.009 11.4 39.847 7.889 5.183-.833 10.489-.287 15.347 1.704 11.11 4.554 32.688 11.568 49.515 5.903l-26.427-16.535c-.408-.256-.387-.625-.339-.823.041-.166.193-.556.715-.595 4.279-.351 11.604.725 22.008 7.587 4.305 2.839 8.445 4.995 12.293 6.637.398-.115.803-.21 1.217-.265 4.587-.614 17.108-3.985 16.075-22.485z" fill="#88ce65"/><path d="m295.007 251.878c-47.105-2.622-31.395-49.628-31.395-49.628l-4.5-7.75c-15.447-2.389-16.891-14.045-15.907-22.197-6.263-.533-12.947-1.693-20.071-3.634-5.426-1.478-11.4-3.065-17.818-4.677.016.294.045.584.045.882 0 8.753-7.121 15.874-15.874 15.874s-15.874-7.121-15.874-15.874c0-2.775.72-5.383 1.976-7.655-11.672-2.363-24.126-4.505-37.018-6.126.142 1.087.222 2.193.222 3.319 0 14.11-11.479 25.59-25.59 25.59-14.11 0-25.591-11.479-25.591-25.59 0-2.184.276-4.304.794-6.328-23.348.333-46.738 3.411-68.403 10.837-12.862 29.769-20.003 62.588-20.003 97.079 0 64.291 24.776 122.787 65.285 166.493 11.681-16.498 21.612-32.454 20.784-47.268-1.256-22.486-6.148-43.107-10.353-57.249-2.236-7.52 4.837-14.498 12.304-12.091 28.553 9.205 85.12 21.605 139.042-.792 29.331-12.182 50.285-32.003 67.945-53.215z" fill="#6faf46"/><path d="m373.031 402.95c-1.732-.301-3.607-.398-5.643-.224-19.398 1.658-30.193 12.529-45.286 6.358 0 0-23.106-27.296-49.727-37.179-2.876-1.068-5.455-2.614-7.683-4.513-9.174 2.444-19.928 7.289-25.334 16.903-4.204 7.475-4.48 16.682-.881 27.471 12.108 9.617 35.857 23.873 70.324 23.956 4.269.01 8.426 1.213 12.095 3.396 5.008 2.979 13.636 5.909 24.046.352 10.72-5.723 20.069-13.681 29.889-16.739-8.786-6.786-5.74-14.567-1.8-19.781z" fill="#b4d667"/><path d="m483.221 177.882c-10.67-7.038-18.315-8.199-22.998-7.845-2.275.172-3.028 3.124-1.094 4.335l25.265 15.807c2.932-.801 5.746-1.948 8.36-3.53.948-.574 2.008-.93 3.106-1.077.472-.063 1.031-.158 1.647-.293-4.386-1.689-9.224-4.058-14.286-7.397z" fill="#6faf46"/><path d="m492.04 154.139c1.961 3.318 1.645 7.136-.708 8.526-2.352 1.39-5.849-.173-7.81-3.492s-1.645-7.136.707-8.526c2.353-1.39 5.85.173 7.811 3.492z" fill="#6faf46"/><path d="m438.725 130.487c.484 9.243-5.709 17.08-13.833 17.506s-15.103-6.721-15.587-15.964 5.709-17.08 13.833-17.506 15.102 6.722 15.587 15.964z" fill="#6faf46"/><path d="m435.294 123.754c.337 6.429-4.601 11.913-11.03 12.25s-11.914-4.601-12.25-11.03c-.337-6.429 4.601-11.913 11.03-12.25 6.428-.337 11.913 4.601 12.25 11.03z" fill="#fcf2c8"/><path d="m435.465 127.017c.168 3.214-2.301 5.957-5.515 6.125s-5.957-2.301-6.125-5.515 2.301-5.957 5.515-6.125c3.214-.169 5.956 2.3 6.125 5.515z" fill="#543e5b"/><g fill="#5ea033"><circle cx="65.612" cy="200.58" r="20.5"/><circle cx="141.563" cy="205.63" r="15.45"/><circle cx="197.485" cy="215.005" r="9.375"/><circle cx="262.087" cy="197.905" r="7.725"/><path d="m189.486 182.248c9.595 0 17.374-7.779 17.374-17.374 0-.169-.02-.332-.025-.499-9.922-2.513-20.964-5.104-32.779-7.463-1.234 2.387-1.943 5.089-1.943 7.961-.001 9.596 7.778 17.375 17.373 17.375z"/><path d="m86.856 148.115c-.482 2.021-.744 4.128-.744 6.297 0 14.962 12.129 27.09 27.09 27.09 14.962 0 27.091-12.129 27.091-27.09 0-1.058-.067-2.099-.185-3.125-17.208-2.224-35.229-3.524-53.252-3.172z"/></g><path d="m304.57 180.08c8.997 0 16.29-7.293 16.29-16.29 0-7.341-4.857-13.544-11.532-15.58-4.957 5.16-11.913 11.035-21.04 15.733.083 8.926 7.337 16.137 16.282 16.137z" fill="#6faf46"/><path d="m336.112 121.983c0 5.123 4.153 9.275 9.275 9.275s9.275-4.153 9.275-9.275-4.153-9.275-9.275-9.275c-.062 0-.122.008-.184.009-2.853 1.889-5.716 3.97-8.585 6.265-.322.942-.506 1.949-.506 3.001z" fill="#6faf46"/><path d="m387.66 413.562c-3.136-5.004-8.311-10.177-16.449-10.847-4.115 5.33-7.441 13.484 2.246 20.478 3.198-1.144 6.436-1.804 9.78-1.723 4.06.1 6.58-4.466 4.423-7.908z" fill="#fee884"/><path d="m245.002 501.002c18.641 0 36.791-2.093 54.239-6.036-13.517-31.999-62.418-43.362-111.131-63.466-45.501-18.778-77.259 3.475-92.65 18.543 41.375 31.94 93.23 50.959 149.542 50.959z" fill="#73c3f9"/><path d="m374.831 251.878c-43.052 61.622-65.677 113.622 2.969 122.955 36.007 4.896 52.204 19.878 59.472 33.02 33.017-41.747 52.732-94.496 52.732-151.853 0-9.338-.541-18.549-1.558-27.615-33.81-9.659-85.975-16.068-113.615 23.493z" fill="#73c3f9"/><path d="m117.135 46.996c43.261 17.038 138.155 44.2 161.284-33.719-10.928-1.491-22.079-2.279-33.417-2.279-46.865 0-90.647 13.17-127.867 35.998z" fill="#9bd8f9"/><path d="m489.771 266.773c-14.831-5.847-64.11-21.499-81.079 20.666-18.2 45.225 7.947 68.445 51.372 85.986 17.463-31.909 28.039-68.123 29.707-106.652z" fill="#9bd8f9"/><path d="m145.711 480.021c25.05 11.128 52.314 18.168 80.95 20.29-23.57-40.103-59.046-31.318-80.95-20.29z" fill="#9bd8f9"/><path d="m266.202 368.585c-7.841-5.723-11.983-15.602-10.242-25.56 4.213-24.108 6.016-59.7-13.098-81.767-12.616-14.565-25.366-10.26-36.058-.013-18.855 18.069-23.803 46.261-13.214 70.134 6.104 13.761 11.909 29.607 11.71 39.756-.351 17.925 4.589 30.468 16.576 32.2 5.351.773 10.317 3.193 14.452 6.675 1.271 1.07 2.719 2.227 4.323 3.432-11.293-30.104 9.945-40.961 25.551-44.857z" fill="#88ce65"/></g></svg>