<svg id="Layer_1" enable-background="new 0 0 512 512" height="512" viewBox="0 0 512 512" width="512" xmlns="http://www.w3.org/2000/svg"><g><path d="m245.002 10.998c-115.68 0-212.621 80.178-238.318 187.991l77.368 241.723c43.05 37.544 99.342 60.29 160.951 60.29 135.311 0 245.002-109.691 245.002-245.002-.001-135.311-109.692-245.002-245.003-245.002z" fill="#49b1f7"/><path d="m352.889 197.504-1.938.514c-38.149 10.124-88.508 47.714-96.262 81.005-7.124 30.59-31.492 44.769-45.383 50.498-5.359 2.211-10.282 5.137-14.63 8.693-38.789 31.75-106.351 31.75-146.718 31.75-7.375 0-13.499.894-18.452 2.695 14.02 25.843 32.557 48.876 54.546 68.052 98.387-4.938 157.402-80.506 199.121-144.655 35.189-54.107 68.664-71.325 87.796-76.752-4.221-2.108-8.229-4.828-11.751-8.101-6.365-5.914-6.047-12.676-6.329-13.699z" fill="#fee884"/><path d="m221.741 323.216c-4.526 2.76-8.834 4.819-12.435 6.305-5.359 2.211-10.282 5.137-14.63 8.693-38.789 31.75-106.351 31.75-146.718 31.75-7.375 0-13.499.894-18.452 2.695 14.02 25.843 32.557 48.876 54.546 68.052 74.604-3.744 126.566-48.101 165.519-97.293-20.689 1.991-26.461-14.492-27.83-20.202z" fill="#ffdd40"/><g fill="#ff9433"><path d="m251.053 294.383c-2.386-26.596-19.417-51.548-50.663-69.356-21.026-11.983-28.553-27.74-30.908-40.215-13.691-2.474-32.064-2.288-48.201 9.765-1.227.916-2.574 1.601-3.978 2.101 8.726 13.211 21.915 19.221 31.393 21.924 7.131 2.034 13.395 6.283 17.912 12.164 6.866 8.938 20.115 22.057 43.338 31.524 25.066 10.219 28.712 34.457 28.195 50.173 4.864-4.938 9.379-10.908 12.912-18.08z"/><path d="m295.981 164.189c-15.357-11.369-17.679-27.49-16.24-40.619-1.281 1.37-2.454 2.9-3.448 4.657-2.363 4.174-6.38 7.174-11.119 7.907-4.146.641-9.341 1.958-14.376 4.635 2.621 9.972 9.045 21.443 24.224 27.784 24.843 10.377 36.944 27.541 40.644 46.762 4.071-2.398 8.176-4.619 12.257-6.614-2.576-13.721-10.207-28.422-31.942-44.512z"/><path d="m63.095 322.839c6.21-25.035 29.499-46.383-11.644-74.668-21.078-14.49-30.589-32.982-34.863-47.582-2.972-.661-6.308-1.234-9.904-1.6-2.82 11.833-4.782 23.998-5.816 36.427 20.566 40.499 14.881 72.874 33.504 91.498 11.639 11.639 15.056 29.225 15.363 44.795 9.799-.004 20.891-.06 32.641-.536-10.6-13.576-22.984-33.404-19.281-48.334z"/><path d="m271.799 216.5c-2.499-6.039-8.615-13.201-22.704-18.996-15.006-6.172-23.9-17.741-29.07-27.926-7.74 1.105-17.448 4.116-24.217 11.828 9.561 18.043 24.976 27.925 47.535 30.824 11.452 1.471 18.522 4.968 22.843 8.398 2.923 2.321 7.04-.679 5.613-4.128z"/><path d="m327.628 138.556c1.633-9.988 5.785-27.677 15.776-41.19-7.871-.429-17.489 1.48-25.115 10.551-2.025 2.408-4.697 4.11-7.654 4.972-.291 7.435 2.164 16.659 10.612 27.293 1.952 2.456 5.875 1.472 6.381-1.626z"/><path d="m118.227 312.568c1.106 3.352 5.936 3.245 6.858-.162 7.366-27.205 39.19-45.855 4.965-72.804-24.381-19.197-35.741-36.888-41.764-48.232-11.904-2.301-26.211-2.895-39.477 2.268 6.551 19.05 24.732 37.135 45.144 45.964 25.617 11.081 35.515 18.224 25.812 43.065-4.97 12.721-3.832 22.949-1.538 29.901z"/></g><path d="m215.602 263.041c-2.26 2.167-5.096 5.351-7.38 9.414-4.156 7.393-7.145 19.115 2.201 32.988l9.499 16.377c.099.614.369 2.048.95 3.917 6.112-3.553 12.883-8.451 18.978-15.069.117-15.063-3.745-36.517-24.248-47.627z" fill="#ffc839"/><path d="m61.4 322.418c-3.797 15.306 8.156 35.035 18.789 48.838 39.053-1.42 85.803-7.306 115.593-31.689 4.283-3.506 9.074-6.32 14.191-8.431 3.416-1.409 7.674-3.426 12.237-6.187-.655-2.174-.848-3.634-.848-3.634l-9.667-16.667c-13.277-19.66-1.13-34.822 5.283-40.841-1.96-1.148-4.078-2.199-6.372-3.135-22.651-9.235-35.675-21.939-42.613-30.971-4.768-6.209-11.275-10.628-18.818-12.779-8.571-2.445-21.54-8.119-30.193-20.962-3.798 1.896-8.257 2.153-12.309.631-5.153-1.935-12.366-4.218-20.573-5.619 5.928 11.431 17.31 29.876 42.869 50.001 22.973 18.091 15.102 31.448 5.138 48.361-4.171 7.079-8.483 14.397-10.708 22.616-.323 1.195-1.387 1.316-1.706 1.325-.679-.016-1.492-.302-1.807-1.254-2.029-6.149-3.415-16.122 1.506-28.719 10.16-26.012-.903-34.125-26.746-45.304-21.095-9.124-38.067-26.945-44.206-44.956-4.59 1.617-9.076 3.883-13.311 6.988-3.956 2.9-9.001 3.823-13.688 2.373-2.445-.756-5.401-1.547-8.746-2.214 4.247 15.024 13.902 34.391 35.766 49.422 31.076 21.365 24.379 37.748 16.624 56.718-2.119 5.185-4.31 10.547-5.685 16.089z" fill="#ffb332"/><path d="m30.36 374.195c4.663-1.649 10.479-2.484 17.598-2.484 1.153 0 2.333-.001 3.524-.002-.401-20.148-5.855-36.01-15.875-46.029-9.48-9.48-12.42-22.661-16.141-39.348-3.544-15.892-7.622-34.097-18.305-54.223-.76 7.862-1.161 15.829-1.161 23.891 0 42.862 11.019 83.146 30.36 118.195z" fill="#ffb332"/><path d="m287.19 200.798c.546-.287 1.181-.232 1.661.28 4.612 4.911 9.847 12.676 12.064 23.869 5.298-3.811 10.796-7.362 16.346-10.559-3.466-17.236-14.166-36.001-41.567-47.446-14.489-6.053-20.783-16.862-23.317-26.963-6.986 3.317-13.905 9.091-17.561 19.139-2.038 5.601-7.022 9.569-12.946 10.225-1.154.128-2.369.302-3.62.521 5.236 10.45 14.449 22.788 30.18 29.257 11.425 4.699 18.743 10.771 21.754 18.048.498 1.205-.312 1.939-.572 2.136-.567.429-1.482.639-2.341-.043-5.699-4.526-13.675-7.473-23.706-8.762-5.995-.77-11.442-2.057-16.407-3.848-4.989 3.21-10.69 8.244-12.997 15.394-1.465 4.54-1.361 9.357.281 14.397 21.64 16.678 33.878 38.052 35.051 60.928 2.926-5.261 5.327-11.212 6.897-17.95 3.625-15.564 17.045-32.183 34.07-46.378-.51-8.578-1.614-19.745-3.989-30.706-.208-.968.497-1.423.719-1.539z" fill="#ffc839"/><path d="m199.525 226.544c6.284 3.582 12.009 7.493 17.17 11.678-6.656-16.049 4.247-26.043 12.299-30.937-14.446-4.724-24.852-13.619-31.916-27.245-.615.618-1.218 1.258-1.79 1.946-4.01 4.82-10.418 6.848-16.429 5.061-3.225-.959-7.021-1.884-11.197-2.543 2.282 12.822 9.854 29.497 31.863 42.04z" fill="#ffb332"/><path d="m290.125 199.882c-2.182-2.324-6.035-.293-5.36 2.823 2.486 11.477 3.569 23.107 4.036 31.734 4.337-3.708 8.928-7.259 13.667-10.598-2.4-11.265-7.76-19.078-12.343-23.959z" fill="#ff9433"/><path d="m363.339 98.045c-3.422 1.517-7.23 1.852-10.835.847-2.971-.828-6.904-1.594-11.236-1.581-9.507 13.379-13.628 30.348-15.363 40.963-.18 1.097-1.072 1.411-1.342 1.482-.275.069-1.235.237-1.948-.661-8.413-10.589-10.678-19.648-10.24-26.828-1.79.76-3.717 1.209-5.71 1.262-8.346.223-21.558 2.307-28.859 12.362-.862 12.784 2 28.497 17.136 39.702 21.706 16.068 29.001 30.491 31.378 43.915 9.458-4.748 18.823-8.362 27.346-10.39-.606-6.461 1.843-12.966 6.465-17.373.117-4.754-.518-10.31-2.822-16.104 0 0-9.595-27.09 13.402-37.396 4.679-2.097 8.367-5.875 10.401-10.582 2.049-4.742 5.425-10.756 10.707-15.73-6.07-4.933-15.848-9.488-28.48-3.888z" fill="#ffc839"/><path d="m430.485 166.351c-16.993-3.821-31.197-2.576-38.486 3.718-3.705 3.198-5.203 7.437-4.335 12.261l.131.727.931.616c9.055 6.24 22.124 11.446 35.128 16.43-14.143-18.177-3.501-28.519 6.631-33.752z" fill="#ff7186"/><path d="m442.902 171.699c12.955-9.759 15.196-27.347 6.105-48.438-3.028-7.025-1.148-13.685 1.897-18.935-8.48-5.271-18.105-9.756-30.051-11.462-25.684-3.668-37.371 13.918-42.072 24.799-2.033 4.707-5.722 8.485-10.401 10.582-22.996 10.305-13.402 37.396-13.402 37.396 2.71 6.817 3.123 13.316 2.702 18.551 3.849-3.732 9.226-6.001 15.629-5.508 5.306.409 10.914 2.093 16.408 5.88.15.103.31.203.462.306-6.221-16.524 16.984-25.164 51.355-13.6.46.154.912.285 1.368.429z" fill="#ffdd40"/><path d="m511.959 153.562c-.78-7.299-3.535-12.955-6.288-16.94-2.802-4.055-7.202-6.729-12.064-7.537-8.522-1.416-15.96-5.95-23.611-11.375-3.888 2.006-7.38 4.567-8.751 7.688-1.012 2.303-.834 4.676.531 7.055 6.284 10.953 5.951 13.965 5.446 18.524-.33 2.988-.741 6.707.533 13.43.89 4.692 2.237 8.193 4.022 10.482 18.18-1.757 31.465-10.221 37.224-14.589 2.088-1.584 3.236-4.133 2.958-6.738z" fill="#ffdd40"/><path d="m358.027 212.483c-14.395-13.376-4.31-37.637 15.282-36.128 5.306.409 10.914 2.093 16.408 5.88 19.269 13.28 56.705 21.669 76.058 34.958 4.508 3.095 10.086 4.209 15.471 3.258 5.608-.99 10.458 4.173 8.945 9.663-1.422 5.162-4.247 10.615-9.843 12.962-12.032 5.046-25.035 8.345-33.38 0s-28.334-20.96-50.847-17.466c-12.837 1.992-27.695-3.464-38.094-13.127z" fill="#fcf2c8"/><path d="m492.696 145.599c-1.22 3.18-5.603 4.457-9.788 2.851-4.186-1.606-6.59-5.486-5.369-8.667 1.22-3.181 5.603-4.457 9.788-2.851 4.186 1.607 6.59 5.487 5.369 8.667z" fill="#ff9433"/><path d="m436.417 80.884c-12.408 5.745-18.783-1.709-21.426-6.481-3.632 4.593-6.679 10.674-8.56 18.719 0 0 13.046 14.279 30.625 4.099 0 .001-1.896-7.708-.639-16.337z" fill="#ff9433"/><path d="m462.785 131.873c-3.316-5.78 2.003-10.301 8.279-13.409-6.655-4.652-13.431-10.059-21.179-14.762-3.198 5.492-5.181 12.515-1.946 20.02 7.278 16.884 9.024 36.582-6.404 47.547 11.656 3.921 22.329 4.567 31.659 3.473-1.656-1.807-3.243-5.006-4.295-10.554-3.203-16.883 4.463-13.878-6.114-32.315z" fill="#ffb332"/><path d="m214.656 355.061c1.217-5.15 3.269-10.824 6.379-17.084 8.067-16.24 3.972-28.103-3.77-36.474-13.563-14.665-37.613-10.14-45.43 8.243-4.089 9.617-7.435 21.217-7.435 33.425 0 10.372 3.444 21.201 8.713 31.414 7.696-21.43 29.376-21.414 41.543-19.524z" fill="#ff9433"/><path d="m443.539 132.928c.545 10.401-6.424 19.221-15.567 19.7-9.142.479-16.996-7.564-17.541-17.965s6.424-19.221 15.567-19.701c9.143-.478 16.996 7.565 17.541 17.966z" fill="#ff9433"/><path d="m439.678 125.351c.379 7.234-5.178 13.407-12.413 13.786-7.234.379-13.407-5.178-13.786-12.413s5.178-13.407 12.413-13.786 13.407 5.178 13.786 12.413z" fill="#fcf2c8"/><ellipse cx="433.321" cy="129.366" fill="#543e5b" rx="6.559" ry="6.559" transform="matrix(.819 -.574 .574 .819 4.263 272.235)"/><path d="m245.002 10.998c-89.588 0-167.926 48.095-210.648 119.865 172.062 59.889 178.645-47.973 250.333-59.511 35.19-5.664 53.792-21.959 63.631-37.549-31.397-14.624-66.398-22.805-103.316-22.805z" fill="#73c3f9"/><path d="m76.184 78.476c86.781 56.824 127.436-20.361 143.054-66.133-55.211 5.771-104.958 29.883-143.054 66.133z" fill="#9bd8f9"/><path d="m482.706 315.529c-43.917-79.517-133.06-48.926-161.01 3.579-27.953 52.51-5.333 141.206-85.315 141.206-43.633 0-72.128 10.714-89.018 20.452 29.915 13.016 62.933 20.236 97.639 20.236 114.778 0 211.107-78.932 237.704-185.473z" fill="#73c3f9"/><path d="m456.399 379.875c-7.927-35.657-26.895-60.767-49.037-60.767-29.271 0-53 43.876-53 98 0 19.804 3.18 38.232 8.643 53.644 38.719-21.324 71.046-52.815 93.394-90.877z" fill="#9bd8f9"/><path d="m214.857 354.258c-11.786-2.044-34.404-2.812-42.539 18.776 10.549 21.339 29.367 40.243 42.153 47.036 18.631 9.898 27.073-9.024 18.631-17.466-7.194-7.196-25.375-19.89-18.245-48.346z" fill="#ffb332"/><path d="m437.957 61.162c-7.245 1.219-16.374 4.664-23.282 13.653 2.423 4.691 8.768 12.989 21.605 7.127.569-4.831 2.078-10.045 5.444-14.415 2.215-2.875-.187-6.967-3.767-6.365z" fill="#ffb332"/></g></svg>