<svg id="Layer_1" enable-background="new 0 0 512 512" height="512" viewBox="0 0 512 512" width="512" xmlns="http://www.w3.org/2000/svg"><g><path d="m245.002 10.998c-89.766 0-168.241 48.285-210.91 120.29l20.552 278.939c44.919 55.374 113.499 90.775 190.358 90.775 135.311 0 245.002-109.691 245.002-245.002 0-135.311-109.691-245.002-245.002-245.002z" fill="#52ceaa"/><path d="m328.546 242.795c-9.727-4.902-16.977-14.215-18.556-25.695-.248-1.804-.342-3.571-.322-5.303-58.77-37.992-134.874-45.763-207.673-40.386 1.185.787 2.416 1.558 3.718 2.306-2.81 3.337-9.01 11.972-7.633 21.859 1.042 7.488 6.19 13.967 15.308 19.268v27.253c-3.567 2.04-17.495 10.783-18.826 23.629-.807 7.787 3.184 15.461 11.863 22.823l-1.896 8.625c-2.297 2.041-13.292 12.541-12.427 25.775.559 8.53 5.93 16.272 15.973 23.034-.712.749-1.67 1.809-2.745 3.107 18.288-3.481 37.126-8.08 56.22-14.089 28.113-8.848 57.264-13.694 86.581-14.254 25.465-22.369 48.282-42.361 79.312-51.285-10.837-6.932-8.394-21.671 1.103-26.667z" fill="#2a428c"/><path d="m110.436 345.734c-35.118-22.248-4.549-47.753-4.549-47.753l2.197-10c-30.802-25.333 6.803-45 6.803-45v-29.009c-30.333-17.009-6.803-40.65-6.803-40.65-1.269-.687-2.465-1.386-3.606-2.093-32.508 2.264-64.406 7.183-93.86 13.244-6.896 22.63-10.618 46.642-10.618 71.527 0 36.525 8.005 71.176 22.337 102.314 26.025-.93 54.946-3.746 85.354-9.681 1.627-1.851 2.745-2.899 2.745-2.899z" fill="#1c2e7a"/><path d="m321.656 186.682c-24.411-21.973-99.532-79.825-203.079-68.246-9.679 1.082-19.185 2.286-28.494 3.585-.024.042-.048.081-.071.124-4.819 8.689-6.712 17.381-5.473 25.14 1.65 10.331 8.655 19.141 20.817 26.219 71.766-4.923 146.45 3.135 204.356 40.469-.567-11.264 4.282-21.031 11.944-27.291z" fill="#86abe2"/><path d="m91.956 121.762c-20.326 2.799-39.72 6.058-57.865 9.526-10.259 17.313-18.447 35.994-24.223 55.709 30.742-6.366 64.18-11.499 98.217-13.675-30.355-16.438-23.471-38.989-16.129-51.56z" fill="#6389c6"/><path d="m100.74 355.359c-5.503 8.596-7.824 17.192-6.714 24.859 1.185 8.18 6.142 15.369 14.742 21.464 2.162-.568 4.335-1.157 6.529-1.787 65.345-18.748 102.37-52.423 135.504-81.494-30.303.283-60.461 5.142-89.51 14.285-18.134 5.707-36.041 10.145-53.462 13.559-1.675 1.786-4.432 4.964-7.089 9.114z" fill="#3e60a3"/><path d="m110.665 401.182c-34.54-23.306-.229-55.448-.229-55.448-31.817 6.407-62.06 9.365-89.142 10.296 8.76 19.561 20.014 37.757 33.351 54.198 17.226-.848 35.926-3.628 56.02-9.046z" fill="#2a428c"/><path d="m206.206 435.626c19.807-19.807 28.597-39.295 21.668-90.842-3.55-26.411 9.839-35.465 35.29-30.029-3.012-14.726-3.103-24.934-2.169-31.849 1.191-8.809-3.056-17.454-10.797-21.825-5.475-3.092-12.013-3.64-17.938-1.537-16.059 5.7-44.644 22.31-39.573 67.655 5.678 50.771-16.037 103.315-42.204 143.544-8.918 13.711 4.407 30.909 19.948 25.811 8.783-2.881 18.464-8.074 28.363-16.963 1.751-1.572 3.569-3.165 5.435-4.781-16.245-7.307-10.73-26.476 1.977-39.184z" fill="#6389c6"/><path d="m494.72 268.608c-16.733-3.447-102.526-20.982-130.332-23.995l-11.601-1.257c-2.709.445-5.331.775-7.781.999-5.688.521-11.227-.354-16.237-2.353-11.54 3.505-15.392 20.218-3.626 27.728.188.12.379.239.573.358 19.403 11.862 49.147-3.261 70.753-.92 20.649 2.238 73.485 3.566 97.322 5.76 1.737.16 3.275-1.108 3.463-2.842.177-1.64-.918-3.146-2.534-3.478z" fill="#3e60a3"/><path d="m400.888 220.44-5.375-3.375c-8.302-4.755-7.534-10.599-5.624-14.488-1.347-.557-2.553-1.118-3.581-1.682-15.552-8.533-23.539-18.849-42.772-21.069-20.504-2.367-38.948 15.085-35.86 37.532 2.505 18.214 19.279 30.987 37.589 29.31 7.252-.664 15.938-2.154 24.276-5.318 9.288-3.525 19.081-5.538 29.014-5.713l7.347-.129c-12.309-5.064-5.014-15.068-5.014-15.068z" fill="#6389c6"/><path d="m511.896 227.649c-.445-2.191-2.372-3.776-4.593-4.025-18.961-2.131-96.388-11.322-119.043-21.754-2.15 3.858-3.57 10.142 5.253 15.195l5.375 3.375s-7.326 10.049 5.098 15.102l103.044-1.811c3.134-.055 5.504-2.934 4.866-6.082z" fill="#86abe2"/><path d="m402.005 219.874c-.42 2.164-3.902 3.309-7.778 2.557-3.875-.752-6.676-3.117-6.256-5.281s3.902-3.309 7.778-2.557c3.875.752 6.676 3.117 6.256 5.281z" fill="#1c2e7a"/><ellipse cx="208.145" cy="227.147" fill="#6389c6" rx="23.522" ry="16.08" transform="matrix(.994 -.111 .111 .994 -23.955 24.54)"/><ellipse cx="160.442" cy="259.723" fill="#6389c6" rx="16.08" ry="10.992" transform="matrix(.994 -.111 .111 .994 -27.87 19.439)"/><g fill="#3e60a3"><ellipse cx="98.801" cy="291.039" rx="16.08" ry="10.992" transform="matrix(.994 -.111 .111 .994 -31.731 12.783)"/><ellipse cx="108.085" cy="229.368" rx="29.118" ry="19.905" transform="matrix(.994 -.111 .111 .994 -24.821 13.432)"/><ellipse cx="36.727" cy="246.316" rx="16.08" ry="10.992" transform="matrix(.994 -.111 .111 .994 -27.147 5.608)"/></g><ellipse cx="352.223" cy="211.04" fill="#1c2e7a" rx="14.343" ry="12.608" transform="matrix(.106 -.994 .994 .106 105.107 538.961)"/><path d="m362.768 206.22c-.583 5.479-5.497 9.448-10.976 8.865s-9.448-5.497-8.865-10.976 5.497-9.448 10.976-8.865c5.479.582 9.448 5.497 8.865 10.976z" fill="#deeeff"/><path d="m362.473 209c-.292 2.74-2.749 4.724-5.488 4.433-2.74-.291-4.724-2.749-4.433-5.488.292-2.74 2.749-4.724 5.488-4.433 2.739.292 4.724 2.749 4.433 5.488z" fill="#3e60a3"/><path d="m245.002 10.998c-43.881 0-85.061 11.544-120.682 31.751 7.086 18.802 23.269 36.239 58.568 38.244 93.704 5.321 137.249 43.821 174.624 71.822 26.759 20.046 82.791 19.585 107.515-4.677-39.894-81.225-123.424-137.14-220.025-137.14z" fill="#6ae5bf"/><path d="m481.654 319.582c-57.926-11.344-147.574-22.483-153.109 44.733-6.41 77.84-67.122 92.897-62.653 135.792 104.008-8.785 189.499-82.533 215.762-180.525z" fill="#6ae5bf"/><path d="m80.724 437.722c13.656 12.355 28.7 23.203 44.888 32.257 17.329-44.838-17.195-41.071-44.888-32.257z" fill="#6ae5bf"/><path d="m415.994 80.555c-44.145-43.038-104.468-69.557-170.992-69.557-5.61 0-11.174.191-16.69.563 3.767 12.173 13.749 25.871 37.346 36.087 44.102 19.093 115.046 56.471 150.336 32.907z" fill="#7ff7cf"/><path d="m470.752 351.304c-32.378-5.767-84.407-5.063-97.096 54.262-5.306 24.808-5.905 45.076-4.037 61.394 44.927-26.595 80.623-67.13 101.133-115.656z" fill="#7ff7cf"/><path d="m272.156 346.429c-4.591-13.128-7.528-24.115-9.312-33.29-16.81-3.445-41.111-2.784-36.457 31.845 7 52.081-2.613 70.952-21.242 89.581-14.691 14.691-17.55 33.877-2.168 41.335 35.183-30.652 90.144-69.52 69.179-129.471z" fill="#86abe2"/></g></svg>