<svg id="Layer_1" enable-background="new 0 0 512 512" height="512" viewBox="0 0 512 512" width="512" xmlns="http://www.w3.org/2000/svg"><g><path d="m245.002 10.998c-122.391 0-223.813 89.746-242.068 207.018l110.361 244.604c38.036 24.296 83.226 38.382 131.707 38.382 28.85 0 56.528-5.002 82.234-14.16l39.799-18.348c73.489-42.295 122.969-121.616 122.969-212.494 0-135.311-109.691-245.002-245.002-245.002z" fill="#45304c"/><path d="m22.632 242.721c-2.145-9.036-3.654-18.679-4.102-28.7-6.037 1.7-11.196 3.001-15.596 3.994-1.597 10.258-2.561 20.726-2.843 31.365 7.066-1.956 14.572-4.162 22.541-6.659z" fill="#b26847"/><path d="m215.784 190.063c-13.057-5.016-27.112-8.904-42.377-10.771-1.15 7.639-2.607 17.981-3.941 29.385 14.863.803 28.871 2.989 41.711 5.945.585-8.068 2.004-16.367 4.607-24.559z" fill="#c67859"/><path d="m122.781 180.808c-12.459 2.199-25.599 5.805-39.494 11.123-3.727 1.426-7.314 2.778-10.787 4.07.256 7.8.678 17.827 1.366 28.82 1.621-.62 3.232-1.233 4.879-1.873 14.16-5.5 28.118-9.217 41.702-11.53-.336-9.947.291-20.26 2.334-30.61z" fill="#b26847"/><path d="m307.129 230.469c.322 4.111.738 8.67 1.265 13.314 7.677-1.46 15.022-4.793 21.295-9.98 4.091-3.383 8.046-7.619 11.602-12.907-8.994 5.022-20.802 9.548-34.162 9.573z" fill="#c67859"/><path d="m282.078 224.961c-2.552-1.16-5.128-2.517-7.722-4.109-7.366-4.52-15.071-9.23-23.186-13.803-1.486 5.827-3 12.076-4.41 18.434 12.246 4.675 22.336 9.527 29.726 13.449 2.603 1.382 5.297 2.507 8.045 3.385-1.452-5.472-2.383-11.31-2.453-17.356z" fill="#c67859"/><path d="m121.121 181.114c-1.999 10.361-2.615 20.657-2.28 30.575 18.191-3.24 35.723-3.929 52.18-2.929 1.332-11.365 2.788-21.665 3.936-29.268-16.448-2.169-34.307-2.004-53.836 1.622z" fill="#945230"/><path d="m308.702 230.44c-8.818.25-18.345-1.437-28.212-6.234-.011 6.089.837 11.967 2.219 17.487 8.813 3.206 18.281 3.777 27.224 1.77-.508-4.495-.912-8.936-1.231-13.023z" fill="#b26847"/><path d="m75.405 224.231c-.686-11.055-1.101-21.104-1.351-28.809-24.796 9.263-43.34 15.227-57.124 19.046.459 9.941 1.958 19.576 4.147 28.734 16.188-5.033 34.284-11.266 54.328-18.971z" fill="#945230"/><path d="m252.589 207.852c-11.806-6.715-24.486-13.175-38.279-18.353-2.646 8.279-4.101 16.645-4.718 24.768 14.469 3.236 27.496 7.456 38.658 11.792 1.411-6.383 2.911-12.588 4.339-18.207z" fill="#b26847"/><path d="m405.984 197.671c-.954 1.471-14.55 14.95-19.165 39.557-5.161 27.532-42.028 54.135-63.545 67.542-8.02 4.997-14.699 11.378-19.852 18.967-8.448 12.445-23.018 28.363-44.443 33.515-8.698 2.09-22.949 1.642-39.45 1.12-15.857-.502-33.454-1.05-50.072.485 1.118.62 2.26 1.23 3.45 1.823-3.273 6.425-15.451 33.19-5.239 57.921 5.129 12.42 15.124 22.241 29.769 29.353 38.726-12.493 70.656-30.746 81.548-45.76 26.559-36.612 78.104-82.728 102.741-115.227 18.717-24.69 32.59-57.671 38.178-72.098-11.173-4.819-13.797-17.01-13.92-17.198z" fill="#fee884"/><path d="m174.958 360.012c-.955-.457-1.875-.921-2.774-1.389-21.321 1.675-41.288 6.556-54.242 19.108-9.662 9.361-14.561 22.385-14.561 38.71 0 13.87-1.503 26.004-3.98 36.608 4.516 3.342 9.147 6.539 13.894 9.571 28.932-.322 59.285-6.462 86.193-15.339-58.348-27.084-24.53-87.269-24.53-87.269z" fill="#ffdd40"/><path d="m409.332 181.001c-4.166-4.37-7.546-9.519-9.862-15.264-1.735-4.301-3.437-9.338-4.987-15.18-12.282 4.482-33.176 16.742-44.208 49.659-4.98 14.86-12.522 24.821-20.586 31.49-6.335 5.239-13.762 8.585-21.522 10.022.898 8.377 2.153 17.183 3.889 24.128 2.469 9.876.601 14.729-1.972 15.977-1.899.918-4.427.102-6.072-2.019-.203-.233-14.762-17.16-20.052-39.784-2.55-.85-5.052-1.909-7.475-3.195-7.303-3.876-17.241-8.66-29.291-13.284-3.033 13.431-5.654 27.448-6.546 38.861-1.544 19.751-8.881 22.221-11.094 22.507-3.492.458-7.065-2.132-8.503-6.239-.165-.395-12.832-31.382-9.709-66.117-12.815-2.959-26.795-5.154-41.631-5.971-2.438 20.385-4.558 44.563-3.794 62.784.722 17.225-3.361 28.653-10.92 30.573-1.965.498-4.027.254-5.94-.589-3.728 7.559-7.289 18.584-4.647 30.219 2.817 12.411 12.117 22.707 27.624 30.645 33.477-2.692 70.375 2.628 87.312-1.445 22.525-5.417 37.556-22.64 45.378-34.16 5.074-7.473 11.716-13.739 19.382-18.516 20.576-12.821 58.927-40.15 64.259-68.587 3.236-17.258 10.956-29.822 18.577-38.483-.97-4.066-.92-8.443.408-12.789.589-1.925 1.286-3.694 1.982-5.243z" fill="#b26847"/><path d="m100.778 454.053c2.593-10.864 4.176-23.329 4.176-37.612 0-42.661 33.379-53.989 70.004-56.429-38.296-18.323-31.567-45.765-24.448-60.137-3.101-.84-5.986-3.25-7.689-6.721-.273-.481-21.529-38.64-22.429-83.822-13.567 2.314-27.507 6.028-41.648 11.521-1.682.653-3.349 1.295-5.004 1.928 1.363 22.611 3.851 49.683 8.382 69.636 4.164 18.34 2.013 31.417-5.755 34.981-4.701 2.155-10.782.123-14.512-4.915-.144-.172-14.584-17.569-26.691-43.842-4.85-10.525-9.747-23.459-12.989-37.871-7.778 2.432-15.093 4.575-22.005 6.489-.1 2.902-.17 5.813-.17 8.741 0 81.391 39.699 153.498 100.778 198.053z" fill="#945230"/><path d="m248.68 224.13c-11.213-4.377-24.329-8.648-38.915-11.92-3.315 35.588 9.835 67.079 9.835 67.079 3.603 10.326 20.258 13.413 22.616-16.753.885-11.322 3.519-25.326 6.464-38.406z" fill="#945230"/><path d="m75.281 222.187c-20.18 7.755-38.384 14.014-54.654 19.063 10.698 47.2 40.024 82.242 40.024 82.242 9.001 12.166 32.277 9.407 23.006-31.423-4.543-20.002-7.025-47.267-8.376-69.882z" fill="#7f3e21"/><path d="m282.173 239.396c5.204 23.767 20.655 41.454 20.655 41.454 4.462 5.766 15.645 4.194 10.753-15.376-1.727-6.91-2.975-15.644-3.872-24.057-9.059 1.988-18.645 1.332-27.536-2.021z" fill="#945230"/><path d="m118.787 209.603c.926 45.948 22.666 84.326 22.666 84.326 6.126 12.504 27.647 13.871 26.036-24.617-.764-18.251 1.348-42.342 3.78-62.633-16.545-1.024-34.181-.34-52.482 2.924z" fill="#7f3e21"/><path d="m479.924 202.572c-15.044-6.598-29.291-5.423-48.16-9.721-9.17-2.089-17.412-6.763-23.863-13.271-.904 1.848-1.87 4.121-2.647 6.665-4.627 15.141 6.198 30.674 21.973 32.019 8.4.716 19.78 1.015 27.886-1.364 8.78-2.577 18.128-.131 25.281 2.96 9.725 4.202 18.749-5.741 15.537-14.487-4.696.402-10.102-.212-16.007-2.801z" fill="#fcf2c8"/><path d="m493.91 196.647c-1.035-3.611-3.046-6.857-5.857-9.348-11.238-9.957-22.489-20.723-43.424-20.723-15.588 0-25.772-11.391-31.026-19.446-2.948-4.52-7.63-7.682-12.944-8.62-5.039-.889-10.021-2.427-14.582-4.179 2.618 4.741 4.654 9.832 6.025 15.153 1.624 6.307 3.43 11.687 5.271 16.252 5.956 14.768 18.866 25.673 34.391 29.21 18.869 4.298 33.116 3.123 48.16 9.721 9.029 3.96 16.906 3.323 22.824 1.445-5.522-1.79-7.858-6.044-8.838-9.465z" fill="#c67859"/><path d="m291.929 434.326c4.15-3.857 9.524-7.707 15.683-11.277-1.722-2.075-3.469-4.159-5.243-6.239-4.665-5.469-6.971-12.448-6.587-19.429-2.321.121-4.684.19-7.08.19-12.257 0-23.758-1.606-32.386-4.523-1.983-.671-3.763-1.401-5.318-2.173.334 1.406.627 2.823.851 4.257 1.95 12.533 7.027 31.657 20.148 39.733 4.119 2.536 8.598 5.15 13.155 7.856 1.24-2.505 3.538-5.386 6.777-8.395z" fill="#945230"/><path d="m246.616 378.723c2.158-1.797 5.463-3.504 9.7-4.936 8.628-2.917 20.129-4.523 32.386-4.523 4.74 0 9.403.263 13.855.74 3.228-17.972 2.235-38.587-14.159-50.209-15.75-11.166-37.852-4.049-44.877 13.935-4.687 11.999-6.93 27.144 1.299 41.573.639 1.12 1.229 2.265 1.796 3.42z" fill="#c67859"/><path d="m357.043 467.217c-5.097.276-12.423-.973-19.279-8.131-3.709-3.872-7.788-8.661-12.174-13.99-9.212 3.659-18.167 6.047-25.692 6.786 12.537 8.349 23.281 17.617 25.803 28.215.556 2.338 1.058 4.592 1.535 6.745 13.884-4.946 27.198-11.096 39.799-18.348-3.202-1.004-6.579-1.463-9.992-1.277z" fill="#c67859"/><path d="m510.895 191.631c-3.763-7.119-9.043-12.464-12.871-15.734-3.064-2.618-5.571-5.798-7.521-9.325-10.412-18.831-35.009-34.036-47.183-40.711-4.608-2.526-8.809-5.738-12.396-9.578-21.736-23.276-44.497-36.837-66.07-43.659-11.4 4.117-27.764 13.596-16.102 32.156 6.473 1.949 12.077 4.646 16.874 7.675 9.489 5.991 16.909 14.547 21.812 24.487 4.182 1.538 8.677 2.867 13.219 3.668 5.314.938 9.996 4.099 12.944 8.619 5.253 8.055 15.438 19.446 31.026 19.446 20.935 0 32.186 10.765 43.424 20.723 2.811 2.49 4.822 5.737 5.857 9.348.787 2.746 2.45 6.029 5.931 8.145 2.463-.533 4.665-1.318 6.558-2.175 5-2.264 7.062-8.235 4.498-13.085z" fill="#ffdd40"/><path d="m455.918 164.865c.468 8.935-5.519 16.512-13.373 16.924s-14.6-6.498-15.069-15.433c-.468-8.935 5.519-16.512 13.373-16.923 7.854-.413 14.601 6.497 15.069 15.432z" fill="#945230"/><path d="m452.601 158.356c.326 6.215-4.448 11.517-10.663 11.843s-11.517-4.448-11.843-10.663 4.448-11.517 10.663-11.843c6.216-.326 11.518 4.448 11.843 10.663z" fill="#deeeff"/><path d="m452.767 161.51c.163 3.107-2.224 5.758-5.332 5.921-3.107.163-5.758-2.224-5.921-5.332-.163-3.107 2.224-5.758 5.332-5.921s5.758 2.224 5.921 5.332z" fill="#876d93"/><g fill="#b26847"><path d="m301.901 453.235c7.162-.923 15.742-3.243 24.748-6.858-6.114-7.387-12.851-15.907-20.056-24.551-11.419 6.659-19.762 14.038-22.815 20.079 6.072 3.597 12.331 7.36 18.123 11.33z"/><path d="m295.737 398.956c-.009-3.02.478-6.062 1.501-9.003 2.111-6.071 4.287-13.567 5.591-21.506-4.46-.482-9.194-.756-14.127-.756-19.232 0-35.735 3.947-42.817 9.575 2.57 4.908 4.464 10.132 5.548 15.561 8.482 3.834 22.019 6.316 37.269 6.316 2.394 0 4.738-.069 7.035-.187z"/></g><g fill="#543e5b"><path d="m27.99 142.215c8.012 15.085 22.019 27.076 46.332 18.154 29.526-10.835 61.647-17.655 89.201-19.02 25.21-1.249 46.92-17.656 55.774-41.294 6.43-17.166 19.263-35.432 44.257-48.243 22.706-11.638 29.147-24.604 28.252-36.33-15.152-2.931-30.795-4.484-46.803-4.484-94.236 0-176.03 53.21-217.013 131.217z"/><path d="m430.08 286.546c-18.104 35.878-42.39 64.412-60.985 83.135-19.35 19.482-16.581 51.773 5.958 67.456 6.228 4.333 13.469 8.201 21.839 11.108 53.976-42.703 89.537-107.654 92.85-181.006-22.833-4.778-48.106-3.594-59.662 19.307z"/><path d="m198.616 496.606c15.021 2.879 30.525 4.396 46.386 4.396 14.979 0 29.637-1.36 43.872-3.938-26.809-55.091-64.783-29.041-90.258-.458z"/></g><path d="m63.102 91.89c54.551 6.799 138.499 3.807 142.721-77.774-56.294 9.05-106.17 37.28-142.721 77.774z" fill="#6c5475"/><path d="m430.445 416.092c23.982-27.756 41.831-60.949 51.46-97.485-29.89 8.323-78.495 32.229-51.46 97.485z" fill="#6c5475"/><path d="m367.359 73.444c-54.668-18.545-102.3 6.633-107.245 28.168-4.231 18.425 9.785 30.02 23.763 24.778 6.552-2.457 9.266-6.911 10.299-10.949 1.491-5.826 5.99-10.417 11.878-11.636 18.077-3.74 32.731-2.333 44.422 1.518-11.274-18.532 5.564-27.895 16.883-31.879z" fill="#ffb332"/></g></svg>