<svg id="Layer_1" enable-background="new 0 0 511.998 511.998" height="512" viewBox="0 0 511.998 511.998" width="512" xmlns="http://www.w3.org/2000/svg"><g><path d="m245.002 10.997c-70.358 0-133.78 29.667-178.465 77.164l-39.522 279.777c40.657 79.015 123.009 133.064 217.987 133.064 135.311 0 245.002-109.691 245.002-245.002 0-135.312-109.691-245.003-245.002-245.003z" fill="#52ceaa"/><path d="m239.864 275.25c-22.891 8.432-79.676 25.214-140.611 32.117.818.754 1.662 1.504 2.562 2.244-3.249 4.384-13.609 19.817-9.737 33.674 2.057 7.361 7.787 12.998 17.033 16.787 71.947-14.778 133.972-46.004 158.501-58.17 32.242-15.992 64.875-18.595 85.472-18.186-33.596-11.587-75.76-22.265-113.22-8.466z" fill="#fcf2c8"/><path d="m103.898 309.362c-.942-.742-1.821-1.483-2.663-2.224-32.136 3.759-65.519 4.819-95.768.487 4.56 21.257 11.865 41.495 21.547 60.313 28.742.815 57.515-2.65 84.802-8.43-37.699-13.487-7.918-50.146-7.918-50.146z" fill="#fee884"/><path d="m397.854 240.812c-2.895-8.18-4.88-16.31-6.23-23.921-13.524-.949-42.899-5.457-72.752-25.981-20.039-13.776-90.26-70.419-187.291-93.4-4.96 3.933-15.061 13.387-16.369 26.025-.914 8.83 2.671 17.456 10.653 25.646l-1.425 11.268c-2.814 1.958-14.402 10.813-17.042 25.471-1.876 10.419 1.234 21.301 9.246 32.364l-7.051 4.795c-.361.249-8.847 6.2-9.655 15.093-.419 4.61 1.297 9.096 5.102 13.352-.781.633-1.851 1.544-3.079 2.693 47.747-4.599 91.373-14.91 123.288-22.352 56.394-13.149 103.28 30.383 164.221 29.396 1.382-2.136 3.089-4.186 5.192-6.096-2.758-11.076 3.192-14.353 3.192-14.353z" fill="#b26847"/><path d="m133.457 97.963c-21.105-5.111-43.488-8.649-66.92-9.803-40.573 43.126-65.681 100.952-66.496 164.641 35.166 5.17 70.87 4.543 104.461 1.155 1.663-1.462 2.764-2.264 2.764-2.264-14.901-14.901 3.18-27.379 3.18-27.379l8.333-5.667c-27-35.667 7.064-57.333 7.064-57.333l1.603-12.667c-24.593-24.592-.721-45.571 6.011-50.683z" fill="#945230"/><path d="m385.53 293.392c-6.035-22.86 4.443-32.442 4.884-34.012l-3.486-.014c-26.185-.103-49.974-8.436-72.98-16.493-29.658-10.388-57.67-20.202-89.132-12.865-38.719 9.032-79.369 17.681-120.332 21.974-4.84 4.041-17.175 15.777-17.458 30.656-.184 9.67 4.791 18.739 14.787 26.971 59.959-7.075 115.48-23.505 138.051-31.818 41.304-15.215 88.328-.672 123.277 12.037 8.169 2.971 16.087 4.366 23.437 4.78-.487-.209-.891-.623-1.048-1.216z" fill="#ffb332"/><path d="m107.266 251.692-.003-.003c-35.826 3.927-71.919 4.586-107.199-.703-.034 1.668-.064 3.337-.064 5.013 0 18.643 2.093 36.795 6.038 54.246 30.935 4.355 65.111 3.105 97.859-.884-36.461-28.701 3.369-57.669 3.369-57.669z" fill="#ff9433"/><path d="m411.44 279.269.341-1.658c-1.822-.642-1.695-.488-3.823-1.391-7.914 3.073-14.772 10.134-19.014 17.624-.258.454-.658.716-1.09.836 10.814.447 20.317-1.222 27.418-3.155-4.503-5.468-4.251-10.219-3.832-12.256z" fill="#ffb332"/><path d="m259.468 451.529c-.485-.286-.99-.565-1.516-.837-2.163-1.116-3.89-2.899-5.134-4.99-1.114-1.873-3.191-3.994-7.02-4.76-5.903-1.181-19.984-3.979-23.987-12.979-5.873-.692-11.038-2.762-15.431-6.219-7.655-6.023-17.109-19.533-18.678-49.688-.425-8.148 2.312-16.135 7.704-22.486 9.348-11.009 20.961-28.884 23.199-51.518 1.872-18.944 22.557-26.62 40.36-29.71-7.213-13.229-21.81-22.107-38.474-20.585-16.387 1.497-30.13 12.961-34.549 28.811-6.78 24.319-19.564 59.792-40.334 80.562 0 0-6.144 8.925 3.908 15.865 4.116 2.841 7.251 6.901 8.9 11.623 4.545 13.016 14.689 38.227 30.149 55.732 2.395 2.712 3.835 6.127 4.243 9.723.01.087.02.176.03.264 1.03 9.122 8.749 16.022 17.93 16.022h44.589c8.099.001 11.087-10.717 4.111-14.83z" fill="#ffc839"/><path d="m90.239 88.826c-2.165 8.382 9.853 18.734 26.842 23.123 16.99 4.389 32.518 1.152 34.683-7.23s-9.853-18.734-26.843-23.123c-16.989-4.389-32.517-1.152-34.682 7.23z" fill="#fee884"/><ellipse cx="231.96" cy="138.044" fill="#fcf2c8" rx="12.861" ry="26.069" transform="matrix(.459 -.888 .888 .459 2.794 280.679)"/><ellipse cx="113.981" cy="152.559" fill="#fee884" rx="15.674" ry="31.773" transform="matrix(.25 -.968 .968 .25 -62.236 224.762)"/><ellipse cx="104.912" cy="216.003" fill="#fee884" rx="12.914" ry="26.178" transform="matrix(.25 -.968 .968 .25 -130.465 263.558)"/><ellipse cx="213.445" cy="188.627" fill="#fcf2c8" rx="12.914" ry="26.178" transform="matrix(.25 -.968 .968 .25 -22.571 348.112)"/><ellipse cx="309.196" cy="185.011" fill="#fcf2c8" rx="10.997" ry="18.421" transform="matrix(.564 -.826 .826 .564 -17.927 336.081)"/><path d="m453.214 278.543c-6.579-.996-12.457-1.023-16.737.042-12.068 3.004-22.32.612-26.656-.755-3.715 13.347 11.656 23.906 29.499 29.778 8.918 2.935 18.286 3.858 25.914 3.982 5.261.086 7.936-6.387 4.077-9.964-8.874-8.225-13.623-16.942-16.097-23.083z" fill="#c67859"/><path d="m386.383 185.221c-.057 12.186 1.186 33.708 8.929 55.59 0 0 24.093 1.205 39.067-23.696 0 0-21.965-22.978-39.183-36.223-3.586-2.758-8.792-.195-8.813 4.329z" fill="#fcf2c8"/><path d="m392.119 255.165s18.332 2.615 15.795 23.11c0 0-10.129 3.83-17.311 16.508-1.652 2.917-6.058 2.336-6.915-.904-2.719-10.293-4.382-27.076 8.431-38.714z" fill="#fcf2c8"/><path d="m500.596 276.562c-8.397-4.186-10.48-17.3-10.5-17.432l-.103-.67-7.887-5.085-.815.534c-15.088 9.87-28.037-1.732-28.578-2.229l-17.449-12.758-.233-.14c-6.596-3.186-10.563-7.528-11.794-12.907-.138-.604-.238-1.21-.307-1.817l-27.618 16.752s-5.951 3.277-3.193 14.353 15.795 23.11 15.795 23.11 12.838 5.535 28.87 1.544c12.425-3.093 38.171 2.821 56.148 15.88 7.159 5.201 17.322.685 18.442-8.093.438-3.429.687-7.069.609-10.757-4.342 1.413-8.16 1.325-11.387-.285z" fill="#b26847"/><path d="m511.992 278.422c.032-8.722-1.675-17.844-7.062-25.174-15.186-20.667-19.7-28.274-70.552-36.133l-12.849 7.794c.845 5.568 4.324 11.108 12.849 15.226l17.316 12.648s14.125 13.043 30.418 2.382l6.5 4.191s3.772 25.049 23.38 19.066z" fill="#c67859"/><path d="m489.723 251.499c3.29 3.409 4.099 7.966 1.808 10.177-2.292 2.211-6.816 1.24-10.106-2.169s-4.099-7.966-1.808-10.177 6.816-1.24 10.106 2.169z" fill="#945230"/><path d="m456.128 246.266c.838 10.007-5.613 18.717-14.41 19.454-8.796.737-16.607-6.779-17.445-16.786s5.613-18.717 14.41-19.454 16.607 6.778 17.445 16.786z" fill="#945230"/><path d="m452.179 239.079c.583 6.961-4.587 13.076-11.548 13.659s-13.076-4.587-13.659-11.548 4.587-13.076 11.548-13.659c6.961-.582 13.076 4.588 13.659 11.548z" fill="#fcf2c8"/><path d="m452.475 242.612c.291 3.48-2.294 6.538-5.774 6.829s-6.538-2.294-6.829-5.774 2.294-6.538 5.774-6.829c3.48-.292 6.538 2.294 6.829 5.774z" fill="#543e5b"/><g fill="#6ae5bf"><path d="m54.872 410.513c23.199 28.513 52.677 51.712 86.334 67.477 14.963-90.338-39.253-86.164-86.334-67.477z"/><path d="m245.002 10.997c-26.941 0-52.858 4.364-77.102 12.399 5.318 20.789 19.87 47.674 58.252 64.765 69.961 31.153 132.204 89.405 185.456 36.153 9.118-9.118 15.39-18.435 19.527-27.616-44.936-52.454-111.648-85.701-186.133-85.701z"/><path d="m338.446 325.314c-62.488 5.626-93.333 56.667-57.333 101.333 24.56 30.472 18.402 56.286 12.008 69.618 72.695-14.479 133.79-61.117 167.831-124.464-24.626-20.51-70.771-51.146-122.506-46.487z"/></g><path d="m407.257 72.459c-43.214-38.236-100.016-61.462-162.255-61.462-2.972 0-5.93.062-8.876.168 3.616 20.621 17.448 44.919 57.933 60.668 66.098 25.712 92.894 17.263 113.198.626z" fill="#7ff7cf"/><path d="m442.583 400.862c-2.81-2.581-5.766-5.092-8.888-7.503-36.917-28.5-81.23-32.969-98.976-9.982-16.608 21.512-4.058 59.446 27.878 87.584 31.523-17.28 58.828-41.289 79.986-70.099z" fill="#7ff7cf"/><path d="m222.661 429.573c-1.649-2.623-2.397-5.843-1.646-9.812 2.059-10.885.344-32.48-3.524-47.289-2.289-8.764.737-18.046 7.909-23.579 13.155-10.148 31.57-28.193 37.306-52.837 2.453-10.54.448-20.795-4.56-29.14-18.135 3.222-39.082 11.231-41.035 30.99-2.26 22.868-14.479 40.836-22.85 50.695-5.566 6.556-8.505 14.946-8.059 23.535 1.068 20.502 7.25 54.825 36.459 57.437z" fill="#ffdd40"/></g></svg>