<svg id="Layer_1" enable-background="new 0 0 512 512" height="512" viewBox="0 0 512 512" width="512" xmlns="http://www.w3.org/2000/svg"><g><path d="m245.002 10.998c-35.398 0-69.037 7.519-99.423 21.028l-45.283 421.676c40.549 29.73 90.572 47.3 144.706 47.3 135.311 0 245.002-109.691 245.002-245.002s-109.691-245.002-245.002-245.002z" fill="#945230"/><path d="m364.959 210.966-16.046-.32s-29.765 16.417-43.521-49.306l-13.767-3.587s-41.638 18.872-58.833-66.529l-15.505-12.736s-37.346 38.045-77.76-43.678c-43.451 20.757-79.824 53.943-104.531 94.951.369.851.76 1.719 1.18 2.602 5.295 11.116 12.283 18.788 20.208 22.185 8.936 3.829 19.085 2.46 30.176-4.063l16.895 5.908c2.413 4.27 18.772 31.829 39.768 33.579 9.519.798 18.481-3.86 26.665-13.836l17.968 13.41c1.506 2.987 12.311 23.329 28.492 26.062 7.734 1.303 15.393-1.637 22.775-8.747l14.798 5.211c1.269 3.076 7.049 15.55 18.764 19.572 7.162 2.462 15.072 1.247 23.539-3.603l9.314 29.901c.967-.429 1.928-.874 2.877-1.35 9.246-4.633 18.734-4.795 25.34-4.023 6.254.73 12.582.73 18.791-.319 16.608-2.806 26.149-.431 31.428 2.346 3-1.643 5.78-3.683 8.325-5.997.503-.458 1.05-.914 1.637-1.358-10.353-2.929-24.556-11.501-28.977-36.275z" fill="#ffdd40"/><path d="m297.089 225.777c-29.747 18.542-42.024-14.893-42.024-14.893l-16.325-5.749c-28.083 28.083-49.699-16.577-49.699-16.577l-19.417-14.491c-32.376 41.337-65.135-18.903-65.135-18.903l-18.094-6.327c-29.022 17.514-44.02-5.271-50.439-20.656-22.804 37.212-35.956 80.978-35.956 127.819 0 13.512 1.111 26.762 3.215 39.679 2.995-.566 5.79-1.033 8.313-1.41 8.83-1.322 17.273-4.494 24.794-9.305 30.684-19.627 62.555-18.803 80.871-15.907 9.669 1.529 19.587.99 28.904-2.014 18.785-6.056 36.035-4.238 48.218-1.125 11.394 2.911 23.379 2.636 34.5-1.188 13.976-4.805 26.759-4.503 37.07-2.406 13.903 2.826 28.219 1.011 41.025-5.015z" fill="#ffc839"/><g fill="#ffb332"><path d="m292.618 262.155c5.436-1.171 10.744-3.029 15.797-5.562.631-.316 1.263-.608 1.895-.883 8.001-46.557-2.469-98.759-2.964-101.177-.889-4.342-5.126-7.146-9.471-6.251-4.342.889-7.141 5.129-6.251 9.471.123.6 11.853 59.05.994 104.402z"/><path d="m352.546 252.252c2.997-.506 5.744-.83 8.298-1.027 3.706-22.167 4.097-39.399 4.115-40.258.088-4.431-3.432-8.095-7.863-8.183-.055-.001-.109-.001-.163-.001-4.357 0-7.932 3.488-8.02 7.864-.004.211-.435 19.199-4.684 42.4 2.785-.082 5.563-.33 8.317-.795z"/><path d="m236.229 262.621c5.78-1.316 11.296-1.805 16.454-1.728 11.223-84.1-18.734-182.832-20.057-187.125-1.304-4.235-5.793-6.608-10.029-5.307-4.235 1.303-6.612 5.793-5.31 10.028.319 1.033 31.171 102.785 18.942 184.132z"/><path d="m177.229 263.221c5.9.369 11.284 1.289 15.971 2.427 3.759-96.311-35.88-204.025-47.621-233.622-4.927 2.19-9.765 4.541-14.514 7.041 11.652 29.899 49.109 133.618 46.164 224.154z"/><path d="m25.313 290.561c3.83-1.505 7.522-3.366 11.01-5.597 1.614-1.032 3.232-1.996 4.85-2.918-1.504-41.168-10.849-83.708-22.066-121.053-3.614 8.583-6.744 17.418-9.376 26.466 8.741 33.165 15.232 69.019 15.582 103.102z"/><path d="m68.031 86.575c17.297 51.439 34.821 118.59 35.543 181.081 5.073.247 9.664.775 13.62 1.4.812.128 1.627.22 2.441.319-.432-65.678-18.95-135.537-34.803-183.454-1.33-4.021-2.663-7.944-3.992-11.786-4.418 3.993-8.692 8.141-12.809 12.44z"/></g><path d="m352.546 249.959c-6.208 1.049-12.537 1.049-18.791.319-6.606-.771-16.094-.61-25.34 4.023-13.181 6.606-28.081 8.667-42.529 5.731-10.311-2.096-23.093-2.399-37.07 2.407-11.12 3.824-23.106 4.099-34.5 1.188-5.452-1.393-11.925-2.52-19.09-2.805l.034.04c-2.021 2.223-6.286 7.755-5.977 14.576.226 4.987 2.835 9.569 7.76 13.635-.3.57-.695 1.344-1.15 2.284 63.751-7.877 127.345-11.831 182.622-10.129 2.149-16.164 14.724-23.553 23.366-26.755 1.147-.425 2.264-.916 3.354-1.456-4.962-3.051-14.675-6.101-32.689-3.058z" fill="#42ba9b"/><path d="m177.283 260.932c-9.355-.591-19.992.211-31.184 3.819-9.317 3.004-19.235 3.543-28.904 2.014-18.316-2.896-50.187-3.72-80.871 15.907-7.521 4.811-15.964 7.983-24.794 9.305-2.627.393-5.546.881-8.681 1.48 1.44 9.387 3.427 18.593 5.901 27.598 2.426-.573 4.856-1.144 7.303-1.708 50.467-11.639 106.14-21.422 161.635-28.215.777-1.57 1.277-2.45 1.277-2.45-17.268-13.191-1.939-27.513-1.682-27.75z" fill="#34a086"/><path d="m177.044 289.071c-3.019 5.73-15.366 31.382-7.274 53.683 4.325 11.918 13.795 20.779 28.158 26.352l2.187 41.433c70.113-11.554 135.753-32.615 169.803-62.513-1.745-1.27-3.479-2.719-5.199-4.439-8.505-8.505-9.713-16.872-7.902-24.009 1.606-6.327 5.499-11.419 10.558-14.812-5.459-2.53-9.183-8.082-9.183-18.612 0-2.594.254-4.988.707-7.208-55.077-1.723-118.442 2.179-182.005 9.993.052.042.096.088.15.132z" fill="#52ceaa"/><path d="m199.374 368.051c-54.079-20.162-20.47-79.266-20.412-79.368-55.918 6.799-112.057 16.641-162.911 28.37-2.643.609-5.269 1.226-7.887 1.845 8.695 32.825 24.041 62.935 44.492 88.83l29.033 13.171c38.103-.33 79.773-3.911 119.913-10.609z" fill="#42ba9b"/><path d="m368.733 346.424c-2.597 2.219-5.372 4.388-8.309 6.507-4.919 3.549-11.883 1.827-14.43-3.678-14.523-31.391-19.854-9.515-21.792 13.255-.596 7.001-5.082 13.101-11.602 15.721-15.556 6.252-32.688 11.793-50.809 16.609-12.037 3.199-24.528-3.275-29.008-14.895-27.148-70.413-34.188-20.429-35.97 15.822-.319 6.493-3.964 11.03-8.674 13.28-1.031 10.728 1.707 25.328 20.17 34.835 111.314-12.932 160.531-69.061 175.923-91.313-5.283-1.06-10.445-2.794-15.499-6.143z" fill="#fee884"/><path d="m399.635 298.814c-2.136.873-7.173 3.114-9.753 3.996 7.531 2.853 17.795 10.47 22.806 19.238 2.368 4.144 4.943 8 7.567 11.568-.712-9.846 6.724-18.057 12.566-19.928-14.785-8.774-25.99-17.814-33.186-14.874z" fill="#ffb332"/><path d="m475.929 361.689c-3.378-1.608-8.645-3.192-16.832-4.056-11.003-1.16-21.203-6.257-28.717-14.377-5.747-6.211-12.257-14.308-17.691-23.818-5.903-10.331-15.476-15.45-24.193-17.965-7.079 2.077-14.815 3.345-21.013 1.668-6.374 3.268-11.391 9.013-13.276 16.436-1.812 7.137-.603 15.504 7.902 24.009 22.68 22.68 47.48 2.774 75.707 31.001 20.984 20.985 35.116 6.44 40.986-2.405 2.428-3.659 1.092-8.604-2.873-10.493z" fill="#fcf2c8"/><path d="m392.299 246.308c-3.829 3.48-8.177 6.364-13.029 8.162-9.476 3.512-23.689 12.052-23.689 31.683 0 29.446 29.043 20.101 44.054 13.966 14.307-5.847 39.287 35.678 92.174 28.282 5.948-.832 11.349-4.071 14.858-8.944 5.797-8.051 10.662-21.157-6.851-31.999-27.411-16.969-48.296-24.474-74.728-40.791-16.686-10.299-27.26-5.384-32.789-.359z" fill="#6ae5bf"/><path d="m498.838 304.264c0 4.776-2.63 8.648-5.874 8.648s-5.874-3.872-5.874-8.648 2.63-8.648 5.874-8.648c3.244.001 5.874 3.872 5.874 8.648z" fill="#34a086"/><path d="m346.778 456.545c-3.451 2.967-5.736 7.619-3.268 14.82.983-.32 1.929-.607 2.825-.839 6.532-1.689 12.772-.464 17.273 1.112 3.043 1.065 5.753-2.35 3.956-5.026-4.264-6.353-12.404-9.094-20.786-10.067z" fill="#fcf2c8"/><path d="m431.441 271.891c.475 9.061-5.597 16.745-13.562 17.163-7.965.417-14.807-6.59-15.282-15.651s5.597-16.745 13.562-17.163c7.965-.417 14.807 6.59 15.282 15.651z" fill="#34a086"/><path d="m428.077 265.29c.33 6.303-4.511 11.68-10.814 12.01s-11.68-4.511-12.01-10.814 4.511-11.68 10.814-12.01c6.302-.33 11.679 4.512 12.01 10.814z" fill="#ffc839"/><path d="m428.245 268.489c.165 3.151-2.256 5.84-5.407 6.005s-5.84-2.256-6.005-5.407 2.256-5.84 5.407-6.005 5.839 2.256 6.005 5.407z" fill="#543e5b"/><path d="m326.476 456.84c-6.271.751-12.651-.642-17.92-4.125-8.564-5.661-12.219-13.293-13.118-21.243-7.328-4.18-19.424-7.849-23.99 9.549 3.454 4.416 5.449 9.769 6.314 15.348.586 3.782 3.727 8.945 12.881 15.463 21.289 15.161 42.573 2.269 55.247-1.182-2.006-6.554.012-10.918 3.151-13.791-8.104-1.276-16.749-.715-22.565-.019z" fill="#6ae5bf"/><path d="m180.222 492.331c20.635 5.647 42.353 8.671 64.78 8.671 10.171 0 20.195-.632 30.041-1.836-25.371-45.769-66.815-27.514-94.821-6.835z" fill="#b26847"/><path d="m484.332 203.436c-22.372-102.328-108.679-180.736-214.958-191.233-6.676 24.043-3.442 54.01 28.044 85.496 66.126 66.126 129.189 136.52 186.914 105.737z" fill="#b26847"/><path d="m470.746 160.693c-27.478-65.009-82.205-115.682-149.874-137.703-1.359 15.898 3.879 34.298 23.028 53.447 44.543 44.543 87.234 91.652 126.846 84.256z" fill="#c67859"/><path d="m190.275 407.809c-7.773 5.336-20.153 3.424-23.979-7.731-38.534-112.34-46.539-37.483-48.136 6.686-.453 12.516-18.091 15.03-22.07 3.156-32.962-98.39-41.136-44.005-43.113-4.786-.046.905-.17 1.763-.361 2.573 13.737 17.396 29.788 32.875 47.681 45.994 31.647-1.891 65.911-5.448 103.109-9.281 2.202-.227 4.372-.476 6.526-.736-18.835-9.884-21.005-25.128-19.657-35.875z" fill="#ffdd40"/><path d="m295.758 433.656c-3.545-19.595 11.201-42.1 11.201-42.1 5.642-14.733 2.929-26.416-1.415-34.581-12.022-22.593-49.06-8.839-41.5 17.119 2.02 6.935 2.277 15.583-1.465 25.946-6.554 18.149.62 31.589 7.814 39.684.521.586 1.011 1.192 1.474 1.815 4.926-15.944 16.811-12.012 23.891-7.883z" fill="#42ba9b"/></g></svg>