<svg id="Layer_1" enable-background="new 0 0 512 512" height="512" viewBox="0 0 512 512" width="512" xmlns="http://www.w3.org/2000/svg"><g><path d="m245.002 10.998c-119.469 0-218.948 85.516-240.608 198.671l47.927 197.674c44.858 57.032 114.492 93.659 192.681 93.659 135.311 0 245.002-109.691 245.002-245.002s-109.691-245.002-245.002-245.002z" fill="#1c2e7a"/><path d="m164.383 211.62c-.182 2.626.686 5.108 2.583 7.398-.4.439-.9 1.009-1.463 1.691 15.108 2.313 29.023 5.187 42.163 7.346-.174-3.996-.213-7.945-.149-11.804-10.74-1.931-22.109-4.665-34.303-8.308-2.296-.686-4.578-1.327-6.855-1.946-1.005 1.589-1.83 3.503-1.976 5.623z" fill="#49b1f7"/><path d="m169.016 219.04c-4.752-4.752-3.281-9.457-1.132-12.63-13.402-3.725-26.475-6.312-39.135-7.971-1.929 6.318-3.578 12.443-4.983 18.378 15.659.356 30.041 2.054 43.482 4.161 1.06-1.243 1.768-1.938 1.768-1.938z" fill="#1e9ef4"/><path d="m343.053 195.148c-13.801 6.292-26.983 11.654-40.22 15.761.411 1.945.9 4.008 1.481 6.157 14.647-5.767 27.745-12.81 39.086-20.614-.117-.431-.233-.865-.347-1.304z" fill="#49b1f7"/><path d="m31.432 202.545c-.293 3.402-.536 6.786-.721 10.146-.351 6.39-.48 12.66-.431 18.829 21.319-7.092 40.771-11.166 58.673-13.169 1.636-7.493 3.7-14.953 6.078-22.29-23.344-.234-44.758 2.449-63.599 6.484z" fill="#1e9ef4"/><path d="m282.937 216.066c-14.878 3.064-30.244 4.394-47.015 3.536.126 3.562.387 7.451.853 11.56 6.154.146 12.202-.131 18.196-1.016 10.353-1.528 20.225-3.707 29.608-6.393-.6-2.443-1.149-5.002-1.642-7.687z" fill="#49b1f7"/><path d="m93.143 196.059c-2.564 7.968-4.555 15.465-6.062 22.517 13.643-1.626 26.397-2.059 38.402-1.709 1.481-6.178 3.161-12.247 4.99-18.194-12.897-1.771-25.37-2.575-37.33-2.614z" fill="#8fa1db"/><path d="m304.474 210.398c-7.684 2.445-15.384 4.46-23.222 6.001.501 2.737 1.058 5.349 1.667 7.839 8.045-2.235 15.709-4.867 22.996-7.806-.566-2.106-1.041-4.127-1.441-6.034z" fill="#a8b7ef"/><path d="m31.979 230.948c-.058-9.753.389-19.381 1.217-28.78-10.409 2.163-20.04 4.75-28.802 7.501-2.083 10.883-3.46 22.015-4.052 33.357 10.991-4.774 21.531-8.777 31.637-12.078z" fill="#8fa1db"/><path d="m237.642 219.675c-10.05-.427-20.599-1.64-31.849-3.74-.082 4.114-.044 8.054.104 11.826 11.355 1.909 22.133 3.326 32.609 3.435-.474-4.103-.735-7.978-.864-11.521z" fill="#a8b7ef"/><path d="m175.248 360.434c1.614 2.62 3.108 5.181 4.494 7.683 56.292-31.414 89.887-72.391 102.638-90.037-12.497 5.275-23.914 9.488-33.449 12.725-16.528 5.612-31.616 14.64-44.755 26.13-11.614 10.156-24.748 17.356-38.644 22.572 2.243 6.883 5.395 13.91 9.716 20.927z" fill="#deeeff"/><path d="m176.525 359.647c-4.275-6.941-7.393-13.878-9.616-20.664-48.766 18.839-107.324 12.602-142.74 23.255 7.755 16.091 17.218 31.204 28.152 45.105 51.705-4.79 94.464-20.633 128.724-39.963-1.394-2.519-2.895-5.096-4.52-7.733z" fill="#d3dcfb"/><g fill="#73c3f9"><path d="m307.988 228.151c5.165 12.907 12.421 22.691 21.617 29.227 13.312-7.535 26.762-16.144 39.663-25.905-2.073-.893-4.287-2.081-6.537-3.686-9.329-6.655-16.072-18.065-19.889-33.435-11.349 7.783-24.445 14.807-39.089 20.552 1.032 4.149 2.402 8.665 4.235 13.247z"/><path d="m284.06 221.554c-9.326 2.66-19.14 4.813-29.423 6.331-5.965.88-11.983 1.159-18.106 1.017 1.844 18.902 7.931 42.973 25.46 59.645 14.429-5.345 31.543-12.439 49.533-21.507-10.259-6.6-21.613-19.665-27.464-45.486z"/><path d="m430.14 117.614c-11.162.281-32.017 4.265-43.21 28.428-5.832 12.589-16.104 25.678-30.181 37.69.611 2.919 1.439 6.183 2.566 9.6 4.412 13.385 11.61 23.437 20.966 29.403 18.618-15.512 35.574-33.625 48.585-54.614-4.004-4.766-5.529-11.513-3.239-17.62-1.281-1.174-2.354-2.479-3.236-3.874-6.75-10.685-1.989-23.431 7.749-29.013z"/><path d="m166.966 219.018c-3.062 3.359-11.918 14.246-10.768 26.711.716 7.773 5.195 14.625 13.317 20.381-2.944 6.572-16.025 39.273-3.265 75.516 13.754-5.205 26.753-12.366 38.26-22.429 9.45-8.264 19.913-15.246 31.19-20.608-1.427-1.196-2.857-2.503-4.276-3.944-17.428-17.706-23.064-44.285-23.837-68.811-12.767-2.092-26.267-4.867-40.879-7.153.087.111.166.225.258.337z"/></g><path d="m171.409 265.594c-29.611-19.882-2.404-46.544-2.393-46.554-13.788-2.221-28.572-4.051-44.702-4.473-9.44 38.482-8.499 68.989-4.8 90.555.773 4.505-1.901 7.625-4.425 8.926-2.593 1.335-6.487 1.637-9.64-1.532l-.165-.155c-.137-.113-13.83-11.654-18.682-38.935-3.264-18.352-1.595-38.036 2.881-57.444-18.054 1.957-37.673 5.994-59.215 13.137-.011 32.564 5.481 62.05 16.416 87.823 1.823 4.297-.105 8.024-2.31 9.909-2.263 1.939-6.066 3.149-9.991.706l-.15-.083c-.185-.091-18.569-9.422-29.704-39.46-1.436-3.874-2.661-7.86-3.706-11.935 2.553 31.463 11.053 61.241 24.37 88.219 35.577-10.398 93.908-4.305 142.435-23.205-14.199-40.123 3.781-75.499 3.781-75.499z" fill="#49b1f7"/><path d="m1.742 285.226c11.369 33.851 31.737 43.787 31.737 43.787s.015.01.046.029c8.504 5.295 18.649-3.547 14.736-12.77-12.019-28.327-16.348-58.588-16.278-87.705-10.06 3.274-20.547 7.237-31.483 11.969-.319 5.116-.5 10.268-.5 15.464 0 9.892.603 19.641 1.742 29.226z" fill="#a8b7ef"/><path d="m263.799 287.873c-17.575-16.295-23.673-40.212-25.532-58.936-10.424-.101-21.148-1.504-32.438-3.398 1.119 40.607 14.777 62.312 28.178 73.861 4.931-2.433 10.021-4.557 15.258-6.334 4.459-1.514 9.334-3.244 14.534-5.193z" fill="#d3dcfb"/><path d="m87.616 216.182c-16.024 70.86 16.581 97.505 16.581 97.505s.012.013.037.038c6.94 6.979 18.634.809 16.97-8.892-5.276-30.753-2.262-61.634 4.835-90.215-12.013-.392-24.767-.017-38.423 1.564z" fill="#a8b7ef"/><path d="m358.239 182.434c-5.127 4.489-10.775 8.838-16.928 12.963 5.858 23.117 17.272 33.027 26.387 37.262 4.739-3.539 9.404-7.237 13.967-11.089-15.141-9.31-21.107-27.413-23.426-39.136z" fill="#d3dcfb"/><path d="m305.357 214.267c-7.273 2.923-14.935 5.524-22.96 7.746 5.797 25.659 16.922 39.023 27.242 45.968 7.1-3.537 14.344-7.381 21.624-11.547-15.298-10.527-22.521-28.453-25.906-42.167z" fill="#d3dcfb"/><path d="m175.248 360.434c17.525 28.453 21.146 50 21.097 63.065-.048 12.922 7.324 24.698 18.604 30.188 8.864-24.626 12.308-52.931-.204-79.584-24.388-51.954-25.032-80.765-23.931-91.62.589-5.806-1.726-11.629-6.407-15.115-3.56-2.651-8.514-4.007-15.036-.935-3.754 8.519-20.316 51.474 5.877 94.001z" fill="#9bd8f9"/><path d="m178.285 487.689c-.152 9.427 12.163 13.049 17.202 5.08 7.147-11.304 14.626-25.225 19.965-40.508-10.789-5.316-17.652-16.559-17.607-28.757.047-12.528-3.303-34.607-21.32-63.858-29-47.083-5.117-94.051-5.116-94.052-5.699 1.989-12.712 7.449-21.187 18.859-29.676 39.955-8.871 79.694 14.654 134.74 11.056 25.87 13.706 50.09 13.409 68.496z" fill="#73c3f9"/><path d="m499.658 150.306-2.926-1.6c-17.89 6.94-25.756 2.036-53.62 4.416-8.755.748-14.806-1.018-18.971-4.065-6.087 11.879 3.546 27.361 18.229 25.525 12.529-1.566 31.573-4.27 44.439-7.595 5.357-1.384 9.404-2.842 12.461-4.242 5.199-2.379 5.405-9.696.388-12.439z" fill="#bec8f7"/><path d="m440.781 115.192c-17.364-1.664-29.967 17.022-20.65 31.768 3.748 5.932 10.8 10.331 23.772 9.222 33.048-2.824 37.963 4.601 64.838-9.642 2.639-1.399 3.949-4.531 2.894-7.326-1.498-3.967-5.191-8.768-14.289-8.809-15.52-.069-25.277-1.577-37.527-8.796-5.532-3.259-12.199-5.761-19.038-6.417z" fill="#deeeff"/><path d="m456.16 133.218c1.14 5.656-2.521 11.165-8.176 12.305-5.656 1.14-11.165-2.52-12.305-8.176s2.52-11.165 8.176-12.305 11.165 2.52 12.305 8.176z" fill="#bec8f7"/><path d="m456.739 136.089c.57 2.828-1.26 5.583-4.088 6.153s-5.583-1.26-6.153-4.088 1.26-5.583 4.088-6.153c2.828-.571 5.583 1.26 6.153 4.088z" fill="#543e5b"/><path d="m83.36 440.088c17.866 15.7 38.028 28.846 59.929 38.855 18.101-65.76-27.301-54.137-59.929-38.855z" fill="#2a428c"/><path d="m490.004 256c0-11.992-.878-23.778-2.543-35.309-25.827.966-61.62 9.383-94.017 41.779-59.34 59.34-143.913 75.734-119.416 165.747 7.125 26.181 7.829 49.901 5.254 70.386 119.079-16.675 210.722-118.928 210.722-242.603z" fill="#2a428c"/><path d="m380.94 52.153c-38.898-25.991-85.645-41.155-135.938-41.155-74.327 0-140.911 33.106-185.837 85.369 31.625 39.383 89.019 88.709 171.244 73.807 113.165-20.508 148.589-70.891 150.531-118.021z" fill="#2a428c"/><path d="m327.359 25.202c-25.739-9.189-53.461-14.204-82.357-14.204-48.291 0-93.305 13.986-131.242 38.11 23.235 42.745 61.255 88.246 113.575 72.559 59.87-17.951 88.791-55.579 100.024-96.465z" fill="#3e60a3"/><path d="m484.579 307.473c-10.372-4.095-21.45-6.318-32.961-6.318-58.337 0-105.629 56.887-105.629 127.062 0 16.77 2.707 32.776 7.613 47.433 66.007-32.692 115.168-94.248 130.977-168.177z" fill="#3e60a3"/></g></svg>