<svg id="Layer_1" enable-background="new 0 0 512 512" height="512" viewBox="0 0 512 512" width="512" xmlns="http://www.w3.org/2000/svg"><g><path d="m245.002 10.998c-70.814 0-134.598 30.055-179.328 78.091l-2.494 331.118c44.835 49.614 109.685 80.795 181.822 80.795 135.311 0 245.002-109.691 245.002-245.002s-109.691-245.002-245.002-245.002z" fill="#1c2e7a"/><path d="m265.933 200.219c-4.156.737-5.576 5.991-2.339 8.699 1.406 1.176 2.915 2.456 4.443 3.782 2.554 2.215.752 6.396-2.614 6.075-9.291-.886-23.235-.883-37.348 4.051-4.151 1.451-4.567 7.132-.65 9.131 1.361.695 2.736 1.465 4.043 2.305 1.555 1 .878 3.414-.969 3.493-1.256.054-2.695.145-4.277.293l2.37.705c-.764 2.692-1.828 8.396.85 13.498 1.931 3.68 5.393 6.287 10.308 7.768-.66 1.191-1.511 2.912-2.238 4.937 3.823-2.45 7.454-5.207 10.847-8.257 18.696-16.807 36.82-25.143 51.035-29.24 1.525-1.897 3.273-3.636 5.233-5.165 4.74-3.698 8.997-6.224 13.001-7.855-7.33-6.356-25.563-18.854-51.695-14.22z" fill="#88ce65"/><path d="m239.715 263.492c1.165-2.659 2.35-4.414 2.35-4.414-18.489-4.153-11.566-21.322-11.566-21.322-6.635.284-18.372 1.598-29.308 6.908-2.263 1.099-2.592 4.186-.63 5.761 1.326 1.064 2.328 2.791 2.328 5.576 0 4.987-5.69 7.509-11.398 8.723-3.659.778-5.847 4.458-4.915 8.08.758 2.948.166 6.488-4.051 9.949 11.875-1.918 23.574-4.885 33.846-8.023 8.322-2.544 16.199-6.337 23.344-11.238z" fill="#6faf46"/><path d="m74.984 268.594c-15.786-28.547-13.984-61.275-12.395-90.152 1.324-24.057 2.468-44.833-6.067-59.768-1.955-3.421-4.565-6.567-7.693-9.463-30.663 40.911-48.829 91.728-48.829 146.789 0 30.664 5.65 60.004 15.938 87.059 18.359-8.852 34.82-18.504 49.103-28.818 14.335-10.351 18.61-29.974 9.943-45.647z" fill="#ffc839"/><path d="m163.378 282.75c-25.554 1.327-48.917-4.515-57.16-26.75-6.588-17.77-8.694-38.763-8.413-59.765-16.97 13.665-29.895 5.201-37.428-3.558-1.011 25.3-.129 52.37 13.294 76.642 8.275 14.963 4.345 33.703-9.518 43.713-11.65 8.411-27.662 18.423-48.752 28.612 10.912 29.24 27.242 55.836 47.779 78.563 29.579.367 64.464-3.937 95.332-20.304-11.152-18.501-5.714-28.879-.557-33.87 2.906-2.812 4.423-6.744 4.437-10.788.028-8.24 4.888-13.216 9.478-16.078 4.327-2.699 6.863-7.491 7.031-12.587.309-9.384 4.829-16.791 10.296-22.37-13.18-2.476-21.284-12.916-25.819-21.46z" fill="#6faf46"/><path d="m55.218 119.417c10.199 17.847 6.152 45.37 5.085 75.174 7.52 8.787 20.467 17.349 37.483 3.66.087-14.536 1.348-29.125 3.099-42.701.747-5.792 3.766-10.992 8.264-14.715 4.012-3.321 6.569-8.334 6.569-13.951 0-5.04-2.062-9.592-5.385-12.874-1.899-1.876-2.909-4.517-2.594-7.168 1.362-11.447-7.575-22.091-19.694-22.091-3.809 0-7.366 1.074-10.387 2.936-3.624 2.234-7.993 2.621-11.985 1.403-6.306 6.772-12.236 13.897-17.75 21.35 2.966 2.758 5.446 5.741 7.295 8.977z" fill="#88ce65"/><path d="m297.963 270.517c-18.912 2.252-36.539 9.392-52.652 16.607.28.139.546.287.838.419-4.521 4.19-15.372 15.748-13.904 29.031.683 6.174 3.94 11.821 9.711 16.885 9.432-2.961 19.509-4.077 29.665-3.126 15.556 1.457 33.113.934 49.256-4.492-2.239-2.461-3.788-5.562-4.48-9.161-1.682-8.753 2.16-17.697 9.343-21.753l2.882-1.628c-10.075-3.664-23.436-6.92-30.659-22.782z" fill="#ffdd40"/><path d="m187.554 303.853c-5.625 5.619-10.337 13.14-10.653 22.726-.168 5.097-2.704 9.889-7.031 12.587-4.59 2.863-9.45 7.838-9.478 16.078-.014 4.044-1.531 7.977-4.437 10.788-5.23 5.06-10.737 15.666 1.046 34.657 17.702-9.124 34.145-22.139 47.59-40.434.143-.195.286-.389.43-.583 9.724-13.152 23.391-22.338 38.636-26.729-25.362-21.271 5.323-45.885 5.323-45.885-.661-.232-1.285-.477-1.878-.735-15.66 6.952-29.914 14.141-42.547 17.24-6.466 1.587-12.102 1.493-17.001.29z" fill="#ffc839"/><path d="m301.01 224.738c-14.57 3.808-33.79 12.106-53.653 29.962-2.61 2.346-5.363 4.513-8.232 6.506-1.899 3.766-4.444 10.509-2.38 16.762 1.373 4.162 4.532 7.375 9.404 9.575-.437.405-.935.881-1.473 1.419 16.545-7.397 34.681-14.676 54.159-16.65-3.177-6.157-5.374-14.368-5.911-25.583-.39-8.158 2.586-16.079 8.086-21.991z" fill="#73c3f9"/><path d="m242.065 259.078c-8.001 6.085-17.051 10.705-26.696 13.651-16.09 4.915-35.679 9.426-53.963 10.109 5.673 11.624 18.283 28.58 42.149 22.726 13.402-3.287 28.629-11.175 45.421-18.502l.004-.003c-20.909-7.339-6.915-27.981-6.915-27.981z" fill="#49b1f7"/><path d="m332.746 333.37c-26.469-3.574-23.126-42.99 3.577-42.423 11.043.235 25.112 3.554 42.806 12.499 59.98 30.323 70.309 13.995 99.633 24.325 0 0 .016.005.048.013 7.129 1.941 8.567 11.513 2.2 15.26-9.048 5.325-20.573 9.136-32.571 5.386-26.658-8.331-28.657-19.327-63.645-19.327-19.829.002-36.875 6.316-52.048 4.267z" fill="#ffc839"/><path d="m454.27 243.351c-33.96-2.565-80.235 7.5-89.27 9.568-1.216-3.697-6.231-12.333-26.701-14.543-5.802-.627-10.097-2.952-12.767-6.91-4.336-6.431-3.59-15.782-2.73-20.896-5.808 1.141-11.929 4.07-19.176 9.724-8.126 6.34-12.693 16.211-12.2 26.506.699 14.625 5.185 35.079 23.724 42.985 30.212 12.884 51.982 12.884 80.862 0 15.625-6.971 38.079-13.857 61.519-15.958.709-11.549 8.099-22.775-3.261-30.476z" fill="#6faf46"/><path d="m407.932 214.213c-25.717 1.29-38.088 6.787-54.129 1.597-12.735-4.12-22.033-7.531-32.584-4.885-1.351 8.607-1.941 26.905 16.918 28.941 24.755 2.673 25.75 14.851 25.75 14.851s55.151-13.144 92.541-9.661c-2.692-2.503-6.96-4.698-13.541-6.493-20.43-5.571-30.255-16.108-34.955-24.35z" fill="#88ce65"/><path d="m511.51 268.384c-2.554-6.391-6.462-14.339-12.197-22.127-.34.245-.687.484-1.047.709-5.979 3.729-13.752 3.869-23.103.417-6.923-2.556-15.572-3.846-24.974-4.277 13.951 7.532 6.444 19.006 5.402 30.905 16.03-1.619 32.598-1.054 47.825 3.229 5.358 1.506 10.159-3.688 8.094-8.856z" fill="#ffdd40"/><path d="m447.772 215.81c-17.643-2.1-31.245-2.148-42.314-1.459 4.498 8.355 14.277 19.443 35.43 25.212 5.435 1.482 9.278 3.24 11.974 5.215 8.201.527 15.701 1.765 21.783 4.01 11.852 4.376 19.984 2.694 25.552-1.32-10.252-14.419-26.687-28.594-52.425-31.658z" fill="#fee884"/><path d="m367.35 246.832c1.23 11.963-6.296 22.537-16.811 23.618s-20.036-7.739-21.267-19.702c-1.23-11.963 6.296-22.537 16.811-23.618 10.515-1.082 20.037 7.739 21.267 19.702z" fill="#5ea033"/><path d="m362.459 238.317c.856 8.321-5.195 15.76-13.516 16.615-8.321.856-15.76-5.195-16.615-13.516-.856-8.321 5.195-15.76 13.516-16.615 8.32-.856 15.759 5.195 16.615 13.516z" fill="#fcf2c8"/><path d="m362.893 242.54c.428 4.16-2.598 7.88-6.758 8.308s-7.88-2.598-8.308-6.758 2.598-7.88 6.758-8.308c4.161-.428 7.88 2.598 8.308 6.758z" fill="#543e5b"/><path d="m421.941 425.457c-17.209-11.996-38.914-25.225-65.01-37.569-74.759-35.362-107.348 15.362-171.533 86.695-4.922 5.47-9.564 10.496-13.969 15.156 23.226 7.305 47.936 11.262 73.574 11.262 69.557.001 132.341-28.991 176.938-75.544z" fill="#2a428c"/><path d="m249.802 500.941c46.982-.903 90.726-15.021 127.663-38.806-14.265-19.066-33.327-30.729-54.284-30.729-32.841 0-61.04 28.616-73.379 69.535z" fill="#3e60a3"/><path d="m245.002 10.998c-43.713 0-84.74 11.465-120.267 31.53 11.177 12.823 21.746 32.129 25.258 60.703 8.482 69 46.119 72.592 113.894 49.5 85.513-29.136 97.363 63.053 210.757 17.735-34.702-93.13-124.42-159.468-229.642-159.468z" fill="#2a428c"/><path d="m446.886 117.172c-44.18-64.131-118.118-106.174-201.884-106.174-21.335 0-42.028 2.738-61.756 7.867 2.719 24.062 15.095 90.612 67.998 70.298 64.205-24.653 111.728-.004 133.516 18.031 15.255 12.627 38.08 20.54 62.126 9.978z" fill="#3e60a3"/></g></svg>