<svg id="Layer_1" enable-background="new 0 0 512 512" height="512" viewBox="0 0 512 512" width="512" xmlns="http://www.w3.org/2000/svg"><g><path d="m245.002 10.998c-79.698 0-150.496 38.063-195.239 96.992l17.793 316.943c23.473 24.648 52.035 44.399 83.993 57.598l73.058 17.62c6.726.555 13.525.852 20.395.852 135.311 0 245.002-109.691 245.002-245.002 0-135.312-109.691-245.003-245.002-245.003z" fill="#49b1f7"/><path d="m406.388 200.891c-1.919-1.266-3.642-2.516-5.219-3.753-39.061-2.945-86.295 27.717-121.135 67.226-1.297 1.471-2.583 2.897-3.863 4.283.405.208.795.423 1.209.628-1.18 3.412-3.629 12.598.954 20.15 2.398 3.951 6.328 6.79 11.714 8.508 4.503-5.861 8.553-11.546 12.117-16.948 37.733-57.189 89.996-70.803 107.6-73.854-1.523-2.133-2.606-4.274-3.377-6.24z" fill="#b26847"/><path d="m291.018 296.672c-21.185-6.349-11.751-28.144-11.751-28.144-.703-.337-1.379-.679-2.053-1.022-39.687 43.544-71.496 47.023-169.949 84.579-31.293 11.937-57.824 16.537-79.537 17.208 10.66 20.401 24.095 39.121 39.827 55.641 104.779-7.047 183.189-75.302 223.463-128.262z" fill="#945230"/><path d="m398.999 163.113c3.945-3.455 8.641-5.954 13.668-7.264-15.039-4.194-41.107-6.388-78.859 7.726-1.87 10.347-3.094 22.07-1.902 32.176 1.242 10.518-11.144 16.831-18.95 9.86-4.828-4.312-12.381-12.366-17.436-23.96-12.356 6.441-24.043 8.816-35.599 8.454.454.685.924 1.371 1.43 2.061-3.508 4.511-17.54 24.184-13.06 44.931 2.849 13.187 12.632 24.008 29.088 32.179-.188.545-.409 1.249-.628 2.058.835-.919 1.672-1.85 2.515-2.806 35.576-40.344 84.083-71.488 123.607-67.017-21.122-16.298-13.447-30.013-3.874-38.398z" fill="#c67859"/><path d="m279.267 268.528c-57.149-27.37-16.017-76.331-16.017-76.331-.531-.692-1.021-1.374-1.49-2.05-16.11-.094-31.911-5.645-48.856-13.122-5.626 18.796-11.537 41.258-15.846 64.519-1.934 10.441-10.345 14.726-16.958 15.223-8.289.63-16.207-3.851-19.256-12.66-8.536-24.663-15.555-58.219-9.584-93.903-21.404-7.529-45.601-13.067-74.084-12.982-9.68 37.53-13.357 83.734-5.191 129.872 2.535 14.332-16.174 22.249-24.615 10.386-15.888-22.317-31.384-52.127-37.998-88.81-6.102 21.393-9.372 43.979-9.372 67.33 0 42.514 10.834 82.495 29.883 117.343 21.158-.982 46.714-5.69 76.615-17.096 100.774-38.442 131.724-41.173 172.769-87.719z" fill="#b26847"/><path d="m198.572 241.824c4.3-23.213 10.157-45.521 15.736-64.185-19.348-8.444-40.145-19.539-64.58-27.971-5.928 34.685.305 67.912 9.661 94.942 6.826 19.724 35.381 17.737 39.183-2.786z" fill="#ff9433"/><path d="m27.718 142.728c-8.116 15.536-14.611 32.05-19.268 49.32 6.988 35.677 22.242 64.662 37.664 86.325 9.395 13.197 30.209 4.404 27.385-11.547-9.328-52.702-3.099-97.803 5.386-129.607-15.663-.077-32.641 1.564-51.167 5.509z" fill="#ff9433"/><path d="m324.159 209.566c6.111-1.756 10.022-7.681 9.277-13.996-1.201-10.177.133-22.15 2.081-32.622-11.489 4.185-24.066 9.87-37.78 17.511-1.227.684-2.446 1.32-3.66 1.925 5.074 11.556 12.636 19.716 17.855 24.376 3.328 2.972 7.938 4.038 12.227 2.806z" fill="#ffb332"/><path d="m155.445 132.014c-2.308-.341-4.444-1.654-5.728-3.828-8.058-13.635-28.792-37.722-65.896-12.812-2.646 7.482-5.053 15.477-7.159 23.899 28.575-.171 52.843 5.323 74.305 12.833 1.027-6.635 2.488-13.345 4.478-20.092z" fill="#c67859"/><path d="m254.698 167.791c-1.845 7.655.394 15.852 6.653 24.375l-.013.017c11.338.153 22.82-2.372 34.955-8.825-2.587-5.495-4.64-11.833-5.542-19.009-3.155 1.344-7.039.641-9.478-2.295-3.406-4.1-7.974-8.427-13.678-11.363-4.325 2.942-10.853 8.616-12.897 17.1z" fill="#dd9176"/><path d="m263.237 192.179c-17.05-22.249-1.343-35.966 5.852-40.673-9.82-5.661-23.271-7.346-40.252 4.191-2.884 1.959-6.525 1.737-9.161-.122-2.272 6.841-4.761 14.664-7.296 23.21 17.664 7.831 34.072 13.616 50.857 13.394z" fill="#c67859"/><path d="m389.518 143.414c-2.678 1.605-6.069 1.424-8.634-.355-6.889-4.778-20.95-11.277-33.427 3.338-2.497 2.925-6.677 3.824-10.054 1.983-.071-.039-.148-.078-.219-.116-1.271 4.928-2.667 11.012-3.766 17.554 37.448-14.11 63.454-12.194 78.666-8.108 1.866-.404 3.772-.645 5.697-.711 2.227-.076 4.077-.437 5.713-.94-6.038-9.542-17.82-22.325-33.976-12.645z" fill="#dd9176"/><path d="m337.403 148.38c-9.525-5.193-28.692-11.269-42.845 12.626-1.246 2.103-3.223 3.393-5.358 3.832.932 7.258 3.021 13.678 5.665 19.26.996-.507 1.995-1.031 3-1.591 13.503-7.523 25.904-13.15 37.248-17.316 1.046-6.031 2.33-11.657 3.511-16.277-.415-.142-.824-.317-1.221-.534z" fill="#ffdd40"/><path d="m69.214 118.178c-4.194-3.563-10.951-8.193-19.451-10.188-8.805 11.597-16.606 23.996-23.261 37.079 18.787-4.096 35.987-5.826 51.846-5.797 2.52-9.73 5.267-18.272 7.886-25.464-2.234 1.399-4.527 2.972-6.884 4.744-3.035 2.28-7.242 2.083-10.136-.374z" fill="#ffc839"/><path d="m221.024 156.34c-1.734-.782-3.215-2.165-4.064-4.056-6.91-15.398-24.083-41.518-55.873-21.465-2.228 1.405-4.871 1.628-7.162.82-1.98 6.679-3.461 13.333-4.507 19.932 24.347 8.355 45.086 19.377 64.363 27.834 2.515-8.491 4.985-16.263 7.243-23.065z" fill="#ffc839"/><path d="m496.39 215.05c-.038-.133-.078-.266-.119-.399-.153-.497-.08-.995.127-1.422-8.686-6.942-20.904-8.583-33.467-7.794-12.414.78-19.628-4.411-22.78-7.505-2.555-2.508-5.449-4.682-8.737-6.099-18.832-8.111-26.205 12.115-26.205 12.115 2.543 7.338 9.428 17.862 28.066 20.792 24.529 3.856 32.4-4.561 46.371 3.114 8.825 4.849 19.513-3.121 16.744-12.802z" fill="#c67859"/><path d="m405.627 205.058c1.566-3.592 9.46-19.014 26.655-11.047 2.999 1.39 5.625 3.443 7.983 5.76 3.15 3.094 10.364 8.289 22.783 7.509 12.488-.784 24.637.832 33.312 7.669.026-.024-.005.004.021-.019-.557-1.171.113-2.512 1.338-2.731 3.924-.7 11.827-2.958 13.926-9.943.729-2.427.292-5.059-.929-7.28l-.027-.049c-1.524-2.772-4.26-4.646-7.391-5.092-5.452-.776-14.919-4.068-24.176-16.594-10.405-14.08-21.8-17.991-28.757-19.479-2.437-.521-4.927-4.327-10.054-4.94-9.642-1.152-11.831 5.757-22.66 6.127-7.627.261-14.961 3.264-20.702 8.292-10.235 8.966-18.308 24.024 8.678 41.817z" fill="#dd9176"/><path d="m194.587 465.866c-7.483 2.893-13.41 3.073-17.655.5-10.816-6.556-10.749-29.754-10.69-50.222.005-1.488.009-2.962.009-4.414 0-13.398 4.115-24.453 8.096-35.145 5.431-14.586 10.56-28.364 6.003-47.207-5.46-22.579 15.301-38.643 27.033-45.727-4.143-3.352-22.506-16.181-45.871-1.901-40.215 24.579-22.25 110.567-26.13 130.377s19.445 42.57 16.609 64.179c-.285 2.168-.413 4.236-.441 6.223 15.02 6.203 30.791 10.953 47.139 14.081.816-9.312 9.009-15.076 15.985-18.323-2.912-2.23-5.961-3.735-8.654-4.738-4.422-1.645-8.303-4.311-11.433-7.683z" fill="#c67859"/><path d="m453.839 171.905c1.201 8.151-3.634 15.614-10.798 16.669-7.164 1.056-13.946-4.696-15.147-12.847s3.634-15.614 10.798-16.669c7.165-1.056 13.946 4.696 15.147 12.847z" fill="#945230"/><path d="m450.236 166.224c.835 5.669-3.083 10.942-8.753 11.778-5.669.835-10.942-3.083-11.778-8.753-.835-5.669 3.083-10.942 8.753-11.778 5.67-.835 10.943 3.083 11.778 8.753z" fill="#deeeff"/><path d="m450.66 169.101c.418 2.835-1.542 5.471-4.376 5.889-2.835.417-5.471-1.542-5.889-4.377s1.542-5.471 4.376-5.889c2.835-.417 5.472 1.542 5.889 4.377z" fill="#543e5b"/><path d="m225.013 496.677c-.23-3.671-1.267-7.269-3.169-10.417-2.206-3.65-4.97-6.395-7.829-8.465-7.103 3.056-16.184 8.803-17.322 18.434 9.132 1.826 18.447 3.141 27.915 3.921.327-1.096.481-2.264.405-3.473z" fill="#deeeff"/><path d="m245.002 10.998c-37.48 0-72.99 8.422-104.75 23.47 7.919 20.552 26.363 45.58 68.807 61.096 68.447 25.022 168.561 29.623 194.414-26.398-42.723-36.273-98.036-58.168-158.471-58.168z" fill="#73c3f9"/><path d="m489.5 271.53c-37.614-12.234-97.551-22.794-127.75 19.412-42.701 59.678-160.363 131.635-63.437 204.226 104.782-23.254 184.301-113.592 191.187-223.638z" fill="#73c3f9"/><path d="m245.002 10.998c-7.104 0-14.137.306-21.088.899 10.979 39.222 65.286 72.833 140.515 30.147-35.333-19.771-76.061-31.046-119.427-31.046z" fill="#9bd8f9"/><path d="m480.228 324.635c-18.679-8.708-56.06-18.995-89.978 14.923-39.391 39.39-92.138 94.659-33.512 134.506 59.283-30.436 104.528-84.328 123.49-149.429z" fill="#9bd8f9"/><path d="m208.265 284.405s-.769-.718-2.188-1.75c-12.137 7.387-32.826 23.756-27.186 47.076 7.86 32.499-14.14 50.499-14.14 81.999 0 29.78-1.781 68.487 30.979 55.304-3.912-3.784-6.807-8.609-8.302-13.986-3.02-10.859-3.328-22.964-3.098-30.848.149-5.135 1.999-10.049 5.164-14.096 17.351-22.19 21.561-43.684 22.423-55.704.442-6.177 2.413-12.116 5.62-17.414 16.734-27.648-9.272-50.581-9.272-50.581z" fill="#dd9176"/></g></svg>