<svg id="Layer_1" enable-background="new 0 0 512 512" height="512" viewBox="0 0 512 512" width="512" xmlns="http://www.w3.org/2000/svg"><g><path d="m245.002 10.998c-123.865 0-226.243 91.924-242.68 211.271l155.833 262.875c26.996 10.237 56.263 15.858 86.847 15.858 135.311 0 245.002-109.691 245.002-245.002s-109.691-245.002-245.002-245.002z" fill="#45304c"/><path d="m29.164 140.025c7.037 55.927 100.264 34.048 171.187 73.215 83.826 46.292 104.174-78.293 130.174-123.79 13.459-23.552 7.624-46.688-1.136-63.529-26.309-9.652-54.732-14.923-84.387-14.923-93.349 0-174.485 52.216-215.838 129.027z" fill="#543e5b"/><path d="m274.562 67.021c8.728-20.844-.376-40.789-11.412-55.348-5.993-.439-12.043-.675-18.148-.675-69.958 0-133.056 29.327-177.69 76.353 16.723 39.098 70.576 41.271 116.111 54.599 54.666 16 74-34 91.139-74.929z" fill="#6c5475"/><path d="m365.525 128.715c-.039-.005-29.932-3.92-14.295 30.675 4.716-10.303 9.454-20.639 14.295-30.675z" fill="#f98"/><path d="m335.187 193.746c-6.009-1.987-34.403-9.367-18.725 34.749 6.466-10.463 12.653-22.274 18.725-34.749z" fill="#f98"/><path d="m441.254 42.153.271-.564s-24.667-17.043-24.667 10.375c0 0-26.557-7.931-20.006 22.243 13.017-17.377 27.476-29.466 44.402-32.054z" fill="#f98"/><path d="m316.066 229.132c-5.742-1.955-44.279-13.68-25.526 30.971 9.146-7.404 17.551-18.156 25.526-30.971z" fill="#f98"/><path d="m395.317 76.29c-6.704-1.887-25.763-4.997-15.508 24.662 4.975-8.909 10.119-17.233 15.508-24.662z" fill="#f98"/><path d="m379.301 101.869c-4.921-.891-28.132-3.661-13.776 26.845 4.483-9.295 9.054-18.33 13.776-26.845z" fill="#f98"/><path d="m350.977 159.942c-4.362-.78-33.01-4.621-15.332 32.865 5.155-10.629 10.232-21.724 15.332-32.865z" fill="#f98"/><path d="m71.624 232.806c-4.404-11.43-19.434-40.797-48.272-6.574 15.625 1.519 31.97 3.678 48.272 6.574z" fill="#fc7e65"/><path d="m18.669 225.793c-.269-8.149-2.327-21.322-12.545-24.374-1.558 6.846-2.83 13.8-3.801 20.85l1.394 2.352c4.88.326 9.871.714 14.952 1.172z" fill="#fc7e65"/><path d="m126.207 245.786c-3.815-16.051-15.688-43.824-49.838-12.116 17.04 3.181 33.946 7.179 49.838 12.116z" fill="#fc7e65"/><path d="m208.004 266.943c-.726 2.505-.351 5.044 1.112 7.564-.448.483-1.034 1.157-1.671 1.977 10.82 3.014 20.535 4.582 29.743 4.517-3.707-5.87-12.257-17.694-23.041-21.639-2.486 1.747-5.192 4.303-6.143 7.581z" fill="#f98"/><path d="m211.025 274.706c-4.815-6.837.674-12.004 4.798-14.661-8.48-3.806-18.494-2.985-28.688 9.677 7.839 2.958 15.08 5.364 21.893 7.19 1.133-1.399 1.997-2.206 1.997-2.206z" fill="#fc7e65"/><path d="m287.64 262.32c.616-.443 1.227-.906 1.837-1.379-9.064-6.085-45.345-27.263-50.003 20.011 16.329-.604 31.227-6.455 48.166-18.632z" fill="#f98"/><path d="m158.014 257.668c8.718 3.836 16.751 7.231 24.265 10.184-4.191-14.838-17.567-48.269-47.912-19.411 8.255 2.801 16.186 5.867 23.647 9.227z" fill="#fc7e65"/><path d="m455.637 66.236c-.784-2.823-4.236-3.861-6.417-1.906-10.402 9.325-45.433 45.151-59.446 114.624-8.498 42.131-21.646 76.612-40.194 105.415-19.204 29.821-43.628 52.691-74.667 69.919-21.159 11.743-40.798 25.513-58.533 39.029.311.114.613.233.931.344-2.251 4.174-7.354 15.384-2.812 24.24 2.14 4.172 6.096 7.18 11.798 9.007 17.307-17.222 37.414-35.604 65.344-52.838 88.549-54.637 109.731-157.116 114.026-185.844 1.622-10.851 3.817-21.615 6.794-32.175 14.958-53.062 38.046-75.406 47.697-82.786-2.09-1.753-3.689-4.034-4.521-7.029z" fill="#deeeff"/><path d="m219.525 392.815c-.591-.187-1.167-.379-1.73-.576-12.385 9.393-23.863 18.694-34.269 27.133-14.206 11.522-26.474 21.473-35.444 26.924-6.573 3.995-12.042 9.731-15.813 16.59-1.359 2.471-2.849 5.277-4.402 8.348 9.714 5.298 19.833 9.945 30.287 13.909 26.48-13.528 45.095-35.409 69.345-59.431-24.234-7.112-7.974-32.897-7.974-32.897z" fill="#d3dcfb"/><path d="m503.046 75.724c-.016-.073-.033-.146-.051-.22-.066-.273-.009-.54.117-.763-4.454-4.043-10.995-5.343-17.805-5.343-6.729 0-10.448-3.047-12.045-4.825-1.295-1.441-2.783-2.713-4.511-3.589-9.893-5.018-14.56 5.653-14.56 5.653 1.124 4.048 4.485 9.964 14.448 12.178 13.113 2.914 17.648-1.364 24.931 3.254 4.601 2.917 10.642-1.024 9.476-6.345z" fill="#6faf46"/><path d="m462.368 44.01c.314-1.206.694-2.354 1.101-3.419-1.292.053-2.801-.078-4.662-.525-83.119-19.99-110.852 175.179-172.167 219.254-26.465 19.024-47.948 22.635-77.707 14.84.063.116.116.232.183.348-2.039 2.196-6.855 8.146-6.988 15.476-.086 4.734 1.792 9.131 5.584 13.076l.715 6.651c-2.442 1.418-8.836 5.742-10.324 12.904-1.106 5.321.743 10.938 5.498 16.704l-1.335 8.16c-1.468 2.198-9.893 15.651-5.544 28.505 2.673 7.9 9.596 13.842 20.589 17.676-.212.392-.453.864-.704 1.373 17.848-13.626 37.753-27.623 59.034-39.434 63-34.966 99-94.034 115.604-176.349 13.858-68.7 48.047-104.004 58.977-113.803 1.353-1.213 3.484-.561 3.97 1.19.056.199.121.407.188.615.786-1.532 4.093-7.13 10.136-6.563-3.096-4.658-3.825-10.248-2.148-16.679z" fill="#b4d667"/><path d="m203.692 348.048 1.5-9.167c-15.667-18.333 4.833-28.333 4.833-28.333l-.878-8.167c-13.439-13.439 1.877-27.676 1.877-27.676-.001-.002-.002-.004-.003-.005-15.239-3.765-32.621-10.622-54.007-20.032-45.481-20.481-104.874-29.378-154.696-32.406-1.52 11.03-2.318 22.29-2.318 33.738 0 9.306.531 18.499 1.549 27.555 3.741-1.099 7.809-1.69 12.032-1.69 8.504 0 17.567 2.31 24.335 7.455 5.502 4.183 8.373 9.445 8.083 14.819-.609 11.326-14.998 19.784-32.081 18.873-1.616-.087-3.197-.279-4.755-.524 18.101 64.217 61.797 118.159 120.025 149.454 1.551-3.065 3.038-5.867 4.395-8.333 3.618-6.579 8.862-12.131 15.279-16.031 15.633-9.5 40.291-31.801 70.661-54.758l.003-.005c-38.667-12.233-15.834-44.767-15.834-44.767z" fill="#88ce65"/><path d="m511.461 65.372-.013-.027c-.732-1.556-2.159-2.653-3.841-3.005-1.501-.314-3.549-1.029-5.804-2.603-3.202.91-5.654-.762-8.217-2.513-2.169-1.483-4.416-3.012-6.971-2.518-1.821.354-3.486 1.697-5.089 4.105-2.344 3.524-6.855 4.535-10.37 4.746.755.61 1.455 1.292 2.106 2.016 1.597 1.778 5.315 4.825 12.045 4.825 6.769 0 13.273 1.285 17.726 5.271-.012-.054-.024-.109-.038-.164-.146-.603.249-1.204.865-1.274 2.142-.245 6.485-1.196 7.855-4.895.477-1.286.33-2.723-.254-3.964z" fill="#88ce65"/><path d="m495.14 52.565c-5.14-7.955-11.16-10.453-14.866-11.492-1.298-.364-2.514-2.503-5.261-3.008-5.364-.985-6.687 2.992-13.134 2.503-2.034 5.586-3.254 13.196.872 20.127 1.729-.184 3.725.135 6 1.289 1.465.743 2.749 1.78 3.898 2.954 3.586-.42 7.755-1.732 10.126-5.296 6.783-10.196 10.963 5.355 20.645 1.105-2.539-1.402-5.488-3.861-8.28-8.182z" fill="#fc7e65"/><path d="m481.277 50.501c.215 4.113-2.541 7.601-6.156 7.791-3.616.189-6.721-2.991-6.937-7.104s2.541-7.601 6.156-7.791c3.616-.19 6.721 2.991 6.937 7.104z" fill="#543e5b"/><path d="m479.75 47.504c.15 2.861-2.048 5.302-4.909 5.452s-5.302-2.048-5.452-4.909 2.048-5.302 4.909-5.452c2.861-.149 5.302 2.048 5.452 4.909z" fill="#deeeff"/><path d="m479.826 48.956c.075 1.431-1.024 2.651-2.454 2.726s-2.651-1.024-2.726-2.454c-.075-1.431 1.024-2.651 2.454-2.726 1.431-.075 2.651 1.024 2.726 2.454z" fill="#543e5b"/><path d="m490.004 256c0-25.633-3.944-50.343-11.245-73.565-21.504 7.544-44.447 26.872-52.233 73.565-16 95.947-53 133.568-116 156.257-42.59 15.339-56.377 55.038-35.204 86.877 121.003-14.935 214.682-118.09 214.682-243.134z" fill="#543e5b"/><g fill="#fc7e65"><ellipse cx="269.263" cy="302.382" rx="13.263" ry="9" transform="matrix(.99 -.144 .144 .99 -40.681 41.859)"/><ellipse cx="83.525" cy="336.882" rx="21.237" ry="14.411"/><path d="m145.492 362.125c.715 4.919-4.582 9.76-11.831 10.814s-13.704-2.081-14.419-6.999c-.715-4.919 4.582-9.76 11.831-10.814s13.704 2.08 14.419 6.999z"/><ellipse cx="45.306" cy="372.346" rx="10.272" ry="15.138" transform="matrix(.054 -.999 .999 .054 -328.936 397.582)"/><ellipse cx="194.509" cy="341.586" rx="18.837" ry="12.783" transform="matrix(.99 -.144 .144 .99 -47.094 31.517)"/><ellipse cx="215.358" cy="306.254" rx="11.544" ry="17.012" transform="matrix(.054 -.999 .999 .054 -102.024 504.847)"/><ellipse cx="148.872" cy="306.031" rx="14.366" ry="21.171" transform="matrix(.054 -.999 .999 .054 -164.715 438.246)"/><ellipse cx="79.809" cy="282.6" rx="16.894" ry="24.895" transform="matrix(.3 -.954 .954 .3 -213.721 274.097)"/><path d="m16.208 280.437c-5.294-.285-10.334.311-14.832 1.599 1.529 14.408 4.316 28.465 8.248 42.057 1.377.196 2.78.342 4.212.419 17.935.965 33.006-8.119 33.66-20.29.656-12.172-13.353-22.82-31.288-23.785z"/></g></g></svg>