<svg id="Layer_1" enable-background="new 0 0 512 512" height="512" viewBox="0 0 512 512" width="512" xmlns="http://www.w3.org/2000/svg"><g><path d="m245.002 10.998c-123.62 0-225.837 91.561-242.581 210.563.931 1.505 145.98 235.869 218.662 278.277 7.871.763 15.847 1.164 23.918 1.164 135.311 0 245.002-109.691 245.002-245.002s-109.69-245.002-245.001-245.002z" fill="#88ce65"/><path d="m137.193 326.696c-2.534 14.01-8.14 32.454-20.492 41.935-.354-.306-4.249-6.496-12.153-7.052-4.388-.314-8.579 1.156-11.801 4.139-9.066 8.394-23.502 23.207-38.347 44.206 10.92 13.506 23.245 25.825 36.755 36.74 15.547-28.625 36.878-47.218 41.602-51.997.982-1.491 5.965-10.703 20.463-28.515 13.52-16.613 8.016-32.612 1.018-43.109-4.669-7.003-15.533-4.708-17.045 3.653z" fill="#b26847"/><path d="m89.98 445.718c12.588 10.298 26.222 19.36 40.714 27.02 2.842-10.113 2.472-19.274 1.721-24.967-.243-1.845-1.504-3.321-3.289-3.85-3.894-1.17-5.64 2.656-6.579 3.436-.928 1.085-2.704.569-2.914-.849-2.933-19.828 4.467-38.568 15.81-56.273-14.1 12.384-32.297 31.329-45.463 55.483z" fill="#ffc839"/><path d="m398.042 111.594c-.368-5.565-.075-3.543-.11-5.594-1.184-.033-47.927-15.771-81.578 7.793-14.689 10.285-27.283 16.226-37.431 17.655-8.012 1.128-14.506 6.873-16.542 14.639-2.688 10.243-8.461 16.932-17.206 19.896-.612.23-6.978 2.682-15.238 7.717 1.107.071 2.228.126 3.371.152-.903 3.673-2.102 11.67 2.48 17.637 2.448 3.187 6.155 5.269 11.054 6.25 6.18-14.751 14.663-17.033 20.965-16.15 4.874.683 9.609-1.786 11.983-6.098 6.32-11.48 13.582-16.547 27.29-20.625 5.894-1.753 10.351-1.782 13.664-1.065 7.756 1.678 15.876.464 23.028-2.974 18.014-8.661 37.538-12.639 48.627-14.336-3.926-12.846 4.55-22.839 5.643-24.897z" fill="#dd9176"/><path d="m242.066 214.386c1.454-7.558 3.301-13.459 5.382-18.049-19.389-3.652-12.154-23.962-12.154-23.962-1.034 0-2.04-.024-3.032-.06-11.82 6.831-28.772 19.441-37.775 39.127-3.059 6.691-7.172 12.329-12.223 16.756-11.812 10.356-12.261 28.341-1.314 39.35 6.5 6.537 11.537 12.806 15.398 18.78 5.946-8.297 11.961-20.137 14.793-36.194 3.862-21.902 13.223-26.661 20.323-26.841 5.188-.131 9.622-3.81 10.602-8.907z" fill="#c67859"/><path d="m353.165 48.55c-7.33-.956-14.776 1.569-19.771 7.018-3.913 4.269-10.607 8.896-21.744 10.389-20.977 2.811-38.919-1.019-58.463 10.684-2.356 1.411-4.982 2.337-7.713 2.622-4.826.503-13.204 2.669-19.085 11.232-2.749 4.003-6.955 6.815-11.712 7.791-9.139 1.874-23.5 7.481-29.938 24.241-.413 1.076-.946 2.085-1.54 3.052.145 6.554 1.739 21.935 12.72 33.711 8.571 9.19 20.953 14.071 36.819 14.541 7.497-4.38 12.963-6.443 12.963-6.443 11.086-3.757 15.996-12.785 18.13-20.921 1.882-7.174 7.955-12.5 15.299-13.533 8.185-1.152 20.475-5.582 38.083-17.911 26.009-18.212 60.829-12.904 81.134-7.351.468-14.068 10.76-25.256 23.41-28.851-10.547-9.728-32.697-25.588-68.592-30.271z" fill="#b26847"/><path d="m172.749 133.873c-11.934 4.044-31.663 13.84-39.153 35.69-1.927 5.621-6.279 10.065-11.886 12.031-11.192 3.925-31.026 9.431-54.517 9.574-22.137.135-31.872 10.016-36.109 17.802-3.022 5.553-8.487 9.321-14.766 10.067-4.049.481-8.858 1.262-13.908 2.507-1.585 11.258-2.41 22.76-2.41 34.456 0 58.849 20.756 112.846 55.336 155.087 14.561-20.625 28.878-35.423 38.43-44.267 6.047-5.598 15.577-4.885 20.765 1.518l1.904 2.349c13.67-9.572 19.643-29.395 22.234-43.723 1.264-6.988 10.381-8.997 14.321-3.089 6.932 10.397 11.879 25.589-.933 41.33-15.101 18.554-27.835 37.229-32.576 56.635 23.312-34.535 50.208-20.868 63.754-10.141 1.292-25.24 11.116-49.19 21.228-71.863 12.713-28.506-4.219-55.014-22.453-73.351-10.356-10.414-9.851-27.456 1.204-37.124 4.753-4.156 9.191-9.756 12.639-17.294 9.369-20.487 27.806-33.286 39.442-39.691v-.001c-54.04 0-50.555-49.85-50.555-49.85-2.069 5.384-6.529 9.497-11.991 11.348z" fill="#945230"/><path d="m497.037 163.745c-9.565-6.901-30.098-18.282-67.589-24.892-19.605-3.457-28.372-12.838-31.463-23.612-.46-1.603-.783-3.184-.993-4.74-5.471 7.282-11.893 20.492-1.856 34.826 14.221 20.309 46.524 4.1 79.053 25.61 8.188 5.415 22.018 2.384 26.43-5.745-1.249-.183-2.478-.65-3.582-1.447z" fill="#fbb989"/><path d="m448.498 84.704c-23.65-19.788-59.365 2.866-50.861 32.507 3.091 10.774 11.858 20.155 31.463 23.612 37.491 6.611 58.023 17.991 67.589 24.893 4.158 3 10.083 1.456 12.182-3.221 4.469-9.962 7.186-25.628-13.84-33.739 0 0-16.757-7.186-30.344-26.59-4.269-6.098-9.912-12.211-16.189-17.462z" fill="#fcd2ae"/><ellipse cx="499.825" cy="147.222" fill="#b26847" rx="4.5" ry="6.875" transform="matrix(.979 -.206 .206 .979 -19.587 105.871)"/><path d="m38.489 124.121c56.144 25.98 127.93-27.4 159.511-58.981 23.806-23.806 29.601-41.51 29.191-53.494-79.314 5.699-148.175 49.145-188.702 112.475z" fill="#b4d667"/><path d="m452.323 107.036c.422 8.055-4.975 14.886-12.056 15.257-7.08.371-13.162-5.858-13.585-13.913-.422-8.055 4.975-14.886 12.056-15.257s13.163 5.858 13.585 13.913z" fill="#b26847"/><path d="m449.333 101.168c.294 5.603-4.01 10.383-9.613 10.676-5.603.294-10.383-4.01-10.676-9.613-.294-5.603 4.01-10.383 9.613-10.676 5.602-.294 10.382 4.01 10.676 9.613z" fill="#deeeff"/><path d="m449.482 104.011c.147 2.801-2.005 5.191-4.806 5.338s-5.191-2.005-5.338-4.806 2.005-5.191 4.806-5.338 5.191 2.005 5.338 4.806z" fill="#543e5b"/><path d="m319 222.382c-56 33.618-70.939 83.989-63 126 9.303 49.231-6.634 112.428 51.439 144.58 105.066-27.61 182.565-123.23 182.565-236.962 0-12.397-.929-24.575-2.706-36.477-42.053-13.64-114.923-29.184-168.298 2.859z" fill="#b4d667"/><path d="m484.912 305.865c-39.961-34.957-87.555-47.256-122.613-27.015-49.667 28.675-55.364 111.789-12.726 185.641 1.989 3.445 4.048 6.809 6.172 10.089 65.401-33.199 113.897-94.875 129.167-168.715z" fill="#cbe87c"/><path d="m221.083 499.837c-31.035-31.674-39.671-61.681-37.735-90.049-13.342-10.607-39.825-24.232-62.997 8.791-2.677 9.202-3.62 18.562-2.202 28.147.398 2.688 3.772 3.67 5.538 1.604l1.705-1.994c1.777-2.078 5.179-1.081 5.536 1.629.747 5.66 1.073 14.42-1.582 24.06 27.803 14.917 58.815 24.622 91.737 27.812z" fill="#c67859"/></g></svg>