<svg id="Layer_1" enable-background="new 0 0 512 512" height="512" viewBox="0 0 512 512" width="512" xmlns="http://www.w3.org/2000/svg"><g><path d="m245.002 10.998c-135.311 0-245.002 109.691-245.002 245.002 0 31.459 5.936 61.53 16.738 89.163l228.264 155.839c135.311 0 245.002-109.691 245.002-245.002s-109.691-245.002-245.002-245.002z" fill="#45304c"/><path d="m388.056 101.106c-1.215-1.056-47.108-2.501-34.019-51.478 2.132-7.978 6.708-14.67 12.678-19.485-12.157-.152-31.108 3.202-46.853 21.895-1.056 1.254-.187 3.169 1.452 3.169h4.296c1.709 0 2.561 2.062 1.354 3.271-6.365 6.379-20.343 22.064-31.928 46.856-.596 1.275.323 2.74 1.731 2.74h4.204c1.347 0 2.275 1.345 1.79 2.601-3.329 8.608-15.128 36.388-33.432 49.958-1.485 1.101-.713 3.449 1.135 3.449 1.698 0 2.562 2.04 1.374 3.252-9.229 9.416-38.757 37.737-84.371 64.52-.99 5.532-1.041 11.953 1.934 17.267 3.281 5.858 9.605 9.266 18.797 10.125 1.73.162 3.226 1.105 4.1 2.587.852 1.442.955 3.151.284 4.688-4.225 9.685-7.776 23.327-.712 33.322 6.505 9.201 20.686 13.229 42.197 12.002-.264 1.167-.606 2.797-.961 4.755 7.815-9.244 11.08-18.645 12.245-26.378 1.496-9.923 6.285-19.363 13.484-26.582 11.909-11.938 29.056-32.934 43.118-65.159 13.79-31.601 33.73-47.51 47.848-55.261 6.515-7.424 14.755-12.968 25.469-15.602-8.835-7.598-8.49-19.354-7.214-26.512z" fill="#ff4155"/><path d="m246.859 438.57c-55.261-14.338-67.429-81.213-25.175-99.815 16.392-7.216 26.846-15.957 33.452-24.689.491-2.412.864-3.848.864-3.848-55.643 3.964-49.087-26.947-42.043-43.096 1.841-4.22-1.035-8.94-5.619-9.368-20.52-1.92-21.336-16.436-19.128-26.925-26.605 15.785-58.801 31.128-95.738 41.86-3.158.918-3.805 5.102-1.06 6.912l5.331 3.515c2.539 1.675 2.235 5.493-.543 6.73-14.179 6.314-48.909 23.774-80.462 55.317 11.115 28.433 27.393 54.274 47.674 76.384l144.89 63.749c14.338-14.686 27.611-30.532 37.557-46.726z" fill="#e80054"/><path d="m261.656 365.765c6.685 5.48 16.377 6.513 28.921 3.128 2.135-11.909 3.158-25.081 2.245-39.287-.195-3.025 3.039-5.068 5.695-3.608l3.089 1.699c2.158 1.186 4.857.077 5.551-2.286 3.637-12.388 14.321-47.785 27.28-81.59 11.61-30.286 13.547-80.043 38.684-104.069-14.346 6.888-37.135 22.825-52.541 58.131-13.982 32.041-31.018 52.883-42.805 64.7-7.42 7.439-12.341 17.028-13.906 27.418-1.016 6.742-3.735 15.043-10.141 23.409-2.175 10.362-6.878 40.22 7.928 52.355z" fill="#fcd2ae"/><path d="m252.46 428.726c1.585-3.034 6.054-2.613 7.075.654.972 3.112 5.119 3.68 6.905.953 6.798-10.376 19.289-32.713 24.419-63.072-53.668 15.085-34.859-57.043-34.859-57.043-6.242 9.453-16.91 19.235-34.921 27.164-43.765 19.266-31.049 87.535 24.961 102.493 2.316-3.701 4.472-7.42 6.42-11.149z" fill="#fbb989"/><path d="m392.946 101.752c-2.759-.208-5.341-.515-7.783-.898-1.974 9.503-3.107 29.899 21.956 34.281 28.323 4.952 40.931-6.854 64.822 3.006 5.821 2.402 11.033 6.011 15.732 10.204 3.134 2.796 8.277 5.213 13.431-1.715-15.952-21.424-52.064-40.645-108.158-44.878z" fill="#ffdd40"/><path d="m482.735 81.847c-8.155-5.968-14.924-10.711-20.564-14.502-11.154 5.887-31.573 20.82-15.886 45.873 27.755 9.156 46.444 22.943 55.971 37.477 2.822 4.305 9.514 2.425 9.685-2.72.634-19.007-3.493-47.309-29.206-66.128z" fill="#fcf2c8"/><path d="m463.879 68.5c-9.756-6.623-16.307-10.527-20.638-12.805-5.744-3.02-10.954-6.944-15.555-11.521-1.635-1.626-3.519-3.387-5.622-5.179-10.719-1.98-27.05-2.047-43.407 9.2-.981.675-1.499 1.831-1.353 3.015.146 1.187.932 2.184 2.049 2.6l3.632 1.413c-4.514 3.44-12.199 11.072-12.958 23.558-.072 1.18.505 2.3 1.506 2.923.994.618 2.241.642 3.32.09-.187 4.58.202 12.096 3.617 19.131 4.021.95 8.535 1.64 13.6 2.022 21.628 1.632 40.279 5.497 55.959 10.853-15.065-24.587 4.701-39.343 15.85-45.3z" fill="#fee884"/><path d="m379.549 49.489c16.548-11.38 33.527-11.058 44.86-8.426-6.385-5.806-15.295-12.395-25.856-16.093-20.209-7.077-42.129 5.019-47.657 25.705-5.07 18.974-4.378 43.692 29.584 50.696-3.902-7.246-4.23-15.286-4.057-19.513.052-1.263-1.315-2.081-2.413-1.456-1.124.64-2.493-.236-2.414-1.527.729-12.01 8.305-19.328 12.342-22.404 1.007-.767.759-2.345-.427-2.787l-3.607-1.345c-1.224-.456-1.431-2.111-.355-2.85z" fill="#f9a0b1"/><path d="m194.852 445.217c-49.35-2.217-46.035-42.164-26.626-84.569 20.041-43.785-18.993-50.81-34.572-51.897-4.611-.322-9.261-.024-13.727 1.167-20.047 5.348-22.963 22.811-17.404 37.754.32.861.542 1.72.694 2.574 5.303 3.823 12.766 6.986 23.199 7.699 2.925.2 5.492 1.851 6.868 4.414 1.355 2.525 1.314 5.524-.11 8.024-5.896 10.352-13.113 26.055-14.007 42.065-1.039 18.616 6.491 33.479 22.383 44.179 15.82 10.651 25.643 21.707 29.344 32.944 23.381 7.414 48.273 11.432 74.108 11.432.401 0 .799-.013 1.2-.015-10.636-27.569-22.149-54.459-51.35-55.771z" fill="#ff7186"/><path d="m435.935 74.524c.49 9.343-5.771 17.266-13.983 17.696s-15.267-6.795-15.757-16.137c-.49-9.343 5.771-17.266 13.983-17.696 8.213-.43 15.268 6.794 15.757 16.137z" fill="#73c3f9"/><path d="m432.467 67.718c.341 6.498-4.651 12.043-11.15 12.383-6.498.34-12.043-4.651-12.383-11.15-.341-6.499 4.651-12.043 11.15-12.383 6.498-.34 12.042 4.651 12.383 11.15z" fill="#deeeff"/><g fill="#543e5b"><path d="m432.64 71.016c.17 3.249-2.326 6.021-5.575 6.192-3.249.17-6.021-2.326-6.192-5.575-.17-3.249 2.326-6.021 5.575-6.192 3.249-.17 6.021 2.326 6.192 5.575z"/><path d="m1.155 232.185c49.352 14.781 117.547-17.176 193.666-63.819 75.53-46.282 68.327-119.704 58.36-157.218-2.717-.089-5.44-.15-8.179-.15-127.275 0-231.871 97.053-243.847 221.187z"/><path d="m490.004 256c0-24.414-3.588-47.987-10.236-70.239-37.526 3.033-83.108 17.649-95.531 70.239-13.468 57.019-38.043 115.276-54.351 150.516-12.152 26.261-5.43 55.5 13.01 74.126 86.583-37.784 147.108-124.138 147.108-224.642z"/></g><path d="m490.004 256c0-.847-.015-1.691-.023-2.536-21.784.676-54.507 11.129-71.692 62.918-20.128 60.657-24.439 97.599-7.826 120.277 48.882-44.786 79.541-109.136 79.541-180.659z" fill="#6c5475"/><path d="m16.933 166.372c55.774-4.133 236.101-26.75 155.513-144.437-71.167 22.038-128.455 75.631-155.513 144.437z" fill="#6c5475"/><path d="m142.388 455.382c-35.041-23.592-20.249-62.592-7.91-84.257 3.608-6.334-.686-14.18-7.958-14.677-11.141-.762-18.744-4.345-23.897-8.478 4.056 11.636-7.916 22.728-15.407 28.301-1.751 1.302-.945 4.072 1.232 4.234l5.711.423c2.249.167 2.997 3.099 1.1 4.32-16.127 10.378-25.459 24.133-30.862 36.292 29.008 31.631 66.22 55.606 108.259 68.585-2.996-9.996-11.314-21.982-30.268-34.743z" fill="#ff4155"/></g></svg>