<svg id="Capa_1" enable-background="new 0 0 512 512" height="512" viewBox="0 0 512 512" width="512" xmlns="http://www.w3.org/2000/svg"><g><path d="m512 256c0 63.8-23.34 122.15-61.95 166.97-24.08 27.96-54.1 50.66-88.1 66.13-32.29 14.71-68.16 22.9-105.95 22.9s-73.67-8.19-105.96-22.9c-34-15.47-64.02-38.18-88.1-66.14l-.01-.01c-38.59-44.82-61.93-103.16-61.93-166.95 0-141.38 114.62-256 256-256s256 114.62 256 256z" fill="#6ec17d"/><g><path d="m450.05 422.97c-24.08 27.96-54.1 50.66-88.1 66.13-32.29 14.71-68.16 22.9-105.95 22.9s-73.67-8.19-105.96-22.9c-34-15.47-64.02-38.18-88.1-66.14l-.01-.01c10.73-9.99 22.6-18.79 35.4-26.16 15.68-9.02 32.74-15.89 50.77-20.21 2.78-.68 5.59-1.29 8.42-1.83 5.34-1.04 10.76-1.84 16.25-2.41 1.58-.17 3.15-.32 4.75-.45 5.19-.43 10.45-.64 15.77-.64h125.41c6.95 0 13.79.37 20.52 1.07 5.49.57 10.9 1.39 16.25 2.4 2.13.42 4.26.86 6.36 1.34.69.18 1.4.32 2.08.51 4.18.99 8.31 2.13 12.37 3.42 13.5 4.21 26.35 9.87 38.4 16.8 12.79 7.38 24.65 16.17 35.37 26.18z" fill="#f6f1f1"/><path d="m450.05 422.97c-24.08 27.96-54.1 50.66-88.1 66.13-2.8-29.65 2.3-92.48 14.33-109.11 13.5 4.21 26.35 9.87 38.4 16.8 12.79 7.38 24.65 16.17 35.37 26.18z" fill="#d0e2e7"/><path d="m150.04 489.1c-34-15.47-64.02-38.18-88.1-66.14 10.72-10 22.58-18.79 35.37-26.17 12.05-6.93 24.9-12.59 38.4-16.8 12.03 16.63 17.13 79.46 14.33 109.11z" fill="#d0e2e7"/><g fill="#efb29a"><path d="m132.54 278.153c0 20.497-14.973 37.492-34.579 40.646-3.562-12.95-5.464-26.579-5.464-40.646s1.902-27.696 5.464-40.646c19.606 3.154 34.579 20.15 34.579 40.646z"/><path d="m379.449 278.153c0 20.497 14.973 37.492 34.579 40.646 3.562-12.95 5.464-26.579 5.464-40.646s-1.902-27.696-5.464-40.646c-19.606 3.154-34.579 20.15-34.579 40.646z"/></g><path d="m410.696 256.511c0 76.985-56.241 140.847-129.873 152.705-7.865 1.291-15.932 1.961-24.16 1.995-85.454.358-155.37-70.641-155.37-156.095v-106.584c0-27.349 22.171-49.52 49.52-49.52h210.364c27.349 0 49.52 22.171 49.52 49.52v107.979z" fill="#f9c5ac"/><path d="m283.243 408.81c-.8.14-1.61.28-2.42.41-7.811 1.276-15.818 1.945-23.986 1.988-85.549.451-155.544-70.539-155.544-156.089v-112.665c0-23.994 19.451-43.444 43.444-43.444h11.106v157.5c0 76.14 54.98 139.41 127.4 152.3z" fill="#efb29a"/><path d="m410.69 177.202v112.168c0 63.84-33.84 122.9-88.93 155.17-20.31 11.9-43.04 17.84-65.77 17.84-3.45 0-6.91-.14-10.36-.42-19.22-1.52-38.19-7.33-55.41-17.42-27.54-16.14-49.78-38.97-65.12-65.75-15.35-26.77-23.81-57.5-23.81-89.42v-62.52c6 0 31.89-40.79 31.89-40.79s-1.51 76.88 0 86.75c4.94 32.34 18.2 53.18 30.42 61.79 10.51 7.41 20.25 5.78 23.28-5.35 3.17-11.64 9.13-18.88 17.9-23.36 11.89-6.08 28.94-7.07 51.21-7.07 38.68 0 61.63 2.99 69.11 30.43 3.03 11.13 12.77 12.76 23.28 5.35 12.22-8.61 25.48-29.45 30.42-61.79 1.51-9.87 0-86.75 0-86.75s25.89-8.858 31.89-8.858z" fill="#d9723e"/><path d="m255.995 337.93c-12.954 0-25.908-3.246-37.716-9.737-3.331-1.831-4.547-6.015-2.715-9.346 1.831-3.331 6.016-4.545 9.346-2.715 19.465 10.701 42.707 10.7 62.17 0 3.329-1.831 7.514-.616 9.346 2.715 1.831 3.331.616 7.515-2.715 9.346-11.808 6.492-24.762 9.737-37.716 9.737z" fill="#bd5423"/><path d="m273.544 291.694h-35.098c-4.181 0-7.57-3.389-7.57-7.57 0-4.181 3.389-7.57 7.57-7.57h35.098c4.181 0 7.57 3.389 7.57 7.57 0 4.18-3.389 7.57-7.57 7.57z" fill="#efb29a"/><g><path d="m281.34 249.161c0 17.165 13.915 31.08 31.08 31.08s31.08-13.915 31.08-31.08" fill="#efb29a"/><circle cx="312.42" cy="249.161" fill="#2f373b" r="22.287"/><circle cx="321.708" cy="245.228" fill="#fff" r="9.55"/><path d="m168.49 249.161c0 17.165 13.915 31.08 31.08 31.08s31.08-13.915 31.08-31.08" fill="#efb29a"/><circle cx="199.57" cy="249.161" fill="#2f373b" r="22.287"/><path d="m204.782 270.831c-1.67.41-3.42.62-5.21.62-12.31 0-22.29-9.98-22.29-22.29s9.98-22.29 22.29-22.29c1.79 0 3.54.21 5.21.62-9.8 2.34-17.07 11.16-17.07 21.67s7.27 19.33 17.07 21.67z" fill="#181e21"/><path d="m317.632 270.831c-1.67.41-3.42.62-5.21.62-12.31 0-22.29-9.98-22.29-22.29s9.98-22.29 22.29-22.29c1.79 0 3.54.21 5.21.62-9.8 2.34-17.07 11.16-17.07 21.67s7.27 19.33 17.07 21.67z" fill="#181e21"/><circle cx="208.858" cy="245.228" fill="#fff" r="9.55"/></g><path d="m245.63 461.96c-19.22-1.52-38.19-7.33-55.41-17.42-27.54-16.14-49.78-38.97-65.12-65.75-15.35-26.77-23.81-57.5-23.81-89.42v-120.02c6 0 31.89 16.71 31.89 16.71s-1.51 76.88 0 86.75c4.94 32.34 18.2 53.18 30.42 61.79 10.51 7.41 20.25 5.78 23.28-5.35 3.17-11.64 9.13-18.88 17.9-23.36 0 0-17.06 114.95 40.85 156.07z" fill="#bd5423"/><g><path d="m123.092 146.903h-31.024v175.343c0 11.442 7.314 21.602 18.165 25.233l31.203 10.441c11.632 3.892 23.657-4.764 23.657-17.03v-47.324c0-5.911-2.909-11.443-7.778-14.794l-34.222-23.548v-108.321z" fill="#d0e2e7"/><path d="m388.897 146.903v108.319l-34.222 23.548c-4.869 3.351-7.778 8.883-7.778 14.794v47.324c0 12.266 12.024 20.922 23.657 17.03l31.203-10.441c10.85-3.631 18.165-13.791 18.165-25.233v-175.341z" fill="#f6f1f1"/></g><path d="m258.07 0h-3.72c-89.389 0-161.853 72.464-161.853 161.852v29.038h327.425v-29.038c0-89.388-72.464-161.852-161.852-161.852z" fill="#f6f1f1"/><path d="m254.35 0c-42.05 0-76.14 72.46-76.14 161.85v29.04h-86.7v-29.04c-.001-89.39 72.459-161.85 161.85-161.85z" fill="#d0e2e7"/><path d="m222.946 0h66.528v146.903h-66.528z" fill="#ffbb16"/><path d="m412.465 221.424h-312.51c-14.844 0-26.878-12.034-26.878-26.878v-34.324c0-14.844 12.034-26.878 26.878-26.878h312.51c14.844 0 26.878 12.034 26.878 26.878v34.324c-.001 14.844-12.034 26.878-26.878 26.878z" fill="#ffbb16"/><path d="m191.377 221.416h-91.43c-14.84 0-26.87-12.03-26.87-26.87v-34.33c0-14.84 12.03-26.88 26.87-26.88h91.43c-14.85 0-26.88 12.04-26.88 26.88v34.33c0 14.84 12.03 26.87 26.88 26.87z" fill="#ff931f"/><g><path d="m140.116 167.144h-.343c-5.46 0-9.887-4.426-9.887-9.887 0-5.332-4.024-9.987-9.344-10.332-5.83-.377-10.677 4.24-10.677 9.989v.343c0 5.46-4.426 9.887-9.887 9.887h-.343c-5.529 0-10.011 4.482-10.011 10.011 0 5.529 4.482 10.011 10.011 10.011h.343c5.46 0 9.887 4.426 9.887 9.887 0 5.332 4.024 9.987 9.344 10.332 5.83.377 10.677-4.24 10.677-9.989v-.343c0-5.46 4.426-9.887 9.887-9.887h.343c5.529 0 10.011-4.482 10.011-10.011-.001-5.529-4.483-10.011-10.011-10.011z" fill="#ea7f13"/><g fill="#ff931f"><path d="m231.005 167.144h-.343c-5.46 0-9.887-4.426-9.887-9.887 0-5.332-4.024-9.987-9.344-10.332-5.83-.377-10.677 4.24-10.677 9.989v.343c0 5.46-4.426 9.887-9.887 9.887h-.343c-5.529 0-10.011 4.482-10.011 10.011 0 5.529 4.482 10.011 10.011 10.011h.343c5.46 0 9.887 4.426 9.887 9.887 0 5.332 4.024 9.987 9.344 10.332 5.83.377 10.677-4.24 10.677-9.989v-.343c0-5.46 4.426-9.887 9.887-9.887h.343c5.529 0 10.011-4.482 10.011-10.011 0-5.529-4.482-10.011-10.011-10.011z"/><path d="m321.895 167.144h-.343c-5.46 0-9.887-4.426-9.887-9.887 0-5.332-4.024-9.987-9.344-10.332-5.83-.377-10.677 4.24-10.677 9.989v.343c0 5.46-4.426 9.887-9.887 9.887h-.343c-5.529 0-10.011 4.482-10.011 10.011 0 5.529 4.482 10.011 10.011 10.011h.343c5.46 0 9.887 4.426 9.887 9.887 0 5.332 4.024 9.987 9.344 10.332 5.83.377 10.677-4.24 10.677-9.989v-.343c0-5.46 4.426-9.887 9.887-9.887h.343c5.529 0 10.011-4.482 10.011-10.011-.001-5.529-4.483-10.011-10.011-10.011z"/><path d="m412.784 167.144h-.343c-5.46 0-9.887-4.426-9.887-9.887 0-5.332-4.024-9.987-9.344-10.332-5.83-.377-10.677 4.24-10.677 9.989v.343c0 5.46-4.426 9.887-9.887 9.887h-.343c-5.529 0-10.011 4.482-10.011 10.011 0 5.529 4.482 10.011 10.011 10.011h.343c5.46 0 9.887 4.426 9.887 9.887 0 5.332 4.024 9.987 9.344 10.332 5.83.377 10.677-4.24 10.677-9.989v-.343c0-5.46 4.426-9.887 9.887-9.887h.343c5.529 0 10.011-4.482 10.011-10.011 0-5.529-4.482-10.011-10.011-10.011z"/></g></g><g><path d="m161.11 73.902c0 11.02-3.61 21.71-10.16 30.44-4.44 5.92-10.23 10.94-17.17 14.55-50.54-12.95-75.81-107.59-50.54-117.78 3.86-1.56 7.29-1.4 10.48-.01 17.12 7.41 27.41 50.05 59.98 53.01 2.23.2 4.13 1.72 4.83 3.85 1.75 5.27 2.58 10.64 2.58 15.94z" fill="#b2aea8"/><path d="m378.64 118.892c-15.24-7.92-24.95-22.65-26.94-38.79-.26-2.05-.39-4.12-.39-6.2 0-5.3.83-10.67 2.58-15.94.7-2.13 2.6-3.65 4.83-3.85 38.64-3.51 45.93-62.89 70.46-53 2.21.89 4.03 2.42 5.47 4.49.23.31.44.63.64.97.03.05.06.09.08.14 13.65 23.1-11.36 100.55-56.73 112.18z" fill="#b2aea8"/><g fill="#96928d"><path d="m150.95 104.342c-4.44 5.92-10.23 10.94-17.17 14.55-50.54-12.95-75.81-107.59-50.54-117.78 3.86-1.56 7.29-1.4 10.48-.01-19.85-4.27 1 83.07 57.23 103.24z"/><path d="m434.65 5.602c-6.43-7.04-19.16 54.65-42.11 66.16-13.58 6.82-29.6 8.31-40.84 8.34-.26-2.05-.39-4.12-.39-6.2 0-5.3.83-10.67 2.58-15.94.7-2.13 2.6-3.65 4.83-3.85 38.64-3.51 45.93-62.89 70.46-53 2.21.89 4.03 2.42 5.47 4.49z"/></g></g></g></g></svg>