<svg id="Capa_1" enable-background="new 0 0 512 512" height="512" viewBox="0 0 512 512" width="512" xmlns="http://www.w3.org/2000/svg"><g><path d="m512 256c0 37.79-8.19 73.67-22.9 105.95-6 13.21-13.11 25.82-21.19 37.71-.31.47-.63.93-.96 1.4-18.93 27.49-43.1 51.09-71.07 69.37-1.06.7-2.12 1.38-3.19 2.06-9.41 5.95-19.24 11.31-29.43 16.02-8.68 4.01-17.62 7.55-26.8 10.58-9.16 3.04-18.56 5.57-28.15 7.56-16.89 3.51-34.39 5.35-52.31 5.35-18.16 0-35.88-1.89-52.97-5.49-18.54-3.9-36.34-9.8-53.16-17.49-10.59-4.82-20.8-10.36-30.56-16.53-47.8-30.25-84.89-75.88-104.3-129.94-9.72-27.03-15.01-56.17-15.01-86.55 0-141.38 114.62-256 256-256s256 114.62 256 256z" fill="#2f373b"/><path d="m81.009 205.131s-53.482-73.805-31.153-160.683c1.803-7.014 11.36-7.993 14.592-1.513 12.706 25.475 38.799 68.191 69.131 63.588 0 0-22.13-46.68-23.346-84.258-.208-6.419 8.529-8.555 11.368-2.794 13.336 27.064 40.626 74.475 74.434 89.984 0 0-8.98-16.992-4.462-42.138 1.143-6.363 9.662-7.737 12.749-2.057 11.024 20.283 32.562 54.338 55.98 61.136 0 0-37.121-56.746-37.199-113.758-.011-7.751 10.47-10.114 13.72-3.076 14.727 31.89 44.862 83.784 88.156 93.004 21.106 4.495 34.228-10.66 34.928-28.294.21-5.291 6.054-8.358 10.447-5.401 22.528 15.163 67.756 51.118 60.641 91.456-9.416 53.382-144.804 78.297-144.804 78.297" fill="#e84d59"/><path d="m338.8 433.69c-7.96 45.13-122.42 66.19-122.42 66.19l-30.5-4.98-36.01-5.88c-10.59-4.82-20.8-10.36-30.56-16.53-6.82-4.31-13.41-8.94-19.77-13.87-38.25-29.56-67.89-69.72-84.53-116.07.47-2.26.99-4.53 1.58-6.82 1.52-5.93 9.6-6.76 12.33-1.28 10.74 21.53 32.8 57.65 58.44 53.75 0 0-18.7-39.46-19.73-71.23-.18-5.42 7.21-7.23 9.61-2.36 11.27 22.88 34.34 62.96 62.92 76.07 0 0-7.59-14.36-3.77-35.62.97-5.38 8.17-6.54 10.78-1.74 9.32 17.15 27.53 45.94 47.32 51.69 0 0-31.38-47.98-31.44-96.17-.01-6.56 8.85-8.55 11.6-2.61 12.45 26.96 37.92 70.83 74.52 78.63 17.84 3.8 28.94-9.01 29.53-23.92.18-4.47 5.12-7.07 8.83-4.57 19.05 12.82 57.28 43.22 51.27 77.32z" fill="#e84d59"/><path d="m466.95 401.06c-6.69 9.7-14.02 18.92-21.94 27.59-8.16 8.93-16.95 17.28-26.3 24.99-7.28 6-14.9 11.61-22.83 16.79-.6-.36-1.19-.73-1.78-1.1-47.8-30.25-84.89-75.88-104.3-129.94.47-2.26.99-4.53 1.58-6.82 1.52-5.93 9.6-6.76 12.33-1.28 10.74 21.53 32.8 57.65 58.44 53.75 0 0-18.7-39.46-19.73-71.23-.18-5.42 7.21-7.23 9.61-2.36 11.27 22.88 34.34 62.96 62.92 76.07 0 0-7.59-14.36-3.77-35.62.97-5.38 8.17-6.54 10.78-1.74 8.95 16.47 26.11 43.69 44.99 50.9z" fill="#e84d59"/><path d="m489.1 361.95c-6 13.21-13.11 25.82-21.19 37.71-6.05-9.92-30.02-51.87-30.07-93.98-.01-6.56 8.85-8.55 11.6-2.61 8 17.33 21.39 41.66 39.66 58.88z" fill="#e84d59"/><path d="m106.864 175.303s-15.705-19.992-17.355-42.501c-.367-5.004 5.836-7.604 9.095-3.788 11.496 13.464 34.4 35.174 62.566 35.174 27.747 0 24.234-22.273 19.135-36.543-1.372-3.839 2.869-7.251 6.333-5.1 14.866 9.233 39.139 27.08 41.399 46.316 3.279 27.906 80.94 16.091 59.376-46.864-4.229-10.451-7.979-19-11.004-25.586-2.245-4.885 3.188-9.72 7.786-6.934 30.147 18.268 93.075 58.359 93.075 74.711 0 21.502-9.774 70.085-9.774 70.085l-218.932-3.285" fill="#ffbb16"/><path d="m445.01 428.65c-8.16 8.93-16.95 17.28-26.3 24.99-.57-4.1-1.63-8.48-3.22-13.14-4.23-10.45-7.98-19-11.01-25.58-2.24-4.89 3.19-9.72 7.79-6.94 8.88 5.39 20.61 12.66 32.74 20.67z" fill="#ffbb16"/><path d="m186.16 487.58c0 2.19-.1 4.65-.28 7.32l-36.01-5.88c-10.59-4.82-20.8-10.36-30.56-16.53-6.82-4.31-13.41-8.94-19.77-13.87-.58-4.13-1.63-8.53-3.24-13.23-4.23-10.45-7.98-19-11.01-25.59-2.24-4.88 3.19-9.72 7.79-6.93 30.15 18.27 93.08 58.36 93.08 74.71z" fill="#ffbb16"/><path d="m392.69 282.4v190.09c-39.55 25.02-86.43 39.51-136.69 39.51s-97.14-14.49-136.69-39.51v-190.09z" fill="#f6f1f1"/><path d="m119.312 282.402h273.375v57.897h-273.375z" fill="#d0e2e7"/><path d="m203.03 282.4v224.11c-30.21-6.35-58.46-18.04-83.72-34.02v-190.09z" fill="#d0e2e7"/><path d="m430.994 160.326v141.324c0 7.717-6.261 13.977-13.985 13.977h-322.018c-7.725 0-13.985-6.261-13.985-13.977v-141.324c0-7.717 6.261-13.977 13.985-13.977h38.568c7.717 0 13.977 6.26 13.977 13.977v30.828c0 3.854 1.567 7.353 4.092 9.885 2.533 2.525 6.023 4.092 9.885 4.092 7.725 0 13.977-6.261 13.977-13.977v-30.828c0-7.717 6.26-13.977 13.985-13.977h38.56c7.725 0 13.985 6.26 13.985 13.977v30.828c0 3.854 1.567 7.353 4.092 9.885 2.533 2.525 6.023 4.092 9.885 4.092 7.717 0 13.977-6.261 13.977-13.977v-30.828c0-7.717 6.261-13.977 13.985-13.977h38.56c7.725 0 13.985 6.26 13.985 13.977v30.828c0 3.854 1.567 7.353 4.092 9.885 2.525 2.525 6.023 4.092 9.885 4.092 7.717 0 13.977-6.261 13.977-13.977v-30.828c0-7.717 6.26-13.977 13.977-13.977h38.568c7.73-.001 13.991 6.26 13.991 13.977z" fill="#f6f1f1"/><g><path d="m161.168 301.651v-78.262-18.258-.017c-7.559-.186-13.633-6.358-13.633-13.962v-30.824c0-7.721-6.259-13.979-13.98-13.979h-38.567c-7.721 0-13.98 6.259-13.98 13.979v44.804 18.258 78.262c0 7.721 6.259 13.98 13.98 13.98h80.159c-7.72-.002-13.979-6.261-13.979-13.981z" fill="#d0e2e7"/></g><g fill="#d0e2e7"><path d="m209.978 468.057v-77.79c0-25.376 20.645-46.022 46.022-46.022s46.022 20.645 46.022 46.022v77.79z"/><path d="m222.697 256.717h-29.48c-6.314 0-11.432-5.118-11.432-11.432v-2.863c0-6.314 5.118-11.432 11.432-11.432h29.48c6.314 0 11.432 5.118 11.432 11.432v2.863c0 6.313-5.118 11.432-11.432 11.432z"/><path d="m248.869 291.242h-29.48c-6.314 0-11.432-5.118-11.432-11.432v-2.863c0-6.314 5.118-11.432 11.432-11.432h29.48c6.314 0 11.432 5.118 11.432 11.432v2.863c.001 6.314-5.118 11.432-11.432 11.432z"/><path d="m369.761 385.803h-29.48c-6.314 0-11.432-5.118-11.432-11.432v-2.863c0-6.314 5.118-11.432 11.432-11.432h29.48c6.314 0 11.432 5.118 11.432 11.432v2.863c0 6.313-5.119 11.432-11.432 11.432z"/><path d="m350.024 419.016h-29.48c-6.314 0-11.432-5.118-11.432-11.432v-2.863c0-6.314 5.118-11.432 11.432-11.432h29.48c6.314 0 11.432 5.118 11.432 11.432v2.863c0 6.314-5.118 11.432-11.432 11.432z"/><path d="m337.13 492.36v2.86c0 1.36-.24 2.66-.67 3.87-9.16 3.04-18.56 5.57-28.15 7.56h-12.1c-6.31 0-11.43-5.12-11.43-11.43v-2.86c0-6.32 5.12-11.44 11.43-11.44h29.48c6.32 0 11.44 5.12 11.44 11.44z"/><path d="m392.69 468.06v4.43c-9.41 5.95-19.24 11.31-29.43 16.02-1.14-1.78-1.8-3.89-1.8-6.16v-2.86c0-6.31 5.12-11.43 11.42-11.43z"/><path d="m372.897 259.998h-29.48c-6.314 0-11.432-5.118-11.432-11.432v-2.863c0-6.314 5.118-11.432 11.432-11.432h29.48c6.314 0 11.432 5.118 11.432 11.432v2.863c0 6.314-5.118 11.432-11.432 11.432z"/><path d="m430.994 234.273v25.723h-26.87c-6.316 0-11.437-5.113-11.437-11.429v-2.865c0-6.316 5.121-11.429 11.437-11.429z"/><path d="m402.368 291.242h-29.48c-6.314 0-11.432-5.118-11.432-11.432v-2.863c0-6.314 5.118-11.432 11.432-11.432h29.48c6.314 0 11.432 5.118 11.432 11.432v2.863c0 6.314-5.118 11.432-11.432 11.432z"/></g><path d="m286.19 390.26v61.97h-60.38c-30.34-30.34-37.39-59.22-44.02-97.91-3.503-20.411-1.495-39.562 1.184-53.101 1.011-5.109 8.211-5.495 9.735-.515 4.968 16.233 14.855 37.21 33.101 39.596 0 0-24.072-40.778-7.742-79.417 1.953-4.621 8.756-3.802 9.587 1.146 2.983 17.773 10.46 46.038 28.345 53.601 26.65 11.27 33.74 40.73 30.19 74.63z" fill="#e84d59"/><path d="m286.19 390.26v61.97h-46.11c-9.9-20.55-26.1-58.12-10.5-85.62 0 0-.44 11.02 15.64 19.19 16.07 8.18 19.54-32.79 10.78-41.55 0 0 26.43 8.42 30.19 46.01z" fill="#ffbb16"/><path d="m288.052 31.172c6.371 12.215 20.684 27.115 30.542 36.589 3.841 3.691 10.147.219 9.084-5.001-2.579-12.661-10.297-30.379-32.83-39.18-4.687-1.83-9.123 3.131-6.796 7.592z" fill="#e84d59"/><path d="m179.291 65.822c-3.003-15.408-22.446-39.859-31.649-50.755-1.876-2.221-5.485-.959-5.582 1.946-.433 12.867 2.712 39.037 32.838 52.298 2.331 1.026 4.88-.99 4.393-3.489z" fill="#e84d59"/></g></svg>