<svg id="Capa_1" enable-background="new 0 0 512 512" height="512" viewBox="0 0 512 512" width="512" xmlns="http://www.w3.org/2000/svg"><g><path d="m512 256c0 84.32-40.77 159.12-103.67 205.76-13.61 10.1-28.27 18.88-43.77 26.14-32.96 15.46-69.75 24.1-108.56 24.1-17.52 0-34.64-1.76-51.17-5.12-16.58-3.36-32.58-8.32-47.82-14.72-54.68-22.95-99.71-64.34-127.31-116.39-3.56-6.69-6.82-13.55-9.77-20.58-7.6-18.07-13.19-37.19-16.48-57.09-1.53-9.2-2.56-18.57-3.07-28.07-.25-4.64-.38-9.32-.38-14.03 0-141.38 114.62-256 256-256s256 114.62 256 256z" fill="#6ec17d"/><path d="m496.95 304.99 7.562-20.242c.989-2.648-.041-5.625-2.454-7.096l-13.478-8.214-6.147 22.476" fill="#2f373b"/><path d="m489.69 289.41 3.389-9.288c1.529-4.19-.434-8.85-4.499-10.684l-114.635-51.709 6.516 51.705" fill="#bd5423"/><g fill="#d9723e"><path d="m250.12 379.45-10.99 30.92-13.93 39.21-20.37 57.3c-10.39-2.11-20.56-4.84-30.45-8.17-5.89-1.97-11.68-4.16-17.37-6.55l40.28-113.36 5.72-16.09z"/><path d="m408.33 461.76c-8.79 6.52-18.02 12.5-27.63 17.86-5.27 2.95-10.65 5.71-16.14 8.28l-33.63-94.63-4.91-13.82 45.52-16.18 1.59-.56 25.43 71.54z"/></g><path d="m370.12 447.86 10.58 31.76c-5.27 2.95-10.65 5.71-16.14 8.28l-33.63-94.63 40.61-30 1.59-.56 25.43 71.54z" fill="#bd5423"/><path d="m241.17 385.92-2.04 24.45-13.93 39.21-30.77-13.72-20.05 62.85c-5.89-1.97-11.68-4.16-17.37-6.55l40.28-113.36z" fill="#bd5423"/><g><path d="m512 223.93c0 4.01-.11 8.01-.31 11.99-.36 6.77-6.21 11.92-12.96 11.31l-43.13-3.88-43.15-3.88-28.99-2.61 27.16 13.44 39.71 19.64 39.36 19.47 1.41.7c5.49 2.71 8.06 9.17 5.85 14.88-11.11 28.64-28.17 54.91-50.54 77.28-42.29 42.3-98.53 65.59-158.34 65.59-39.881 0-78.17-10.351-111.8-29.792-6.045-3.495-8.407-11.031-5.333-17.301l.072-.147 19.33-39.41 4.42-9.02-8.64 5.9-37.38 25.54-1.435.98c-5.209 3.558-12.226 2.957-16.71-1.48-.289-.286-.577-.573-.865-.86-42.3-42.29-65.59-98.53-65.59-158.34 0-47.13 14.46-92.04 41.28-129.66 3.97-5.57 11.71-6.88 17.27-2.89l35.29 25.36 4.14 2.98c.03.02.05.04.08.05l15.14 10.88-6.7-17.5-2.81-7.34-16.71-43.62-1.28-3.34c-1.97-5.15-.29-10.98 4.12-14.3 38.501-28.92 85.101-44.55 134.111-44.55 59.81 0 116.05 23.29 158.34 65.59 42.3 42.29 65.59 98.53 65.59 158.34z" fill="#2f373b"/><path d="m412.45 239.47-28.99-2.61 27.16 13.44 39.71 19.64 39.36 19.47c-27.58 85-107.42 146.45-201.62 146.45-43.28 0-83.52-12.97-117.06-35.24l19.33-39.41 4.42-9.02-8.64 5.9-37.38 25.54c-44.49-38.85-72.6-95.99-72.6-159.7 0-50.17 17.43-96.25 46.55-132.55l35.29 25.36 4.14 2.98c.03.02.05.04.08.05l15.14 10.88-6.7-17.5-2.81-7.34-16.71-43.62c36.93-31.31 84.73-50.19 136.95-50.19 117.05 0 211.93 94.88 211.93 211.93 0 7.87-.43 15.65-1.27 23.3l-43.13-3.88z" fill="#d9723e"/><path d="m412.45 239.47-28.99-2.61 27.16 13.44 39.71 19.64c-20.27 71.42-86.54 123.68-164.61 122.61-35.43-.48-68.35-12.03-95.38-31.34l.822-1.677c.975-1.99-1.324-3.982-3.155-2.732l-1.887 1.288c-39.24-29.9-65.12-76.59-66.62-129.25-1.22-42.57 13.43-81.77 38.48-112.1l4.14 2.98c.03.02.05.04.08.05 4.52 3.15 10.42-1.45 8.44-6.62l-2.81-7.34c30.97-31.54 74.22-50.98 121.91-50.51 91.23.89 165.71 75.06 166.95 166.29.1 7.37-.27 14.63-1.09 21.76z" fill="#f6f1f1"/><path d="m412.45 239.47-9.57-.862c-4.021-.362-5.562 5.109-1.944 6.9l9.684 4.792c-12.062 56.08-61.752 98.353-121.244 98.963-69.05.709-126.104-55.288-126.642-124.339-.543-69.564 55.895-126.334 125.336-126.334 69.11 0 125.34 56.23 125.34 125.34 0 5.26-.33 10.45-.96 15.54z" fill="#d9723e"/><circle cx="288.07" cy="223.93" fill="#f6f1f1" r="82.046"/><circle cx="288.07" cy="223.93" fill="#e84d59" r="38.752"/></g><g><path d="m91.25 274.83-23.66 21.48-55.09 7.07-9.05-5.28c-1.53-9.2-2.56-18.57-3.07-28.07l47.94-17.37c1.93-.7 4.07-.51 5.85.53z" fill="#d0e2e7"/><path d="m104.35 310.97-14.6 40.38c-.7 1.93-2.22 3.46-4.15 4.16l-55.9 20.26c-3.56-6.69-6.82-13.55-9.77-20.58l5.67-15.67 43.69-29.83z" fill="#f6f1f1"/><path d="m276.551 248.549-250.955 90.97-13.099-36.135 250.955-90.97c9.979-3.617 21 1.54 24.617 11.518 3.617 9.978-1.539 21-11.518 24.617z" fill="#ffbb16"/><path d="m288.07 223.93c1.811 4.996 1.428 10.24-.658 14.697-2.085 4.456-5.866 8.111-10.862 9.922l-250.95 90.968-4.832-13.329 250.951-90.968c4.996-1.811 8.776-5.466 10.861-9.922 1.1-2.351 1.731-4.929 1.794-7.568 1.58 1.754 2.844 3.849 3.696 6.2z" fill="#ff931f"/></g></g></svg>