<svg id="Capa_1" enable-background="new 0 0 512 512" height="512" viewBox="0 0 512 512" width="512" xmlns="http://www.w3.org/2000/svg"><g><path d="m512 256c0 18.53-1.97 36.59-5.71 54-24.79 115.45-127.44 202-250.29 202-126.68 0-231.88-92.03-252.38-212.88-2.38-14.02-3.62-28.42-3.62-43.12 0-12.01.83-23.82 2.43-35.39 17.23-124.63 124.2-220.61 253.57-220.61 134.76 0 245.2 104.13 255.25 236.31.5 6.5.75 13.07.75 19.69z" fill="#b1e4f9"/><path d="m512 256c0 141.38-114.62 256-256 256s-256-114.62-256-256c0-12.01.83-23.82 2.43-35.39 11.51 10.97 21.62 23.32 44.35 23.32 40.91 0 40.91-40 81.82-40 40.92 0 40.92 40 81.83 40s40.91-40 81.82-40c40.92 0 40.92 40 81.83 40 40.92 0 40.92-40 81.83-40 29.49 0 37.73 20.77 55.34 32.38.5 6.5.75 13.07.75 19.69z" fill="#5ea5ec"/><g><path d="m336.41 73.96s-14.684-16.307-40.026-13.419c-5.51.628-8.108 7.121-4.478 11.313l26.345 30.422" fill="#e84d59"/><path d="m309.539 108.849s-19.303-10.436-42.208.785c-4.98 2.44-5.25 9.429-.423 12.16l35.023 19.822" fill="#e84d59"/><path d="m228.184 111.668s17.395-13.377 16.479-38.866c-.199-5.542-6.472-8.635-10.933-5.341l-32.37 23.909" fill="#e84d59"/><path d="m179.574 83.356s11.075-18.944.624-42.211c-2.272-5.059-9.248-5.561-12.139-.829l-20.98 34.342" fill="#e84d59"/><path d="m127.748 78.288s-1.213-21.91-22.765-35.552c-4.686-2.966-10.782.463-10.582 6.005l1.446 40.218" fill="#e84d59"/><path d="m284.389 258.365c-.6 44.358-9.896 87.314-26.163 120.941l-48.899-23.657-18.581-8.985c24.342-50.324 24.985-132.015 1.381-174.81-13.547-24.557-29.665-26.377-34.966-26.977-23.004-2.592-41.767 5.44-54.265 23.218-19.363 27.545-26.506 84.444 11.491 161.584l-30.157 14.853-27.877 13.73-9.21 4.541c-.482-.985-.964-1.981-1.435-2.967-43.18-89.445-44.776-177.048-4.144-234.846 27.598-39.25 71.057-59.159 119.763-55.025h.032c1.403.118 2.806.257 4.209.418 39.218 4.423 71.1 26.998 92.208 65.263 17.788 32.267 27.245 75.854 26.613 122.719z" fill="#e84d59"/><path d="m209.327 355.649-18.581-8.985c24.342-50.324 24.985-132.015 1.381-174.81-13.547-24.557-29.665-26.377-34.966-26.977 43.577 0 118.457 21.944 52.166 210.772z" fill="#c9394a"/><path d="m45.89 195.693c-2.688 77.954 25.392 129.423 38.34 148.839 3.823 5.74 6.329 8.685 6.329 8.685l-34.206 5.044-10.645 1.574c-43.18-89.444-44.776-177.047-4.144-234.845 27.598-39.25 71.057-59.159 119.763-55.025-32.878-1.553-112.095 29.172-115.437 125.728z" fill="#c9394a"/><path d="m506.099 189.515c-.685 1.335-1.537 2.603-2.581 3.792-4.656 5.318-10.109 9.919-15.876 13.89-2.984 2.053-6.99 1.761-9.627-.741l-31.573-29.913-3.658-3.467c-3.445-3.265-5.868-7.394-7.057-11.893-.561-2.098-.853-4.275-.853-6.485v-1.694c0-5.789-3.074-11.13-8.09-14.036l-2.962-1.728c-1.784-1.032-3.624-1.1-5.184-.527-3.557 1.29-5.756 5.812-3.007 9.604l46.496 64.078c2.94 4.05 1.257 9.829-3.433 11.613-.022.011-.056.022-.09.034-.965.359-1.93.64-2.895.83-9.571 1.952-19.265-4.017-21.722-13.846-1.56-6.194-3.703-12.477-6.261-18.457-3.905 1.425-8.213 2.008-12.712 1.537-12.286-1.302-22.451-10.704-24.707-22.855-.785-4.185-.595-8.224.325-11.983-1.975 1.806-3.725 4.611-5.172 8.606-13.217 36.353 42.502 82.614 42.502 158.001 0 54.406-19.938 104.167-52.925 142.338l-13.06-78.069-5.991-35.792c25.885-63.887-108.072-175.426-44.88-269.282 16.056-23.843 40.056-32.505 60.588-35.568 20.589-3.074 41.626-.236 60.914 7.574l28.847 11.669c19.882 9.111 25.638 31.214 26.435 50.973.808 19.669-3.299 37.037-3.299 37.037l15.663 11.085c.886.617 1.694 1.302 2.424 2.042 5.732 5.711 7.068 14.508 3.421 21.633z" fill="#e84d59"/><path d="m471.474 136.343c-9.738 9.738-30.276 9.165-39.383-2.411-7.731-9.827-10.15-27.539-.324-36.835 2.532-2.395 6.557-2.165 8.735.556z" fill="#c9394a"/><path d="m435.603 145.206-10.962 13.52-6.317-8.707-2.693-3.703 17.088-5.352c1.021-.314 1.952-.022 2.592.572.966.877 1.291 2.436.292 3.67z" fill="#f6f1f1"/><path d="m471.474 136.343c-8.931 4.14-19.871 2.525-27.242-4.836-7.36-7.36-8.976-18.3-4.836-27.231 1.818-3.905 6.99-4.769 10.031-1.728l7.641 7.641 16.123 16.134c.426.426.774.886 1.032 1.38 1.705 3.03.606 7.08-2.749 8.64z" fill="#fff"/><path d="m474.223 127.703c-1.885 5.251-6.912 9.01-12.813 9.01-7.529 0-13.621-6.104-13.621-13.621 0-6.003 3.882-11.097 9.279-12.903l16.123 16.134c.426.426.774.886 1.032 1.38z" fill="#2f373b"/><path d="m338.954 136.713c0 93.587 118.417 159.774 23.024 251.431l-5.991-35.792c25.885-63.887-108.072-175.426-44.88-269.282 16.056-23.843 40.056-32.505 60.588-35.568 20.589-3.074 41.626-.236 60.914 7.574l28.847 11.669c-28.848-11.67-122.502-25.335-122.502 69.968z" fill="#c9394a"/><path d="m432.091 81.342c-4.185 3.175-9.717 4.634-15.618 3.198-16.875-4.073-18.311-21.789-44.622-26.883-33.997-6.575-62.642-50.58-56.392-56.818 3.59-3.59 11.153 5.038 25.649 13.026v.011c10.771 5.947 25.369 11.546 44.992 11.546 28.735 0 46.518 17.38 52.465 33.828 3.12 8.616-.145 17.312-6.474 22.092z" fill="#f6f1f1"/><path d="m432.091 81.342c-4.185 3.175-9.717 4.634-15.618 3.198-16.875-4.073-18.311-21.789-44.622-26.883-33.997-6.575-62.642-50.58-56.392-56.818 3.59-3.59 11.153 5.038 25.649 13.026v.011c-6.149 6.171 6.317 27.13 30.586 33.627 24.28 6.496 43.108-.651 43.938 18.199.617 13.901 8.022 18.692 16.459 15.64z" fill="#d0e2e7"/><path d="m427.727 190.569c-3.905 1.425-8.213 2.008-12.712 1.537-12.286-1.302-22.451-10.704-24.707-22.855-.785-4.185-.595-8.224.325-11.983 2.412-8.595 10.423-12.252 10.423-12.252s-7.033 17.672 4.05 31.91c9.614 12.349 22.621 13.643 22.621 13.643z" fill="#c9394a"/><path d="m458.694 222.008c-.022.011-.056.022-.09.034-.965.359-1.93.64-2.895.83-.965-1.481-.886-4.241-.886-9.01 0-10.233-32.448-49.312-39.192-56.044-6.732-6.743-7.473-18.042 3.007-21.105-3.557 1.29-5.756 5.812-3.007 9.604l46.496 64.078c2.94 4.05 1.257 9.829-3.433 11.613z" fill="#c9394a"/><path d="m469.667 198.547-18.491 8.303c-1.346.606-2.648.191-3.467-.684-.965-1.021-1.257-2.67-.168-4.017l11.198-13.958 4.14 3.927z" fill="#f6f1f1"/><path d="m454.823 184.477-10.199 6.44c-1.111.707-2.356.292-2.996-.583-.449-.606-.595-1.447-.191-2.278l5.408-11.13 3.332 3.153z" fill="#f6f1f1"/><path d="m462.879 192.118-15.169 14.047c-.965-1.021-1.257-2.67-.168-4.017l11.198-13.958z" fill="#d0e2e7"/><path d="m450.178 180.078-8.55 10.255c-.449-.606-.595-1.447-.191-2.278l5.408-11.13z" fill="#d0e2e7"/><path d="m435.312 141.537-16.987 8.482-2.693-3.703 17.088-5.352c1.021-.313 1.952-.021 2.592.573z" fill="#d0e2e7"/><g fill="#c9394a"><path d="m396.833 129.355c1.272.848.7 2.859-.828 2.881-.084.001-.168.002-.253.002-9.802 0-17.698-8.227-17.151-18.16.496-9.021 8.203-16.251 17.238-16.207.058 0 .116.001.174.002 1.525.023 2.09 2.034.82 2.879-4.618 3.074-7.656 8.33-7.656 14.297s3.038 11.229 7.656 14.306z"/><path d="m382.123 116.578c1.272.848.7 2.859-.828 2.881-.084.001-.168.002-.253.002-9.802 0-17.698-8.227-17.151-18.16.496-9.021 8.203-16.251 17.238-16.207.058 0 .116.001.174.002 1.525.023 2.09 2.034.82 2.879-4.618 3.074-7.656 8.33-7.656 14.297 0 5.966 3.039 11.228 7.656 14.306z"/><path d="m372.643 168.197c1.272.848.7 2.859-.828 2.881-.084.001-.168.002-.253.002-9.802 0-17.698-8.227-17.151-18.16.496-9.021 8.203-16.251 17.238-16.207.058 0 .116.001.174.002 1.525.023 2.09 2.034.82 2.879-4.618 3.074-7.656 8.33-7.656 14.297.001 5.967 3.039 11.229 7.656 14.306z"/><path d="m241.288 302.854c1.272.848.7 2.859-.828 2.881-.084.001-.168.002-.253.002-9.802 0-17.698-8.227-17.151-18.16.496-9.021 8.203-16.251 17.238-16.207.058 0 .116.001.174.002 1.525.023 2.09 2.034.82 2.879-4.618 3.074-7.656 8.33-7.656 14.297 0 5.966 3.038 11.229 7.656 14.306z"/><path d="m268.93 264.564c1.272.848.7 2.859-.828 2.881-.084.001-.168.002-.253.002-9.802 0-17.698-8.227-17.151-18.16.496-9.021 8.203-16.251 17.238-16.207.058 0 .116.001.174.002 1.525.023 2.09 2.034.82 2.879-4.618 3.074-7.656 8.33-7.656 14.297.001 5.966 3.039 11.229 7.656 14.306z"/><path d="m385.958 246.117c1.272.848.7 2.859-.828 2.881-.084.001-.168.002-.253.002-9.802 0-17.697-8.227-17.151-18.16.496-9.021 8.203-16.251 17.238-16.207.058 0 .116.001.174.002 1.525.023 2.09 2.034.82 2.879-4.618 3.074-7.656 8.33-7.656 14.297.001 5.966 3.039 11.229 7.656 14.306z"/><path d="m256.119 241.449c1.272.848.7 2.859-.828 2.881-.084.001-.168.002-.253.002-9.802 0-17.697-8.227-17.151-18.16.496-9.021 8.203-16.251 17.238-16.207.058 0 .116.001.174.002 1.525.023 2.09 2.034.82 2.879-4.618 3.074-7.656 8.33-7.656 14.297 0 5.966 3.038 11.228 7.656 14.306z"/><path d="m244.378 182.942c1.272.848.7 2.859-.828 2.881-.084.001-.168.002-.253.002-9.802 0-17.697-8.227-17.151-18.16.496-9.021 8.203-16.251 17.238-16.207.058 0 .116.001.174.002 1.525.023 2.09 2.034.82 2.879-4.618 3.074-7.656 8.33-7.656 14.297s3.038 11.229 7.656 14.306z"/><path d="m165.94 129.355c1.272.848.7 2.859-.828 2.881-.084.001-.168.002-.253.002-9.802 0-17.697-8.227-17.151-18.16.496-9.021 8.203-16.251 17.238-16.207.058 0 .116.001.174.002 1.525.023 2.09 2.034.82 2.879-4.618 3.074-7.656 8.33-7.656 14.297s3.038 11.229 7.656 14.306z"/><path d="m150.546 109.745c1.272.848.7 2.859-.828 2.881-.084.001-.168.002-.253.002-9.802 0-17.697-8.227-17.151-18.16.496-9.021 8.203-16.251 17.238-16.207.058 0 .116.001.174.002 1.525.023 2.09 2.034.82 2.879-4.618 3.074-7.656 8.33-7.656 14.297s3.038 11.229 7.656 14.306z"/><path d="m93.105 152.878c1.272.848.7 2.859-.828 2.881-.084.001-.168.002-.253.002-9.802 0-17.698-8.227-17.151-18.16.496-9.021 8.203-16.251 17.238-16.207.058 0 .116.001.174.002 1.525.023 2.09 2.034.82 2.879-4.618 3.074-7.656 8.33-7.656 14.297.001 5.966 3.039 11.228 7.656 14.306z"/><path d="m61.361 211.964c1.272.848.7 2.859-.828 2.881-.084.001-.168.002-.253.002-9.802 0-17.698-8.227-17.151-18.16.496-9.021 8.203-16.251 17.238-16.207.058 0 .116.001.174.002 1.525.023 2.09 2.034.82 2.879-4.618 3.074-7.656 8.33-7.656 14.297s3.038 11.229 7.656 14.306z"/><path d="m80.32 228.933c1.272.848.7 2.859-.828 2.881-.084.001-.168.002-.253.002-9.802 0-17.698-8.227-17.151-18.16.496-9.021 8.203-16.251 17.238-16.207.058 0 .116.001.174.002 1.525.023 2.09 2.034.82 2.879-4.618 3.074-7.656 8.33-7.656 14.297s3.039 11.229 7.656 14.306z"/><path d="m70.84 292.662c1.272.848.7 2.859-.828 2.881-.084.001-.168.002-.253.002-9.802 0-17.698-8.227-17.151-18.16.496-9.021 8.203-16.251 17.238-16.207.058 0 .116.001.174.002 1.525.023 2.09 2.034.82 2.879-4.618 3.074-7.656 8.33-7.656 14.297.001 5.966 3.039 11.228 7.656 14.306z"/><path d="m478.591 193.807c.453 1.079-.763 2.121-1.748 1.488-.054-.035-.108-.07-.162-.106-6.257-4.15-7.813-12.744-3.259-18.853 4.136-5.548 12.116-6.9 17.864-3.047.037.025.074.05.111.075.964.66.473 2.183-.695 2.185-4.249.007-8.413 2.076-10.939 5.884-2.528 3.81-2.816 8.455-1.172 12.374z"/></g><ellipse cx="487.276" cy="186.626" fill="#2f373b" rx="9.82" ry="6.308" transform="matrix(.553 -.833 .833 .553 62.413 489.544)"/></g><path d="m506.29 310c-4.43 20.62-11.34 40.32-20.41 58.77-41.7 84.84-128.97 143.23-229.88 143.23-88.6 0-166.7-45.02-212.65-113.44-19.75-29.4-33.57-63.12-39.73-99.44 11.03 10.66 21.21 22.17 43.16 22.17 40.91 0 40.91-40 81.82-40 40.92 0 40.92 40 81.83 40s40.91-40 81.82-40c40.92 0 40.92 40 81.83 40 40.92 0 40.92-40 81.83-40 26.58 0 35.9 16.88 50.38 28.71z" fill="#80b4fb"/><path d="m485.88 368.77c-13.62 27.71-32.1 52.6-54.33 73.54-6.33 5.98-12.96 11.62-19.87 16.93-6.26 4.8-12.75 9.32-19.46 13.54-39.45 24.84-86.15 39.22-136.22 39.22-62.58 0-119.92-22.46-164.39-59.77-18.5-15.5-34.77-33.57-48.26-53.67 1.11.07 2.25.1 3.43.1 40.91 0 40.91-40 81.82-40 40.92 0 40.92 40 81.83 40s40.91-40 81.82-40c40.92 0 40.92 40 81.83 40 40.92 0 40.92-40 81.83-40 13.44 0 22.46 4.31 29.97 10.11z" fill="#5ea5ec"/><g fill="#80b4fb"><path d="m374.08 476.02c7.15 0 13.05-1.22 18.14-3.24-39.45 24.84-86.15 39.22-136.22 39.22-62.58 0-119.92-22.46-164.39-59.77 9.07-8.59 19.13-16.21 36.99-16.21 40.92 0 40.92 40 81.83 40s40.91-40 81.82-40c40.92 0 40.92 40 81.83 40z"/><path d="m431.55 442.31c-6.33 5.98-12.96 11.62-19.87 16.93 6.27-5.99 12.14-12.37 19.87-16.93z"/></g></g></svg>