<svg id="Capa_1" enable-background="new 0 0 512 512" height="512" viewBox="0 0 512 512" width="512" xmlns="http://www.w3.org/2000/svg"><g><circle cx="256" cy="256" fill="#6ec17d" r="256"/><g><path d="m258.201 118.512h-4.403c-105.787 0-191.544 85.757-191.544 191.544v34.365h387.49v-34.365c.001-105.787-85.756-191.544-191.543-191.544z" fill="#d9723e"/><path d="m253.799 118.512c-49.764 0-90.108 85.753-90.108 191.541v34.367h-102.605v-34.367c0-105.788 85.753-191.541 191.541-191.541z" fill="#bd5423"/><path d="m279.571 105.056h-47.143c-8.723 0-15.795 7.072-15.795 15.795v171.514h78.732v-171.514c.001-8.724-7.071-15.795-15.794-15.795z" fill="#ffbb16"/><path d="m295.37 310.28v144.03c0 15.18-12.31 27.49-27.5 27.49h-23.74c-15.19 0-27.5-12.31-27.5-27.49v-144.03c0-8.72 7.08-15.79 15.8-15.79h47.14c8.72 0 15.8 7.07 15.8 15.79z" fill="#ffbb16"/><g fill="#ff931f"><path d="m265.634 481.8h-21.51c-15.18 0-27.49-12.31-27.49-27.49v-144.03c0-8.72 7.07-15.79 15.8-15.79h21.5c-8.72 0-15.8 7.07-15.8 15.79v144.03c0 15.18 12.31 27.49 27.5 27.49z"/><path d="m256.729 105.052c-8.734 0-15.799 7.065-15.799 15.799v171.505h-24.296v-171.505c0-8.734 7.077-15.799 15.799-15.799z"/><path d="m295.37 310.28v86.26h-78.74v-86.26c0-8.72 7.08-15.79 15.8-15.79h47.14c8.72 0 15.8 7.07 15.8 15.79z"/></g><path d="m440.92 380.556h-369.84c-17.567 0-31.808-14.241-31.808-31.808v-40.62c0-17.567 14.241-31.808 31.808-31.808h369.84c17.567 0 31.808 14.241 31.808 31.808v40.62c0 17.567-14.241 31.808-31.808 31.808z" fill="#ffbb16"/><path d="m179.274 380.547h-108.203c-17.562 0-31.799-14.237-31.799-31.799v-40.628c0-17.562 14.237-31.811 31.799-31.811h108.203c-17.574 0-31.811 14.249-31.811 31.811v40.628c0 17.562 14.237 31.799 31.811 31.799z" fill="#ff931f"/><g><path d="m118.609 316.318h-.406c-6.462 0-11.7-5.238-11.7-11.7 0-6.31-4.762-11.82-11.059-12.227-6.9-.447-12.636 5.018-12.636 11.821v.406c0 6.462-5.238 11.7-11.7 11.7h-.406c-6.543 0-11.847 5.304-11.847 11.847 0 6.543 5.304 11.847 11.847 11.847h.406c6.462 0 11.7 5.238 11.7 11.7 0 6.31 4.762 11.82 11.059 12.227 6.9.447 12.636-5.018 12.636-11.822v-.406c0-6.462 5.238-11.7 11.7-11.7h.406c6.543 0 11.847-5.304 11.847-11.847 0-6.542-5.304-11.846-11.847-11.846z" fill="#ea7f13"/><g fill="#ff931f"><path d="m226.172 316.318h-.406c-6.462 0-11.7-5.238-11.7-11.7 0-6.31-4.762-11.82-11.059-12.227-6.9-.447-12.636 5.018-12.636 11.821v.406c0 6.462-5.238 11.7-11.7 11.7h-.406c-6.543 0-11.847 5.304-11.847 11.847 0 6.543 5.304 11.847 11.847 11.847h.406c6.462 0 11.7 5.238 11.7 11.7 0 6.31 4.762 11.82 11.059 12.227 6.9.447 12.636-5.018 12.636-11.822v-.406c0-6.462 5.238-11.7 11.7-11.7h.406c6.543 0 11.847-5.304 11.847-11.847 0-6.542-5.304-11.846-11.847-11.846z"/><path d="m333.735 316.318h-.406c-6.462 0-11.7-5.238-11.7-11.7 0-6.31-4.762-11.82-11.059-12.227-6.9-.447-12.636 5.018-12.636 11.821v.406c0 6.462-5.238 11.7-11.7 11.7h-.406c-6.543 0-11.847 5.304-11.847 11.847 0 6.543 5.304 11.847 11.847 11.847h.406c6.462 0 11.7 5.238 11.7 11.7 0 6.31 4.762 11.82 11.059 12.227 6.9.447 12.636-5.018 12.636-11.822v-.406c0-6.462 5.238-11.7 11.7-11.7h.406c6.543 0 11.847-5.304 11.847-11.847 0-6.542-5.304-11.846-11.847-11.846z"/><path d="m441.298 316.318h-.406c-6.462 0-11.7-5.238-11.7-11.7 0-6.31-4.762-11.82-11.059-12.227-6.9-.447-12.636 5.018-12.636 11.821v.406c0 6.462-5.238 11.7-11.7 11.7h-.406c-6.543 0-11.847 5.304-11.847 11.847 0 6.543 5.304 11.847 11.847 11.847h.406c6.462 0 11.7 5.238 11.7 11.7 0 6.31 4.762 11.82 11.059 12.227 6.9.447 12.636-5.018 12.636-11.822v-.406c0-6.462 5.238-11.7 11.7-11.7h.406c6.543 0 11.847-5.304 11.847-11.847 0-6.542-5.304-11.846-11.847-11.846z"/></g></g><g><path d="m171.587 183.826c0 21.54-7.056 42.436-19.859 59.5-8.679 11.572-19.996 21.384-33.562 28.44-98.788-25.313-148.183-210.302-98.788-230.22 7.545-3.049 14.25-2.736 20.485-.02 33.464 14.484 53.577 97.831 117.241 103.617 4.359.391 8.073 3.362 9.441 7.525 3.42 10.302 5.042 20.798 5.042 31.158z" fill="#f6f1f1"/><path d="m151.728 243.326c-8.679 11.572-19.996 21.384-33.562 28.44-98.788-25.313-148.183-210.302-98.788-230.22 7.545-3.049 14.25-2.736 20.485-.02-38.801-8.346 1.954 162.374 111.865 201.8z" fill="#d0e2e7"/><path d="m393.83 271.77c-13.56-7.06-24.88-16.87-33.56-28.44-3.6-4.8-6.76-9.92-9.42-15.26-6.8-13.63-10.44-28.77-10.44-44.24 0-10.36 1.63-20.86 5.05-31.16 1.36-4.16 5.08-7.14 9.44-7.53 63.66-5.78 83.77-89.13 117.24-103.61 6.23-2.72 12.94-3.03 20.48.02 5.88 2.37 10.36 7.08 13.52 13.58 23.42 48.11-25.28 194.33-112.31 216.64z" fill="#f6f1f1"/><path d="m506.14 55.13c-13.52-13.58-24 65.89-64.07 94.65s-91.22 35.94-91.22 78.29c-6.8-13.63-10.44-28.77-10.44-44.24 0-10.36 1.63-20.86 5.05-31.16 1.36-4.16 5.08-7.14 9.44-7.53 63.66-5.78 83.77-89.13 117.24-103.61 6.23-2.72 12.94-3.03 20.48.02 5.88 2.37 10.36 7.08 13.52 13.58z" fill="#d0e2e7"/></g></g></g></svg>