<svg id="Capa_1" enable-background="new 0 0 512 512" height="512" viewBox="0 0 512 512" width="512" xmlns="http://www.w3.org/2000/svg"><g><path d="m512 256c0 55.21-17.48 106.35-47.21 148.16-7.25 10.2-15.23 19.84-23.87 28.86-2.78 2.91-5.64 5.76-8.56 8.54-4.1 3.89-8.32 7.65-12.67 11.27-7.39 6.15-15.12 11.89-23.18 17.19-40.34 26.54-88.62 41.98-140.51 41.98-48.88 0-94.56-13.7-133.42-37.48-4.25-2.6-8.43-5.33-12.51-8.16-6.51-4.53-12.8-9.35-18.85-14.44-15.89-13.38-30.13-28.65-42.37-45.48-3.16-4.35-6.19-8.8-9.08-13.35-3.59-5.65-6.97-11.45-10.11-17.39-18.93-35.72-29.66-76.46-29.66-119.7 0-44.07 11.14-85.54 30.75-121.74 5.04-9.32 10.65-18.29 16.78-26.86 46.42-65.01 122.5-107.4 208.47-107.4 141.38 0 256 114.62 256 256z" fill="#80b4fb"/><g><path d="m22.902 36.242c-6.984-13.127 12.422-23.835 20.119-11.112 8.298 13.717 18.858 20.489 38.73 15.379 35.137-9.035 120.97-36.642 165.142 7.529s42.666 67.763 42.666 67.763l-42.164 42.164s-8.031-56.218-47.183-79.308-123.982 15.56-162.633-23.09c-6.643-6.643-11.382-13.132-14.677-19.325z" fill="#d9723e"/><path d="m266.968 138.388-19.575 19.575s-8.027-56.22-47.184-79.308c-39.149-23.096-123.981 15.561-162.63-23.088-6.64-6.64-11.378-13.135-14.675-19.328-4.175-7.858 1.094-14.853 7.665-16.463-1.209 3.058-1.364 6.094.054 8.744 3.29 6.201 8.035 12.688 14.675 19.328 38.649 38.649 135.336-11.863 174.493 11.224 39.15 23.095 47.177 79.316 47.177 79.316z" fill="#bd5423"/><path d="m464.79 404.16c-9.6 13.5-20.47 26.02-32.43 37.4-14.43-42.91 9.55-107.75-9.78-140.54-23.09-39.15-79.31-47.18-79.31-47.18l42.16-42.17s23.59-1.5 67.76 42.67c38.68 38.67 22.34 109.26 11.6 149.82z" fill="#d9723e"/><path d="m179.08 418.03-56.5 56.49c-4.25-2.6-8.43-5.33-12.51-8.16l-12.77-32.31 49.42-65.48 27.98-11.92z" fill="#d0e2e7"/><path d="m440.92 433.02c-2.78 2.91-5.64 5.76-8.56 8.54-14.42-42.9 9.56-107.75-9.78-140.54-23.09-39.15-79.31-47.18-79.31-47.18l19.57-19.58s56.22 8.03 79.32 47.18c19.34 32.8-12.96 105.97-1.24 151.58z" fill="#bd5423"/><path d="m248.702 170.818 81.712 81.712c6.267 6.267 16.427 6.267 22.694 0l31.015-31.015c6.267-6.267 6.267-16.427 0-22.694l-81.712-81.712c-6.267-6.267-16.427-6.267-22.694 0l-31.015 31.015c-6.266 6.267-6.266 16.427 0 22.694z" fill="#2f373b"/><path d="m371.929 233.71-18.82 18.82c-6.271 6.271-16.424 6.271-22.695 0l-81.712-81.712c-6.263-6.263-6.271-16.424 0-22.695l18.82-18.82c-6.263 6.263-6.263 16.432 0 22.695l81.712 81.712c6.271 6.271 16.432 6.263 22.695 0z" fill="#181e21"/><path d="m7.215 253.372h438.696v42.592h-438.696z" fill="#d9723e" transform="matrix(.707 -.707 .707 .707 -127.861 240.653)"/><path d="m-.314 256.491h438.696v21.296h-438.696z" fill="#bd5423" transform="matrix(.707 -.707 .707 .707 -124.742 233.124)"/><path d="m465.333 35.903c3.451 3.451 4.961 8.859 2.45 14.159l-52.323 110.376c-4.568 9.637-18.18 9.938-23.165.501l-17.972-34.027-34.034-17.98c-9.429-4.976-9.129-18.589.508-23.157l110.377-52.323c5.292-2.518 10.7-1.008 14.159 2.451z" fill="#f6f1f1"/><path d="m465.333 35.903-91.01 91.01-34.034-17.98c-9.429-4.976-9.129-18.589.508-23.157l110.377-52.323c5.292-2.519 10.7-1.009 14.159 2.45z" fill="#d0e2e7"/><path d="m419.69 452.83c-7.39 6.15-15.12 11.89-23.18 17.19l-305.29-18.1c-15.89-13.38-30.13-28.65-42.37-45.48l-18.1-272.18-5.39-81.05c-.17-2.67.81-5.28 2.7-7.17l16.92-16.92c3.61-3.61 9.48-3.61 13.09 0 3.62 3.62 3.62 9.48 0 13.1l-13.95 13.95 3.41 51.23 20.38 306.53c.69 10.33 9 18.58 19.33 19.2z" fill="#ffbb16"/><path d="m144.58 326.53-77.39 77.4-27.42-10.84c-3.59-5.65-6.97-11.45-10.11-17.39l53.54-53.54z" fill="#f6f1f1"/></g></g></svg>