<svg id="Capa_1" enable-background="new 0 0 512 512" height="512" viewBox="0 0 512 512" width="512" xmlns="http://www.w3.org/2000/svg"><g><circle cx="256" cy="256" fill="#ff931f" r="256"/><g><path d="m398.41 468.76c-12.34 8.28-25.44 15.52-39.18 21.57-9.59 4.23-19.49 7.9-29.65 10.93-1.12.34-2.25.67-3.38.99-22.3 6.35-45.85 9.75-70.2 9.75-24.34 0-47.89-3.4-70.2-9.74-7.24-2.06-14.36-4.44-21.33-7.12-.43-.16-.86-.32-1.29-.49-3.51-1.36-6.98-2.81-10.41-4.32-13.74-6.06-26.84-13.29-39.19-21.58 10.39-14.37 23.76-26.43 39.19-35.32 10.2-5.87 21.3-10.34 33.03-13.15 1.81-.44 3.64-.84 5.48-1.19 3.47-.68 7-1.2 10.57-1.57 1.03-.11 2.05-.21 3.09-.29 3.38-.28 6.8-.42 10.26-.42h81.59c4.52 0 8.97.24 13.35.7 3.57.37 7.09.9 10.57 1.56 1.39.27 2.77.56 4.14.87.45.12.91.21 1.35.33 3.48.84 6.9 1.82 10.26 2.94 7.98 2.65 15.59 6.09 22.77 10.22 15.43 8.9 28.79 20.96 39.18 35.33z" fill="#d9723e"/><path d="m215.2 416.81c-29.36 0-49.26 42.43-50.73 78.33-.43-.16-.86-.32-1.29-.49-3.51-1.36-6.98-2.81-10.41-4.32-13.74-6.06-26.84-13.29-39.19-21.58 10.39-14.37 23.76-26.43 39.19-35.32 10.2-5.87 21.3-10.34 33.03-13.15 1.81-.44 3.64-.84 5.48-1.19 3.47-.68 7-1.2 10.57-1.57 1.03-.11 2.05-.21 3.09-.29 3.38-.28 6.8-.42 10.26-.42z" fill="#bd5423"/><path d="m320.71 419.07v4.34c0 28.54-18.32 53.38-45.59 61.81-6.17 1.92-12.61 2.89-19.13 2.89-35.68 0-64.71-29.03-64.71-64.7v-4.32c3.47-.68 7-1.2 10.57-1.57 1.03-.11 2.05-.21 3.09-.29 3.38-.28 6.8-.42 10.26-.42h81.59c4.52 0 8.97.24 13.35.7 3.57.37 7.09.9 10.57 1.56z" fill="#f9c5ac"/><path d="m204.94 417.23c-1.04.08-2.06.18-3.09.29-3.57.37-7.1.89-10.57 1.57v4.32c0 1.245.044 2.479.114 3.706 6.904-6.415 14.921-10.306 23.806-10.306-3.46 0-6.88.14-10.26.42z" fill="#efb29a"/><path d="m300.706 368.538v54.869c0 20.088-13.245 37.067-31.489 42.707-4.176 1.296-8.627 1.997-13.23 1.997-24.691 0-44.703-20.012-44.703-44.703v-54.869h89.422z" fill="#efb29a"/><path d="m300.706 419.932v3.475c0 20.088-13.245 37.067-31.489 42.707-16.461-5.06-28.837-19.372-31.123-36.884 2.987.183 5.99.274 9.008.274 8.459 0 16.75-.671 24.828-1.997 9.953-1.6 19.57-4.161 28.776-7.575z" fill="#f9c5ac"/><g><path d="m132.54 278.153c0 20.497-14.973 37.492-34.579 40.646-2.143.347-4.347.528-6.596.528-22.746 0-41.175-18.429-41.175-41.175s18.429-41.175 41.175-41.175c2.249 0 4.453.181 6.596.528 19.606 3.156 34.579 20.152 34.579 40.648z" fill="#f9c5ac"/><path d="m132.54 278.153c0 20.497-14.973 37.492-34.579 40.646-3.562-12.95-5.464-26.579-5.464-40.646s1.902-27.696 5.464-40.646c19.606 3.154 34.579 20.15 34.579 40.646z" fill="#efb29a"/><circle cx="91.365" cy="278.153" fill="#efb29a" r="14.716"/><path d="m379.449 278.153c0 20.497 14.973 37.492 34.579 40.646 2.143.347 4.347.528 6.596.528 22.746 0 41.175-18.429 41.175-41.175s-18.429-41.175-41.175-41.175c-2.249 0-4.453.181-6.596.528-19.606 3.156-34.579 20.152-34.579 40.648z" fill="#f9c5ac"/><g fill="#efb29a"><path d="m379.449 278.153c0 20.497 14.973 37.492 34.579 40.646 3.562-12.95 5.464-26.579 5.464-40.646s-1.902-27.696-5.464-40.646c-19.606 3.154-34.579 20.15-34.579 40.646z"/><circle cx="420.624" cy="278.153" r="14.716"/></g></g><path d="m410.7 217.53v37.59c0 85.45-69.92 156.45-155.37 156.09-8.23-.03-16.3-.7-24.16-1.99-73.64-11.86-129.88-75.72-129.88-152.71v-38.98c0-6.1.35-12.13 1.04-18.04 1.08-9.33 2.99-18.4 5.67-27.15 1.18-3.9 2.52-7.72 4.01-11.48 2.51-6.39 5.44-12.58 8.76-18.52 7.01-12.58 15.73-24.09 25.84-34.2 27.84-27.85 66.25-45.12 108.7-45.31h.69c.18 0 .35 0 .53.01 65.2.21 120.9 40.77 143.46 98.02 1.48 3.75 2.82 7.58 4 11.48 4.36 14.29 6.71 29.47 6.71 45.19z" fill="#f9c5ac"/><path d="m284.1 408.4c-1.53.3-3.07.57-4.61.82-7.87 1.29-15.93 1.96-24.16 1.99-8.23-.03-16.3-.7-24.16-1.99-73.64-11.86-129.88-75.72-129.88-152.71v-38.98c0-6.1.35-12.13 1.04-18.04 1.08-9.33 2.99-18.4 5.67-27.15 1.18-3.9 2.52-7.72 4.01-11.48 2.51-6.39 5.44-12.58 8.76-18.52 7.01-12.58 15.73-24.09 25.84-34.2 27.84-27.85 66.25-45.12 108.7-45.31.41 0 .82.01 1.22.01 9.36.11 18.51 1.05 27.4 2.76-71.45 13.67-125.44 76.5-125.44 151.93v37.59c0 75.28 54.26 139.35 125.61 153.28z" fill="#efb29a"/><path d="m273.544 291.694h-35.098c-4.181 0-7.57-3.389-7.57-7.57 0-4.181 3.389-7.57 7.57-7.57h35.098c4.181 0 7.57 3.389 7.57 7.57 0 4.18-3.389 7.57-7.57 7.57z" fill="#efb29a"/><g><path d="m281.34 249.161c0 17.165 13.915 31.08 31.08 31.08s31.08-13.915 31.08-31.08" fill="#efb29a"/><circle cx="312.42" cy="249.161" fill="#2f373b" r="22.287"/><circle cx="321.708" cy="245.228" fill="#fff" r="9.55"/><path d="m168.49 249.161c0 17.165 13.915 31.08 31.08 31.08s31.08-13.915 31.08-31.08" fill="#efb29a"/><circle cx="199.57" cy="249.161" fill="#2f373b" r="22.287"/><path d="m204.782 270.831c-1.67.41-3.42.62-5.21.62-12.31 0-22.29-9.98-22.29-22.29s9.98-22.29 22.29-22.29c1.79 0 3.54.21 5.21.62-9.8 2.34-17.07 11.16-17.07 21.67s7.27 19.33 17.07 21.67z" fill="#181e21"/><path d="m317.632 270.831c-1.67.41-3.42.62-5.21.62-12.31 0-22.29-9.98-22.29-22.29s9.98-22.29 22.29-22.29c1.79 0 3.54.21 5.21.62-9.8 2.34-17.07 11.16-17.07 21.67s7.27 19.33 17.07 21.67z" fill="#181e21"/><circle cx="208.858" cy="245.228" fill="#fff" r="9.55"/></g><path d="m255.999 345.352c-12.828 0-25.656-3.214-37.349-9.642-3.298-1.813-4.502-5.957-2.689-9.255 1.814-3.299 5.958-4.501 9.255-2.689 19.276 10.597 42.292 10.596 61.566 0 3.296-1.813 7.441-.61 9.255 2.689 1.814 3.298.61 7.442-2.689 9.255-11.693 6.428-24.521 9.642-37.349 9.642z" fill="#dd9f8a"/></g><g fill="#181e21"><circle cx="255.995" cy="398.885" r="26.697"/><circle cx="255.995" cy="432.59" r="19.87"/><circle cx="255.995" cy="459.757" r="13.513"/></g><g><path d="m324.547 7.974c-9.024 51.768-18.062 103.536-27.1 155.304-22.534-3.928-45.502-4.635-68.186-2.093-4.92.544-9.826 1.237-14.719 2.093-9.038-51.768-18.076-103.536-27.1-155.304 12.925-2.256 25.931-3.874 38.979-4.838 19.49-1.454 39.06-1.468 58.55-.04l4.322 31.822 10.139-30.504c8.399.91 16.771 2.106 25.115 3.56z" fill="#2f373b"/><path d="m229.261 161.185c-4.92.544-9.826 1.237-14.719 2.093-9.038-51.768-18.076-103.536-27.1-155.304 12.925-2.256 25.931-3.874 38.979-4.838z" fill="#181e21"/></g><g fill="#e84d59"><path d="m401.49 198.5-32.74 18.4c-.93.52-1.94.77-2.93.77-2.1 0-4.14-1.11-5.24-3.07-1.62-2.89-.6-6.54 2.29-8.17l20.16-11.32-15.92-4.52c-2.35-.66-4.06-2.68-4.33-5.1s.94-4.76 3.08-5.93l34.13-18.7c1.48 3.75 2.82 7.58 4 11.48l-19.52 10.7 15.72 4.46c2.33.66 4.04 2.66 4.32 5.06.28 2.41-.91 4.75-3.02 5.94z"/><path d="m151.41 214.6c-1.1 1.96-3.14 3.07-5.24 3.07-.99 0-2-.25-2.93-.77l-32.74-18.4c-2.11-1.19-3.31-3.53-3.02-5.94.28-2.4 1.99-4.4 4.32-5.06l15.72-4.46-19.52-10.7c1.18-3.9 2.52-7.72 4.01-11.48l34.12 18.7c2.14 1.17 3.35 3.51 3.08 5.93s-1.98 4.44-4.33 5.1l-15.92 4.52 20.16 11.32c2.89 1.63 3.91 5.28 2.29 8.17z"/></g><g fill="#e84d59"><path d="m193.408 284.124h-28.98c-4.041 0-7.316 3.276-7.316 7.316 0 4.041 3.276 7.316 7.316 7.316h28.98c4.041 0 7.316-3.276 7.316-7.316 0-4.041-3.276-7.316-7.316-7.316z"/><path d="m347.561 284.124h-28.98c-4.041 0-7.316 3.276-7.316 7.316 0 4.041 3.276 7.316 7.316 7.316h28.98c4.041 0 7.316-3.276 7.316-7.316.001-4.041-3.275-7.316-7.316-7.316z"/></g></g></svg>