<svg id="Capa_1" enable-background="new 0 0 512 512" height="512" viewBox="0 0 512 512" width="512" xmlns="http://www.w3.org/2000/svg"><g><circle cx="256" cy="256" fill="#b1e4f9" r="256"/><path d="m506.29 310c-4.43 20.62-11.34 40.32-20.41 58.77-41.7 84.84-128.97 143.23-229.88 143.23-88.6 0-166.7-45.02-212.65-113.44-19.75-29.4-33.57-63.12-39.73-99.44 11.03 10.66 21.21 22.17 43.16 22.17 40.91 0 40.91-40 81.82-40 40.92 0 40.92 40 81.83 40s40.91-40 81.82-40c40.92 0 40.92 40 81.83 40 40.92 0 40.92-40 81.83-40 26.58 0 35.9 16.88 50.38 28.71z" fill="#80b4fb"/><path d="m462.76 406.97c-18.84 25.77-42.39 47.88-69.38 65.07-11.85 7.55-24.36 14.16-37.43 19.7-5.42 2.31-10.92 4.42-16.52 6.35-26.15 9.02-54.22 13.91-83.43 13.91-47.24 0-91.5-12.8-129.49-35.12-15.54-9.13-30.03-19.85-43.25-31.94 1.72.22 3.54.33 5.45.33 36.21 0 36.21-40 72.42-40s36.21 40 72.41 40c36.21 0 36.21-40 72.42-40s36.21 40 72.42 40 36.21-40 72.42-40c4.5 0 8.44.62 11.96 1.7z" fill="#5ea5ec"/><g><path d="m174.948 237.534s-53.484-73.808-31.152-160.689c1.802-7.012 11.357-7.991 14.589-1.512 9.683 19.415 27.142 48.846 48.328 59.713 8.185 4.198 17.221-3.932 13.882-12.503-6.604-16.955-15.659-44.223-16.423-67.881-.207-6.418 8.527-8.553 11.365-2.793 13.335 27.063 40.627 74.48 74.437 89.99 0 0-8.981-16.995-4.461-42.143 1.143-6.361 9.659-7.734 12.745-2.056 4.109 7.561 9.68 17.037 16.265 26.301 6.846 9.632 21.849 1.557 17.5-9.43-7.93-20.031-14.947-44.734-14.981-69.488-.011-7.751 10.47-10.114 13.72-3.076 14.727 31.89 46.921 76.909 88.156 93.004 44.614 17.414-33.04 45.543-33.04 45.543l-120.393 92.677" fill="#c9394a"/><path d="m510.19 225.43c-.61 1.19-1.37 2.32-2.3 3.38-11.09 12.67-27.32 20.79-40.03 25.61-9.3 3.52-19.53-1.95-21.94-11.6-1.39-5.52-3.3-11.12-5.58-16.45-3.48 1.27-7.32 1.79-11.33 1.37-10.95-1.16-20.01-9.54-22.02-20.37-.7-3.73-.53-7.33.29-10.68-1.76 1.61-3.32 4.11-4.61 7.67-11.78 32.4 37.88 73.63 37.88 140.82 0 48.49-17.77 92.84-47.17 126.86-16.76 10.68-34.84 19.47-53.95 26.05-26.15 9.02-54.22 13.91-83.43 13.91-70.37 0-134.12-28.41-180.4-74.36l-.01-.01c-12.97-23.93-21.07-50.89-22.95-79.54-.29-4.27-.43-8.57-.43-12.91 0-67.19 49.67-108.42 37.89-140.82-9.89-27.18-50.22-14.72-37.89 13.25 12.33 27.98 9.38 48.6-17.86 58.17 0 0 9.55-30.25-8.1-47.9-6.67-6.67-14.6-16.28-19.99-28.35-6.21-13.93-9.04-31.13-2.62-50.9 2.74-8.46 7.18-17.39 13.77-26.73 9.93-14.07 23.95-22.56 39.34-26.64 39.38-10.47 87.73 7.87 99.61 35.3 7 16.16 9.83 31.93 9.83 47.1 0 63.71-49.83 116.91-49.83 144.26 42.56 11.64 86.29 17.47 130.02 17.47 19.77 0 39.54-1.19 59.19-3.58 23.83-2.88 47.51-7.51 70.83-13.89 0-33.87-80.58-135.23-40-191.36 33.63-46.5 95.72-30.04 95.72-30.04l15.45-14.33 5.91-5.48c4.62-4.28 12.15-1.56 12.96 4.69l3.96 30.61c17.72 8.12 22.85 27.82 23.56 45.43.72 17.53-2.94 33.01-2.94 33.01l13.96 9.88c.79.55 1.51 1.16 2.16 1.82 5.11 5.09 6.3 12.93 3.05 19.28z" fill="#434d51"/><path d="m108.82 465.48c-8.96-6.3-17.5-13.17-25.56-20.54-2.6-2.38-5.16-4.82-7.66-7.3l-.01-.01c-14.91-27.49-23.38-58.99-23.38-92.45 0-67.19 49.67-108.42 37.89-140.82-9.89-27.18-50.22-14.72-37.89 13.25 12.33 27.98 9.38 48.6-17.86 58.17 0 0 9.55-30.25-8.1-47.9-6.67-6.67-14.6-16.28-19.99-28.35-6.21-13.93-9.04-31.13-2.62-50.9-.26 12.27 1.62 24.56 7.41 32.78 4.27 6.05 10.66 9.9 19.9 9.9 41.05 0 36.17-44.41 91.88-37.17 55.71 7.23 0 96.37-30.3 154.85-21.5 41.5-14.46 105.88 16.29 156.49z" fill="#2f373b"/><path d="m339.43 498.09c-26.15 9.02-54.22 13.91-83.43 13.91-70.38 0-134.13-28.41-180.41-74.37-12.97-23.93-21.07-50.89-22.95-79.54l27.84-3.03c-4.34 38.05 60.8 168.03 258.95 143.03z" fill="#2f373b"/><path d="m388.16 282.76c13.18 29.32 14.2 64.5-15.48 103.84l-67.11-50.79c23.83-2.88 47.51-7.51 70.83-13.89 0-33.87-80.58-135.23-40-191.36 33.63-46.5 95.72-30.04 95.72-30.04-144.22 9.33-57.13 152.92-43.96 182.24z" fill="#2f373b"/><path d="m119.176 336.565s-66.582-98.83-44.254-185.709c1.803-7.014 11.36-7.993 14.592-1.513 12.706 25.475 38.799 68.191 69.131 63.588 0 0-22.13-46.68-23.346-84.258-.208-6.419 8.529-8.555 11.368-2.794 13.336 27.064 40.626 74.475 74.434 89.984 0 0-8.98-16.992-4.462-42.138 1.143-6.363 9.662-7.737 12.749-2.057 11.024 20.283 32.563 54.338 55.98 61.136 0 0-37.121-56.746-37.199-113.758-.011-7.751 10.47-10.114 13.72-3.076 14.727 31.89 46.921 76.909 88.156 93.004 44.614 17.414 34.95 138.22 34.95 138.22h-188.383" fill="#e84d59"/><path d="m311.73 313.328c11.294-3.434 13.568-34.71 1.571-51.651-5.149-7.271-9.288-13.822-12.164-19.755-2.012-4.152 3.24-8.046 6.645-4.933 5.583 5.106 13.619 9.484 24.76 9.484 26.725 0 52.6 61.249 24.365 78.624" fill="#ffbb16"/><path d="m282.506 307.055c-16.124 5.147-27.89-18.916-29.402-31.786-2.26-19.235-26.533-37.082-41.399-46.316-3.463-2.151-7.705 1.26-6.333 5.1 5.098 14.27 8.612 36.543-19.135 36.543-28.166 0-51.07-21.71-62.566-35.174-3.258-3.816-9.462-1.216-9.095 3.788 1.65 22.509 17.355 42.501 17.355 42.501l45.442 73.348 119.175-7.866" fill="#ffbb16"/><g><circle cx="315.787" cy="347.194" fill="#f6f1f1" r="69.208"/><circle cx="315.787" cy="347.194" fill="#bd5423" r="49.128"/><circle cx="315.787" cy="347.194" fill="#f6f1f1" r="19.24"/></g><path d="m439.218 149.25c-10.055 10.055-10.055 26.358 0 36.413s26.358 10.055 36.413 0" fill="#2f373b"/><circle cx="486.845" cy="229.112" fill="#434d51" r="19.222"/><circle cx="486.845" cy="229.112" fill="#2f373b" r="8.796"/><g><circle cx="177.372" cy="347.194" fill="#f6f1f1" r="69.208"/><circle cx="177.372" cy="347.194" fill="#bd5423" r="49.128"/><circle cx="177.372" cy="347.194" fill="#f6f1f1" r="19.24"/></g><g fill="#c9394a"><path d="m154.196 45.754c6.371 12.215 20.684 27.115 30.542 36.589 3.841 3.691 10.147.219 9.084-5.001-2.579-12.661-10.297-30.379-32.83-39.18-4.686-1.83-9.123 3.131-6.796 7.592z"/><path d="m392.822 72.67c-5.613-18.046-21.291-41.659-32.281-56.858-4.282-5.922-13.643-2.777-13.485 4.529.385 17.721 6.471 43.526 34.736 60.915 5.878 3.617 13.08-1.995 11.03-8.586z"/><path d="m301.391 72.692c-3.673-11.808-13.93-27.257-21.121-37.201-2.802-3.875-8.927-1.817-8.823 2.963.252 11.594 4.234 28.478 22.727 39.856 3.846 2.367 8.558-1.305 7.217-5.618z"/></g><path d="m205.457 151.894c-3.673-11.808-13.93-27.257-21.121-37.201-2.802-3.875-8.927-1.817-8.823 2.963.252 11.594 4.234 28.478 22.727 39.856 3.846 2.367 8.558-1.305 7.217-5.618z" fill="#e84d59"/><path d="m355.95 491.74c-5.42 2.31-10.92 4.42-16.52 6.35-26.15 9.02-54.22 13.91-83.43 13.91-47.24 0-91.5-12.8-129.49-35.12 8.55-9.39 17.57-18.25 34.62-18.25 36.21 0 36.21 40 72.41 40 36.21 0 36.21-40 72.42-40 26.66 0 33.69 21.68 49.99 33.11z" fill="#80b4fb"/></g></g></svg>