<svg id="Capa_1" enable-background="new 0 0 512 512" height="512" viewBox="0 0 512 512" width="512" xmlns="http://www.w3.org/2000/svg"><g><path d="m512 256c0 141.38-114.62 256-256 256-55.47 0-106.82-17.65-148.74-47.62-4.62-3.31-9.13-6.76-13.51-10.37-8.19-6.71-15.95-13.92-23.24-21.59-1.29-1.35-2.56-2.72-3.82-4.1-2.99-3.28-5.89-6.64-8.7-10.07-3.61-4.39-7.07-8.89-10.37-13.51-29.97-41.92-47.62-93.27-47.62-148.74 0-141.38 114.62-256 256-256s256 114.62 256 256z" fill="#6ec17d"/><g><path d="m258.208 194.146c-35.933 0-69.794 28.742-92.385 75.954-61.784-61.784-61.792-161.967 0-223.759s161.975-61.784 223.759 0c-47.212 22.59-75.954 56.452-75.954 92.385l2.113 57.533z" fill="#d0e2e7"/><path d="m168.769 264.192c-1 1.93-1.985 3.907-2.946 5.908-61.784-61.784-61.792-161.967 0-223.759 61.792-61.792 161.974-61.784 223.759 0-2.001.961-3.978 1.945-5.908 2.946-60.098-33.066-137.139-24.126-188.085 26.82s-59.886 127.987-26.82 188.085z" fill="#f6f1f1"/><path d="m317.854 253.792c0 35.933-28.742 69.794-75.954 92.385 61.784 61.784 161.967 61.792 223.759 0s61.784-161.975 0-223.759c-22.59 47.212-56.452 75.954-92.385 75.954l-57.533-2.113z" fill="#d0e2e7"/><path d="m247.808 343.231c-1.93 1-3.907 1.985-5.908 2.946 61.784 61.784 161.967 61.792 223.759 0s61.784-161.974 0-223.759c-.961 2.001-1.945 3.978-2.946 5.908 33.066 60.098 24.126 137.139-26.82 188.085s-127.987 59.886-188.085 26.82z" fill="#f6f1f1"/><path d="m418.13 129.63-324.38 324.38c-8.19-6.71-15.95-13.92-23.24-21.59-1.29-1.35-2.56-2.72-3.82-4.1-2.99-3.28-5.89-6.64-8.7-10.07l324.38-324.38c5.24-5.24 13.75-5.24 18.99 0l16.77 16.77c5.24 5.24 5.24 13.75 0 18.99z" fill="#d9723e"/><path d="m414.7 107.22c-5.25-5.25-13.74-5.25-18.99 0l-325.2 325.2c-1.29-1.35-2.56-2.72-3.82-4.1-2.99-3.28-5.89-6.64-8.7-10.07l324.38-324.38c5.25-5.24 13.74-5.24 18.98 0z" fill="#bd5423"/><path d="m255.894 283.142-27.036-27.036c-9.005-9.005-9.005-23.605 0-32.611l114.12-114.12c9.005-9.005 23.605-9.005 32.611 0l27.036 27.036c9.005 9.005 9.005 23.605 0 32.611l-114.12 114.12c-9.006 9.005-23.606 9.005-32.611 0z" fill="#f6f1f1"/><path d="m250.188 277.435-21.33-21.33c-9.003-9.003-9.011-23.598 0-32.609l114.116-114.116c9.003-9.003 23.606-9.003 32.609 0l21.33 21.33c-9.003-9.003-23.606-9.003-32.609 0l-114.116 114.115c-9.011 9.011-9.003 23.607 0 32.61z" fill="#d0e2e7"/><path d="m160.52 411.12-53.26 53.26c-23.01-16.46-43.18-36.63-59.64-59.64l53.26-53.26c9-9.01 23.6-9.01 32.61 0l27.03 27.03c9.01 9.01 9.01 23.61 0 32.61z" fill="#2f373b"/><path d="m154.81 372.81c-9-9-23.61-9-32.61 0l-55.51 55.51c-6.81-7.47-13.18-15.35-19.07-23.58l53.25-53.26c9-9 23.61-9 32.61 0z" fill="#181e21"/></g></g></svg>