<svg id="Capa_1" enable-background="new 0 0 512 512" height="512" viewBox="0 0 512 512" width="512" xmlns="http://www.w3.org/2000/svg"><g><path d="m512 256c0 141.38-114.62 256-256 256-58.78 0-112.94-19.82-156.15-53.13-9.72-7.49-18.89-15.66-27.43-24.45-6.84-7.05-13.28-14.48-19.29-22.27-33.31-43.21-53.13-97.37-53.13-156.15 0-141.38 114.62-256 256-256s256 114.62 256 256z" fill="#80b4fb"/><g><path d="m120.55 447.88c-5.87 5.88-13.12 9.54-20.7 10.99-17.51-13.49-33.23-29.21-46.72-46.72 1.45-7.58 5.11-14.83 10.98-20.71z" fill="#ffbb16"/><path d="m83.8 411.13c-6.53 6.53-10.32 14.78-11.38 23.29-6.84-7.05-13.28-14.48-19.29-22.27 1.44-7.59 5.1-14.85 10.97-20.72z" fill="#ff931f"/><path d="m204.966 351.126-65.034 65.034-44.088-44.088 65.022-65.034z" fill="#d9723e"/><path d="m177.708 323.869-65.033 65.034-16.831-16.831 65.022-65.034z" fill="#bd5423"/><path d="m483.355 54.765-9.775 55.784c-1.153 6.578-4.305 12.641-9.027 17.363l-80.497 80.487-11.074 11.084-33.643 33.633-88.635 88.645-80.473-80.473 213.848-213.847c4.723-4.723 10.787-7.875 17.367-9.027l55.905-9.786c7.66-1.302 14.817 1.374 19.739 6.286 4.932 4.941 7.608 12.15 6.265 19.851z" fill="#f6f1f1"/><path d="m372.982 219.48-33.639 33.639h-160.939l33.639-33.639z" fill="#fff"/><path d="m433.931 158.531-49.87 49.87h-160.94l49.871-49.87z" fill="#fff"/><path d="m477.09 34.913-266.613 266.613-40.247-40.236 213.849-213.849c4.723-4.723 10.787-7.875 17.367-9.027l55.905-9.786c7.66-1.303 14.817 1.373 19.739 6.285z" fill="#d0e2e7"/><path d="m230.668 392.469-111.138-111.137c-6.3-6.3-6.3-16.515 0-22.815l12.559-12.559c6.3-6.3 16.515-6.3 22.815 0l111.134 111.134c6.299 6.299 6.3 16.512.003 22.812l-12.555 12.562c-6.3 6.304-16.517 6.305-22.818.003z" fill="#2f373b"/><path d="m139.228 301.035-19.697-19.697c-6.297-6.297-6.297-16.524 0-22.821l12.561-12.561c6.297-6.297 16.515-6.289 22.812.008l19.697 19.697c-6.306-6.306-16.515-6.306-22.812-.009l-12.561 12.561c-6.298 6.298-6.306 16.516 0 22.822z" fill="#181e21"/><path d="m149.993 442.469-11.306 11.306c-5.316 5.316-13.935 5.314-19.248-.005l-10.053-10.063-51.162-51.162c-5.314-5.314-5.314-13.93 0-19.244l11.302-11.302c5.314-5.314 13.93-5.314 19.244 0l61.224 61.224c5.313 5.316 5.313 13.932-.001 19.246z" fill="#2f373b"/><path d="m88.743 381.221-11.301 11.301c-5.315 5.315-5.315 13.929 0 19.244l-19.219-19.219c-5.306-5.306-5.315-13.929 0-19.244l11.301-11.301c5.306-5.306 13.938-5.306 19.244 0l19.219 19.219c-5.314-5.315-13.937-5.307-19.244 0z" fill="#181e21"/><g fill="#bd5423"><path d="m173.1 382.993-44.094-44.094c-4.637-4.637-4.637-12.155 0-16.792s12.155-4.637 16.792 0l44.094 44.094c4.637 4.637 4.637 12.155 0 16.792s-12.155 4.636-16.792 0z"/><path d="m146.936 409.157-44.094-44.094c-4.637-4.637-4.637-12.155 0-16.792s12.155-4.637 16.792 0l44.094 44.094c4.637 4.637 4.637 12.155 0 16.792s-12.156 4.637-16.792 0z"/></g></g></g></svg>