<svg id="Capa_1" enable-background="new 0 0 512 512" height="512" viewBox="0 0 512 512" width="512" xmlns="http://www.w3.org/2000/svg"><g><path d="m512 256c0 124.51-88.89 228.26-206.67 251.25-10.94 2.14-22.13 3.58-33.53 4.27-5.22.32-10.49.48-15.8.48-13.69 0-27.13-1.07-40.24-3.15-11.85-1.87-23.44-4.56-34.69-8-10.84-3.32-21.37-7.33-31.54-11.99-7.1-3.24-14.01-6.8-20.73-10.66-8.93-5.12-17.52-10.76-25.73-16.89-4.01-2.99-7.92-6.09-11.74-9.31-4.83-4.05-9.5-8.28-14-12.67-3.84-3.74-7.56-7.6-11.14-11.57-4.69-5.16-9.15-10.52-13.4-16.05-3.29-4.29-6.45-8.68-9.47-13.18-6.58-9.8-12.5-20.08-17.7-30.78-8.13-16.72-14.49-34.46-18.83-52.97-2.56-10.86-4.42-21.98-5.54-33.33-.83-8.37-1.25-16.86-1.25-25.45 0-141.38 114.62-256 256-256s256 114.62 256 256z" fill="#e84d59"/><g><circle cx="322.634" cy="189.366" fill="#f6f1f1" r="189.366"/><path d="m322.634 356.54c-44.654 0-86.635-17.389-118.21-48.964-31.576-31.575-48.965-73.556-48.965-118.21s17.389-86.635 48.965-118.21c31.575-31.575 73.556-48.964 118.21-48.964s86.635 17.389 118.21 48.964c31.576 31.575 48.965 73.556 48.965 118.21s-17.389 86.635-48.965 118.21c-31.575 31.575-73.556 48.964-118.21 48.964z" fill="#d0e2e7"/><circle cx="322.634" cy="189.366" fill="#f6f1f1" r="131.979"/><path d="m210.28 189.366c0 6.295.518 12.464 1.509 18.471.828 4.993 1.982 9.868 3.44 14.617 14.128 45.906 56.869 79.267 107.406 79.267 62.054 0 112.355-50.3 112.355-112.355s-50.3-112.355-112.355-112.355c-37.91 0-71.426 18.774-91.783 47.526-2.877 4.076-5.496 8.351-7.819 12.804-3.558 6.783-6.435 13.973-8.551 21.481-1.332 4.719-2.36 9.572-3.07 14.528-.748 5.231-1.132 10.579-1.132 16.016z" fill="#b4d0d5"/><g><path d="m353.315 134.552 6.151 84.453h-73.664l6.151-84.453c10.491.986 20.838 3.543 30.681 7.636 9.837-4.099 20.185-6.65 30.681-7.636z" fill="#d0e2e7"/><g fill="#f6f1f1"><path d="m376.823 130.16c1.087 6.936-4.78 12.997-11.744 12.103-3.492-.448-6.829-.789-8.903-.789-2.726 0-5.452.128-8.169.384-2.868.27-5.722.678-8.548 1.233-5.741 1.114-11.378 2.811-16.825 5.082-5.831-2.427-11.881-4.2-18.034-5.305-2.432-.441-4.878-.778-7.339-1.01-4.689-.441-9.411-.502-14.123-.18-.705.049-1.675.161-2.796.315-7.002.959-12.951-5.104-11.859-12.086l3.845-24.569c.882-5.635 5.736-9.788 11.439-9.788h77.728c5.704 0 10.558 4.154 11.439 9.789l.579 3.699z"/><path d="m396.829 222.594v29.355c0 5.694-4.385 10.429-10.063 10.857-20.757 1.566-40.913 7.958-58.836 18.722l-5.296 3.181-4.509-2.712-.787-.469c-7.296-4.381-14.962-8.036-22.889-10.937-6.13-2.247-12.421-4.044-18.812-5.367-5.608-1.166-11.293-1.972-17.025-2.413-.034-.003-.068-.005-.101-.008-5.664-.425-10.073-5.081-10.073-10.761v-29.449c0-6.017 4.877-10.894 10.894-10.894h126.603c6.017.001 10.894 4.879 10.894 10.895z"/><g><path d="m314.171 201.917c-3.198 0-6.394-1.216-8.828-3.648-4.25-4.254-4.249-11.168-.001-15.414 1.772-1.773 4.647-1.772 6.419.001s1.772 4.647-.001 6.419c-.709.709-.709 1.865.002 2.576 1.293 1.292 3.381 1.324 4.716.098.583-1.061 1.086-4.793 1.455-7.536 1.157-8.589 2.741-20.353 11.621-25.796 2.138-1.309 4.932-.639 6.242 1.498s.639 4.932-1.498 6.242c-5.203 3.189-6.404 12.104-7.368 19.267-.758 5.626-1.356 10.07-3.928 12.643-2.434 2.433-5.633 3.65-8.831 3.65z"/><path d="m331.092 201.917c-3.197 0-6.394-1.216-8.827-3.647-2.574-2.575-3.173-7.019-3.93-12.645-.965-7.163-2.165-16.078-7.368-19.267-2.137-1.31-2.807-4.105-1.498-6.242 1.31-2.137 4.105-2.807 6.242-1.498 8.88 5.443 10.464 17.207 11.621 25.796.369 2.743.872 6.476 1.455 7.536 1.334 1.226 3.423 1.194 4.719-.102.707-.708.708-1.863-.001-2.573-1.773-1.772-1.773-4.646-.001-6.419 1.771-1.773 4.645-1.774 6.419-.001 4.248 4.247 4.249 11.16.002 15.411-2.436 2.434-5.635 3.651-8.833 3.651z"/></g></g><g fill="#d0e2e7"><path d="m384.134 231.672c-3.171-3.171-7.387-4.917-11.871-4.917-4.401 0-8.545 1.683-11.695 4.744l-1.34 1.094c-.539-.725-1.135-1.42-1.792-2.078-6.198-6.198-16.283-6.197-22.481 0-2.573 2.574-3.991 5.995-3.991 9.634s1.417 7.061 3.991 9.634c1.771 1.772 4.645 1.773 6.419 0 1.772-1.773 1.772-4.647-.001-6.419-.859-.859-1.332-2-1.332-3.215s.473-2.356 1.332-3.215c2.659-2.659 6.985-2.659 9.643 0 3.766 3.766 3.766 9.893 0 13.659-5.149 5.15-13.528 5.15-18.677 0-3.33-3.33-5.165-7.756-5.168-12.464 0-.004 0-.008 0-.012s0-.008 0-.012c.003-4.708 1.838-9.134 5.168-12.464 1.773-1.772 1.773-4.646.001-6.419s-4.647-1.773-6.419 0c-1.235 1.235-2.332 2.571-3.288 3.987-.956-1.416-2.053-2.752-3.288-3.987-1.772-1.773-4.646-1.772-6.419 0-1.772 1.773-1.772 4.647.001 6.419 3.329 3.33 5.164 7.756 5.168 12.464v.012.012c-.003 4.708-1.838 9.134-5.168 12.464-5.149 5.15-13.528 5.15-18.677 0-3.766-3.766-3.766-9.893-.001-13.658 2.658-2.659 6.985-2.659 9.643 0 .859.859 1.332 2.001 1.332 3.215s-.473 2.356-1.332 3.215c-1.773 1.773-1.773 4.647-.001 6.419s4.647 1.773 6.419 0c2.574-2.574 3.991-5.995 3.991-9.634s-1.417-7.061-3.991-9.635c-6.198-6.198-16.283-6.197-22.481 0-.657.657-1.253 1.353-1.792 2.077l-1.34-1.094c-3.15-3.061-7.294-4.744-11.695-4.744-4.484 0-8.7 1.746-11.87 4.917-2.709 2.708-4.2 6.309-4.2 10.138 0 3.83 1.491 7.43 4.199 10.138 2.338 2.338 5.446 3.625 8.752 3.625s6.415-1.287 8.752-3.625c1.773-1.772 1.773-4.647.001-6.419s-4.647-1.773-6.419 0c-.624.624-1.452.967-2.334.967-.881 0-1.71-.343-2.333-.967-.993-.993-1.54-2.314-1.54-3.719s.547-2.725 1.541-3.719c1.456-1.456 3.392-2.258 5.451-2.258s3.995.802 5.452 2.258c.108.108.22.21.338.306l3.709 3.029c-.692 5.544 1.081 11.34 5.328 15.587 4.209 4.209 9.806 6.527 15.758 6.527 5.953 0 11.549-2.318 15.758-6.527 1.235-1.235 2.332-2.571 3.288-3.987.956 1.416 2.053 2.752 3.288 3.987 4.345 4.345 10.051 6.517 15.758 6.517s11.414-2.172 15.758-6.517c4.247-4.247 6.02-10.043 5.328-15.587l3.709-3.029c.118-.096.23-.198.338-.306 1.456-1.456 3.392-2.258 5.452-2.258 2.059 0 3.995.802 5.452 2.258.993.993 1.54 2.314 1.54 3.719s-.547 2.725-1.541 3.719c-.623.623-1.452.966-2.333.966-.882 0-1.71-.343-2.334-.967-1.772-1.772-4.646-1.772-6.419 0-1.772 1.773-1.772 4.647.001 6.419 2.337 2.338 5.446 3.625 8.752 3.625s6.414-1.288 8.752-3.625c2.709-2.708 4.2-6.309 4.2-10.138-.001-3.828-1.492-7.428-4.2-10.136z"/><path d="m291.465 118.775 5.692-4.648c.118-.096.23-.198.338-.306 3.007-3.006 7.897-3.006 10.903 0 .993.993 1.54 2.314 1.54 3.719s-.547 2.725-1.541 3.719c-.623.623-1.452.966-2.333.966-.882 0-1.71-.343-2.333-.967-1.773-1.772-4.647-1.772-6.42 0-1.772 1.772-1.772 4.647 0 6.419 2.338 2.338 5.447 3.626 8.753 3.626s6.415-1.288 8.752-3.625c2.709-2.708 4.2-6.309 4.2-10.138s-1.491-7.43-4.199-10.138c-6.488-6.487-17.007-6.545-23.566-.173l-5.529 4.515c-1.941 1.586-2.23 4.445-.644 6.387 1.585 1.94 4.444 2.23 6.387.644z"/><path d="m339.2 131.303c3.306 0 6.415-1.288 8.753-3.626 1.772-1.772 1.772-4.647 0-6.419-1.773-1.772-4.647-1.772-6.42 0-.623.623-1.452.967-2.333.967s-1.71-.343-2.333-.967c-.993-.993-1.54-2.314-1.54-3.719s.547-2.725 1.541-3.719c3.004-3.005 7.896-3.006 10.902 0 .108.108.22.21.338.306l5.692 4.648c1.943 1.586 4.801 1.296 6.387-.645 1.586-1.942 1.297-4.801-.644-6.387l-5.529-4.515c-6.56-6.372-17.079-6.313-23.565.173-2.709 2.708-4.2 6.309-4.2 10.138s1.491 7.43 4.199 10.138c2.337 2.339 5.446 3.627 8.752 3.627z"/></g></g><g fill="#d0e2e7"><path d="m422.236 137.342-30.202 26.193c-1.398 1.213-3.122 1.812-4.845 1.812-2.064 0-4.128-.865-5.592-2.552-2.67-3.085-2.345-7.76.747-10.437l32.074-27.821c2.877 4.076 5.495 8.352 7.818 12.805z"/><path d="m433.857 173.351-40.359 12.176c-.717.214-1.435.318-2.138.318-3.181 0-6.117-2.064-7.079-5.267-1.184-3.913 1.036-8.041 4.941-9.217l41.564-12.538c1.333 4.72 2.361 9.572 3.071 14.528z"/><path d="m433.48 207.836c-.828 4.993-1.982 9.868-3.44 14.617l-32.185-13.729c-3.758-1.605-5.503-5.955-3.898-9.712 1.598-3.758 5.947-5.503 9.705-3.898z"/><path d="m223.032 137.342 30.202 26.193c1.398 1.213 3.122 1.812 4.845 1.812 2.064 0 4.128-.865 5.592-2.552 2.67-3.085 2.345-7.76-.747-10.437l-32.074-27.821c-2.877 4.076-5.495 8.352-7.818 12.805z"/><path d="m211.411 173.351 40.359 12.176c.717.214 1.435.318 2.138.318 3.181 0 6.117-2.064 7.079-5.267 1.184-3.913-1.036-8.041-4.941-9.217l-41.564-12.538c-1.332 4.72-2.361 9.572-3.071 14.528z"/><path d="m211.789 207.836c.828 4.993 1.982 9.868 3.44 14.617l32.185-13.729c3.758-1.605 5.503-5.955 3.898-9.712-1.598-3.758-5.947-5.503-9.705-3.898z"/></g></g><g><path d="m305.33 507.25c-10.94 2.14-22.13 3.58-33.53 4.27-5.22.32-10.49.48-15.8.48-13.69 0-27.13-1.07-40.24-3.15-83.9-13.24-154.25-67.25-190.14-141.1-8.13-16.72-14.49-34.46-18.83-52.97-2.56-10.86-4.42-21.98-5.54-33.33 10.49-14.7 23.28-28.13 38.29-39.76 82.69-64.02 201.63-48.88 265.66 33.82 53.95 69.69 51.68 165.13.13 231.74z" fill="#f6f1f1"/><path d="m321.3 412.54c-4.85 38.12-22.24 72.66-49.5 98.98-5.22.32-10.49.48-15.8.48-13.69 0-27.13-1.07-40.24-3.15-83.9-13.24-154.25-67.25-190.14-141.1-8.13-16.72-14.49-34.46-18.83-52.97 11.03-21.42 26.71-40.35 46.33-55.54 35.31-27.34 79.15-39.28 123.45-33.65 44.29 5.64 83.74 28.19 111.08 63.5s39.28 79.15 33.65 123.45z" fill="#d0e2e7"/><path d="m236.25 495.79c-6.53 5.06-13.39 9.41-20.49 13.06-83.9-13.24-154.25-67.25-190.14-141.1 5.62-30.91 22.25-59.93 49.05-80.68 57.63-44.62 140.53-34.07 185.15 23.57 44.62 57.63 34.07 140.53-23.57 185.15z" fill="#f6f1f1"/><path d="m224.24 480.27c-13.19 10.21-27.93 17.03-43.17 20.58-56.86-17.37-105.31-54.02-137.75-102.32-.05-.73-.09-1.45-.12-2.18-1.51-35.19 13.5-70.56 43.48-93.76 49.07-37.99 119.63-29.01 157.62 20.06s29.01 119.63-20.06 157.62z" fill="#b4d0d5"/><g><path d="m146.165 329.305 56.563 63.014-58.248 45.094-46.835-70.545c8.899-5.642 18.646-9.955 28.935-12.744 5.268-9.262 11.889-17.613 19.585-24.819z" fill="#d0e2e7"/><g fill="#f6f1f1"><path d="m162.065 311.441c5.105 4.819 4.177 13.204-1.877 16.759-3.036 1.783-5.884 3.556-7.524 4.826-2.156 1.669-4.233 3.439-6.224 5.304-2.103 1.97-4.11 4.039-6.004 6.207-3.858 4.395-7.276 9.188-10.193 14.319-6.097 1.65-11.966 3.952-17.508 6.845-2.193 1.14-4.334 2.372-6.421 3.694-3.977 2.522-7.749 5.364-11.278 8.503-.528.47-1.226 1.153-2.018 1.961-4.949 5.045-13.366 3.892-16.776-2.298l-12-21.782c-2.752-4.996-1.456-11.251 3.053-14.743l61.462-47.582c4.51-3.492 10.891-3.179 15.038.738l2.722 2.57z"/><path d="m251.13 410.24c-15.46 13.95-27.48 31.34-35.06 50.82l-2.24 5.76-5.23.62-.91.11c-8.45 1-16.75 2.8-24.79 5.36-6.23 1.98-12.3 4.41-18.16 7.27-5.15 2.51-10.14 5.36-14.94 8.52-.03.02-.06.03-.09.05-.06.04-.12.08-.18.11-7.1-3.24-14.01-6.8-20.73-10.66l-11.67-15.08c-3.68-4.75-2.81-11.6 1.95-15.28l100.11-77.5c4.75-3.68 11.6-2.81 15.28 1.94l17.97 23.22c3.49 4.5 2.92 10.93-1.31 14.74z"/><g><path d="m156.451 406.535c-2.529 1.958-5.8 2.953-9.214 2.52-5.965-.762-10.196-6.229-9.437-12.188.316-2.487 2.59-4.246 5.076-3.929 2.487.317 4.246 2.589 3.929 5.076-.127.995.581 1.908 1.578 2.036 1.813.23 3.484-1.022 3.79-2.809-.188-1.196-2.076-4.455-3.463-6.85-4.343-7.5-10.292-17.771-6.603-27.511.889-2.344 3.508-3.525 5.853-2.637 2.344.888 3.525 3.508 2.637 5.853-2.162 5.707 2.346 13.491 5.969 19.746 2.845 4.912 5.092 8.793 4.634 12.401-.436 3.414-2.221 6.335-4.749 8.292z"/><path d="m169.831 396.177c-2.528 1.957-5.8 2.953-9.213 2.52-3.612-.461-6.806-3.608-10.849-7.593-5.148-5.074-11.554-11.388-17.621-10.725-2.492.272-4.733-1.527-5.005-4.019s1.527-4.733 4.019-5.006c10.354-1.132 18.807 7.2 24.98 13.284 1.971 1.943 4.654 4.587 5.764 5.068 1.806.153 3.437-1.151 3.669-2.969.126-.993-.581-1.907-1.576-2.034-2.487-.316-4.246-2.589-3.93-5.075.315-2.486 2.587-4.246 5.075-3.93 5.959.757 10.192 6.224 9.436 12.185-.435 3.416-2.22 6.336-4.749 8.294z"/></g></g><g fill="#d0e2e7"><path d="m229.988 387.234c-4.448-.566-8.851.634-12.396 3.379-3.48 2.694-5.727 6.562-6.343 10.911l-.39 1.686c-.87-.243-1.767-.428-2.689-.546-8.695-1.107-16.669 5.067-17.776 13.762-.459 3.61.514 7.183 2.742 10.061s5.443 4.716 9.054 5.175c2.485.317 4.758-1.442 5.076-3.93.316-2.487-1.443-4.759-3.93-5.076-1.205-.153-2.277-.767-3.021-1.727-.743-.96-1.069-2.153-.915-3.357.475-3.73 3.896-6.378 7.625-5.903 5.283.672 9.034 5.517 8.361 10.8-.919 7.224-7.545 12.353-14.769 11.434-4.671-.595-8.832-2.971-11.717-6.692-.002-.003-.005-.007-.007-.01s-.005-.006-.008-.009c-2.88-3.725-4.138-8.348-3.544-13.019.317-2.487-1.442-4.759-3.929-5.076s-4.759 1.443-5.076 3.929c-.221 1.732-.27 3.46-.16 5.165-1.623-.534-3.308-.919-5.041-1.14-2.486-.317-4.759 1.443-5.076 3.93-.316 2.487 1.443 4.759 3.93 5.075 4.671.595 8.831 2.971 11.716 6.692.002.003.005.007.007.01s.005.006.008.009c2.88 3.725 4.138 8.348 3.543 13.019-.919 7.224-7.545 12.353-14.769 11.434-5.283-.672-9.034-5.517-8.362-10.8.475-3.73 3.895-6.378 7.625-5.903 1.205.153 2.278.767 3.022 1.727.743.96 1.068 2.152.915 3.357-.317 2.487 1.442 4.76 3.929 5.076 2.486.316 4.759-1.443 5.076-3.929.46-3.611-.514-7.184-2.742-10.061-2.228-2.878-5.443-4.716-9.054-5.175-8.695-1.107-16.669 5.067-17.776 13.762-.117.922-.163 1.836-.145 2.739l-1.73-.045c-4.365-.492-8.672.713-12.152 3.408-3.546 2.745-5.81 6.706-6.376 11.154-.484 3.799.541 7.559 2.885 10.588s5.728 4.963 9.527 5.446c3.28.417 6.526-.467 9.14-2.491s4.284-4.945 4.702-8.224c.317-2.487-1.442-4.76-3.929-5.076-2.486-.316-4.759 1.443-5.076 3.929-.111.875-.557 1.653-1.254 2.193-.697.539-1.562.775-2.437.664-1.394-.177-2.634-.887-3.494-1.998s-1.236-2.49-1.058-3.884c.26-2.043 1.3-3.862 2.928-5.122s3.65-1.812 5.693-1.552c.151.019.303.031.455.035l4.787.125c2.847 4.807 7.797 8.305 13.755 9.064 5.905.752 11.749-.841 16.456-4.485s7.713-8.903 8.465-14.808c.22-1.732.27-3.46.159-5.165 1.623.534 3.308.919 5.04 1.14 6.095.776 11.937-1 16.45-4.494 4.513-3.493 7.695-8.705 8.471-14.8.758-5.959-1.388-11.627-5.329-15.587l1.079-4.666c.034-.148.061-.298.08-.449.26-2.043 1.3-3.862 2.928-5.123s3.65-1.812 5.693-1.552c1.394.177 2.634.887 3.494 1.998s1.236 2.49 1.058 3.884c-.111.874-.556 1.653-1.253 2.192-.697.54-1.562.776-2.437.664-2.486-.317-4.759 1.443-5.076 3.93-.316 2.487 1.443 4.759 3.93 5.076 3.279.418 6.526-.468 9.14-2.491 2.614-2.024 4.284-4.945 4.701-8.224.484-3.799-.541-7.559-2.885-10.588-2.342-3.027-5.725-4.961-9.524-5.445z"/><path d="m87.6 354.692 1.655-7.16c.034-.148.061-.298.08-.449.538-4.218 4.404-7.211 8.621-6.674 1.394.177 2.634.887 3.494 1.998s1.236 2.49 1.058 3.884c-.111.874-.556 1.653-1.253 2.192-.697.54-1.563.776-2.437.664-2.487-.316-4.759 1.443-5.076 3.93s1.443 4.759 3.929 5.076c3.28.417 6.526-.467 9.141-2.491s4.284-4.945 4.701-8.224c.484-3.799-.541-7.559-2.885-10.588-2.344-3.028-5.728-4.963-9.527-5.446-9.101-1.158-17.454 5.235-18.74 14.289l-1.608 6.955c-.564 2.442.958 4.88 3.4 5.445 2.443.564 4.882-.958 5.447-3.401z"/><path d="m133.015 335.377c2.614-2.024 4.284-4.945 4.702-8.225.316-2.487-1.443-4.759-3.93-5.076-2.487-.316-4.759 1.443-5.076 3.93-.111.874-.556 1.653-1.253 2.193-.697.539-1.562.775-2.437.664-1.394-.177-2.634-.887-3.494-1.998s-1.236-2.49-1.058-3.884c.536-4.215 4.403-7.211 8.621-6.674.151.019.303.031.455.035l7.346.191c2.507.065 4.59-1.914 4.655-4.419.065-2.506-1.913-4.591-4.419-4.656l-7.136-.186c-9.088-1.023-17.369 5.463-18.528 14.562-.484 3.799.541 7.559 2.885 10.588 2.344 3.028 5.728 4.963 9.526 5.446 3.28.417 6.527-.467 9.141-2.491z"/></g></g><g fill="#d0e2e7"><path d="m202.371 289.32-7.847 39.201c-.363 1.815-1.359 3.344-2.722 4.399-1.632 1.263-3.794 1.842-5.984 1.405-4-.804-6.604-4.7-5.799-8.71l8.331-41.633c4.77 1.461 9.458 3.239 14.021 5.338z"/><path d="m233.603 310.68-24.459 34.334c-.436.609-.94 1.13-1.496 1.56-2.515 1.947-6.101 2.113-8.822.169-3.331-2.37-4.103-6.992-1.735-10.313l25.191-35.358c3.942 2.916 7.726 6.124 11.321 9.608z"/><path d="m254.416 338.18c2.401 4.455 4.473 9.016 6.228 13.664l-33.854 8.846c-3.954 1.031-7.997-1.34-9.028-5.293-1.037-3.95 1.334-7.992 5.288-9.024z"/><path d="m92.57 406.51c-.12 2.23-1.23 4.18-2.86 5.45-1.36 1.05-3.09 1.63-4.94 1.53l-31.98-1.78c-3.29-4.29-6.45-8.68-9.47-13.18-.05-.73-.09-1.45-.12-2.18l42.39 2.37c4.08.22 7.2 3.72 6.98 7.79z"/><path d="m98.96 430.72c-.56.43-1.19.79-1.89 1.05l-19.74 7.56c-3.84-3.74-7.56-7.6-11.14-11.57l25.59-9.8c3.81-1.46 8.09.44 9.55 4.26 1.2 3.12.15 6.55-2.37 8.5z"/><path d="m107.83 452.78-4.76 8.53c-4.01-2.99-7.92-6.09-11.74-9.31l3.58-6.42c1.99-3.57 6.49-4.85 10.06-2.86s4.85 6.5 2.86 10.06z"/></g></g></g></svg>