<svg id="Capa_1" enable-background="new 0 0 512 512" height="512" viewBox="0 0 512 512" width="512" xmlns="http://www.w3.org/2000/svg"><g><path d="m512 256c0 40.33-9.33 78.48-25.95 112.41-26.05 53.23-70.04 96.09-124.1 120.69l-.01.01c-14.2 6.47-29.1 11.68-44.55 15.48-19.67 4.84-40.23 7.41-61.39 7.41-141.38 0-256-114.62-256-256s114.62-256 256-256 256 114.62 256 256z" fill="#80b4fb"/><g><g><path d="m145.794 118.744c-23.948-69.137-83.817-128.845-99.476-87.992s17.5 69.137 17.5 69.137-46.975-18.855-46.975 18.855 34.08 46.732 34.08 46.732-25.953-1.521-21.304 36.343 65.758 47.342 65.758 47.342" fill="#db740e"/><path d="m366.206 118.744c23.948-69.137 83.818-128.845 99.476-87.992s-17.5 69.137-17.5 69.137 46.975-18.855 46.975 18.855-34.08 46.732-34.08 46.732 25.953-1.521 21.304 36.343-65.758 47.342-65.758 47.342" fill="#ff931f"/></g><path d="m410.71 99.01h-309.42c2.55-13.27 7.91-26.78 16.46-39.38 22.27-32.9 66.18-59.63 138.25-59.63s115.98 26.73 138.25 59.63c8.55 12.6 13.91 26.11 16.46 39.38z" fill="#ffbb16"/><path d="m256 0c-49.75 0-72.61 51.12-77.22 99.01h-77.48c9.22-47.89 55.02-99.01 154.7-99.01z" fill="#ff931f"/><path d="m450.05 422.97c-24.08 27.96-54.1 50.66-88.1 66.13-32.29 14.71-68.16 22.9-105.95 22.9s-73.67-8.19-105.96-22.9c-34-15.47-64.02-38.18-88.1-66.14l-.01-.01c10.73-9.99 22.6-18.79 35.4-26.16 15.68-9.02 32.74-15.89 50.77-20.21 2.78-.68 5.59-1.29 8.42-1.83 5.34-1.04 10.76-1.84 16.25-2.41 1.58-.17 3.15-.32 4.75-.45 5.19-.43 10.45-.64 15.77-.64h125.41c6.95 0 13.79.37 20.52 1.07 5.49.57 10.9 1.39 16.25 2.4 2.13.42 4.26.86 6.36 1.34.69.18 1.4.32 2.08.51 4.18.99 8.31 2.13 12.37 3.42 13.5 4.21 26.35 9.87 38.4 16.8 12.79 7.38 24.65 16.17 35.37 26.18z" fill="#ffbb16"/><path d="m450.05 422.97c-24.08 27.96-54.1 50.66-88.1 66.13-2.8-29.65 2.3-92.48 14.33-109.11 13.5 4.21 26.35 9.87 38.4 16.8 12.79 7.38 24.65 16.17 35.37 26.18z" fill="#181e21"/><path d="m150.04 489.1c-34-15.47-64.02-38.18-88.1-66.14 10.72-10 22.58-18.79 35.37-26.17 12.05-6.93 24.9-12.59 38.4-16.8 12.03 16.63 17.13 79.46 14.33 109.11z" fill="#db740e"/><g fill="#efb29a"><path d="m132.54 278.153c0 20.497-14.973 37.492-34.579 40.646-3.562-12.95-5.464-26.579-5.464-40.646s1.902-27.696 5.464-40.646c19.606 3.154 34.579 20.15 34.579 40.646z"/><path d="m379.449 278.153c0 20.497 14.973 37.492 34.579 40.646 3.562-12.95 5.464-26.579 5.464-40.646s-1.902-27.696-5.464-40.646c-19.606 3.154-34.579 20.15-34.579 40.646z"/></g><path d="m410.696 256.511c0 76.985-56.241 140.847-129.873 152.705-8.078 1.326-16.369 1.997-24.828 1.997-85.444 0-154.701-69.257-154.701-154.701v-157.5h309.403v157.499z" fill="#f9c5ac"/><g fill="#f6f1f1"><path d="m232.662 228.577c-14.78 0-25.884-7.129-35.681-13.418-10.071-6.466-16.631-10.331-24.235-8.394-5.352 1.365-10.796-1.869-12.16-7.221s1.869-10.796 7.221-12.16c16.416-4.184 28.935 3.853 39.979 10.944 8.21 5.27 15.964 10.249 24.876 10.249 5.523 0 10 4.477 10 10s-4.477 10-10 10z"/><path d="m279.327 228.577c-5.523 0-10-4.477-10-10s4.477-10 10-10c8.913 0 16.667-4.978 24.876-10.249 11.045-7.09 23.564-15.127 39.979-10.944 5.352 1.364 8.585 6.808 7.221 12.16s-6.811 8.584-12.16 7.221c-7.605-1.937-14.163 1.927-24.235 8.394-9.797 6.289-20.901 13.418-35.681 13.418z"/></g><path d="m283.243 408.81c-.8.14-1.61.28-2.42.41-8.08 1.32-16.37 1.99-24.83 1.99-85.44 0-154.7-69.25-154.7-154.7v-157.5h54.55v157.5c0 76.14 54.98 139.41 127.4 152.3z" fill="#efb29a"/><path d="m486.05 368.41c-13.81 28.22-32.67 53.53-55.4 74.75-20.13 18.8-43.3 34.38-68.7 45.94l-.01.01c-8.41 8.4-25.29 13.71-44.55 15.48-32.36 2.97-71.45-4.1-88.34-23.42-26.94-30.84-71.08-10.44-88.02-27.37-16.18-16.18-2.03-49.26-14.06-71.87-.63-1.04-1.26-2.08-1.87-3.14-15.35-26.77-23.81-57.5-23.81-89.42v-62.52c6 0 31.89-40.79 31.89-40.79s-1.51 76.88 0 86.75c4.94 32.34 18.2 53.18 30.42 61.79 10.51 7.41 20.25 5.78 23.28-5.35 3.17-11.64 9.13-18.88 17.9-23.36 11.89-6.08 28.94-7.07 51.21-7.07 38.68 0 61.63 2.99 69.11 30.43 3.03 11.13 12.77 12.76 23.28 5.35 12.22-8.61 25.48-29.45 30.42-61.79 1.51-9.87 0-86.75 0-86.75s25.89-8.86 31.89-8.86v112.17c0 20.1-3.36 39.73-9.68 58.19l.75-.08s17.67 6.38 23.77 23.77c5.59 15.93 43.99 8.63 60.52-2.84z" fill="#f6f1f1"/><path d="m430.65 443.16c-20.13 18.8-43.3 34.38-68.7 45.94l-.01.01c-8.41 8.4-25.29 13.71-44.55 15.48-32.36 2.97-71.45-4.1-88.34-23.42-26.94-30.84-71.08-10.44-88.02-27.37-16.18-16.18-2.03-49.26-14.06-71.87-.63-1.04-1.26-2.08-1.87-3.14-15.35-26.77-23.81-57.5-23.81-89.42v-62.52c6 0 31.89-40.79 31.89-40.79s-1.51 76.88 0 86.75c4.94 32.34 18.2 53.18 30.42 61.79 10.51 7.41 20.25 5.78 23.28-5.35 3.17-11.64 9.13-18.88 17.9-23.36-13.81 13.15-8.95 69.72 17.08 82.42 26.02 12.71 22 67.15 47.47 73.65 25.15 6.42 119.96-41.19 161.32-18.8z" fill="#d0e2e7"/><path d="m255.995 315.279c12.954 0 25.908 3.246 37.716 9.737 3.331 1.831 4.547 6.015 2.715 9.346-1.831 3.331-6.016 4.545-9.346 2.715-19.465-10.701-42.707-10.7-62.17 0-3.329 1.831-7.514.616-9.346-2.715-1.831-3.331-.616-7.515 2.715-9.346 11.808-6.491 24.762-9.737 37.716-9.737z" fill="#dd9f8a"/><path d="m273.544 291.694h-35.098c-4.181 0-7.57-3.389-7.57-7.57 0-4.181 3.389-7.57 7.57-7.57h35.098c4.181 0 7.57 3.389 7.57 7.57 0 4.18-3.389 7.57-7.57 7.57z" fill="#efb29a"/><g><circle cx="312.42" cy="249.161" fill="#2f373b" r="37.334"/><path d="m168.49 249.161c0 17.165 13.915 31.08 31.08 31.08s31.08-13.915 31.08-31.08" fill="#efb29a"/><circle cx="199.57" cy="249.161" fill="#2f373b" r="22.287"/><path d="m204.782 270.831c-1.67.41-3.42.62-5.21.62-12.31 0-22.29-9.98-22.29-22.29s9.98-22.29 22.29-22.29c1.79 0 3.54.21 5.21.62-9.8 2.34-17.07 11.16-17.07 21.67s7.27 19.33 17.07 21.67z" fill="#181e21"/><circle cx="208.858" cy="245.228" fill="#fff" r="9.55"/><path d="m290.643 151.744h20v171.28h-20z" fill="#2f373b" transform="matrix(.707 -.707 .707 .707 -79.8 282.116)"/></g><g><path d="m123.092 146.903h-31.024v175.343c0 11.442 7.314 21.602 18.165 25.233l31.203 10.441c11.632 3.892 23.657-4.764 23.657-17.03v-47.324c0-5.911-2.909-11.443-7.778-14.794l-34.222-23.548v-108.321z" fill="#ff931f"/><path d="m388.897 146.903v108.319l-34.222 23.548c-4.869 3.351-7.778 8.883-7.778 14.794v47.324c0 12.266 12.024 20.922 23.657 17.03l31.203-10.441c10.85-3.631 18.165-13.791 18.165-25.233v-175.341z" fill="#ffbb16"/></g><path d="m410.71 99.01h-309.42c2.55-13.27 7.91-26.78 16.46-39.38h276.5c8.55 12.6 13.91 26.11 16.46 39.38z" fill="#ff931f"/><path d="m432.16 94.85v74.5c0 11.89-9.64 21.54-21.54 21.54h-309.26c-11.89 0-21.53-9.65-21.53-21.54v-74.5c0-11.89 9.64-21.53 21.53-21.53h309.26c11.9 0 21.54 9.64 21.54 21.53z" fill="#ffbb16"/><path d="m192.26 190.89h-90.9c-11.89 0-21.53-9.65-21.53-21.54v-74.5c0-11.89 9.64-21.53 21.53-21.53h90.9c-11.89 0-21.53 9.64-21.53 21.53v74.5c0 11.89 9.64 21.54 21.53 21.54z" fill="#ff931f"/><path d="m79.83 94.85h352.33v74.5h-352.33z" fill="#2f373b"/><path d="m79.83 94.85h90.9v74.5h-90.9z" fill="#181e21"/><path d="m281.471 206.715 20.574-35.636h-92.102l20.574 35.636c11.324 19.612 39.632 19.612 50.954 0z" fill="#ffbb16"/></g></g></svg>