<svg id="Capa_1" enable-background="new 0 0 512 512" height="512" viewBox="0 0 512 512" width="512" xmlns="http://www.w3.org/2000/svg"><g><path d="m512 256c0 141.38-114.62 256-256 256-53.09 0-102.4-16.16-143.29-43.83-14.61-9.89-28.16-21.26-40.41-33.87-.73-.75-1.45-1.5-2.17-2.26-43.46-45.89-70.13-107.85-70.13-176.04 0-141.38 114.62-256 256-256s256 114.62 256 256z" fill="#6ec17d"/><g><circle cx="201.703" cy="97.888" fill="#ffbb16" r="23.559"/><path d="m440.12 156.97c0 172.09-139.52 311.6-311.62 311.6-5.29 0-10.56-.13-15.79-.4-15.48-10.48-29.76-22.61-42.58-36.13 1.36-6.89 5.29-13.43 12.14-18.15 81.68-56.18 135.24-150.29 135.24-256.92z" fill="#f6f1f1"/><path d="m341.372 146.963s-2.465 46.529-17.272 94.036c-1.931 6.194 6.443 10.127 9.987 4.692 12.175-18.671 26.143-49.966 30.628-98.729" fill="#d0e2e7"/><path d="m209.194 120.228c-2.35.79-4.87 1.22-7.49 1.22-13.01 0-23.56-10.55-23.56-23.56s10.55-23.56 23.56-23.56c2.62 0 5.14.43 7.49 1.22-9.34 3.13-16.07 11.95-16.07 22.34s6.729 19.21 16.07 22.34z" fill="#ff931f"/><path d="m394.188 145.22s-9.632 66.075-37.004 131.923c-3.569 8.586 7.864 15.299 13.636 8.009 19.828-25.044 43.872-67.867 56.681-136.864" fill="#d0e2e7"/><path d="m306.46 156.97c-13.29 103.04-64.48 242.45-234.16 277.33-.73-.75-1.45-1.5-2.17-2.26 1.36-6.89 5.29-13.43 12.14-18.15 81.68-56.18 135.24-150.29 135.24-256.92z" fill="#d0e2e7"/><path d="m434.176 33.463h-211.725c-12.088 0-21.887 9.799-21.887 21.887v85.076c0 12.088 9.799 21.887 21.887 21.887h211.725c12.088 0 21.887-9.799 21.887-21.887v-85.076c0-12.088-9.799-21.887-21.887-21.887z" fill="#d9723e"/><path d="m295.922 162.313h-73.47c-12.081 0-21.884-9.788-21.884-21.884v-85.074c0-12.081 9.803-21.884 21.884-21.884h73.47c-12.081 0-21.884 9.803-21.884 21.884v85.074c-.001 12.097 9.803 21.884 21.884 21.884z" fill="#bd5423"/><circle cx="445.207" cy="97.888" fill="#ffbb16" r="23.559"/><path d="m452.698 120.228c-2.35.79-4.87 1.22-7.49 1.22-13.01 0-23.56-10.55-23.56-23.56s10.55-23.56 23.56-23.56c2.62 0 5.14.43 7.49 1.22-9.34 3.13-16.07 11.95-16.07 22.34s6.73 19.21 16.07 22.34z" fill="#ff931f"/><circle cx="360.42" cy="97.888" fill="#ffbb16" r="23.559"/><circle cx="275.633" cy="97.888" fill="#ffbb16" r="23.559"/><g fill="#ff931f"><path d="m367.911 120.228c-2.35.79-4.87 1.22-7.49 1.22-13.01 0-23.56-10.55-23.56-23.56s10.55-23.56 23.56-23.56c2.62 0 5.14.43 7.49 1.22-9.34 3.13-16.07 11.95-16.07 22.34s6.73 19.21 16.07 22.34z"/><path d="m283.124 120.228c-2.35.79-4.87 1.22-7.49 1.22-13.01 0-23.56-10.55-23.56-23.56s10.55-23.56 23.56-23.56c2.62 0 5.14.43 7.49 1.22-9.34 3.13-16.07 11.95-16.07 22.34s6.73 19.21 16.07 22.34z"/></g></g></g></svg>