<svg id="Capa_1" enable-background="new 0 0 512 512" height="512" viewBox="0 0 512 512" width="512" xmlns="http://www.w3.org/2000/svg"><g><path d="m512 256c0 141.38-114.62 256-256 256-55.86 0-107.53-17.89-149.62-48.26-3.7-2.67-7.32-5.43-10.86-8.29-9.36-7.54-18.19-15.73-26.4-24.5-2.06-2.19-4.08-4.42-6.05-6.68-2.22-2.55-4.4-5.14-6.53-7.78-.42-.53-.85-1.06-1.27-1.59-2.4-3.04-4.74-6.13-7.01-9.28-30.37-42.09-48.26-93.76-48.26-149.62 0-141.38 114.62-256 256-256s256 114.62 256 256z" fill="#ffbb16"/><g><path d="m281.48 260.1c0 7.56-2.89 15.14-8.66 20.91l-168.28 168.28c-2.68 2.68-5.75 4.73-9.02 6.16-9.36-7.54-18.19-15.73-26.4-24.5-2.06-2.19-4.08-4.42-6.05-6.68-2.22-2.55-4.4-5.14-6.53-7.78 1.43-3.28 3.49-6.35 6.17-9.03l168.28-168.28c11.55-11.54 30.28-11.54 41.83 0 5.77 5.78 8.66 13.34 8.66 20.92z" fill="#d9723e"/><path d="m262.47 233.22c0 2.7-1.03 5.4-3.09 7.47l-190.26 190.26c-2.06-2.19-4.08-4.42-6.05-6.68-2.67-3.06-5.27-6.18-7.8-9.37l189.16-189.16c4.13-4.12 10.82-4.12 14.95 0 2.06 2.06 3.09 4.77 3.09 7.48z" fill="#bd5423"/><path d="m215.036 321.516-24.551-24.551c-9.27-9.27-9.27-24.301 0-33.571l53.878-53.878c9.27-9.27 24.301-9.27 33.571 0l24.551 24.551c9.27 9.27 9.27 24.301 0 33.571l-53.878 53.878c-9.271 9.27-24.301 9.27-33.571 0z" fill="#d0e2e7"/><path d="m207.214 313.69-16.729-16.729c-9.267-9.267-9.267-24.3 0-33.567l53.884-53.884c9.267-9.267 24.3-9.267 33.567 0l16.729 16.729c-9.267-9.267-24.3-9.267-33.567 0l-53.884 53.884c-9.268 9.267-9.268 24.3 0 33.567z" fill="#b4d0d5"/><path d="m140.39 429.73-34.01 34.01c-22.35-16.12-42-35.77-58.12-58.12l34.01-34.01c9.27-9.27 24.3-9.27 33.57 0l24.55 24.55c9.27 9.27 9.27 24.3 0 33.57z" fill="#2f373b"/><path d="m132.57 388.33c-9.27-9.27-24.3-9.27-33.57 0l-35.93 35.94c-5.22-5.97-10.16-12.2-14.81-18.65l34.02-34.02c9.26-9.26 24.3-9.26 33.56 0z" fill="#181e21"/><g fill="#d0e2e7"><path d="m398.042 280.193c-9.595-9.596-11.224-24.143-4.864-35.411 1.287-2.3 2.905-4.457 4.864-6.415 11.554-11.554 30.272-11.554 41.826 0 11.455 11.444 31.725 50.101 20.82 62.041-.088.11-.187.22-.286.319-11.554 11.543-50.805-8.991-62.36-20.534z"/><path d="m273.637 72.131c-11.55-11.55-50.811-32.084-62.361-20.533-11.55 11.55 8.983 50.811 20.533 62.361s30.277 11.55 41.827 0 11.552-30.278.001-41.828z"/></g><path d="m398.042 113.955c-2.014-2.014-3.675-4.248-4.985-6.624-6.217-11.235-4.556-25.661 4.985-35.202 11.554-11.543 50.806-32.077 62.36-20.534 3.213 3.213 3.951 8.572 3.07 14.889v.022c-.077.594-.176 1.199-.286 1.816-.011.022-.011.044-.011.066-2.938 16.187-15.284 37.557-23.306 45.568-11.554 11.553-30.272 11.553-41.827-.001z" fill="#d0e2e7"/><path d="m393.058 107.33c-6.217-11.235-4.556-25.661 4.985-35.202 11.554-11.543 50.806-32.077 62.36-20.534 3.213 3.213 3.951 8.572 3.07 14.889-.067-12.973-52.391 7.692-70.415 40.847z" fill="#b4d0d5"/><path d="m267.012 118.942c-11.235 6.217-25.661 4.556-35.202-4.985-11.543-11.554-32.077-50.806-20.534-62.36 3.213-3.213 8.572-3.951 14.889-3.07-12.974.067 7.692 52.391 40.847 70.415z" fill="#b4d0d5"/><path d="m393.058 244.991c-6.217 11.235-4.556 25.661 4.985 35.202 11.554 11.543 50.806 32.077 62.36 20.534 3.213-3.213 3.951-8.572 3.07-14.889-.067 12.974-52.391-7.692-70.415-40.847z" fill="#b4d0d5"/><circle cx="335.839" cy="176.161" fill="#f6f1f1" r="134.23"/><path d="m240.932 271.08c-52.421-52.421-52.429-137.413-.008-189.834s137.413-52.413 189.834.008c-25.226-25.226-88.167-3.183-140.588 49.238-52.42 52.421-74.464 115.361-49.238 140.588z" fill="#d0e2e7"/><circle cx="335.839" cy="176.161" fill="#d0e2e7" r="36.592"/><path d="m321.278 209.733c-4.108-1.774-7.96-4.35-11.314-7.703-14.286-14.286-14.286-37.458 0-51.744 14.294-14.294 37.466-14.294 51.752-.008 3.354 3.354 5.929 7.205 7.703 11.314-13.383-5.805-29.514-3.229-40.446 7.703s-13.499 27.054-7.695 40.438z" fill="#b4d0d5"/><path d="m349.672 9.928c-.008-.023-.031-.046-.039-.07.008.023.023.039.039.054z" fill="#d0e2e7"/><g fill="#d0e2e7"><path d="m453.386 205.738c-13.57 0-25.008-9.135-28.479-21.6-.716-2.537-1.097-5.205-1.097-7.975 0-16.34 13.236-29.576 29.576-29.576 16.192-.008 57.86 12.994 58.591 29.148.015.14.023.288.023.428-.008 16.332-42.282 29.568-58.614 29.575z"/><path d="m218.296 146.584c-16.335 0-58.615 13.242-58.615 29.576s42.281 29.576 58.615 29.576 29.576-13.242 29.576-29.576-13.242-29.576-29.576-29.576z"/></g><g fill="#d0e2e7"><path d="m306.263 293.704c0 16.335 13.242 58.615 29.576 58.615 16.335 0 29.576-42.281 29.576-58.615 0-16.335-13.242-29.576-29.576-29.576s-29.576 13.242-29.576 29.576z"/><path d="m335.837 88.19c-2.848 0-5.602-.405-8.209-1.159-12.341-3.548-21.367-14.924-21.367-28.416.008-16.333 13.244-58.607 29.576-58.615 4.544 0 8.855 3.268 12.699 8.357.008.008.008.008.016.016.366.474.724.973 1.082 1.486.008.023.023.039.039.054 9.368 13.523 15.749 37.364 15.741 48.701-.001 16.341-13.236 29.576-29.577 29.576z"/></g><g fill="#b4d0d5"><path d="m327.628 87.031c-12.341-3.548-21.367-14.924-21.367-28.416.008-16.333 13.244-58.607 29.576-58.615 4.544 0 8.855 3.268 12.699 8.357-9.221-9.127-31.606 42.484-20.908 78.674z"/><path d="m246.712 167.952c-3.548-12.341-14.924-21.367-28.416-21.367-16.332.008-58.607 13.243-58.615 29.576 0 4.544 3.268 8.855 8.357 12.699-9.128-9.221 42.484-31.607 78.674-20.908z"/><path d="m511.977 175.735c-1.564-12.426-70.426-21.203-87.07 8.404-.716-2.537-1.097-5.205-1.097-7.975 0-16.34 13.236-29.576 29.576-29.576 16.192-.009 57.859 12.993 58.591 29.147z"/><path d="m335.411 352.296c-12.426-1.564-21.203-70.426 8.404-87.07-2.537-.716-5.205-1.097-7.975-1.097-16.34 0-29.576 13.236-29.576 29.576-.009 16.191 12.993 57.859 29.147 58.591z"/></g></g></g></svg>