<svg id="Capa_1" enable-background="new 0 0 512 512" height="512" viewBox="0 0 512 512" width="512" xmlns="http://www.w3.org/2000/svg"><g><path d="m512 256c0 26.84-4.14 52.71-11.8 77.02-9.91 31.45-25.73 60.28-46.15 85.19-14.09 17.19-30.38 32.51-48.43 45.53-13.68 9.87-28.38 18.43-43.9 25.47-32.23 14.64-68.02 22.79-105.72 22.79s-73.49-8.15-105.72-22.79c-7.14-3.23-14.1-6.79-20.86-10.64-3.36-1.92-6.68-3.91-9.94-5.98-.83-.51-1.65-1.04-2.47-1.57-3.61-2.34-7.15-4.76-10.62-7.28-1.4-1-2.78-2.02-4.15-3.06-1.66-1.24-3.31-2.51-4.94-3.8-14.72-11.64-28.13-24.86-39.96-39.42-6.8-8.34-13.07-17.12-18.78-26.29-4.26-6.85-8.21-13.91-11.83-21.17-17.11-34.33-26.73-73.04-26.73-114 0-141.38 114.62-256 256-256s256 114.62 256 256z" fill="#434d51"/><path d="m57.141 324.659c-36.155-2.49-54.795-85.916-18.611-122.1s49.681-146.157 68.919-146.157-2.816 138.384 33.622 138.384 5.567-194.786 44.46-194.786 4.938 124.166 54.494 130.682c49.557 6.516 46.084-88.748 84.96-88.748s4.737 180.716 38.748 180.716 43.785-151.745 74.409-137.247c64.341 30.459 7.38 236.766 7.38 236.766" fill="#e84d59"/><path d="m113.02 342.058c-32.552-58.298-23.945-111.183-15.72-119.408s18.084 42.865 43.771 42.865 13.756-90.866 39.269-90.866 4.886 96.431 25.513 96.431 41.29-103.357 68.048-103.357-8.428 95.846 16.006 103.357c24.434 7.512 27.176-33.538 40.954-33.538s-4.364 68.674 24.53 66.594c28.893-2.079 34.622-101.577 66.668-101.577s-7.36 139.499-7.36 139.499" fill="#ffbb16"/><g><path d="m317.92 292.709-63.741-70.264c-8.213-9.053-22.329-9.397-30.972-.753-5.601 5.601-7.649 13.839-5.322 21.411l21.204 69.01" fill="#bd5423"/><path d="m500.2 333.02c-9.91 31.45-25.73 60.28-46.15 85.19-24.77 30.21-56.32 54.66-92.33 71h-211.44c-19.02-8.63-36.79-19.52-52.98-32.33v-169.29h342.93c25.08 0 47.15 18.06 59.97 45.43z" fill="#d9723e"/><path d="m454.05 418.21c-24.77 30.21-56.32 54.66-92.33 71h-211.44c-19.02-8.63-36.79-19.52-52.98-32.33v-38.67z" fill="#bd5423"/><path d="m169.07 388.4c0 39.46-16.14 73.62-39.65 90.17-11.27-6.43-22-13.69-32.12-21.69-29.47-23.3-53.67-52.95-70.57-86.88 6.15-46.88 35.4-82.41 70.57-82.41 39.64 0 71.77 45.14 71.77 100.81z" fill="#bd5423"/><path d="m156.07 388.4c0 24.25-6.61 46.89-18.61 63.75-6.01 8.44-12.96 14.81-20.45 18.87-6.8-4.41-13.37-9.13-19.71-14.14-23.16-18.31-43.07-40.55-58.74-65.71-.02-.92-.03-1.84-.03-2.77 0-24.25 6.61-46.88 18.61-63.74 11.05-15.52 25.31-24.07 40.16-24.07s29.11 8.55 40.16 24.07c12 16.86 18.61 39.49 18.61 63.74z" fill="#f9c5ac"/><path d="m141.07 388.4c0 21.16-5.62 40.71-15.83 55.05-6.8 9.54-14.81 15.51-23 17.23-1.66-1.24-3.31-2.51-4.94-3.8-14.72-11.64-28.13-24.86-39.96-39.42-2.5-9.04-3.81-18.86-3.81-29.06 0-21.15 5.62-40.7 15.83-55.04 8.16-11.46 18.08-17.77 27.94-17.77s19.78 6.31 27.94 17.77c10.21 14.34 15.83 33.89 15.83 55.04z" fill="#efb29a"/><path d="m97.301 446.212c-4.732 0-10.608-4.286-15.72-11.466-8.416-11.821-13.051-28.279-13.051-46.344s4.635-34.524 13.051-46.345c5.111-7.179 10.988-11.465 15.72-11.465s10.608 4.286 15.72 11.466c8.416 11.821 13.051 28.279 13.051 46.344s-4.635 34.524-13.051 46.345c-5.112 7.179-10.989 11.465-15.72 11.465z" fill="#f9c5ac"/><path d="m97.301 430.126c-.94-.869-2.152-2.185-3.5-4.078-6.623-9.303-10.271-22.672-10.271-37.645 0-14.974 3.647-28.343 10.27-37.645 1.348-1.893 2.56-3.209 3.5-4.078.94.869 2.152 2.185 3.5 4.078 6.623 9.303 10.271 22.672 10.271 37.645 0 14.974-3.647 28.343-10.27 37.645-1.348 1.893-2.56 3.209-3.5 4.078z" fill="#efb29a"/><g fill="#bd5423"><path d="m284.205 337.438h-93.809c-5.554 0-10.056-4.502-10.056-10.056 0-5.554 4.502-10.056 10.056-10.056h93.809c5.554 0 10.056 4.502 10.056 10.056 0 5.553-4.502 10.056-10.056 10.056z"/><path d="m320.806 408.154h-93.809c-5.554 0-10.056-4.502-10.056-10.056 0-5.554 4.502-10.056 10.056-10.056h93.809c5.554 0 10.056 4.502 10.056 10.056 0 5.554-4.503 10.056-10.056 10.056z"/><path d="m355.604 370.66h-61.238c-5.554 0-10.056-4.502-10.056-10.056 0-5.554 4.502-10.056 10.056-10.056h61.238c5.554 0 10.056 4.502 10.056 10.056 0 5.554-4.502 10.056-10.056 10.056z"/><path d="m445.523 322.169h-61.238c-5.554 0-10.056-4.502-10.056-10.056 0-5.554 4.502-10.056 10.056-10.056h61.238c5.554 0 10.056 4.502 10.056 10.056 0 5.553-4.503 10.056-10.056 10.056z"/></g></g><g fill="#e84d59"><path d="m396.193 112.879c9.547-25.197 12.681-65.483 13.688-92.204.392-10.411-12.883-15.102-19.121-6.758-15.132 20.238-30.963 54.563-14.495 98.917 3.425 9.225 16.442 9.247 19.928.045z"/><path d="m37.464 137.293c-1.171-19.268 5.255-47.496 10.25-65.991 1.946-7.206 12.026-7.591 14.519-.556 6.047 17.065 9.575 43.914-11.126 70.755-4.305 5.583-13.215 2.829-13.643-4.208z"/><path d="m468.926 277.205c-1.171-19.268 5.255-47.496 10.25-65.991 1.946-7.206 12.026-7.591 14.519-.556 6.047 17.064 9.575 43.914-11.126 70.755-4.306 5.583-13.216 2.829-13.643-4.208z"/></g></g></svg>