<svg id="Capa_1" enable-background="new 0 0 512 512" height="512" viewBox="0 0 512 512" width="512" xmlns="http://www.w3.org/2000/svg"><g><path d="m512 256c0 39.4-8.9 76.72-24.81 110.06-3.21 6.74-6.71 13.31-10.49 19.7-16.77 28.5-38.92 53.46-65.04 73.49-7.1 5.45-14.49 10.53-22.16 15.21-.39.25-.78.49-1.18.73-35.94 21.74-77.67 34.9-122.32 36.61-3.32.14-6.65.2-10 .2s-6.68-.06-10-.2c-44.65-1.71-86.38-14.87-122.32-36.61-.4-.24-.79-.48-1.18-.73-7.67-4.68-15.06-9.76-22.16-15.21-26.12-20.03-48.27-44.99-65.04-73.49-3.78-6.39-7.28-12.96-10.49-19.7-15.91-33.34-24.81-70.66-24.81-110.06 0-52.23 15.64-100.8 42.49-141.3 17.1-25.78 38.75-48.28 63.79-66.36 7.26-5.25 14.81-10.12 22.61-14.6 4.86-2.78 9.82-5.41 14.88-7.88 33.89-16.57 71.97-25.86 112.23-25.86s78.34 9.29 112.23 25.86c5.06 2.47 10.02 5.1 14.88 7.88 7.8 4.48 15.35 9.35 22.61 14.6 25.04 18.08 46.69 40.58 63.79 66.36 26.85 40.5 42.49 89.07 42.49 141.3z" fill="#ffbb16"/><g><path d="m476.7 385.76c-21.57 36.65-52.02 67.44-88.38 89.43-38.61 23.36-83.9 36.81-132.32 36.81s-93.71-13.45-132.32-36.81c-36.36-21.99-66.81-52.78-88.38-89.43-10.65-90.14-8.25-181.44 7.19-271.06 3.02-17.49 6.53-34.92 10.54-52.27 4.95-21.43 24.1-36.57 46.1-36.57h313.74c22 0 41.15 15.14 46.1 36.57 4.01 17.35 7.52 34.78 10.54 52.27 15.44 89.62 17.84 180.92 7.19 271.06z" fill="#d9723e"/><path d="m164.7 25.86c-12.8 0-23.95 15.14-26.83 36.57-2.33 17.35-4.38 34.78-6.14 52.27-8.59 85.77-10.25 267.85-4.93 362.34-1.05-.61-2.09-1.22-3.12-1.85-36.36-21.99-66.81-52.78-88.38-89.43-10.65-90.14-8.25-181.44 7.19-271.06 3.02-17.49 6.53-34.92 10.54-52.27 4.95-21.43 24.1-36.57 46.1-36.57h65.57z" fill="#bd5423"/><g fill="#a0380e"><path d="m128.89 33.74c-24.27 144.35-26.41 295.22-6.39 440.72-7.67-4.68-15.06-9.76-22.16-15.21-16.97-135.9-14.99-275.98 5.94-410.91 1.16-7.51 2.39-15 3.67-22.48h20.29c-.46 2.62-.91 5.25-1.35 7.88z"/><path d="m411.66 459.25c-7.1 5.45-14.49 10.53-22.16 15.21 20.01-145.5 17.87-296.37-6.39-440.72-.44-2.63-.89-5.26-1.35-7.88h20.29c1.28 7.48 2.51 14.97 3.67 22.48 20.93 134.93 22.91 275.01 5.94 410.91z"/><path d="m266 25.86v485.94c-3.32.14-6.65.2-10 .2s-6.68-.06-10-.2v-485.94z"/></g><path d="m31.239 197.182h449.522c10.421 0 18.562-9.008 17.511-19.376-2.601-25.665-6.226-51.226-10.871-76.595-1.526-8.338-8.825-14.376-17.302-14.376h-428.199c-8.476 0-15.775 6.038-17.302 14.376-4.645 25.369-8.27 50.93-10.87 76.595-1.051 10.368 7.09 19.376 17.511 19.376z" fill="#f6f1f1"/><path d="m142.308 177.805c-.5 10.37 3.32 19.38 8.21 19.38h-119.28c-10.42 0-18.56-9.01-17.51-19.38 2.6-25.67 6.22-51.23 10.87-76.6 1.53-8.33 8.82-14.37 17.3-14.37h113.63c-3.98 0-7.41 6.04-8.12 14.37-2.18 25.37-3.881 50.93-5.1 76.6z" fill="#d0e2e7"/><path d="m487.19 366.06c-7.65 16.04-16.93 31.17-27.62 45.16-6.32 8.3-13.15 16.19-20.43 23.65-15.12 15.48-32.19 29.06-50.82 40.32h-264.64c-18.63-11.26-35.7-24.84-50.82-40.32-7.28-7.46-14.11-15.35-20.43-23.65-10.69-13.99-19.97-29.12-27.62-45.16 1.99-.79 4.15-1.22 6.43-1.22h449.52c2.28 0 4.44.43 6.43 1.22z" fill="#f6f1f1"/><path d="m155.53 475.19h-31.85c-42.71-25.83-77.26-63.8-98.87-109.13 1.99-.79 4.15-1.22 6.43-1.22h119.28c-4.89 0-8.71 9.01-8.21 19.38 1.22 25.67 2.92 51.23 5.1 76.6.71 8.33 4.14 14.37 8.12 14.37z" fill="#d0e2e7"/><g fill="#2f373b"><circle cx="66.154" cy="142.008" r="16.3"/><circle cx="142.093" cy="142.008" r="16.3"/><circle cx="218.031" cy="142.008" r="16.3"/><circle cx="293.969" cy="142.008" r="16.3"/><circle cx="369.907" cy="142.008" r="16.3"/><circle cx="445.846" cy="142.008" r="16.3"/></g><g fill="#2f373b"><path d="m82.45 420.01c0 6.62-3.93 12.31-9.59 14.86-7.28-7.46-14.11-15.35-20.43-23.65 2.89-4.51 7.96-7.5 13.72-7.5 9.01 0 16.3 7.29 16.3 16.29z"/><circle cx="142.093" cy="420.015" r="16.3"/><circle cx="218.031" cy="420.015" r="16.3"/><circle cx="293.969" cy="420.015" r="16.3"/><circle cx="369.907" cy="420.015" r="16.3"/><path d="m459.57 411.22c-6.32 8.3-13.15 16.19-20.43 23.65-5.66-2.55-9.59-8.24-9.59-14.86 0-9 7.29-16.29 16.3-16.29 5.76 0 10.83 2.99 13.72 7.5z"/></g><path d="m339.102 342.058c-15.924 0-28.833-12.909-28.833-28.833s12.909-28.833 28.833-28.833h24.289v57.667h-24.289z" fill="#bd5423"/><circle cx="363.391" cy="313.225" fill="#a0380e" r="28.833"/></g></g></svg>