<svg id="Capa_1" enable-background="new 0 0 512 512" height="512" viewBox="0 0 512 512" width="512" xmlns="http://www.w3.org/2000/svg"><g><path d="m512 256c0 2.6-.04 5.19-.12 7.77-1.82 61.14-25.08 116.89-62.52 160-28.8 33.17-66 58.86-108.28 73.75-9.96 3.51-20.21 6.42-30.7 8.69-17.53 3.79-35.72 5.79-54.38 5.79s-36.85-2-54.38-5.79c-10.49-2.27-20.74-5.18-30.7-8.69-42.28-14.89-79.48-40.58-108.28-73.75-37.44-43.11-60.7-98.86-62.52-160-.08-2.58-.12-5.17-.12-7.77 0-141.38 114.62-256 256-256s256 114.62 256 256z" fill="#b1e4f9"/><path d="m511.88 263.77c-1.82 61.14-25.08 116.89-62.52 160-28.8 33.17-66 58.86-108.28 73.75-9.96 3.51-20.21 6.42-30.7 8.69-17.53 3.79-35.72 5.79-54.38 5.79s-36.85-2-54.38-5.79c-10.49-2.27-20.74-5.18-30.7-8.69-42.28-14.89-79.48-40.58-108.28-73.75-37.44-43.11-60.7-98.86-62.52-160z" fill="#6ec17d"/><g><path d="m155.083 90.913h201.834v201.834h-201.834z" fill="#d9723e"/><path d="m155.083 90.913h24.79v201.834h-24.79z" fill="#bd5423"/><path d="m242.885 5.096-103.153 94.42c-5.301 4.852-1.868 13.687 5.318 13.687h221.9c7.186 0 10.619-8.835 5.318-13.687l-103.153-94.42c-7.423-6.795-18.807-6.795-26.23 0z" fill="#2f373b"/><path d="m256 .003c-2.8 0-5.59 1.69-7.8 5.09l-61.35 94.42c-3.16 4.86-1.11 13.69 3.16 13.69h-44.96c-7.19 0-10.62-8.83-5.32-13.69l103.15-94.42c3.71-3.399 8.42-5.09 13.12-5.09z" fill="#181e21"/></g><path d="m449.36 293.58v130.19c-28.8 33.17-66 58.86-108.28 73.75-9.96 3.51-20.21 6.42-30.7 8.69-17.53 3.79-35.72 5.79-54.38 5.79s-36.85-2-54.38-5.79c-4.71-1.02-9.37-2.17-13.98-3.45-5.66-1.55-11.23-3.31-16.72-5.24-6.73-2.37-13.34-5.02-19.8-7.93-34.12-15.33-64.27-37.93-88.48-65.82v-130.19z" fill="#bd5423"/><path d="m187.64 334.92v167.84c-5.66-1.55-11.23-3.31-16.72-5.24-6.73-2.37-13.34-5.02-19.8-7.93v-154.67z" fill="#a0380e"/><path d="m62.64 293.58h386.72v55.38h-386.72z" fill="#a0380e"/><path d="m417.547 183.674h-323.094c-14.087 0-26.425 9.445-30.101 23.043l-22.249 82.287c-5.359 19.821 9.569 39.321 30.101 39.321h367.592c20.533 0 35.461-19.5 30.101-39.321l-22.249-82.287c-3.677-13.598-16.014-23.043-30.101-23.043z" fill="#181e21"/><g fill="#2f373b"><path d="m417.031 220.6h-322.062c-4.145 0-7.505-3.36-7.505-7.505 0-4.145 3.36-7.505 7.505-7.505h322.063c4.145 0 7.505 3.36 7.505 7.505-.001 4.145-3.361 7.505-7.506 7.505z"/><path d="m427.041 255.345h-342.082c-4.145 0-7.505-3.36-7.505-7.505 0-4.145 3.36-7.505 7.505-7.505h342.082c4.145 0 7.505 3.36 7.505 7.505 0 4.145-3.36 7.505-7.505 7.505z"/><path d="m437.839 291.897h-363.678c-4.145 0-7.505-3.36-7.505-7.505 0-4.145 3.36-7.505 7.505-7.505h363.678c4.145 0 7.505 3.36 7.505 7.505 0 4.144-3.36 7.505-7.505 7.505z"/></g><path d="m341.08 328.33v169.19c-9.96 3.51-20.21 6.42-30.7 8.69-17.53 3.79-35.72 5.79-54.38 5.79s-36.85-2-54.38-5.79c-10.49-2.27-20.74-5.18-30.7-8.69v-169.19z" fill="#d9723e"/><path d="m170.92 328.33h170.16v27.148h-170.16z" fill="#bd5423"/><path d="m294.455 165.249h-20.029v-21.942c0-5.533-4.485-10.018-10.018-10.018h-16.816c-5.533 0-10.018 4.485-10.018 10.018v21.942h-20.029c-5.533 0-10.018 4.485-10.018 10.018v16.816c0 5.533 4.485 10.018 10.018 10.018h20.029v48.06h36.852v-48.061h20.029c5.533 0 10.018-4.485 10.018-10.018v-16.816c-.001-5.532-4.486-10.017-10.018-10.017z" fill="#ffbb16"/><path d="m242.885 232.886-103.153 94.42c-5.301 4.852-1.868 13.687 5.318 13.687h221.9c7.186 0 10.619-8.835 5.318-13.687l-103.153-94.42c-7.423-6.795-18.807-6.795-26.23 0z" fill="#2f373b"/><path d="m310.38 401.11v105.1c-17.53 3.79-35.72 5.79-54.38 5.79s-36.85-2-54.38-5.79v-105.1c0-14.76 11.97-26.74 26.74-26.74h55.28c14.77 0 26.74 11.98 26.74 26.74z" fill="#181e21"/></g></svg>