<svg id="Capa_1" enable-background="new 0 0 512 512" height="512" viewBox="0 0 512 512" width="512" xmlns="http://www.w3.org/2000/svg"><g><circle cx="256" cy="256" fill="#2f373b" r="256"/><path d="m512 256c0 141.38-114.62 256-256 256s-256-114.62-256-256c0-12.01.83-23.82 2.43-35.39 11.51 10.97 21.62 23.32 44.35 23.32 40.91 0 40.91-40 81.82-40 40.92 0 40.92 40 81.83 40s40.91-40 81.82-40c40.92 0 40.92 40 81.83 40 40.92 0 40.92-40 81.83-40 29.49 0 37.73 20.77 55.34 32.38.5 6.5.75 13.07.75 19.69z" fill="#5ea5ec"/><path d="m506.29 310c-4.43 20.62-11.34 40.32-20.41 58.77-41.7 84.84-128.97 143.23-229.88 143.23-88.6 0-166.7-45.02-212.65-113.44-19.75-29.4-33.57-63.12-39.73-99.44 11.03 10.66 21.21 22.17 43.16 22.17 40.91 0 40.91-40 81.82-40 40.92 0 40.92 40 81.83 40s40.91-40 81.82-40c40.92 0 40.92 40 81.83 40 40.92 0 40.92-40 81.83-40 26.58 0 35.9 16.88 50.38 28.71z" fill="#80b4fb"/><path d="m58.406 289.885c-18.962-59.312.78-119.884 25.457-144.562s21.537 37.515 39.035 37.515 20.191-117.828 53.842-117.828-2.692 74.481 28.267 80.314 45.092-105.216 88.839-100.505c43.746 4.711-3.006 115.76 32.148 115.76s32.462-74.032 64.767-74.032 1.531 80.861 28.36 90.907 51.823-13.962 32.596 78.805" fill="#e84d59"/><path d="m86.705 243.513c-8.974-29.99-7.478-45.861 4.188-50.339s3.655 16.68 23.93 14.366c20.274-2.314 28.716-67.003 43.073-62.217s-18.546 42.3 14.358 48.968 37.689-38.2 52.047-38.2-3.484 38.416 14.358 38.2 31.109-40.593 53.243-34.611 5.384 41.877 30.51 41.877 22.733-40.68 42.475-38.287 16.153 93.326 16.153 93.326" fill="#ffbb16"/><path d="m451.72 256.26v163.91h-393.31v-163.91c0-18.46 14.96-33.42 33.41-33.42h326.48c18.46 0 33.42 14.96 33.42 33.42z" fill="#bd5423"/><path d="m451.72 377.94v42.23h-393.31v-42.23c0-18.46 14.96-33.42 33.41-33.42h326.48c18.46 0 33.42 14.96 33.42 33.42z" fill="#a0380e"/><path d="m485.88 368.77c-13.62 27.71-32.1 52.6-54.33 73.54-6.33 5.98-12.96 11.62-19.87 16.93-6.26 4.8-12.75 9.32-19.46 13.54-39.45 24.84-86.15 39.22-136.22 39.22-62.58 0-119.92-22.46-164.39-59.77-18.5-15.5-34.77-33.57-48.26-53.67 1.11.07 2.25.1 3.43.1 40.91 0 40.91-40 81.82-40 40.92 0 40.92 40 81.83 40s40.91-40 81.82-40c40.92 0 40.92 40 81.83 40 40.92 0 40.92-40 81.83-40 13.44 0 22.46 4.31 29.97 10.11z" fill="#5ea5ec"/><path d="m374.08 476.02c7.15 0 13.05-1.22 18.14-3.24-39.45 24.84-86.15 39.22-136.22 39.22-62.58 0-119.92-22.46-164.39-59.77 9.07-8.59 19.13-16.21 36.99-16.21 40.92 0 40.92 40 81.83 40s40.91-40 81.82-40c40.92 0 40.92 40 81.83 40z" fill="#80b4fb"/><path d="m410.62 249.28v37.29c0 24.58-19.92 44.51-44.5 44.51h-224.74c-24.58 0-44.51-19.93-44.51-44.51v-37.29c0-24.58 19.93-44.5 44.51-44.5h224.74c24.58 0 44.5 19.92 44.5 44.5z" fill="#f6f1f1"/><g fill="#d0e2e7"><path d="m410.619 249.272v37.294c0 24.583-19.928 44.511-44.498 44.511h-224.746c-24.583 0-44.498-19.928-44.498-44.511v-37.294c0-.193 0-.386.014-.579.606 24.06 20.286 43.355 44.484 43.355h224.746c24.184 0 43.878-19.295 44.484-43.355.014.193.014.386.014.579z"/><path d="m212.03 305.96-9.65-2.61c9.68-35.77 7.57-62.94-6.27-80.75-7.15-9.2-16.5-14.63-25.11-17.82h21.05c4.26 3.16 8.33 7.01 11.96 11.68 15.87 20.42 18.57 50.54 8.02 89.5z"/><path d="m287.74 305.96-9.65-2.61c9.66-35.73 7.57-62.87-6.21-80.68-7.15-9.24-16.59-14.68-25.25-17.89h21.13c4.25 3.16 8.33 7.01 11.96 11.68 15.86 20.42 18.56 50.54 8.02 89.5z"/><path d="m373.38 305.96-9.65-2.61c9.67-35.73 7.58-62.87-6.21-80.68-7.15-9.24-16.59-14.68-25.25-17.89h21.13c4.26 3.16 8.33 7.01 11.96 11.68 15.87 20.42 18.57 50.54 8.02 89.5z"/></g><path d="m271.574 229.55c17.544 0 46.704 24.828 28.53 43.003-18.175 18.175-51.986 3.916-51.986-9.77s6.514-33.233 23.456-33.233z" fill="#e84d59"/><g><path d="m265.841 124.028c-.002-2.32.707-4.474 1.917-6.258 6.121-.794 12.329-.794 18.451 0 1.21 1.783 1.919 3.937 1.921 6.258z" fill="#ffbb16"/><path d="m280.354 124.028c0-2.579-.881-4.956-2.352-6.846 2.743.041 5.482.237 8.206.588 1.214 1.783 1.925 3.939 1.925 6.258z" fill="#ff931f"/><path d="m268.277 134.118h17.413v25.682h-17.413z" fill="#d9723e"/><path d="m279.041 134.118h6.648v25.682h-6.648z" fill="#bd5423"/><path d="m292.88 170.686v83.63h-31.79l.01-30.97-.01-4.37.01-13.29-.01-35z" fill="#f6f1f1"/><path d="m261.095 218.973v-13.284l31.78-31.78v13.285z" fill="#fff"/><path d="m261.095 243.043v-19.695l31.78-31.779v19.695z" fill="#fff"/><path d="m276.98 170.686h15.9v83.63h-15.9z" fill="#d0e2e7"/><path d="m255.038 156.713h43.891c2.488 0 4.505 2.017 4.505 4.505v4.96c0 2.488-2.017 4.505-4.505 4.505h-43.889c-2.488 0-4.504-2.016-4.505-4.504l-.001-4.96c-.002-2.488 2.015-4.506 4.504-4.506z" fill="#2f373b"/><path d="m291.149 156.712h7.779c2.487 0 4.506 2.019 4.506 4.506v4.961c0 2.487-2.019 4.503-4.506 4.503h-7.779c2.49 0 4.506-2.016 4.506-4.503v-4.961c0-2.487-2.016-4.506-4.506-4.506z" fill="#181e21"/><path d="m261.095 130.91v-4.465c0-2.099 1.702-3.801 3.802-3.8l3.972.002h20.205c2.099 0 3.8 1.701 3.8 3.8v4.463c0 2.099-1.701 3.8-3.8 3.8h-24.179c-2.099 0-3.8-1.702-3.8-3.8z" fill="#2f373b"/><path d="m285.284 130.91v-4.463c0-2.099-1.701-3.8-3.8-3.8h7.59c2.096 0 3.8 1.701 3.8 3.8v4.463c0 2.096-1.704 3.8-3.8 3.8h-7.59c2.099 0 3.8-1.705 3.8-3.8z" fill="#181e21"/></g></g></svg>