<svg id="Capa_1" enable-background="new 0 0 512 512" height="512" viewBox="0 0 512 512" width="512" xmlns="http://www.w3.org/2000/svg"><g><circle cx="256" cy="256" fill="#6ec17d" r="256"/><g><path d="m398.41 468.76c-12.34 8.28-25.44 15.52-39.18 21.57-9.59 4.23-19.49 7.9-29.65 10.93-1.12.34-2.25.67-3.38.99-22.3 6.35-45.85 9.75-70.2 9.75-24.34 0-47.89-3.4-70.2-9.74-7.24-2.06-14.36-4.44-21.33-7.12-.43-.16-.86-.32-1.29-.49-3.51-1.36-6.98-2.81-10.41-4.32-13.74-6.06-26.84-13.29-39.19-21.58 10.39-14.37 23.76-26.43 39.19-35.32 10.2-5.87 21.3-10.34 33.03-13.15 1.81-.44 3.64-.84 5.48-1.19 3.47-.68 7-1.2 10.57-1.57 1.03-.11 2.05-.21 3.09-.29 3.38-.28 6.8-.42 10.26-.42h81.59c4.52 0 8.97.24 13.35.7 3.57.37 7.09.9 10.57 1.56 1.39.27 2.77.56 4.14.87.45.12.91.21 1.35.33 3.48.84 6.9 1.82 10.26 2.94 7.98 2.65 15.59 6.09 22.77 10.22 15.43 8.9 28.79 20.96 39.18 35.33z" fill="#d9723e"/><path d="m215.2 416.81c-29.36 0-49.26 42.43-50.73 78.33-.43-.16-.86-.32-1.29-.49-3.51-1.36-6.98-2.81-10.41-4.32-13.74-6.06-26.84-13.29-39.19-21.58 10.39-14.37 23.76-26.43 39.19-35.32 10.2-5.87 21.3-10.34 33.03-13.15 1.81-.44 3.64-.84 5.48-1.19 3.47-.68 7-1.2 10.57-1.57 1.03-.11 2.05-.21 3.09-.29 3.38-.28 6.8-.42 10.26-.42z" fill="#bd5423"/><path d="m320.71 419.07v4.34c0 11.79-3.12 22.94-8.71 32.57-6.57 11.32-16.55 20.54-28.87 26.18-2.57 1.18-5.24 2.2-8.01 3.06-6.17 1.92-12.61 2.89-19.13 2.89-9.68 0-18.87-2.14-27.13-5.97-12.05-5.58-22.1-14.77-28.76-26.16-5.61-9.57-8.82-20.71-8.82-32.57v-4.32c3.47-.68 7-1.2 10.57-1.57 1.03-.11 2.05-.21 3.09-.29 3.38-.28 6.8-.42 10.26-.42h81.59c4.52 0 8.97.24 13.35.7 3.57.37 7.09.9 10.57 1.56z" fill="#434d51"/></g><path d="m312 455.98c-6.57 11.32-16.55 20.54-28.87 26.18-2.57 1.18-5.24 2.2-8.01 3.06-6.17 1.92-12.61 2.89-19.13 2.89-9.68 0-18.87-2.14-27.13-5.97-12.05-5.58-22.1-14.77-28.76-26.16z" fill="#d0e2e7"/><path d="m283.13 362.34v119.82c-2.57 1.18-5.24 2.2-8.01 3.06-6.17 1.92-12.61 2.89-19.13 2.89-9.68 0-18.87-2.14-27.13-5.97v-119.8z" fill="#f6f1f1"/><path d="m283.13 362.34v50.43h-33.02v75.07c-7.53-.68-14.68-2.65-21.25-5.7v-119.8z" fill="#d0e2e7"/><path d="m345.68 314.12v60.56c0 13.18-10.68 23.86-23.86 23.86h-131.65c-13.18 0-23.86-10.68-23.86-23.86v-60.56z" fill="#f6f1f1"/><path d="m239.04 398.54h-48.87c-13.18 0-23.86-10.68-23.86-23.86v-60.56h48.87v60.56c0 13.18 10.68 23.86 23.86 23.86z" fill="#d0e2e7"/><path d="m345.68 314.12v41.57c-.82.03-1.65.05-2.48.05h-176.89v-41.62z" fill="#d0e2e7"/><path d="m410.7 128.45v144.78c0 36.63-29.7 66.33-66.33 66.33h-176.75c-36.63 0-66.33-29.7-66.33-66.33v-144.78z" fill="#f6f1f1"/><path d="m234.39 339.561h-66.78c-36.63 0-66.32-29.7-66.32-66.33v-144.78h66.78v144.78c0 36.63 29.69 66.33 66.32 66.33z" fill="#d0e2e7"/><path d="m101.29 148.36h309.41v88.08h-309.41z" fill="#d0e2e7"/><path d="m194.53 197.16h-18.174c-14.074 0-25.482 11.409-25.482 25.482v30.158c0 14.074 11.409 25.482 25.482 25.482h18.174c14.074 0 25.482-11.409 25.482-25.482v-30.157c.001-14.074-11.408-25.483-25.482-25.483z" fill="#2f373b"/><path d="m335.633 197.16h-18.174c-14.074 0-25.482 11.409-25.482 25.482v30.158c0 14.074 11.409 25.482 25.482 25.482h18.174c14.074 0 25.482-11.409 25.482-25.482v-30.157c.001-14.074-11.408-25.483-25.482-25.483z" fill="#2f373b"/><path d="m258.07 0h-3.72c-89.389 0-161.853 72.464-161.853 161.852v29.038h327.425v-29.038c0-89.388-72.464-161.852-161.852-161.852z" fill="#d9723e"/><path d="m255.337.002c-42.05 0-76.14 72.46-76.14 161.85v29.04h-86.7v-29.04c0-89.39 72.46-161.85 161.85-161.85h.99z" fill="#bd5423"/><path d="m222.946 0h66.528v146.903h-66.528z" fill="#ffbb16"/><path d="m222.946 0h11.239v146.903h-11.239z" fill="#ff931f"/><path d="m412.465 221.424h-312.51c-14.844 0-26.878-12.034-26.878-26.878v-34.324c0-14.844 12.034-26.878 26.878-26.878h312.51c14.844 0 26.878 12.034 26.878 26.878v34.324c-.001 14.844-12.034 26.878-26.878 26.878z" fill="#ffbb16"/><path d="m191.377 221.416h-91.43c-14.84 0-26.87-12.03-26.87-26.87v-34.33c0-14.84 12.03-26.88 26.87-26.88h91.43c-14.85 0-26.88 12.04-26.88 26.88v34.33c0 14.84 12.03 26.87 26.88 26.87z" fill="#ff931f"/><g><path d="m161.11 73.902c0 11.02-3.61 21.71-10.16 30.44-4.44 5.92-10.23 10.94-17.17 14.55-50.54-12.95-75.81-107.59-50.54-117.78 3.86-1.56 7.29-1.4 10.48-.01 17.12 7.41 27.41 50.05 59.98 53.01 2.23.2 4.13 1.72 4.83 3.85 1.75 5.27 2.58 10.64 2.58 15.94z" fill="#f6f1f1"/><path d="m378.64 118.892c-15.24-7.92-24.95-22.65-26.94-38.79-.26-2.05-.39-4.12-.39-6.2 0-5.3.83-10.67 2.58-15.94.7-2.13 2.6-3.65 4.83-3.85 38.64-3.51 45.93-62.89 70.46-53 2.21.89 4.03 2.42 5.47 4.49.23.31.44.63.64.97.03.05.06.09.08.14 13.65 23.1-11.36 100.55-56.73 112.18z" fill="#f6f1f1"/><g fill="#d0e2e7"><path d="m150.95 104.342c-4.44 5.92-10.23 10.94-17.17 14.55-50.54-12.95-75.81-107.59-50.54-117.78 3.86-1.56 7.29-1.4 10.48-.01-19.85-4.27 1 83.07 57.23 103.24z"/><path d="m434.65 5.602c-6.43-7.04-19.16 54.65-42.11 66.16-13.58 6.82-29.6 8.31-40.84 8.34-.26-2.05-.39-4.12-.39-6.2 0-5.3.83-10.67 2.58-15.94.7-2.13 2.6-3.65 4.83-3.85 38.64-3.51 45.93-62.89 70.46-53 2.21.89 4.03 2.42 5.47 4.49z"/></g></g><path d="m273.835 289.407c.144-.92.241-1.856.241-2.817v-12.509c0-9.986-8.095-18.081-18.081-18.081-9.986 0-18.081 8.095-18.081 18.081v12.509c0 .961.097 1.897.241 2.817-8.227 1.695-14.413 8.979-14.413 17.708 0 9.986 8.095 18.081 18.081 18.081h28.344c9.986 0 18.081-8.095 18.081-18.081 0-8.729-6.186-16.012-14.413-17.708z" fill="#2f373b"/><g fill="#d0e2e7"><path d="m234.185 339.558h12.873v58.982h-12.873z"/><path d="m308.947 339.558h12.873v58.982h-12.873z"/><path d="m271.566 339.558h12.873v58.982h-12.873z"/></g></g></svg>