<svg id="Capa_1" enable-background="new 0 0 512 512" height="512" viewBox="0 0 512 512" width="512" xmlns="http://www.w3.org/2000/svg"><g><path d="m512 256c0 52.69-15.92 101.66-43.21 142.37-45.94 68.52-124.1 113.63-212.79 113.63-88.7 0-166.87-45.12-212.8-113.65-27.28-40.7-43.2-89.67-43.2-142.35 0-141.38 114.62-256 256-256s256 114.62 256 256z" fill="#ffbb16"/><g><circle cx="87.978" cy="74.964" fill="#bd5423" r="74.963"/><circle cx="87.978" cy="74.964" fill="#f9c5ac" r="35.01"/><circle cx="424.012" cy="74.964" fill="#bd5423" r="74.963"/><circle cx="424.012" cy="74.964" fill="#f9c5ac" r="35.01"/></g><g><path d="m468.79 206.31v192.06c-45.94 68.52-124.1 113.63-212.79 113.63-88.7 0-166.87-45.12-212.8-113.65v-192.04c0-88.68 71.89-160.56 160.57-160.56h104.45c88.68 0 160.57 71.88 160.57 160.56z" fill="#d9723e"/><path d="m274.15 45.75c-88.68 0-160.57 71.88-160.57 160.56v262.44c-27.8-18.64-51.74-42.59-70.38-70.4v-192.04c0-88.68 71.89-160.56 160.57-160.56z" fill="#bd5423"/><path d="m442.65 271.52c0 59.06-20.98 113.14-54.81 152.46-5.27 6.12-10.85 11.88-16.71 17.25-31.96 29.29-72.27 46.82-115.94 46.61-9.93-.04-19.66-.97-29.15-2.76-19.88-3.68-38.71-10.97-55.97-21.27-10.56-6.3-20.53-13.72-29.79-22.14-43.21-39.25-70.94-100.02-70.94-168.23v-1.92c0-26.82 10.33-50.87 26.65-67.18 13.61-13.61 31.38-21.84 50.85-21.84h218.31c19.45 0 37.24 8.23 50.85 21.84 16.33 16.33 26.65 40.36 26.65 67.18z" fill="#a0380e"/><path d="m371.13 441.23c-31.96 29.29-72.27 46.82-115.94 46.61-9.93-.04-19.66-.97-29.15-2.76-32.05-5.93-61.37-21.24-85.76-43.41 3.99-2.99 8.16-5.74 12.49-8.24 10.2-5.87 21.3-10.34 33.03-13.15 1.81-.44 3.64-.84 5.48-1.19 3.47-.68 7-1.2 10.57-1.57 1.03-.11 2.05-.21 3.09-.29 3.38-.28 6.8-.42 10.26-.42h81.59c4.52 0 8.97.24 13.35.7 3.57.37 7.09.9 10.57 1.56 1.39.27 2.77.56 4.14.87.45.12.91.21 1.35.33 3.48.84 6.9 1.82 10.26 2.94 7.98 2.65 15.59 6.09 22.77 10.22 4.12 2.38 8.09 4.98 11.9 7.8z" fill="#f9c5ac"/><path d="m215.2 416.81c-20.94 0-37.07 21.59-45.13 47-10.56-6.3-20.53-13.72-29.79-22.14 3.99-2.99 8.16-5.74 12.49-8.24 10.2-5.87 21.3-10.34 33.03-13.15 1.81-.44 3.64-.84 5.48-1.19 3.47-.68 7-1.2 10.57-1.57 1.03-.11 2.05-.21 3.09-.29 3.38-.28 6.8-.42 10.26-.42z" fill="#f9c5ac"/><path d="m371.13 441.23c-31.96 29.29-72.27 46.82-115.94 46.61-9.93-.04-19.66-.97-29.15-2.76-32.05-5.93-61.37-21.24-85.76-43.41 3.99-2.99 8.16-5.74 12.49-8.24 4.65-2.67 9.49-5.06 14.48-7.12 18.02 11.2 37.82 19.1 58.79 22.98 9.49 1.79 19.22 2.72 29.15 2.76 32.14.15 62.46-9.3 88.97-25.98 5.21 2.11 10.24 4.58 15.07 7.36 4.12 2.38 8.09 4.98 11.9 7.8z" fill="#efb29a"/><path d="m300.706 368.538v54.869c0 20.088-13.245 37.067-31.489 42.707-4.176 1.296-8.627 1.997-13.23 1.997-24.691 0-44.703-20.012-44.703-44.703v-54.869h89.422z" fill="#efb29a"/><path d="m300.706 419.932v3.475c0 20.088-13.245 37.067-31.489 42.707-16.461-5.06-28.837-19.372-31.123-36.884 2.987.183 5.99.274 9.008.274 8.459 0 16.75-.671 24.828-1.997 9.953-1.6 19.57-4.161 28.776-7.575z" fill="#f9c5ac"/><path d="m410.7 255.12c0 42.62-17.39 81.64-45.43 110.01-28.18 28.51-67.11 46.26-109.94 46.08-8.23-.03-16.3-.7-24.16-1.99-73.64-11.86-129.88-75.72-129.88-152.71v-1.39c0-19.35 8.56-36.7 22.09-48.47 11.28-9.82 26.01-15.76 42.14-15.76h180.95c16.12 0 30.86 5.94 42.14 15.76 13.54 11.78 22.09 29.12 22.09 48.47z" fill="#f9c5ac"/><path d="m283.58 408.68c-9.17 1.7-18.61 2.57-28.25 2.53-8.23-.03-16.3-.7-24.16-1.99-73.64-11.86-129.88-75.72-129.88-152.71v-1.39c0-35.47 28.76-64.23 64.23-64.23h55.54c-35.48 0-64.23 28.76-64.23 64.23v1.39c0 75.9 54.65 139.03 126.75 152.17z" fill="#efb29a"/><path d="m410.7 255.12c0 8.61-.71 17.08-2.08 25.34-7.2-27.6-32.3-47.96-62.15-47.96h-180.95c-30.05 0-55.28 20.64-62.3 48.52-1.27-7.98-1.93-16.17-1.93-24.51v-1.39c0-35.47 28.76-64.23 64.23-64.23h180.95c35.47 0 64.23 28.76 64.23 64.23z" fill="#efb29a"/><path d="m273.544 291.694h-35.098c-4.181 0-7.57-3.389-7.57-7.57 0-4.181 3.389-7.57 7.57-7.57h35.098c4.181 0 7.57 3.389 7.57 7.57 0 4.18-3.389 7.57-7.57 7.57z" fill="#efb29a"/><g fill="#e84d59"><path d="m185.655 286.349h-46.597c-8.109 0-14.683 6.574-14.683 14.683v1.902c0 8.109 6.574 14.683 14.683 14.683h46.597c8.109 0 14.683-6.574 14.683-14.683v-1.902c0-8.109-6.574-14.683-14.683-14.683z"/><path d="m372.932 286.349h-46.597c-8.109 0-14.683 6.574-14.683 14.683v1.902c0 8.109 6.574 14.683 14.683 14.683h46.597c8.109 0 14.683-6.574 14.683-14.683v-1.902c.001-8.109-6.573-14.683-14.683-14.683z"/></g><path d="m227.96 352.59v-22.57c0-15.49 12.55-28.04 28.03-28.04h.01c15.48 0 28.03 12.55 28.03 28.04v22.57c0 6.53-2.23 12.54-5.99 17.3-5.12 6.54-13.09 10.74-22.04 10.74h-.01c-8.95 0-16.92-4.2-22.05-10.74-3.75-4.76-5.98-10.77-5.98-17.3z" fill="#181e21"/><path d="m233.94 369.89c5.13-6.53 13.1-10.73 22.05-10.73h.01c8.95 0 16.92 4.2 22.04 10.73-5.12 6.54-13.09 10.74-22.04 10.74h-.01c-8.95 0-16.92-4.2-22.05-10.74z" fill="#e84d59"/><path d="m277.789 239.02h5.384c6.051 9.39 16.589 15.608 28.577 15.608 11.998 0 22.536-6.218 28.577-15.608h5.384c0 18.759-15.201 33.961-33.96 33.961-18.75-.001-33.962-15.202-33.962-33.961z" fill="#181e21"/><path d="m166.279 239.02h5.384c6.051 9.39 16.589 15.608 28.577 15.608 11.998 0 22.536-6.218 28.577-15.608h5.384c0 18.759-15.201 33.961-33.96 33.961-18.75-.001-33.962-15.202-33.962-33.961z" fill="#181e21"/><g fill="#f6f1f1"><path d="m175.24 190.89c-11.72 15.6-18.85 38.55-23.2 59.91-1.29 6.34-6.14 9.69-11.27 10.13-6.14.55-12.66-3.08-13.87-10.74-2.42-15.39-3.33-30.55-3.52-43.54 6.5-5.66 14.15-10.03 22.55-12.71 6.18-1.98 12.76-3.05 19.59-3.05z"/><path d="m215.67 190.89c-6.24 10.82-10.31 24.64-12.96 37.65-1.01 4.99-5.08 7.44-9.13 7.41-4.19-.03-8.36-2.67-9.18-7.86-2.11-13.46-2.65-26.67-2.59-37.2z"/><path d="m242.41 190.89c-3.04 6.86-5.18 14.66-6.69 22.11-.74 3.65-3.69 5.46-6.66 5.48h-.06c-3.11 0-6.22-1.96-6.83-5.82-1.2-7.63-1.71-15.16-1.86-21.77z"/><path d="m327.59 228.09c-.81 5.15-4.93 7.8-9.09 7.85-4.08.07-8.2-2.37-9.22-7.4-2.65-13.01-6.72-26.83-12.97-37.65h33.87c.06 10.53-.48 23.74-2.59 37.2z"/><path d="m291.68 190.89c-.15 6.61-.66 14.14-1.86 21.77-.28 1.8-1.11 3.19-2.23 4.15-.06.06-.11.1-.17.15-3.61 2.92-10 1.67-11.15-3.96-1.51-7.45-3.65-15.25-6.69-22.11z"/><path d="m388.61 206.65c-.19 12.99-1.1 28.15-3.52 43.54-.95 6-5.16 9.53-9.9 10.51-6.34 1.32-13.62-1.93-15.24-9.9-4.35-21.36-11.48-44.31-23.2-59.91h9.72c1.59 0 3.17.06 4.73.18 14.26 1.03 27.24 6.73 37.41 15.58z"/></g><path d="m140.77 260.93c-6.14.55-12.66-3.08-13.87-10.74-2.42-15.39-3.33-30.55-3.52-43.54 6.5-5.66 14.15-10.03 22.55-12.71-5.49 21.7-14.78 63.82-5.16 66.99z" fill="#d0e2e7"/><path d="m193.58 235.95c-4.19-.03-8.36-2.67-9.18-7.86-2.11-13.46-2.65-26.67-2.59-37.2h14.73c-3.92 16.57-8.8 41.87-2.96 45.06z" fill="#d0e2e7"/><path d="m229 218.48c-3.11 0-6.22-1.96-6.83-5.82-1.2-7.63-1.71-15.16-1.86-21.77h8.11c-1.28 8.97-3.42 27.4.58 27.59z" fill="#d0e2e7"/><path d="m287.42 216.96c-3.61 2.92-10 1.67-11.15-3.96-1.51-7.45-3.65-15.25-6.69-22.11h7.76c1.96 8.16 7.11 28.1 10.08 26.07z" fill="#d0e2e7"/><path d="m318.5 235.94c-4.08.07-8.2-2.37-9.22-7.4-2.65-13.01-6.72-26.83-12.97-37.65h10.16c11.3 14.19 5.18 44.76 12.03 45.05z" fill="#d0e2e7"/><path d="m375.2 260.69-.01.01c-6.34 1.32-13.62-1.93-15.24-9.9-4.35-21.36-11.48-44.31-23.2-59.91h9.72c1.59 0 3.17.06 4.73.18 4.24 5.06 8.99 12.21 11.48 20.97 5.12 18.03 4.66 50.39 12.52 48.65z" fill="#d0e2e7"/></g><path d="m270.026 152.263 14.281-24.735c6.236-10.801-1.559-24.303-14.031-24.303h-28.561c-12.472 0-20.267 13.502-14.031 24.303l14.281 24.735c6.235 10.801 21.825 10.801 28.061 0z" fill="#2f373b"/><g fill="#181e21"><path d="m255.993 160.358c-5.46 0-10.91-2.7-14.03-8.1l-14.28-24.73c-6.24-10.8 1.56-24.3 14.03-24.3h9.03c-4.59 0-7.45 13.5-5.16 24.3l5.25 24.73c1.15 5.4 3.15 8.1 5.16 8.1z"/><g><g><path d="m315.531 123.016c-2.048 0-4.095-.781-5.657-2.343-3.125-3.124-3.125-8.189 0-11.313l36.398-36.398c3.125-3.124 8.19-3.125 11.313 0 3.125 3.124 3.125 8.189 0 11.313l-36.398 36.398c-1.561 1.561-3.608 2.343-5.656 2.343z"/><path d="m351.93 123.016c-2.047 0-4.095-.781-5.657-2.343l-36.398-36.398c-3.125-3.124-3.125-8.189 0-11.313 3.124-3.124 8.189-3.124 11.313 0l36.398 36.398c3.125 3.124 3.125 8.189 0 11.313-1.562 1.561-3.609 2.343-5.656 2.343z"/></g><g><path d="m160.061 123.016c-2.048 0-4.095-.781-5.657-2.343-3.125-3.124-3.125-8.189 0-11.313l36.398-36.398c3.125-3.124 8.19-3.125 11.313 0 3.125 3.124 3.125 8.189 0 11.313l-36.398 36.398c-1.562 1.561-3.609 2.343-5.656 2.343z"/><path d="m196.459 123.016c-2.047 0-4.095-.781-5.657-2.343l-36.398-36.398c-3.125-3.124-3.125-8.189 0-11.313 3.124-3.124 8.189-3.124 11.313 0l36.398 36.398c3.125 3.124 3.125 8.189 0 11.313-1.561 1.561-3.609 2.343-5.656 2.343z"/></g></g></g></g></svg>