<svg id="Capa_1" enable-background="new 0 0 512 512" height="512" viewBox="0 0 512 512" width="512" xmlns="http://www.w3.org/2000/svg"><g><path d="m512 256c0 141.38-114.62 256-256 256-51.92 0-100.23-15.46-140.59-42.02-10.65-7.02-20.75-14.81-30.22-23.29-5.57-4.99-10.92-10.22-16.03-15.68-42.89-45.78-69.16-107.33-69.16-175.01 0-141.38 114.62-256 256-256s256 114.62 256 256z" fill="#181e21"/><path d="m482.46 216c0 108.498-87.962 196.46-196.46 196.46-39.844 0-76.919-11.864-107.892-32.247-8.173-5.387-15.924-11.366-23.191-17.873-4.275-3.829-8.38-7.843-12.302-12.033-32.915-35.133-53.075-82.368-53.075-134.307 0-108.498 87.962-196.46 196.46-196.46s196.46 87.962 196.46 196.46z" fill="#434d51"/><g><path d="m414.747 284.033c32.674-32.674 56.68-69.287 32.674-130.974-24.005-61.687-77.295-57.278-103.22-98.735s-74.91-65.313-102.494-49.306c-25.321 14.694 48.789 42.616 30.079 61.325-18.709 18.709-122.971-78.917-137.073-47.271s79.695 57.85 61.535 89.608-85.116-47.42-96.498-16.783 95.161 66.765 88.151 94.803c-7.009 28.037-49.401-3.292-57.662 18.92-14.033 37.732 126.353 144.709 157.195 151.913s94.639-40.825 127.313-73.5z" fill="#e84d59"/><path d="m374.316 128.98c-18.216-18.21-71.056-66.86-85.479-52.436-14.424 14.424 8.682 17.358-8.277 34.317s-38.356-16.698-61.333-9.439 12.477 36.273 7.928 61.46-25.935 9.8-32.944 22.767 21.028 56.075 21.028 56.075" fill="#ffbb16"/><path d="m304.58 304.18-48.05 42.11-141.12 123.69c-16.92-11.15-32.44-24.24-46.25-38.97l127.09-144.99 42.11-48.06z" fill="#d9723e"/><path d="m263.15 262.75-177.96 183.94c-5.57-4.99-10.92-10.22-16.03-15.68l169.2-193.05z" fill="#bd5423"/><path d="m304.582 304.179-48.057 42.114c-4.168-2.584-8.104-5.693-11.73-9.319l-39.238-39.238c-3.617-3.617-6.726-7.553-9.31-11.721l42.114-48.057z" fill="#bd5423"/><path d="m413.562 260.842-59.089 59.089c-25.578 25.578-67.055 25.578-92.634 0l-39.238-39.238c-25.578-25.578-25.57-67.047.009-92.625l59.089-59.089c25.578-25.578 67.038-25.578 92.616 0l39.238 39.238c20.687 20.687 24.657 51.768 11.868 76.425-3.014 5.839-6.967 11.308-11.859 16.2z" fill="#f6f1f1"/><g fill="#d0e2e7"><path d="m261.843 319.94-39.238-39.238c-25.578-25.578-25.578-67.055 0-92.634l59.089-59.089c25.578-25.578 67.046-25.57 92.625.009l39.238 39.238c-25.596-25.441-66.952-25.406-92.487.129l-59.089 59.089c-25.536 25.535-25.579 66.9-.138 92.496z"/><path d="m413.562 260.842-3.118 3.118-138.658-90.498 13.306-20.402 140.329 91.583c-3.014 5.838-6.967 11.307-11.859 16.199z"/><path d="m375.487 298.917-17.603 17.604-138.658-90.498 13.306-20.403z"/></g></g><g fill="#e84d59"><path d="m146.145 161.256c-18.271-19.804-52.907-40.616-76.359-53.463-9.138-5.005-19.268 4.773-14.593 14.083 11.339 22.583 34.966 52.088 82.003 57.185 9.783 1.061 15.622-10.573 8.949-17.805z"/><path d="m146.549 59.283c-12.881-13.962-37.301-28.635-53.835-37.692-6.442-3.529-13.584 3.365-10.288 9.929 7.994 15.922 24.652 36.723 57.813 40.316 6.897.747 11.014-7.455 6.31-12.553z"/></g></g></svg>