<svg id="Capa_1" enable-background="new 0 0 512 512" height="512" viewBox="0 0 512 512" width="512" xmlns="http://www.w3.org/2000/svg"><g><path d="m512 256c0 36.89-7.81 71.96-21.87 103.64-.7 1.61-1.43 3.22-2.18 4.81-2.78 5.94-5.78 11.75-9.01 17.43-5.79 10.26-12.28 20.09-19.4 29.4-3.81 4.99-7.8 9.83-11.97 14.51-15.95 18-34.4 33.74-54.82 46.65-15.26 9.67-31.61 17.76-48.83 24.06-5.22 1.91-10.52 3.65-15.9 5.23-22.84 6.68-47.01 10.27-72.02 10.27-7.81 0-15.55-.35-23.18-1.04-16.81-1.51-33.14-4.64-48.84-9.23-5.38-1.58-10.68-3.32-15.9-5.23-36.29-13.27-68.73-34.52-95.2-61.62-2.89-2.96-5.72-5.99-8.47-9.08-4.15-4.69-8.14-9.53-11.95-14.52-7.12-9.31-13.61-19.13-19.42-29.4-3.21-5.67-6.21-11.49-8.99-17.43-.75-1.59-1.48-3.2-2.18-4.81-14.06-31.68-21.87-66.75-21.87-103.64 0-38.77 8.62-75.52 24.05-108.45 13.77-29.42 32.99-55.8 56.35-77.83 10.79-10.18 22.47-19.43 34.9-27.62 40.38-26.61 88.73-42.1 140.7-42.1s100.32 15.49 140.7 42.1c3.57 2.36 7.09 4.8 10.53 7.33 34.49 25.29 62.41 59.01 80.72 98.12 15.43 32.93 24.05 69.68 24.05 108.45z" fill="#b1e4f9"/><g><g><path d="m168.08 91.66v404.84c-63.67-23.28-115.5-71.12-144.03-132.05v-272.79l72.01-67.62 19.24 18.06z" fill="#d9723e"/><path d="m96.06 24.04-15.66 45.68-7.52 21.94v343.22c-19.99-20.44-36.56-44.22-48.83-70.43v-272.79z" fill="#bd5423"/><path d="m168.082 91.657c-17.454 31.348-52.005 15.522-52.005 15.522-19.481 12.035-37.765 4.148-43.194 1.26-1.061-.557-1.628-.924-1.628-.924-35.234 15.742-47.206-15.858-47.206-15.858l72.011-67.621z" fill="#f9c5ac"/><path d="m96.06 24.036-23.178 67.621v16.782c-1.061-.557-1.628-.924-1.628-.924-35.234 15.742-47.206-15.858-47.206-15.858z" fill="#efb29a"/></g><g><path d="m328.02 91.66v410.07c-22.84 6.68-47.01 10.27-72.02 10.27s-49.18-3.59-72.02-10.27v-410.07l72.01-67.62z" fill="#d9723e"/><path d="m255.99 24.04-23.17 67.62v419.3c-16.81-1.51-33.14-4.64-48.84-9.23v-410.07z" fill="#bd5423"/><path d="m328.016 91.657c-17.454 31.348-52.005 15.522-52.005 15.522-19.481 12.035-37.765 4.148-43.194 1.26-1.061-.557-1.628-.924-1.628-.924-35.234 15.742-47.206-15.858-47.206-15.858l72.011-67.622z" fill="#f9c5ac"/><path d="m255.995 24.036-23.178 67.622v16.782c-1.061-.557-1.628-.924-1.628-.924-35.234 15.742-47.206-15.858-47.206-15.858z" fill="#efb29a"/></g><g fill="#bd5423"><path d="m252.849 434.686c-4.764 0-8.626-3.862-8.626-8.626v-59.635c0-4.764 3.862-8.626 8.626-8.626 4.764 0 8.626 3.862 8.626 8.626v59.635c-.001 4.764-3.863 8.626-8.626 8.626z"/><path d="m142.494 400.63c-4.764 0-8.626-3.862-8.626-8.626v-59.635c0-4.764 3.862-8.626 8.626-8.626 4.764 0 8.626 3.862 8.626 8.626v59.635c0 4.764-3.862 8.626-8.626 8.626z"/><path d="m109.263 362.187c-4.764 0-8.626-3.862-8.626-8.626v-59.635c0-4.764 3.862-8.626 8.626-8.626 4.764 0 8.626 3.862 8.626 8.626v59.635c0 4.764-3.862 8.626-8.626 8.626z"/><path d="m296.84 267.903c-4.764 0-8.626-3.862-8.626-8.626v-59.635c0-4.764 3.862-8.626 8.626-8.626 4.764 0 8.626 3.862 8.626 8.626v59.635c0 4.764-3.862 8.626-8.626 8.626z"/></g><g><path d="m487.95 91.66v272.79c-28.53 60.93-80.36 108.77-144.03 132.05v-404.84l52.78-49.56 19.23-18.06z" fill="#d9723e"/><path d="m415.93 24.04-8.7 25.39-14.48 42.23v380.78c-15.26 9.67-31.61 17.76-48.83 24.06v-404.84l52.78-49.56z" fill="#bd5423"/><path d="m487.951 91.657c-17.454 31.348-52.005 15.522-52.005 15.522-19.481 12.035-37.765 4.148-43.194 1.26-1.061-.557-1.628-.924-1.628-.924-35.234 15.742-47.206-15.858-47.206-15.858l72.011-67.622z" fill="#f9c5ac"/><path d="m415.93 24.036-23.178 67.622v16.782c-1.061-.557-1.628-.924-1.628-.924-35.234 15.742-47.206-15.858-47.206-15.858z" fill="#efb29a"/></g><path d="m24.053 237.439c-3.523 0-6.869-2.083-8.311-5.538-1.913-4.587.254-9.857 4.842-11.771l154.634-64.507c2.217-.925 4.713-.925 6.93 0l151.17 63.061 151.169-63.061c4.588-1.916 9.857.254 11.771 4.841 1.913 4.587-.254 9.857-4.842 11.771l-154.634 64.507c-2.217.925-4.713.925-6.93 0l-151.17-63.061-151.168 63.062c-1.132.472-2.307.696-3.461.696z" fill="#ff931f"/><path d="m487.947 237.439c-1.155 0-2.328-.224-3.461-.696l-151.169-63.061-151.17 63.061c-2.217.925-4.713.925-6.93 0l-154.633-64.507c-4.588-1.914-6.755-7.184-4.842-11.771 1.914-4.588 7.185-6.755 11.771-4.841l151.169 63.061 151.17-63.061c2.217-.925 4.713-.925 6.93 0l154.634 64.507c4.588 1.914 6.755 7.184 4.842 11.771-1.442 3.454-4.787 5.537-8.311 5.537z" fill="#ffbb16"/><path d="m459.54 411.28c-3.81 4.99-7.8 9.83-11.97 14.51l-36.94-15.41-23.37-9.75-53.94-22.5-53.94 22.5-23.38 9.75-73.85 30.81c-2.22.92-4.72.92-6.93 0l-73.85-30.81-23.38-9.75-44.95-18.75c-3.21-5.67-6.21-11.49-8.99-17.43-.75-1.59-1.48-3.2-2.18-4.81 1.81-.45 3.78-.34 5.64.43l73.86 30.81 23.37 9.75 53.94 22.5 53.94-22.5 23.38-9.75 73.85-30.81c2.22-.92 4.72-.92 6.93 0l73.85 30.81 23.38 9.75z" fill="#ffbb16"/><path d="m490.13 359.64c-.7 1.61-1.43 3.22-2.18 4.81-2.78 5.94-5.78 11.75-9.01 17.43l-44.93 18.75-23.38 9.75-73.85 30.81c-2.21.92-4.71.92-6.93 0l-73.85-30.81-23.38-9.75-53.94-22.5-53.94 22.5-23.37 9.75-36.96 15.42c-4.15-4.69-8.14-9.53-11.95-14.52l25.53-10.65 23.38-9.75 73.85-30.81c2.21-.92 4.71-.92 6.93 0l73.85 30.81 23.38 9.75 53.94 22.5 53.94-22.5 23.37-9.75 73.86-30.81c1.86-.77 3.83-.88 5.64-.43z" fill="#ff931f"/><path d="m232.023 195.933 41.017 17.111c4.231-4.277 6.861-10.138 6.926-16.614l-41.014-17.109c-4.232 4.275-6.862 10.136-6.929 16.612z" fill="#ff931f"/><path d="m230.717 420.928 57.497-23.985c-.708-6.248-3.189-11.956-6.932-16.611l-57.498 23.985c.709 6.248 3.191 11.956 6.933 16.611z" fill="#ffbb16"/><path d="m424.555 300.219c-4.764 0-8.626-3.862-8.626-8.626v-59.635c0-4.764 3.862-8.626 8.626-8.626 4.764 0 8.626 3.862 8.626 8.626v59.635c0 4.764-3.862 8.626-8.626 8.626z" fill="#bd5423"/><path d="m449.36 332.887c-4.764 0-8.626-3.862-8.626-8.626v-59.635c0-4.764 3.862-8.626 8.626-8.626 4.764 0 8.626 3.862 8.626 8.626v59.635c0 4.764-3.862 8.626-8.626 8.626z" fill="#bd5423"/></g></g></svg>