<svg id="Capa_1" enable-background="new 0 0 512 512" height="512" viewBox="0 0 512 512" width="512" xmlns="http://www.w3.org/2000/svg"><g><path d="m512 256c0 5-.14 9.97-.43 14.9-.25 4.46-.62 8.89-1.11 13.28-14.02 128.12-122.6 227.82-254.46 227.82-46.22 0-89.58-12.25-127.01-33.69-6.28-3.6-12.4-7.46-18.34-11.57-14.68-10.13-28.25-21.76-40.48-34.68-5.67-5.98-11.05-12.23-16.12-18.73-3.05-3.9-5.98-7.89-8.79-11.97-4.11-5.94-7.97-12.06-11.57-18.35-21.44-37.43-33.69-80.79-33.69-127.01 0-141.38 114.62-256 256-256s256 114.62 256 256z" fill="#ffbb16"/><g><path d="m429.91 157.95-301.09 301.08c-5.03 5.04-11.58 7.6-18.17 7.71-14.68-10.13-28.25-21.76-40.48-34.68-5.67-5.98-11.05-12.23-16.12-18.73-3.05-3.9-5.98-7.89-8.79-11.97.1-6.59 2.67-13.15 7.71-18.18l301.08-301.09c10.29-10.28 26.97-10.28 37.26 0l38.6 38.6c10.28 10.29 10.28 26.97 0 37.26z" fill="#d9723e"/><path d="m415.53 106.32c-10.29-10.29-26.97-10.29-37.26 0l-301.08 301.08c-6.69 6.69-9.03 16.08-7.02 24.66-5.67-5.98-11.05-12.23-16.12-18.73-3.05-3.9-5.98-7.89-8.79-11.97.1-6.59 2.67-13.15 7.71-18.18l301.08-301.09c10.29-10.29 26.97-10.29 37.26 0z" fill="#bd5423"/><g fill="#bd5423"><path d="m174.542 261.581c-4.565-4.565-5.522-11.837-1.913-17.51 4.175-6.562 12.879-8.498 19.442-4.323l92.728 58.988c6.56 4.174 8.498 12.879 4.323 19.441s-12.879 8.498-19.442 4.323l-92.728-58.988c-.889-.565-1.694-1.215-2.41-1.931z"/><path d="m128.957 307.167c-4.565-4.565-5.522-11.837-1.913-17.51 4.175-6.562 12.879-8.498 19.442-4.323l92.728 58.988c6.56 4.173 8.498 12.879 4.323 19.441s-12.879 8.498-19.442 4.323l-92.728-58.988c-.889-.566-1.694-1.215-2.41-1.931z"/><path d="m83.371 352.753c-4.565-4.565-5.522-11.837-1.913-17.51 4.175-6.562 12.879-8.498 19.442-4.323l92.728 58.988c6.56 4.173 8.498 12.879 4.323 19.441s-12.879 8.498-19.442 4.323l-92.728-58.988c-.889-.566-1.694-1.216-2.41-1.931z"/></g><path d="m328.183 353.322-169.505-169.505 51.684-82.822 99.92-68.781 169.504 169.504-46.679 104.924z" fill="#f6f1f1"/><g fill="#d0e2e7"><path d="m219.852 162.475 69.087-69.087c11.787-11.787 30.897-11.787 42.684 0l86.989 86.989c11.787 11.787 11.787 30.897 0 42.684l-69.087 69.087c-11.787 11.787-30.897 11.787-42.684 0l-86.989-86.989c-11.786-11.787-11.786-30.897 0-42.684z"/><path d="m158.678 183.817-29.781-62.958c-4.574-9.67-2.579-21.17 4.985-28.734l84.707-84.707c7.564-7.564 19.065-9.559 28.734-4.985l62.958 29.781z"/><path d="m511.57 270.9c-.25 4.46-.62 8.89-1.11 13.28-1.23 3.4-3.21 6.56-5.88 9.23l-84.7 84.71c-7.57 7.56-19.07 9.56-28.74 4.98l-62.96-29.78 151.61-151.6 29.78 62.96c.95 2.01 1.62 4.1 2 6.22z"/></g><path d="m148.72 458.58-19.73 19.73c-39.63-22.68-72.62-55.67-95.3-95.3l19.73-19.73c6-6 15.71-6 21.71 0l73.59 73.59c6 6 6 15.71 0 21.71z" fill="#f6f1f1"/><path d="m100.46 388.61c-5.99-5.99-15.7-5.99-21.7.01l-24.71 24.71c-7.48-9.58-14.29-19.71-20.36-30.32l19.73-19.73c6-6 15.72-6 21.71 0z" fill="#d0e2e7"/></g></g></svg>