<svg id="Capa_1" enable-background="new 0 0 512 512" height="512" viewBox="0 0 512 512" width="512" xmlns="http://www.w3.org/2000/svg"><g><path d="m512 256c0 130.61-97.82 238.38-224.2 254.04-10.42 1.29-21.03 1.96-31.8 1.96-3.45 0-6.88-.07-10.3-.21-7.25-.28-14.42-.87-21.5-1.75-126.38-15.66-224.2-123.43-224.2-254.04 0-133.54 102.25-243.2 232.73-254.96h.01c7.66-.69 15.42-1.04 23.26-1.04.93 0 1.87 0 2.8.02.05 0 .09-.01.14 0 6.84.07 13.63.42 20.33 1.02 130.48 11.76 232.73 121.42 232.73 254.96z" fill="#6ec17d"/><path d="m287.8 13.81v496.23c-10.42 1.29-21.03 1.96-31.8 1.96s-21.38-.67-31.8-1.96v-496.23c0-5.76 3.52-10.69 8.53-12.77 1.63-.67 3.41-1.04 5.28-1.04h35.98c1.87 0 3.65.37 5.28 1.04 5.01 2.08 8.53 7.01 8.53 12.77z" fill="#d9723e"/><path d="m259.51 0c-.19 0-.38 0-.57.02-.05-.01-.09 0-.14 0-7.3.37-13.1 6.4-13.1 13.79v497.98c-7.25-.28-14.42-.87-21.5-1.75v-496.23c0-5.76 3.52-10.69 8.53-12.77h.01c1.62-.67 3.4-1.04 5.26-1.04z" fill="#bd5423"/><path d="m224.2 86.27h63.6v21.51h-63.6z" fill="#bd5423"/><path d="m469.563 96.491h-427.126c-6.204 0-11.233-5.029-11.233-11.233v-28.358c0-6.204 5.029-11.233 11.233-11.233h427.126c6.204 0 11.233 5.029 11.233 11.233v28.358c0 6.204-5.029 11.233-11.233 11.233z" fill="#d9723e"/><path d="m480.803 63.751v21.5c0 6.21-5.03 11.24-11.24 11.24h-427.12c-6.21 0-11.24-5.03-11.24-11.24v-21.5c0 6.21 5.03 11.23 11.24 11.23h427.12c6.21 0 11.24-5.02 11.24-11.23z" fill="#bd5423"/><path d="m399.858 440.861-116.388-62.475c-17.156-9.209-37.785-9.209-54.941 0l-116.388 62.475c-24.535 13.17-54.248-4.603-54.248-32.45v-362.744h396.212v362.743c.001 27.847-29.711 45.621-54.247 32.451z" fill="#f6f1f1"/><g><path d="m399.399 79.67c11.438 0 20.71 9.272 20.71 20.71v308.03c0 2.67-2.84 2.88-2.87 2.88-.25 0-.65-.04-1.3-.39l-116.39-62.47c-13.34-7.17-28.4-10.95-43.55-10.95s-30.21 3.78-43.55 10.95l-116.389 62.47c-.65.35-1.06.39-1.31.39-.69 0-1.51-.36-2.09-.91-.55-.53-.77-1.08-.77-1.97v-308.03c0-11.438 9.272-20.71 20.71-20.71z" fill="#80b4fb"/><g fill="#ffbb16"><path d="m256 229.46v108.02c-15.15 0-30.21 3.78-43.55 10.95l-116.39 62.47c-.65.35-1.06.39-1.31.39-.69 0-1.51-.36-2.09-.91-.55-.53-.77-1.08-.77-1.97v-178.95z"/><path d="m420.11 100.38v129.08h-164.11v-149.79h143.399c11.438 0 20.711 9.272 20.711 20.71z"/></g></g></g></svg>