<svg id="Capa_1" enable-background="new 0 0 512 512" height="512" viewBox="0 0 512 512" width="512" xmlns="http://www.w3.org/2000/svg"><g><path d="m512 256c0 136.24-106.44 247.63-240.69 255.55-5.06.3-10.17.45-15.31.45-.76 0-1.52 0-2.27-.02-4.2-.03-8.37-.16-12.51-.4-134.5-7.66-241.22-119.16-241.22-255.58 0-141.38 114.62-256 256-256s256 114.62 256 256z" fill="#80b4fb"/><g><path d="m472.33 337.62s-7.29 14.23-23.41 34.38c-22.01 27.51-60.47 66.03-119.29 94.38-15.06 7.27-28.93 16.62-41.28 27.66-6.06 5.44-11.77 11.29-17.04 17.51-5.06.3-10.17.45-15.31.45-4.96 0-9.89-.14-14.78-.42-16.06-18.94-35.91-34.45-58.42-45.33-69.99-33.83-111.11-82.04-129.94-108.81-8.09-11.5-12.07-19.03-12.44-19.77 0-.01-.02-.04-.03-.05l27.95-27.95s10.27 13.26 25.57 28.08c14.64 14.22 33.92 29.88 53.2 36.72 7.97 2.82 15.93 4.15 23.56 3.99 28.42-.6 52.3-21.6 54.94-61.38v-153.51h61.24v146.1c0 55.91 39.39 78.78 78.76 64.8 18.2-6.45 36.4-20.78 50.71-34.33 16.66-15.75 28.06-30.47 28.06-30.47z" fill="#f6f1f1"/><path d="m253.73 511.98c-4.2-.03-8.37-.16-12.51-.4-16.06-18.94-35.91-34.45-58.42-45.33-99.31-48-140.48-124.94-142.34-128.51 51.51 77.62 192.92 94.77 213.27 174.24z" fill="#d0e2e7"/><path d="m256.23 0c-47.275 0-85.595 38.332-85.595 85.608 0 47.275 38.319 85.595 85.595 85.595s85.595-38.319 85.595-85.595-38.32-85.608-85.595-85.608zm0 129.269c-24.125 0-43.675-19.55-43.675-43.662 0-24.125 19.55-43.675 43.675-43.675 24.112 0 43.675 19.549 43.675 43.675 0 24.113-19.563 43.662-43.675 43.662z" fill="#f6f1f1"/><g fill="#d0e2e7"><path d="m264.324 128.508c2.625.493 5.329.761 8.097.761 24.112 0 43.675-19.55 43.675-43.662 0-24.125-19.563-43.675-43.675-43.675-2.768 0-5.472.269-8.097.761 20.246 3.797 35.581 21.556 35.581 42.913 0 21.347-15.335 39.105-35.581 42.902z"/><path d="m186.827 85.608c0-44.543 34.023-81.134 77.499-85.215-2.666-.251-5.364-.393-8.096-.393-47.275 0-85.595 38.332-85.595 85.608 0 47.275 38.319 85.595 85.595 85.595 2.732 0 5.43-.142 8.096-.392-43.476-4.081-77.499-40.66-77.499-85.203z"/></g><path d="m170.674 378.462c28.415-.598 52.293-21.603 54.931-61.379v-114.139l6.616-11.062 10.165 41.569c.001 83.62 5.031 170.865-71.712 145.011z" fill="#d0e2e7"/><path d="m347.425 163.577h-182.397c-14.534 0-26.317 11.782-26.317 26.317v36.297c0 14.534 11.782 26.317 26.317 26.317h182.396c14.534 0 26.317-11.782 26.317-26.317v-36.297c.001-14.535-11.782-26.317-26.316-26.317z" fill="#d9723e"/><path d="m225.61 236.72h61.24v34.3h-61.24z" fill="#d0e2e7"/><path d="m373.747 191.882v34.303c0 14.545-11.79 26.322-26.322 26.322h-182.394c-14.532 0-26.322-11.777-26.322-26.322v-34.303c0 14.532 11.79 26.322 26.322 26.322h182.394c14.532 0 26.322-11.79 26.322-26.322z" fill="#bd5423"/><g><path d="m472.329 337.621s-7.292 14.233-23.41 34.381l-15.117-29.233-17.483-2.626c16.664-15.754 28.064-30.468 28.064-30.468z" fill="#d0e2e7"/></g><g fill="#f6f1f1"><path d="m120.371 326.04-50.824 7.63-29.22 56.53c-52.085-84.477-12.699-164.521-12.699-164.521 21.589 72.414 92.743 100.361 92.743 100.361z"/><path d="m472.121 390.2-29.22-56.53-50.811-7.63s71.14-27.947 92.744-100.361c0 0 39.385 80.044-12.713 164.521z"/></g><g fill="#d0e2e7"><path d="m69.547 333.67-29.22 56.53c-52.085-84.477-12.699-164.521-12.699-164.521s-14.651 77.769 41.919 107.991z"/><path d="m442.901 333.67-50.811-7.63s71.14-27.947 92.744-100.361c0 0 4.835 61.222-41.933 107.991z"/></g></g></g></svg>