<svg id="Capa_1" enable-background="new 0 0 512 512" height="512" viewBox="0 0 512 512" width="512" xmlns="http://www.w3.org/2000/svg"><g><circle cx="256" cy="256" fill="#78727c" r="256"/><circle cx="256" cy="256" fill="#d9723e" r="256"/><circle cx="256" cy="256" fill="#bd5423" r="191.207"/><path d="m420.9 256c0 78.57-54.96 144.31-128.53 160.88-11.7 2.63-23.87 4.02-36.37 4.02s-24.67-1.39-36.37-4.02c-73.57-16.57-128.53-82.31-128.53-160.88s54.96-144.31 128.53-160.88c11.7-2.63 23.87-4.02 36.37-4.02s24.67 1.39 36.37 4.02c73.57 16.57 128.53 82.31 128.53 160.88z" fill="#a0380e"/><path d="m292.37 95.12v321.76c-11.7 2.63-23.87 4.02-36.37 4.02s-24.67-1.39-36.37-4.02v-321.76c11.7-2.63 23.87-4.02 36.37-4.02s24.67 1.39 36.37 4.02z" fill="#d9723e"/><path d="m416.88 292.37h-321.76c-2.63-11.7-4.02-23.87-4.02-36.37s1.39-24.67 4.02-36.37h321.76c2.63 11.7 4.02 23.87 4.02 36.37s-1.39 24.67-4.02 36.37z" fill="#d9723e"/><circle cx="256" cy="256" fill="#f6f1f1" r="63.023"/><path d="m273.317 316.61c-5.5 1.57-11.31 2.41-17.32 2.41-34.8 0-63.02-28.21-63.02-63.02s28.22-63.02 63.02-63.02c6.01 0 11.82.84 17.32 2.41-26.38 7.52-45.7 31.81-45.7 60.61s19.32 53.09 45.7 60.61z" fill="#d0e2e7"/><g fill="#f6f1f1"><circle cx="256" cy="144.805" r="20.343"/><circle cx="256" cy="367.195" r="20.343"/></g><g fill="#f6f1f1"><circle cx="367.195" cy="256" r="20.343"/><circle cx="144.805" cy="256" r="20.343"/></g><g fill="#d0e2e7"><g><circle cx="256" cy="33.939" r="20.343"/><circle cx="256" cy="478.061" r="20.343"/></g><g><circle cx="367.031" cy="63.689" r="20.343"/><circle cx="144.969" cy="448.311" r="20.343"/></g><g><circle cx="448.311" cy="144.969" r="20.343"/><circle cx="63.689" cy="367.031" r="20.343"/></g><g><circle cx="478.061" cy="256" r="20.343"/><circle cx="33.939" cy="256" r="20.343"/></g><g><circle cx="448.311" cy="367.031" r="20.343"/><circle cx="63.689" cy="144.969" r="20.343"/></g><g><circle cx="367.031" cy="448.311" r="20.343"/><circle cx="144.969" cy="63.689" r="20.343"/></g></g></g></svg>