<svg id="Capa_1" enable-background="new 0 0 512 512" height="512" viewBox="0 0 512 512" width="512" xmlns="http://www.w3.org/2000/svg"><g><path d="m512 256c0 141.38-114.62 256-256 256-17.98 0-35.53-1.85-52.46-5.38-15.02-3.13-29.56-7.57-43.48-13.22-8.14-3.28-16.07-6.99-23.77-11.07h-.01c-81.06-42.96-136.28-128.2-136.28-226.33 0-141.38 114.62-256 256-256 102.42 0 190.81 60.16 231.72 147.07l.01.02c0 .01.01.02.02.03 8.28 17.57 14.61 36.24 18.72 55.73 3.63 17.15 5.53 34.93 5.53 53.15z" fill="#6ec17d"/><g><path d="m506.47 202.85c-1.14 1.69-2.45 3.29-3.95 4.79l-117.33 117.32-140.2 140.21-41.45 41.45c-23.8-4.96-46.39-13.22-67.26-24.29l56.32-56.32c4.32-4.32 7.33-9.77 8.68-15.73l14.41-63.56c1.35-5.96 4.36-11.42 8.68-15.74l200.74-200.74c12.64-12.64 33.13-12.64 45.77 0l16.85 16.85 14.79 14.78c11.14 11.14 12.46 28.39 3.95 40.98z" fill="#d9723e"/><path d="m488.31 147.66c-.19-.19-.37-.37-.56-.54-12.68-12.1-32.76-11.91-45.21.54l-200.75 200.75c-4.32 4.32-7.33 9.77-8.68 15.73l-14.4 63.56c-1.35 5.96-4.36 11.41-8.68 15.73l-49.97 49.97c-8.14-3.28-16.07-6.99-23.77-11.07l56.32-56.32c4.31-4.32 7.32-9.77 8.67-15.73l14.41-63.56c1.35-5.96 4.36-11.42 8.68-15.74l200.75-200.74c12.64-12.64 33.13-12.64 45.77 0l16.83 16.83.01.02z" fill="#bd5423"/><path d="m486.815 267.574-72.506 72.506c-9.815 9.815-26.448 6.816-32.142-5.843-23.034-51.207-89.58-150.489-245.706-94.542-17.591 6.303-33.773-12.246-25.247-28.873 36.18-70.551 114.263-193.047 227.022-210.57 12.594-1.957 23.822 7.91 23.762 20.654-.158 33.872 16.451 105.937 125.054 218.812 7.516 7.812 7.428 20.191-.237 27.856z" fill="#d0e2e7"/><path d="m136.62 239.639c7.657-2.739 15.097-5.105 22.327-7.121 37.611-68.596 107.544-168.412 204.806-191.004-1.32-8.006-1.779-14.888-1.751-20.659.063-12.715-11.137-22.556-23.702-20.609-112.787 17.483-190.894 140.009-227.083 210.573-8.565 16.7 7.732 35.142 25.403 28.82z" fill="#f6f1f1"/></g></g></svg>