<svg id="Capa_1" enable-background="new 0 0 512 512" height="512" viewBox="0 0 512 512" width="512" xmlns="http://www.w3.org/2000/svg"><g><path d="m512 256c0 34.42-6.79 67.25-19.11 97.22-17.98 43.77-47.75 81.46-85.34 109.12-2.21 1.63-4.45 3.22-6.72 4.78-14.65 10.07-30.4 18.65-47.04 25.53-2.22.92-4.46 1.81-6.72 2.66-8.87 3.39-17.97 6.29-27.28 8.68-2.23.57-4.47 1.11-6.72 1.62-18.35 4.18-37.46 6.39-57.07 6.39-17.23 0-34.07-1.7-50.35-4.95-2.25-.45-4.49-.93-6.72-1.45-9.3-2.1-18.4-4.72-27.28-7.83-2.25-.79-4.49-1.6-6.72-2.45-16.57-6.31-32.32-14.29-47.04-23.73-2.26-1.45-4.5-2.94-6.72-4.48-40.77-28.02-73.02-67.55-92.06-113.89-12.32-29.98-19.11-62.81-19.11-97.22 0-141.38 114.62-256 256-256s256 114.62 256 256z" fill="#b1e4f9"/><path d="m492.89 181.21v172.01c-17.98 43.77-47.75 81.46-85.34 109.12-16.52 12.15-34.55 22.37-53.76 30.31-10.97 4.54-22.33 8.34-34 11.34-20.39 5.23-41.77 8.01-63.79 8.01-17.23 0-34.07-1.7-50.35-4.95-11.64-2.32-22.99-5.43-34-9.28-19.05-6.64-37.07-15.47-53.76-26.18-43.95-28.22-78.71-69.51-98.78-118.37v-172.01z" fill="#bd5423"/><path d="m19.114 181.214h473.773v56.615h-473.773z" fill="#a0380e"/><path d="m448.357 45.012h-384.714c-16.774 0-31.464 11.246-35.842 27.438l-26.493 97.981c-6.381 23.601 11.394 46.821 35.842 46.821h437.7c24.449 0 42.224-23.22 35.842-46.821l-26.492-97.981c-4.378-16.192-19.069-27.438-35.843-27.438z" fill="#434d51"/><g fill="#2f373b"><path d="m444.847 87.451h-377.694c-4.861 0-8.801-3.94-8.801-8.801 0-4.861 3.94-8.801 8.801-8.801h377.693c4.861 0 8.801 3.94 8.801 8.801.001 4.861-3.94 8.801-8.8 8.801z"/><path d="m456.585 128.197h-401.17c-4.861 0-8.801-3.94-8.801-8.801 0-4.861 3.94-8.801 8.801-8.801h401.17c4.861 0 8.801 3.94 8.801 8.801 0 4.861-3.94 8.801-8.801 8.801z"/><path d="m469.248 171.062h-426.496c-4.861 0-8.801-3.94-8.801-8.801 0-4.861 3.94-8.801 8.801-8.801h426.497c4.861 0 8.801 3.94 8.801 8.801 0 4.861-3.941 8.801-8.802 8.801z"/></g><path d="m400.83 186.1v281.02c-14.65 10.07-30.4 18.65-47.04 25.53-2.22.92-4.46 1.81-6.72 2.66-8.87 3.39-17.97 6.29-27.28 8.68-2.23.57-4.47 1.11-6.72 1.62-18.35 4.18-37.46 6.39-57.07 6.39-17.23 0-34.07-1.7-50.35-4.95-2.25-.45-4.49-.93-6.72-1.45-9.3-2.1-18.4-4.72-27.28-7.83-2.25-.79-4.49-1.6-6.72-2.45-16.57-6.31-32.32-14.29-47.04-23.73-2.26-1.45-4.5-2.94-6.72-4.48v-281.01l134.96-129.01z" fill="#d9723e"/><path d="m400.83 186.1v69.16c-.08-.07-.16-.15-.23-.22l-144.6-144.6-144.6 144.6c-.07.07-.15.15-.23.22v-69.16l134.96-129.01z" fill="#bd5423"/><g><path d="m304.586 17.352-12.669-12.669c-5.915-5.915-15.391-6.271-21.733-.816l-207.7 178.663c-7.053 6.067-7.457 16.85-.879 23.428l27.188 27.188c6.244 6.244 16.368 6.244 22.612 0l193.181-193.182c6.244-6.244 6.244-16.368 0-22.612z" fill="#181e21"/><path d="m207.414 17.352 12.669-12.669c5.915-5.915 15.391-6.271 21.733-.816l207.7 178.663c7.052 6.067 7.457 16.85.879 23.428l-27.188 27.188c-6.244 6.244-16.368 6.244-22.612 0l-193.181-193.182c-6.244-6.244-6.244-16.368 0-22.612z" fill="#2f373b"/></g><path d="m347.07 316.72v178.59c-8.87 3.39-17.97 6.29-27.28 8.68-2.23.57-4.47 1.11-6.72 1.62-18.35 4.18-37.46 6.39-57.07 6.39-17.23 0-34.07-1.7-50.35-4.95-2.25-.45-4.49-.93-6.72-1.45-9.3-2.1-18.4-4.72-27.28-7.83-2.25-.79-4.49-1.6-6.72-2.45v-178.6c0-20.44 16.57-37 37.01-37h108.12c20.44 0 37.01 16.56 37.01 37z" fill="#bd5423"/><path d="m313.07 316.72v188.89c-18.35 4.18-37.46 6.39-57.07 6.39-17.23 0-34.07-1.7-50.35-4.95-2.25-.45-4.49-.93-6.72-1.45v-188.88c0-1.66 1.35-3 3.01-3h108.12c1.66 0 3.01 1.34 3.01 3z" fill="#2f373b"/><circle cx="256" cy="51.44" fill="#d9723e" r="17.81"/><g><path d="m274.157 178.506 3.64 49.98h-43.595l3.64-49.98c6.208.584 12.332 2.097 18.157 4.519 5.823-2.426 11.946-3.936 18.158-4.519z" fill="#bd5423"/><g fill="#a0380e"><path d="m288.069 175.906c.643 4.105-2.829 7.692-6.95 7.163-2.067-.265-4.042-.467-5.269-.467-1.613 0-3.227.076-4.834.227-1.697.16-3.387.401-5.059.73-3.398.659-6.734 1.664-9.957 3.008-3.451-1.437-7.031-2.486-10.673-3.14-1.439-.261-2.887-.46-4.343-.598-2.775-.261-5.569-.297-8.358-.107-.418.029-.991.096-1.655.186-4.144.568-7.665-3.021-7.018-7.153l2.276-14.54c.522-3.335 3.395-5.793 6.77-5.793h46c3.376 0 6.248 2.458 6.77 5.793l.342 2.189z"/><path d="m299.909 230.61v17.373c0 3.37-2.595 6.172-5.956 6.426-12.284.927-24.213 4.71-34.82 11.08l-3.133 1.881-2.668-1.605-.466-.278c-4.318-2.592-8.855-4.756-13.546-6.473-3.628-1.33-7.351-2.393-11.133-3.176-3.319-.69-6.683-1.167-10.075-1.428-.02-.002-.04-.003-.06-.005-3.352-.251-5.961-3.007-5.961-6.368v-17.427c0-3.561 2.886-6.447 6.447-6.447h74.925c3.56 0 6.446 2.886 6.446 6.447z"/></g></g></g></svg>