<svg id="Capa_1" enable-background="new 0 0 512 512" height="512" viewBox="0 0 512 512" width="512" xmlns="http://www.w3.org/2000/svg"><g><path d="m512 256c0 62.39-22.33 119.57-59.42 163.99-10.59 12.68-22.38 24.32-35.2 34.74-44.04 35.81-100.2 57.27-161.38 57.27-61.19 0-117.37-21.47-161.41-57.29-12.81-10.42-24.59-22.05-35.17-34.72-37.09-44.42-59.42-101.6-59.42-163.99 0-141.38 114.62-256 256-256s256 114.62 256 256z" fill="#e84d59"/><g><path d="m353.58 337.92h-195.16l13.66-187.68 2.63-36.08c3.41.32 6.82.71 10.22 1.16 24.29 3.18 48.19 9.56 71.07 19.08 26.06-10.86 53.48-17.62 81.29-20.24l2.63 36.08z" fill="#d0e2e7"/><path d="m198.22 136.19-10.21 201.73h-29.59l13.66-187.68 2.63-36.08c3.41.32 6.82.71 10.22 1.16z" fill="#b4d0d5"/><path d="m339.92 150.24c-5.57.12-11.14.45-16.69.97-7.6.71-15.17 1.79-22.65 3.26-15.21 2.95-30.15 7.45-44.58 13.47-15.45-6.43-31.48-11.13-47.78-14.06-6.44-1.17-12.93-2.06-19.45-2.67-5.55-.52-11.11-.85-16.69-.97l2.63-36.08c27.8 2.62 55.21 9.39 81.29 20.24 26.06-10.86 53.48-17.62 81.29-20.24z" fill="#b4d0d5"/><path d="m399.571 102.527c2.879 18.377-12.665 34.435-31.114 32.066-9.252-1.188-18.094-2.092-23.589-2.092-7.222 0-14.445.339-21.642 1.017-7.599.716-15.161 1.796-22.647 3.266-15.211 2.952-30.146 7.448-44.578 13.465-15.45-6.431-31.477-11.129-47.781-14.055-6.444-1.168-12.925-2.06-19.444-2.676-12.423-1.168-24.933-1.331-37.419-.477-1.869.129-4.439.428-7.409.835-18.551 2.542-34.314-13.523-31.419-32.022l10.188-65.096c2.337-14.929 15.197-25.933 30.308-25.933h205.937c15.112 0 27.973 11.006 30.308 25.936l1.533 9.799z" fill="#f6f1f1"/><path d="m139.898 101.854c-2.19 14.01 6.32 26.63 18.64 30.82-2.39.08-4.79.21-7.18.37-1.87.13-4.44.43-7.41.84-18.55 2.54-34.31-13.53-31.42-32.03l10.19-65.09c2.34-14.93 15.2-25.94 30.31-25.94h27.37c-15.11 0-27.97 11.01-30.31 25.94z" fill="#d0e2e7"/><path d="m452.58 347.43v72.56c-10.59 12.68-22.38 24.32-35.2 34.74-51.98 5.18-102.32 21.8-147.35 48.84l-14.03 8.43-11.95-7.18-2.08-1.25c-19.33-11.6-39.64-21.29-60.64-28.98-16.24-5.95-32.91-10.71-49.85-14.21-12.17-2.53-24.48-4.43-36.89-5.67-12.81-10.42-24.59-22.05-35.17-34.72v-72.56c0-15.94 12.93-28.87 28.87-28.87h335.42c15.94 0 28.87 12.93 28.87 28.87z" fill="#f6f1f1"/><path d="m110.8 318.56c-15.94 0-28.87 12.93-28.87 28.87v96.27c-8-7.41-15.52-15.33-22.51-23.71v-72.56c0-15.94 12.93-28.87 28.87-28.87z" fill="#d0e2e7"/><g fill="#f6f1f1"><path d="m233.578 292.645c-8.473.001-16.941-3.221-23.389-9.665-11.26-11.27-11.259-29.588-.003-40.839 4.696-4.698 12.311-4.694 17.007.002 4.696 4.697 4.696 12.312-.002 17.007-1.879 1.879-1.877 4.94.005 6.824 3.426 3.423 8.957 3.509 12.496.261 1.546-2.811 2.876-12.699 3.855-19.966 3.064-22.757 7.261-53.923 30.788-68.345 5.665-3.469 13.067-1.694 16.539 3.969 3.47 5.662 1.694 13.066-3.968 16.538-13.786 8.449-16.966 32.069-19.522 51.048-2.007 14.906-3.594 26.679-10.407 33.496-6.451 6.446-14.927 9.669-23.399 9.67z"/><path d="m278.409 292.644c-8.471 0-16.94-3.221-23.388-9.664-6.819-6.823-8.406-18.597-10.413-33.503-2.555-18.979-5.736-42.599-19.522-51.048-5.662-3.472-7.438-10.876-3.968-16.538 3.472-5.663 10.875-7.438 16.539-3.969 23.527 14.422 27.724 45.588 30.788 68.345.979 7.268 2.31 17.158 3.855 19.967 3.534 3.249 9.068 3.163 12.503-.269 1.874-1.876 1.876-4.937-.003-6.816-4.698-4.695-4.698-12.31-.002-17.007 4.693-4.697 12.308-4.699 17.007-.002 11.255 11.252 11.257 29.569.005 40.832-6.452 6.449-14.928 9.672-23.401 9.672z"/></g><g fill="#d0e2e7"><path d="m418.941 371.478c-8.401-8.401-19.57-13.027-31.45-13.027-11.661 0-22.639 4.459-30.985 12.57l-3.551 2.9c-1.428-1.92-3.007-3.763-4.748-5.504-16.421-16.42-43.141-16.42-59.562.001-6.818 6.819-10.573 15.883-10.573 25.526s3.755 18.707 10.574 25.526c4.693 4.694 12.308 4.697 17.007-.001 4.696-4.697 4.696-12.311-.002-17.008-2.275-2.275-3.528-5.3-3.528-8.518s1.253-6.243 3.528-8.518c7.045-7.044 18.507-7.044 25.549-.001 9.978 9.977 9.978 26.211 0 36.188-13.642 13.643-35.843 13.643-49.485 0-8.822-8.822-13.684-20.548-13.693-33.023 0-.011.001-.021.001-.032s-.001-.022-.001-.032c.009-12.474 4.871-24.201 13.691-33.023 4.698-4.696 4.698-12.31.002-17.007s-12.311-4.697-17.007 0c-3.272 3.272-6.179 6.811-8.712 10.563-2.533-3.752-5.44-7.291-8.712-10.563-4.694-4.698-12.309-4.696-17.007 0-4.696 4.697-4.696 12.311.002 17.007 8.821 8.822 13.683 20.548 13.691 33.023 0 .011-.001.021-.001.032s.001.022.001.032c-.009 12.474-4.871 24.2-13.693 33.023-13.642 13.643-35.843 13.643-49.485 0-9.978-9.977-9.978-26.211-.002-36.187 7.043-7.044 18.505-7.044 25.549-.001 2.277 2.276 3.529 5.301 3.529 8.519s-1.253 6.242-3.528 8.518c-4.698 4.697-4.698 12.311-.002 17.008 4.696 4.694 12.311 4.697 17.007.001 6.819-6.819 10.574-15.883 10.574-25.526s-3.755-18.707-10.574-25.527c-16.421-16.42-43.141-16.42-59.562.001-1.741 1.741-3.319 3.583-4.747 5.503l-3.551-2.899c-8.346-8.111-19.324-12.57-30.985-12.57-11.88 0-23.05 4.626-31.449 13.026-7.176 7.175-11.127 16.714-11.127 26.861s3.951 19.686 11.125 26.86c6.195 6.194 14.429 9.605 23.189 9.605s16.996-3.41 23.189-9.604c4.698-4.696 4.698-12.311.002-17.008-4.696-4.694-12.311-4.697-17.007-.001-1.652 1.652-3.847 2.561-6.184 2.561-2.335 0-4.53-.909-6.182-2.561-2.632-2.631-4.081-6.13-4.081-9.852s1.448-7.221 4.082-9.853c3.857-3.858 8.987-5.982 14.442-5.982s10.585 2.125 14.444 5.982c.285.286.584.556.896.811l9.827 8.025c-1.833 14.689 2.864 30.044 14.117 41.298 11.152 11.152 25.979 17.293 41.751 17.293s30.599-6.141 41.751-17.293c3.271-3.272 6.177-6.811 8.71-10.562 2.533 3.751 5.439 7.29 8.71 10.562 11.511 11.511 26.631 17.266 41.751 17.266s30.24-5.755 41.751-17.266c11.253-11.254 15.95-26.609 14.117-41.297l9.827-8.025c.312-.255.611-.525.896-.811 3.858-3.858 8.988-5.982 14.444-5.982s10.585 2.124 14.444 5.983c2.632 2.631 4.081 6.13 4.081 9.852s-1.448 7.221-4.082 9.853c-1.65 1.651-3.846 2.56-6.18 2.56-2.336 0-4.532-.909-6.184-2.561-4.694-4.696-12.309-4.695-17.007.001-4.696 4.697-4.696 12.312.002 17.008 6.193 6.194 14.429 9.604 23.189 9.604s16.994-3.411 23.187-9.604c7.176-7.175 11.127-16.714 11.127-26.861s-3.952-19.688-11.127-26.862z"/><path d="m173.419 72.363 15.081-12.315c.312-.255.611-.525.896-.81 7.967-7.964 20.923-7.964 28.887 0 2.632 2.631 4.081 6.13 4.081 9.852s-1.448 7.221-4.082 9.854c-1.65 1.651-3.846 2.56-6.18 2.56-2.336 0-4.532-.91-6.182-2.561-4.698-4.696-12.311-4.696-17.008 0-4.696 4.696-4.696 12.311 0 17.007 6.195 6.195 14.431 9.606 23.19 9.606s16.996-3.412 23.187-9.605c7.176-7.175 11.127-16.714 11.127-26.861s-3.951-19.686-11.125-26.86c-17.189-17.188-45.058-17.341-62.436-.458l-14.649 11.962c-5.144 4.201-5.908 11.777-1.707 16.922 4.198 5.141 11.773 5.909 16.92 1.707z"/><path d="m299.891 105.556c8.759 0 16.996-3.411 23.19-9.606 4.696-4.696 4.696-12.311 0-17.007-4.698-4.696-12.311-4.696-17.008 0-1.65 1.651-3.846 2.561-6.182 2.561-2.335 0-4.53-.909-6.182-2.562-2.632-2.631-4.081-6.13-4.081-9.852s1.448-7.221 4.082-9.853c7.959-7.962 20.92-7.965 28.886.001.285.285.584.555.896.81l15.081 12.316c5.147 4.203 12.721 3.435 16.921-1.708 4.201-5.145 3.437-12.72-1.707-16.922l-14.649-11.962c-17.381-16.883-45.249-16.727-62.434.457-7.176 7.175-11.127 16.714-11.127 26.861s3.951 19.686 11.125 26.859c6.193 6.195 14.43 9.607 23.189 9.607z"/></g></g></g></svg>