<svg id="Capa_1" enable-background="new 0 0 512 512" height="512" viewBox="0 0 512 512" width="512" xmlns="http://www.w3.org/2000/svg"><g><circle cx="256" cy="256" fill="#ffbb16" r="256"/><path d="m179.08 418.03-56.5 56.49c-4.25-2.6-8.43-5.33-12.51-8.16l-12.77-32.31 49.42-65.48 27.98-11.92z" fill="#6ec17d"/><path d="m7.215 253.372h438.696v42.592h-438.696z" fill="#d9723e" transform="matrix(.707 -.707 .707 .707 -127.861 240.653)"/><path d="m-.314 256.491h438.696v21.296h-438.696z" fill="#bd5423" transform="matrix(.707 -.707 .707 .707 -124.742 233.124)"/><path d="m465.333 35.903c3.451 3.451 4.961 8.859 2.45 14.159l-52.323 110.376c-4.568 9.637-18.18 9.938-23.165.501l-17.972-34.027-34.034-17.98c-9.429-4.976-9.129-18.589.508-23.157l110.377-52.323c5.292-2.518 10.7-1.008 14.159 2.451z" fill="#f6f1f1"/><path d="m465.333 35.903-91.01 91.01-34.034-17.98c-9.429-4.976-9.129-18.589.508-23.157l110.377-52.323c5.292-2.519 10.7-1.009 14.159 2.45z" fill="#d0e2e7"/><path d="m144.58 326.53-77.39 77.4-27.42-10.84c-3.59-5.65-6.97-11.45-10.11-17.39l53.54-53.54z" fill="#57988b"/><path d="m332.92 418.03 56.5 56.49c4.25-2.6 8.43-5.33 12.51-8.16l12.77-32.31-49.42-65.48-27.98-11.92z" fill="#c9394a"/><path d="m66.088 253.372h438.696v42.592h-438.696z" fill="#bd5423" transform="matrix(-.707 -.707 .707 -.707 293.051 670.722)"/><path d="m73.617 256.491h438.696v21.296h-438.696z" fill="#d9723e" transform="matrix(-.707 -.707 .707 -.707 311.228 663.193)"/><path d="m46.667 35.903c-3.451 3.451-4.961 8.859-2.45 14.159l52.323 110.376c4.568 9.637 18.18 9.938 23.165.501l17.972-34.027 34.034-17.98c9.429-4.976 9.129-18.589-.508-23.157l-110.377-52.322c-5.292-2.519-10.7-1.009-14.159 2.45z" fill="#d0e2e7"/><path d="m46.667 35.903 91.01 91.01 34.034-17.98c9.429-4.976 9.129-18.589-.508-23.157l-110.377-52.323c-5.292-2.519-10.7-1.009-14.159 2.45z" fill="#f6f1f1"/><path d="m367.42 326.53 77.39 77.4 27.42-10.84c3.59-5.65 6.97-11.45 10.11-17.39l-53.54-53.54z" fill="#e84d59"/></g></svg>