<svg id="Capa_1" enable-background="new 0 0 512 512" height="512" viewBox="0 0 512 512" width="512" xmlns="http://www.w3.org/2000/svg"><g><path d="m512 256c0 54.12-16.8 104.32-45.46 145.67-6.37 9.19-13.32 17.94-20.81 26.2-5.86 6.47-12.05 12.63-18.55 18.47-7.78 7.02-16 13.55-24.61 19.56-2.17 1.53-4.36 3.01-6.57 4.46-5.85 3.82-11.86 7.42-18.03 10.76-2.3 1.25-4.61 2.46-6.95 3.64-34.57 17.43-73.66 27.24-115.02 27.24-4.92 0-9.8-.14-14.65-.41-32.17-1.81-62.75-9.57-90.66-22.21-9.05-4.07-17.82-8.67-26.27-13.76-5.85-3.49-11.54-7.23-17.07-11.18-64.99-46.43-107.35-122.49-107.35-208.44 0-141.38 114.62-256 256-256s256 114.62 256 256z" fill="#80b4fb"/><g><path d="m460.585 95.026c0 14.498-11.749 26.247-26.247 26.247h-251.044c-14.498 0-26.257-11.749-26.257-26.247 0-14.116 11.138-25.625 25.101-26.225-2.422-4.92-3.796-10.451-3.796-16.309 0-20.367 16.505-36.872 36.872-36.872 10.745 0 20.399 4.593 27.141 11.912 3.36-10.636 13.298-18.349 25.036-18.349 4.996 0 9.665 1.396 13.636 3.818 6.316-7.56 15.643-12.491 26.126-12.97.055.011.098 0 .142 0 .501-.02 1.003-.031 1.516-.031 11.171 0 21.152 5.051 27.785 13.003 3.971-2.422 8.64-3.818 13.636-3.818 11.749 0 21.687 7.713 25.036 18.349 6.742-7.32 16.407-11.912 27.141-11.912 20.367 0 36.883 16.505 36.883 36.872 0 5.858-1.374 11.389-3.807 16.309 13.962.599 25.1 12.107 25.1 26.223z" fill="#f6f1f1"/><path d="m293.56 46.068s-26.203-4.276-34.734 14.563c-8.531 18.85 8.858 32.356 22.549 32.356 0 0-27.959 1.287-25.45 28.286h-72.631c-14.498 0-26.257-11.749-26.257-26.247 0-14.116 11.138-25.625 25.101-26.225-2.422-4.92-3.796-10.451-3.796-16.309 0-20.367 16.505-36.872 36.872-36.872 10.745 0 20.399 4.593 27.141 11.912 3.36-10.636 13.298-18.349 25.036-18.349 4.996 0 9.665 1.396 13.636 3.818 6.316-7.56 15.643-12.491 26.126-12.97-27.719 1.398-27.632 37.67-13.593 46.037z" fill="#d0e2e7"/><path d="m126.922 198.823c-36.317 0-65.85 29.543-65.85 65.85v78.876c0 33.871 25.696 61.857 58.637 65.453 2.363.261 4.777.397 7.213.397h83.141l8.499-210.576zm54.225 171.802h-54.225c-1.202 0-2.383-.084-3.544-.24-13.266-1.735-23.532-13.109-23.532-26.835v-78.876c0-14.928 12.148-27.076 27.076-27.076h54.225z" fill="#ffbb16"/><path d="m77.775 343.55v-78.876c0-36.307 29.543-65.85 65.861-65.85h-16.716c-36.307 0-65.85 29.543-65.85 65.85v78.876c0 36.307 29.543 65.85 65.85 65.85h16.716c-36.318 0-65.861-29.543-65.861-65.85z" fill="#ff931f"/><path d="m466.54 401.67c-6.37 9.19-13.32 17.94-20.81 26.2-14.67 16.18-31.38 30.48-49.73 42.49h-260.58l25.95-267.71 3.09-38.21h279.71l3.08 38.21z" fill="#d9723e"/><path d="m447.249 202.649h-285.876l3.083-38.213h279.71z" fill="#bd5423"/><path d="m293.557 148.702h21.508v321.661h-21.508z" fill="#a0380e"/><path d="m218.563 198.823-8.499 210.576h-83.141c-2.436 0-4.851-.136-7.213-.397l3.669-38.617c1.16.157 2.342.24 3.544.24h54.225v-133.028h-45.172l3.68-38.774z" fill="#ff931f"/><path d="m244.866 164.436-12.341 305.927h-97.105l29.036-305.927z" fill="#bd5423"/><path d="m408.66 153.68h-208.7l-20.72 327.44h198.73c6.17-3.34 12.18-6.94 18.03-10.76 11.02-7.21 21.44-15.24 31.18-24.02zm-206.71 305.93 18.38-284.42h167.96l18.39 284.42z" fill="#a0380e"/><path d="m445.73 427.87c-46.84 51.67-114.5 84.13-189.73 84.13-55.43 0-106.74-17.62-148.65-47.56v-6.99c0-16.34 13.24-29.58 29.58-29.58z" fill="#ffbb16"/><path d="m241.35 511.59c-49.81-2.81-95.81-19.87-134-47.15v-6.99c0-16.34 13.24-29.58 29.58-29.58h121.45c-16.33 0-29.57 13.24-29.57 29.58v29.96c0 10 4.95 18.83 12.54 24.18z" fill="#ff931f"/><path d="m447.834 110.487h-287.046c-14.01 0-25.368 11.358-25.368 25.368v25.692c0 14.01 11.358 25.368 25.368 25.368h287.046c14.01 0 25.368-11.358 25.368-25.368v-25.692c0-14.01-11.357-25.368-25.368-25.368z" fill="#ffbb16"/><path d="m264.931 186.911h-104.139c-14.016 0-25.372-11.356-25.372-25.363v-25.697c0-14.008 11.355-25.363 25.372-25.363h104.139c-14.008 0-25.363 11.355-25.363 25.363v25.697c0 14.007 11.355 25.363 25.363 25.363z" fill="#ff931f"/><g fill="#f6f1f1"><g><circle cx="447.249" cy="148.702" r="18.687"/><circle cx="354.97" cy="148.702" r="18.687"/><circle cx="262.69" cy="148.702" r="18.687"/><circle cx="170.411" cy="148.702" r="18.687"/></g><g><path d="m402.57 465.9c-2.17 1.53-4.36 3.01-6.57 4.46-5.85 3.82-11.86 7.42-18.03 10.76-2.3 1.25-4.61 2.46-6.95 3.64-2.9-3.29-4.65-7.6-4.65-12.33 0-10.32 8.36-18.69 18.69-18.69 8.02 0 14.86 5.06 17.51 12.16z"/><circle cx="304.311" cy="472.431" r="18.687"/><circle cx="223.567" cy="472.431" r="18.687"/><path d="m161.51 472.43c0 7.51-4.43 13.98-10.82 16.95-9.05-4.07-17.82-8.67-26.27-13.76-.19-1.04-.28-2.1-.28-3.19 0-10.32 8.36-18.69 18.68-18.69s18.69 8.37 18.69 18.69z"/></g></g></g></g></svg>