<svg id="Capa_1" enable-background="new 0 0 512 512" height="512" viewBox="0 0 512 512" width="512" xmlns="http://www.w3.org/2000/svg"><g><path d="m512 256c0 24.35-3.4 47.91-9.75 70.23-9.14 32.09-24.38 61.62-44.39 87.23-12.33 15.78-26.46 30.07-42.09 42.57-12.74 10.19-26.48 19.19-41.04 26.82-35.49 18.62-75.88 29.15-118.73 29.15s-83.25-10.53-118.73-29.15c-36.55-19.16-67.9-46.91-91.37-80.55-28.93-41.47-45.9-91.9-45.9-146.3 0-141.38 114.62-256 256-256s256 114.62 256 256z" fill="#434d51"/><g><path d="m192.971 14.646-168.213 291.344c-11.275 19.528 2.818 43.938 25.367 43.938h336.419c22.549 0 36.642-24.41 25.368-43.938l-168.206-291.344c-11.274-19.528-39.46-19.528-50.735 0zm25.368 50.843 136.86 237.06h-273.729z" fill="#f46c7c"/><path d="m359.04 78.18c-11.28-19.53-39.46-19.53-50.74-.01l-168.21 291.35c-11.28 19.53 2.82 43.94 25.37 43.94h292.4c20.01-25.61 35.25-55.14 44.39-87.23zm-162.24 287.9 136.87-237.06 136.86 237.06z" fill="#c9394a"/><path d="m411.91 438.91-168.2-291.34c-11.28-19.53-39.46-19.53-50.74 0l-147.07 254.73c23.47 33.64 54.82 61.39 91.37 80.55h237.46c14.56-7.63 28.3-16.63 41.04-26.82.5-5.65-.66-11.58-3.86-17.12zm-330.44-3.44 136.87-237.06 136.86 237.06z" fill="#e84d59"/><g fill="#f46c7c"><path d="m162.115 302.549h-80.645l9.823-17.013c-15.159 8.297-25.441 24.394-25.441 42.894 0 7.716 1.794 15.01 4.979 21.499h74.344c3.183-6.489 16.94-47.38 16.94-47.38z"/><path d="m286.133 349.928h99.692l-30.626-47.379h-86.659z"/></g></g></g></svg>