<svg id="Capa_1" enable-background="new 0 0 512 512" height="512" viewBox="0 0 512 512" width="512" xmlns="http://www.w3.org/2000/svg"><g><path d="m512 256c0 49.29-13.94 95.34-38.08 134.4-32.78 53.04-84.37 93.22-145.48 111.21h-.01c-22.96 6.76-47.27 10.39-72.43 10.39s-49.47-3.63-72.44-10.4c-61.1-17.99-112.7-58.16-145.48-111.2-24.14-39.06-38.08-85.11-38.08-134.4 0-141.38 114.62-256 256-256s256 114.62 256 256z" fill="#6ec17d"/><g><path d="m117.626 326.239h269.076v116.784h-269.076z" fill="#bd5423"/><path d="m398.41 468.76c-12.34 8.28-25.44 15.52-39.18 21.57-10.65 4.7-21.68 8.7-33.03 11.92-22.3 6.35-45.85 9.75-70.2 9.75-24.34 0-47.89-3.4-70.2-9.74-7.24-2.06-14.36-4.44-21.33-7.12-.43-.16-.86-.32-1.29-.49-3.51-1.36-6.98-2.81-10.41-4.32-13.74-6.06-26.84-13.29-39.19-21.58 10.39-14.37 23.76-26.43 39.19-35.32 10.2-5.87 21.3-10.34 33.03-13.15 1.81-.44 3.64-.84 5.48-1.19 3.47-.68 7-1.2 10.57-1.57 1.03-.11 2.05-.21 3.09-.29 3.38-.28 6.8-.42 10.26-.42h81.59c4.52 0 8.97.24 13.35.7 3.57.37 7.09.9 10.57 1.56 1.39.27 2.77.56 4.14.87.45.12.91.21 1.35.33 11.74 2.82 22.83 7.29 33.03 13.16 15.43 8.9 28.79 20.96 39.18 35.33z" fill="#f9c5ac"/><path d="m215.2 416.81c-29.36 0-49.26 42.43-50.73 78.33-.43-.16-.86-.32-1.29-.49-3.51-1.36-6.98-2.81-10.41-4.32-13.74-6.06-26.84-13.29-39.19-21.58 10.39-14.37 23.76-26.43 39.19-35.32 10.2-5.87 21.3-10.34 33.03-13.15 1.81-.44 3.64-.84 5.48-1.19 3.47-.68 7-1.2 10.57-1.57 1.03-.11 2.05-.21 3.09-.29 3.38-.28 6.8-.42 10.26-.42z" fill="#efb29a"/><g><path d="m205.2 470.79c-6.27 10.19-13.57 20.93-21.64 30.81-61.1-17.99-112.7-58.16-145.48-111.2 42.2-.23 100.61 14.11 144.54 25.04 24.33 6.05 35.72 34 22.58 55.35z" fill="#d0e2e7"/><path d="m473.92 390.4c-32.78 53.04-84.37 93.22-145.48 111.21h-.01c-8.06-9.89-15.37-20.63-21.64-30.82-13.14-21.35-1.75-49.3 22.58-55.35 43.93-10.93 102.35-25.27 144.55-25.04z" fill="#f6f1f1"/></g><path d="m300.706 368.538v54.869c0 20.088-13.245 37.067-31.489 42.707-4.176 1.296-8.627 1.997-13.23 1.997-24.691 0-44.703-20.012-44.703-44.703v-54.869h89.422z" fill="#efb29a"/><path d="m300.706 419.932v3.475c0 20.088-13.245 37.067-31.489 42.707-16.461-5.06-28.837-19.372-31.123-36.884 2.987.183 5.99.274 9.008.274 8.459 0 16.75-.671 24.828-1.997 9.953-1.6 19.57-4.161 28.776-7.575z" fill="#f9c5ac"/><g><path d="m132.54 278.153c0 20.497-14.973 37.492-34.579 40.646-2.143.347-4.347.528-6.596.528-22.746 0-41.175-18.429-41.175-41.175s18.429-41.175 41.175-41.175c2.249 0 4.453.181 6.596.528 19.606 3.156 34.579 20.152 34.579 40.648z" fill="#f9c5ac"/><path d="m132.54 278.153c0 20.497-14.973 37.492-34.579 40.646-3.562-12.95-5.464-26.579-5.464-40.646s1.902-27.696 5.464-40.646c19.606 3.154 34.579 20.15 34.579 40.646z" fill="#efb29a"/><circle cx="91.365" cy="278.153" fill="#efb29a" r="14.716"/><path d="m379.449 278.153c0 20.497 14.973 37.492 34.579 40.646 2.143.347 4.347.528 6.596.528 22.746 0 41.175-18.429 41.175-41.175s-18.429-41.175-41.175-41.175c-2.249 0-4.453.181-6.596.528-19.606 3.156-34.579 20.152-34.579 40.648z" fill="#f9c5ac"/><g fill="#efb29a"><path d="m379.449 278.153c0 20.497 14.973 37.492 34.579 40.646 3.562-12.95 5.464-26.579 5.464-40.646s-1.902-27.696-5.464-40.646c-19.606 3.154-34.579 20.15-34.579 40.646z"/><circle cx="420.624" cy="278.153" r="14.716"/></g></g><path d="m410.696 256.511c0 76.985-56.241 140.847-129.873 152.705-8.078 1.326-16.369 1.997-24.828 1.997-85.444 0-154.701-69.257-154.701-154.701v-157.5h309.403v157.499z" fill="#f9c5ac"/><g fill="#efb29a"><path d="m283.243 408.81c-.8.14-1.61.28-2.42.41-8.08 1.32-16.37 1.99-24.83 1.99-85.44 0-154.7-69.25-154.7-154.7v-157.5h54.55v157.5c0 76.14 54.98 139.41 127.4 152.3z"/><g><circle cx="341.181" cy="296.496" r="19.082"/><circle cx="170.805" cy="296.496" r="19.082"/></g><path d="m273.377 297.923h-34.757c-4.14 0-7.497-3.356-7.497-7.496 0-4.14 3.356-7.497 7.497-7.497h34.757c4.14 0 7.497 3.356 7.497 7.497 0 4.14-3.357 7.496-7.497 7.496z"/></g><path d="m255.999 345.352c-12.828 0-25.656-3.214-37.349-9.642-3.298-1.813-4.502-5.957-2.689-9.255 1.814-3.299 5.958-4.501 9.255-2.689 19.276 10.597 42.292 10.596 61.566 0 3.296-1.813 7.441-.61 9.255 2.689 1.814 3.298.61 7.442-2.689 9.255-11.693 6.428-24.521 9.642-37.349 9.642z" fill="#dd9f8a"/><g><path d="m343.992 244.327c0-17.807-14.435-32.243-32.243-32.243-17.807 0-32.243 14.435-32.243 32.243" fill="#efb29a"/><circle cx="311.75" cy="258.054" fill="#2f373b" r="22.023"/><circle cx="320.928" cy="254.168" fill="#fff" r="9.437"/><path d="m232.482 244.327c0-17.807-14.435-32.243-32.243-32.243s-32.243 14.435-32.243 32.243" fill="#efb29a"/><circle cx="200.24" cy="258.054" fill="#2f373b" r="22.023"/><path d="m205.207 279.51c-1.6.38-3.26.57-4.97.57-12.16 0-22.02-9.86-22.02-22.03 0-12.16 9.86-22.02 22.02-22.02 1.71 0 3.37.2 4.97.57-9.78 2.25-17.06 11-17.06 21.45 0 10.46 7.28 19.21 17.06 21.46z" fill="#181e21"/><path d="m316.717 279.51c-1.6.38-3.26.57-4.97.57-12.16 0-22.02-9.86-22.02-22.03 0-12.16 9.86-22.02 22.02-22.02 1.71 0 3.37.2 4.97.57-9.78 2.25-17.06 11-17.06 21.45 0 10.46 7.28 19.21 17.06 21.46z" fill="#181e21"/><circle cx="209.417" cy="254.168" fill="#fff" r="9.437"/></g><path d="m255.99 99.01c0 5.99-1.63 11.87-4.54 17.7-24.14 48.62-136.05 93.28-118.91 161.44 17.62 70.09 53.15 160.57 37.41 219.02-8.26-2.95-16.32-6.31-24.16-10.05-23.5-11.22-45.02-25.92-63.89-43.43v-302.69c0-56.39 56.85-136.79 169.63-140.83 1.48-.06 2.97-.1 4.47-.13.8-.01-.01 98.97-.01 98.97z" fill="#bd5423"/><path d="m132.54 278.15c17.62 70.09 53.15 160.57 37.41 219.02-8.26-2.95-16.32-6.31-24.16-10.05 17.67-33.69 3.87-98.4-20.99-176.53-11.787-37.036-7.592-66.615 2.097-91.808 20.378-52.984 67.319-91.222 123.093-101.795l1.459-.277c-24.139 48.62-136.049 93.28-118.909 161.44z" fill="#d9723e"/><path d="m430.09 141v302.7c-25.17 23.35-55.05 41.7-88.05 53.47-15.74-58.45 19.79-148.93 37.41-219.02 19.19-76.33-123.46-123.19-123.46-179.14 0 0-7.763-41.072-7.82-70.299-.031-16.147 7.43-28.678 7.7-28.671h.13c1.5.03 2.99.07 4.46.13 112.78 4.04 169.63 84.44 169.63 140.83z" fill="#d9723e"/><path d="m426.588 170.749c-113.425-11.757-227.761-11.757-341.186 0-5.864.608-10.974-3.967-10.974-9.862 0-5.07 3.822-9.341 8.865-9.87 114.82-12.05 230.586-12.05 345.406 0 5.043.529 8.865 4.8 8.865 9.87-.002 5.896-5.112 10.47-10.976 9.862z" fill="#434d51"/></g></g></svg>