<svg id="Capa_1" enable-background="new 0 0 512 512" height="512" viewBox="0 0 512 512" width="512" xmlns="http://www.w3.org/2000/svg"><g><path d="m512 256c0 141.38-114.62 256-256 256-50.17 0-96.96-14.43-136.46-39.37-2.89-1.82-5.74-3.7-8.55-5.63-17.35-11.95-33.15-25.97-47.03-41.73-.77-.86-1.53-1.73-2.28-2.61-5.94-6.91-11.5-14.14-16.67-21.66-1.94-2.81-3.82-5.65-5.64-8.54-24.94-39.5-39.37-86.29-39.37-136.46 0-141.38 114.62-256 256-256s256 114.62 256 256z" fill="#6ec17d"/><path d="m213.4 364.59-102.41 102.41c-18.3-12.61-34.88-27.52-49.31-44.34-5.94-6.91-11.5-14.14-16.67-21.66l102.4-102.4z" fill="#f6f1f1"/><path d="m169.02 320.21-105.06 105.06c-.77-.86-1.53-1.73-2.28-2.61-5.94-6.91-11.5-14.14-16.67-21.66l102.4-102.4z" fill="#d0e2e7"/><path d="m213.401 364.593-67.773 67.773c-16.134-4.633-30.336-12.607-41.861-24.132s-19.498-25.726-24.132-41.861l67.773-67.773z" fill="#d0e2e7"/><path d="m213.962 32.42c-123.682 123.682-164.485 283.407-91.137 356.755s233.073 32.545 356.755-91.137" fill="#d9723e"/><path d="m291.763 110.222-77.805-77.805c-123.682 123.683-164.476 283.409-91.127 356.758-14.304-14.304 45.249-155.27 168.932-278.953z" fill="#bd5423"/><ellipse cx="346.771" cy="165.229" fill="#ff931f" rx="138.989" ry="187.82" transform="matrix(.707 -.707 .707 .707 -15.268 293.599)"/><path d="m232.816 51.274c-20.123 20.123-28.32 50.523-23.079 85.599 5.684 38.039 26.142 76.317 57.607 107.782s69.743 51.924 107.782 57.607c35.075 5.241 65.476-2.955 85.599-23.079 20.123-20.123 28.32-50.523 23.079-85.599-5.684-38.039-26.142-76.317-57.607-107.782s-69.743-51.924-107.782-57.607c-35.075-5.241-65.476 2.956-85.599 23.079z" fill="#c9394a"/><g fill="#bd5423"><circle cx="210.938" cy="399.717" r="10.589"/><circle cx="228.367" cy="372.524" r="10.589"/><circle cx="202.812" cy="248.057" r="10.589"/><circle cx="185.815" cy="270.56" r="10.589"/><circle cx="245.411" cy="399.717" r="10.589"/></g><g fill="#e84d59"><path d="m372.513 100.232c-1.17 2.244-2.344 4.5-3.482 6.753 6.181-.849 13.669-.641 21.665-.419 7.348.204 15.626.434 22.592-.397 5.199-.62 7.468-6.938 3.773-10.647-.097-.097-.194-.195-.292-.292-7.65-7.65-15.717-14.603-24.084-20.797-3.559-2.634-8.721-.966-10.011 3.27-2.215 7.278-6.217 14.96-10.161 22.529z"/><path d="m422.246 248.921c-8.967-3.88-18.534-8.021-27.599-12.647.135 7.623 2.193 16.727 4.201 25.605 1.598 7.063 3.276 14.499 3.692 21.128.252 4.015 3.829 6.963 7.807 6.363 16.417-2.475 30.446-9.109 40.951-19.614l.035-.035c1.995-1.999 1.672-5.36-.665-6.946-6.327-4.292-17.877-9.291-28.422-13.854z"/><path d="m263.096 113.125c10.181 2.592 20.79 5.297 30.543 8.58-1.116-6.579-1.269-15.156-1.448-25.383-.262-14.864-.579-32.458-4.39-47.751-1.138-4.566-5.712-7.434-10.309-6.432-13.971 3.045-25.982 9.296-35.248 18.562-9.22 9.22-15.455 21.158-18.517 35.04-.4 1.815.284 3.712 1.803 4.784 6.721 4.744 22.967 8.882 37.566 12.6z"/><path d="m392.736 286.249c.052-5.838-1.742-13.768-3.642-22.164-2.58-11.405-5.229-23.151-4.227-33.144-19.423-11.404-34.133-25.75-31.133-45.687l9.889 1.488c-3.662 24.333 33.075 40.229 62.594 53.001 10.047 4.347 18.725 8.104 25.344 11.871 5.533 3.149 12.539.535 14.823-5.408 5.553-14.451 7.065-31.71 4.235-50.652-4.008-26.822-16.053-53.869-34.569-78.252-2.648-3.487-7.24-4.876-11.363-3.403-9.384 3.351-21.966 3.005-34.269 2.663-10.686-.297-25.312-.703-27.181 3.224-3.032 8.025-4.391 15.614-1.859 22.02l-9.299 3.676c-3.722-9.414-1.834-19.685 2.067-29.845l-.009-.004c.015-.032.033-.062.048-.094 2.617-6.791 6.126-13.531 9.46-19.929 6.448-12.375 10.901-21.602 10.789-28.309-.052-3.147-1.894-6.015-4.658-7.521-17.3-9.423-35.366-15.716-53.331-18.401-3.829-.572-7.589-.965-11.27-1.183-4.585-.271-8.098 3.965-7.091 8.446 3.531 15.713 3.848 32.866 4.105 47.502.159 9.047.297 16.86 1.14 22.687.967 6.681 2.474 7.536 2.489 7.541l-.002.006c14.875 6.592 25.643 15.447 25.94 28.883l-9.998.221c-.327-14.798-25.299-23.211-49.503-29.661-3.385 1.103-12.979 4.477-22.521 10.132-7.269 4.308-12.351 8.633-15.865 12.744-3.97 4.644-5.073 11.106-2.939 16.831 9.236 24.776 24.935 48.79 45.842 69.697.019.019.037.037.056.056 2.214 2.213 5.946 1.126 6.78-1.891 3.881-14.037 15.77-20.984 25.953-26.922 12.813-7.471 20.666-12.677 20.666-25.033h10c0 18.728-13.615 26.667-25.629 33.672-12.785 7.455-23.257 13.576-22.257 30.388.16 2.683 1.538 5.142 3.65 6.804 25.117 19.767 53.234 32.611 81.107 36.776 3.858.577 7.645.969 11.353 1.186 2.291.134 4.261-1.665 4.286-3.96-.001-.016-.001-.034-.001-.052z"/><path d="m255.72 121.562c-10.838-2.781-20.381-5.375-27.727-8.503-3.059-1.303-6.479.907-6.463 4.232.027 5.674.488 11.557 1.393 17.612.005.031.009.062.014.093.547 3.645 5.002 5.173 7.697 2.658 7.702-7.189 17.235-12.505 25.086-16.092z"/></g><ellipse cx="346.771" cy="165.229" fill="#f6f1f1" rx="27.103" ry="36.625" transform="matrix(.707 -.707 .707 .707 -15.268 293.599)"/></g></svg>