<svg id="Capa_1" enable-background="new 0 0 512 512" height="512" viewBox="0 0 512 512" width="512" xmlns="http://www.w3.org/2000/svg"><g><path d="m512 256c0 141.38-114.62 256-256 256-51.33 0-99.13-15.11-139.2-41.13-8-5.19-15.69-10.81-23.04-16.84-4.65-3.81-9.16-7.78-13.53-11.91-6.17-5.83-12.04-11.96-17.61-18.37-4.56-5.25-8.9-10.68-13.03-16.3l-.01-.01c-6.06-8.24-11.63-16.86-16.68-25.81-20.94-37.11-32.9-79.97-32.9-125.63 0-141.38 114.62-256 256-256 39.57 0 77.05 8.98 110.5 25.01 9.29 4.45 18.26 9.44 26.88 14.94 11.55 7.36 22.47 15.61 32.65 24.67 21.11 18.78 39.1 40.99 53.07 65.76 20.95 37.12 32.9 79.97 32.9 125.62z" fill="#b1e4f9"/><g><path d="m472.94 56.24-.15-.9-.09-.28c-2.73-12.17-12.21-21.49-24.48-23.99l-1.34-.34h-.43l-.2-.04h-.02c-26.35-4.95-53.05-6.84-79.73-5.68-11.61.51-23.21 1.6-34.78 3.26-29.63 4.26-56.48 17.71-77.67 38.9-26.15 26.15-40.54 60.91-40.54 97.89v40.32l-40.33.01c-36.97-.01-71.74 14.39-97.89 40.54-21.18 21.18-34.63 48.04-38.9 77.67-2.78 19.33-3.94 38.71-3.49 58.03 5.05 8.95 10.62 17.57 16.68 25.81l.01.01c4.13 5.62 8.47 11.05 13.03 16.3 5.57 6.41 11.44 12.54 17.61 18.37 4.37 4.13 8.88 8.1 13.53 11.91 7.35 6.03 15.04 11.65 23.04 16.84 76.86 3.07 152.77-19.29 216.07-64.53l12.93 8.53c13.92 9.19 32.59 7.3 44.38-4.49l28.32-28.32c11.8-11.8 13.69-30.47 4.5-44.4l-8.53-12.92c2.12-2.98 4.21-6 6.24-9.05 11.45-17.14 21.43-35.42 29.63-54.33 2.59-5.93 5.06-12.1 7.36-18.33 8.78-23.85 14.96-48.73 18.34-73.92.89-6.49 1.59-13.09 2.09-19.57.5-6.38.83-12.77.97-19.16.59-24.85-1.47-49.7-6.16-74.14zm-350.28 325.08c-.17-5.7-.16-11.38.04-17.01.65-18.19 8.09-35.3 20.96-48.17 13.56-13.56 31.59-21.03 50.77-21.02 19.17-.01 37.19 7.45 50.74 21l24.61 24.61c-43.78 28.04-95.05 42.21-147.12 40.59zm266.09-238.1c-.46 5.87-1.14 11.81-2.02 17.69-2.26 15.12-5.9 30.14-10.84 44.65-1.83 5.44-3.97 11.06-6.33 16.7-5.72 13.64-12.67 26.87-20.71 39.38l-24.6-24.6c-13.56-13.56-21.02-31.57-21.01-50.74-.01-19.17 7.46-37.2 21.02-50.76 12.87-12.87 29.98-20.32 48.19-20.96 5.59-.2 11.3-.22 17-.04.29 9.59.06 19.23-.7 28.68z" fill="#ff931f"/><g fill="#ffbb16"><path d="m171.958 404.151 2.382 35.941c.465 7.024 6.92 12.107 13.855 10.894 15.057-2.634 29.969-6.298 44.624-11.004 6.952-2.232 10.221-10.195 6.885-16.689l-16.611-32.337c-2.594-5.051-8.42-7.602-13.858-5.969-9.112 2.737-18.367 4.995-27.73 6.762-5.86 1.105-9.942 6.453-9.547 12.402z"/><path d="m241.908 386.425 16.404 31.951c2.93 5.706 9.866 8.038 15.656 5.28 10.075-4.799 19.958-10.136 29.609-16.004 6.216-3.779 7.526-12.247 2.804-17.781-6.678-7.827-14.393-17.591-20.716-27.564-3.42-5.394-10.507-7.089-16.002-3.834-7.265 4.304-14.703 8.257-22.289 11.85-6.043 2.863-8.521 10.152-5.466 16.102z"/><path d="m144.3 455.74c-16.85.71-33.75.13-50.54-1.71-4.65-3.81-9.16-7.78-13.53-11.91-.08-3.02 1-6.11 3.47-8.58l37.22-37.22c-.22-.01-.44-.02-.67-.04 6.95.28 13.89.28 20.8.02 6.4-.24 11.83 4.64 12.26 11.04l2.38 35.77c.45 6.67-4.71 12.35-11.39 12.63z"/><path d="m399.872 173.38c-1.767 9.364-4.025 18.618-6.762 27.73-1.634 5.438.918 11.263 5.969 13.858l32.344 16.615c6.492 3.335 14.452.069 16.687-6.879 4.715-14.655 8.391-29.573 11.023-44.635 1.212-6.934-3.872-13.387-10.895-13.853l-35.964-2.383c-5.949-.392-11.297 3.69-12.402 9.547z"/><path d="m428.41 62.24-2.38 2.38-31.33 31.33c-2.24 2.24-5.3 3.52-8.47 3.47-4.78-.09-9.55-.04-14.33.13-46.71 1.65-83.71 40.02-83.7 86.76-.01 23.01 9.13 45.08 25.42 61.37l37.36 37.37s12.69 10.75 26.58 22.83c12.1 10.54 22.71 22.66 31.56 36.05l1.33 2.02c5.29 8.02 4.22 18.66-2.59 25.47l-28.32 28.32c-6.79 6.79-17.43 7.87-25.45 2.59l-1.99-1.31c-13.42-8.87-25.57-19.5-36.12-31.62-12.08-13.87-22.81-26.54-22.81-26.54l.01-.01-37.37-37.37c-16.28-16.28-38.36-25.42-61.38-25.41-46.74-.01-85.11 37-86.76 83.71-.17 4.77-.21 9.55-.13 14.33.05 3.17-1.22 6.22-3.47 8.47l-33.7 33.7c-2.25 2.25-5 3.34-7.75 3.47-4.56-5.25-8.9-10.68-13.03-16.3l-.01-.01c-2.76-27.18-2.19-54.64 1.7-81.7 8.72-60.51 60.77-105.32 121.9-105.31l36.6-.01c10.37 0 18.77-8.4 18.77-18.78v-36.58c-.01-61.13 44.81-113.2 105.31-121.9 19.72-2.84 39.64-3.91 59.52-3.21 9.35.32 18.7 1.03 28.01 2.14 9.84 1.18 14.02 13.15 7.02 20.15z"/><path d="m415.46 145.188 35.778 2.382c6.665.444 12.349-4.711 12.629-11.385.75-17.875.067-35.796-2.048-53.586-1.17-9.844-13.141-14.037-20.15-7.027l-33.634 33.634c-2.252 2.252-3.522 5.318-3.466 8.503.089 5.085.04 10.156-.149 15.209-.239 6.407 4.643 11.844 11.04 12.27z"/><path d="m378.446 239.252c-3.593 7.584-7.546 15.02-11.851 22.28-3.258 5.495-1.564 12.584 3.831 16.005 9.975 6.325 19.743 14.044 27.571 20.724 5.533 4.722 14 3.413 17.78-2.802 5.87-9.651 11.204-19.538 16.002-29.615 2.757-5.79.425-12.725-5.28-15.654l-31.952-16.405c-5.95-3.054-13.238-.577-16.101 5.467z"/></g></g></g></svg>