<svg id="Capa_1" enable-background="new 0 0 512 512" height="512" viewBox="0 0 512 512" width="512" xmlns="http://www.w3.org/2000/svg"><g><path d="m512 256c0 48.77-13.64 94.35-37.31 133.14-31.33 51.36-80.25 90.82-138.39 110.01-25.26 8.34-52.25 12.85-80.3 12.85-141.38 0-256-114.62-256-256s114.62-256 256-256 256 114.62 256 256z" fill="#d9723e"/><g><path d="m36.831 90.721 19.885 97.768c1.131 5.559.925 11.306-.6 16.77l-18.935 67.849c-2.485 8.904-1.432 18.423 2.939 26.569l29.12 54.27c6.24 11.63 18.37 18.887 31.568 18.887h123.936c13.57 0 25.975-7.667 32.043-19.804l26.808-53.616c3.36-6.72 4.522-14.326 3.322-21.743l-20.728-128.136c-.306-1.892-.46-3.805-.46-5.721v-86.872c0-18.097-13.497-33.353-31.459-35.558l-82.059-10.077c-3.864-.474-7.779-.316-11.591.469l-53.57 11.028c-7.694 1.584-14.655 5.654-19.81 11.582l-22.337 25.687c-7.309 8.405-10.292 19.733-8.072 30.648z" fill="#f6f1f1"/><path d="m97.962 372.704c-12.083-.943-22.923-7.969-28.729-18.767l-29.115-54.266c-4.37-8.141-5.42-17.654-2.935-26.565l18.939-67.849c1.521-5.464 1.735-11.205.6-16.775l-19.882-97.756c-2.228-10.926.75-22.239 8.055-30.657l22.345-25.688c5.163-5.912 12.104-9.984 19.817-11.569l5.592-1.157c-3.149 1.928-5.999 4.371-8.484 7.198l-23.116 26.588c-7.562 8.698-10.669 20.438-8.355 31.729l20.566 101.204c1.178 5.742.964 11.697-.621 17.353l-19.581 70.227c-2.571 9.212-1.5 19.067 3.042 27.508l30.143 56.173c2.849 5.335 6.898 9.769 11.719 13.069z" fill="#d0e2e7"/><path d="m193.204 143.352-53.702 53.703v-26.756l73.395-73.396c5.439-5.439 5.439-14.255 0-19.693-5.438-5.438-14.256-5.438-19.693 0l-53.702 53.703v-43.857c0-7.691-6.235-13.925-13.925-13.925-7.691 0-13.925 6.235-13.925 13.925v216.157c0 7.691 6.235 13.925 13.925 13.925 7.691 0 13.925-6.235 13.925-13.925v-66.771l73.395-73.396c5.439-5.439 5.439-14.255 0-19.693-5.437-5.438-14.256-5.438-19.693-.001z" fill="#434d51"/><g fill="#d0e2e7"><circle cx="202.682" cy="318.781" r="12.563"/><circle cx="229.539" cy="343.908" r="12.563"/><circle cx="238.511" cy="306.218" r="12.563"/><circle cx="111.769" cy="46.361" r="12.563"/></g></g><g><path d="m463.2 301.49 11.49 87.65c-31.33 51.36-80.25 90.82-138.39 110.01l-19.47 1.66c-12.2 1.04-24.24-3.36-32.9-12.01l-19.28-19.29c-11.24-11.23-15.08-27.89-9.9-42.91l9.48-27.49c1.97-5.72 2.67-11.8 2.05-17.81l-11.08-107.09c-.36-3.47-1.15-6.88-2.36-10.15l-8.7-23.49c-6.22-16.79-.98-35.67 13-46.86l40.71-32.56c12.07-9.66 28.5-11.81 42.65-5.6l7.19 3.16c8.89 3.91 18.87 4.57 28.2 1.88l19.95-5.75c18.98-5.47 39.18 3.19 48.32 20.7l26.4 50.6c5.21 9.98 6.14 21.66 2.58 32.34l-8.16 24.47c-1.99 5.97-2.6 12.3-1.78 18.54z" fill="#f6f1f1"/><path d="m259.619 236.407 9.127 24.615c1.264 3.428 2.099 7.006 2.485 10.648l11.612 112.303c.643 6.298-.086 12.683-2.142 18.682l-9.941 28.814c-5.442 15.769-1.414 33.229 10.369 45.012l20.224 20.224c1.264 1.264 2.592 2.443 3.985 3.492-8.034-1.564-15.489-5.485-21.402-11.397l-19.281-19.281c-11.247-11.227-15.082-27.894-9.898-42.912l9.469-27.487c1.971-5.72 2.678-11.804 2.057-17.824l-11.077-107.076c-.364-3.471-1.157-6.877-2.357-10.154l-8.698-23.481c-6.234-16.796-.985-35.67 12.983-46.875l40.726-32.563c5.506-4.413 11.933-7.263 18.639-8.441-.193.107-.364.256-.557.407l-42.676 34.149c-14.675 11.718-20.16 31.534-13.647 49.145z" fill="#d0e2e7"/><path d="m333.584 448.506c-7.691 0-13.925-6.235-13.925-13.925v-61.179c0-.019 0-.038 0-.056v-154.92c0-5.632 3.392-10.71 8.597-12.866 5.199-2.155 11.191-.963 15.175 3.019l77.475 77.474c2.611 2.611 4.079 6.153 4.079 9.847s-1.467 7.236-4.079 9.847l-73.396 73.396v55.439c0 7.689-6.235 13.924-13.926 13.924zm13.926-196.462v87.711l43.856-43.856z" fill="#434d51"/><g fill="#d0e2e7"><circle cx="389.475" cy="456.037" r="12.563"/><circle cx="414.984" cy="431.007" r="12.563"/><circle cx="403.929" cy="191.936" r="12.563"/></g></g></g></svg>