<svg id="Capa_1" enable-background="new 0 0 512 512" height="512" viewBox="0 0 512 512" width="512" xmlns="http://www.w3.org/2000/svg"><g><path d="m512 256c0 33.2-6.32 64.91-17.82 94.02-5.99 15.14-13.38 29.58-22 43.15-6.47 10.18-13.64 19.88-21.45 29.01-4.44 5.21-9.1 10.23-13.94 15.07-3.8 3.79-7.71 7.45-11.74 10.99-9.29 8.17-19.17 15.68-29.57 22.45-40.13 26.13-88.03 41.31-139.48 41.31-63.16 0-120.98-22.87-165.63-60.8-8.59-7.28-16.69-15.14-24.25-23.49-10.17-11.24-19.36-23.39-27.43-36.32-8.22-13.16-15.27-27.12-21.01-41.74-11.42-29.01-17.68-60.6-17.68-93.65 0-37.35 8-72.83 22.38-104.83 6.44-14.3 14.14-27.91 22.97-40.68 11.46-16.56 24.82-31.7 39.77-45.11 6.81-6.1 13.94-11.85 21.38-17.21 1.05-.76 2.11-1.51 3.17-2.25 41.48-28.94 91.92-45.92 146.33-45.92 41.26 0 80.25 9.77 114.77 27.11 5.93 2.98 11.72 6.18 17.37 9.6 4.03 2.43 7.98 4.96 11.86 7.61.37.25.73.5 1.1.75 7.87 5.42 15.42 11.27 22.61 17.51 5.83 5.06 11.42 10.38 16.77 15.93 11.86 12.32 22.49 25.82 31.7 40.32 8.62 13.57 16.01 28.01 22 43.15 11.5 29.11 17.82 60.82 17.82 94.02z" fill="#6ec17d"/><path d="m494.18 22.42v327.6c-5.99 15.14-13.38 29.58-22 43.15-6.47 10.18-13.64 19.88-21.45 29.01l-6.6-49.35-7.34 64.42c-3.8 3.79-7.71 7.45-11.74 10.99-9.29 8.17-19.17 15.68-29.57 22.45-62.02 2.94-113.99 17.55-188.34 17.55-18.46 0-36.62-2.2-53.97-5.78l-11.14-83.24-7.88 69.17-25.78-95.56-18 78.37c-8.59-7.28-16.69-15.14-24.25-23.49-10.17-11.24-19.36-23.39-27.43-36.32-8.22-13.16-15.27-27.12-21.01-41.74l4.7-198.48 3.21-135.32s19.9 11.74 54.06 22.23l5.47 27.3 9.96 49.73 11.42-66.94.49-2.84c.89.2 1.78.39 2.68.59 22.42 4.83 48.6 8.29 77.65 8.29 59.08 0 120.23-17 183.45-27.1 5.37-.86 10.76-1.67 16.17-2.41l1.2 12.01 6.76 67.36 5.1-59.75 1.83-21.49c4.54-.51 9.08-.97 13.64-1.37l8.24 41.12 10.52 52.53 6.25-36.6 10.02-58.69c14.45-.05 29.02.72 43.68 2.6z" fill="#a0380e"/><path d="m472.18 42.42v350.75c-6.47 10.18-13.64 19.88-21.45 29.01l-6.6-49.35-7.34 64.42c-3.8 3.79-7.71 7.45-11.74 10.99-2.74-.05-5.48-.08-8.22-.08-36.23 0-67.38 4.26-100.35 8.77-33.45 4.58-68.04 9.31-109.34 9.31-19.53 0-38.81-2.72-57.08-7.01l-8.03-60.01-6.41 56.25c-1.8-.52-3.6-1.04-5.38-1.59l-21.87-81.05-15.48 67.41c-9.82-4.17-18.81-8.46-26.77-12.53-10.17-11.24-19.36-23.39-27.43-36.32l6.66-280.9 1.44-60.57c10.39 4.09 23.07 8.5 37.74 12.51l.59 2.95 9.96 49.73 8.21-48.06c24.17 5.33 52.5 9.16 84.03 9.16 43.14 0 87.43-8.64 130.25-16.99 23.51-4.59 47.46-9.25 71.57-12.6l5.76 57.45 5.02-58.86c.39-.05.79-.09 1.18-.14 6.24-.74 12.47-1.37 18.72-1.88l3.89 19.39 10.52 52.53 6.25-36.6 6.25-36.64c1.73-.02 3.45-.06 5.18-.06 6.95 0 13.68.2 20.27.61z" fill="#d9723e"/><g fill="#a0380e"><path d="m166.372 197.604-29.034-23.418h26.182c5.374 0 7.851-6.682 3.776-10.185l-29.832-25.646c-4.538-3.901-11.245-3.901-15.783 0l-29.833 25.645c-4.075 3.503-1.598 10.185 3.776 10.185h26.182l-29.034 23.418c-4.253 3.43-1.827 10.301 3.637 10.301h25.398l-29.034 23.418c-4.253 3.43-1.827 10.301 3.637 10.301h26.539v16.402h13.249v-16.402h26.539c5.464 0 7.89-6.871 3.637-10.301l-29.034-23.418h25.398c5.462.001 7.887-6.87 3.634-10.3z"/><path d="m238.75 320.2-29.034-23.418h26.182c5.374 0 7.851-6.682 3.776-10.185l-29.832-25.646c-4.538-3.901-11.245-3.901-15.783 0l-29.832 25.646c-4.075 3.503-1.598 10.185 3.776 10.185h26.182l-29.035 23.418c-4.253 3.43-1.827 10.301 3.637 10.301h25.398l-29.034 23.418c-4.253 3.43-1.827 10.301 3.637 10.301h26.539v16.402h13.249v-16.402h26.539c5.464 0 7.89-6.871 3.637-10.301l-29.034-23.418h25.398c5.461 0 7.887-6.871 3.634-10.301z"/><path d="m410.768 180.249-29.034-23.418h26.182c5.374 0 7.851-6.682 3.776-10.185l-29.833-25.646c-4.538-3.901-11.245-3.901-15.783 0l-29.832 25.646c-4.075 3.503-1.598 10.185 3.776 10.185h26.182l-29.034 23.418c-4.253 3.43-1.827 10.301 3.637 10.301h25.398l-29.034 23.418c-4.253 3.43-1.827 10.301 3.637 10.301h26.539v16.402h13.249v-16.402h26.539c5.464 0 7.89-6.871 3.637-10.301l-29.034-23.418h25.398c5.461 0 7.887-6.871 3.634-10.301z"/><path d="m411.292 396.098-21.205-21.204 21.205-21.205-19.179-19.179-21.205 21.205-21.204-21.205-19.18 19.179 21.205 21.205-21.205 21.204 19.18 19.18 21.204-21.205 21.205 21.205z"/><circle cx="198.451" cy="143.737" r="8.308"/><circle cx="218.342" cy="118.074" r="8.308"/><circle cx="285.624" cy="256" r="8.308"/><circle cx="314.69" cy="272.616" r="8.308"/><circle cx="182.865" cy="418.443" r="8.308"/><circle cx="69.38" cy="352.216" r="8.308"/><circle cx="445.73" cy="236.448" r="8.308"/></g></g></svg>