<svg id="Capa_1" enable-background="new 0 0 512 512" height="512" viewBox="0 0 512 512" width="512" xmlns="http://www.w3.org/2000/svg"><g><path d="m512 256c0 141.38-114.62 256-256 256-41.63 0-80.93-9.94-115.68-27.58-9.44-4.78-18.54-10.14-27.26-16.01-9.56-6.45-18.67-13.53-27.25-21.17-52.65-46.89-85.81-115.2-85.81-191.24s33.16-144.35 85.81-191.24c8.58-7.64 17.69-14.72 27.25-21.17 8.72-5.87 17.82-11.23 27.26-16.01 34.75-17.64 74.05-27.58 115.68-27.58 141.38 0 256 114.62 256 256z" fill="#b1e4f9"/><g><g fill="#c9394a"><path d="m120.3 132.947h64.741v64.741h-64.741z"/><path d="m161.833 82.152h64.741v64.741h-64.741z" transform="matrix(0 1 -1 0 308.726 -79.681)"/><path d="m264.847 82.152h64.741v64.741h-64.741z" transform="matrix(0 1 -1 0 411.739 -182.695)"/><path d="m367.86 82.152v64.741l64.741-13.946v-50.795z"/><path d="m120.3 239.879h64.741v64.741h-64.741z"/><path d="m120.3 346.811h64.741v64.741h-64.741z"/></g><path d="m140.32 0v484.42c-9.44-4.78-18.54-10.14-27.26-16.01-9.56-6.45-18.67-13.53-27.25-21.17v-447.24z" fill="#d9723e"/><path d="m113.06 0v468.41c-9.56-6.45-18.67-13.53-27.25-21.17v-447.24z" fill="#bd5423"/><path d="m226.792-133.143h54.519v434.644h-54.519z" fill="#d9723e" transform="matrix(0 1 -1 0 338.231 -169.873)"/><path d="m244.723-115.211h18.657v434.644h-18.657z" fill="#bd5423" transform="matrix(0 1 -1 0 356.162 -151.941)"/><path d="m466.778 132.947h-304.945v304.945c0 17.705 15.812 31.347 33.29 28.522 153.845-24.862 275.315-146.331 300.177-300.177 2.825-17.478-10.817-33.29-28.522-33.29z" fill="#f6f1f1"/><path d="m450.774 132.947h-288.941v288.941c154.728-10.564 278.376-134.212 288.941-288.941z" fill="#e84d59"/><path d="m354.826 189.332c-22.152-3.217-46.204 21.85-56.395 33.985-2.289-1.943-4.88-3.541-7.686-4.685 10.342-4.232 17.64-14.38 17.64-26.255 0-2.007-.216-3.972-.605-5.872 4.059-1.663 8.528-1.922 12.825-.951 4.167.951 9.91 1.619 12.458-.907 4.21-4.232-6.11-23.447-24.398-23.447-5.722 0-11.012 2.526-15.61 5.981-3.908-2.029-8.334-3.173-13.041-3.173-15.653 0-28.371 12.695-28.371 28.37 0 11.875 7.298 22.023 17.662 26.255-2.829 1.144-5.398 2.742-7.686 4.685-10.191-12.134-34.243-37.201-56.396-33.985-29.083 4.211-21.094 104.091-10.774 104.091 9.306 0 13.257-44.65 13.948-53.373-.453 7.6-2.137 42.123 6.197 42.123 9.392 0 9.392-43.138 9.392-43.138s.928 33.767 10.774 33.767c9.867 0 8.442-34.243 8.442-34.243l8.572 4.102c-.065.734-.13 1.469-.13 2.224 0 9.91 5.096 28.932 12.782 41.605-15.567 3.024-40.915 9.781-40.915 21.483 0 16.863 39.857-5.161 39.857-5.161s7.276 19.691 16.647 19.691c9.392 0 16.647-19.691 16.647-19.691s39.878 22.023 39.878 5.161c0-11.702-25.348-18.46-40.936-21.483 7.708-12.673 12.782-31.695 12.782-41.605 0-.756-.043-1.491-.108-2.224l8.55-4.102s-1.404 34.243 8.442 34.243 10.795-33.767 10.795-33.767 0 43.138 9.371 43.138c8.377 0 6.671-34.717 6.196-42.188.691 8.528 4.642 53.438 13.969 53.438 10.319-.001 18.286-99.881-10.775-104.092zm-83.405 92.129c-2.656 0-4.815-7.082-4.815-15.826 0-8.723 2.159-15.826 4.815-15.826 2.677 0 4.836 7.104 4.836 15.826 0 8.744-2.159 15.826-4.836 15.826zm-.044-92.43c0-4.772 3.865-8.636 8.636-8.636 4.793 0 8.658 3.865 8.658 8.636 0 4.793-3.865 8.657-8.658 8.657-4.771 0-8.636-3.865-8.636-8.657zm17.23 92.43c-2.656 0-4.815-7.082-4.815-15.826 0-8.723 2.159-15.826 4.815-15.826 2.677 0 4.836 7.104 4.836 15.826 0 8.744-2.159 15.826-4.836 15.826z" fill="#2f373b"/></g></g></svg>