<svg id="Capa_1" enable-background="new 0 0 512 512" height="512" viewBox="0 0 512 512" width="512" xmlns="http://www.w3.org/2000/svg"><g><path d="m512 256c0 33.19-6.32 64.91-17.82 94.02-1.31 3.32-2.69 6.61-4.14 9.86-.01.03-.02.05-.03.08-8.14 18.29-18.36 35.45-30.36 51.18-5.73 7.51-11.86 14.69-18.37 21.5-16.13 16.92-34.55 31.63-54.77 43.63-2.84 1.68-5.71 3.31-8.61 4.88-36.25 19.68-77.77 30.85-121.9 30.85s-85.65-11.17-121.9-30.85c-2.9-1.57-5.77-3.2-8.61-4.88-15.36-9.11-29.68-19.79-42.74-31.81-4.14-3.81-8.15-7.75-12.03-11.82-20.14-21.11-36.71-45.67-48.73-72.68-1.46-3.28-2.85-6.59-4.17-9.94-11.5-29.11-17.82-60.83-17.82-94.02s6.32-64.91 17.82-94.02c2.48-6.29 5.21-12.46 8.18-18.49 41.63-84.98 128.99-143.49 230-143.49s188.37 58.51 230 143.49c2.97 6.03 5.7 12.2 8.18 18.49 11.5 29.11 17.82 60.83 17.82 94.02z" fill="#ffbb16"/><path d="m441.28 432.64c-16.13 16.92-34.55 31.63-54.77 43.63-2.84 1.68-5.71 3.31-8.61 4.88-36.25 19.68-77.77 30.85-121.9 30.85s-85.65-11.17-121.9-30.85c-2.9-1.57-5.77-3.2-8.61-4.88-15.36-9.11-29.68-19.79-42.74-31.81-4.14-3.81-8.15-7.75-12.03-11.82z" fill="#2f373b"/><path d="m494.182 165.318h-476.364v-62.426c0-25.39 20.583-45.972 45.972-45.972h384.418c25.39 0 45.972 20.583 45.972 45.972v62.426z" fill="#d9723e"/><path d="m128.718 56.922c-25.39 0-45.97 20.58-45.97 45.97v62.43h-64.93v-62.43c0-25.39 20.58-45.97 45.97-45.97z" fill="#bd5423"/><path d="m494.18 143.49v206.53c-20.96 53.06-59.15 97.45-107.67 126.25h-261.02c-48.52-28.8-86.71-73.19-107.67-126.25v-206.53z" fill="#d9723e"/><g fill="#bd5423"><path d="m73.268 265.635h420.913v21.495h-420.913z"/><path d="m73.268 102.892h420.913v21.495h-420.913z"/><path d="m494.18 338.39v11.63c-1.31 3.32-2.69 6.61-4.14 9.86h-416.77v-21.49z"/><path d="m459.65 411.14c-5.73 7.51-11.86 14.69-18.37 21.5h-368.01v-21.5z"/><path d="m17.818 143.489h476.363v76.614h-476.363z"/><path d="m82.75 143.49v300.97c-25.62-23.56-46.42-52.28-60.76-84.5-1.46-3.28-2.85-6.59-4.17-9.94v-206.53z"/><path d="m255.402 332.695 43.407-31.537c11.586-8.417 16.434-23.338 12.008-36.958l-16.58-51.028c-4.425-13.62-17.117-22.841-31.438-22.841h-53.654c-14.321 0-27.013 9.221-31.438 22.841l-16.58 51.028c-4.425 13.62.423 28.54 12.008 36.958l43.407 31.537c11.586 8.417 27.275 8.417 38.86 0z"/></g><path d="m493.181 204.079h-474.362c-10.394 0-18.819-8.426-18.819-18.819v-33.494c0-10.393 8.425-18.818 18.819-18.818h474.363c10.393 0 18.819 8.425 18.819 18.818v33.494c-.001 10.393-8.426 18.819-18.82 18.819z" fill="#f6f1f1"/><path d="m74.31 204.08h-55.49c-10.39 0-18.82-8.43-18.82-18.82v-33.5c0-10.39 8.43-18.81 18.82-18.81h55.49c-10.39 0-18.82 8.42-18.82 18.81v33.5c0 10.39 8.43 18.82 18.82 18.82z" fill="#d0e2e7"/><path d="m0 156.483h512v24.06h-512z" fill="#d0e2e7"/><path d="m275.43 332.695 43.407-31.537c11.586-8.417 16.434-23.338 12.008-36.958l-16.58-51.028c-4.425-13.62-17.117-22.841-31.438-22.841h-53.654c-14.321 0-27.013 9.221-31.438 22.841l-16.58 51.028c-4.425 13.62.423 28.54 12.008 36.958l43.407 31.537c11.586 8.417 27.274 8.417 38.86 0z" fill="#f6f1f1"/><path d="m275.922 269.194c7.115-5.792 11.663-14.616 11.663-24.506 0-17.444-14.141-31.585-31.585-31.585s-31.585 14.141-31.585 31.585c0 9.89 4.548 18.714 11.663 24.506l-9.419 16.313c-3.801 6.583.95 14.813 8.552 14.813h41.578c7.602 0 12.353-8.229 8.552-14.813z" fill="#2f373b"/><path d="m490.01 359.96c-21.65 48.66-58.04 89.33-103.5 116.31-2.84 1.68-5.71 3.31-8.61 4.88-.08-1.62-.11-3.24-.11-4.88 0-62.88 49.87-114.12 112.22-116.31z" fill="#f6f1f1"/><path d="m134.21 476.27c0 1.64-.03 3.26-.11 4.88-2.9-1.57-5.77-3.2-8.61-4.88-45.46-26.98-81.85-67.65-103.5-116.31 62.35 2.19 112.22 53.43 112.22 116.31z" fill="#f6f1f1"/></g></svg>