<svg id="Capa_1" enable-background="new 0 0 512 512" height="512" viewBox="0 0 512 512" width="512" xmlns="http://www.w3.org/2000/svg"><g><path d="m512 256c0 141.38-114.62 256-256 256-28.14 0-55.23-4.54-80.56-12.94-46.03-15.24-86.27-43.2-116.56-79.72-11.01-13.27-20.7-27.67-28.88-42.99-19.15-35.88-30-76.85-30-120.35 0-141.38 114.62-256 256-256s256 114.62 256 256z" fill="#80b4fb"/><g><path d="m289.261 355.479-104.315-104.314 244.455-244.455c12.155-12.155 32.901-7.061 38.003 9.354 23.222 74.714 3.78 157.49-52.923 214.194z" fill="#d0e2e7"/><path d="m414.482 230.257-125.221 125.222-32.032-32.032 125.222-125.222c52.51-52.51 73.072-127.378 57.36-197.495 11.186-2.899 23.773 3.041 27.598 15.337 23.222 74.714 3.776 157.488-52.927 214.19z" fill="#f6f1f1"/><path d="m280.44 394.06-105 105c-62.76-20.78-114.75-65.2-145.44-122.71l116.37-116.37c20.67-20.67 54.2-20.67 74.87 0l59.2 59.2c20.68 20.68 20.68 54.2 0 74.88z" fill="#d9723e"/><path d="m257.18 295.92c-20.68-20.67-54.2-20.68-74.88 0l-123.42 123.42c-11.01-13.27-20.7-27.67-28.88-42.99l116.37-116.37c20.68-20.67 54.19-20.67 74.87 0z" fill="#bd5423"/><g fill="#a0380e"><path d="m293.457 375.988-83.765-45.254-45.254-83.765c-3.28-6.079-10.866-8.338-16.939-5.056-6.074 3.281-8.338 10.865-5.056 16.938l27.123 50.205-50.205-27.123c-6.073-3.282-13.657-1.018-16.939 5.056-2.69 4.979-1.654 10.972 2.153 14.779.837.837 1.808 1.568 2.903 2.16l83.765 45.253 45.254 83.765c.591 1.095 1.323 2.066 2.16 2.903 3.806 3.806 9.801 4.843 14.779 2.153 6.074-3.282 8.338-10.865 5.056-16.939l-27.122-50.203 50.205 27.123c6.073 3.282 13.657 1.018 16.939-5.056 3.281-6.073 1.016-13.657-5.057-16.939z"/><path d="m231.877 437.568-83.765-45.253-45.254-83.765c-3.28-6.08-10.865-8.338-16.939-5.056-6.074 3.281-8.338 10.865-5.056 16.938l27.123 50.205-50.205-27.123c-6.073-3.282-13.657-1.018-16.939 5.056-2.69 4.979-1.654 10.972 2.153 14.779.837.837 1.808 1.568 2.903 2.16l83.765 45.253 45.254 83.765c.591 1.095 1.323 2.066 2.16 2.903 3.806 3.806 9.801 4.843 14.779 2.153 6.074-3.282 8.338-10.865 5.056-16.939l-27.122-50.204 50.204 27.123c6.074 3.282 13.657 1.018 16.939-5.056 3.282-6.073 1.018-13.658-5.056-16.939z"/></g></g></g></svg>