<svg id="Capa_1" enable-background="new 0 0 512 512" height="512" viewBox="0 0 512 512" width="512" xmlns="http://www.w3.org/2000/svg"><g><circle cx="256" cy="256" fill="#d9723e" r="256"/><path d="m461.27 62.44v346.55c-46.67 62.52-121.25 103.01-205.27 103.01s-158.6-40.49-205.27-103.01v-346.55z" fill="#434d51"/><path d="m121.58 62.44v411.46c-27.52-17.01-51.57-39.08-70.85-64.91v-346.55z" fill="#2f373b"/><path d="m461.268 106.79h-366.188c-24.493 0-44.349-19.856-44.349-44.349 0-24.493 19.856-44.349 44.349-44.349h366.188z" fill="#2f373b"/><path d="m95.081 86.79c-13.426 0-24.349-10.923-24.349-24.349s10.923-24.349 24.349-24.349h366.188v48.698z" fill="#f6f1f1"/><path d="m178.205 182.701-33.919-28.931-33.919 28.931v-101.78h67.838z" fill="#c9394a"/><path d="m110.367 75.274h67.838v31.516h-67.838z" fill="#e84d59"/><path d="m358.52 256h-45.307v-36.322c0-12.204-9.893-22.097-22.097-22.097h-48.876c-12.204 0-22.097 9.893-22.097 22.097v36.322h-45.307c-12.429 0-22.505 10.076-22.505 22.505v48.06c0 12.429 10.076 22.505 22.505 22.505h45.307v84.442c0 12.204 9.893 22.097 22.097 22.097h48.876c12.204 0 22.097-9.893 22.097-22.097v-84.442h45.307c12.429 0 22.505-10.076 22.505-22.505v-48.06c.001-12.429-10.075-22.505-22.505-22.505z" fill="#2f373b"/><path d="m242.241 433.608-.099-.067.002-106.472h-67.307c-.278 0-.505-.227-.505-.505v-48.06c0-.278.227-.505.505-.505h67.307v-58.322l.067-.099 48.906.002.098.067-.002 58.353h67.307c.278 0 .505.227.505.505v48.06c0 .278-.227.505-.505.505h-67.307v106.442l-.067.099z" fill="#ffbb16"/></g></svg>