<svg id="Capa_1" enable-background="new 0 0 512 512" height="512" viewBox="0 0 512 512" width="512" xmlns="http://www.w3.org/2000/svg"><g><path d="m512 256c0 62.05-22.08 118.95-58.81 163.26-46.96 56.65-117.86 92.74-197.19 92.74-59.94 0-115.07-20.6-158.69-55.12-14.11-11.16-27.02-23.78-38.5-37.62-36.73-44.31-58.81-101.21-58.81-163.26 0-93.36 49.98-175.06 124.65-219.77 8.26-4.95 16.82-9.44 25.65-13.45 8.37-3.8 16.98-7.16 25.8-10.06 25.14-8.26 52-12.72 79.9-12.72s54.76 4.46 79.9 12.72c18.13 5.95 35.36 13.87 51.45 23.51 74.67 44.71 124.65 126.41 124.65 219.77z" fill="#80b4fb"/><g><path d="m453.19 160.67v258.59c-46.96 56.65-117.86 92.74-197.19 92.74s-150.23-36.09-197.19-92.74v-258.59c36.85-5.31 65.84-37 65.84-75.32v-65.41c0-11.01 8.93-19.94 19.94-19.94h12.97c8.34 0 15.55 5.19 18.54 12.72.45 1.12.8 2.29 1.05 3.5 7.5 36.68 39.95 64.27 78.85 64.27s71.35-27.59 78.85-64.271c.25-1.21.6-2.38 1.05-3.5 2.99-7.529 10.2-12.719 18.54-12.719h12.97c11.01 0 19.94 8.93 19.94 19.94v65.41c0 38.32 28.99 70.01 65.84 75.32z" fill="#d9723e"/><g><path d="m150.3 0v85.35c0 27.56-12.07 51.68-29.87 65.04-14.56 10.91-23.12 28.05-23.12 46.25v260.24c-14.11-11.16-27.02-23.78-38.5-37.62v-258.59c36.85-5.31 65.84-37 65.84-75.32v-65.41c0-11.01 8.93-19.94 19.94-19.94z" fill="#bd5423"/></g><g><path d="m222.407 294.872h-74.913c-15.841 0-28.682-12.842-28.682-28.682v-74.913c0-15.841 12.842-28.682 28.682-28.682h74.913c15.841 0 28.682 12.842 28.682 28.682v74.913c0 15.841-12.841 28.682-28.682 28.682z" fill="#ffbb16"/><path d="m173.049 294.867h-25.561c-15.832 0-28.677-12.845-28.677-28.677v-74.923c0-15.832 12.844-28.677 28.677-28.677h25.561c-15.832 0-28.677 12.845-28.677 28.677v74.923c0 15.832 12.845 28.677 28.677 28.677z" fill="#ff931f"/></g><g><path d="m373.664 294.872h-74.913c-15.841 0-28.682-12.842-28.682-28.682v-74.913c0-15.841 12.842-28.682 28.682-28.682h74.913c15.841 0 28.682 12.842 28.682 28.682v74.913c.001 15.841-12.841 28.682-28.682 28.682z" fill="#ffbb16"/><path d="m324.307 294.867h-25.561c-15.832 0-28.677-12.845-28.677-28.677v-74.923c0-15.832 12.844-28.677 28.677-28.677h25.561c-15.832 0-28.677 12.845-28.677 28.677v74.923c0 15.832 12.845 28.677 28.677 28.677z" fill="#ff931f"/></g><g><path d="m219.065 478.386h-68.229c-17.687 0-32.024-14.338-32.024-32.024v-100.851c0-17.687 14.338-32.024 32.024-32.024h68.229c17.687 0 32.024 14.338 32.024 32.024v100.851c0 17.686-14.338 32.024-32.024 32.024z" fill="#ffbb16"/></g><g><path d="m177.951 478.391h-27.11c-17.69 0-32.03-14.34-32.03-32.02v-100.86c0-17.68 14.34-32.02 32.03-32.02h27.11c-17.68 0-32.02 14.34-32.02 32.02v100.86c0 17.68 14.34 32.02 32.02 32.02z" fill="#ff931f"/></g><g><path d="m370.322 478.386h-68.229c-17.687 0-32.024-14.338-32.024-32.024v-100.851c0-17.687 14.338-32.024 32.024-32.024h68.229c17.687 0 32.024 14.338 32.024 32.024v100.851c.001 17.686-14.337 32.024-32.024 32.024z" fill="#ffbb16"/></g><g><path d="m329.209 478.391h-27.11c-17.69 0-32.03-14.34-32.03-32.02v-100.86c0-17.68 14.34-32.02 32.03-32.02h27.11c-17.68 0-32.02 14.34-32.02 32.02v100.86c0 17.68 14.34 32.02 32.02 32.02z" fill="#ff931f"/></g><g><g><g><path d="m63.892 204.993h-18.57c-8.097 0-14.661-6.564-14.661-14.661 0-8.097 6.564-14.661 14.661-14.661h18.57c8.097 0 14.661 6.564 14.661 14.661-.001 8.097-6.565 14.661-14.661 14.661z" fill="#ffbb16"/><path d="m61.391 204.993h-16.06c-8.1 0-14.67-6.56-14.67-14.66 0-4.04 1.64-7.71 4.3-10.36 2.65-2.66 6.32-4.3 10.37-4.3h16.06c-4.05 0-7.71 1.64-10.37 4.3-2.65 2.65-4.29 6.32-4.29 10.36 0 8.1 6.56 14.66 14.66 14.66z" fill="#ff931f"/></g><g><path d="m63.892 260.287h-18.57c-8.097 0-14.661-6.564-14.661-14.661 0-8.097 6.564-14.661 14.661-14.661h18.57c8.097 0 14.661 6.564 14.661 14.661-.001 8.098-6.565 14.661-14.661 14.661z" fill="#ffbb16"/><path d="m61.391 260.287h-16.06c-8.1 0-14.67-6.56-14.67-14.66 0-4.04 1.64-7.71 4.3-10.36 2.65-2.66 6.32-4.3 10.37-4.3h16.06c-4.05 0-7.71 1.64-10.37 4.3-2.65 2.65-4.29 6.32-4.29 10.36 0 8.1 6.56 14.66 14.66 14.66z" fill="#ff931f"/></g><g><path d="m63.892 315.582h-18.57c-8.097 0-14.661-6.564-14.661-14.661 0-8.097 6.564-14.661 14.661-14.661h18.57c8.097 0 14.661 6.564 14.661 14.661-.001 8.097-6.565 14.661-14.661 14.661z" fill="#ffbb16"/><path d="m61.391 315.581h-16.06c-8.1 0-14.67-6.56-14.67-14.66 0-4.04 1.64-7.71 4.3-10.36 2.65-2.66 6.32-4.3 10.37-4.3h16.06c-4.05 0-7.71 1.64-10.37 4.3-2.65 2.65-4.29 6.32-4.29 10.36 0 8.1 6.56 14.66 14.66 14.66z" fill="#ff931f"/></g><g><path d="m63.892 370.876h-18.57c-8.097 0-14.661-6.564-14.661-14.661 0-8.097 6.564-14.661 14.661-14.661h18.57c8.097 0 14.661 6.564 14.661 14.661-.001 8.097-6.565 14.661-14.661 14.661z" fill="#ffbb16"/><path d="m61.391 370.876h-16.06c-8.1 0-14.67-6.56-14.67-14.66 0-4.04 1.64-7.71 4.3-10.36 2.65-2.66 6.32-4.3 10.37-4.3h16.06c-4.05 0-7.71 1.64-10.37 4.3-2.65 2.65-4.29 6.32-4.29 10.36 0 8.1 6.56 14.66 14.66 14.66z" fill="#ff931f"/></g></g><g><g><path d="m466.679 204.993h-18.57c-8.097 0-14.661-6.564-14.661-14.661 0-8.097 6.564-14.661 14.661-14.661h18.57c8.097 0 14.661 6.564 14.661 14.661-.001 8.097-6.565 14.661-14.661 14.661z" fill="#ffbb16"/><path d="m464.178 204.993h-16.06c-8.1 0-14.67-6.56-14.67-14.66 0-4.04 1.64-7.71 4.3-10.36 2.65-2.66 6.32-4.3 10.37-4.3h16.06c-4.05 0-7.71 1.64-10.37 4.3-2.65 2.65-4.29 6.32-4.29 10.36 0 8.1 6.56 14.66 14.66 14.66z" fill="#ff931f"/></g><g><path d="m466.679 260.287h-18.57c-8.097 0-14.661-6.564-14.661-14.661 0-8.097 6.564-14.661 14.661-14.661h18.57c8.097 0 14.661 6.564 14.661 14.661-.001 8.098-6.565 14.661-14.661 14.661z" fill="#ffbb16"/><path d="m464.178 260.287h-16.06c-8.1 0-14.67-6.56-14.67-14.66 0-4.04 1.64-7.71 4.3-10.36 2.65-2.66 6.32-4.3 10.37-4.3h16.06c-4.05 0-7.71 1.64-10.37 4.3-2.65 2.65-4.29 6.32-4.29 10.36 0 8.1 6.56 14.66 14.66 14.66z" fill="#ff931f"/></g><g><path d="m466.679 315.582h-18.57c-8.097 0-14.661-6.564-14.661-14.661 0-8.097 6.564-14.661 14.661-14.661h18.57c8.097 0 14.661 6.564 14.661 14.661-.001 8.097-6.565 14.661-14.661 14.661z" fill="#ffbb16"/><path d="m464.178 315.581h-16.06c-8.1 0-14.67-6.56-14.67-14.66 0-4.04 1.64-7.71 4.3-10.36 2.65-2.66 6.32-4.3 10.37-4.3h16.06c-4.05 0-7.71 1.64-10.37 4.3-2.65 2.65-4.29 6.32-4.29 10.36 0 8.1 6.56 14.66 14.66 14.66z" fill="#ff931f"/></g><g><path d="m466.679 370.876h-18.57c-8.097 0-14.661-6.564-14.661-14.661 0-8.097 6.564-14.661 14.661-14.661h18.57c8.097 0 14.661 6.564 14.661 14.661-.001 8.097-6.565 14.661-14.661 14.661z" fill="#ffbb16"/><path d="m464.178 370.876h-16.06c-8.1 0-14.67-6.56-14.67-14.66 0-4.04 1.64-7.71 4.3-10.36 2.65-2.66 6.32-4.3 10.37-4.3h16.06c-4.05 0-7.71 1.64-10.37 4.3-2.65 2.65-4.29 6.32-4.29 10.36 0 8.1 6.56 14.66 14.66 14.66z" fill="#ff931f"/></g></g></g></g></g></svg>