<svg id="Capa_1" enable-background="new 0 0 512 512" height="512" viewBox="0 0 512 512" width="512" xmlns="http://www.w3.org/2000/svg"><g><path d="m512 256c0 10.24-.6 20.34-1.77 30.26-.57 4.83-1.27 9.62-2.11 14.36-2.67 15.2-6.68 29.93-11.91 44.07-36.07 97.67-130.01 167.31-240.21 167.31-72.33 0-137.65-30-184.21-78.23-12.91-13.37-24.37-28.15-34.14-44.07-13.68-22.29-24.04-46.83-30.39-72.95-3.1-12.7-5.25-25.78-6.35-39.16v-.02c-.61-7.11-.91-14.31-.91-21.57 0-141.38 114.62-256 256-256 138.51 0 251.33 110.01 255.85 247.42.1 2.85.15 5.71.15 8.58z" fill="#6ec17d"/><g><path d="m322.524 31.56.261 60.747-61.357-5.919-42.524-53.618 87.852-14.506c8.226-1.358 15.717 4.959 15.768 13.296z" fill="#f6f1f1"/><path d="m322.786 85.791v11.294l-103.882 15.747-44.914-23.566 4.267-72.395c.609-8.201 9.665-12.867 16.696-8.602z" fill="#d0e2e7"/><path d="m512 256c0 15.22-1.33 30.13-3.88 44.62h-342.08c-15.64 0-27.66-13.85-25.46-29.33l17.62-124.12 7.37-51.94c2.33-16.42 16.38-28.62 32.96-28.62h99.3c14.3 0 27.01 9.14 31.56 22.7l23.53 70.1c3.75 11.16 12.31 20.05 23.33 24.19l91.16 34.3c15.15 5.7 28.81 14.37 40.28 25.33 1.42 1.36 2.81 2.76 4.16 4.19.1 2.85.15 5.71.15 8.58z" fill="#d9723e"/><path d="m186.58 271.289 29.047-204.677h-17.1c-16.579 0-30.631 12.199-32.96 28.613l-24.987 176.064c-2.198 15.485 9.821 29.33 25.461 29.33h46c-15.64 0-27.659-13.845-25.461-29.33z" fill="#bd5423"/><path d="m508.12 300.62c-2.67 15.2-6.68 29.93-11.91 44.07h-344.27c-6.27 0-11.36-5.08-11.36-11.35v-54.77c1.75 12.29 12.33 22.05 25.46 22.05z" fill="#2f373b"/><path d="m510.23 286.26c-.57 4.83-1.27 9.62-2.11 14.36h-342.08c-15.64 0-27.66-13.85-25.46-29.33l17.62-124.12 45.76 1.66c-4.48 31.57 42.63 137.43 199.99 137.43z" fill="#bd5423"/></g><g><path d="m171.105 120.641.261 60.747-61.357-5.919-42.525-53.618 87.852-14.506c8.226-1.358 15.718 4.959 15.769 13.296z" fill="#f6f1f1"/><path d="m171.366 174.873v11.294l-103.882 15.746-44.914-23.565 4.267-72.395c.609-8.201 9.665-12.867 16.696-8.602z" fill="#d0e2e7"/><path d="m371.33 389.7h-333.68c-13.68-22.29-24.04-46.83-30.39-72.95-3.1-12.7-5.25-25.78-6.35-39.16v-.02l13.24-93.26c2.33-16.42 16.38-28.62 32.96-28.62h99.3c14.3 0 27.01 9.14 31.56 22.7l23.53 70.11c3.75 11.16 12.31 20.04 23.33 24.18l91.16 34.3c15.15 5.7 28.81 14.37 40.28 25.33 11.33 10.83 20.52 23.9 26.88 38.57.09.17.16.35.24.53 3.71 8.66-2.64 18.29-12.06 18.29z" fill="#d9723e"/><path d="m60.62 389.7h-22.97c-13.68-22.29-24.04-46.83-30.39-72.95-3.1-12.7-5.25-25.78-6.35-39.16l13.24-93.28c2.33-16.42 16.38-28.62 32.96-28.62h17.1l-29.05 204.68c-2.2 15.49 9.82 29.33 25.46 29.33z" fill="#bd5423"/><path d="m384.34 378.34-.32 44.15c-.08 6.22-5.14 11.21-11.36 11.21l-300.87.07c-12.91-13.37-24.37-28.15-34.14-44.07h333.68c6.91 0 12.16-5.18 13.01-11.36z" fill="#2f373b"/><path d="m254.628 283.893-93.733 35.124c-10.705 4.011-22.766 1.397-30.849-6.686l-22.88-22.88c-12.388-12.388-11.132-32.827 2.68-43.605l71.922-56.123 19.73 58.77c3.75 11.16 12.32 20.05 23.33 24.19z" fill="#a0380e"/><path d="m92.852 333.738-18-24 49.784-37.338c6.627-4.971 16.029-3.627 21 3 4.971 6.627 3.627 16.029-3 21z" fill="#f6f1f1"/><path d="m371.33 389.7h-333.68c-13.68-22.29-24.04-46.83-30.39-72.95l31.68 16.99c-3.78 26.63 17.12 37.14 72.8 37.14h271.41c.09.17.16.35.24.53 3.71 8.66-2.64 18.29-12.06 18.29z" fill="#bd5423"/></g></g></svg>