<svg id="Capa_1" enable-background="new 0 0 512 512" height="512" viewBox="0 0 512 512" width="512" xmlns="http://www.w3.org/2000/svg"><g><path d="m512 256c0 141.38-114.62 256-256 256-9.38 0-18.63-.5-27.75-1.49-50.63-5.46-96.85-25.69-134.25-56.29-2.73-2.229-5.41-4.52-8.04-6.86-.11-.09-.21-.19-.31-.28-2.33-2.07-4.62-4.19-6.87-6.36-.22-.2-.44-.42-.66-.63-2.11-2.03-4.18-4.1-6.21-6.21-.21-.21-.42-.43-.63-.65-2.16-2.25-4.28-4.54-6.36-6.87-.09-.11-.19-.21-.28-.32-2.34-2.63-4.63-5.31-6.85-8.04-22.98-28.07-40.11-61.11-49.53-97.27-3.13-12-5.41-24.35-6.77-36.97-.01-.01-.01-.01 0-.01-.99-9.12-1.49-18.37-1.49-27.75 0-141.38 114.62-256 256-256 16.2 0 32.04 1.51 47.4 4.39h.01c13.45 2.52 26.52 6.08 39.14 10.62 84.38 30.3 148.23 103.67 165.06 193.59 2.89 15.36 4.39 31.2 4.39 47.4z" fill="#ffbb16"/><g><path d="m455.33 56.68c-43.97-43.97-97.63-66.87-151.92-52.29-25.21 6.77-50.54 21.61-75.11 46.18-25.93 25.93-44.37 56.05-55.02 87.07-9.16 26.68-30.21 47.74-56.89 56.9-31.03 10.65-61.15 29.09-87.08 55.02-11.27 11.27-20.49 22.69-27.82 34.2 12.85 119.21 107.55 213.9 226.76 226.75 11.5-7.33 22.93-16.55 34.2-27.82 25.92-25.93 44.36-56.05 55.01-87.07 9.16-26.69 30.22-47.74 56.9-56.9 31.02-10.65 61.15-29.09 87.07-55.01 24.57-24.57 39.42-49.91 46.18-75.11 14.59-54.29-8.32-107.95-52.28-151.92zm-44.73 199.56c-27.27 27.27-61.33 44.04-95.93 47.24-31.95 2.95-60.41-6.29-80.14-26.01-19.72-19.729-28.96-48.19-26-80.14 3.19-34.59 19.97-68.66 47.24-95.92 24.56-24.57 50.14-35.96 76.01-33.86 24.24 1.96 49.6 15.56 73.36 39.32 23.75 23.75 37.35 49.12 39.31 73.35 2.1 25.87-9.28 51.45-33.85 76.02z" fill="#d9723e"/><path d="m303.41 4.39c-.01 0-.01 0-.01 0-25.2 6.77-50.54 21.62-75.1 46.18-25.93 25.92-44.36 56.05-55.02 87.07-9.16 26.68-30.21 47.74-56.89 56.9-31.03 10.65-61.15 29.09-87.08 55.01-11.27 11.27-20.49 22.69-27.82 34.2-.01 0-.01 0 0 .01 1.36 12.62 3.64 24.97 6.77 36.97 9.02-17.3 22.08-34.89 39.71-52.52 25.92-25.93 55.11-45.3 84.51-57.58 25.27-10.56 46.33-31.62 56.89-56.9 12.28-29.39 31.65-58.58 57.58-84.51 32.53-32.53 64.94-49.49 95.6-54.21 41.25-6.36 79.32 9.42 110.25 39.19-43.49-42.35-96.14-64.12-149.39-49.81z" fill="#bd5423"/><g fill="#a0380e"><path d="m201.475 413.467-102.94-102.94c-6.1-6.1-15.991-6.1-22.091 0l-7.515 7.515c-6.1 6.1-6.1 15.991 0 22.091l102.94 102.94c6.1 6.1 15.991 6.1 22.091 0l7.515-7.515c6.101-6.1 6.101-15.99 0-22.091z"/><circle cx="324.538" cy="34.418" r="18.952"/><circle cx="380.816" cy="49.231" r="18.952"/><circle cx="426.791" cy="85.212" r="18.952"/></g><path d="m328.92 37.39-261.39 385.13-2.61 3.84c-.09-.11-.19-.21-.28-.32-2.34-2.63-4.63-5.31-6.85-8.04l262.36-386.56c1.65-2.42 4.94-3.05 7.36-1.41 2.43 1.64 3.06 4.94 1.41 7.36z" fill="#f6f1f1"/><path d="m384.91 52.59-307.1 374.11-5.9 7.18c-.21-.21-.42-.43-.63-.65-2.16-2.25-4.28-4.54-6.36-6.87-.09-.11-.19-.21-.28-.32l2.89-3.52 309.19-376.65c1.86-2.27 5.2-2.59 7.46-.74 2.27 1.87 2.59 5.2.73 7.46z" fill="#f6f1f1"/><path d="m430.54 88.96-345.23 345.23-6.53 6.53c-.22-.2-.44-.42-.66-.63-2.11-2.03-4.18-4.1-6.21-6.21-.21-.21-.42-.43-.63-.65l6.53-6.53 345.23-345.24c2.07-2.07 5.43-2.07 7.5 0s2.07 5.43 0 7.5z" fill="#f6f1f1"/><circle cx="477.585" cy="187.464" fill="#a0380e" r="18.952"/><circle cx="462.772" cy="131.187" fill="#a0380e" r="18.952"/><path d="m480.56 191.85-386.56 262.37c-2.73-2.229-5.41-4.52-8.04-6.86-.11-.09-.21-.19-.31-.28l3.76-2.55 385.2-261.45c2.42-1.65 5.72-1.02 7.36 1.41 1.64 2.42 1.01 5.72-1.41 7.36z" fill="#f6f1f1"/><path d="m466.14 135.28-376.73 309.25-3.45 2.83c-.11-.09-.21-.19-.31-.28-2.33-2.07-4.62-4.19-6.87-6.36-.22-.2-.44-.42-.66-.63l7.19-5.9 374.1-307.1c2.26-1.86 5.61-1.53 7.46.73 1.86 2.27 1.53 5.61-.73 7.46z" fill="#f6f1f1"/></g></g></svg>