<svg id="Capa_1" enable-background="new 0 0 512 512" height="512" viewBox="0 0 512 512" width="512" xmlns="http://www.w3.org/2000/svg"><g><path d="m512 256c0 56.45-18.28 108.64-49.24 150.97-18.84 25.77-42.39 47.88-69.38 65.07-16.76 10.68-34.84 19.47-53.95 26.05-26.15 9.02-54.22 13.91-83.43 13.91-54.78 0-105.55-17.21-147.18-46.52-8.96-6.3-17.5-13.17-25.56-20.54-2.6-2.38-5.16-4.82-7.66-7.3l-.01-.01c-46.68-46.38-75.59-110.63-75.59-181.63 0-19.4 2.16-38.3 6.26-56.47 1.38-6.13 2.98-12.17 4.79-18.12 9.66-31.78 25.33-60.93 45.7-86.15 46.92-58.1 118.75-95.26 199.25-95.26 76.23 0 144.67 33.32 191.57 86.19 19.54 22.02 35.33 47.44 46.39 75.25 5.7 14.31 10.14 29.26 13.18 44.71 1.26 6.34 2.28 12.77 3.05 19.28 1.2 10.02 1.81 20.23 1.81 30.57z" fill="#b1e4f9"/><g><path d="m241.056 0h29.887v399.717h-29.887z" fill="#bd5423"/><path d="m510.19 225.43c-.61 1.19-1.37 2.32-2.3 3.38-11.09 12.67-27.32 20.79-40.03 25.61-9.3 3.52-19.53-1.95-21.94-11.6-1.39-5.52-3.3-11.12-5.58-16.45-3.48 1.27-7.32 1.79-11.33 1.37-10.95-1.16-20.01-9.54-22.02-20.37-.7-3.73-.53-7.33.29-10.68-1.76 1.61-3.32 4.11-4.61 7.67-11.78 32.4 37.88 73.63 37.88 140.82 0 48.49-17.77 92.84-47.17 126.86-16.76 10.68-34.84 19.47-53.95 26.05-26.15 9.02-54.22 13.91-83.43 13.91-70.37 0-134.12-28.41-180.4-74.36l-.01-.01c-12.97-23.93-21.07-50.89-22.95-79.54-.29-4.27-.43-8.57-.43-12.91 0-67.19 49.67-108.42 37.89-140.82-9.89-27.18-50.22-14.72-37.89 13.25 12.33 27.98 9.38 48.6-17.86 58.17 0 0 9.55-30.25-8.1-47.9-6.67-6.67-14.6-16.28-19.99-28.35-6.21-13.93-9.04-31.13-2.62-50.9 2.74-8.46 7.18-17.39 13.77-26.73 9.93-14.07 23.95-22.56 39.34-26.64 39.38-10.47 87.73 7.87 99.61 35.3 7 16.16 9.83 31.93 9.83 47.1 0 63.71-49.83 116.91-49.83 144.26 42.56 11.64 86.29 17.47 130.02 17.47 19.77 0 39.54-1.19 59.19-3.58 23.83-2.88 47.51-7.51 70.83-13.89 0-33.87-80.58-135.23-40-191.36 33.63-46.5 95.72-30.04 95.72-30.04l15.45-14.33 5.91-5.48c4.62-4.28 12.15-1.56 12.96 4.69l3.96 30.61c17.72 8.12 22.85 27.82 23.56 45.43.72 17.53-2.94 33.01-2.94 33.01l13.96 9.88c.79.55 1.51 1.16 2.16 1.82 5.11 5.09 6.3 12.93 3.05 19.28z" fill="#d9723e"/><path d="m108.82 465.48c-8.96-6.3-17.5-13.17-25.56-20.54-2.6-2.38-5.16-4.82-7.66-7.3l-.01-.01c-14.91-27.49-23.38-58.99-23.38-92.45 0-67.19 49.67-108.42 37.89-140.82-9.89-27.18-50.22-14.72-37.89 13.25 12.33 27.98 9.38 48.6-17.86 58.17 0 0 9.55-30.25-8.1-47.9-6.67-6.67-14.6-16.28-19.99-28.35-6.21-13.93-9.04-31.13-2.62-50.9-.26 12.27 1.62 24.56 7.41 32.78 4.27 6.05 10.66 9.9 19.9 9.9 41.05 0 36.17-44.41 91.88-37.17 55.71 7.23 0 96.37-30.3 154.85-21.5 41.5-14.46 105.88 16.29 156.49z" fill="#bd5423"/><g><circle cx="177.372" cy="347.194" fill="#f6f1f1" r="69.208"/><circle cx="177.372" cy="347.194" fill="#bd5423" r="49.128"/><circle cx="177.372" cy="347.194" fill="#f6f1f1" r="19.24"/></g><path d="m415.56 66.07c-16.91 61.79-33.81 123.58-50.72 185.38-2.86 10.48-13.5 16.8-24.09 14.37-9.75-2.24-19.56-4.16-29.4-5.76-16.45-2.69-33-4.49-49.59-5.41-17.24-.95-34.53-.95-51.76 0-16.59.92-33.14 2.72-49.59 5.41-9.84 1.6-19.65 3.52-29.4 5.76-10.6 2.43-21.23-3.89-24.1-14.37-16.9-61.8-33.81-123.59-50.71-185.38 117.62-32.18 241.73-32.18 359.36 0z" fill="#f6f1f1"/><g fill="#e84d59"><path d="m210 254.65c-16.59.92-33.14 2.72-49.59 5.41-9.05-69.2-18.09-138.37-27.12-207.57 23.28-3.55 46.69-5.88 70.15-6.99 2.19 69.71 4.38 139.43 6.56 209.15z"/><path d="m338.47 52.49c-9.04 69.2-18.07 138.37-27.12 207.57-16.45-2.69-33-4.49-49.59-5.41 2.18-69.72 4.37-139.44 6.56-209.15 23.46 1.11 46.87 3.44 70.15 6.99z"/></g><path d="m415.561 76.076c-.874 0-1.761-.115-2.645-.357-115.821-31.685-238.26-31.684-354.079 0-5.326 1.46-10.827-1.68-12.284-7.007s1.68-10.827 7.007-12.284c119.274-32.63 245.361-32.629 364.634 0 5.327 1.457 8.464 6.957 7.007 12.284-1.216 4.444-5.245 7.364-9.64 7.364z" fill="#bd5423"/><path d="m442.38 91.004-10.264 9.518s-62.089-16.464-95.713 30.042c-31.804 43.989 10.811 115.761 30.73 161.052l27.526-65.229 9.122-41.701 47.566-47.566z" fill="#d9723e"/><path d="m339.43 498.09c-26.15 9.02-54.22 13.91-83.43 13.91-70.38 0-134.13-28.41-180.41-74.37-12.97-23.93-21.07-50.89-22.95-79.54l27.84-3.03c-4.34 38.05 60.8 168.03 258.95 143.03z" fill="#bd5423"/><path d="m388.16 282.76c13.18 29.32 14.2 64.5-15.48 103.84l-67.11-50.79c23.83-2.88 47.51-7.51 70.83-13.89 0-33.87-80.58-135.23-40-191.36 33.63-46.5 95.72-30.04 95.72-30.04-144.22 9.33-57.13 152.92-43.96 182.24z" fill="#bd5423"/><g><circle cx="315.787" cy="347.194" fill="#f6f1f1" r="69.208"/><circle cx="315.787" cy="347.194" fill="#bd5423" r="49.128"/><circle cx="315.787" cy="347.194" fill="#f6f1f1" r="19.24"/></g><path d="m439.218 149.25c-10.055 10.055-10.055 26.358 0 36.413s26.358 10.055 36.413 0" fill="#bd5423"/><circle cx="486.845" cy="229.112" fill="#d9723e" r="19.222"/><circle cx="486.845" cy="229.112" fill="#bd5423" r="8.796"/></g><path d="m462.76 406.97c-18.84 25.77-42.39 47.88-69.38 65.07-11.85 7.55-24.36 14.16-37.43 19.7-5.42 2.31-10.92 4.42-16.52 6.35-26.15 9.02-54.22 13.91-83.43 13.91-47.24 0-91.5-12.8-129.49-35.12-15.54-9.13-30.03-19.85-43.25-31.94 1.72.22 3.54.33 5.45.33 36.21 0 36.21-40 72.42-40s36.21 40 72.41 40c36.21 0 36.21-40 72.42-40s36.21 40 72.42 40 36.21-40 72.42-40c4.5 0 8.44.62 11.96 1.7z" fill="#80b4fb"/><path d="m355.95 491.74c-5.42 2.31-10.92 4.42-16.52 6.35-26.15 9.02-54.22 13.91-83.43 13.91-47.24 0-91.5-12.8-129.49-35.12 8.55-9.39 17.57-18.25 34.62-18.25 36.21 0 36.21 40 72.41 40 36.21 0 36.21-40 72.42-40 26.66 0 33.69 21.68 49.99 33.11z" fill="#5ea5ec"/></g></svg>