<svg id="Capa_1" enable-background="new 0 0 512 512" height="512" viewBox="0 0 512 512" width="512" xmlns="http://www.w3.org/2000/svg"><g><path d="m512 256c0 .67 0 1.33-.01 2-.28 36.74-8.3 71.63-22.51 103.13-6.67 14.8-14.71 28.86-23.96 42-13.45 19.12-29.46 36.32-47.52 51.09-21.7 17.76-46.37 32.021-73.15 41.93-27.68 10.25-57.61 15.85-88.85 15.85s-61.17-5.6-88.85-15.85c-26.78-9.91-51.45-24.17-73.15-41.93-15.14-12.39-28.84-26.47-40.8-41.979-2.3-2.98-4.54-6.021-6.71-9.11-6.91-9.82-13.15-20.15-18.65-30.92-1.86-3.64-3.63-7.34-5.32-11.08-9.41-20.86-16.11-43.21-19.63-66.59-1.91-12.571-2.89-25.441-2.89-38.541 0-55.02 17.36-105.98 46.9-147.72 19.79-27.96 45.05-51.78 74.22-69.9 39.16-24.33 85.38-38.38 134.88-38.38 34.16 0 66.77 6.69 96.56 18.84 28.74 11.71 54.87 28.5 77.28 49.24 50.53 46.76 82.16 113.65 82.16 187.92z" fill="#b1e4f9"/><path d="m404.44 290.01c-28.05 62.21-80.24 111.2-144.63 135.02-14.62-2.85-27.64-10.2-37.57-20.54-12.94 13.47-31.12 21.87-51.28 21.87s-38.34-8.4-51.28-21.87c-9.93 10.34-22.95 17.69-37.57 20.54-9.94-3.68-19.59-7.96-28.91-12.79-9.63-12.48-18.13-25.87-25.36-40.03-1.86-3.64-3.63-7.34-5.32-11.08-9.41-20.86-16.11-43.21-19.63-66.59 5.23 3.2 10.01 7.06 14.23 11.45 12.94-13.47 31.12-21.87 51.28-21.87 20.15 0 38.34 8.4 51.28 21.87 12.94-13.47 31.12-21.87 51.28-21.87s38.34 8.4 51.28 21.87c12.94-13.47 31.13-21.87 51.28-21.87 20.16 0 38.34 8.4 51.28 21.87 12.94-13.47 31.13-21.87 51.28-21.87 10.08 0 19.67 2.1 28.36 5.89z" fill="#57988b"/><path d="m333.58 454.22h-239.58c-27.34-22.36-49.97-50.27-66.16-82.01l71.34-164.94c.02-.06.04-.13.07-.19l118.65-1.08 26.07 41.03.02.03z" fill="#434d51"/><path d="m130.46 204.2 11.85 2.88c-.01.06-.01.13-.02.19l-34.63 246.95h-13.66c-27.34-22.36-49.97-50.27-66.16-82.01l71.34-164.94c.02-.06.04-.13.07-.19l11.55-5.58z" fill="#2f373b"/><path d="m511.99 258c-.28 36.74-8.3 71.63-22.51 103.13-16.38 36.33-41 68.16-71.48 93.09h-255.02l128.05-296.08v-.01l4.72-10.92c.01-.02.02-.05.03-.07l32.82-50.94c1.29-2.98 91.2-6.145 91.2-6.145l48.16 66.155c.02.02.03.05.04.08z" fill="#434d51"/><path d="m340.089 148.185-.339 26.175-50.69 279.86h-126.08l138.716-320.759s38.403 14.704 38.393 14.724z" fill="#2f373b"/><path d="m489.48 361.13c-28.05 62.21-80.24 111.2-144.63 135.02-14.62-2.85-27.64-10.2-37.57-20.54-12.94 13.47-31.12 21.87-51.28 21.87s-38.34-8.4-51.28-21.87c-9.93 10.34-22.95 17.69-37.57 20.54-64.39-23.82-116.58-72.81-144.63-135.02 8.69-3.79 18.28-5.89 28.36-5.89 20.15 0 38.34 8.4 51.28 21.87 12.94-13.47 31.12-21.87 51.28-21.87 20.15 0 38.34 8.4 51.28 21.87 12.94-13.47 31.12-21.87 51.28-21.87s38.34 8.4 51.28 21.87c12.94-13.47 31.13-21.87 51.28-21.87 20.16 0 38.34 8.4 51.28 21.87 12.94-13.47 31.13-21.87 51.28-21.87 10.08 0 19.67 2.1 28.36 5.89z" fill="#6ec17d"/><path d="m243.97 247.03c-3.07-7.11-9.74-10.78-16.43-10.78-5.91 0-11.84 2.86-15.33 8.75-5.95 10.02-19.76 11.75-28 3.51l-24.22-24.22c-4.8-4.8-11.91-6.47-18.34-4.3l-1.2.4-22.1 7.45c-12.6 4.24-24.28-8.36-19.17-20.57.02-.06.04-.13.07-.19l10.78-24.92 17.65-40.8c6.68-15.46 20.98-23.19 35.29-23.19 14.3 0 28.61 7.73 35.3 23.19z" fill="#f6f1f1"/><path d="m467.96 156.21c-2.2-5.02-6.77-7.43-11.34-7.43-5.28 0-10.54 3.23-12.1 9.38-2.66 10.51-16.56 12.82-22.48 3.74l-21.75-33.35c-4.96-7.62-16.15-7.51-20.97.19l-25.24 40.36c-3.2 5.11-9.2 6.87-14.33 5.26-2.61-.82-4.99-2.52-6.66-5.09l-15.48-23.89c-5.39-8.31-17.84-7.3-21.83 1.76l52.03-120.3c6.09-14.06 19.09-21.09 32.1-21.09s26.02 7.03 32.1 21.09z" fill="#f6f1f1"/><path d="m379.91 5.75c-5.45 0-10.89 7.03-13.44 21.09l-21.79 120.3c-.01.02-.01.05-.02.07l-4.91 27.15c-2.61-.82-4.99-2.52-6.66-5.09l-15.48-23.89c-5.39-8.31-17.84-7.3-21.83 1.76l52.03-120.3c6.09-14.06 19.09-21.09 32.1-21.09z" fill="#d0e2e7"/><path d="m162.97 118.17c-4.64 0-9.28 7.73-11.44 23.19l-5.72 40.8-3.5 24.92c-.01.06-.01.13-.02.19l-1.84 13.12-22.1 7.45c-12.6 4.24-24.28-8.36-19.17-20.57.02-.06.04-.13.07-.19l10.78-24.92 17.65-40.8c6.68-15.46 20.98-23.19 35.29-23.19z" fill="#d0e2e7"/><path d="m465.52 403.13c-10.19 14.48-21.84 27.86-34.74 39.91-4.13 3.87-8.4 7.6-12.78 11.18-21.7 17.76-46.37 32.021-73.15 41.93-27.68 10.25-57.61 15.85-88.85 15.85s-61.17-5.6-88.85-15.85c-26.78-9.91-51.45-24.17-73.15-41.93-4.38-3.59-8.64-7.31-12.77-11.18-10.15-9.48-19.53-19.78-28.03-30.8-2.3-2.98-4.54-6.021-6.71-9.11z" fill="#5ea5ec"/><path d="m430.78 443.04c-4.13 3.87-8.4 7.6-12.78 11.18-21.7 17.76-46.37 32.021-73.15 41.93-27.68 10.25-57.61 15.85-88.85 15.85s-61.17-5.6-88.85-15.85c-26.78-9.91-51.45-24.17-73.15-41.93-4.38-3.59-8.64-7.31-12.77-11.18z" fill="#80b4fb"/></g></svg>