<svg id="Capa_1" enable-background="new 0 0 512 512" height="512" viewBox="0 0 512 512" width="512" xmlns="http://www.w3.org/2000/svg"><g><path d="m512 256c0 68.46-26.88 130.65-70.66 176.58-43.82 45.99-104.59 75.69-172.29 79.09-4.32.22-8.67.33-13.05.33-5.76 0-11.47-.19-17.13-.56-6.38-.43-12.7-1.08-18.95-1.97-10.48-1.47-20.75-3.58-30.77-6.29-11.33-3.06-22.36-6.87-33.01-11.4-8.85-3.75-17.45-7.99-25.76-12.68-14.8-8.35-28.69-18.13-41.47-29.16-13.46-11.6-25.7-24.58-36.49-38.73-6.92-9.05-13.24-18.58-18.92-28.53-3.02-5.29-5.86-10.7-8.5-16.22-14.52-30.29-23.24-63.86-24.77-99.31 0-.01 0-.01 0-.01-.15-3.69-.23-7.41-.23-11.14 0-141.38 114.62-256 256-256s256 114.62 256 256z" fill="#80b4fb"/><path d="m269.05 511.67c-4.32.22-8.67.33-13.05.33-5.76 0-11.47-.19-17.13-.56l-12.63-126.83 29.86-2.98z" fill="#181e21"/><path d="m219.92 509.47c-10.48-1.47-20.75-3.58-30.77-6.29l-11.81-118.57 29.85-2.98z" fill="#181e21"/><path d="m512 115.87h-139.65l-.57-2.35-5.76-23.58-9.08-37.24c14.01 0 27.96.84 41.41 2.42 62.03 7.29 113.65 30.44 113.65 60.75z" fill="#2f373b"/><path d="m383.46 106.03c0 .157-.152.308-.431.454-13.015 6.806-19.816 21.598-18.551 36.231l9.392 108.605c-4.57 68.04-52.59 125.31-118.79 141.69-35.82 8.87-68.1 26.64-94.29 50.97-11.35 10.54-21.56 22.31-30.41 35.12-45.67-25.76-82.63-65.14-105.38-112.64l57.52-143.43c23.79-59.31 63.84-110.7 115.55-148.24l51.19-37.16c24.09-17.49 55.57-20.99 82.87-9.33.66.28 1.32.57 1.98.87 30.21 13.84 49.35 43.98 49.35 76.86z" fill="#2f373b"/><circle cx="336.741" cy="71.127" fill="#181e21" r="18.424"/><path d="m512 115.87h-112.53l-27.69-2.35-15.605-1.323c-5.245-.445-9.275-4.831-9.275-10.095 0-4.819 3.394-8.97 8.116-9.929l11.004-2.233 4.386-.891c14.072-2.86 24.876-14.178 27.08-28.368l.864-5.561c62.03 7.29 113.65 30.44 113.65 60.75z" fill="#434d51"/><path d="m332.13 28.3c-43.4-13.71-232.34 248.42-243.22 421.64-26.66-22.98-48.53-51.37-63.91-83.48l57.52-143.43c23.79-59.31 63.84-110.7 115.55-148.24l51.19-37.16c24.09-17.49 55.57-20.99 82.87-9.33z" fill="#181e21"/><path d="m241.17 157.9c0 33.27-11.58 65.48-32.76 91.14-48.06 58.2-134.33 159.31-155.99 162.17-6.92-9.05-13.24-18.58-18.92-28.53-3.02-5.29-5.86-10.7-8.5-16.22-14.52-30.29-23.24-63.86-24.77-99.31 0-.01 0-.01 0-.01 45.71-72.81 103.89-123.46 151.63-156.3 23.58-16.23 52.48-11.76 70.9 5.02 0 .01.01.01.01.01 11.11 10.14 18.4 24.76 18.4 42.03z" fill="#434d51"/><path d="m222.76 115.86c-32.73-22.09-182.08 140.56-189.26 266.82-3.02-5.29-5.86-10.7-8.5-16.22-14.52-30.29-23.24-63.87-24.77-99.32 45.71-72.81 103.89-123.46 151.63-156.3 23.58-16.23 52.48-11.76 70.9 5.02z" fill="#2f373b"/><path d="m441.34 432.58c-43.82 45.99-104.59 75.69-172.29 79.09-4.32.22-8.67.33-13.05.33-5.76 0-11.47-.19-17.13-.56-6.38-.43-12.7-1.08-18.95-1.97-10.48-1.47-20.75-3.58-30.77-6.29-11.33-3.06-22.36-6.87-33.01-11.4l231.478-94.07c11.027-4.481 23.082 3.632 23.082 15.535 0 8.188 5.914 15.179 13.989 16.536z" fill="#f6f1f1"/></g></svg>