<svg id="Capa_1" enable-background="new 0 0 512 512" height="512" viewBox="0 0 512 512" width="512" xmlns="http://www.w3.org/2000/svg"><g><path d="m512 256c0 9.05-.47 17.99-1.39 26.79-10.1 97.14-74.53 178.15-162.37 212.08-28.62 11.06-59.72 17.13-92.24 17.13-68.18 0-130.13-26.66-176.01-70.1-43.17-40.89-72.11-96.67-78.6-159.11-.92-8.8-1.39-17.74-1.39-26.79 0-40.22 9.28-78.27 25.81-112.13 13.33-27.33 31.39-51.93 53.1-72.74 45.99-44.05 108.38-71.13 177.09-71.13 35.15 0 68.64 7.08 99.13 19.91 15.46 6.49 30.14 14.46 43.88 23.73 68.16 46 112.99 123.95 112.99 212.36z" fill="#b1e4f9"/><path d="m510.61 282.79c-10.1 97.14-74.53 178.15-162.37 212.08-28.62 11.06-59.72 17.13-92.24 17.13-68.18 0-130.13-26.66-176.01-70.1-43.17-40.89-72.11-96.67-78.6-159.11z" fill="#80b4fb"/><g><path d="m469.36 249.98c-1.04 2.03-2.34 3.95-3.92 5.76-16.88 19.28-40.74 32.37-61.07 40.79-2.42 1.01-4.8 1.95-7.1 2.82-15.84 5.99-33.26-3.32-37.36-19.75-2.37-9.4-5.62-18.94-9.5-28.02-5.93 2.17-12.47 3.05-19.3 2.34-18.64-1.98-34.07-16.25-37.5-34.69-1.19-6.36-.9-12.49.5-18.19-3 2.74-5.66 7-7.85 13.06-20.06 55.18 64.5 125.39 64.5 239.81 0 13.87-.85 27.54-2.52 40.96-28.62 11.06-59.72 17.13-92.24 17.13-3.95 0-7.87-.09-11.78-.27-63.52-2.87-121.01-28.91-164.23-69.83 13.66-.98 27.3-2.3 40.91-3.95 40.58-4.9 80.91-12.79 120.62-23.65 0-57.68-137.22-230.29-68.12-325.88 57.27-79.18 163.01-51.15 163.01-51.15l18.72-17.36 7.59-7.04 10.06-9.34c7.87-7.28 20.69-2.65 22.07 7.99l4.16 32.12 2.59 20.01c30.17 13.83 38.91 47.37 40.12 77.36 1.22 29.85-5.01 56.22-5.01 56.22l23.77 16.82c1.35.94 2.58 1.98 3.68 3.1 8.7 8.67 10.73 22.02 5.2 32.83z" fill="#d9723e"/><g fill="#bd5423"><path d="m261.55 347.61c21.01 46.75 23.87 102.25-17.33 164.12-63.52-2.87-121.01-28.91-164.23-69.83 13.66-.98 27.3-2.3 40.91-3.95 40.58-4.9 80.91-12.79 120.62-23.65 0-57.68-137.22-230.29-68.12-325.88 57.27-79.18 163.01-51.15 163.01-51.15-245.6 15.89-97.29 260.41-74.86 310.34z"/><path d="m357.914 129.67c-5.519-5.519-14.916-3.95-18.2 3.131-7.521 16.217-4.593 36.084 8.782 49.46s33.243 16.303 49.46 8.782c7.081-3.284 8.65-12.68 3.131-18.2z"/><circle cx="429.602" cy="256.251" r="14.98"/></g></g><path d="m355.788 45.104 17.869-15.266c3.496-2.987 8.844-.153 8.336 4.417l-2.285 20.562c-.446 4.01-4.43 6.624-8.286 5.437l-13.349-4.111c-4.846-1.494-6.14-7.745-2.285-11.039z" fill="#bd5423"/><circle cx="380.032" cy="164.074" fill="#d9723e" r="11.994"/><path d="m404.37 296.53c-2.42 1.01-4.8 1.95-7.1 2.82-15.84 5.99-33.26-3.32-37.36-19.75-2.37-9.4-5.62-18.94-9.5-28.02-5.93 2.17-12.47 3.05-19.3 2.34-18.64-1.98-34.07-16.25-37.5-34.69-1.19-6.36-.9-12.49.5-18.19 5.51-15.93 24.14-24.97 24.14-24.97s-12.22 28.68 4.89 45.78c17.1 17.11 38.06 9.78 38.06 9.78s7.67 52.64 43.17 64.9z" fill="#bd5423"/><g><path d="m244.35 423.32c0 33.62-15.27 63.68-39.25 83.62-47.9-9.67-90.96-32.7-125.11-65.04-17.86-16.92-33.29-36.38-45.69-57.82 15.73-40.63 55.19-69.44 101.37-69.44 60.02 0 108.68 48.66 108.68 108.68z" fill="#f6f1f1"/><path d="m212.82 423.32c0 32.54-20.14 60.37-48.63 71.71-31.55-12.12-60.1-30.3-84.2-53.13-7.57-7.17-14.7-14.8-21.35-22.85 2.21-40.62 35.85-72.88 77.03-72.88 42.61 0 77.15 34.54 77.15 77.15z" fill="#bd5423"/><circle cx="135.668" cy="423.32" fill="#f6f1f1" r="30.214"/></g><path d="m139.33 89.31c0 10.05-8.15 18.19-18.19 18.19h-34.29c10.04 0 18.19 8.14 18.19 18.19 0 10.04-8.15 18.18-18.19 18.18h-61.04c13.33-27.33 31.39-51.93 53.1-72.74h42.23c5.02 0 9.57 2.03 12.86 5.33 3.29 3.28 5.33 7.83 5.33 12.85z" fill="#f6f1f1"/></g></svg>