<svg id="Capa_1" enable-background="new 0 0 512 512" height="512" viewBox="0 0 512 512" width="512" xmlns="http://www.w3.org/2000/svg"><g><circle cx="256" cy="256" fill="#e84d59" r="256"/><g><path d="m410.689 256.51-154.694-12.18-154.694 12.18c0 53.632-110.206 141.648 42.186 197.024 73.853 26.836 102.547 31.085 112.508 28.336 9.961 2.749 38.655-1.5 112.508-28.336 152.392-55.376 42.186-143.392 42.186-197.024z" fill="#2f373b"/><g fill="#ffbb16"><path d="m143.864 294.777c-73.338-17.498-114.511-84.96-108.904-105.896 5.523-20.581 26.877-12.582 27.603-12.302l-.373-.27c-4.377-3.232-43.929-33.536-32.083-65.609 12.312-33.331 31.757-11.874 32.455-11.092.009.009.019.019.019.019 0-.009-.009-.009-.009-.019-.559-1.164-28.488-60.301 4.6-74.158 25.219-10.561 39.477 98.772 49.88 170.928 2.608 18.113 4.973 33.88 7.208 44.813.661 3.232 1.304 6.035 1.946 8.363z"/><path d="m385.797 249.55c11.442-41.596 25.614-238.097 59.033-224.099s4.592 74.175 4.592 74.175 19.931-22.858 32.469 11.074-32.469 65.888-32.469 65.888 22.003-8.639 27.614 12.293-35.564 88.399-108.896 105.901"/></g><path d="m151.203 269.791c-.447-.475-12.069-12.842-26.942-28.6-22.071-23.375-51.286-54.201-61.679-64.603l-.019-.009-.373-.27c-4.377-3.232-43.929-33.536-32.083-65.609 12.312-33.331 31.757-11.874 32.455-11.092h.009c0 .009.009.009.009.019 17.443 24.465 37.717 62.703 54.471 96.751 19.316 39.263 33.947 72.929 34.152 73.413z" fill="#ff931f"/><path d="m360.792 269.791c.447-.475 12.069-12.842 26.942-28.6 22.071-23.375 51.286-54.201 61.679-64.603l.019-.009.373-.27c4.377-3.232 43.929-33.536 32.083-65.609-12.312-33.331-31.757-11.874-32.455-11.092h-.009c0 .009-.009.009-.009.019-17.443 24.465-37.717 62.703-54.471 96.751-19.317 39.263-33.947 72.929-34.152 73.413z" fill="#ff931f"/><path d="m398.41 468.76c-12.34 8.28-25.44 15.52-39.18 21.57-10.65 4.7-21.68 8.7-33.03 11.92-22.3 6.35-45.85 9.75-70.2 9.75-24.34 0-47.89-3.4-70.2-9.74-7.24-2.06-14.36-4.44-21.33-7.12-.43-.16-.86-.32-1.29-.49-3.51-1.36-6.98-2.81-10.41-4.32-13.74-6.06-26.84-13.29-39.19-21.58 10.39-14.37 23.76-26.43 39.19-35.32 10.2-5.87 21.3-10.34 33.03-13.15 1.81-.44 3.64-.84 5.48-1.19 3.47-.68 7-1.2 10.57-1.57 1.03-.11 2.05-.21 3.09-.29 3.38-.28 6.8-.42 10.26-.42h81.59c4.52 0 8.97.24 13.35.7 3.57.37 7.09.9 10.57 1.56 1.39.27 2.77.56 4.14.87.45.12.91.21 1.35.33 11.74 2.82 22.83 7.29 33.03 13.16 15.43 8.9 28.79 20.96 39.18 35.33z" fill="#f6f1f1"/><path d="m215.2 416.81c-29.36 0-49.26 42.43-50.73 78.33-.43-.16-.86-.32-1.29-.49-3.51-1.36-6.98-2.81-10.41-4.32-13.74-6.06-26.84-13.29-39.19-21.58 10.39-14.37 23.76-26.43 39.19-35.32 10.2-5.87 21.3-10.34 33.03-13.15 1.81-.44 3.64-.84 5.48-1.19 3.47-.68 7-1.2 10.57-1.57 1.03-.11 2.05-.21 3.09-.29 3.38-.28 6.8-.42 10.26-.42z" fill="#d0e2e7"/><path d="m300.706 368.538v54.869c0 20.088-13.245 37.067-31.489 42.707-4.176 1.296-8.627 1.997-13.23 1.997-24.691 0-44.703-20.012-44.703-44.703v-54.869h89.422z" fill="#efb29a"/><path d="m300.706 419.932v3.475c0 20.088-13.245 37.067-31.489 42.707-16.461-5.06-28.837-19.372-31.123-36.884 2.987.183 5.99.274 9.008.274 8.459 0 16.75-.671 24.828-1.997 9.953-1.6 19.57-4.161 28.776-7.575z" fill="#f9c5ac"/><path d="m410.7 199.66v56.85c0 76.99-56.24 140.85-129.88 152.71-1.97.32-3.96.61-5.96.85-5.97.74-12.04 1.12-18.2 1.14-85.45.36-155.37-70.64-155.37-156.09v-55.46c0-.75.01-1.5.02-2.25 1.2-81.63 67.74-147.43 149.66-147.43h10.05c35.55 0 68.2 12.39 93.88 33.09 34.03 27.44 55.8 69.47 55.8 116.59z" fill="#f9c5ac"/><g fill="#efb29a"><path d="m274.86 410.07c-5.97.74-12.04 1.12-18.2 1.14-85.45.36-155.37-70.64-155.37-156.09v-55.46c0-.75.01-1.5.02-2.25l53.9-98.4v159.11c0 73.71 51.01 135.48 119.65 151.95z"/><g><circle cx="341.181" cy="296.496" r="19.082"/><circle cx="170.805" cy="296.496" r="19.082"/></g><path d="m273.377 297.923h-34.757c-4.14 0-7.497-3.356-7.497-7.496 0-4.14 3.356-7.497 7.497-7.497h34.757c4.14 0 7.497 3.356 7.497 7.497 0 4.14-3.357 7.496-7.497 7.496z"/></g><path d="m410.7 152.08c0-73.922-69.262-133.847-154.7-133.847s-154.7 59.925-154.7 133.847" fill="#ffbb16"/><path d="m256 18.23c-36.94 0-66.89 59.93-66.89 133.85h-87.81c0-73.92 69.26-133.85 154.7-133.85z" fill="#ff931f"/><path d="m255.999 345.352c-12.828 0-25.656-3.214-37.349-9.642-3.298-1.813-4.502-5.957-2.689-9.255 1.814-3.299 5.958-4.501 9.255-2.689 19.276 10.597 42.292 10.596 61.566 0 3.296-1.813 7.441-.61 9.255 2.689 1.814 3.298.61 7.442-2.689 9.255-11.693 6.428-24.521 9.642-37.349 9.642z" fill="#dd9f8a"/><g><path d="m343.992 244.327c0-17.807-14.435-32.243-32.243-32.243-17.807 0-32.243 14.435-32.243 32.243z" fill="#efb29a"/><circle cx="311.75" cy="258.054" fill="#2f373b" r="22.023"/><circle cx="320.928" cy="254.168" fill="#fff" r="9.437"/><path d="m232.482 244.327c0-17.807-14.435-32.243-32.243-32.243s-32.243 14.435-32.243 32.243z" fill="#efb29a"/><circle cx="200.24" cy="258.054" fill="#2f373b" r="22.023"/><path d="m205.207 279.51c-1.6.38-3.26.57-4.97.57-12.16 0-22.02-9.86-22.02-22.03 0-12.16 9.86-22.02 22.02-22.02 1.71 0 3.37.2 4.97.57-9.78 2.25-17.06 11-17.06 21.45 0 10.46 7.28 19.21 17.06 21.46z" fill="#181e21"/><path d="m316.717 279.51c-1.6.38-3.26.57-4.97.57-12.16 0-22.02-9.86-22.02-22.03 0-12.16 9.86-22.02 22.02-22.02 1.71 0 3.37.2 4.97.57-9.78 2.25-17.06 11-17.06 21.45 0 10.46 7.28 19.21 17.06 21.46z" fill="#181e21"/><circle cx="209.417" cy="254.168" fill="#fff" r="9.437"/></g><path d="m420.62 140.2v122.83c0 7.95-6.43 14.38-14.38 14.38h-6.15c-7.94 0-14.38-6.43-14.38-14.38v-18.7c0-29.33-23.78-53.1-53.1-53.1-11.93 0-22.95 3.94-31.82 10.59-8.87 6.64-15.59 16-18.93 26.84-2.85 9.24-11.24 15.67-20.92 15.67h-9.89c-9.68 0-18.07-6.43-20.92-15.67-6.68-21.68-26.88-37.43-50.75-37.43-10.13 0-19.61 2.84-27.66 7.77-3.6 2.2-6.92 4.81-9.88 7.78-9.62 9.61-15.56 22.88-15.56 37.55v18.7c0 7.95-6.44 14.38-14.38 14.38h-6.15c-7.95 0-14.38-6.43-14.38-14.38v-122.83c0-13.44 10.89-24.33 24.33-24.33h280.59c13.44 0 24.33 10.89 24.33 24.33z" fill="#f6f1f1"/><path d="m174.5 115.87c-12.58 0-22.78 10.2-22.78 22.78v60.35c-3.6 2.2-6.92 4.81-9.88 7.78-9.62 9.61-15.56 22.88-15.56 37.55v18.7c0 7.95-6.44 14.38-14.38 14.38h-6.15c-7.95 0-14.38-6.43-14.38-14.38v-122.83c0-13.44 10.89-24.33 24.33-24.33z" fill="#d0e2e7"/><g><circle cx="126.655" cy="157.013" fill="#ff931f" r="16.824"/><g fill="#ffbb16"><circle cx="191.325" cy="157.013" r="16.824"/><circle cx="255.995" cy="157.013" r="16.824"/><circle cx="320.665" cy="157.013" r="16.824"/><circle cx="385.335" cy="157.013" r="16.824"/></g></g></g></g></svg>