<svg id="Capa_1" enable-background="new 0 0 512 512" height="512" viewBox="0 0 512 512" width="512" xmlns="http://www.w3.org/2000/svg"><g><path d="m512 256c0 74.83-32.11 142.16-83.3 188.98-7.3 6.68-15 12.94-23.04 18.74-42.09 30.38-93.79 48.28-149.66 48.28-23.16 0-45.6-3.08-66.93-8.84-39.98-10.8-76.08-31.04-105.77-58.18-51.19-46.82-83.3-114.15-83.3-188.98 0-141.38 114.62-256 256-256s256 114.62 256 256z" fill="#80b4fb"/><path d="m428.7 196.64v248.34c-45.53 41.62-106.15 67.02-172.7 67.02s-127.17-25.4-172.7-67.02v-248.34z" fill="#f6f1f1"/><path d="m83.299 196.64h345.402v73.151h-345.402z" fill="#d0e2e7"/><path d="m189.07 196.64v306.52c-39.98-10.8-76.08-31.04-105.77-58.18v-248.34z" fill="#d0e2e7"/><path d="m477.1 42.4v178.56c0 9.75-7.91 17.66-17.67 17.66h-406.86c-9.76 0-17.67-7.91-17.67-17.66v-178.56c0-9.75 7.91-17.66 17.67-17.66h48.73c9.75 0 17.66 7.91 17.66 17.66v38.95c0 4.87 1.98 9.29 5.17 12.49 3.2 3.19 7.61 5.17 12.49 5.17 9.76 0 17.66-7.91 17.66-17.66v-38.95c0-9.75 7.91-17.66 17.67-17.66h48.72c9.76 0 17.67 7.91 17.67 17.66v38.95c0 4.87 1.98 9.29 5.17 12.49 3.2 3.19 7.61 5.17 12.49 5.17 9.75 0 17.66-7.91 17.66-17.66v-38.95c0-9.75 7.91-17.66 17.67-17.66h48.72c9.76 0 17.67 7.91 17.67 17.66v38.95c0 4.87 1.98 9.29 5.17 12.49 3.19 3.19 7.61 5.17 12.49 5.17 9.75 0 17.66-7.91 17.66-17.66v-38.95c0-9.75 7.91-17.66 17.66-17.66h48.73c9.76 0 17.67 7.91 17.67 17.66z" fill="#f6f1f1"/><g><path d="m136.182 220.96v-98.882-23.068-.022c-9.551-.235-17.225-8.034-17.225-17.641v-38.945c0-9.755-7.908-17.663-17.663-17.663h-48.728c-9.755 0-17.663 7.908-17.663 17.663v56.608 23.068 98.882c0 9.755 7.908 17.663 17.663 17.663h101.279c-9.755 0-17.663-7.908-17.663-17.663z" fill="#d0e2e7"/></g><path d="m197.853 431.21v-98.285c0-32.062 26.085-58.147 58.147-58.147s58.147 26.085 58.147 58.147v98.285z" fill="#d0e2e7"/><path d="m294.15 332.92v78.29h-76.3v-78.29c0-21.06 17.08-38.14 38.15-38.14s38.15 17.08 38.15 38.14z" fill="#181e21"/><path d="m294.15 351.9v59.31h-76.3v-59.31c9.14-10.86 22.84-17.76 38.15-17.76s29.01 6.9 38.15 17.76z" fill="#2f373b"/><g fill="#d0e2e7"><path d="m213.923 164.187h-37.247c-7.977 0-14.444-6.467-14.444-14.444v-3.618c0-7.977 6.467-14.444 14.444-14.444h37.247c7.977 0 14.444 6.467 14.444 14.444v3.618c0 7.977-6.467 14.444-14.444 14.444z"/><path d="m246.991 207.81h-37.247c-7.977 0-14.444-6.467-14.444-14.444v-3.618c0-7.977 6.467-14.444 14.444-14.444h37.247c7.977 0 14.444 6.467 14.444 14.444v3.618c0 7.977-6.467 14.444-14.444 14.444z"/><path d="m399.733 327.284h-37.247c-7.977 0-14.444-6.467-14.444-14.444v-3.618c0-7.977 6.467-14.444 14.444-14.444h37.247c7.977 0 14.444 6.467 14.444 14.444v3.618c.001 7.977-6.466 14.444-14.444 14.444z"/><path d="m374.796 369.248h-37.247c-7.977 0-14.444-6.467-14.444-14.444v-3.618c0-7.977 6.467-14.444 14.444-14.444h37.247c7.977 0 14.444 6.467 14.444 14.444v3.618c.001 7.977-6.466 14.444-14.444 14.444z"/><path d="m344.056 479.973h-37.247c-7.977 0-14.444-6.467-14.444-14.444v-3.618c0-7.977 6.467-14.444 14.444-14.444h37.247c7.977 0 14.444 6.467 14.444 14.444v3.618c0 7.977-6.466 14.444-14.444 14.444z"/><path d="m428.7 431.21v13.77c-7.3 6.68-15 12.94-23.04 18.74h-1.98c-7.97 0-14.44-6.47-14.44-14.45v-3.62c0-7.97 6.47-14.44 14.44-14.44z"/><path d="m403.696 168.333h-37.247c-7.977 0-14.444-6.467-14.444-14.444v-3.618c0-7.977 6.467-14.444 14.444-14.444h37.247c7.977 0 14.444 6.467 14.444 14.444v3.618c0 7.978-6.466 14.444-14.444 14.444z"/><path d="m477.1 135.83v32.5h-33.95c-7.98 0-14.45-6.46-14.45-14.44v-3.62c0-7.98 6.47-14.44 14.45-14.44z"/><path d="m440.932 207.81h-37.247c-7.977 0-14.444-6.467-14.444-14.444v-3.618c0-7.977 6.467-14.444 14.444-14.444h37.247c7.977 0 14.444 6.467 14.444 14.444v3.618c0 7.977-6.467 14.444-14.444 14.444z"/></g></g></svg>