<svg id="Layer_1" enable-background="new 0 0 401 393" height="512" viewBox="0 0 401 393" width="512" xmlns="http://www.w3.org/2000/svg" xmlns:xodm="http://www.corel.com/coreldraw/odm/2003"><g id="Layer_x0020_1" clip-rule="evenodd" fill-rule="evenodd"><path d="m200.5 0c110.674 0 200.377 77.543 200.377 173.237v48.112c-14.275 228.751-386.655 228.927-400.754-.529 0-15.861 0-31.722 0-47.583 0-95.694 89.703-173.237 200.377-173.237z" fill="#344656"/><g id="_2320301004976" fill="#ac75c2"><path d="m18.451 245.317c6.521 32.074 21.324 58.333 41.767 78.776v-27.493c-17.447-14.627-31.545-31.898-41.767-51.283zm56.747 91.993c4.758 3.877 9.869 7.402 14.98 10.574v-30.136c-5.111-2.996-10.222-6.168-14.98-9.517zm30.136 19.034c22.205 11.103 47.231 17.976 72.608 20.619v-31.722c-26.083-2.643-50.579-9.517-72.608-19.738zm87.588 21.5c5.111.176 10.045.176 15.156 0v-31.722c-2.467.176-5.111.176-7.578.176s-4.935 0-7.578-.176zm30.136-.881c25.378-2.643 50.403-9.34 72.784-20.619v-30.841c-22.205 10.221-46.702 17.095-72.784 19.738zm87.764-28.902c5.111-3.348 10.221-6.873 14.98-10.574v-29.255c-4.758 3.348-9.869 6.521-14.98 9.517zm30.136-23.968c20.267-20.443 35.07-46.702 41.767-78.776-10.398 19.386-24.496 36.657-41.767 51.284z"/><path d="m200.5 14.804c102.392 0 185.397 70.846 185.397 158.257s-83.005 158.257-185.397 158.257-185.397-70.845-185.397-158.257 83.005-158.257 185.397-158.257zm0 14.979c94.109 0 170.594 64.149 170.594 143.278s-76.485 143.278-170.594 143.278-170.418-64.149-170.418-143.278 76.309-143.278 170.418-143.278z"/><path d="m200.5 44.763c86.002 0 155.614 57.452 155.614 128.298s-69.612 128.474-155.614 128.474c-85.826 0-155.614-57.628-155.614-128.474s69.788-128.298 155.614-128.298zm53.399 94.637c-1.762-19.033-18.328-25.378-39.124-27.14v-26.434h-16.037v25.73c-4.23 0-8.459.176-12.865.176v-25.73h-16.037v26.435c-3.525 0-6.873.176-10.222.176v-.176h-22.205v17.271s11.984-.352 11.808 0c6.521 0 8.635 3.701 9.164 7.049l.176 29.96c.352 0 1.057 0 1.586.176-.529 0-1.057 0-1.586 0v42.12c-.176 2.115-1.41 5.287-5.992 5.463.176.176-11.631 0-11.631 0l-3.172 19.209 20.972-.176c3.877 0 7.754.176 11.455.176v26.611h16.213l-.176-26.435c4.406.176 8.635.176 12.865.176v26.259h16.213l-.176-26.787c27.14-1.586 45.997-8.459 48.288-33.837 1.762-20.443-7.754-29.607-23.263-33.132 9.34-4.758 15.156-13.217 13.746-27.14zm-22.382 57.276c.176 19.914-34.013 17.8-44.939 17.8l-.176-35.423c10.926 0 45.115-3.349 45.115 17.623zm-7.578-50.05c0 18.152-28.374 16.213-37.538 16.213v-32.074c8.988 0 37.538-2.996 37.538 15.861z"/></g></g></svg>
