<svg id="Layer_1" enable-background="new 0 0 401 393" height="512" viewBox="0 0 401 393" width="512" xmlns="http://www.w3.org/2000/svg" xmlns:xodm="http://www.corel.com/coreldraw/odm/2003"><g id="Layer_x0020_1" clip-rule="evenodd" fill-rule="evenodd"><path d="m200.5 0c110.691 0 200.453 77.437 200.453 173.246v48.137c-14.185 228.823-386.721 229.055-400.906-.466 0-15.813 0-31.859 0-47.672 0-95.808 89.762-173.245 200.453-173.245z" fill="#344656"/><g id="_2320263099136" fill="#ac75c2"><path d="m18.418 245.567c6.511 31.859 21.394 58.136 41.625 78.6v-27.44c-17.208-14.651-31.393-32.092-41.625-51.16zm56.741 91.855c4.883 3.953 9.767 7.441 15.115 10.697v-30.231c-5.349-3.023-10.232-6.279-15.115-9.534zm29.998 19.069c22.324 11.162 47.207 17.906 72.786 20.464v-31.626c-26.045-2.558-50.695-9.534-72.786-19.766zm87.902 21.626h14.883v-31.859c-2.325 0-4.883 0-7.441 0s-5.116 0-7.441 0zm29.998-1.163c25.347-2.325 50.462-9.302 72.786-20.464v-30.928c-22.092 10.232-46.741 17.208-72.786 19.766zm87.669-28.835c5.349-3.256 10.232-6.744 15.115-10.464v-29.301c-4.883 3.256-9.767 6.511-15.115 9.534zm30.231-23.952c20.231-20.464 35.114-46.741 41.625-78.6-10.232 19.069-24.417 36.509-41.625 51.16z"/><path d="m200.5 14.883c102.552 0 185.57 70.926 185.57 158.363s-83.018 158.13-185.57 158.13-185.57-70.694-185.57-158.13 83.018-158.363 185.57-158.363zm0 14.883c94.18 0 170.455 64.182 170.455 143.48 0 79.065-76.275 143.247-170.455 143.247s-170.455-64.182-170.455-143.247c0-79.298 76.275-143.48 170.455-143.48z"/><path d="m200.5 44.881c86.041 0 155.572 57.438 155.572 128.365s-69.531 128.364-155.572 128.364-155.572-57.438-155.572-128.364 69.531-128.365 155.572-128.365zm-64.182 128.365.233 37.672 31.859 18.604v22.092l-50.695-29.766v-59.764zm0-37.673v21.859l-18.604-10.93v-22.092l18.604-10.93 18.836 10.93zm45.578-11.162 18.604-10.93 18.604 10.93-18.604 11.162zm-32.091 78.6v-22.091l18.604 11.162v21.859zm32.091 34.417 18.604 11.162 18.604-11.162v22.092l-18.604 10.93-18.604-10.93zm63.95-113.017 18.604-10.93 18.836 10.93v22.092l-18.836 10.93v-21.859zm18.604 86.507.233-37.672 18.604-11.162v59.764l-50.695 29.766v-22.092zm-13.255-7.907-18.604 10.93v-21.859l18.604-11.162zm0-59.764v22.092l-32.091 18.836v37.672l-18.604 10.93-18.604-10.93v-37.672l-32.091-18.836v-22.092l18.836-10.93 31.859 18.836 32.091-18.836zm-101.39-37.439 50.695-29.999 50.695 29.998-18.604 10.93-32.091-18.836-32.091 18.836z"/></g></g></svg>
