<svg id="Layer_1" enable-background="new 0 0 496 496" height="512" viewBox="0 0 496 496" width="512" xmlns="http://www.w3.org/2000/svg"><g><path d="m496 248c0 16.95-1.7 33.5-4.95 49.5-10.07 49.78-35.06 94.14-70.1 128.23-34.32 14.76-62.72 32.9-86.58 54.81h-.01c-26.89 10-55.99 15.46-86.36 15.46-59.05 0-113.28-20.64-155.87-55.1-1.94-4.07-5.03-7.59-11.02-9.46-20.9-19.02-38.53-41.57-51.96-66.7-18.61-34.79-29.15-74.53-29.15-116.74 0-136.97 111.03-248 248-248s248 111.03 248 248z" fill="#755377"/><path d="m491.05 297.5c-10.07 49.78-35.06 94.14-70.1 128.23-34.32 14.76-62.72 32.9-86.58 54.81h-.01c-26.89 10-55.99 15.46-86.36 15.46-59.05 0-113.28-20.64-155.87-55.1-1.94-4.07-5.03-7.59-11.02-9.46-20.9-19.02-38.53-41.57-51.96-66.7 3.6-7.34 6.39-15.1 8.11-23.31 5.25-25.02-.1-50.9-.19-76.45-.19-55.35 25.39-109.48 65.51-147.6s93.85-60.61 148.85-66.76c38.19-4.27 79.5-.1 110.04 23.23 30.99 23.68 45.51 62.38 62.12 97.67 20.1 42.71 45.5 83.89 67.46 125.98z" fill="#5b3c5c"/><path d="m328.94 371.8v59.77c0 12.48-55.48 22.6-123.91 22.6-50.2 0-93.43-5.44-112.9-13.27-3.77-3.05-7.44-6.2-11.02-9.46v-59.64z" fill="#fbc520"/><path d="m328.94 371.8v59.77c0 12.48-55.48 22.6-123.91 22.6-50.2 0-93.43-5.44-112.9-13.27-3.77-3.05-7.44-6.2-11.02-9.46v-23.13c2.89 1.66 5.51 3.27 7.55 4.23 7.36 3.45 14.78 6.76 22.26 9.92 8.36 3.53 17.13 6.92 26.19 6.41 9.05-.5 18.46-6.01 20.61-14.82 3.483-14.294-7.443-25.652-1.77-42.902z" fill="#fbb01d"/><path d="m328.94 371.8c0 12.48-55.48 22.6-123.91 22.6-17.52 0-34.18-.66-49.29-1.86-43.92-3.47-74.63-11.45-74.63-20.74 0-3.31 3.91-6.46 10.94-9.3h.01c19.44-7.84 62.71-13.3 112.97-13.3 68.43 0 123.91 10.12 123.91 22.6z" fill="#fbda26"/><path d="m328.94 371.8c0 12.48-55.48 22.6-123.91 22.6-17.52 0-34.18-.66-49.29-1.86-7.76-21.39-31.19-23.65-47.28-27.24-5.42-1.2-10.89-2.14-16.4-2.8 19.44-7.84 62.71-13.3 112.97-13.3 68.43 0 123.91 10.12 123.91 22.6z" fill="#fbc520"/><path d="m109.215 293.698v59.77c0 12.481 55.479 22.599 123.915 22.599s123.915-10.118 123.915-22.599v-59.77z" fill="#fbb01d"/><ellipse cx="233.13" cy="293.698" fill="#fbda26" rx="123.915" ry="22.599"/><path d="m322.26 231.55v59.77c0 12.48-55.47 22.6-123.91 22.6-14.75 0-28.89-.47-42.01-1.33-47.76-3.14-81.91-11.48-81.91-21.27v-59.77z" fill="#fbc520"/><path d="m322.26 231.55v59.77c0 12.48-55.47 22.6-123.91 22.6-14.75 0-28.89-.47-42.01-1.33-.87-8.27-.3-16.68 1.85-24.72 2.86-10.69 8.27-20.79 9.09-31.83.65-8.74-2.14-17.36-7.13-24.49z" fill="#fbb01d"/><path d="m322.26 231.55c0 11.77-49.36 21.44-112.4 22.5-3.79.07-7.63.1-11.51.1-68.44 0-123.92-10.12-123.92-22.6 0-8.61 26.41-16.1 65.26-19.91 17.46-1.72 37.44-2.69 58.66-2.69 68.44 0 123.91 10.12 123.91 22.6z" fill="#fbda26"/><path d="m322.26 231.55c0 11.77-49.36 21.44-112.4 22.5-1.6-.97-3.17-1.98-4.72-3.04-12-8.22-22.82-19.47-37.11-22.19-7.73-1.47-16.52-.51-22.59-5.5-3.45-2.84-5.29-7.18-5.75-11.68 17.46-1.72 37.44-2.69 58.66-2.69 68.44 0 123.91 10.12 123.91 22.6z" fill="#fbc520"/><path d="m372.45 189.38c-16.35 10.41-55.86 21.64-102.78 28.22-62.93 8.84-115.36 5.98-117.09-6.38l-2.87-20.41-5.44-38.782 227.909-31.987 8.301 59.189c.44 3.15-2.44 6.61-8.03 10.15z" fill="#fbc520"/><path d="m372.45 189.38c-16.35 10.41-55.86 21.64-102.78 28.22-62.93 8.84-115.36 5.98-117.09-6.38l-2.87-20.41c6.08 5.56 13.21 10.03 20.6 13.54 11.6 5.51 24.73 9.36 37.24 6.44 11.41-2.65 20.75-10.5 30.63-16.8 16.94-10.78 36.52-17.37 56.53-19 24.92-2.04 49.99 3.52 73.28 12.61 1.49.58 2.98 1.18 4.46 1.78z" fill="#fbb01d"/><g><path d="m195.833 204.403c-2.944 0-5.514-2.168-5.935-5.167l-5.864-41.785c-.46-3.282 1.827-6.315 5.108-6.776 3.284-.458 6.315 1.827 6.776 5.108l5.864 41.785c.46 3.282-1.827 6.315-5.108 6.776-.282.039-.563.059-.841.059z" fill="#fbda26"/></g><path d="m372.179 120.04c-1.735-12.36-54.161-15.219-117.096-6.387s-112.547 26.014-110.813 38.374c1.735 12.36 54.159 15.218 117.094 6.385s112.549-26.011 110.815-38.372z" fill="#fbda26"/><path d="m439.18 391.48c-1.79 4.76-3.79 9.37-5.99 13.81-1.8 3.66-3.74 7.2-5.8 10.63-2.03 3.38-4.18 6.65-6.44 9.81-24.5 23.85-53.92 42.68-86.58 54.81h-.01c-18.26 2.7-37.07 1.02-55.1-5.75-2.8-1.05-33.83-12.44-36.49-13.7-56.61-26.66-53.98-88-29.11-154.27 25.5-67.92 62.12-117.38 123.439-97.01 1.33.44 35.161 13.2 36.491 13.7 62.27 23.37 91.64 98.58 65.59 167.97z" fill="#fbc520"/><g><path d="m423 310.292c-.701 0-1.413-.124-2.107-.384l-20.625-7.742c-3.103-1.165-4.673-4.624-3.509-7.726 1.165-3.102 4.626-4.672 7.726-3.509l20.625 7.742c3.103 1.165 4.673 4.624 3.509 7.726-.904 2.408-3.19 3.893-5.619 3.893z" fill="#fbda26"/></g><g><path d="m433.19 405.29c-1.8 3.66-3.74 7.2-5.8 10.63l-42.38-15.91c-3.1-1.16-4.67-4.62-3.51-7.72 1.17-3.1 4.63-4.67 7.73-3.51z" fill="#fbda26"/></g><path d="m402.69 377.78c-18.52 49.33-60.06 82.45-104.92 89.07-18.22 2.69-37 1-55-5.76-62.28-23.38-91.65-98.58-65.6-167.97 25.97-69.19 97.24-106.47 159.39-83.51.18.07.359.13.539.2 62.27 23.38 91.641 98.58 65.591 167.97z" fill="#fbda26"/><path d="m313.91 300.45c17.2 24.54 19.67 58.61 6.2 85.38-10.12 20.1-28.8 37.69-28.37 60.19.15 7.39 2.43 14.39 6.03 20.83-18.22 2.69-37 1-55-5.76-62.28-23.38-91.65-98.58-65.6-167.97 25.97-69.19 97.24-106.47 159.39-83.51-22.21-.09-48.67 5.51-54.94 26.5-3.59 12 1.31 25.03 8.5 35.28 7.18 10.26 16.61 18.8 23.79 29.06z" fill="#fbc520"/><path d="m367.34 364.51c-15.82 42.14-54.73 69.29-93.07 65.49-6.13-.6-12.24-2-18.24-4.25-42.75-16.05-62.23-69.49-43.51-119.36 19.02-50.73 69.31-77 111.31-61.24 2.75 1.03 5.41 2.22 7.96 3.56 37.14 19.35 53.07 69.14 35.55 115.8z" fill="#fbc520"/><path d="m260.75 280.29c-6.87 10.24-8.53 23.79-4.34 35.38 4.02 11.15 12.76 19.83 19.12 29.82 9.86 15.51 13.91 34.61 11.18 52.78-1.7 11.33-6.03 22.24-12.44 31.73-6.13-.6-12.24-2-18.24-4.25-42.75-16.05-62.23-69.49-43.51-119.36 19.02-50.73 69.31-77 111.31-61.24 2.75 1.03 5.41 2.22 7.96 3.56-12.12 1.71-24.07 4.54-35.66 8.45-13.6 4.59-27.38 11.22-35.38 23.13z" fill="#fbb01d"/><path d="m323.198 291.625-9.162-3.312 5.691-15.16c1.165-3.103-.406-6.562-3.508-7.726-3.103-1.164-6.561.406-7.726 3.508l-5.951 15.852c-12.877-1.815-25.189 5.848-29.393 17.49-5.101 13.586 1.146 29.47 16.001 35.247 7.934 2.978 11.97 11.857 8.993 19.795-2.979 7.934-11.857 11.968-19.792 8.991l-16.049-6.158c-3.094-1.187-6.564.363-7.75 3.457s.363 6.564 3.457 7.75l10.521 4.033-5.777 15.387c-1.165 3.102.407 6.558 3.509 7.723s6.563-.408 7.728-3.509l5.992-15.963c12.556 1.748 24.875-5.437 29.397-17.495 4.955-13.208-.747-29.139-16.008-35.243-3.843-1.443-6.896-4.297-8.593-8.035-3.511-7.732-.092-16.842 7.64-20.353 6.315-2.867 11.859-.37 11.759-.395-.1-.042 1.205.435 14.943 5.402 3.115 1.127 6.556-.487 7.682-3.603 1.125-3.118-.488-6.557-3.604-7.683z" fill="#fbda26"/><path d="m287.12 379.07c-2.34.3-4.729.299-7.139-.041l-5.992 15.963c-1.17 3.11-4.628 4.679-7.728 3.509-3.1-1.16-4.669-4.623-3.509-7.723l5.777-15.387-10.521-4.033c-3.1-1.19-4.637-4.66-3.457-7.75 1.19-3.1 4.66-4.637 7.75-3.457l16.049 6.158c2.19.82 4.449 1.11 6.629.93 1.021 3.881 1.731 7.841 2.141 11.831z" fill="#fbc520"/></g></svg>