<svg id="Layer_1" enable-background="new 0 0 401 393" height="512" viewBox="0 0 401 393" width="512" xmlns="http://www.w3.org/2000/svg" xmlns:xodm="http://www.corel.com/coreldraw/odm/2003"><g id="Layer_x0020_1" clip-rule="evenodd" fill-rule="evenodd"><path d="m200.37 0c110.686 0 200.537 77.61 200.537 173.191v48.181c-14.324 228.664-386.75 228.924-400.813-.521 0-15.887 0-31.773 0-47.66-.001-95.581 89.59-173.191 200.276-173.191z" fill="#344656"/><g id="_2320296257824" fill="#ac75c2"><path d="m18.324 245.332c6.511 32.034 21.616 58.338 41.67 78.652v-27.346c-17.189-14.584-31.513-32.034-41.67-51.306zm56.775 92.195c4.948 3.646 9.897 7.292 15.105 10.418v-30.211c-5.209-2.865-10.157-6.25-15.105-9.376zm30.211 18.751c22.398 11.199 47.139 18.231 72.662 20.575v-31.773c-26.044-2.344-50.785-9.376-72.662-19.533zm87.768 21.617c4.948.26 9.897.26 14.845 0v-31.773c-2.344 0-4.948.26-7.553.26-2.344 0-4.948-.26-7.292-.26zm29.95-1.042c25.523-2.344 50.264-9.376 72.662-20.314v-30.992c-22.137 10.157-46.618 17.189-72.662 19.533zm87.767-28.909c5.209-3.125 10.157-6.771 15.105-10.417v-29.169c-4.948 3.125-9.897 6.511-15.105 9.376zm29.95-23.96c20.314-20.314 35.419-46.618 41.93-78.652-10.417 19.272-24.481 36.722-41.93 51.306z"/><path d="m200.37 14.845c102.612 0 185.692 70.839 185.692 158.346 0 87.247-83.08 158.085-185.692 158.085-102.352 0-185.431-70.839-185.431-158.085-.001-87.507 83.079-158.346 185.431-158.346zm0 15.105c94.278 0 170.586 64.068 170.586 143.241s-76.308 143.24-170.586 143.24c-94.018 0-170.326-64.068-170.326-143.241s76.308-143.24 170.326-143.24z"/><path d="m200.37 44.795c85.944 0 155.742 57.557 155.742 128.396s-69.798 128.395-155.742 128.395c-85.684 0-155.481-57.557-155.481-128.396s69.797-128.395 155.481-128.395zm0 32.555-58.859 97.664 58.859 34.638 58.859-34.638zm0 143.501-58.859-34.899 58.859 83.079 59.119-83.08z"/></g></g></svg>
