<svg id="Layer_1" enable-background="new 0 0 496 496" height="512" viewBox="0 0 496 496" width="512" xmlns="http://www.w3.org/2000/svg"><g><path d="m496 248c0 5.51-.18 10.98-.54 16.4-3.09 47.46-19.54 91.27-45.63 127.729-23.59 11.55-38.6 29.88-48.7 50.96-25.93 20.38-56.02 35.7-88.79 44.48-20.51 5.5-42.08 8.43-64.34 8.43-136.97.001-248-111.029-248-247.999s111.03-248 248-248 248 111.03 248 248z" fill="#755377"/><path d="m495.46 264.4c-3.09 47.46-19.54 91.27-45.63 127.729-23.59 11.55-38.6 29.88-48.7 50.96-25.93 20.38-56.02 35.7-88.79 44.48-6.74-14.46-16.63-27.57-28.23-38.21-27.66-25.36-63.88-39.051-99.65-50.41-35.76-11.37-72.59-21.22-104.6-40.811-32.02-19.58-59.25-51.08-63.17-88.399-4.88-46.499 26.11-88.309 55.42-124.739 25.56-31.8 52.35-64.58 89.03-82.44 45.09-21.949 97.99-18.01 147.84-12.529 26.18 2.88 54.35 6.97 73.25 25.33 16.68 16.21 22.58 40.14 31.06 61.81 17.03 43.5 46.45 80.811 74.96 117.83 2.41 3.119 4.81 6.259 7.21 9.399z" fill="#5b3c5c"/><g><path d="m336.149 95.734h-78.001c-3.313 0-6-2.687-6-6s2.687-6 6-6h78.001c3.313 0 6 2.687 6 6s-2.687 6-6 6z" fill="#f3f1f1"/></g><g><path d="m370.035 95.734h-10.638c-3.313 0-6-2.687-6-6s2.687-6 6-6h10.638c3.313 0 6 2.687 6 6s-2.686 6-6 6z" fill="#f3f1f1"/></g><g><path d="m439.468 307.681h-55.106c-3.313 0-6-2.687-6-6s2.687-6 6-6h55.106c3.313 0 6 2.687 6 6s-2.686 6-6 6z" fill="#f3f1f1"/></g><path d="m449.83 392.13c-9.8 13.71-20.96 26.38-33.29 37.78-4.95 4.609-10.1 9-15.41 13.18l-60.68-60.68 49.83-49.83 19.67 19.67z" fill="#cdd9f8"/><path d="m416.54 429.91c-4.95 4.609-10.1 9-15.41 13.18l-60.68-60.68 49.83-49.83 19.67 19.67c-2.26 3.45-5.03 6.68-7.82 9.55-7.95 8.181-17.2 16.91-17.72 28.3-.34 7.45 3.33 14.62 8.29 20.19 4.97 5.58 11.19 9.85 17.15 14.34 2.25 1.7 4.49 3.46 6.69 5.28z" fill="#b7c5f5"/><path d="m398.18 344.84-40.76 40.75-4.72 4.72c-10.55 10.551-27.66 10.551-38.21 0l-12.98-12.979 83.69-83.69 12.98 12.98c10.55 10.549 10.55 27.659 0 38.219z" fill="#dcccca"/><path d="m278.62 228.13c0-6.63-5.38-12-12-12h-208.79c-6.63 0-12 5.37-12 12 0 1.88.43 3.66 1.21 5.25 1.94 4 6.04 6.75 10.79 6.75h208.79c6.62 0 12-5.37 12-12z" fill="#2cc0f7"/><path d="m278.62 228.13c0-6.63-5.38-12-12-12h-175.86c-2.3 3.729-4.3 7.7-7.37 10.81-6.5 6.58-16.59 8.101-25.82 7.551-3.53-.2-7.03-.66-10.53-1.11 1.94 4 6.04 6.75 10.79 6.75h208.79c6.62-.001 12-5.371 12-12.001z" fill="#16aef6"/><path d="m278.62 289.68c0-6.63-5.38-12-12-12h-208.79c-6.63 0-12 5.37-12 12 0 1.109.15 2.18.43 3.189 1.4 5.08 6.04 8.811 11.57 8.811h208.79c6.62 0 12-5.37 12-12z" fill="#2cc0f7"/><path d="m278.62 289.68c0-6.63-5.38-12-12-12h-163.29c-2.04 2.79-4.2 5.46-6.78 7.75-7.1 6.319-16.76 9.16-26.25 9.66-6.4.31-12.77-.28-19.11-1.221-1.52-.22-3.23-.68-4.93-1 1.4 5.08 6.04 8.811 11.57 8.811h208.79c6.62 0 12-5.37 12-12z" fill="#16aef6"/><path d="m381.9 309.43c-55.283 81.443-167.639 108.831-239.794 36.677-58.87-58.87-59.466-152.96-.596-211.83 4.35-4.35 8.799-9.116 13.519-12.826 59.16-46.46 145.04-42.431 199.56 12.09 47.611 47.609 56.721 119.139 27.311 175.889z" fill="#cdd9f8"/><path d="m381.9 309.43c-6.94 13.431-16.05 26.03-27.31 37.29-58.87 58.87-154.31 58.87-213.18 0s-58.87-154.31 0-213.18c4.35-4.35 8.9-8.38 13.62-12.09-2.51 2.479-4.631 4.852-6.17 6.62-69.732 80.079-40.957 185.542 20.821 223.458 99.745 61.217 184.51-11.634 212.219-42.098z" fill="#b7c5f5"/><path d="m309.56 347.82c-.89.51-1.79 1.01-2.7 1.5-12.48 6.739-25.6 11.1-38.85 13.27-13.16 2.15-26.44 2.13-39.35.08-36.9-5.85-70.76-28.25-89.85-63.68-5.38-9.971-9.25-20.34-11.7-30.86-4.48-19.31-4.16-39.11.47-57.8 2.92-11.73 7.51-23.021 13.71-33.48 11.08-18.75 27.26-34.81 47.85-45.899 42.994-23.19 85.449-11.91 85.72-11.91 33.94 7.54 64.53 29.24 82.33 62.24 7.63 14.16 12.23 29.14 14.01 44.2 5.72 48.109-17.26 97.009-61.64 122.339z" fill="#e0e7f9"/><path d="m266.33 329.52c-1.42 6.75 3.69 13.49 9.99 16.311 6.29 2.81 13.46 2.63 20.35 2.41l12.89-.42c-.89.51-1.79 1.01-2.7 1.5-12.48 6.739-25.6 11.1-38.85 13.27-13.16 2.15-26.44 2.13-39.35.08-36.9-5.85-70.76-28.25-89.85-63.68-5.38-9.971-9.25-20.34-11.7-30.86 7.11-3.52 14.51-6.53 21.79-9.68 21.21-9.17 41.76-19.86 61.37-32.09 34.55-21.561 51.58-31.58 77.82-62.79 6.55-7.801 7.08-34.9-13.23-44.53 33.94 7.54 64.53 29.24 82.33 62.24 7.63 14.16 12.23 29.14 14.01 44.2-29.87 32.56-60.97 64-95.25 91.829-4.11 3.33-8.53 7.03-9.62 12.21z" fill="#f3f1f1"/><g><g><path d="m202.266 161.284c-2.136 0-4.203-1.143-5.287-3.154-1.572-2.917-.482-6.556 2.435-8.128 13.741-7.407 28.561-11.506 44.047-12.182 3.313-.137 6.112 2.422 6.256 5.732.145 3.311-2.422 6.111-5.732 6.256-13.663.597-26.743 4.216-38.876 10.756-.906.489-1.882.72-2.843.72z" fill="#f3f1f1"/></g><g><path d="m169.669 189.91c-1.21 0-2.432-.364-3.49-1.123-2.693-1.931-3.312-5.679-1.382-8.372 2.741-3.824 5.772-7.487 9.01-10.889 2.285-2.399 6.083-2.492 8.482-.208 2.4 2.285 2.493 6.083.208 8.483-2.855 2.999-5.529 6.23-7.947 9.604-1.171 1.635-3.012 2.505-4.881 2.505z" fill="#f3f1f1"/></g></g><path d="m278.62 228.13c0 10.015-8.145 18-18 18h-136.53c-.57-12.07.6-24.21 3.53-36h133c10.005 0 18 8.119 18 18z" fill="#16aef6"/><path d="m278.62 289.68c0 9.944-8.056 18-18 18h-116.7c-7.26-11.18-12.58-23.35-15.89-36h132.59c9.939 0 18 8.061 18 18z" fill="#2cc0f7"/><path d="m398.18 344.84-40.76 40.75c-5.31.45-10.66.141-15.87-1.02-3.56-.79-7.62-2.62-8.14-6.23-.38-2.56 1.26-4.95 2.93-6.93 7.89-9.32 18.38-16.01 27.41-24.23 13.53-12.319 23.72-28.229 29.37-45.62l5.06 5.061c10.55 10.549 10.55 27.659 0 38.219z" fill="#e6dddb"/><path d="m278.62 228.13c0 10.01-8.14 18-18 18h-85.46c11.99-6.07 23.71-12.66 35.11-19.77 9.75-6.091 18.11-11.25 25.67-16.23h24.68c10 0 18 8.12 18 18z" fill="#2cc0f7"/></g></svg>