<svg id="Layer_1" enable-background="new 0 0 401 393" height="512" viewBox="0 0 401 393" width="512" xmlns="http://www.w3.org/2000/svg" xmlns:xodm="http://www.corel.com/coreldraw/odm/2003"><g id="Layer_x0020_1" clip-rule="evenodd" fill-rule="evenodd"><path d="m200.5 0c110.822 0 200.458 77.529 200.458 173.218v48.194c-14.202 228.862-386.714 229.095-400.916-.466 0-15.832 0-31.896 0-47.728 0-95.689 89.869-173.218 200.458-173.218z" fill="#344656"/><g id="_2320384808048" fill="#3498DB"><path d="m18.202 245.392c6.752 32.129 21.652 58.438 41.908 78.693v-27.24c-17.229-14.667-31.664-32.129-41.908-51.453zm57.041 92.197c4.656 3.725 9.778 7.217 14.9 10.477v-30.267c-5.122-3.027-10.244-6.053-14.9-9.546zm30.034 18.858c22.351 11.175 47.262 18.16 72.64 20.721v-31.896c-26.076-2.561-50.522-9.313-72.64-19.557zm87.773 21.653c4.889.233 10.011.233 14.9 0v-31.896c-2.328.233-4.889.233-7.45.233s-5.122 0-7.45-.233zm30.034-.932c25.377-2.561 50.289-9.546 72.64-20.721v-30.732c-21.885 10.244-46.564 16.996-72.64 19.557zm87.773-29.102c5.122-3.259 10.244-6.752 15.133-10.477v-29.335c-4.889 3.492-10.011 6.519-15.133 9.546zm30.033-23.748c20.255-20.488 35.389-46.797 41.908-78.926-10.244 19.324-24.679 36.786-41.908 51.453z"/><path d="m200.5 14.9c102.441 0 185.557 70.777 185.557 158.318 0 87.307-83.117 158.318-185.557 158.318s-185.557-71.011-185.557-158.318c0-87.54 83.116-158.318 185.557-158.318zm0 14.901c94.292 0 170.657 64.258 170.657 143.417s-76.365 143.417-170.657 143.417-170.657-64.258-170.657-143.417 76.365-143.417 170.657-143.417z"/><path d="m200.5 44.701c85.911 0 155.757 57.507 155.757 128.517 0 70.777-69.846 128.284-155.757 128.284s-155.524-57.507-155.524-128.284c0-71.01 69.613-128.517 155.524-128.517zm-57.972 163.906c.931-.931 2.328-1.63 3.958-1.63h137.131c2.561 0 3.725 3.027 2.095 4.889l-27.24 27.007c-.931 1.164-2.328 1.63-3.958 1.63h-137.131c-2.561 0-3.725-3.027-2.095-4.656zm0-101.044c.931-1.164 2.561-1.63 3.958-1.63h137.131c2.561 0 3.725 3.027 2.095 4.656l-27.24 27.24c-.931.931-2.328 1.63-3.958 1.63h-137.131c-2.561 0-3.725-3.027-2.095-4.889zm115.944 50.056c-.931-.931-2.328-1.63-3.958-1.63h-137.131c-2.561 0-3.725 3.027-2.095 4.889l27.24 27.007c.931 1.164 2.328 1.863 3.958 1.863h137.131c2.561 0 3.725-3.027 2.095-4.889z"/></g></g></svg>
