<svg id="Layer_1" enable-background="new 0 0 401 393" height="512" viewBox="0 0 401 393" width="512" xmlns="http://www.w3.org/2000/svg" xmlns:xodm="http://www.corel.com/coreldraw/odm/2003"><g id="Layer_x0020_1" clip-rule="evenodd" fill-rule="evenodd"><path d="m200.5 0c110.674 0 200.377 77.543 200.377 173.237v48.112c-14.275 228.751-386.655 228.927-400.754-.529 0-15.861 0-31.722 0-47.583 0-95.694 89.703-173.237 200.377-173.237z" fill="#344656"/><g fill="#ac75c2"><path d="m18.451 245.317c6.521 32.074 21.324 58.333 41.767 78.776v-27.493c-17.447-14.627-31.545-31.898-41.767-51.283zm56.747 92.17c4.758 3.701 9.869 7.226 14.98 10.398v-30.136c-5.111-2.996-10.222-6.168-14.98-9.517zm30.136 18.857c22.205 11.103 47.231 17.976 72.608 20.619v-31.722c-26.083-2.643-50.579-9.517-72.608-19.738zm87.588 21.5c5.111.176 10.045.176 15.156.176v-31.898c-2.467.176-5.111.176-7.578.176s-4.935 0-7.578-.176zm30.136-.881c25.378-2.467 50.403-9.34 72.784-20.619v-30.841c-22.205 10.221-46.702 17.095-72.784 19.738zm87.764-28.902c5.111-3.348 10.221-6.873 14.98-10.574v-29.255c-4.758 3.348-9.869 6.521-14.98 9.517zm30.136-23.968c20.267-20.443 35.07-46.702 41.767-78.776-10.398 19.386-24.496 36.657-41.767 51.284z"/><path d="m200.5 14.804c102.392 0 185.397 70.846 185.397 158.257s-83.005 158.257-185.397 158.257-185.397-70.845-185.397-158.257 83.005-158.257 185.397-158.257zm0 14.979c94.109 0 170.594 64.149 170.594 143.278s-76.485 143.278-170.594 143.278-170.418-64.149-170.418-143.278 76.309-143.278 170.418-143.278z"/><path d="m200.5 44.763c86.002 0 155.614 57.452 155.614 128.298 0 71.022-69.612 128.474-155.614 128.474-85.826 0-155.614-57.452-155.614-128.474 0-70.846 69.788-128.298 155.614-128.298zm49.345 69.789c8.459 8.283 17.447 16.566 26.611 25.906 4.053 4.053 3.701 5.816-.176 10.574-7.402 9.34-80.01 97.457-81.243 99.043-4.406 4.935-7.578 9.34-10.574.352-18.681-51.284-43.706-101.334-62.21-152.794-1.586-3.701.529-7.578 4.23-6.873 29.783 4.935 94.461 16.918 119.662 21.677 1.233.352 2.643 1.41 3.7 2.115zm-5.11 11.983-27.845 23.087 44.058-8.107zm-94.285-19.738 50.579 41.415 31.017-26.259zm108.383 46.878-51.989 8.459-7.578 63.268zm-63.444 4.759-53.399-45.292 45.644 111.556z"/></g></g></svg>
