<svg id="Layer_1" enable-background="new 0 0 512 512" height="512" viewBox="0 0 512 512" width="512" xmlns="http://www.w3.org/2000/svg"><g><path d="m245.002 10.998c-44.415 0-86.07 11.819-121.991 32.484s-75.984 234.95-49.735 387.242c21.883 21.51 47.778 38.951 76.473 51.071l69.775 17.893c8.375.865 16.874 1.314 25.477 1.314 135.311 0 245.002-109.691 245.002-245.002s-109.69-245.002-245.001-245.002z" fill="#1c2e7a"/><path d="m316.116 213.077c6.552 5.437 14.84 8.155 24.718 8.16 1.973-3.581 2.98-7.645 2.541-12.289-1.176-12.458-2.37-27.028-3.129-36.588-.376-4.733-5.609-7.407-9.665-4.938l-29.221 17.791c1.51 8.3 5.288 20.008 14.756 27.864z" fill="#ef6b50"/><path d="m341.589 219.743c-28.484.391-36.55-22.282-38.831-35.38l-2.129 1.297c-5.708 3.475-9.549 9.333-10.463 15.952l-4.426 32.083c9.195 3.564 17.598 6.289 25.326 8.306 11.238-4.556 25.471-11.199 30.523-22.258z" fill="#e2573b"/><path d="m88.02 92.355c4.148 6.751 10.708 14.567 20.414 19.005 7.915 3.62 16.724 4.416 26.304 2.405 6.223-10.862 8.753-22.78 3.328-35.202-4.934-11.298-10.265-23.771-15.055-35.082-12.427 7.149-24.155 15.369-35.084 24.514 2.283 7.924 2.014 16.153.093 24.36z" fill="#ef6b50"/><path d="m135.702 112.008c-25.98 6.095-40.411-10.13-47.208-21.844-3.748 18.992-16.785 38.025-28.065 53.042 13.091 2.065 26.129 4.728 38.882 7.868 11.87-9.878 28.107-23.431 36.391-39.066z" fill="#e2573b"/><path d="m89.501 91.143c-7.335 2.384-13.737 2.045-19.026-1.005-1.256-.724-2.396-1.576-3.436-2.505-14.682 15.512-27.365 32.935-37.618 51.87 10.877.879 21.853 2.222 32.792 3.993 11.191-14.877 24.178-33.749 28.129-52.63-.282.093-.565.187-.841.277z" fill="#fc7e65"/><path d="m213.057 129.731c.285 2.743 2.973 23.598 19.529 34.863 7.379 5.021 16.353 7.313 26.802 6.89 2.138-4.726 3.145-9.994 2.589-15.888-1.743-18.457-3.511-40.044-4.635-54.207-.556-7.012-8.31-10.974-14.319-7.315l-38.516 23.451c5.289 5.639 8.023 11.093 8.55 12.206z" fill="#ef6b50"/><path d="m220.987 201.682c15.75-6.867 33.136-16.609 39.042-31.732-41.825 2.163-45.504-40.617-45.504-40.617s-2.696-6.154-8.691-12.617l-7.189 4.377c-8.456 5.148-14.148 13.827-15.501 23.634l-4.639 33.622c10.211 4.715 19.591 9.64 27.87 14.667 5.016 3.045 9.882 5.929 14.612 8.666z" fill="#e2573b"/><path d="m219.64 146.195c-21.12-.088-36.332-6.398-45.217-18.759-13.444-18.705-9.26-46.934-6.108-60.554l-30.097 29.197c-8.548 8.293-12.914 19.991-11.888 31.856l2.72 31.478c21.718 6.85 41.882 14.931 59.104 23.582 13.542-10.201 27.366-22.884 32.943-37.755z" fill="#fc7e65"/><path d="m312.848 206.276c-12.981.548-23.167-3.183-30.295-11.095-9.016-10.007-11.648-24.986-12.171-36.629l-10.539 10.223c-5.77 5.597-8.716 13.493-8.024 21.502l2.544 29.431c11.154 5.544 21.372 10.085 30.763 13.749 9.891-6.804 22.539-15.995 28.693-27.251-.325.023-.646.056-.971.07z" fill="#fc7e65"/><path d="m124.086 379.089c.684-7.19-1.029-14.375-4.826-20.229-3.233-4.984-7.836-15.071-11.408-34.821-2.521-13.94-10.787-22.857-22.68-24.465-17.803-2.398-44.191 12.55-60.148 45.792-1.404 2.925-3.021 5.645-4.815 8.182 12.643 29.094 30.764 55.252 53.068 77.175 18.466-3.455 35.566-7.77 51.339-12.573-1.988-15.585-1.429-29.633-.53-39.061z" fill="#ffdd40"/><path d="m401.481 302.024c-12.419-12.419-5.125-24.402-4.596-26.298l-1.004-.711c-18.961-13.431-46.825 15.986-90.555 7.547-10.854-2.094-20.975-3.27-30.16-3.847.458.514.926 1.03 1.416 1.545-2.383 1.755-7.309 5.662-12.293 11.321-9.065 10.294-13.892 21.479-13.957 32.348-.075 12.543 5.938 24.745 17.915 36.434 35.237-9.767 40.717-13.434 77.628-36.056 22.698-13.911 42.739-19.748 55.694-22.202-.028-.029-.06-.053-.088-.081z" fill="#fee884"/><path d="m278.883 280.469c-.54-.54-1.055-1.076-1.553-1.608-15.333-1.107-28.164-.523-37.441.419-10.274 1.042-17.676 10.31-16.514 20.654 2.312 20.601-11.087 35.658-19.28 42.801-6.608 5.761-11.14 13.713-12.759 22.391-1.781 9.544-2.77 19.992-3.318 29.161 31.821-14.088 55.407-27.185 72.357-31.771 3.429-.928 6.601-1.797 9.562-2.623-45.386-43.478 8.946-79.424 8.946-79.424z" fill="#ffdd40"/><path d="m401.51 236.244c-7.742.258-20.686 1.29-38.134 4.772-18.322 3.655-41.698 2.435-76.489-10.881-4.469 2.223-18.461 10.149-20.974 23.354-1.637 8.596 1.952 17.595 10.671 26.77-.015.011-.032.024-.047.035 8.756.608 18.312 1.772 28.506 3.74 45.218 8.726 73.533-22.234 91.479-6.616.744-1.883 1.632-3.556 2.492-4.952-10.425-10.845-8.197-27.276 2.496-36.222z" fill="#49b1f7"/><path d="m31.553 135.67c-20.08 35.544-31.553 76.594-31.553 120.33 0 35.294 7.477 68.837 20.91 99.153 2.046-2.811 3.886-5.847 5.465-9.137 24-50 73-60.419 80-21.71 3.5 19.355 8 29.782 11.625 35.371 1.331 2.053 2.373 4.255 3.144 6.544 9.209-9.652 21.579-7.433 28.649-4.969 3.437-7.221 16.173-12.761 30.86-12.761 6.539 0 12.689 1.1 17.808 2.955 1.848-2.795 4.065-5.352 6.62-7.58 7.181-6.26 16.849-17.124 19.411-31.753-8.03 3.766-18.575 6.06-30.117 6.06-25.089 0-45.5-10.816-45.5-24.112s20.411-24.113 45.5-24.113c17.156 0 32.121 5.06 39.872 12.51 1.767-.876 3.709-1.474 5.793-1.685 9.892-1.004 23.145-1.542 38.829-.294.003-.002.013-.009.013-.009-31.586-31.587 9.95-49.595 9.95-49.595v-.003c-22.2-8.311-49.109-21.609-82.457-41.856-41.311-25.082-109.717-47.732-174.822-53.346z" fill="#1e9ef4"/><path d="m199.761 440.314c-1.838.23-3.745.356-5.697.356-13.653 0-25.188-5.974-25.188-13.044 0-6.296 9.15-11.719 20.796-12.832-.516-2.784-.75-5.623-.672-8.472.182-6.672.616-15.898 1.62-25.439-3.151.566-6.503.878-9.966.878-17.225 0-31.777-7.618-31.777-16.635 0-1.926.669-3.787 1.881-5.525-6.988-2.625-20.456-5.591-30.143 5.199 1.762 4.461 2.439 9.315 1.979 14.147-.475 4.987-.852 11.186-.83 18.176 2.981-1.428 6.972-2.322 11.298-2.322 8.954 0 16.518 3.81 16.518 8.319s-7.564 8.318-16.518 8.318c-4.112 0-7.919-.81-10.846-2.115 1.635 22.838 8.224 50.572 27.536 72.472 21.825 9.218 45.264 15.361 69.775 17.893-2.723-10.355-9.496-34.392-19.766-59.374z" fill="#fee884"/><path d="m460.228 298.341c.028-6.742 4.402-9.292 8.574-10.187-12.808-5.98-23.529-3.746-34.955-3.554l.328 2.748c8.536 3.179 18.34 7.517 26.053 10.993z" fill="#ff4155"/><path d="m497.089 312.18c-6.541-2.683-20.939-8.619-28.214-11.859-7.965-3.547-24.299-11.198-36.94-15.71-9.168-.053-18.883-1.764-30.556-10.316-.626-.458-1.225-.92-1.798-1.384-.642-.52-1.248-1.056-1.819-1.604-4.054 6.008-10.059 19.062 2.658 31.778 16.202 16.201 55.337 4.685 75.31 18.369 3.719 2.548 8.333 3.566 12.668 2.327 3.402-.972 7.151-2.948 10.048-6.859 1.207-1.631.52-3.972-1.357-4.742z" fill="#fcf2c8"/><path d="m498.624 266.298c-1.291-.645-2.59-1.242-3.892-1.805-4.687 4.315-14.311 8.002-33.854 2.444-31.722-9.022-48.617-15.123-67.788.228 1.512 2.759 3.647 5.361 6.491 7.664.574.465 1.173.926 1.798 1.384 27.51 20.153 44.144 2.319 68.375 14.315 17.104 8.467 30.622 9.762 37.094 9.792 2.499.011 4.582-1.869 4.863-4.351.842-7.409.719-22.768-13.087-29.671z" fill="#49b1f7"/><path d="m460.878 268.857c21.558 6.131 31.043 1.012 35.148-3.789-17.812-8.066-36.658-8.597-47.943-19.882-6.341-6.341-16.112-11.029-26.13-13.671-23.126-6.099-39.299 19.288-28.086 36.966 18.853-14.574 35.718-8.524 67.011.376z" fill="#1e9ef4"/><path d="m490.078 274.095c0 3.246-3.457 5.878-7.722 5.878s-7.723-2.632-7.723-5.878 3.458-5.878 7.723-5.878 7.722 2.632 7.722 5.878z" fill="#73c3f9"/><ellipse cx="431.427" cy="263.219" fill="#1e9ef4" rx="11.646" ry="13.249"/><circle cx="431.427" cy="257.761" fill="#ffc839" r="9.216"/><circle cx="436.035" cy="260.344" fill="#543e5b" r="4.608"/><g fill="#73c3f9"><path d="m235.679 281.83c-7.966-7.972-23.475-13.382-41.304-13.382-25.957 0-47 11.467-47 25.613 0 14.145 21.043 25.613 47 25.613 11.299 0 21.664-2.174 29.77-5.795.951-4.36 1.286-9.069.72-14.111-.89-7.931 3.724-15.214 10.814-17.938z"/><path d="m2.573 291.527c20.641-2.702 35.985-12.821 35.985-24.898 0-12.49-16.409-22.886-38.118-25.15-.281 4.806-.44 9.645-.44 14.521 0 12.068.888 23.927 2.573 35.527z"/><ellipse cx="95.94" cy="210.958" rx="47" ry="25.613"/><path d="m190.457 382.46c.563-5.689 1.323-11.533 2.354-17.058 1.034-5.54 3.29-10.755 6.559-15.27-5.333-1.981-11.776-3.14-18.717-3.14-18.378 0-33.277 8.119-33.277 18.134s14.899 18.134 33.277 18.134c3.412.001 6.704-.28 9.804-.8z"/><path d="m200.351 441.76c-2.351-5.786-4.89-11.636-7.611-17.39-1.661-3.513-2.771-7.242-3.33-11.063-12.52 1.201-22.035 7.152-22.035 14.319 0 8.032 11.949 14.544 26.688 14.544 2.168 0 4.271-.144 6.288-.41z"/><path d="m133.06 393.3c-4.279 0-8.205.817-11.295 2.175-.028 4.817.129 10.038.576 15.524 2.998 1.213 6.698 1.94 10.719 1.94 9.951 0 18.019-4.396 18.019-9.819s-8.068-9.82-18.019-9.82z"/></g><path d="m266.465 11.944c-5.981 24.078-4.199 58.605 39.061 85.334 43.938 27.147 65.559 55.803 75.875 74.605 11.168 20.357 32.664 33.178 55.863 32.196 14.107-.597 29.308-5.317 42.434-18.558-28.3-94.363-111.938-164.783-213.233-173.577z" fill="#2a428c"/><path d="m465.532 362.847c-26.533-11.45-66.74-19.356-113.006 3.374-74.543 36.624-130.992 65.477-79.522 133.178 84.947-9.666 156.709-62.761 192.528-136.552z" fill="#2a428c"/><path d="m444.731 397.904c-16.298-2.972-36.159-2.026-57.955 8.682-47.564 23.368-84.544 42.202-62.923 81.426 49.179-16.706 91.334-48.603 120.878-90.108z" fill="#3e60a3"/><path d="m460.737 139.827c-26.679-49.441-69.85-88.667-122.152-110.301-4.437 11.304-4.023 26.744 16.607 42.304 21.823 16.46 39.06 37.745 50.218 53.69 13.221 18.893 37.03 23.169 55.327 14.307z" fill="#3e60a3"/><path d="m316.197 184.708c-4.699-14.302-9.981-31.078-13.418-42.09-1.702-5.453-8.554-7.195-12.654-3.218l-21.204 20.57c1.167 20.26 8.917 49.293 43.991 47.805 4.207-6.905 6.061-14.617 3.285-23.067z" fill="#f98"/><path d="m201.829 57.324c-2.521-8.078-12.673-10.66-18.747-4.767l-16.756 16.255c-5.039 23.469-10.171 78.884 53.762 78.884 3.802-8.597 4.927-17.952 1.621-28.013-6.962-21.189-14.788-46.043-19.88-62.359z" fill="#f98"/><path d="m89.516 66.656c-8.316 6.836-16.16 14.222-23.506 22.079 5.173 4.627 12.829 7.449 23.95 3.836 2.079-8.743 2.298-17.513-.444-25.915z" fill="#f98"/></g></svg>