<svg id="Layer_1" enable-background="new 0 0 512 512" height="512" viewBox="0 0 512 512" width="512" xmlns="http://www.w3.org/2000/svg"><g><path d="m245.002 10.998c-123.469 0-225.589 91.338-242.52 210.128l66.221 204.986c44.557 46.167 107.07 74.89 176.299 74.89 135.311 0 245.002-109.691 245.002-245.002s-109.691-245.002-245.002-245.002z" fill="#1c2e7a"/><path d="m446.466 182.474c-2.83.3-5.84.747-9.059 1.37-15.608 3.022-25.622-.568-31.636-4.684-2.702 7.142-2.081 15.375 6.564 23.57 9.731 1.321 22.256-5.108 35.835-9.735.019-.007.038-.011.058-.018-5.81-3.621-3.932-7.866-1.762-10.503z" fill="#ff4155"/><path d="m444.256 182.734c-2.161 2.76-3.769 7.082 2.724 10.678.397-.139.792-.281 1.191-.417 11.388-3.88 23.334-1.361 30.662 1.058 2.084.688 3.596-1.942 1.99-3.438-6.625-6.169-17.573-10.342-36.567-7.881z" fill="#ff7186"/><g fill="#deeeff"><path d="m489.339 157.343c-.35 0-.717 0-1.076.001v12.001c0 1.554 1.805 2.418 3.017 1.445 5.539-4.449 7.422-11.229 8.022-14.394-2.748.584-6.029.947-9.963.947z"/><path d="m478.095 170.789c5.035-4.044 7.046-10.011 7.822-13.442-3.315.009-6.962.038-10.839.114v11.883c0 1.554 1.805 2.418 3.017 1.445z"/><path d="m465.179 169.444c4.358-3.5 6.445-8.436 7.433-11.928-3.361.083-6.864.206-10.45.386v10.096c.001 1.555 1.806 2.419 3.017 1.446z"/><path d="m453.071 168.637c3.839-3.083 5.914-7.28 7.031-10.625-3.311.186-6.677.427-10.048.731v8.449c0 1.554 1.805 2.418 3.017 1.445z"/><path d="m440.424 168.637c3.459-2.778 5.482-6.46 6.668-9.61-3.253.332-6.496.725-9.684 1.2v6.965c-.001 1.554 1.804 2.418 3.016 1.445z"/></g><path d="m189.865 361.386c4.4-8.156 4.364-15.409 4.648-16.968-1.485.127-29.995 17.381-98.173 1.074-6.719-1.605-12.294 4.958-9.958 11.287 4.762 12.882 4.987 25.775 1.154 37.875 41.46 20.615 77.8 8.716 103.607-8.104-5.45-6.652-5.868-16.652-1.278-25.164z" fill="#fee884"/><path d="m338.592 209.461-.929-1.387-1.355.975c-14.961 10.767-23.103 27.095-31.724 44.382-4.618 9.261-8.409 16.517-12.218 22.722.307.03.604.066.916.094-.39 3.194-.593 10.238 3.909 15.897 1.357 1.706 3.025 3.128 4.985 4.277 6.403-9.217 11.727-19.375 15.617-30.372 11.223-31.734 25.267-42.628 31.234-45.994-3.814-2.525-7.288-5.894-10.435-10.594z" fill="#fcf2c8"/><path d="m303.033 295.169c-11.18-6.472-8.009-20.288-8.009-20.288-.61-.043-1.2-.098-1.792-.151-9.012 15.065-17.771 23.819-37.472 38.704-.097.334 1.506 11.251-6.415 28.255 20.72-10.198 39.846-26.097 53.688-46.52z" fill="#fee884"/><path d="m241.18 195.724c-.548 2.44-1.496 4.794-2.856 6.952-.573.909-1.226 1.837-1.951 2.77-.639 5.535-.876 17.11 6.924 23.582 5.999 4.975 10.112 12.167 11.896 20.795 2.229 10.782 10.679 24.005 38.088 26.424-.059.486-.112 1.071-.146 1.717 15.349-24.402 22.854-53.376 45.596-68.662-2.202-3.464-4.262-7.561-6.175-12.495-13.633-35.159-6.458-60.273 10.405-69.243 5.174-2.752 9.488-5.805 13.004-8.72-.415-.324-.849-.652-1.292-.982-24.113 2.543-67.771 16.605-113.493 77.862z" fill="#88ce65"/><path d="m311.653 109.705c-2.743 1.084-5.635 1.71-8.584 1.726-8.254.045-26.048 2.38-34.392 20.611-2.33 5.092-5.841 9.576-10.483 12.707-9.106 6.14-22.476 19.111-17.163 40.241 1.193 4.744.875 9.723-.928 14.193 46.137-62.523 90.317-76.773 114.611-79.323.427-.339.846-.678 1.252-1.014-9.324-7.281-25.879-16.424-44.313-9.141z" fill="#b4d667"/><path d="m147.063 215.463c-52.237-14.136-107.109-4.879-144.581 5.663-1.624 11.393-2.482 23.032-2.482 34.874 0 66.082 26.171 126.044 68.703 170.112 21.919-20.273 28.041-45.997 19.184-69.922-1.918-5.181 2.698-10.414 8.071-9.129 24.197 5.788 73.166 14.049 104.572-3.952 43.052-24.678 48.793-17.502 78.929-47.639 6.204-6.204 11.185-13.23 15.565-20.588-27.435-1.939-36.146-14.454-38.383-25.475-1.687-8.313-5.726-16.092-12.295-21.459-9.809-8.013-6.021-25.271-6.021-25.271-8.084 12.828-30.355 29.269-91.262 12.786z" fill="#6faf46"/><path d="m316.939 386.934c-7.419-3.347-23.79-8.888-43.66-4.251-12.77 2.979-22.881.674-30.022-2.621-2.394-1.104-4.213-2.88-5.398-4.97-7.445 2.064-18.839 7.671-8.322 21.733 18.116 1.279 34.187 3.562 41.93 10.679 7.13 6.554 17.199 13.935 23.302 18.251 1.279.904 2.89-.561 2.111-1.92l-7.924-13.812c-1.067-1.86.852-4.007 2.82-3.154l21.013 9.105c1.364.591 2.634-1.005 1.762-2.208-6.66-9.186-12.854-14.751-16.945-17.835-1.601-1.207-.924-3.741 1.065-3.989l17.839-2.231c1.46-.183 1.771-2.172.429-2.777z" fill="#b4d667"/><path d="m418.934 165.462c-5.145 1.378-9.872 3.069-13.905 5.156-13.656 7.063-29.475 11.655-38.737 13.976-2.827.709-3.269 4.546-.669 5.863 8.596 4.354 23.796 11.732 39.765 11.732 3.527 0 7.076.008 10.611.038-18.75-14.617-5.293-29.855 2.935-36.765z" fill="#ff7186"/><g fill="#eab19d"><path d="m333.316 203.479c10.729 1.929 27.051 1.939 36.771-12.173.042-.061.092-.111.134-.171-.469-.23-.934-.459-1.37-.68-2.6-1.317-2.158-5.154.669-5.863 9.262-2.322 25.081-6.913 38.737-13.976 16.355-8.46 44.01-10.491 65.378-10.973-6.521-3.259-9.9-9.371-13.842-16.525-1.08-1.961-2.196-3.988-3.428-6.05-3.353-5.611-9.758-7.539-16.983-7.539-14.139 0-31.409 7.388-35.032 9.011l-14.145-6.404-.27-.019c-5.224-.362-9.033-2.221-11.324-5.524-2.717-3.917-2.924-9.209-2.549-13.238-1.039-.178-2.081-.488-3.104-.983-.1-.049-.2-.098-.298-.147-4.648-2.337-10.227-1.495-13.922 2.167-4.074 4.038-10.013 8.96-17.93 13.171-16.862 8.969-24.038 34.083-10.404 69.243.936 2.416 1.908 4.629 2.912 6.673z"/><path d="m493.618 210.977c-5.284.099-13.154-.489-21.141-3.766-10.493-4.305-27.442-5.583-45.551-5.953-4.654 5.42-9.109 12.886-8.455 21.168.403 5.106 2.715 9.897 6.885 14.345 12.592-1.9 23.749-5.836 40.305-2.652 19.088 3.671 28.161-8.683 32-16.909 1.364-2.923-.816-6.293-4.043-6.233z"/></g><path d="m332.542 201.855c13.638 29.525 33.837 24.466 62.441 32.929 13.163 3.895 22.972 3.233 32.178 1.701-13.27-13.349-5.641-26.977 1.755-35.182-6.671-.163-13.527-.191-20.3-.191-15.969 0-31.169-6.302-39.765-10.656-9.637 13.992-26.027 13.471-36.309 11.399z" fill="#dd9176"/><path d="m464.002 112.669c-1.543-.045-2.927-.914-3.667-2.27-.417-.765-.9-1.487-1.434-2.177-17.016 6.104-30.522-12.247-55.667-5.234-5.971 1.665-10.542 1.821-13.775 1.497-1.715 6.474-8.433 10.535-14.88 8.514-.74 7.517.425 19.587 15.254 20.614l14.518 6.575s40.805-18.958 50.727-2.35c5.264 8.811 8.51 17.168 15.622 21.88 6.955-.201 13.356-.223 18.639-.223 9.443 0 15.173-2.07 18.624-4.364 3.55-2.36 4.956-6.943 3.422-10.92-10.88-28.224-38.678-31.289-47.383-31.542z" fill="#f9c8b9"/><ellipse cx="481.308" cy="136.947" fill="#e17f51" rx="8.696" ry="6"/><path d="m403.234 105.142c25.71-7.171 39.252 12.182 56.819 4.791-7.413-12.541-31.438-14.286-53.59-19.321-13.155-2.99-16.344 4.152-16.58 11.092-.06 1.756-.489 3.385-1.176 4.849 3.258.427 8.078.387 14.527-1.411z" fill="#ff7186"/><ellipse cx="395.453" cy="135.828" fill="#e17f51" rx="13.514" ry="15.374"/><ellipse cx="395.453" cy="129.495" fill="#fcf2c8" rx="10.694" ry="10.694" transform="matrix(.973 -.23 .23 .973 -19.173 94.32)"/><path d="m406.147 132.492c0 2.953-2.394 5.347-5.347 5.347s-5.347-2.394-5.347-5.347 2.394-5.347 5.347-5.347 5.347 2.394 5.347 5.347z" fill="#543e5b"/><path d="m245.002 501.002c126.901 0 231.266-96.48 243.749-220.09-27.485-8.337-101.377-25.686-132.786 17.036-38.965 52.999 13.035 77.173-16.965 128.086s-103.973-5.498-144.487 3.208c-26.446 5.683-48.832 20.869-52.572 49.085 31.328 14.551 66.244 22.675 103.061 22.675z" fill="#2a428c"/><path d="m245.002 10.998c-104.574 0-193.824 65.526-228.981 157.753 70.327-25.906 157.594 35.09 178.492-17.548 24.514-61.745 63.487-82.256 120.833-82.256 27.657 0 36.469-16.037 38.182-32.643-32.713-16.191-69.552-25.306-108.526-25.306z" fill="#2a428c"/><path d="m245.002 10.998c-78.858 0-148.996 37.266-193.801 95.14 21.918 9.745 74.771 28.348 100.799-4.773 33.333-42.418 71.333-65.084 104-65.084 18.536 0 26.802-10.104 29.007-22.003-13.02-2.142-26.378-3.28-40.005-3.28z" fill="#3e60a3"/><path d="m479.238 327.99c-33.93-7.439-97.98-12.818-87.238 56.418 4.034 26 2.774 48.917-1.065 68.39 41.431-30.774 72.803-74.314 88.303-124.808z" fill="#3e60a3"/><path d="m238.926 376.688c-3.287-4.089-3.663-10.1-.212-14.622 8.477-11.107 20.527-30.733 18.512-50.529-1.542-15.152-12.183-22.277-22.366-25.618-12.767-4.188-26.872.523-34.636 11.49-9.403 13.281-9.73 27.623-7.967 38.156 1.432 8.554.304 17.422-3.813 25.055-7.526 13.954-2.437 33.67 18.41 34.886 8.452.493 17.005.876 25.087 1.496-8.663-12.312-.121-17.902 6.985-20.314z" fill="#88ce65"/></g></svg>