<svg id="Layer_1" enable-background="new 0 0 512 512" height="512" viewBox="0 0 512 512" width="512" xmlns="http://www.w3.org/2000/svg"><g><path d="m245.002 10.998c-70.814 0-134.598 30.055-179.328 78.091l-2.494 331.118c44.835 49.614 109.685 80.795 181.822 80.795 135.311 0 245.002-109.691 245.002-245.002s-109.691-245.002-245.002-245.002z" fill="#45304c"/><path d="m383.785 292.846c-34.132-6.117-35.665.946-33.502 5.743.919 2.038 2.501 3.684 4.401 4.821 3.246 1.942 10.502 6.249 19.928 11.638-3.122-10.446 3.528-17.948 9.173-22.202z" fill="#ff4155"/><path d="m449.506 351.581c-31.602-12.311-81.365-41.255-91.464-47.196-1.86-1.094-3.408-2.678-4.307-4.64-2.121-4.626-.616-11.444 32.984-5.494 4.916.871 10.155 2.062 15.593 3.491 10.521-8.421 5.379-24.164-10.176-27.491-14.265-3.051-8.664-13.318-6.992-15.903-1.667-.396-2.592-.597-2.592-.597l-2.422-1.228c-6.956.911-28.52 4.519-47.357 15.946-15.578 9.453-21.576 4.731-24.147 11.58-.881 2.348-.467 4.912 1.106 6.858 5.484 6.786 12.209 14.985 17.564 21.133l7.254 5.711c51.586 40.964 92.713 45.904 113.823 44.847 3.916-.197 4.785-5.595 1.133-7.017z" fill="#ffc839"/><path d="m389.135 270.25c15.199 3.251 20.458 18.357 10.876 26.903 37.125 9.38 84.698 30.802 104.23 39.973 4.156 1.951 8.765-1.836 7.565-6.268-14.112-52.14-129.255-77.107-129.255-77.107s-9.781 12.999 6.584 16.499z" fill="#ffdd40"/><ellipse cx="389.135" cy="270.25" fill="#ff9433" rx="8.417" ry="5.5"/><path d="m62.166 186.362c-.551.436-1.099.871-1.661 1.311-23.994 18.804-41.247 16.325-52.984 7.877-4.908 19.336-7.521 39.587-7.521 60.45 0 30.664 5.65 60.004 15.938 87.058 18.359-8.852 34.82-18.504 49.103-28.818 14.335-10.351 18.609-29.974 9.942-45.646-14.358-25.966-14.165-55.391-12.817-82.232z" fill="#ffc839"/><path d="m56.521 118.673c-1.955-3.421-4.565-6.567-7.693-9.463-19.384 25.863-33.765 55.689-41.728 88.039 11.744 8.691 29.125 11.453 53.405-7.575.528-.414 1.042-.822 1.56-1.232.16-3.375.342-6.714.523-10.001 1.324-24.056 2.468-44.833-6.067-59.768z" fill="#ffdd40"/><path d="m314.164 277.136c.588-.103 1.203-.225 1.83-.358-8.325-12.348 7.339-23.029 7.339-23.029s18.334-2.594 5.815-24.386c-7.345-12.786-.882-18.466 5.715-20.979-10.143-4.928-21.185-9.505-32.486-14.194-28.492 1.337-38.235 22.92-41.417 34.492 9.457 16.508-.682 25.987-15.075 32.733-21.333 10-120.667 45.833-139.667-5.417-7.44-20.068-9.166-44.246-8.189-67.906-15.236 16.956-28.607 9.528-37.435-.319-1.29 26.677-1.217 55.696 13.076 81.544 3.228 5.837 4.59 12.249 4.239 18.493 4.757 12.424 25.587 58.717 70.09 52.937 30.615-3.976 46.052 11.488 47.022 31.124 3.329-3.615 6.527-7.479 9.569-11.618 67.218-91.469 129.961-46.506 129.961-46.506-5.304-5.304-16.474-18.904-23.652-27.787-2.61-3.227-.826-8.109 3.265-8.824z" fill="#ff4155"/><path d="m334.016 207.976c-6.949 2.282-14.642 7.855-6.868 21.387 12.519 21.792-5.815 24.386-5.815 24.386s-15.949 10.879-7.096 23.372c5.219-.919 12.036-2.957 19.315-7.372 22.667-13.75 49-16 49-16-5.87-21.061-24.801-34.341-48.536-45.773z" fill="#ff7186"/><path d="m55.218 119.417c9.635 16.862 6.555 42.359 5.286 70.257 8.811 9.879 22.189 17.411 37.444.512.407-11.832 1.509-23.569 2.936-34.632.747-5.795 3.768-10.996 8.268-14.723 4.01-3.321 6.566-8.332 6.566-13.948 0-5.04-2.062-9.592-5.385-12.874-1.899-1.876-2.909-4.517-2.593-7.168 1.363-11.447-7.575-22.091-19.694-22.091-3.809 0-7.366 1.074-10.387 2.936-3.624 2.234-7.993 2.621-11.985 1.403-6.306 6.772-12.236 13.897-17.75 21.35 2.965 2.759 5.445 5.741 7.294 8.978z" fill="#ff7186"/><ellipse cx="327.148" cy="241.601" fill="#ffc839" rx="15.073" ry="17.149"/><ellipse cx="327.148" cy="234.537" fill="#deeeff" rx="11.928" ry="11.928" transform="matrix(.923 -.386 .386 .923 -65.126 144.236)"/><g fill="#543e5b"><path d="m339.076 237.88c0 3.294-2.67 5.964-5.964 5.964s-5.964-2.67-5.964-5.964 2.67-5.964 5.964-5.964 5.964 2.67 5.964 5.964z"/><path d="m245.002 10.998c-37.696 0-73.398 8.519-105.296 23.73 2.318 26.406 14.912 64.811 69.294 60.11 82-7.088 73.718 57.185 140.642 85.331 42.212 17.753 88.997 10.358 122.063-17.199-36.633-89.172-124.327-151.972-226.703-151.972z"/><path d="m342.222 367.221c-66.778-35.362-95.888 15.362-153.222 86.695-10.502 13.066-19.654 23.727-27.61 32.443 26.091 9.474 54.247 14.642 83.612 14.642 70.192 0 133.482-29.526 178.15-76.826-16.852-15.573-43.964-37.378-80.93-56.954z"/></g><path d="m242.329 500.966c.892.009 1.779.036 2.673.036 46.787 0 90.506-13.121 127.691-35.875-12.64-32.659-35.057-54.388-60.619-54.388-34.068 0-62.563 38.581-69.745 90.227z" fill="#6c5475"/><path d="m449.598 121.217c-43.825-66.399-119.085-110.219-204.596-110.219-9.799 0-19.459.588-28.956 1.707 2.663 13.158 12.444 26.749 39.954 31.045 95.514 14.914 80.81 109.291 193.598 77.467z" fill="#6c5475"/><path d="m196.054 370.742c-.554-20.045-15.989-36.026-47.054-31.992-51.331 6.666-71.174-55.956-71.175-55.961 1.058 11.497-3.772 23.096-13.672 30.243-11.65 8.411-27.662 18.423-48.752 28.612 10.912 29.24 27.242 55.836 47.779 78.563 42.564.528 96.115-8.615 132.874-49.465z" fill="#e80054"/><path d="m307.109 196.156c-14.979-6.231-30.572-12.549-45.224-20.073-21.959-11.276-30.974-26.897-34.217-40.761-1.726-7.379-12.213-7.597-14.372-.333-5.936 19.967-6.293 45.503 18.589 64.427 15.842 12.048 25.03 21.854 29.453 29.947 3.744-12.473 14.735-34.137 45.771-33.207z" fill="#e80054"/></g></svg>