<svg id="Layer_1" enable-background="new 0 0 512 512" height="512" viewBox="0 0 512 512" width="512" xmlns="http://www.w3.org/2000/svg"><g><path d="m245.002 10.998c-98.241 0-182.962 57.831-222.017 141.299l111.861 322.588c33.117 16.699 70.534 26.116 110.156 26.116 135.311 0 245.002-109.691 245.002-245.002s-109.691-245.001-245.002-245.001z" fill="#1c2e7a"/><path d="m437.229 136.182h-2c-22.697 1.504-72.572 12.095-121.363 71.234-14.611 17.71-29.449 33.324-43.701 46.91.979.166 1.985.301 3.048.367-1.109 3.375-2.628 10.231.881 15.696 1.648 2.567 4.178 4.462 7.547 5.689 22.445-22.184 46.146-46.659 65.226-68.828 39.701-46.129 77.394-53.084 93.416-53.734-4.914-5.66-4.501-12.337-3.054-17.334z" fill="#ffc839"/><path d="m200.242 366.779c6.148-14.75 15.448-27.97 27.164-38.837 14.214-13.184 34.315-32.141 55.43-53.045-15.114-4.917-7.475-21.639-7.475-21.639-1.372 0-2.641-.086-3.831-.234-20.714 19.885-40.247 35.497-56.106 47.004-21.491 15.593-35.31 39.644-37.811 66.079-1.27 13.427-4.072 29.065-9.706 45.255 16.407-12.46 26.534-30.668 32.335-44.583z" fill="#ffb332"/><path d="m436.245 125.714c-6.35-9.014-4.726-16.738-1.379-22.297.257-.427.533-.839.815-1.246-.017-.022-.035-.044-.053-.065-14.727.717-40.05 4.125-71.973 16.996.457 11.835-2.626 20.996-8.9 23.281-5.738 2.089-13.134-1.945-19.912-9.809-8.982 4.78-18.314 10.292-27.936 16.654 3.95 17.717 1.282 33.211-7.151 36.284-6.684 2.433-15.613-3.436-23.198-13.992-7.534 6.1-15.191 12.732-22.942 19.938 5.065 15.637 5.121 30.71.719 38.703l.12.286c-.293 2.151-1.146 11.283 4.316 17.794 3.269 3.894 8.12 6.06 14.443 6.452-.091.276-.184.582-.277.901 14.015-13.413 28.583-28.787 42.93-46.178 48.79-59.139 98.665-69.731 121.362-71.234.164-.567.337-1.12.522-1.64 1.289-3.625.71-7.682-1.506-10.828z" fill="#52ceaa"/><path d="m147.2 456.75c22.141-29.976 30.011-63.26 32.412-88.644 2.501-26.435 16.319-50.485 37.811-66.079 16.325-11.844 36.543-28.041 57.936-48.77-23.414 0-19.359-23.001-19.359-23.001l-.799-1.908c-1.502 3.576-3.714 6.108-6.613 7.164-7.341 2.673-17.386-4.666-25.386-17.228-9.098 6.132-18.875 10.937-29.087 14.625 2.009 26.787-5.659 48.693-18.616 50.685-6.787 1.037-14.12-3.638-20.662-13.175-5.044-7.354-9.107-16.877-11.811-27.514-12.454.767-24.961.535-37.163-.39.016.869.049 1.732.049 2.606 0 37.015-14.151 67.129-31.545 67.129s-31.545-30.114-31.545-67.129c0-4.385.199-8.698.585-12.896-17.261-4.244-31.502-8.836-40.786-12.092-1.718 11.709-2.621 23.682-2.621 35.867 0 95.69 54.865 178.555 134.846 218.886 3.575-5.743 7.667-11.79 12.354-18.136z" fill="#42ba9b"/><path d="m282.534 152.75c-100 71.333-137.333 64-164.667 46.667-17.24-10.933-63.248-32.603-94.882-47.119-9.978 21.324-16.973 44.319-20.451 68.454 38.277 13.557 170.149 53.182 239.333-16.002 85.102-85.102 160.758-99.562 192.777-101.535 2.349-3.407 5.546-6.092 9.21-7.94-18.573-1.691-78.828-1.369-161.32 57.475z" fill="#34a086"/><path d="m440.716 157.863c-8.185-6.675-7.009-15.57-4.965-21.32 1.289-3.626.71-7.683-1.506-10.829-6.35-9.014-4.726-16.738-1.38-22.297 3.697-6.141 10.027-10.204 17.068-11.551 7.155-1.368 17.762-1.908 26.282 3.864 2.623 1.777 5.518 3.107 8.624 3.734 8.625 1.74 25.591 7.568 27.136 26.582.325 3.995-2.613 7.516-6.578 8.104-7.109 1.053-19.163 2.499-31.492 2.447-3.343-.014-4.209 4.627-1.07 5.782 4.593 1.69 9.301 3.192 13.032 3.87 4.966.903 9.678 1.092 13.352 1.029 4.343-.075 7.164 4.573 5.108 8.4-2.155 4.012-6.339 7.667-14.46 6.738-11.516-1.318-21.968-2.793-27.376-3.586-2.545-.373-5.144-.038-7.509.973l-.038.016c-4.738 2.025-10.234 1.3-14.228-1.956z" fill="#fee884"/><g fill="#34a086"><path d="m175.727 285.076c13.808-2.122 22.017-24.91 19.852-52.705-17.15 6.401-35.566 9.606-54.071 10.625 6.552 25.977 20.793 44.143 34.219 42.08z"/><path d="m300.269 186.921c9.392-3.421 12.396-19.691 7.995-38.584-10.641 6.967-21.638 14.974-32.904 24.163 7.996 11.133 17.501 17.119 24.909 14.421z"/><path d="m355.269 143.792c7.087-2.581 10.531-12.482 9.908-25.3-9.961 3.949-20.581 8.824-31.735 14.83 7.272 8.55 15.351 12.829 21.827 10.47z"/><path d="m249.102 236.921c10.697-3.897 13.107-24.46 5.729-46.583-4.623 4.267-9.278 8.727-13.964 13.412-5.891 5.891-12.239 10.988-18.942 15.385 8.41 13.264 19.054 20.745 27.177 17.786z"/><path d="m74.367 313.75c18.25 0 33.045-30.726 33.045-68.629 0-.835-.01-1.666-.024-2.494-23.808-1.687-46.51-6.04-65.447-10.764-.405 4.29-.619 8.721-.619 13.258 0 37.903 14.795 68.629 33.045 68.629z"/></g><ellipse cx="465.699" cy="114.593" fill="#ffc839" rx="10.699" ry="12.172"/><circle cx="465.699" cy="109.579" fill="#deeeff" r="8.466"/><path d="m474.165 111.951c0 2.338-1.895 4.233-4.233 4.233s-4.233-1.895-4.233-4.233 1.895-4.233 4.233-4.233c2.338.001 4.233 1.896 4.233 4.233z" fill="#543e5b"/><path d="m245.002 10.998c-78.291 0-147.995 36.728-192.843 93.89 34.072 34.151 98.298 79.148 174.035 37.294 89.343-49.372 111.463-70.001 167.469-80.922-41.23-31.522-92.753-50.262-148.661-50.262z" fill="#2a428c"/><path d="m376.562 247.686c-72.967 55.638-196.676 184.479-138.381 253.215 2.266.062 4.539.101 6.82.101 135.311 0 245.002-109.691 245.002-245.002 0-9.917-.605-19.691-1.751-29.3-27.774-10.901-66.785-13.254-111.69 20.986z" fill="#2a428c"/><g fill="#3e60a3"><path d="m315.35 21.255c-22.281-6.671-45.895-10.257-70.348-10.257-57.942 0-111.167 20.132-153.107 53.761 20.523 23.705 58.198 53.812 111.63 30.08 62.184-27.62 102.054-48.68 111.825-73.584z"/><path d="m486.707 296.171c-24.761-10.196-63.073-16.552-99.682 15.579-58.876 51.675-124.089 129.424-79.422 181.167 92.345-24.336 163.346-101.222 179.104-196.746z"/></g></g></svg>