<svg id="Layer_1" enable-background="new 0 0 512 512" height="512" viewBox="0 0 512 512" width="512" xmlns="http://www.w3.org/2000/svg"><g><path d="m245.002 10.998c-76.599 0-144.979 35.161-189.906 90.214l-22.826 276.4c17.009 29.689 40.059 55.469 67.467 75.683l59.456 32.244c26.707 9.988 55.617 15.463 85.808 15.463 135.311 0 245.002-109.691 245.002-245.002s-109.69-245.002-245.001-245.002z" fill="#945230"/><path d="m461.431 208.509c-3.283-.106-6.441-1.317-8.917-3.475-25.412-22.15-51.917-13.287-61.757-8.697.236.429.403.871.49 1.29.352 1.696-.245 3.324-1.598 4.353-7.998 6.084-10.865 14.181-8.292 23.419 2.009 7.213.163 14.957-4.818 20.211-4.584 4.837-13.122 13.84-29.884 10.449-3.513-.709-7.108-2.636-9.619-5.151-1.973-1.976-4.615-3.029-7.304-3.029-1.257 0-2.526.231-3.74.704-3.824 1.494-8.305.717-11.416-1.978-3.007-2.602-7.406-3.11-10.948-1.257-4.32 2.258-9.914 1.357-13.299-2.145-2.811-2.905-7.165-3.779-11.098-2.224-4.044 1.597-8.861.628-11.989-2.411-3.082-2.998-7.829-3.539-11.813-1.342-6.882 3.791-15.817 2.054-20.793-4.044-3.036-3.72-8.12-4.906-12.362-2.888-.758.361-1.541.646-2.335.879.325.293.647.572.964.836-3.505 5.012-15.848 24.628-9.357 44.079 3.821 11.45 13.457 20.575 28.708 27.242 6.353-2.72 13.275-4.083 20.311-4.01 27.577.286 58.463-11.535 72.885-17.815 5.164-2.249 10.917-2.717 16.387-1.371 24.697 6.077 49.125.787 60.65-2.566 4.253-1.237 8.827-1.002 12.876.793 23.673 10.496 49.731 5.488 64.247 1.089 2.712-.822 2.487-4.707-.291-5.271-13.292-2.699-21.647-9.632-26.077-14.511-2.266-2.496-1.282-6.481 1.856-7.713 25.324-9.938 38.794-1.992 44.25 3.071 1.373 1.273 3.629.511 3.937-1.336 6.642-39.815-34.914-44.7-49.854-45.181z" fill="#fee884"/><path d="m242.227 302.535c-55.789-23.339-19.268-70.805-19.268-70.805-.495-.379-.957-.756-1.403-1.134-6.807 2.833-15.102.644-19.593-5.295-2.989-3.951-8.447-5.162-12.973-2.882-6.256 3.148-14.104 1.926-19.084-2.971-3.578-3.514-8.949-3.995-13.063-1.171-6.03 4.14-14.464 3.718-20.055-1.004-3.646-3.078-9.047-3.033-12.838.115-6.546 5.434-16.649 4.87-22.516-1.254-3.368-3.514-8.663-4.253-12.591-1.76-6.676 4.239-15.732 3.036-21.07-2.794-3.168-3.459-8.426-4.137-12.504-1.619-6.489 4.006-15.088 2.992-20.448-2.414-3.27-3.299-8.516-3.827-12.471-1.262-5.263 3.414-12.083 3.432-17.377.356-3.26 15.944-4.973 32.451-4.973 49.359 0 44.26 11.74 85.777 32.27 121.612 100.683 3.555 167.917-42.727 195.764-66.693 4.24-3.649 9.052-6.445 14.193-8.384z" fill="#ffdd40"/><path d="m169.972 456.543c-5.238-.559-10.161-2.53-14.227-5.624-1.171.77-2.423 1.528-3.733 2.227-8.761 4.671-15.727 4.519-20.702-.456-14.499-14.499-19.945-51.235-14.57-98.27 1.556-13.609 6.982-23.671 16.128-29.903 12.816-8.737 30.188-8.082 40.082-6.747 1.226-4.356 2.133-8.226 2.802-11.511 2.18-10.702 1.457-21.859-2.528-32.028-3.958-10.101-10.107-17.116-17.218-21.934-27.098-18.361-64.283-3.432-72.302 28.303-3.316 13.121-5.456 29.15-3.876 46.945.809 9.116-.922 18.262-4.679 26.607-5.019 11.148-9.373 27.645 1.05 39.306 14.484 16.205 9.052 38.928 23.539 59.838 18.081 13.335 38.059 24.242 59.457 32.245 7.341 1.208 16.387 1.749 24.151-.615 8.659-2.635 16.415-1.107 21.775.899 3.169 1.185 6.171-2.006 4.785-5.092-8.033-17.898-27.59-22.874-39.934-24.19z" fill="#ffb332"/><path d="m388.29 192.599c-22.378-5.48-34.277 3.986-39.421 4.845-1.907.319-3.67 1.063-5.189 2.131-1.8 1.266-4.369.726-5.528-1.145-3.075-4.962-9.364-7.233-14.906-5.358-2.414.817-5.096-.325-6.286-2.578-3.295-6.234-10.909-9.165-17.55-6.798-2.2.784-4.531-.273-5.269-2.489-3.4-10.207-15.359-15.115-24.934-10.474-2.286 1.108-4.716-.093-5.514-2.505-3.46-10.465-16.021-15.4-25.679-10.17-2.145 1.161-4.878.098-5.63-2.222-.231-.714-.509-1.4-.821-2.061l-.306.806c-2.177.628-8.165 2.769-11.463 8.013-2.214 3.521-2.768 7.704-1.645 12.435.621 2.617-.155 5.432-2.025 7.344-6.575 6.729-7.702 13.679-3.171 19.567 1.864 2.422 2.257 5.681 1.025 8.503-4.3 9.853 1.996 17.453 6.926 21.563-.139.199-.297.43-.463.674.854-.254 1.698-.561 2.518-.952 3.641-1.734 7.895-.667 10.445 2.458 5.429 6.653 15.235 8.597 22.793 4.431 3.227-1.779 7.294-1.48 9.937 1.089 3.57 3.471 9.041 4.585 13.683 2.75 3.25-1.285 6.94-.661 9.37 1.851 3.879 4.011 10.221 5.04 15.179 2.448 2.965-1.55 6.64-1.137 9.17 1.052 3.548 3.07 8.648 3.967 13.035 2.256 3.256-1.27 6.872-.507 9.341 1.967 2.796 2.801 6.743 4.841 10.43 5.586 16.703 3.379 25.575-4.819 31.354-10.914 5.476-5.776 7.331-14.065 5.196-21.732-2.929-10.517 2.112-17.458 7.722-21.725 4.006-3.048 2.567-9.448-2.324-10.646z" fill="#88ce65"/><path d="m189.705 223.84c3.764-1.895 8.448-.939 10.99 2.422 5.071 6.705 14.579 9.129 22.264 5.469-10.365-7.929-9.787-15.689-7.607-20.686 1.454-3.333 1.007-7.136-1.211-10.018-5.28-6.861-.837-13.619 3.056-17.603 2.245-2.298 3.153-5.612 2.411-8.738-3.621-15.263 12.776-18.847 12.776-18.847-3.427-10.571-16.166-15.521-25.852-10.166-2.172 1.201-4.928.112-5.689-2.25-3.318-10.304-15.515-15.339-25.137-10.585-2.294 1.133-5.123-.023-5.717-2.511-2.934-12.3-18.492-17.877-28.556-10.052-1.94 1.508-4.812.958-5.958-1.216-5.158-9.79-18.505-12.63-27.189-5.661-1.93 1.548-4.764.841-5.995-1.304-5.83-10.16-20.487-12.02-28.623-3.507-1.741 1.822-4.674 1.738-6.169-.291-3.044-4.13-7.617-6.52-12.404-7.082-24.86 30.464-42.531 67.018-50.439 107.085 5.733 3.088 12.967 2.95 18.56-.678 3.29-2.133 7.714-1.737 10.475 1.047 5.855 5.905 15.352 7.008 22.413 2.648 3.367-2.079 7.823-1.58 10.496 1.339 5.83 6.368 15.799 7.697 23.096 3.064 3.384-2.149 7.816-1.376 10.59 1.518 6.443 6.725 17.541 7.302 24.68 1.377 3.156-2.62 7.662-2.769 10.796-.123 6.152 5.194 15.351 5.65 21.981 1.099 3.469-2.381 8.047-1.954 11.048.995 5.477 5.381 14.072 6.698 20.914 3.255z" fill="#6faf46"/><path d="m445.113 227.389c.484 9.243-5.709 17.08-13.833 17.506s-15.103-6.721-15.587-15.964c-.485-9.243 5.709-17.08 13.833-17.506 8.123-.426 15.102 6.721 15.587 15.964z" fill="#ffb332"/><path d="m441.681 220.656c.337 6.429-4.601 11.913-11.03 12.25s-11.914-4.601-12.25-11.03c-.337-6.429 4.601-11.913 11.03-12.25s11.914 4.601 12.25 11.03z" fill="#fcf2c8"/><path d="m441.852 223.918c.168 3.214-2.301 5.957-5.515 6.125s-5.957-2.301-6.125-5.515 2.301-5.957 5.515-6.125c3.215-.168 5.957 2.301 6.125 5.515z" fill="#543e5b"/><path d="m136.396 36.353c7.058 19.448 26.144 42.749 73.876 59.398 84.664 29.531 171.985 89.232 238.689 24.482-43.921-65.849-118.869-109.235-203.959-109.235-39.008 0-75.874 9.135-108.606 25.355z" fill="#b26847"/><path d="m469.141 355.045c-21.531-24.618-59.235-48.328-120.408-31.795-111 30-146.453 48-139.658 99.223 6.021 45.389 63.647 29.032 82 74.184 79.882-15.202 146.01-69.177 178.066-141.612z" fill="#b26847"/><path d="m245.002 10.998c-5.24 0-10.438.178-15.596.503-1.989 15.672 3.403 37.964 42.547 51.916 57.077 20.344 106.894 44.735 143.053 16.186-44.056-42.475-103.974-68.605-170.004-68.605z" fill="#c67859"/><path d="m447.224 394.324c-19.076-21.246-55.384-48.113-106.307-26.605-65.948 27.854-62.31 84.92 10.093 109.2 38.863-18.68 72.034-47.312 96.214-82.595z" fill="#c67859"/><path d="m147.88 441.403c-12.696-25.841-4.633-61.968-4.633-61.968 17.178-24.54 25.803-47.303 30.112-63.143-16.37-2.273-53.451-2.791-58.108 37.957-6 52.5 1.75 86.25 15 99.5 8.058 8.058 19.253 3.171 26.795-1.896-3.859-2.597-7.053-6.149-9.166-10.45z" fill="#ffc839"/></g></svg>