<svg id="Layer_1" enable-background="new 0 0 512.011 512.011" height="512" viewBox="0 0 512.011 512.011" width="512" xmlns="http://www.w3.org/2000/svg"><g><path d="m245.002 11.004c-70.814 0-134.598 30.055-179.328 78.091l-2.494 331.118c44.835 49.613 109.685 80.795 181.822 80.795 135.311 0 245.002-109.691 245.002-245.002s-109.691-245.002-245.002-245.002z" fill="#45304c"/><path d="m74.984 268.599c-15.786-28.547-13.984-61.275-12.395-90.152 1.324-24.057 2.468-44.833-6.067-59.769-1.955-3.421-4.565-6.567-7.693-9.463-30.663 40.912-48.829 91.729-48.829 146.791 0 30.664 5.65 60.004 15.938 87.059 18.359-8.852 34.82-18.504 49.103-28.818 14.335-10.352 18.61-29.975 9.943-45.648z" fill="#ffb332"/><path d="m324.185 203.063c-1.763 34.302-55.344 10.197-78.163-1.675-.538 6.643.686 15.392 2.865 26.118.033.163.065.325.097.486 3.505 18.031-7.008 35.839-24.394 41.764-2.121.723-4.343 1.452-6.64 2.176-2.179 10.517-7.42 18.117-14.802 19.727-3.596.785-7.372.081-11.227-2.087-2.442-1.374-5.355-1.643-7.994-.736-2.655.912-4.806 2.933-5.9 5.543-1.309 3.124-2.959 5.726-4.866 7.744.223.064.434.138.664.196-1.495 4.003-4.477 14.165-.187 22.791 2.787 5.604 8.094 9.457 15.788 11.471-.51 1.357-1.184 3.437-1.645 5.866 16.056-13.035 26.345-25.274 35.44-25.274 21.333 0 29.833-4.5 48-22.667 9.841-9.841 19.48-15.275 26.254-18.193-1.316-2.723-.341-6.378 2.956-7.714 12.737-5.16 32.021-11.157 40.957-20.093 12.5-12.5 32-18.113 32-18.113-8.774-8.774-28.166-18.906-49.203-27.33z" fill="#88ce65"/><path d="m175.892 301.224c-.576-.099-1.119-.217-1.64-.348-2.463 3.071-5.438 5.067-8.723 5.783-5.792 1.267-12.216-1.412-18.086-7.534-2.199-2.294-5.27-3.35-8.422-2.892-3.159.457-5.811 2.343-7.273 5.174-4.94 9.56-11.668 15.233-19.995 16.863-10.686 2.087-23.986-2.395-39.669-13.342-2.106 3.06-4.754 5.816-7.931 8.109-11.65 8.411-27.662 18.424-48.752 28.613 4.198 11.251 9.207 22.105 14.941 32.504 15.5-3.783 32.284-5.125 50.11-2.649 55.251 7.677 87.591-12.659 109.208-30.601.79-3.176 1.82-5.376 1.82-5.376-28.632-6.198-15.588-34.304-15.588-34.304z" fill="#6faf46"/><path d="m106.218 256.005c-2.999-8.089-5.065-16.848-6.405-25.969-14.351 16.759-30.234 7.042-38.402-.212 1.695 13.495 5.278 26.876 12.259 39.5 6.633 11.994 5.417 26.411-2.464 36.816 35.899 25.052 53.4 12.348 61.874-4.047 2.593-5.017 9.371-6.008 13.279-1.932 6.005 6.263 12.931 9.391 19.488 7.961 5.956-1.299 10.62-6.146 13.562-13.166 1.937-4.623 7.406-6.536 11.775-4.079 4.032 2.268 8.227 3.129 12.282 2.245 8.142-1.775 13.875-10.18 16.088-21.703-37.71 12.122-98.854 23.648-113.336-15.414z" fill="#5ea033"/><path d="m101.326 153.213c-.147.112-.294.226-.44.338-17.122 13.027-31.022 6.098-38.904-.717.198 23.361-4.187 51.621-.267 79.259 8.303 7.264 24.114 16.611 38.357-.361-3.879-24.59-2.306-51.993.814-76.181.102-.793.255-1.571.44-2.338z" fill="#ffdd40"/><path d="m300.499 279.074c-2.66-1.033-3.844-3.582-3.548-5.965-6.793 2.867-16.656 8.324-26.729 18.397-18.167 18.167-26.667 22.667-48 22.667-8.655 0-18.387 11.083-33.144 23.388-1.474 4.301-3.529 12.935.701 19.587 2.333 3.669 6.205 6.134 11.54 7.388 1.109-1.392 2.202-2.814 3.274-4.273 3.895-5.3 7.774-10.14 11.628-14.557 9.504-10.895 23.379-17.036 37.826-16.486 11.125.424 21.038.092 30.843-9.714 21.25-21.25 74.5-26 74.5-26-18.728 0-44.41-8.811-58.891-14.432z" fill="#cbe87c"/><path d="m79.452 368.506c-18.035-2.506-35.003-1.099-50.655 2.786 9.464 17.716 21.027 34.141 34.383 48.921 45.06.559 102.43-9.72 139.158-56.981-21.702-4.549-10.858-27.703-10.858-27.703-21.607 18.454-54.32 40.995-112.028 32.977z" fill="#88ce65"/><path d="m482.449 311.78c-34.842-3.481-74.033-18.765-99.152-30.075-4.877-2.196-3.317-9.501 2.031-9.49 8.806.018 19.964-.548 33.858-2.209 12.87-1.539 25.97-.841 38.17.955 2.505-2.247 4.698-5.819 4.698-11.455 0-9.107-18.55-9.622-38.189-10.167-10.15-.281-19.738-.548-25.608-2.037-3.749-.951-6.248-2.808-7.426-5.517-1.637-3.766-.587-8.538.589-11.901-10.979-.067-18.033.508-18.033.508s-20 2.738-32.5 15.238c-8.936 8.936-31.582 18.24-44.319 23.4-4.735 1.918-4.694 8.626.069 10.475 11.944 4.637 32.474 11.716 51.178 13.586 8.26.826 16.274 3.197 23.701 6.907 52.144 26.05 93.479 22.723 111.486 17.747 3.255-.898 2.807-5.63-.553-5.965z" fill="#fc7e65"/><path d="m511.762 280.782c-19.372-45.441-89.636-50.882-121.93-50.902-2.011 6.07-3.322 15.989 8.055 18.876 16.75 4.25 62.667-1.202 62.667 10.75 0 5.864-2.568 9.245-5.183 11.171 22.787 3.1 42.683 10.193 52.434 14.109 2.506 1.007 5.016-1.519 3.957-4.004z" fill="#f98"/><ellipse cx="393.888" cy="248.756" fill="#e2573b" rx="12" ry="7.25"/><path d="m245.907 203.805c22.658 11.911 80.132 38.351 79.317-.321-16.567-6.696-34.248-12.361-48.632-15.478-22.735-4.928-30.401.812-30.685 15.799z" fill="#ff4155"/><ellipse cx="300.448" cy="229.514" fill="#6faf46" rx="16.884" ry="19.208" transform="matrix(.999 -.052 .052 .999 -11.603 16.043)"/><ellipse cx="300.034" cy="221.612" fill="#fcf2c8" rx="13.36" ry="13.36" transform="matrix(.049 -.999 .999 .049 64.127 510.541)"/><path d="m313.572 224.652c.193 3.684-2.637 6.827-6.321 7.021-3.684.193-6.828-2.637-7.021-6.321s2.637-6.828 6.322-7.021c3.684-.194 6.827 2.636 7.02 6.321z" fill="#543e5b"/><path d="m342.222 367.227c-66.778-35.362-95.888 15.362-153.222 86.695-10.502 13.066-19.654 23.727-27.61 32.443 26.091 9.474 54.247 14.642 83.612 14.642 70.192 0 133.482-29.526 178.15-76.826-16.851-15.574-43.964-37.379-80.93-56.954z" fill="#543e5b"/><path d="m242.329 500.971c.892.009 1.779.036 2.673.036 46.787 0 90.506-13.121 127.691-35.875-12.64-32.659-35.057-54.388-60.619-54.388-34.068.001-62.563 38.582-69.745 90.227z" fill="#6c5475"/><path d="m471.108 161.514c-36.986-88.397-124.288-150.51-226.106-150.51-45.436 0-87.968 12.39-124.44 33.947 22.183 8.338 47.829 26.994 59.326 68.48 20.627 74.434 93.2-6.286 169 56.156 51.112 42.103 97.452 24.394 122.22-8.073z" fill="#543e5b"/><path d="m443.57 112.49c-44.511-61.482-116.862-101.486-198.568-101.486-10.115 0-20.084.618-29.876 1.81.63 22.279 8.604 65.502 61.465 62.025 43.367-2.852 77.536 14.713 97.553 28.805 21.084 14.844 47.181 17.26 69.426 8.846z" fill="#6c5475"/><path d="m109.146 140.842c4.014-3.321 6.572-8.334 6.572-13.953 0-5.04-2.062-9.592-5.384-12.874-1.9-1.876-2.909-4.517-2.594-7.169 1.362-11.446-7.575-22.091-19.694-22.091-3.809 0-7.366 1.074-10.387 2.936-3.624 2.234-7.993 2.621-11.985 1.403-6.306 6.772-12.236 13.897-17.75 21.35 2.965 2.759 5.446 5.742 7.295 8.978 5.404 9.458 6.809 21.632 6.777 35.423 7.884 6.811 21.779 13.725 38.89.706.747-5.79 3.763-10.988 8.26-14.709z" fill="#fee884"/></g></svg>