<svg id="Layer_1" enable-background="new 0 0 512 512" height="512" viewBox="0 0 512 512" width="512" xmlns="http://www.w3.org/2000/svg"><g><path d="m245.002 10.998c-109.921 0-202.934 72.389-233.971 172.095l70.401 255.296c43.374 38.925 100.702 62.614 163.569 62.614 135.311 0 245.002-109.691 245.002-245.002.001-135.312-109.69-245.003-245.001-245.003z" fill="#88ce65"/><path d="m270.651 119.357c-1.326-.059-2.265 1.277-1.782 2.514l2.16 5.535c.449 1.15-.335 2.401-1.564 2.504-5.399.452-18.806 2.387-32.45 10.661-1.123.681-1.203 2.286-.147 3.067l3.817 2.821c1.098.812.969 2.49-.246 3.113-4.03 2.069-12.216 7.003-22.658 17.149-.808.785-.742 2.102.152 2.789l1.729 1.33c.794.611.953 1.741.361 2.55-2.949 4.035-12.126 15.293-26.189 20.71-1.315.507-1.621 2.223-.541 3.129l2.838 2.378c1.005.842.834 2.431-.326 3.042-6.886 3.622-27.524 13.151-46.283 8.439-1.615-.406-2.877 1.403-1.965 2.796l1.863 2.844c.896 1.367-.295 3.136-1.897 2.816-8.168-1.633-26.843-6.824-43.122-21.99-.987-.92-2.597-.491-3.001.796l-2.35 7.476c-.388 1.235-1.892 1.699-2.902.889-6.141-4.928-24.77-19.087-41.322-23.543-1.174-.316-2.328.567-2.328 1.783v4.828c0 1.375-1.455 2.273-2.676 1.641-5.524-2.858-19.331-8.721-38.788-8.33-2.169 6.968-4.019 14.076-5.567 21.295 68.234-6.839 125.906 48.887 178.018 24.826 17.884-8.256 34.054-24.743 52.431-53.457 28.14-43.967 70.993-34.521 78.076-34.567.359-.581 1.924-3.595 4.896-7.354 1.154-1.457 2.456-2.767 3.87-3.923l-.059-.14c-.004-.002-32.147-9.54-52.048-10.417z" fill="#2a428c"/><path d="m300.386 212.87-1.658.148c-20.813 1.866-41.979 21.576-59.601 55.5-13.007 25.04-24.775 34.55-38.754 44.773.593.131 1.192.257 1.806.371-1.513 4.199-4.53 14.884.487 22.604 1.949 2.999 4.87 5.179 8.723 6.539 18.528-22.477 31.731-44.494 39.376-62.088 18.039-41.519 40.153-52.368 52.653-55.031-3.047-6.608-2.833-12.392-3.032-12.816z" fill="#deeeff"/><path d="m81.433 438.388c57.164-22.299 101.137-60.266 130.976-96.82-18.415-5.996-8.158-29.075-8.158-29.075-.773-.12-1.519-.255-2.25-.397-15.229 11.238-32.983 22.571-57.887 55.776-18.913 25.218-51.793 40.186-83.828 49.073 6.604 7.574 13.669 14.733 21.147 21.443z" fill="#bec8f7"/><g fill="#deeeff"><path d="m452.973 262.824c3.277-3.621 10.032-13.013 6.474-25.955-.273-.995-1.644-1.104-2.04-.151-2.041 4.907-6.919 15.207-14.055 21.635 3.205 1.563 6.433 3.053 9.621 4.471z"/><path d="m435.238 254.195c2.824-4.821 5.257-12.032 2.811-20.932-.273-.995-1.644-1.104-2.04-.151-1.533 3.686-4.67 10.42-9.158 16.27 2.679 1.644 5.488 3.253 8.387 4.813z"/><path d="m418.931 244.096c1.291-4.161 1.758-9.219.173-14.986-.273-.995-1.644-1.104-2.04-.152-.999 2.401-2.68 6.098-4.968 9.999 2.465 1.898 4.762 3.635 6.835 5.139z"/></g><g fill="#deeeff"><path d="m444.176 195.736c-.685 5.196-1.91 9.842-2.759 12.657-.298.988.83 1.773 1.673 1.177 5.842-4.129 8.773-9.336 10.206-14.039-3.011.083-6.054.159-9.12.205z"/><path d="m426.065 195.484c-.701 4.187-1.679 7.842-2.392 10.205-.298.988.83 1.773 1.673 1.177 4.652-3.288 7.454-7.259 9.129-11.116-2.807-.038-5.614-.12-8.41-.266z"/><path d="m462.91 195.275c-.352 7.066-2.108 13.856-3.217 17.53-.298.988.83 1.773 1.673 1.177 7.938-5.611 10.511-13.211 11.238-18.831-3.145-.006-6.386.047-9.694.124z"/><path d="m482.101 195.401c.267 8.349-1.927 17.026-3.236 21.364-.298.988.83 1.773 1.673 1.177 9.275-6.555 11.224-15.818 11.464-21.472-3.109-.526-6.415-.87-9.901-1.069z"/></g><path d="m335.473 188.853c16.938 5.943 36.194 19.171 53 31.842-7.121-13.009-.718-23.858 6.174-30.819-1.502-.537-2.991-1.103-4.448-1.736-19.737-8.581-36.898-6.894-49.345-2.878-2.823.911-5.659 1.307-8.426 1.271l-.319 1.371c1.118.246 2.241.555 3.364.949z" fill="#ff7186"/><path d="m322.695 185.651c-7.719-4.147-13.26-12.108-13.625-21.796-8.812-1.403-21.654-2.005-31.188 3.645-6.184 3.664-10.102 9.455-11.646 17.21-4.6 23.097-15.881 34.325-34.486 34.325-12.814 0-21.406 22.539-24.87 41.841-1.314 7.322-7.006 6.945-18.723 5.489-3.573-.445-7.544-.936-11.715-1.074 1.079.892 2.248 1.759 3.522 2.597-1.805 4.348-7.113 19.263-.737 31.309 3.973 7.506 11.69 12.367 22.954 14.465-.053.148-.112.321-.169.485 13.832-10.138 25.574-19.807 38.589-44.864 18.871-36.329 40.975-54.29 60.475-54.745-1.185-14.308 8.774-26.134 21.619-28.887z" fill="#6389c6"/><g fill="#3e60a3"><path d="m145.442 368.869c25.373-33.831 43.325-44.848 58.807-56.372l.001-.003c-40.862-6.322-22.399-45.178-22.399-45.178-1.008-.624-1.935-1.255-2.803-1.893-10.331-.684-22.213.368-32.445 9.753-3.987 3.657-9.835 4.066-14.223.993-10.969-7.683-33.071-18.669-57.861-5.922-8.02 4.124-17.904 3.267-25.792-2.238-9.578-6.683-23.285-5.191-40.74 4.433-2.377 1.31-4.767 2.528-7.162 3.658 4.418 54.406 26.612 103.778 60.765 142.318 31.997-8.987 64.766-24.102 83.852-49.549z"/><path d="m249.965 433.635c-8.7-7.865-23.63-16.286-42.954-7.703-3.543 1.573-7.619.806-10.637-1.627-2.296-1.852-5.517-3.069-9.54-1.156-4.776 2.271-15.423-1.53-23.255-10.837-7.167 1.308-22.401 6.21-14.935 23.85 6.748 1.062 15.168 2.996 24.931 6.466 26.465 9.406 19.598 7.253 31.644 5.774 0 0 21.379 1.925 32.684 22.057 2.169 3.862 7.973 2.454 8.07-1.975.207-9.445-3.729-21.715-21.896-30.291-2.028-.958-1.525-3.988.71-4.179 5.438-.465 13.447-.113 22.672 3.575 2.474.989 4.482-2.168 2.506-3.954z"/><path d="m315.153 139.69c-20.985-3.207-56.852-1.992-80.638 35.172-20.215 31.586-38.448 49.193-59.432 55.824-2.992 3.541-8.277 11.145-7.373 19.852.649 6.252 4.361 11.799 11.038 16.519 15.02.991 27.667 5.798 29.765-5.888 3.03-16.881 11.065-40.474 23.236-40.474 12.172 0 29.876-4.339 36.114-35.66 4.406-22.123 27.903-21.647 41.326-19.46-.073-.708-.127-1.423-.142-2.151-.203-9.349 2.438-17.274 6.106-23.734z"/></g><path d="m75.279 271.721c23.651-12.163 44.72-2.201 56.149 5.805 5.03 3.523 11.772 3.021 16.297-1.129 10.77-9.878 23.256-10.142 34.123-9.086-26.254-16.249-3.793-37.643-3.792-37.644-16.567 6.138-34.747 5.176-56.958-1.367-32.188-9.482-71.471-29.859-115.288-25.504-3.793 17.132-5.81 34.931-5.81 53.204 0 7.368.344 14.655.981 21.857 2.602-1.217 5.207-2.53 7.807-3.963 20.035-11.045 31.962-9.428 38.989-4.524 8.143 5.68 18.674 6.891 27.502 2.351z" fill="#2a428c"/><path d="m335.473 186.64c-19.587-6.872-39.49 9.306-36.385 29.83 1.943 12.843 9.881 26.404 33.579 30.099 48.244 7.524 68.935 13.926 98.451 33.828 17.932 12.092 35.728 7.437 46.933 1.92 5.07-2.496 4.66-9.864-.642-11.819-14.465-5.333-38.522-15.06-54.999-26.17-17.317-11.676-56.002-46.835-86.937-57.688z" fill="#86abe2"/><path d="m511.954 189.619c-.379-4.044-1.323-8.424-3.226-12.71-1.598 2.764-3.938 4.693-6.887 5.545-5.447 1.575-11.867-.649-17.168-5.95-6.89-6.891-16.375-8.259-22.822-8.259-3.449 0-6.029.392-6.877.539l-16.098-2.645-.395.164c-22.34 9.265-35.094-9.979-35.627-10.802l-.099-.136c-.299-.367-7.508-9.039-22.541-12.677-3.232-.782-5.513-2.407-6.97-4.967-3.33-5.85-1.078-14.609-.696-15.974l.788-1.244c-.726.187-1.45.391-2.169.622-7.462 2.394-16.623 3.754-26.56 1.741-10.135-2.053-20.606 1.829-27.024 9.937-5.834 7.371-11.031 17.627-10.751 30.619.375 17.405 17.452 29.398 34.02 24.051 12.447-4.017 29.608-5.703 49.345 2.878 34.566 15.028 82.446 1.752 108.651 9.916 6.919 2.158 13.782-3.432 13.106-10.648z" fill="#3e60a3"/><path d="m379.862 144.147c14.715 3.561 21.732 12.167 21.732 12.167s13.655 21.249 37.461 11.374l15.932 2.617s17.875-3.492 28.625 7.258c8.894 8.894 20.366 9.052 25.827 1.057-4.347-11.311-14.981-22.366-39.24-25.336-29.175-3.572-50.117-15.475-63.238-25.708-10.131-7.901-23.56-10.375-35.794-6.45.001.001-6.02 19.461 8.695 23.021z" fill="#6389c6"/><path d="m457.971 170.916c-.813 2.919-6.662 3.842-13.064 2.059-6.402-1.782-10.934-5.594-10.121-8.513s6.662-3.842 13.064-2.059c6.403 1.782 10.934 5.593 10.121 8.513z" fill="#2a428c"/><path d="m405.074 151.541c.583 11.127-6.873 20.563-16.654 21.076s-18.182-8.092-18.766-19.219c-.583-11.127 6.873-20.563 16.654-21.076 9.781-.512 18.183 8.092 18.766 19.219z" fill="#2a428c"/><path d="m401.378 143.412c.406 7.74-5.54 14.343-13.279 14.748-7.74.406-14.343-5.54-14.748-13.279-.406-7.74 5.539-14.343 13.279-14.748s14.343 5.54 14.748 13.279z" fill="#ffdd40"/><path d="m401.584 147.34c.203 3.87-2.77 7.171-6.64 7.374s-7.171-2.77-7.374-6.64 2.77-7.171 6.64-7.374c3.87-.202 7.171 2.771 7.374 6.64z" fill="#ff9433"/><path d="m245.002 10.998c-89.413 0-167.636 47.898-210.417 119.434 52.018-.2 103.021 60.444 137.069 22.038 42.065-47.449 71.708-76.155 148.541-69.155 34.421 3.136 54.331-11.054 65.831-27.672-39.878-28.121-88.519-44.645-141.024-44.645z" fill="#b4d667"/><path d="m478.159 331.413c-47.819-26.348-149.847-70.314-197.546 1.894-39.387 59.625-2.082 120.572 31.927 158.263 78.365-22.426 140.649-82.901 165.619-160.157z" fill="#b4d667"/><path d="m460.291 373.007c-31.994-16.492-89.795-37.813-117.802 4.585-23.361 35.364-3.801 71.465 16.44 95.329 42.854-22.557 78.22-57.418 101.362-99.914z" fill="#cbe87c"/><path d="m293.438 15.792c-15.657-3.141-31.853-4.794-48.436-4.794-67.617 0-128.829 27.397-173.159 71.69 22.75 19.223 58.973 41.124 82.834 12.312 38.571-46.576 121.541-53.63 138.761-79.208z" fill="#cbe87c"/><path d="m164.613 413.501c-6.913-7.569-12.033-19.209-9.865-34.588 3.344-23.721 11-34.504 3.041-44.579-7.323-9.269-20.79-10.792-30.512-4.082-10.771 7.434-22.993 20.698-18.213 41.064 6.08 25.905 18.073 40.687 21.417 52.631 1.735 6.196 6.904 10.838 13.299 11.555 1.988.223 4.186.53 6.566.941-6.461-16.314 6.905-21.401 14.267-22.942z" fill="#2a428c"/></g></svg>