<svg id="Layer_1" enable-background="new 0 0 512 512" height="512" viewBox="0 0 512 512" width="512" xmlns="http://www.w3.org/2000/svg"><g><path d="m245.002 10.998c-89.569 0-167.899 48.074-210.631 119.818l31.862 292.696c22.24 23.725 49.142 43.019 79.252 56.421l50.679 16.195c15.783 3.193 32.113 4.874 48.837 4.874 135.311 0 245.002-109.691 245.002-245.002.001-135.311-109.69-245.002-245.001-245.002z" fill="#45304c"/><path d="m452.217 70.504c-4.679-.239-8.999-1.912-12.495-4.621-3.956 16.277-14.273 31.28-19.934 38.622 8.197 3.744 16.649 7.9 26.082 10.578-7.779-17.914-1.946-33.322 6.347-44.579z" fill="#ffb332"/><path d="m457.569 39.564c-.27-.088-.54-.173-.809-.254-8.01-2.423-15.802 3.897-15.467 12.259.212 5.289-.562 10.638-1.956 15.834 3.441 2.483 7.603 4.001 12.101 4.184 3.285-4.657 7.026-8.649 10.495-11.856 6.669-6.164 4.27-17.348-4.364-20.167z" fill="#ff7186"/><path d="m156.662 158.437c1.257 9.373 1.121 20.205-2.692 30.591 11.373 4.109 22.272 8.313 32.684 12.218 3.623-7.695 5.224-15.76 5.789-22.942-10.947-5.691-22.839-12.291-35.781-19.867z" fill="#6faf46"/><path d="m203.51 207.384c11.193 3.907 21.755 7.133 31.668 9.101 2.278-5.772 3.521-11.656 4.14-17.106-8.394-3.009-17.57-6.832-27.661-11.558-1.027 6.668-3.426 13.516-8.147 19.563z" fill="#6faf46"/><path d="m258.938 205.299c-.607 4.459-1.816 9.049-3.918 13.45 24.423.682 42.203-6.851 54.982-16.821-12.98 6.683-28.721 8.654-51.064 3.371z" fill="#b4d667"/><path d="m129.2 144.519c-12.578-5.206-25.094-8.834-37.394-11.172 3.201 14.706 3.062 27.271 1.152 37.773 12.646 2.597 24.857 5.926 36.621 9.621 2.655-14.288 1.183-27.823-.379-36.222z" fill="#6faf46"/><path d="m53.875 165.927c1.058-13.26-.124-25.809-1.899-36.042-5.98.071-11.855.396-17.605.931-6.813 11.439-12.728 23.473-17.631 36.017 12.711-1.361 25.093-1.579 37.135-.906z" fill="#6faf46"/><g fill="#88ce65"><path d="m94.472 171.425c2.334-13.292 1.24-26.413-1.135-37.786-14.67-2.913-29.036-3.986-42.839-3.727 1.793 10.165 2.991 22.688 1.908 35.933 14.515.722 28.543 2.733 42.066 5.58z"/><path d="m155.401 189.544c3.751-10.256 4.016-20.902 2.917-30.137-1.416-.825-2.844-1.661-4.285-2.511-8.852-5.215-17.726-9.54-26.566-13.099 1.567 8.121 3.238 21.918.599 36.468 9.396 2.918 18.51 6.073 27.335 9.279z"/><path d="m213.104 188.494c-6.94-3.219-14.316-6.87-22.171-10.98-.512 7.185-2.065 15.399-5.737 23.186 6.82 2.564 13.433 5.007 19.837 7.218 4.601-6.051 7-12.824 8.071-19.424z"/><path d="m256.733 218.777c1.974-4.303 3.136-8.765 3.737-13.126-6.871-1.543-14.37-3.781-22.624-6.801-.599 5.515-1.854 11.489-4.196 17.328 3.586.753 7.09 1.353 10.508 1.761 4.381.522 8.566.788 12.575.838z"/></g><path d="m437.16 133.144c-2.774-6.421-5.642-13.061-16.488-16.299-5.744-1.716-9.537-4.664-11.272-8.76-1.369-3.232-1.295-6.765-.758-9.771-9.512-4.221-18.801-7.561-29.026-6.985-24.116 1.357-49.24 22.945-42.937 54.395 1.925 9.604.165 19.582-4.651 28.111-10.283 18.211-32.511 43.652-76.098 42.822-2.737 5.105-17.971 35.67-6.574 63.541 7.17 17.533 23.425 30.167 48.329 37.567-.148.617-.314 1.414-.465 2.323 32.092-20.04 56.812-52.657 62.1-89.482 5.515-38.406 14.6-60.035 21.562-71.658 3.625-6.052 11.385-7.926 17.572-4.535 4.752 2.604 12.023 4.373 22.751 2.197 13.881-2.815 22.133-6.731 31.098-8.113-9.911-3.25-12.463-9.15-15.143-15.353z" fill="#6faf46"/><path d="m298.956 318.988c.288-1.393.561-2.252.561-2.252-84.929-24.245-41.899-100.039-41.899-100.039v-.004c-4.295-.016-8.798-.284-13.526-.848-12.082-1.442-25.217-5.211-39.374-10.108-1.577 2.26-3.445 4.428-5.667 6.449-14.037 12.769-19.282 24.086-21.21 31.332-.131.49-.509.578-.723.588-.179-.011-.626-.033-.813-.559-2.918-8.181-4.385-20.657 5.189-33.623 2.467-3.34 4.418-6.865 5.955-10.449-10.46-3.916-21.413-8.149-32.847-12.292-2.059 6.341-5.419 12.559-10.604 18.22-16.192 17.679-21.488 32.505-23.078 41.829-.164.956-.96 1.134-1.2 1.167-.253.037-1.095.07-1.52-.847-4.673-10.093-8-25.829 2.696-43.473 4.949-8.165 7.677-16.903 9.028-25.307-11.767-3.708-23.98-7.06-36.632-9.676-2.541 16.271-9.337 27.827-14.954 34.922-21.483 27.14-27.567 49.009-28.888 62.576-.146 1.487-1.212 2.227-2.162 2.424-.973.201-2.288-.061-3.035-1.409-7.896-14.266-14.419-36.924-.643-63.843 6.664-13.023 9.587-26.859 10.406-39.929-11.808-.669-23.946-.477-36.399.803-11.355 28.234-17.617 59.064-17.617 91.36 0 46.073 12.727 89.169 34.843 125.982 59.05 6.995 116.131-15.642 146.704-30.906 13.981-6.98 29.427-10.385 45.052-10.163 25.099.357 50.515-7.858 72.357-21.925z" fill="#5ea033"/><g fill="#6faf46"><path d="m185.992 198.93c-1.483 3.465-3.358 6.869-5.732 10.082-10.215 13.833-8.208 27.18-5.401 35.052.775 2.175 3.872 2.08 4.466-.151 1.833-6.885 6.899-17.982 20.76-30.59 2.431-2.212 4.457-4.587 6.146-7.065-6.527-2.231-13.275-4.714-20.239-7.328z"/><path d="m94.813 169.418c-13.582-2.878-27.67-4.924-42.254-5.663-.826 12.845-3.738 26.456-10.316 39.311-14.421 28.18-6.784 51.826.667 65.287 2.059 3.719 7.655 2.621 8.067-1.61 1.271-13.053 7.156-34.726 28.565-61.773 8.912-11.257 13.461-23.505 15.271-35.552z"/><path d="m122.432 247.491c1.521-8.911 6.64-23.518 22.698-41.051 5.337-5.827 8.786-12.226 10.9-18.738-8.919-3.248-18.133-6.451-27.637-9.411-1.298 8.326-3.948 16.97-8.811 24.992-11.31 18.658-7.231 35.292-2.776 44.915 1.231 2.659 5.133 2.181 5.626-.707z"/></g><path d="m377.722 168.051.917-8.871-.069-.09c-2.421 6.065-13.972 23.711-20.804 71.294-5.2 36.215-29.168 67.84-60.121 87.561-.893 3.821-2.365 13.351 3.178 19.614 2.298 2.596 5.493 4.28 9.554 5.05 11.001-7.872 20.393-16.697 28.31-25.581 21.104-23.684 33.626-53.675 36.791-85.238 1.876-18.706 5.572-36.368 8.335-47.869-4.768-4.078-6.724-9.748-6.091-15.87z" fill="#e4f49d"/><path d="m299.517 316.736c-22.025 14.507-47.776 22.948-72.895 22.607-15.964-.225-31.788 3.344-45.775 10.327-46.405 23.168-98.377 36.695-147.049 30.542 9.211 15.628 20.105 30.144 32.436 43.299 75.228-2.829 135.308-31.284 160.941-45.539 8.771-4.879 18.218-8.395 28.013-10.584 22.561-5.042 41.385-14.603 56.911-26.028-19.617-2.519-12.582-24.624-12.582-24.624z" fill="#cbe87c"/><path d="m508.283 147.605c1.909-3.488 1.511-7.794-.687-11.108-5.119-7.721-19.684-25.049-46.562-23.537-21.944 1.234-38.135-8.461-53.876-15.295-1.32 6.849-.488 16.636 13.066 20.684 19.523 5.831 11.294 23.167 29.088 30.703 7.368-1.579 14.739-1.697 25.732 1.735 17.705 5.527 29.307 3.998 33.239-3.182z" fill="#ffdd40"/><path d="m511.983 142.476c-.417-8.776-8.451-15.472-17.102-13.941-3.834.679-7.434 2.88-8.947 8.267-2.258 8.041 4.408 13.096 10.399 15.923 7.268 3.429 15.858-1.839 15.663-9.872-.002-.125-.007-.25-.013-.377z" fill="#ffb332"/><path d="m158.601 429.577c-8.199.256-15.634 3.367-21.385 8.349-.076 1.827-.317 3.619-.778 5.393-4.571 17.582.512 26.358 4.409 30.256 1.87 1.87 3.407 4.028 4.638 6.358 16.058 7.147 33.022 12.623 50.68 16.195-3.087-13.6-6.399-26.062-9.607-35.153-2.109-5.977-1.811-12.082.095-18.298-6.513-8.271-16.722-13.454-28.052-13.1z" fill="#b4d667"/><g><path d="m228.34 330.626c-18.089-21.701-51.952-20.612-69.088 1.849-45.193 59.239-19.481 85.566-22.221 107.709 5.786-5.106 13.318-8.302 21.634-8.561 11.054-.345 21.044 4.58 27.574 12.499 6.867-25.793 42.738-53.511 51-81.771 3.424-11.714-1.24-22.537-8.899-31.725z" fill="#88ce65"/></g><path d="m429.179 125.227c.791 9.441-5.296 17.658-13.595 18.353s-15.667-6.395-16.458-15.837c-.791-9.441 5.296-17.658 13.595-18.353s15.667 6.395 16.458 15.837z" fill="#6c5475"/><path d="m425.454 118.447c.55 6.567-4.328 12.336-10.895 12.886s-12.336-4.328-12.886-10.895 4.328-12.336 10.895-12.886c6.566-.55 12.336 4.328 12.886 10.895z" fill="#fcf2c8"/><path d="m425.733 121.78c.275 3.284-2.164 6.168-5.447 6.443s-6.168-2.164-6.443-5.447c-.275-3.284 2.164-6.168 5.447-6.443 3.283-.276 6.168 2.163 6.443 5.447z" fill="#543e5b"/><path d="m401.422 148.508c-25.238-5.757-37.248 30.396-13.355 40.358.46.192.931.378 1.413.557 30.862 11.488 41.165-17.47 73.174-9.13 13.322 3.471 22.481 1.396 28.635-2.209 6.621-3.879 4.64-13.915-2.969-14.907-20.025-2.611-57.265-7.91-86.898-14.669z" fill="#b4d667"/><path d="m245.002 10.998c-53.352 0-102.714 17.059-142.942 46.014 15.719 40.652 79.206 96.069 148.562 80.145 77.157-17.715 48.619-71.275 98.706-102.883-31.654-14.92-67.012-23.276-104.326-23.276z" fill="#543e5b"/><path d="m403.112 284.981c-18 68.667-87.021 106.236-125.028 124.988-23.27 11.481-34.223 57.832-9.256 89.876 124.129-11.98 221.176-116.574 221.176-243.845 0-7.326-.341-14.572-.971-21.734-31.16-.077-74.691 7.877-85.921 50.715z" fill="#543e5b"/><g fill="#6c5475"><path d="m276.993 13.093c-10.472-1.368-21.146-2.095-31.991-2.095-30.693 0-60.061 5.656-87.134 15.965 6.617 32.571 30.387 56.685 58.703 56.685 32.208 0 58.531-31.198 60.422-70.555z"/><path d="m483.755 311.145c-16.531-.087-39.287 6.873-53.976 40.503-15.008 34.361-45.928 60.466-68.638 76.036-18.324 12.563-25.098 34.471-20.074 53.749 71.154-30.357 125.002-93.412 142.688-170.288z"/></g></g></svg>