<svg id="Layer_1" enable-background="new 0 0 512 512" height="512" viewBox="0 0 512 512" width="512" xmlns="http://www.w3.org/2000/svg"><g><path d="m245.002 10.998c-123.865 0-226.243 91.924-242.68 211.271l155.833 262.875c26.996 10.237 56.263 15.858 86.847 15.858 135.311 0 245.002-109.691 245.002-245.002s-109.691-245.002-245.002-245.002z" fill="#fc7e65"/><path d="m455.637 66.236c-.784-2.823-4.236-3.861-6.417-1.907-10.402 9.326-45.433 45.152-59.446 114.624-8.498 42.131-21.646 76.612-40.194 105.415-19.204 29.821-43.628 52.691-74.667 69.919-23.868 13.247-45.811 29.072-65.253 44.201.708.054 1.426.098 2.164.124-1.138 4.176-2.927 13.979 2.819 20.797 2.865 3.397 7.165 5.501 12.831 6.33 17.043-16.883 36.866-34.825 64.166-51.67 88.549-54.637 109.731-157.117 114.026-185.845 1.622-10.851 3.817-21.615 6.794-32.175 14.958-53.061 38.046-75.406 47.697-82.786-2.089-1.751-3.688-4.032-4.52-7.027z" fill="#7ff7cf"/><path d="m213.849 397.146c-.822 0-1.612-.022-2.385-.055-9.98 7.725-19.329 15.299-27.937 22.281-14.206 11.522-26.474 21.473-35.444 26.924-6.573 3.995-12.042 9.732-15.813 16.59-1.359 2.471-2.849 5.278-4.402 8.348 9.714 5.298 19.833 9.945 30.287 13.909 26.957-13.771 45.762-36.198 70.659-60.728-24.097-2.691-14.965-27.269-14.965-27.269z" fill="#52ceaa"/><path d="m503.046 75.724c-.016-.073-.033-.146-.051-.219-.066-.273-.009-.54.117-.763-4.454-4.043-10.995-5.343-17.805-5.343-6.729 0-10.448-3.047-12.045-4.825-1.295-1.441-2.783-2.713-4.511-3.589-9.893-5.018-14.56 5.653-14.56 5.653 1.124 4.048 4.485 9.964 14.448 12.178 13.113 2.914 17.648-1.364 24.931 3.254 4.601 2.916 10.642-1.025 9.476-6.346z" fill="#7ff7cf"/><path d="m511.461 65.372-.013-.027c-.732-1.556-2.159-2.653-3.841-3.005-2.921-.611-7.906-2.716-12.467-9.775-.38-.588-.766-1.137-1.154-1.667-.622 1.152-1.508 2.291-2.796 3.244-3.822 2.827-12.214 4.678-30.558-2.601-.473-.158-11.768-3.791-26.905 3.81-55.699 27.968-53.799 135.244-107.897 209.202-28.186 38.532-65.956 57.263-115.468 57.263-10.859 0-21.041-.747-30.69-1.99.429.6.875 1.2 1.339 1.801-2.265 2.387-7.492 8.782-6.944 16.474.398 5.583 3.733 10.59 9.919 14.892l2.51 15.252c-.523 2.085-2.826 12.941 3.419 21.209 4.328 5.73 11.693 8.807 21.908 9.161-.01.038-.022.086-.032.125 19.056-14.769 40.633-30.254 63.849-43.139 63-34.966 99-94.034 115.604-176.349 13.858-68.7 48.047-104.004 58.977-113.803 1.353-1.213 3.484-.561 3.971 1.19.055.199.121.407.188.615.953-1.859 5.613-9.71 14.372-5.267 1.728.877 3.216 2.148 4.511 3.589 1.597 1.778 5.315 4.825 12.045 4.825 6.769 0 13.273 1.284 17.726 5.271-.012-.055-.024-.109-.038-.164-.145-.603.248-1.204.865-1.274 2.142-.245 6.485-1.196 7.855-4.895.476-1.289.329-2.726-.255-3.967z" fill="#52ceaa"/><path d="m188.029 368.315-2.667-16.201c-20.667-13.868-2.344-30.367-2.344-30.367-.452-.561-.882-1.117-1.299-1.671-69.567-8.384-111.29-43.127-176.506-13.676 14.943 71.256 60.946 131.667 123.976 165.542 1.551-3.065 3.038-5.867 4.395-8.333 3.618-6.579 8.862-12.131 15.279-16.031 14.648-8.902 37.218-29.043 64.988-50.432v-.001c-34.014.001-25.822-28.83-25.822-28.83z" fill="#42ba9b"/><path d="m480.274 41.073c-1.298-.364-2.514-2.503-5.261-3.008-6.124-1.125-6.979 4.219-16.207 2-83.118-19.989-110.851 175.18-172.166 219.255-31.855 22.899-56.487 23.48-97.035 8.693-3.45 2.347-14.969 11.105-17.383 24.909-1.633 9.338 1.292 18.942 8.688 28.567 9.278 1.141 19.05 1.825 29.452 1.825 117 0 145-102.667 175-194s74.795-76.351 74.795-76.351c22.84 9.066 31.506 4.545 34.774-.706-5.094-7.703-11.001-10.159-14.657-11.184z" fill="#6c5475"/><path d="m183.018 321.746c-26.011-32.235 8.344-53.091 8.344-53.091v-.01c-10.296-3.682-21.603-8.369-34.348-13.977-45.481-20.481-104.874-29.378-154.696-32.406-1.52 11.03-2.318 22.29-2.318 33.738 0 17.786 1.914 35.165 5.545 51.937 65.337-29.608 106.907 5.739 177.473 13.809z" fill="#543e5b"/><path d="m481.277 50.501c.216 4.113-2.541 7.601-6.156 7.791-3.615.189-6.721-2.991-6.937-7.104s2.541-7.601 6.156-7.791 6.721 2.991 6.937 7.104z" fill="#543e5b"/><path d="m479.75 47.504c.15 2.861-2.048 5.302-4.909 5.452s-5.302-2.048-5.452-4.909 2.048-5.302 4.909-5.452c2.861-.149 5.302 2.048 5.452 4.909z" fill="#ffc839"/><path d="m479.826 48.956c.075 1.431-1.024 2.651-2.454 2.726s-2.651-1.024-2.726-2.454 1.024-2.651 2.454-2.726c1.431-.075 2.651 1.024 2.726 2.454z" fill="#543e5b"/><path d="m490.004 256c0-25.633-3.944-50.343-11.245-73.565-21.504 7.544-44.447 26.872-52.233 73.565-16 95.947-53 133.568-116 156.258-42.59 15.339-56.376 55.038-35.204 86.877 121.003-14.936 214.682-118.091 214.682-243.135z" fill="#f98"/><path d="m29.164 140.025c7.037 55.927 100.264 34.048 171.187 73.215 83.826 46.293 104.174-78.292 130.174-123.79 13.459-23.552 7.624-46.688-1.136-63.529-26.309-9.652-54.732-14.923-84.387-14.923-93.349 0-174.485 52.216-215.838 129.027z" fill="#f98"/><path d="m274.562 67.021c8.728-20.844-.376-40.789-11.412-55.348-5.993-.439-12.043-.675-18.148-.675-69.958 0-133.056 29.327-177.69 76.353 16.723 39.098 70.576 41.271 116.111 54.599 54.666 16 74-34 91.139-74.929z" fill="#fcbab1"/><g fill="#34a086"><ellipse cx="174.77" cy="361.597" rx="19.074" ry="14.035" transform="matrix(.978 -.21 .21 .978 -71.908 44.663)"/><path d="m241.686 341.087c1.372 5.102-3.137 10.749-10.071 12.613s-13.666-.761-15.038-5.863 3.137-10.749 10.071-12.613 13.667.761 15.038 5.863z"/><ellipse cx="103.489" cy="388.089" rx="26.873" ry="19.774"/><ellipse cx="50.95" cy="336.492" rx="17.907" ry="13.177"/><ellipse cx="113.955" cy="336.492" rx="21.23" ry="15.622"/></g></g></svg>