<svg id="Layer_1" enable-background="new 0 0 512.002 512.002" height="512" viewBox="0 0 512.002 512.002" width="512" xmlns="http://www.w3.org/2000/svg"><g><path d="m245.002 10.999c-123.865 0-226.243 91.924-242.68 211.271l155.833 262.875c26.996 10.237 56.263 15.858 86.847 15.858 135.311 0 245.002-109.691 245.002-245.002s-109.691-245.002-245.002-245.002z" fill="#ffc839"/><path d="m433.198 29.361c-1.207.038-1.647 1.619-.642 2.289.966.644.614 2.143-.54 2.277-6.951.802-22.666 3.907-33.65 15.858-.774.842-.35 2.213.761 2.479 1.069.256 1.312 1.663.389 2.26-5.306 3.433-18.042 12.575-29.614 27.789-1.413 1.858-.709 4.557 1.42 5.515l1.044.47c.755.34.979 1.307.445 1.94-3.773 4.475-16.68 20.394-26.001 39.396-.941 1.918-.378 4.238 1.345 5.501l1.03.755c.566.415.683 1.209.254 1.765-3.463 4.481-17.679 23.13-27.335 39.648-1.701 2.909-.973 6.627 1.681 8.702l1.166.912c.527.412.641 1.159.251 1.703-4.312 6.027-28.323 38.373-53.201 47.406-3.316 1.204-4.77 5.096-3.153 8.231l1.922 3.727c.337.653.039 1.452-.642 1.73-5.656 2.303-29.468 11.009-53.066 5.25-2.642 1.565-7.792 5.239-8.713 10.548-.559 3.219.508 6.434 3.173 9.574-.477.342-1.061.794-1.691 1.313 29.297 7.49 50.609 3.755 76.808-15.078 59.192-42.549 87.088-225.913 163.731-220.571 1.767.123 3.521-.4 4.911-1.498.419-.33.851-.665 1.289-1.001-4.05-3.999-11.649-9.262-23.372-8.89z" fill="#b26847"/><path d="m211.668 276.853c1.302-1 2.152-1.488 2.152-1.488-11.759-11.759 5.439-19.892 5.439-19.892l.001-.015c-8.195-1.695-16.433-5.04-23.945-10.948-2.067-1.626-5.095-.186-5.095 2.444 0 .971-1.058 1.571-1.888 1.068-6.493-3.934-29.061-17.206-57.06-29.146-3.97-1.693-8.128 1.977-6.921 6.121.312 1.073-.829 1.986-1.804 1.44-7.436-4.159-29.54-15.601-55.593-20.446-3.681-.685-6.587 3.095-4.956 6.466.469.969-.422 2.038-1.458 1.746-8.164-2.293-33.503-8.802-55.437-8.051-1.098 5.313-2.033 10.686-2.781 16.118l1.307 2.205c49.211 3.217 108.905 12.163 153.385 32.194 21.692 9.544 39.259 16.455 54.654 20.184z" fill="#945230"/><path d="m455.637 66.237c-.784-2.823-4.236-3.862-6.417-1.907-10.402 9.326-45.433 45.152-59.446 114.624-8.498 42.131-21.646 76.612-40.194 105.415-19.204 29.821-43.628 52.691-74.667 69.919-19.86 11.023-38.393 23.832-55.258 36.538.363.165.712.335 1.081.497-1.103 3.506-3.337 12.897 1.524 20.06 2.56 3.772 6.657 6.285 12.218 7.525 15.48-14.836 33.517-30.249 57.163-44.839 88.549-54.637 109.731-157.117 114.026-185.844 1.622-10.851 3.817-21.615 6.794-32.175 14.958-53.061 38.046-75.406 47.697-82.786-2.09-1.751-3.689-4.032-4.521-7.027z" fill="#eab19d"/><g fill="#dd9176"><path d="m222.609 390.496c-.541-.227-1.06-.46-1.583-.692-13.628 10.217-26.194 20.401-37.499 29.57-14.206 11.522-26.474 21.473-35.444 26.924-6.573 3.995-12.042 9.732-15.813 16.59-1.359 2.471-2.849 5.278-4.402 8.348 9.714 5.298 19.833 9.945 30.287 13.909 29.417-15.028 49.126-40.363 77.639-67.491-22.301-4.212-13.185-27.158-13.185-27.158z"/><path d="m503.046 75.725c-.016-.073-.033-.146-.051-.219-.066-.273-.009-.54.117-.764-4.454-4.042-10.995-5.343-17.805-5.343-6.729 0-10.448-3.047-12.045-4.825-1.295-1.441-2.783-2.713-4.511-3.589-9.893-5.018-14.56 5.653-14.56 5.653 1.124 4.048 4.485 9.964 14.448 12.178 13.113 2.914 17.648-1.364 24.931 3.254 4.601 2.917 10.643-1.024 9.476-6.345z"/><path d="m449.279 64.517c-.905-1.968-2.362-3.964-4.331-5.934-3.725-3.725-9.528-4.702-13.793-2.32-3.562 1.987-5.08 5.749-4.061 10.064.892 3.772.577 6.76-.908 8.638-1.016 1.282-2.582 2.018-4.299 2.018-2.973 0-12.566 1.511-17.498 8.226-3.233 4.401-3.8 10.056-1.684 16.807 3.6 11.479-5.365 17.053-13.52 19.706-7.751 2.524-12.721 9.949-12.084 18.056.332 4.234 1.763 8.463 4.253 12.567 1.529 2.521 1.9 4.854 1.131 7.129-1.389 4.11-6.717 8.165-15.003 11.416-5.689 2.232-9.98 7.087-11.48 12.986-1.517 5.975-2.593 15.134.902 24.844 1.367 3.801.79 8.019-1.545 11.283-2.188 3.056-5.549 4.797-9.251 4.797-.065 0-.131-.001-.197-.002-.178-.003-.358-.008-.545-.017-6.525-.314-12.62 3.053-15.937 8.753-3.745 6.433-7.597 17.274-4.682 32.399 2.057 10.668.077 18.599-5.725 22.935-6.009 4.489-15.782 4.535-24.322.116-10.088-5.22-25.353-4.499-35.507 1.68-7.399 4.501-11.474 11.48-11.474 19.652 0 8.836-3.83 16.149-10.786 20.593-6.853 4.377-15.653 5.181-22.416 2.046-4.036-1.87-8.271-5.835-12.756-10.032-.804-.752-1.617-1.512-2.437-2.268.638 1.905 1.346 3.715 2.081 5.404-2.592 3.664-13.271 20.172-8.674 37.449 3.107 11.681 12.525 21.034 28.003 27.817-.071.226-.147.478-.225.751 16.832-12.679 35.387-25.517 55.13-36.475 63-34.966 99-94.034 115.604-176.349 13.727-68.051 47.388-103.318 58.647-113.503-.209-.409-.42-.817-.611-1.232z"/></g><path d="m203.128 326.242c-.514-1.142-.982-2.262-1.411-3.363-10.142-9.492-21.634-20.216-33.89-7.958-16.117 16.117-21.47 23.885-13.646 41.665 3.516 7.99-1.88 12.6-10.974 19.458-6.364 4.799-13.577 10.239-16.739 18.396-3.076 7.933-8.807 12.688-14.593 12.125-5.076-.497-8.977-5.035-10.178-11.844-1.108-6.279.752-13.375 2.721-20.888 3.163-12.064 6.433-24.539-3.138-34.108-1.935-1.935-3.801-3.751-5.582-5.485-11.629-11.319-19.311-18.797-19.311-32.925 0-9.476-5.603-17.74-13.322-19.652-1.075-.266-2.144-.396-3.197-.396-5.601 0-10.793 3.689-14.307 10.349-.934 1.768-1.818 3.41-2.649 4.953-7.612 14.13-11.086 20.578-5.974 39.636 3.383 12.61-2.398 27.828-7 37.155 22.727 41.566 57.197 75.983 99.25 98.584 1.551-3.065 3.038-5.867 4.395-8.333 3.618-6.579 8.862-12.131 15.279-16.031 16.16-9.82 41.958-33.318 73.746-57.08l.001-.003c-51.945-21.821-19.481-64.255-19.481-64.255z" fill="#c67859"/><path d="m511.461 65.373-.013-.027c-.74-1.563-2.184-2.654-3.876-3.012-2.453-.52-4.577-1.666-6.34-2.997-3.652-2.756-5.664-7.162-5.58-11.736.115-6.282-1.444-14.712-6.93-18.285-11.444-7.452-24.669 1.015-33.437 7.935-1.378 1.087-3.105 1.627-4.855 1.503-76.687-5.437-104.582 178.008-163.789 220.567-25.77 18.525-46.811 22.442-75.374 15.438.089.109.164.219.256.327-2.344 1.682-6.869 5.465-10.358 11.64-7.273 12.873-4.746 26.751-.711 37.025 4.613 4.317 9.091 8.552 13.435 10.565 13.667 6.333 35.333-2.333 35.333-24s29.333-28 44.791-20 37.542 3 32.209-24.667c-2.755-14.29.608-24.667 4.505-31.361 3.005-5.163 8.605-8.285 14.573-8.009.2.009.397.015.592.019 9.304.155 15.578-9.33 12.426-18.086-3.276-9.102-2.444-17.729-.859-23.967 1.386-5.455 5.334-9.903 10.574-11.959 8.462-3.32 20.955-10.253 14.606-20.72-2.627-4.33-3.762-8.358-4.04-11.907-.578-7.367 4.027-14.223 11.054-16.511 7.74-2.52 18.596-8.475 14.486-21.582-6.182-19.717 13.75-23.084 17.75-23.084s8.833-3.333 6.667-12.5c-2.167-9.167 9.086-12.586 15.333-6.338 2.082 2.083 3.314 3.944 4.03 5.5.259.562.538 1.114.827 1.659.525-.49 1.027-.952 1.477-1.355 1.353-1.213 3.484-.561 3.97 1.19.056.199.121.407.188.615.968-1.888 5.76-9.959 14.789-5.048 1.565.851 2.906 2.049 4.097 3.374 1.598 1.778 5.317 4.821 12.041 4.821 6.769 0 13.273 1.284 17.726 5.271.015-.012-.003.002.012-.009-.261-.651.146-1.353.815-1.429 2.145-.245 6.497-1.199 7.861-4.91.471-1.284.324-2.715-.261-3.95z" fill="#c67859"/><path d="m203.128 326.242c-16.01-35.573 10.692-50.878 10.692-50.878-.003-.003-.005-.006-.008-.009-15.905-3.589-34.093-10.697-56.798-20.687-45.481-20.48-104.874-29.377-154.696-32.405-1.52 11.03-2.318 22.29-2.318 33.738 0 42.986 11.148 83.61 30.828 118.97 4.768-9.402 11.199-25.59 7.559-39.156-5.5-20.5-1-25.5 8.5-43.5s28-8 28 9 10.681 24.818 25.333 39.47-3 37.196 0 54.196 20.667 18 27.646 0 35.021-22.333 27.687-39c-7.333-16.667-3-23.667 13.333-40 12.153-12.151 23.567.42 34.242 10.261z" fill="#b26847"/><path d="m481.277 50.502c.216 4.113-2.541 7.601-6.156 7.791-3.616.19-6.721-2.991-6.937-7.104s2.541-7.601 6.156-7.791 6.721 2.99 6.937 7.104z" fill="#945230"/><path d="m479.75 47.505c.15 2.861-2.048 5.302-4.909 5.452s-5.302-2.048-5.452-4.909 2.048-5.302 4.909-5.452 5.302 2.048 5.452 4.909z" fill="#ffc839"/><path d="m479.826 48.957c.075 1.43-1.024 2.651-2.454 2.726s-2.651-1.024-2.726-2.454 1.024-2.651 2.454-2.726c1.431-.075 2.651 1.024 2.726 2.454z" fill="#543e5b"/><path d="m490.004 256.001c0-25.633-3.944-50.343-11.245-73.565-21.504 7.544-44.447 26.872-52.233 73.565-16 95.947-53 133.568-116 156.258-42.59 15.339-56.376 55.038-35.204 86.877 121.003-14.936 214.682-118.091 214.682-243.135z" fill="#ffdd40"/><path d="m29.164 140.025c7.037 55.927 100.264 34.048 171.187 73.215 83.826 46.293 104.174-78.292 130.174-123.79 13.459-23.552 7.624-46.688-1.136-63.529-26.309-9.652-54.732-14.923-84.387-14.923-93.349.001-174.485 52.217-215.838 129.027z" fill="#ffdd40"/><path d="m274.562 67.022c8.728-20.844-.376-40.789-11.412-55.348-5.993-.439-12.043-.675-18.148-.675-69.958 0-133.056 29.327-177.69 76.353 16.723 39.098 70.576 41.271 116.111 54.598 54.666 16.001 74-33.999 91.139-74.928z" fill="#fee884"/></g></svg>