<svg id="Layer_1" enable-background="new 0 0 512 512" height="512" viewBox="0 0 512 512" width="512" xmlns="http://www.w3.org/2000/svg"><g><path d="m245.002 10.998c-94.59 0-176.648 53.611-217.478 132.098l14.321 249.524.768 1.474c44.124 64.542 118.305 106.908 202.389 106.908 135.311 0 245.002-109.691 245.002-245.002s-109.691-245.002-245.002-245.002z" fill="#88ce65"/><path d="m278.155 252.553c-1.146 4.284-3.311 15.417 2.574 22.768 1.839 2.298 4.282 3.994 7.304 5.09 3.779-3.96 7.681-7.983 11.756-12.057 32.918-32.918 71.402-47.699 90.358-53.393-.637-.248-1.266-.482-1.906-.737-18.039-7.19-26.01 1.11-44.948-.436-9.109-.746-18.404 1.851-26.185 7.303-11.476 8.043-26.254 18.96-40.683 31.182.576.094 1.144.196 1.73.28z" fill="#fcf2c8"/><path d="m280.093 251.297c-.733-.09-1.445-.195-2.156-.3-7.762 6.516-15.461 13.42-22.527 20.485-30.128 30.128-94.967 62.384-143.47 62.384-30.458 0-63.051 2.468-73.847 20.774-4.915 8.335-4.959 19.028-.128 32.399 1.108 1.747 2.236 3.48 3.386 5.197 42.476 16.448 69.363-12.735 123.444-24.621 59.783-13.139 85.134-47.42 124.378-88.397-16.815-5.465-9.08-27.921-9.08-27.921z" fill="#fee884"/><path d="m426.561 102.967c-10.758-5.244-15.772-12.164-17.897-18.639-10.551 2.349-20.081 6.87-30.306 6.87-1.942 0-3.796-.075-5.561-.212-16.558-1.281-33.031 2.872-47.165 11.42 3.003 13.61 5.589 31.754-2.78 43.912-5.003 7.268-13.551 11.727-25.41 13.254-38.843 4.999-55.305 12.76-64.855 24.39.41.081.82.161 1.244.232-1.435 6.326-5.469 29.32 6.563 47.323 7.677 11.484 20.375 18.557 37.761 21.034-.038.143-.079.312-.119.469 14.758-12.453 29.625-23.347 39.995-30.615 7.332-5.138 16.208-7.746 25.132-7.018 1.981.162 3.971.208 5.939.171-4.94-9.354-6.853-17.55-5.652-24.485 1.145-6.617 5.087-11.924 11.717-15.778 4.965-2.885 8.466-7.812 9.862-13.87 2.664-11.571 20.107-17.196 53.328-17.196 14.044 0 24.506-6.01 26.653-15.311 1.701-7.367-2.252-18.055-18.449-25.951z" fill="#f98"/><path d="m235.68 182.959c-.679-.092-1.328-.198-1.965-.31-5.306 5.955-8.544 12.966-11.951 21.195-4.381 10.581-14.557 18.404-27.221 20.924-11.189 2.228-21.882-.124-27.897-6.14-3.195-3.195-6.224-7.739-9.73-13-10.741-16.114-25.45-38.183-59.261-38.183-2.782 0-5.597.015-8.424.029-27.223.135-55.294.274-67.621-12.227-13.882 30.732-21.61 64.84-21.61 100.753 0 51.227 15.732 98.773 42.613 138.094-24.346-52.801 23.133-58.62 69.327-58.62 48.569 0 113.373-31.621 144.606-62.855 7.379-7.379 15.478-14.597 23.546-21.323-61.268-7.518-44.412-68.337-44.412-68.337z" fill="#fc7e65"/><path d="m327.093 101.564c-2.542 1.467-5.021 3.058-7.408 4.799-5.028 3.67-10.534 7.312-16.324 10.548-16.05 8.969-44.896 33.219-87.972 38.535-1.549 4.71-2.791 11.649.255 17.725 2.895 5.775 9.009 9.48 18.188 11.025-.079.348-.167.755-.258 1.2 9.541-11.924 25.651-19.283 64.074-24.23 38.321-4.934 34.271-38.002 29.445-59.602z" fill="#6c5475"/><g fill="#543e5b"><path d="m165.51 219.764c13.571 13.571 47.855 8.571 57.739-15.306 3.544-8.562 6.95-15.627 12.428-21.5-23.991-3.248-21.463-19.61-18.623-27.728-22.465 3.051-48.859.989-79.401-11.178-36.887-14.695-76.533-10.621-110.13-.956-2.338 4.494-4.539 9.069-6.601 13.721 14.398 13.847 47.344 12.235 76.731 12.235 43.572 0 54.286 37.141 67.857 50.712z"/><path d="m150.893 341.28c12.566-2.937 27.947-2.703 40.087 9.437 12.727 12.727 23.41 11.98 32.909 9.635.118-1.778.359-3.56.759-5.329 1.692-7.472 3.003-18.358 3.003-34.156 0-8.364-2.235-15.437-5.866-21.41-24.258-39.897-85.485-12.694-73.813 32.516.838 3.252 1.838 6.364 2.921 9.307z"/><path d="m321.926 466.476c-7.315-3.633-14.225-9.282-18.917-13.579-3.33-3.05-3.168-8.341.348-11.175l6.756-5.444c1.662-1.34.54-4.027-1.581-3.78-7.148.83-14.457 2.768-20.367 4.663-7.189 2.304-15.053-.546-19.019-6.97-3.174-5.14-6.681-10.162-10.326-14.978-.628.197-1.263.393-1.907.591-8.081 2.479-18.138 5.564-22.811 15.077-3.055 6.217-3.401 14.355-1.051 24.648 8.073 5.177 15.78 7.173 21.251 7.887 4.924.643 9.309 3.417 11.905 7.651 8.145 13.284 18.746 19.617 27.918 22.569 4.651 1.497 8.158-4.321 4.633-7.703-3.543-3.401-6.456-7.062-8.688-10.256-1.633-2.338.71-5.41 3.396-4.453 9.402 3.349 19.42 3.213 27.277 2.173 3.559-.473 4.396-5.325 1.183-6.921z"/></g><path d="m429.415 160.438c-14.797-.217-28.942 3.336-38.169 6.343-2.91.948-5.026 3.409-5.523 6.423-.498 3.013.715 6.023 3.165 7.857 8.236 6.161 20.509 13.267 36.759 17.338-12.374-17.525-2.155-31.859 3.768-37.961z" fill="#ff7186"/><path d="m502.011 185.454c3.966.674 7.758-1.967 8.471-5.926 3.117-17.319 1.194-31.378-3.562-42.755-6.567 11.652-20.345 28.761-46.082 33.409 19.316 10.241 33.381 13.947 41.173 15.272z" fill="#fcf2c8"/><path d="m487.13 210.692c-9.988-.053-19.455-3.34-25.875-6.234 2.787 8.308 3.169 17.956-5.835 24.109 16.695-1.465 27.469-7.151 33.722-11.894 2.552-1.934 1.191-5.964-2.012-5.981z" fill="#fcf2c8"/><path d="m391.738 168.311c15.322-4.993 44.406-11.546 66.975.741 1.491.812 2.942 1.574 4.373 2.31 24.173-5.101 37.724-21.181 44.555-32.767-2.802-7.339-6.781-13.591-11.372-18.924-5.387 10.575-19.154 25.359-51.258 7.249-.426-.24-.841-.479-1.259-.719-.435 8.994-9.793 16.423-25.394 16.423-24.26 0-51.424 2.64-54.928 18.593-1.18 5.373-4.466 9.985-9.209 12.772-9.021 5.301-19.486 17.111-6.927 41.567 6.313.058 12.502-.827 17.493-1.871 7.594-1.588 15.472-.92 22.677 1.958 31.146 12.446 54.257 14.664 70.975 12.606 2.147-1.892 3.755-4.1 4.791-6.635 2.118-5.187 1.577-10.977-.006-16.304-2.353-.988-4.399-1.972-6.02-2.813-2.811-1.459-5.89-2.346-9.054-2.478-28.127-1.182-47.865-12.44-58.303-20.249-4.255-3.181-3.162-9.813 1.891-11.459z" fill="#6c5475"/><path d="m450.428 92.223c-2.676-.733-5.267-1.75-7.696-3.091-13.908-7.678-25.21-6.978-35.587-4.454 2.195 6.876 7.413 14.225 18.712 19.733 13.883 6.768 19.144 15.977 17.668 23.661.492.282.983.564 1.485.848 33.423 18.855 46.971 2.056 51.88-8.528-15.074-18.009-37.276-25.652-46.462-28.169z" fill="#876d93"/><path d="m448.574 124.291c.691 13.183-8.143 24.363-19.731 24.97s-21.542-9.587-22.233-22.771c-.691-13.183 8.143-24.363 19.731-24.97s21.542 9.588 22.233 22.771z" fill="#45304c"/><path d="m443.68 114.687c.481 9.17-6.563 16.993-15.733 17.473-9.17.481-16.993-6.563-17.473-15.733-.481-9.17 6.563-16.993 15.733-17.474 9.169-.479 16.993 6.564 17.473 15.734z" fill="#fcf2c8"/><path d="m443.924 119.341c.24 4.585-3.282 8.496-7.866 8.737-4.585.24-8.496-3.282-8.737-7.867-.24-4.585 3.282-8.496 7.866-8.737 4.585-.24 8.497 3.282 8.737 7.867z" fill="#543e5b"/><path d="m259.842 416.577c-8.759-11.756-18.446-22.334-26.373-30.337-7.251-7.32-10.605-17.48-9.43-27.583-9.327 2.367-19.565 3.283-31.924-9.076-12.785-12.785-28.811-12.985-41.795-9.892 2.816 8.058 6.339 14.919 9.206 19.821 2.905 4.967 3.628 10.862 2.197 16.436-1.39 5.414-1.899 12.234 2.357 16.491 7.946 7.946 40.655 36.664 59.168 55.177 3.893 3.893 7.871 6.841 11.733 9.098-8.01-32.13 11.679-35.947 24.861-40.135z" fill="#fc7e65"/><path d="m245.002 10.998c-59.538 0-114.106 21.245-156.559 56.559 28.193 24.446 79.254 55.165 143.073 34.007 56.592-18.763 85.678-45.711 121.865-65.333-32.677-16.145-69.464-25.233-108.379-25.233z" fill="#b4d667"/><path d="m199.512 496.782c-33.76-83.798-85.36-70.501-113.718-54.573 31.87 27.278 70.821 46.517 113.718 54.573z" fill="#b4d667"/><path d="m342.325 282.471c-71.874 43.497-78.633 138.846 64.198 157.735 50.727-44.516 82.904-109.643 83.457-182.306-39.645-4.551-102.792-2.579-147.655 24.571z" fill="#b4d667"/><path d="m486.767 295.7c-3.045-.145-6.125-.223-9.238-.223-59.279 0-107.333 26.804-107.333 59.868 0 24.682 26.782 45.874 65.019 55.033 26.329-32.402 44.541-71.654 51.552-114.678z" fill="#cbe87c"/><path d="m142.141 33.592c21.9 21.938 70.445 51.65 141.499-19.536-12.588-1.997-25.487-3.059-38.638-3.059-36.741.001-71.585 8.101-102.861 22.595z" fill="#cbe87c"/></g></svg>