<svg id="Layer_1" enable-background="new 0 0 512 512" height="512" viewBox="0 0 512 512" width="512" xmlns="http://www.w3.org/2000/svg"><g><path d="m245.002 10.998c-77.899 0-147.299 36.361-192.174 93.03l3.154 307.857c44.937 54.427 112.928 89.117 189.02 89.117 4.108 0 8.19-.105 12.248-.305l43.453-6.059c108.475-25.22 189.301-122.488 189.301-238.638 0-135.311-109.691-245.002-245.002-245.002z" fill="#45304c"/><path d="m373.108 251.891c-7.78-11.904-7.494-20.803-7.643-21.498l-1.172-.24c-16.752-3.421-40.8-1.143-60.292 29.147-7.378 11.465-15.93 21.995-25.488 31.415.412.091.817.19 1.236.274-1.292 5.225-4.494 21.787 3.548 32.611 2.744 3.694 6.509 6.307 11.237 7.841 16.556-14.364 28.475-28.03 34.732-38.454 17.585-29.298 34.53-37.705 44.661-39.919-.28-.382-.554-.772-.819-1.177z" fill="#d3dcfb"/><path d="m281.616 289.813c-.625-.109-1.23-.234-1.835-.358-35.965 36.156-86.603 56.329-143.147 50.271-48.091-5.156-91.357-.754-112.475 22.49 8.61 17.869 19.325 34.532 31.823 49.669 103.419 9.356 191.895-39.445 239.882-81.601-24.333-7.001-14.248-40.471-14.248-40.471z" fill="#bec8f7"/><path d="m253.431 182.337c-3.179 2.351-9.525 7.935-10.465 15.623-.658 5.388 1.465 10.701 6.311 15.805-.186.576-.447 1.415-.749 2.463 8.814-2.481 17.323-5.538 25.434-9.196-2.668-5.628-5.986-10.518-10.137-14.273-3.885-3.512-7.381-6.967-10.394-10.422z" fill="#6faf46"/><path d="m214.751 222.788c12.227-1.395 24.122-3.74 35.494-7.055.447-1.511.744-2.359.744-2.359-14.553-14.553-1.347-26.378 3.438-29.903-6.244-6.915-10.562-13.808-11.995-21.15-2.918 1.529-6.848.291-8.053-3.196l-1.48-4.284c-1.357-3.929-6.322-5.14-9.336-2.277l-2.019 1.918c-3.585 3.406-9.283 1.927-11.007-2.378-4.915 13.845-8.85 35.072.063 58.023 1.791 4.608 3.154 8.82 4.151 12.661z" fill="#5ea033"/><path d="m180.757 214.417c-8.442-11.312-19.502-28.806-24.246-47.914-3.452-13.896-2.56-25.19.146-34.103-5.113 1.022-10.404-1.468-12.791-6.279l-3.546-7.148c-2.933-5.912-10.165-8.239-15.995-5.147l-7.29 3.867c-3.867 2.051-8.416 1.729-11.898-.541-7.887 17.428-8.951 39.935 1.586 62.479 6.256 13.385 11.385 25.573 15.016 36.878 21.485 5.159 43.41 7.819 64.818 7.84-1.443-3.365-3.373-6.68-5.8-9.932z" fill="#5ea033"/><path d="m336.643 149.744c-2.245.805-4.959.234-6.587-2.03l-.712-.99c-2.678-3.723-8.43-2.932-10.005 1.375l-1.523 4.166c-1.464 4.004-6.639 5.053-9.546 1.934l-3.594-3.856c-2.999-3.217-8.355-1.982-9.643 2.222l-1.286 4.197c-1.054 3.442-4.816 4.871-7.783 3.552.808 9.967 4.436 20.811 11.755 31.3.347.498.656.997.98 1.495.141-.098.289-.189.43-.288 17.884-12.497 34.057-18.957 47.547-22.084-7.36-7.176-9.568-15.156-10.033-20.993z" fill="#6faf46"/><path d="m373.899 144.592c-2.857-2.087-6.896-1.117-8.484 2.044l-.167.333c-1.678 3.338-6.055 4.195-8.867 1.735l-6.812-5.959c-3.233-2.828-8.315-1.21-9.318 2.967-.674 2.807-3.111 4.368-5.582 4.37.533 5.911 2.863 13.907 10.398 21.042 17.541-4.346 30.743-3.051 37.514-1.726 3.392-1.536 7.44-1.62 12.269.365-4.707-11.851-14.656-20.573-20.951-25.171z" fill="#ffc839"/><path d="m45.577 198.624c-5.698-10.735-10.207-22.897-12.085-37.119-1.245-9.428-1.926-17.85-2.227-25.318-10.799 19.223-19.077 40.049-24.393 62.034 12.01-1.193 24.867-1.103 38.705.403z" fill="#5ea033"/><path d="m216.312 222.596c-.995-3.93-2.373-8.264-4.23-13.046-8.532-21.968-5.155-42.184-.535-55.72-.704-.866-1.219-1.924-1.428-3.161l-.422-2.506c-.702-4.167-5.527-6.156-8.962-3.695l-2.183 1.564c-5.211 3.733-12.544 1.542-14.853-4.438l-2.29-5.932c-2.322-6.013-9.061-9.024-15.089-6.741l-7.8 2.954c-1.203.455-2.436.689-3.661.74-8.796 30.181 10.24 63.481 24.624 82.754 2.288 3.066 4.024 6.064 5.323 8.965 10.665.081 21.204-.492 31.506-1.738z" fill="#ffb332"/><path d="m300.016 192.217c-.328-.505-.641-1.01-.993-1.514-7.736-11.087-10.748-21.356-11.46-29.954-1.312-.161-2.592-.77-3.582-1.903l-3.406-3.898c-2.759-3.158-7.866-2.367-9.541 1.477l-1.771 4.064c-1.853 4.253-7.734 4.641-10.13.669l-2.436-4.036c-2.124-3.521-7.161-3.712-9.546-.363l-2.716 3.814c-.902 1.266-2.158 2.003-3.485 2.273 2.354 11.725 11.465 21.736 21.808 31.091 3.987 3.606 7.172 8.348 9.736 13.744 9.448-4.153 18.378-9.091 26.636-14.862.296-.206.589-.397.886-.602z" fill="#ffc839"/><path d="m106.633 117.974c-1.814-.835-3.437-2.134-4.662-3.865l-4.601-6.499c-3.882-5.485-11.571-6.59-16.842-2.421l-6.402 5.064c-4.543 3.594-11.03 3.331-15.267-.62l-5.838-5.443c-.062-.058-.13-.106-.193-.162-8.625 10.891-16.346 22.529-23.044 34.807.353 6.854 1.02 14.465 2.131 22.879 1.854 14.039 6.226 26.074 11.757 36.704 17.73 1.775 37.074 5.885 58.317 12.606 7.112 2.25 14.311 4.207 21.554 5.898-3.669-11.619-8.931-24.16-15.382-37.964-12.27-26.255-7.501-47.759-1.528-60.984z" fill="#ffb332"/><path d="m250.983 271.966c5.855 9.974 15.527 16.368 28.765 19.023-.066.269-.139.575-.214.901 3.48-3.423 6.819-6.971 9.999-10.639-2.384-4.344-4.314-9.689-4.626-15.896-1.009-20.124-3.375-43.65-11.821-60.088-7.627 3.393-15.603 6.257-23.848 8.616-1.933 6.014-10.814 36.692 1.745 58.083z" fill="#88ce65"/><path d="m281.603 289.811c-54.062-9.426-30.614-76.437-30.614-76.437-11.771 3.488-24.109 5.931-36.801 7.354 13.368 47.069-26.345 41.23-24.63 21.701.601-6.873-.745-13.639-3.986-20.205-21.342-.093-43.181-2.801-64.577-7.99 8.988 26.809 9.822 48.62-2.543 69.348-10.71 17.954-13.584 37.122-8.478 55.888 8.567.234 17.434.864 26.491 1.835 59.467 6.376 110.084-15.898 145.138-51.494z" fill="#6faf46"/><path d="m7.403 196.04c-4.827 19.189-7.403 39.273-7.403 59.96 0 38.673 8.973 75.246 24.931 107.771 12.095-13.708 31.959-20.859 56.11-23.357-2.81-15.316-3.368-34.867 5.329-52.503 15.46-31.348-21.799-51.662-41.949-91.515-13.195-1.375-25.493-1.452-37.018-.356z" fill="#6faf46"/><path d="m371.745 198.475c-6.922-7.237-11.964-17.255-21.632-24.744-1.973-1.528-3.653-3.118-5.108-4.735-13.171 3.258-28.787 9.693-45.982 21.709-.434.303-.884.585-1.321.884.006.008.011.017.017.025 14.889 21.338 7.711 43.427 9.226 66.139 19.429-28.302 42.954-29.497 59.205-25.561-1.107-11.664 3.943-20.528 8.34-25.877-1.274-2.462-2.198-5.103-2.745-7.84z" fill="#88ce65"/><path d="m343.383 169.413c1.367 1.473 2.927 2.921 4.73 4.318 10.837 8.395 15.862 19.966 24.238 27.236-1.667-5.706-1.635-11.971.527-18.021 2.463-6.891 5.966-12.734 10.937-15.388-6.446-1.43-20.852-3.303-40.432 1.855z" fill="#ffdd40"/><path d="m283.32 265.435c.335 6.673 2.425 12.4 5.089 17.094 6.229-7.052 11.889-14.541 16.927-22.369 1.017-1.581 2.05-3.065 3.09-4.493-.998-21.995 5.355-43.812-9.404-64.964-8.482 5.927-17.679 10.97-27.413 15.192 9.103 17.627 10.898 43.333 11.711 59.54z" fill="#ffdd40"/><path d="m42.544 196.196c19.99 40.348 57.427 60.545 42.401 91.011-8.83 17.905-8.42 37.569-5.51 53.386 10.051-1.135 20.867-1.447 32.196-1.072-4.703-16.794-3.4-35.701 8.186-55.124 12.504-20.961 11.855-42.872 2.992-69.736-7.031-1.657-14.019-3.569-20.925-5.754-21.652-6.85-41.333-10.991-59.34-12.711z" fill="#ffc839"/><path d="m203.656 258.441c6.355-.319 11.896-4.59 13.62-10.715 1.627-5.782 2.006-14.479-1.521-27.191-10.456 1.244-21.155 1.795-31.979 1.673 3.841 7.45 4.701 14.322 4.197 20.083-.788 9.009 6.65 16.603 15.683 16.15z" fill="#ffc839"/><path d="m427.072 233.44c-14.876-7.609-26.622-11.833-35.713-14.061-8.063-1.976-14.476-7.113-18.344-13.719-6.781 7.862-16.026 24.476-1.236 47.102 19.825 30.328 74.178 2.476 112.933 17.432 5.52 2.13 11.434-2.133 11.268-8.047-.044-1.556-.318-3.257-.919-5.089-14.738-2.698-39.437-9.013-67.989-23.618z" fill="#deeeff"/><path d="m487.924 219.777c-.135-.122-.259-.236-.392-.357-3.553 1.652-8.199 1.732-14.055-2.101-16.181-10.594-23.788-8.886-50.829-13.896-18.059-3.345-19.452-21.18-18.387-32.665-3.029-.63-5.998-1.568-8.847-2.834-12.911-5.738-20.359 3.11-24.654 15.128-5.846 16.355 3.835 34.308 20.704 38.443 9.092 2.229 20.838 6.452 35.713 14.061 34.962 17.883 64.154 23.341 76.341 24.94 3.755.493 7.272-2.007 8.007-5.723 2.884-14.578-7.672-20.589-23.601-34.996z" fill="#b4d667"/><path d="m286.055 480.334c-1.992-5.097-3.732-11.669-4.518-19.896-3.335 2.015-6.753 2.533-10.208 1.52-14.18-4.149-26.435-31.829-30.252-49.229-5.255-23.953-22.799-48.783-23.542-49.826-14.842-20.898-18.296-43.648-10.266-67.621 3.349-9.998 8.102-18.118 11.686-23.391-3.71-1.206-7.609-1.953-11.618-2.176-19.735-1.098-44.108 3.99-45.457 35.383-1.936 45.074 33.085 87.013 43.789 98.733 1.72 1.884 2.743 4.316 2.776 6.868.085 6.56 3.81 9.227 7.021 10.307 3.024 1.017 5.329 3.477 6.395 6.485 8.305 23.439 26.317 37.832 36.956 47.455 7.637 6.907 3.185 15.984-.655 21.292-.972 1.344-1.249 2.969-.912 4.46 14.872-.732 29.394-2.79 43.453-6.059-6.62-2.541-12.029-7.602-14.648-14.305z" fill="#88ce65"/><path d="m488.625 220.407c-.234-.21-.465-.416-.701-.63-18.061-16.335-17.589-19.276-31.913-22.802-14.323-3.525-6.114-12.602-17.043-22.487-4.72-4.269-11.285-4.554-17.221-3.499-6.041 1.073-12.243.958-18.186-.377-1.434 11.228-1.189 31.402 18.134 34.982 27.041 5.009 34.648 3.301 50.829 13.895 7.052 4.616 12.358 3.568 16.101.918z" fill="#ffdd40"/><path d="m435.089 199.606c.958 9.312-4.901 17.543-13.086 18.385s-15.596-6.024-16.554-15.336 4.901-17.543 13.086-18.385 15.597 6.024 16.554 15.336z" fill="#6faf46"/><path d="m431.282 192.978c.666 6.477-4.044 12.268-10.521 12.934s-12.268-4.044-12.934-10.521 4.044-12.268 10.521-12.934 12.268 4.044 12.934 10.521z" fill="#fcf2c8"/><path d="m431.62 196.265c.333 3.238-2.022 6.134-5.261 6.467-3.238.333-6.134-2.022-6.467-5.261-.333-3.238 2.022-6.134 5.261-6.467 3.239-.332 6.134 2.023 6.467 5.261z" fill="#543e5b"/><path d="m415.749 80.32c-44.127-42.895-104.346-69.322-170.747-69.322-39.391 0-76.602 9.31-109.575 25.83 10.769 31.036 38.077 66.22 105.522 75.629 99.116 13.826 150.852-.105 174.8-32.137z" fill="#543e5b"/><path d="m245.002 10.998c-19.961 0-39.358 2.4-57.932 6.908 12.475 18.268 32.498 33.876 64.519 39.605 58.286 10.429 94.851 4.537 116.703-13.246-36.215-21.139-78.331-33.267-123.29-33.267z" fill="#6c5475"/><path d="m209.172 498.39c-11.021-72.618-72.471-61.53-111.397-46.561 31.96 24.066 69.993 40.493 111.397 46.561z" fill="#543e5b"/><path d="m483.807 310.937c-35.579-11.088-89.021-19.398-122.386 14.454-53.579 54.362-67.598 71.965-45.542 113.963 9.554 18.193 23.177 29.917 35.552 37.367 66.058-31.91 115.606-92.592 132.376-165.784z" fill="#543e5b"/><path d="m470.174 352.63c-24.651-5.196-70.18-8.198-92.84 32.23-17.055 30.428-4.757 54.433 10.449 70.222 35.995-25.86 64.679-61.236 82.391-102.452z" fill="#6c5475"/><path d="m216.312 363.771s18.05 25.35 23.3 49.28c4.837 22.047 22.76 59.786 42.104 49.033-.216-1.896-.396-3.86-.5-5.945-.886-17.655-10.678-30.78-17.888-38.134-4.278-4.364-6.423-10.33-5.99-16.426.768-10.78-2.023-21.137-5.203-29.095-4-10.011-4.763-20.964-2.459-31.495 3.473-15.876 1.868-29.288-1.475-39.83-4.636-14.622-16.393-25.607-30.758-29.732-10.282 15.277-29.209 52.812-1.131 92.344z" fill="#b4d667"/></g></svg>