<svg id="Layer_1" enable-background="new 0 0 512 512" height="512" viewBox="0 0 512 512" width="512" xmlns="http://www.w3.org/2000/svg"><g><path d="m245.002 10.998c-101.592 0-188.738 61.835-225.864 149.919l8.998 209.146c24.564 46.606 63.699 84.334 111.357 107.11l53.976 18.382c16.618 3.558 33.854 5.447 51.534 5.447 135.311 0 245.002-109.691 245.002-245.002s-109.692-245.002-245.003-245.002z" fill="#1c2e7a"/><g fill="#deeeff"><path d="m451.759 209.197 2.805 6.221c.765 1.697 3.188 1.797 4.022.132 1.427-2.847 1.994-5.685 2.164-8.11-3.019.604-6.03 1.194-8.991 1.757z"/><path d="m439.83 211.36 2.418 5.361c.765 1.697 3.188 1.797 4.022.133 1.216-2.426 1.806-4.847 2.062-7.012-2.918.541-5.764 1.051-8.502 1.518z"/><path d="m463.763 206.833 3.276 7.265c.765 1.697 3.188 1.797 4.022.133 1.682-3.356 2.175-6.704 2.223-9.367-3.133.659-6.321 1.319-9.521 1.969z"/><path d="m476.685 204.143 3.845 8.527c.765 1.697 3.188 1.797 4.022.133 2.007-4.004 2.331-8.011 2.212-10.837-3.211.703-6.595 1.435-10.079 2.177z"/><path d="m490.902 201.054 4.208 9.331c.765 1.697 3.188 1.797 4.022.132 2.251-4.492 2.383-8.966 2.148-11.792-3.034.69-6.538 1.478-10.378 2.329z"/></g><g fill="#deeeff"><path d="m492.158 226.763c1.752-.186 3.316-.259 4.734-.251-.436-2.811-1.561-6.833-4.484-10.481-1.164-1.453-3.512-.848-3.905.971l-2.222 10.285c2.131-.163 4.11-.337 5.877-.524z"/><path d="m481.421 227.617c-.494-2.775-1.654-6.534-4.397-9.958-1.164-1.453-3.512-.848-3.905.971l-2.046 9.472c3.691-.13 7.158-.294 10.348-.485z"/><path d="m467.695 228.209c-.659-2.42-1.828-5.228-3.922-7.841-1.164-1.453-3.512-.848-3.905.971l-1.525 7.061c3.23-.039 6.35-.105 9.352-.191z"/></g><path d="m9.903 325.119c10.791 1.294 20.778 1.485 30.176.852-2.707-12.078-3.739-26.553.26-41.448 1.844-6.869 4.081-13.666 6.244-20.239 9.206-27.976 18.694-56.817 2.993-102.775-10.044-1.011-20.205-1.303-30.44-.591-12.321 29.236-19.136 61.363-19.136 95.082 0 24.005 3.468 47.196 9.903 69.119z" fill="#5ea033"/><g fill="#88ce65"><path d="m196.516 235.313c2.669-.283 4.965-1.14 6.843-2.162 11.02-5.993 18.428-23.715 19.189-43.892-18.362 7.245-39.755 4.851-63.289-.911.407 11.736 4.148 28.108 19.441 40.474 6.975 5.64 13.002 7 17.816 6.491z"/><path d="m245.349 174.889c-1.053 17.357-4.271 40.375-13.624 51.941-8.248 10.2-12.914 24.079-12.802 38.077.042 5.221.772 10.185 2.108 14.749 28.153-12.035 50.384-28.358 61.978-37.818 2.097-1.712 4.262-3.332 6.475-4.876.205-10.599-1.949-22.308-9.189-33.065-9.689-14.397-9.931-30.775-7.695-43.663-8.566 3.374-17.687 8.126-27.251 14.655z"/><path d="m411.391 187.486c-2.589-6.223-5.086-12.493-7.336-18.283-7.453-1.27-13.828-2.757-18.457-4.357-8.795-3.041-18.381-3.805-25.9-3.79-8.23.018-16.421-1.249-24.211-3.905-7.444-2.538-18.517-4.946-32.352-4.004-6.159 10.226-12.151 26.151-5.408 43.673 4.06 10.549 6.818 21.22 8.685 30.51 7.503-3.385 15.403-5.878 23.565-7.326 10.539-1.871 22.387-2.253 34.36.719 3.946.98 8.237 1.843 12.758 2.613 16.238-3.029 34.438-6.158 46.519-7.437.245-.026.508-.058.759-.086-3.254-6.145-7.498-15.145-12.982-28.327z"/><path d="m511.678 190.458c-2.577-8.454-9.985-20.505-31.273-18.253-15.13 1.601-32.958 1.454-49.486.202 2.36 15.516 3.865 28.005 4.487 37.294.111 1.651.189 3.156.243 4.538 22.963-3.679 56.403-11.183 70.611-14.451 4.168-.957 6.665-5.24 5.418-9.33z"/></g><path d="m151.941 239.88c-29.121-16.312-35.019-43.776-34.964-63.536-12.033-3.541-24.425-7.033-37.084-9.832 7.547 18.858 19.901 57.164 4.766 75.882-16.867 20.859-22.848 49.681-16.997 79.346 33.803-7.924 62.257-23.721 100.427-27.761 10.648-1.127 20.955-3.349 30.787-6.28-8.38-15.561-22.75-34.27-46.935-47.819z" fill="#5ea033"/><path d="m232.986 227.85c9.837-12.166 13.055-36.433 14.049-54.079-3.37 2.239-6.789 4.671-10.267 7.369-5.002 3.88-10.299 6.735-15.866 8.74-1.393 30.722-18.41 56.095-41.182 37.682-14.725-11.906-18.441-27.508-18.89-38.832-14.406-3.447-29.628-8.218-45.46-12.857-.108 19.605 5.531 48.479 35.778 65.422 23.832 13.35 37.983 31.614 46.233 46.849 8.79-2.542 17.206-5.662 25.135-9.119-4.719-16.463-.87-37.151 10.47-51.175z" fill="#6faf46"/><path d="m270.836 160.963c-2.076 12.903-1.658 29.321 8.113 43.84 7.315 10.869 9.322 22.689 8.955 33.274 6.257-4.537 12.974-8.384 20.036-11.433-1.88-9.259-4.643-19.864-8.7-30.406-6.758-17.558-.376-33.368 5.793-43.197-9.992.471-21.506 2.69-34.197 7.922z" fill="#6faf46"/><path d="m85.92 243.414c15.388-19.031 3.583-56.968-4.11-76.473-11.145-2.53-22.502-4.547-34.007-5.606 19.649 56.743.613 86.853-9.03 122.767-4.064 15.137-3.079 29.758-.381 41.967 10.96-.62 21.13-2.347 30.868-4.711-5.263-27.015-1.15-55.919 16.66-77.944z" fill="#6faf46"/><path d="m485.024 185.033c.345 3.261-3.546 6.345-8.692 6.89-5.145.545-9.596-1.657-9.941-4.918s3.546-6.346 8.692-6.89c5.145-.545 9.596 1.657 9.941 4.918z" fill="#5ea033"/><path d="m491.93 224.613c-25.441 2.693-90.982 3.106-127.822-6.039-11.973-2.972-23.821-2.59-34.36-.72-17.264 3.064-33.383 10.749-46.968 21.835-15.24 12.436-48.848 36.733-90.15 47.55l1.696 1s-4.79 22.088 18.279 26.592c6.552-2.916 13.405-5.161 20.451-6.704 14.495-3.173 34.503-9.169 54.608-20.353 10.644-5.921 22.136-10.18 34.15-12.187 11.85-1.98 28.466-6.1 46.231-14.675 34.129-16.475 114.339-6.665 126.312-13.367 11.973-6.701 23.015-25.625-2.427-22.932z" fill="#fee884"/><path d="m216.589 313.165c-25.318-3.596-20.264-26.918-20.262-26.925-9.128 2.594-18.656 4.552-28.466 5.59-57.722 6.109-93.219 39.112-158.603 31.106 4.671 16.485 11.039 32.254 18.878 47.127 45.032 1.992 110.166-4.138 165.744-44.442 7.037-5.103 14.672-9.268 22.709-12.456z" fill="#ffdd40"/><path d="m389.276 190.289c1.541 9.687-4.112 18.638-12.626 19.993-8.515 1.355-16.667-5.399-18.208-15.086-1.542-9.687 4.112-18.638 12.626-19.993 8.514-1.354 16.667 5.4 18.208 15.086z" fill="#5ea033"/><path d="m384.909 183.576c1.072 6.738-3.521 13.069-10.258 14.141-6.738 1.072-13.069-3.521-14.141-10.258-1.072-6.738 3.52-13.069 10.258-14.141 6.738-1.073 13.069 3.52 14.141 10.258z" fill="#ffc839"/><path d="m385.453 186.996c.536 3.369-1.76 6.534-5.129 7.07s-6.534-1.76-7.07-5.129 1.76-6.534 5.129-7.07c3.368-.537 6.534 1.76 7.07 5.129z" fill="#543e5b"/><path d="m175.037 383.536c-.609-.603-16.801-8.261-16.835-28.693-.015-9.107 3.114-16.404 3.146-16.477l.897-3.064c-9.434 3.271-19.079 5.147-28.265 6.11 6.614 17.656 5.512 33.115 1.871 45.223-3.67 12.205-5.19 24.919-4.263 37.476 9.38-4.933 18.051-12.283 25.907-22 5.378-6.65 10.95-12.185 16.481-16.808.341-.593.692-1.183 1.061-1.767z" fill="#88ce65"/><path d="m183.175 325.154c-7.182 4.688-14.858 8.161-22.648 10.718l-.554 1.894s-13.052 29.855 12.988 46.235c0 0-.972 1.52-2.134 4.038 10.655-9.58 21.321-15.634 30.309-19.438-7.419-12.118-14.872-24.914-17.961-43.447z" fill="#b4d667"/><path d="m179.707 464.199c-6.463-11.286-3.948-27.236 1.35-38.964l-1.076-.709c-.189-.124-.364-.255-.547-.381-7.508 1.189-13.911 3.76-18.994 7.729-7.724 6.03-16.608 9.832-25.182 12.229.081.27.15.543.234.812 2.863 9.221 4.751 20.162 4 32.258 17 8.124 35.085 14.337 53.976 18.382 4.294-4.664 8.267-9.89 11.751-15.736-12.376-2.426-20.952-7.656-25.512-15.62z" fill="#88ce65"/><path d="m216.089 453.094c2.285-9.303 3.513-17.49 3.917-24.825-3.248-.949-6.794-1.868-10.536-2.653-12.227-2.564-23.04-2.908-32.109-1.107.571.431 1.166.855 1.796 1.27 0 0-21.175 45.931 25.225 55.409 5.006-8.08 9.075-17.377 11.707-28.094z" fill="#b4d667"/><path d="m183.477 326.897c-.467-2.529-.856-5.162-1.148-7.92-1.596-15.08-5.755-26.143-10.999-34.257-14.805-22.91-50.603-11.159-49.369 16.09.433 9.555 2.961 20.826 9.114 33.737 1.367 2.868 2.505 5.678 3.475 8.439 16.115-1.73 33.582-6.242 48.927-16.089z" fill="#6faf46"/><path d="m181.058 425.235-1.076-.709c-15.07-9.928-13.848-26.913-4.944-40.99-.073-.073-.377-.251-.847-.538-6.006 4.893-12.087 10.835-17.956 18.093-8.228 10.176-16.721 16.871-24.763 21.22.42 7.631 1.729 15.215 4.022 22.604.077.247.15.499.225.749 8.764-2.451 17.819-6.344 25.72-12.512 5.599-4.371 12.356-6.687 19.502-7.643.04-.09.076-.184.117-.274z" fill="#6faf46"/><path d="m219.899 429.932c2.081-29.346-8.919-45.154-19.648-62.779-8.161 3.475-17.658 8.782-27.297 16.859-.279.438-16.78 26.627 6.202 41.768 13.74-2.309 29.192.742 40.743 4.152z" fill="#88ce65"/><path d="m432.58 172.525c-11.041-.783-21.558-2.062-30.395-3.651 5.929 15.3 13.71 34.283 20.446 47.135.325-.036.664-.076.981-.11 3.874-.41 8.531-1.08 13.65-1.921-.374-9.206-1.831-22.671-4.682-41.453z" fill="#6faf46"/><path d="m47.123 400.447c14.972 20.479 33.042 38.547 53.525 53.511 17.493-56.356-17.32-61.208-53.525-53.511z" fill="#2a428c"/><path d="m245.002 10.998c-61.673 0-118.02 22.792-161.087 60.408 22.037 32.218 62.608 78.576 123.99 58.31 90.865-30 124.479-21.333 167.005-6.667 28.093 9.689 53.114 5.823 71.07-7.178-44.284-63.395-117.782-104.873-200.978-104.873z" fill="#2a428c"/><path d="m482.382 316.854c-27.265-19.442-67.193-33.611-115.697-14.174-93.859 37.613-119.859 55.592-94.859 115.603 12.511 30.032 6.291 59.56-3.046 81.568 103.662-9.986 188.442-84.557 213.602-182.997z" fill="#2a428c"/><path d="m461.373 371.003c-16.396-16.354-41.672-32.156-71.373-18.621-47.546 21.667-101.574 52.249-36.106 123.13 45.808-22.766 83.475-59.443 107.479-104.509z" fill="#3e60a3"/><path d="m144.357 32.578c6.793 23.38 26.574 49.034 83.275 40.257 72.248-11.184 123.535-2.345 153.614-20.474-38.955-26.121-85.817-41.363-136.244-41.363-35.875 0-69.94 7.725-100.645 21.58z" fill="#3e60a3"/></g></svg>