<svg id="Layer_1" enable-background="new 0 0 511.999 511.999" height="512" viewBox="0 0 511.999 511.999" width="512" xmlns="http://www.w3.org/2000/svg"><g><path d="m245.002 10.998c-111.68 0-205.897 74.728-235.403 176.906l111.043 279.214c36.456 21.521 78.961 33.884 124.36 33.884 135.311 0 245.002-109.691 245.002-245.002s-109.691-245.002-245.002-245.002z" fill="#945230"/><path d="m435.387 205.285c-1.63-1.232-3.259-2.566-4.884-4.015-11.398-10.162-23.38-11.712-32.047-10.967-4.805 12.47.554 22.518 3.217 27.16 3.471 1.766 6.894 3.523 10.198 5.241 5.175-1.876 11.999-2.5 20.507.394-5.715-9.313-1.238-14.903 3.009-17.813z" fill="#ff4155"/><path d="m477.044 216.976c-11.475 2.155-27.056-.295-42.563-12.392-4.372 2.597-10.011 8.109-4.539 17.762 2.286.623 4.699 1.495 7.249 2.685 16.455 7.679 32.092.763 41.051-5.046 1.529-.992.594-3.345-1.198-3.009z" fill="#ff7186"/><g fill="#fcf2c8"><path d="m425.058 176.361.211 8.117c.052 1.999 2.321 3.114 3.947 1.951 3.454-2.471 6.202-4.986 8.395-7.364z"/><path d="m491.685 190.712-9.123-1.965 3.416 15.309c.484 2.169 3.198 2.901 4.723 1.284 5.362-5.683 8.617-11.1 10.594-15.45-2.938 1.176-6.246 1.547-9.61.822z"/><path d="m442.716 180.165.333 12.857c.055 2.096 2.434 3.266 4.14 2.046 5.462-3.907 9.257-7.923 11.873-11.382z"/><path d="m460.932 184.088 4.044 18.126c.484 2.169 3.197 2.901 4.723 1.284 5.284-5.601 8.521-10.941 10.506-15.259z"/><path d="m473.913 249.935c.892-3.684 1.543-8.067 1.631-13.16.038-2.222-2.414-3.595-4.276-2.381l-14.926 9.732c6.492 2.503 12.558 4.411 17.571 5.809z"/><path d="m454.121 243.254c.516-4.265.583-9.694-.572-16.173-.368-2.065-2.888-2.89-4.392-1.428l-10.637 10.342c5.213 2.81 10.508 5.217 15.601 7.259z"/><path d="m435.053 234.063c.109.063.22.122.329.185.299-3.743.212-8.273-.727-13.543-.351-1.969-2.753-2.756-4.187-1.362l-7.853 7.635c.187.171.382.346.571.518 4.475 2.395 8.516 4.623 11.867 6.567z"/></g><path d="m101.569 204.942c-6.938-2.211-14.774-5.042-23.931-8.656-5.21-2.056-10.428-3.698-15.599-4.998-.758 6.034-1.453 13.955-1.469 22.757 9.261.645 19.333 1.688 30.291 3.251 4.494.641 8.791 1.085 12.927 1.365-1.002-4.473-1.723-9.087-2.219-13.719z" fill="#88ce65"/><path d="m33.274 213.24c-.029-.525-.066-1.04-.091-1.571-.427-9.031-.133-17.596.345-24.475-8.603-.381-16.686-.02-23.93.709-2.602 9.01-4.692 18.234-6.255 27.638 8.148-1.216 18.063-2.123 29.931-2.301z" fill="#88ce65"/><path d="m129.567 217.964c8.424-1.154 15.988-3.228 22.874-6.089-8.238.386-15.582.374-23.605-.61.188 2.218.427 4.455.731 6.699z" fill="#88ce65"/><g fill="#6faf46"><path d="m32.024 187.135c-.509 7.331-.793 16.49-.253 26.136 8.949-.183 19.021.045 30.314.878.012-8.727.694-16.561 1.428-22.487-10.863-2.867-21.536-4.183-31.489-4.527z"/><path d="m131.042 217.742c-.289-2.112-.522-4.217-.706-6.305-8.707-.947-18.117-3.021-30.296-6.987.488 4.72 1.207 9.467 2.222 14.095 10.651.824 20.174.503 28.78-.803z"/></g><path d="m233.676 123.081c-11.949 2.168-14.461-7.293-14.764-14.139-1.311.729-2.835 1.129-4.471 1.06l-.941-.039c-6.135-.257-10.506 5.881-8.257 11.595l.201.511c2.038 5.175-1.367 10.879-6.889 11.541l-.931.112c-5.99.718-9.341 7.279-6.412 12.553l.341.613c2.739 4.932-.005 11.115-5.5 12.393l-.9.21c-5.814 1.352-8.455 8.123-5.092 13.054l.437.641c3.206 4.701.97 11.164-4.455 12.879l-.871.275c-5.653 1.788-7.78 8.673-4.12 13.337l.791 1.008c24.24-18.327 39.999-47.984 62.221-77.672-.128.022-.264.045-.388.068z" fill="#6faf46"/><path d="m325.867 87.273-.421.192c-4.894 2.232-10.603-.591-11.801-5.834l-.072-.313c-1.411-6.175-8.842-8.687-13.71-4.635l-.556.463c-4.016 3.343-10.069 2.301-12.735-2.193l-.009-.015c-3.319-5.594-11.438-5.531-14.67.113l-.144.251c-2.542 4.437-8.4 5.638-12.482 2.559l-.224-.169c-5.194-3.918-12.685-.779-13.532 5.672-.681 5.183-5.84 8.526-10.849 7.029l-.755-.225c-6.052-1.808-11.888 3.388-10.793 9.608l.047.269c.792 4.497-2.093 8.627-6.257 9.689.261 6.86 2.703 16.535 14.773 14.346.55-.1 1.16-.203 1.819-.309.742-.997 1.491-1.993 2.248-2.99 30.074-39.579 66.711-30.447 84.085-22.783 4.737-3.449 9.882-5.172 13.705-6.025 1.142-.255 2.26-.589 3.356-.979-2.007-3.745-6.726-5.681-11.023-3.721z" fill="#b4d667"/><path d="m237.073 260.9c.79 4.679 3.933 17.708 15.059 24.547 7.454 4.581 16.923 5.399 28.222 2.469 14.746-31.915 38.126-44.907 51.118-49.869-.755-.435-1.51-.876-2.263-1.329-26.56-15.963-26.216-35.077-26.762-36.399-.435.22-39.143-4.901-66.674 60.846.43-.083.862-.167 1.3-.265z" fill="#fee884"/><path d="m120.642 467.118c75.261-37.923 140.612-103.524 150.162-149.687 2.505-12.107 6.114-22.447 10.384-31.294-39.203 10.975-42.859-27.085-42.859-27.085-.631.164-1.247.306-1.854.437-2.313 5.386-4.551 11.26-6.686 17.669-13.365 40.13-28.249 45.672-48.849 53.341-13.644 5.08-29.107 10.837-48.217 27.191-23.126 19.792-58.715 31.076-89.379 37.457 20.208 29.232 46.603 53.851 77.298 71.971z" fill="#ffdd40"/><path d="m205.899 233.625c.033 1.112-.847 1.44-1.118 1.514-.568.162-1.333.041-1.768-.75-.338-.614-.711-1.262-1.101-1.925l1.401 3.072c.231 2.102 2.05 15.232 11.866 22.158 5.78 4.079 13.137 5.154 21.893 3.206.039.231.089.499.14.769 18.328-43.459 44.057-61.053 65.958-59.802-1.401-9.339.513-17.757 2.551-23.49-5.537-9.905-2.311-20.727 1.165-27.801 2.68-5.454 3.584-11.625 2.73-17.642-2.775-19.551 3.551-30.391 11.259-36.411-16.858-7.744-54.487-18.219-85.246 22.262-1.674 2.204-3.308 4.409-4.913 6.611.708 1.185 1.438 2.359 2.198 3.513 10.62 16.132 13.256 32.884 13.598 44.096.033 1.112-.847 1.44-1.117 1.515-.564.156-1.331.041-1.769-.751-4.07-7.386-11.772-18.501-25.556-30.391-9.923 14.432-19.184 28.142-29.627 39.736 1.207 2.185 2.485 4.333 3.857 6.416 10.621 16.132 13.257 32.883 13.599 44.095z" fill="#88ce65"/><path d="m231.212 277.633c2.223-6.674 4.606-12.852 7.118-18.572l-.001-.008c-30.755 8.005-33.548-23.914-33.548-23.914-.568.162-1.333.041-1.768-.75-4.287-7.78-12.593-19.702-27.818-32.311-1.239-1.026-2.431-2.134-3.588-3.299-11.606 8.747-25.156 14.901-42.29 17.219.759 6.335 1.994 12.748 3.895 18.927 5.681 18.46 3.521 35.28.71 46.139-.28 1.077-1.216 1.147-1.497 1.141-.59-.009-1.291-.334-1.488-1.216-1.938-8.669-6.574-22.439-17.659-38.806-4.873-7.196-7.995-16.097-9.919-25.54-4.039-.282-8.232-.722-12.611-1.346-10.904-1.555-20.941-2.601-30.165-3.246-.163 12.151.92 26.183 4.958 39.309 5.68 18.458 3.521 35.279.71 46.139-.281 1.075-1.213 1.149-1.497 1.141-.59-.009-1.291-.334-1.488-1.216-1.937-8.668-6.573-22.437-17.659-38.806-7.279-10.748-11.459-26.544-12.425-46.95-.007-.143-.01-.284-.017-.427-11.654.174-21.418 1.053-29.48 2.236-2.416 13.813-3.685 28.019-3.685 42.523 0 27.532 4.543 54.003 12.917 78.706 26.243-.331 48.423-3.587 64.463-9.781 36.536-14.108 69.717-15.415 91.118-14.024 1.392.09 1.546 1.312 1.563 1.556.017.248.031 1.501-1.356 1.784-22.374 4.562-47.392 15.017-74.361 31.073-21.276 12.667-43.114 20.533-65.999 25.151 4.789 9.045 10.123 17.755 15.967 26.084 30.645-6.426 66.09-17.78 89.385-37.717 48.696-41.675 75.296-14.484 97.515-81.199z" fill="#6faf46"/><path d="m170.389 199.68c1.238 1.258 2.518 2.451 3.849 3.554 14.737 12.205 22.973 23.736 27.461 31.879 1.54 2.795 5.796 1.656 5.699-1.534-.346-11.361-3.017-28.427-13.846-44.874-1.447-2.197-2.798-4.461-4.059-6.767-5.89 6.669-12.146 12.667-19.104 17.742z" fill="#5ea033"/><path d="m231.676 124.081c-5.08 6.917-9.837 13.81-14.46 20.538 13.259 11.456 20.856 22.179 25.097 29.873 1.54 2.795 5.796 1.656 5.698-1.534-.346-11.361-3.016-28.427-13.845-44.874-.864-1.312-1.692-2.649-2.49-4.003z" fill="#5ea033"/><path d="m61.803 297.753c.696 3.114 5.1 3.213 5.9.123 2.849-11.004 5.063-28.134-.728-46.956-3.97-12.904-5.028-26.765-4.873-38.757-11.337-.84-21.456-1.075-30.435-.892.747 16.719 3.892 35.186 12.699 48.19 10.73 15.842 15.409 29.219 17.437 38.292z" fill="#5ea033"/><path d="m101.842 216.535c1.941 9.722 5.129 19.011 10.194 26.49 10.73 15.843 15.409 29.219 17.437 38.292.696 3.115 5.1 3.213 5.9.123 2.848-11.003 5.063-28.134-.728-46.956-1.883-6.12-3.109-12.455-3.863-18.706-8.652 1.298-18.223 1.608-28.94.757z" fill="#5ea033"/><path d="m385.019 181.715c-13.043 11.678-23.727 13.11-26.191 14.125 8.96 4.441 44.087 21.849 46.039 22.824-1.163-3.143-16.427-21.476 4.759-43.223l2.411-2.475c-1.59.224-14.793-2.199-27.018 8.749z" fill="#ff7186"/><path d="m476.544 249.669c-10.326-2.723-26.593-7.925-41.548-16.604-18.094-10.5-56.29-29.248-74.723-38.188-9.644 2.444-21.111 2.522-34.263-2.141-11.6-4.113-18.298-9.552-21.875-15.356-4.736 12.459-9.97 40.026 24.303 60.625 45.645 27.433 91.987 20.436 123.467 36.662 19.045 9.816 27.954-.5 32.021-10.182 2.574-6.132-.952-13.121-7.382-14.816z" fill="#b4d667"/><path d="m509.171 148.892c-7.65 5.224-21.573-.11-21.713-.165l-.159-.062-97.893-14.346-19.191-19.265-.361-.109c-7.358-2.232-12.162-6.132-14.279-11.592-3.255-8.396.448-18.66 2.837-23.853-6.342 1.17-11.251 3.706-14.505 5.886-3.199 2.144-6.727 3.75-10.485 4.589-10.343 2.308-30.362 10.939-25.8 43.071.854 6.017-.05 12.188-2.73 17.642-5.629 11.456-10.632 32.742 21.233 44.041 28.117 9.97 48.535-1.726 59.896-11.899 7.787-6.974 18.366-9.939 28.584-7.738l77.138 16.615c9.91 2.134 19.422-5.061 19.996-15.182.498-8.774.422-19.267-1.476-28.511-.344.318-.704.613-1.092.878z" fill="#6faf46"/><path d="m486.912 150.125s15.373 6.006 23.669-.427c-2.53-14.105-9.007-25.788-23.698-24.946 0 0-45.561-4.283-90.145-34.899-16.643-11.429-30.319-12.278-40.152-9.969-3.995 9.14-9.936 29.591 12.831 36.498l19.277 19.351z" fill="#88ce65"/><path d="m494.788 147.141c2.283 6.026.607 12.246-3.744 13.894-4.35 1.648-9.727-1.901-12.009-7.926-2.283-6.025-.607-12.246 3.743-13.894 4.351-1.648 9.728 1.9 12.01 7.926z" fill="#6c5475"/><path d="m393.119 128.984c1.198 10.886-5.587 20.564-15.155 21.617s-18.296-6.918-19.494-17.803c-1.198-10.886 5.587-20.563 15.155-21.617 9.568-1.053 18.296 6.917 19.494 17.803z" fill="#6c5475"/><path d="m388.61 121.262c.833 7.571-4.629 14.385-12.201 15.218-7.571.833-14.385-4.629-15.218-12.2s4.629-14.385 12.2-15.218c7.573-.834 14.386 4.629 15.219 12.2z" fill="#deeeff"/><path d="m389.033 125.105c.417 3.786-2.315 7.192-6.1 7.609-3.786.417-7.192-2.315-7.609-6.1-.417-3.786 2.315-7.192 6.1-7.609 3.786-.417 7.192 2.314 7.609 6.1z" fill="#543e5b"/><path d="m168.596 309.403c-22.549-1.463-55.516.129-91.755 14.123-15.741 6.079-37.94 9.329-64.431 9.629 4.462 13.458 10.055 26.398 16.674 38.708 22.865-4.659 44.708-12.568 66.028-25.26 31.883-18.981 56.581-27.361 73.893-30.892 3.645-.745 3.303-6.067-.409-6.308z" fill="#ffdd40"/><path d="m307.878 448.874c-3.405-10.593-11.589-25.299-30.83-25.783-1.751-.044-3.476-.379-5.083-1.074-2-.865-5.187-1.725-8.39-.451-3.138 1.248-6.674.992-9.676-.556-4.158-2.142-10.428-5.207-18.583-8.716-.557-.24-1.084-.524-1.587-.838-4.683 2.866-8.875 3.888-12.523 3.018-6.841-1.636-10.417-9.69-11.939-14.346-.641-1.959-.952-4.084-.928-6.318.092-8.443-.98-38.111-18.637-65.376-8.273-12.776-8.583-25.752-.92-38.566 2.396-4.006 5.236-7.37 7.755-9.954-16.934-1.323-34.969 11.335-43.637 28.216-13.641 26.568 37.799 72.732 34.339 96.259-2.347 15.96 6.409 22.963 12.285 25.817 2.588 1.257 4.927 2.956 6.94 5.012 2.308 2.356 7.072 4.739 16.565 2.272 16.04-4.17 35.758-.094 44.505 5.044 5.253 3.086 10.732 9.523 14.272 14.173 1.468 1.928 4.542.857 4.51-1.566-.049-3.775-.762-8.543-3.33-12.88-1.027-1.733.595-3.825 2.545-3.318 5.177 1.346 12.795 4.48 19.007 11.755 1.379 1.615 3.99.197 3.34-1.824z" fill="#88ce65"/><path d="m277.546 498.846c-25.328-27.384-61.655-50.754-89.771-4.574 18.358 4.397 37.519 6.73 57.227 6.73 11.035 0 21.895-.743 32.544-2.156z" fill="#b26847"/><path d="m315.417 333.708c-40.654 61.76 36.689 85.139 44.605 138.654 59.381-31.633 104.197-86.988 121.807-153.426-44.793-19.243-127.746-43.969-166.412 14.772z" fill="#b26847"/><path d="m468.088 357.343c-45.127-21.49-88.065-24.088-97.804-5.224-9.128 17.68 13.992 48.221 52.868 72.028 18.428-19.516 33.677-42.057 44.936-66.804z" fill="#c67859"/><path d="m255.588 11.245c-3.512-.149-7.037-.247-10.586-.247-90.667 0-169.822 49.253-212.188 122.46 30.482 16.588 83.025 36.226 107.825-7.463 24.94-43.936 55.505-74.604 97.081-85.615 12.711-3.366 20.748-15.977 17.937-28.821-.023-.105-.046-.21-.069-.314z" fill="#b26847"/><path d="m235.259 412.268c-5.002-2.184-7.881-7.495-7.005-12.887 2.877-13.622.417-23.953-2.39-30.506-2.382-5.56-2.421-11.86-.107-17.449 4.735-11.437 9.635-32.069-3.137-53.582-7.491-12.619-17.654-17.876-28.076-18.024-8.792 9.417-20.238 27.602-6.101 49.432 17.34 26.776 18.493 55.66 18.396 64.543-.025 2.306.285 4.609 1.002 6.801 2.532 7.74 9.973 22.91 27.418 11.672z" fill="#b4d667"/></g></svg>