<svg id="Layer_1" enable-background="new 0 0 496.008 496.008" height="512" viewBox="0 0 496.008 496.008" width="512" xmlns="http://www.w3.org/2000/svg"><g><path d="m496.004 248c0 46.53-12.82 90.08-35.12 127.28-12.273 20.498-27.434 39.062-44.91 55.16-13.438 9.028-209.642 59.451-338.44-2.33-12.32-11.65-23.44-24.56-33.16-38.52-27.97-40.14-44.37-88.95-44.37-141.59 0-136.97 111.03-248 248-248s248 111.03 248 248z" fill="#755377"/><path d="m460.884 375.28c-12.265 20.485-27.448 39.069-44.91 55.16-26.632 24.541-206.271 60.899-336.35-.37-12.981-12.173-24.264-24.702-35.25-40.48 17.156-26.579 38.291-53.358 41.85-85.43 5.36-48.19-30.74-94.07-24.47-142.15 3.5-26.83 20.08-50.49 40.34-68.43 40.97-36.26 96.77-52.15 151.42-54.57 38.82-1.71 79.13 3.25 112.65 22.91 33.52 19.65 58.9 56.19 57.28 95.01-.92 22.08-10.14 42.98-13.2 64.86-6.77 48.5 16.95 95.63 41.58 137.95z" fill="#5b3c5c"/><g><path d="m400.245 164.66-2.84 11.06-.3 1.19c-1.77 6.92-8 11.75-15.141 11.75h-267.92c-7.14 0-13.37-4.83-15.14-11.75l-3.141-12.25z" fill="#fcac9b"/><path d="m400.245 164.66-2.84 11.06c-1.9-.18-3.69-.37-5.09-.38l-15.94-.17-33.14-.33-131.3-1.34-72.66-.74c-6.65-.07-14.91.89-17.24 7.12-1.04 2.79-.48 5.78.03 8.78h-8.02c-7.14 0-13.37-4.83-15.14-11.75l-3.141-12.25z" fill="#fb9280"/></g><g><path d="m144.044 188.66h207.92v185.45h-207.92z" fill="#fcac9b"/><path d="m351.964 188.66v185.45h-38.45c-1.53-7.31-1.02-15.16-.45-22.71l5.67-75.17c.87-11.55 1.39-24.3-5.76-33.41-6.4-8.14-17.34-11.13-27.63-12.32-11.34-1.3-23.99-.58-32.37 7.17-10.14 9.38-10.22 25.07-9.84 38.88.91 32.7.21 65.8-8.02 97.46-.01.03-.02.07-.03.1h-36.12c.63-3.83 1.68-7.63 2.6-11.41 6.41-26.22 6.81-53.66 3.7-80.47-1.36-11.74-3.6-23.92-10.8-33.3-11.29-14.7-31.74-18.62-50.42-17.33v-42.94z" fill="#fb9280"/><path d="m278.004 188.66h-60v12c0 6.627 5.373 12 12 12h36c6.627 0 12-5.373 12-12z" fill="#f3f1f1"/><path d="m278.004 374.107h-60v-11.999c0-6.627 5.373-12 12-12h36c6.627 0 12 5.371 12 11.998z" fill="#f3f1f1"/><path d="m266.004 350.108h-36c-5.76-45.64-5.76-91.819 0-137.449h36c.42 3.36.82 6.73 1.18 10.1 4.55 42.341 4.16 85.07-1.18 127.349z" fill="#e6dddb"/><path d="m381.964 188.66h-60v12c0 6.627 5.373 12 12 12h36c6.627 0 12-5.373 12-12z" fill="#f3f1f1"/><path d="m381.964 374.107h-60v-11.999c0-6.627 5.373-12 12-12h36c6.627 0 12 5.371 12 11.998z" fill="#f3f1f1"/><path d="m369.964 350.108h-36c-5.77-45.64-5.77-91.819 0-137.449h36c.4 3.15.77 6.29 1.1 9.44 4.63 42.551 4.26 85.52-1.1 128.009z" fill="#e6dddb"/><path d="m174.044 188.66v12c0 6.63-5.37 12-12 12h-36c-6.63 0-12-5.37-12-12v-12z" fill="#f3f1f1"/><path d="m174.044 362.11v12h-60v-12c0-5.85 4.18-10.72 9.72-11.78.74-.15 1.5-.22 2.28-.22h36c6.63 0 12 5.37 12 12z" fill="#f3f1f1"/><path d="m162.044 350.11h-36c-5.76-45.64-5.76-91.82 0-137.45h36c.45 3.56.86 7.12 1.24 10.68 4.49 42.15 4.08 84.69-1.24 126.77z" fill="#e6dddb"/><path d="m134.274 239.87c.6 4.65 2.48 9.02 3.72 13.54 6.9 25.16-6.31 52.02-2.05 77.76 1.03 6.27 3.07 12.8 2.51 18.94h-12.41c-5.76-45.64-5.76-91.82 0-137.45h36c.45 3.56.86 7.12 1.24 10.68-4.07-.03-8.14.01-12.21.11-4.57.11-9.53.46-12.96 3.48-3.51 3.1-4.44 8.29-3.84 12.94z" fill="#dcccca"/><path d="m267.184 222.76c-4.55-.5-9.11-1.02-13.66-1.51-4.97-.53-11.06-.56-13.7 3.69-2.09 3.36-.87 7.69.08 11.53 8.02 32.48-8.28 67.63 1.22 99.71 1.33 4.5 3.11 9.459 2.69 13.928h-13.81c-5.76-45.64-5.76-91.819 0-137.449h36c.42 3.361.82 6.731 1.18 10.101z" fill="#dcccca"/><path d="m369.964 212.66c.4 3.15.77 6.29 1.1 9.44-4.17-1.02-8.44-1.68-12.73-1.96-5.12-.33-11.03.25-14.05 4.4-2.1 2.9-2.17 6.86-1.27 10.33.91 3.46 2.68 6.63 4.02 9.96 6.37 15.73 2.99 33.45 1.06 50.32-2.08 18.23-2.33 36.668-.74 54.959h-13.39c-5.77-45.64-5.77-91.819 0-137.449z" fill="#dcccca"/><g fill="#e6dddb"><path d="m174.044 188.66v8.8c-42.061-1.566-41.21 1.157-41.7 15.2h-6.3c-6.63 0-12-5.37-12-12v-12z"/><path d="m278.004 188.66v8.8c-42.061-1.566-41.21 1.157-41.7 15.2h-6.3c-6.63 0-12-5.37-12-12v-12z"/><path d="m381.964 188.66v8.8c-42.061-1.566-41.21 1.157-41.7 15.2h-6.3c-6.63 0-12-5.37-12-12v-12z"/><path d="m168.234 374.11h-54.19v-12c0-5.85 4.18-10.72 9.72-11.78.26 2.38.94 4.68 2.33 6.59 3.4 4.67 9.93 5.69 15.71 5.5 5.78-.18 11.8-1.14 17.16 1.02 4.54 1.84 8.08 5.93 9.27 10.67z"/><path d="m272.194 374.107h-54.19v-11.999c0-5.85 4.18-10.718 9.72-11.778.26 2.38.94 4.68 2.33 6.59 3.4 4.67 9.93 5.69 15.71 5.5 5.78-.18 11.8-1.14 17.16 1.02 4.54 1.84 8.08 5.928 9.27 10.667z"/><path d="m376.154 374.107h-54.19v-11.999c0-5.85 4.18-10.718 9.72-11.778.26 2.38.94 4.68 2.33 6.59 3.4 4.67 9.93 5.69 15.71 5.5 5.78-.18 11.8-1.14 17.16 1.02 4.54 1.84 8.08 5.928 9.27 10.667z"/></g></g><g><path d="m399.349 164.66h-302.688c-6.345 0-11.491-5.373-11.491-12v-7.021c0-4.737 2.83-8.713 6.809-10.959 26.944-15.211 98.178-46.36 152.288-65.373 3.098-1.089 6.25-1.072 9.355-.002 52.961 18.249 123.429 50.675 150.402 66.398 3.949 2.302 6.814 6.223 6.814 10.962v5.996c0 6.626-5.144 11.999-11.489 11.999z" fill="#fbcbbc"/><path d="m148.703 135.452c-10.896 4.517-10.492 15.6 7.672 15.804l189.016 2.123c17.556.197 21.256-12.7 2.687-20.196-77.398-31.245-81.52-33.542-93.571-35.332-1.747-.259-3.517-.438-5.293-.524-17.657-.859-84.349 31.425-100.511 38.125z" fill="#fcac9b"/></g><path d="m415.974 430.44c-16 14.73-33.94 27.4-53.39 37.55-70.139 23.868-156.669 26.611-230.12-.5-12.35-6.51-24.087-14.054-35.1-22.49-6.139-4.702-12.07-9.68-17.74-14.93l7.048-31.961h321.87z" fill="#fcac9b"/><path d="m132.464 467.49c-12.35-6.51-24.09-14.05-35.1-22.49 2.74-.93 5.59-1.54 8.48-1.8 3.53-.3 7.14-.13 10.56-1.08 3.41-.94 6.73-3.35 7.43-6.83.58-2.92-.73-6.21.76-8.79 1.82-3.18 6.34-3.01 9.84-4.12 8.383-2.663 11.902-15.398 4.99-24.27h75.01c3.96 4.21 7.24 9.08 10.47 13.89 9.25 13.77 19.687 27.407 23.96 43.42 12.14 45.495-41.988 31.37-116.4 12.07z" fill="#fb9280"/><g fill="#e6dddb"><path d="m335.424 430.74h-176.07l5.17-32.63h165.95l4.13 27.24z"/><path d="m351.514 463.37h-207.99l6.25-32.63h195.2l4.64 23.16z"/><path d="m362.584 467.99c-14.97 7.82-30.84 14.16-47.41 18.8-20.75 5.84-42.59 9.03-65.15 9.21-42.45.34-82.48-10-117.56-28.51l1.17-4.12h227.78z"/></g><path d="m408.543 398.109h-321.871l3.628-12.255c2.047-6.913 9.239-11.747 17.478-11.747h279.661c8.238 0 15.431 4.834 17.477 11.747z" fill="#fb9280"/><path d="m334.604 425.35c-2.03.12-4.08.12-6.11.12-14.62-.01-29.38-.39-43.56-3.95-9.97-2.5-19.55-6.55-29.67-8.34-18.77-3.3-38.06 1.39-57.06-.1-6.62-.52-13.44-1.9-18.75-5.88-2.53-1.82-5.41-5.37-6.73-9.09h157.75z" fill="#f3f1f1"/><path d="m349.614 453.9c-.08.03-.15.04-.23.06-19.82 4.39-40.48 2.57-60.52-.64-20.05-3.21-39.94-7.8-60.21-8.92-17.8-.98-35.69.72-53.46-.68-5.27-.42-10.8-1.229-14.95-4.479-2.46-1.92-4.2-5.16-4.75-8.5h189.48z" fill="#f3f1f1"/><path d="m362.584 467.99c-14.97 7.82-30.84 14.16-47.41 18.8-22.75-3.465-48.024-10.39-73.01-11.99-28.27-1.81-56.88 3.05-84.85-1.38-7.41-1.18-14.76-4.01-18.64-10.05h222.74z" fill="#f3f1f1"/></g></svg>