<svg id="Layer_1" enable-background="new 0 0 496 496" height="512" viewBox="0 0 496 496" width="512" xmlns="http://www.w3.org/2000/svg"><g><path d="m496 248c0 54.69-17.7 105.24-47.69 146.24-21.21 29.01-48.57 53.23-80.16 70.76-71.02 1.29-169.19 7.31-240.21.05-30.84-17.1-57.65-40.56-78.64-68.63-30.97-41.39-49.3-92.76-49.3-148.42 0-136.97 111.03-248 248-248s248 111.03 248 248z" fill="#755377"/><path d="m448.31 394.24c-21.21 29.01-48.57 53.23-80.16 70.76-71.02 1.29-169.19 7.31-240.21.05-30.84-17.1-57.65-40.56-78.64-68.63 11.57-20.13 17.21-43.36 22.08-66.19 10.22-47.92 18.05-96.36 23.45-145.07 3.28-29.64 6.24-60.99 23.72-85.16 16.93-23.42 45.38-36.38 73.96-40.66 28.58-4.29 57.69-.88 86.37 2.67 40.17 4.97 84.7 12.65 109.15 44.91 16.33 21.55 20.14 50.1 19.52 77.13s-5.09 54.03-2.97 80.99c3.58 45.58 25.49 87.06 43.73 129.2z" fill="#5b3c5c"/><path d="m368.15 161.45v303.55c-7.79 4.32-15.83 8.24-24.11 11.71-29.54 12.43-61.99 19.29-96.04 19.29-13.76 0-27.25-1.12-40.4-3.28-19.37-3.17-37.98-8.58-55.56-15.97-8.27-3.47-16.32-7.39-24.1-11.7v-303.6c0-19.63 8.52-54.12 46.69-54.96h.1c.12-.01.25-.02.37-.02.31-.01.62-.02.94-.02h144c.36 0 .73.01 1.09.03.1 0 .21 0 .32.01 33.77.95 46.7 35.35 46.7 54.96z" fill="#fbc520"/><path d="m207.6 492.72c-19.37-3.17-37.98-8.58-55.56-15.97-8.27-3.47-16.32-7.39-24.1-11.7v-303.6c0-19.63 8.52-54.12 46.69-54.96h.1c.12-.01.25-.02.37-.02.31-.01.62-.02.94-.02h30.28c1.69 2.62 3.13 5.4 4.3 8.34 11.16 28.07-5.15 58.64-11.18 88.24-10.1 49.62 9.37 99.83 17.13 149.87 7.2 46.52 4.03 94.59-8.97 139.82z" fill="#fbb01d"/><path d="m344.04 130.45v346.26c-19.36 8.15-39.97 13.9-61.46 16.9-11.3 1.57-22.85 2.39-34.58 2.39-34.02 0-66.44-6.85-95.96-19.25v-346.3c0-12.78 9.99-23.23 22.59-23.96h.1c.12-.01.25-.02.37-.02.31-.01.62-.02.94-.02h144c.36 0 .73.01 1.09.03.1 0 .21 0 .32.01 12.6.73 22.59 11.17 22.59 23.96z" fill="#fbda26"/><path d="m282.58 493.61c-11.3 1.57-22.85 2.39-34.58 2.39-34.02 0-66.44-6.85-95.96-19.25v-338.77c16.31-1.06 30.81-1.14 37.83-1.48 25.71-1.27 54.4-1.01 73.21 16.56 14.97 13.97 19.85 35.96 18.88 56.41s-6.94 40.29-10.28 60.49c-12.24 73.84 10.72 148.84 10.9 223.65z" fill="#fbc520"/><path d="m318.27 195.15v8.98c0 6.57-1.55 12.77-4.31 18.27-6.7 13.39-20.54 22.58-36.54 22.58h-58.84c-22.57 0-40.85-18.29-40.85-40.85v-8.98c0-21.92 17.26-39.81 38.94-40.81.63-.03 1.27-.04 1.91-.04h58.84c22.57 0 40.85 18.29 40.85 40.85z" fill="#fbb53a"/><path d="m308.48 416.36c-1.92 2.32-4.83 3.87-8.69 3.87h-103.58c-15.29 0-15.38-23.73-.26-23.99.08-.01.17-.01.26-.01h103.58c11.63 0 14.36 13.34 8.69 20.13z" fill="#fbb53a"/><g><path d="m200 266.33c-9.942 0-18 8.128-18 18 0 12.303 12.218 21.134 24 16.95v7.05c0 5.457-6.706 8.048-10.394 4.086-2.257-2.426-6.054-2.563-8.48-.304-2.426 2.258-2.562 6.054-.304 8.48 3.395 3.647 8.197 5.739 13.178 5.739 9.718 0 17.641-7.746 17.969-17.386.049-.479.031-.001.031-24.614 0-9.856-8.039-18.001-18-18.001zm0 24c-3.309 0-6-2.691-6-6s2.691-6 6-6 6 2.692 6 6-2.691 6-6 6z" fill="#f79f1d"/><path d="m248 266.33c-9.942 0-18 8.128-18 18 0 12.316 12.229 21.13 24 16.95v7.05c0 5.457-6.706 8.048-10.394 4.086-2.258-2.426-6.055-2.563-8.48-.304-2.426 2.258-2.562 6.054-.304 8.48 3.395 3.647 8.197 5.739 13.178 5.739 9.718 0 17.641-7.746 17.969-17.386.049-.472.031-.035.031-24.614 0-9.858-8.042-18.001-18-18.001zm0 24c-3.309 0-6-2.691-6-6s2.691-6 6-6 6 2.692 6 6-2.691 6-6 6z" fill="#f79f1d"/><path d="m314 284.33c0-9.857-8.042-18-18-18-9.942 0-18 8.128-18 18 0 12.242 12.169 21.151 24 16.95v7.05c0 5.444-6.699 8.055-10.395 4.085-2.258-2.426-6.056-2.561-8.479-.303-2.426 2.258-2.562 6.054-.304 8.48 3.395 3.647 8.198 5.738 13.178 5.738 9.718 0 17.641-7.746 17.969-17.386.048-.472.031-.034.031-24.614zm-18 6c-3.309 0-6-2.691-6-6s2.691-6 6-6 6 2.692 6 6-2.691 6-6 6z" fill="#fbb53a"/></g><g><path d="m305.332 453.298h-9.332c-3.313 0-6-2.686-6-6s2.687-6 6-6h9.332c3.313 0 6 2.686 6 6s-2.687 6-6 6z" fill="#fbb53a"/></g><g><path d="m265.511 453.298h-74.838c-3.313 0-6-2.686-6-6s2.687-6 6-6h74.838c3.313 0 6 2.686 6 6s-2.687 6-6 6z" fill="#f79f1d"/></g><g fill="#f79f1d"><path d="m318.27 195.15v8.98c0 6.57-1.55 12.77-4.31 18.27l-76.31.67c-10.8.09-22.39-.04-31.26-6.21-12.74-8.84-15.06-27.95-8.28-41.9 4.11-8.48 10.88-15.29 18.56-20.62.63-.03 1.27-.04 1.91-.04h58.84c22.57 0 40.85 18.29 40.85 40.85z"/><path d="m209.213 413.723c-17.364-.566-15.033-13.803-13.263-17.483.08-.01.17-.01.26-.01h103.58c10.141 0 13.515 10.143 10.453 17.242-8.732 2.464-99.879.289-101.03.251z"/></g></g></svg>