<svg id="Layer_1" enable-background="new 0 0 496 496" height="512" viewBox="0 0 496 496" width="512" xmlns="http://www.w3.org/2000/svg"><g><path d="m496 248c0 17.66-1.84 34.88-5.35 51.5-6.6 31.2-19.06 60.25-36.18 85.91-14.63 6.68-22.45 17.76-25.18 31.81-45.26 48.48-109.73 78.78-181.29 78.78-10.6 0-21.04-.67-31.29-1.96-15.15-11.83-32.8-14.09-51.03-12.03h-.01c-28.23-9.93-54.12-24.83-76.62-43.64-54.43-45.49-89.05-113.88-89.05-190.37 0-136.97 111.03-248 248-248s248 111.03 248 248z" fill="#755377"/><path d="m490.65 299.5c-6.6 31.2-19.06 60.25-36.18 85.91-14.63 6.68-22.45 17.76-25.18 31.81-45.26 48.48-109.73 78.78-181.29 78.78-10.6 0-21.04-.67-31.29-1.96-15.15-11.83-32.8-14.09-51.03-12.03h-.01c-28.23-9.93-54.12-24.83-76.62-43.64 5.23-11.86 8.31-24.51 8.27-37.47-.11-35.141-22.26-65.841-34.39-98.82-12.67-34.47-14.32-72.89-4.65-108.32 11.58-42.43 39.24-79.939 75.3-105.12 36.07-25.17 80.16-38.149 124.15-38.449 26.3-.171 53.53 4.42 75.25 19.25 18.48 12.619 31.51 31.56 44.11 50.05 36.73 53.93 73.51 107.95 105.37 164.899 2.78 4.97 5.53 10.01 8.19 15.11z" fill="#5b3c5c"/><path d="m285.51 289.59c-12.63 20.47-31.35 34.92-52.37 42.44l.21 116 .03 18.729c.01 2.5-.77 4.94-2.22 6.98l-14.45 20.3c-1.02-.13-2.05-.26-3.07-.4-3.98-.55-7.98-1.199-12-1.96-11.91-2.26-23.96-5.449-35.96-9.67h-.01l-1.68-1.67c-3.95-3.92-4.69-10.04-1.79-14.79l5.36-8.76c2.36-3.84 2.36-8.68 0-12.521l-7.14-11.68c-2.64-4.31-2.28-9.82.88-13.77l7.21-8.98c3.63-4.53 3.5-11-.3-15.38l-8.11-9.33c-4.19-4.83-3.86-12.11.76-16.54l10.05-9.63c2.36-2.26 3.69-5.38 3.7-8.64l.02-15.04.11-.09c-11.27-2.721-22.28-7.421-32.54-14.23-45.28-30.07-58.94-91.14-30.85-137.67 24.91-41.271 74.34-58.53 118.25-44.54 7.96 2.54 15.75 6.1 23.17 10.74 9.49 5.93 17.66 13.189 24.43 21.399h.01c27.06 32.793 31.76 80.693 8.3 118.703z" fill="#fbda26"/><path d="m285.51 289.59c-12.63 20.47-31.35 34.92-52.37 42.44l.21 116c-13.9-13.971-31.021-28.294-30.946-48.477.06-16.24-.188-30.992-.764-42.894-.628-12.984-1.732-22.769-5.43-32.289-5.506-14.174-17.86-24.93-23.29-39.13-7.18-18.811-3.21-41.41 9.95-56.65 10.37-12.01 25.22-19.02 37.9-28.57 12.68-9.539 24.03-23.989 21.93-39.72-1.15-8.56-6.28-16.14-13.1-21.55 7.96 2.54 15.75 6.1 23.17 10.74 9.49 5.93 17.66 13.189 24.43 21.399h.01c27.06 32.791 31.76 80.691 8.3 118.701z" fill="#fbc520"/><g><path d="m213.64 356.25v137.39c-3.98-.55-7.98-1.199-12-1.96v-135.43c0-3.31 2.69-6 6-6s6 2.69 6 6z" fill="#fbc520"/></g><path d="m224.559 182.589c-6.24-15.349-23.741-22.731-39.089-16.491s-22.733 23.74-16.492 39.088 23.741 22.732 39.09 16.492c15.347-6.24 22.731-23.741 16.491-39.089z" fill="#5b3c5c"/><path d="m453.26 377.68c-16.92-52.13-40.58-108.6-64.6-157.02-5.78-11.67-17.1-20.67-30.75-25.07-22.6-7.26-44.99-14.78-66.51-22.27-4.78-1.681-9.57-2.471-14.2-2.431-14.91.091-28.23 8.721-34.75 23.65-.19.43-.38.86-.58 1.3-9.13 20.79-18.86 42.271-28.9 63.73-6.15 13.189-7.2 27.85-2.41 40.14 19.77 50.6 41.56 95.3 68.49 142.48 6.46 11.189 21.42 15.729 33.82 13.14 38.25-8 79.73-19.86 116.42-38.11 1.86-1.989 3.68-4.01 5.47-6.06 7.12-8.13 13.7-16.73 19.71-25.75-.02-2.639-.42-5.249-1.21-7.729zm-198.84-140.61c-4.88-12.011-1.42-25.33 7.66-33.54 2.53-2.29 5.5-4.19 8.84-5.55 15.34-6.24 32.85 1.14 39.09 16.489 6.22 15.29-1.1 32.721-16.33 39.021-.06.02-.11.05-.17.069-15.34 6.241-32.85-1.139-39.09-16.489z" fill="#e0e7f9"/><path d="m341.78 190.35c-.81 4.841-2.29 9.53-4.45 14-4.16 8.65-10.51 15.83-18.67 21.28-2.11 1.41-4.33 2.7-6.67 3.87-3.55 1.78-7.36 3.29-11.4 4.5-3.61 1.09-7.42 1.94-11.39 2.55-4.71.72-9.55 1.08-14.48 1.08-6.83 0-13.83-.68-20.86-2.03-2.86-8.239-1.91-16.96 2-24.149 3.01.66 6 1.16 8.94 1.5 12.02 1.43 23.28.33 32.35-3.15 2.75-1.06 5.3-2.33 7.61-3.819 4.81-3.101 8.58-7.12 10.95-12.04 1.51-3.15 2.4-6.551 2.67-10.141.04-.399.06-.8.08-1.21.17-6.979-1.52-14.83-6.78-23.99-8.22-14.31-22.49-26.88-40.2-35.409-14.13-6.801-28.85-10.08-42.02-10.08-16.97 0-35.91 5.939-41.67 21.46-8.85.949-17.55 3.06-25.85 6.26.53-6.5 2.21-12.75 5-18.54 7.73-16.06 24.03-28.47 48.15-32.17 21.05-3.22 44.78.84 66.8 11.45 19.19 9.229 35.29 22.569 46.13 38.06 1.62 2.29 3.11 4.64 4.48 7.021 7.65 13.347 11.83 28.517 9.28 43.697z" fill="#e6dddb"/><path d="m237.55 205.62c-1.28 2.89-2.58 5.8-3.89 8.71-1.95 4.38-3.93 8.78-5.93 13.189-1.79-.76-3.57-1.569-5.33-2.42-3.52-1.689-6.93-3.52-10.22-5.47-17.35-10.3-31.47-24.09-40.38-39.61-.28-.489-.55-.97-.81-1.46 3.71-7.619 10.78-13.029 19.73-14.05.57 1.181 1.21 2.37 1.89 3.561 1.06 1.84 2.21 3.64 3.47 5.42 7.22 10.27 17.6 19.41 30.06 26.5 2.16 1.22 4.39 2.39 6.67 3.49 1.57.76 3.15 1.47 4.74 2.14z" fill="#e6dddb"/><path d="m237.55 205.62c-1.28 2.89-2.58 5.8-3.89 8.71-3.64-.12-7.36-1.21-10.77-2.58-9.18-3.68-17.6-9.23-24.61-16.2-3.4-3.37-6.63-7.479-6.75-12.27-.12-4.71 1.67-7.83 4.55-9.79 7.22 10.27 17.6 19.41 30.06 26.5 2.16 1.22 4.39 2.39 6.67 3.49 1.57.76 3.15 1.47 4.74 2.14z" fill="#f3f1f1"/><g fill="#cdd9f8"><path d="m420.985 380.565c-6.695-21.239-14.401-42.196-22.94-62.497l5.311 1.952c3.11 1.143 6.558-.452 7.702-3.562 1.143-3.11-.451-6.559-3.562-7.702-28.645-10.53-55.65-20.055-97.848-37.574-3.151-1.311-6.764.275-7.936 3.479-15.683 42.87-28.728 73.523-38.724 97.366-1.281 3.057.156 6.57 3.211 7.852 3.056 1.282 6.571-.155 7.852-3.211l2.225-5.298c9.157 20.084 19.351 39.973 30.432 59.279 1.391 2.421 4.267 3.562 6.94 2.753 37.107-11.209 71.343-26.211 104.662-45.865 2.406-1.419 3.514-4.308 2.675-6.972zm-106.236 39.946c-11.835-20.946-22.625-42.543-32.117-64.301 9.592-22.867 19.271-47.434 28.192-71.559 23.868 9.812 48.494 19.336 71.732 27.739 9.553 21.7 18.127 44.28 25.528 67.219-29.808 17.192-60.43 30.61-93.335 40.902z"/><path d="m346.607 328.857c-3.285-.442-6.307 1.854-6.753 5.138l-6.853 50.46c-.488 3.592 2.301 6.809 5.953 6.809 2.955 0 5.529-2.184 5.938-5.193l6.853-50.46c.446-3.285-1.854-6.307-5.138-6.754z"/><path d="m361.602 354.616c-8.025 5.841-9.803 17.121-3.962 25.146 5.855 8.044 17.101 9.815 25.145 3.961 7.465-5.433 9.529-15.51 5.109-23.362-5.295-9.404-17.606-12.066-26.292-5.745zm14.121 19.405c-2.711 1.975-6.452 1.331-8.381-1.32-2.897-3.98-.001-9.528 4.844-9.528 5.797 0 8.225 7.438 3.537 10.848z"/><path d="m302.276 340.078c-8.023 5.841-9.801 17.12-3.961 25.146 3.453 4.744 8.856 7.411 14.592 7.411 13.415 0 21.978-14.348 16.1-26.006-5.117-10.148-17.875-12.997-26.731-6.551zm14.123 19.404c-2.643 1.922-6.406 1.395-8.382-1.32-2.896-3.98 0-9.528 4.844-9.528 5.822 0 8.205 7.451 3.538 10.848z"/></g><path d="m434.76 411.16c-1.79 2.05-3.61 4.07-5.47 6.06-36.69 18.25-78.17 30.11-116.42 38.11-12.4 2.59-27.36-1.95-33.82-13.14-26.93-47.181-48.72-91.881-68.49-142.48-4.79-12.29-3.74-26.95 2.41-40.14 10.04-21.46 19.77-42.94 28.9-63.73 6.6 1.391 13 3.69 18.94 6.96.43.24.85.48 1.27.73-9.08 8.21-12.54 21.529-7.66 33.54 6.24 15.35 23.75 22.729 39.09 16.489.06-.02.11-.05.17-.069.39 5.04.1 10.12-.95 15.12-2.67 12.79-9.71 24.26-13.21 36.85-6.25 22.51-.2 47.771 14.61 65.83 14.81 18.06 37.78 28.82 61.11 29.94 13.76.659 27.49-1.83 41.27-1.91 13.67-.08 28.17 2.64 38.25 11.84z" fill="#cdd9f8"/><path d="m397.16 399.32c-26.69 14.01-54.2 25.231-83.51 34.082-2.67.81-5.55-.333-6.94-2.753-11.08-19.311-21.282-39.199-30.432-59.279l-2.225 5.298c-1.28 3.05-4.792 4.492-7.852 3.211-3.05-1.28-4.491-4.802-3.211-7.852 4.44-10.61 9.481-22.548 15.101-36.309 1.04 6.29 2.88 12.45 5.46 18.29-.31.74-.608 1.471-.918 2.2 9.5 21.76 20.277 43.361 32.117 64.301 17.61-5.51 34.561-11.911 51.091-19.301 10.22-.44 20.43-1.83 30.67-1.89h.649z" fill="#b7c5f5"/><g fill="#f3f1f1"><path d="m318.12 206.98c-3.37 5.539-9.33 8.909-15.18 11.71-6.64 3.18-13.53 5.96-20.77 7.329-4.89.921-10.6.95-14.1-2.6-2.41-2.439-3.53-6.74-3.27-10.47 12.02 1.43 23.28.33 32.35-3.15 2.75-1.06 5.3-2.33 7.61-3.819 4.81-3.101 8.58-7.12 10.95-12.04 1.51-3.15 2.4-6.551 2.67-10.141.85 1.95 1.54 3.97 2.01 6.061 1.29 5.75.8 12.07-2.27 17.12z"/><path d="m328.02 139.63c-20.08-10.03-38.291-23.865-59.6-30.67-21.55-6.88-45.221-6.518-66.93-.18-11.998 3.503-23.39 7.84-34.55 13.51 7.73-16.06 24.03-28.47 48.15-32.17 21.05-3.22 44.78.84 66.8 11.45 19.19 9.23 35.29 22.57 46.13 38.06z"/></g></g></svg>