<svg id="Layer_1" enable-background="new 0 0 496 496" height="512" viewBox="0 0 496 496" width="512" xmlns="http://www.w3.org/2000/svg"><g><path d="m496 248c0 56.14-18.65 107.93-50.11 149.49-22.8 30.15-52.35 54.92-86.39 72.08-74.91 3.49-163.13 7.73-234.44-6.15-19.79-11.31-37.87-25.28-53.75-41.41-44.1-44.76-71.31-106.21-71.31-174.01 0-136.97 111.03-248 248-248s248 111.03 248 248z" fill="#755377"/><path d="m445.89 397.49c-22.8 30.15-52.35 54.92-86.39 72.08-74.91 3.49-163.13 7.73-234.44-6.15-19.79-11.31-37.87-25.28-53.75-41.41 5.7-16.28 9.37-33.27 10.83-50.45 1.73-20.36.35-41.01-4.44-60.9-9.54-39.64-31.44-77.25-29.66-118 1.61-36.91 23.34-71.01 52.55-93.63 29.22-22.62 65.25-34.87 101.54-41.82 50.76-9.71 105.61-9.19 151.42 14.77 45.8 23.95 79.53 75.54 70.93 126.51-4.3 25.43-18.27 48.55-21.67 74.12-4.77 35.96 11.88 71.09 30.04 102.5 4.29 7.43 8.72 14.87 13.04 22.38z" fill="#5b3c5c"/><path d="m254.01 175.24c-.03 4.43-1.63 8.88-4.86 12.44-6.92 7.62-18.83 7.9-26.53 1.07-9.06-8.03-17.27-17.83-26.28-29.38l-9.15 114.12-11.64 145.21c-.77 9.91-9.43 17.32-19.34 16.55-9.91-.78-17.32-9.44-16.55-19.35l20.86-260.31c-11.18 9.78-23.54 19.67-35.86 26.36-10.03 5.43-22.82.74-26.63-10.6-2.9-8.62 1.17-17.98 9.13-22.35 17.34-9.52 44.04-34.65 57.19-47.49 4.75-4.63 7.73-7.66 7.88-7.78 8.42-7.13 21.14-5.39 27.38 3.63.18.27 26.32 44.69 48.05 63.74 4.23 3.71 6.38 8.92 6.35 14.14z" fill="#cdd9f8"/><path d="m254.01 175.24c-12.07.59-24.32-2.53-34.28-9.39-3.12-2.15-6.07-4.65-9.58-6.08-3.51-1.42-10.86-2.77-13.81-.4l-9.15 114.12c-12.56-10.89-18.09-28.15-20.11-44.771-2.87-23.55 0-47.78 8.28-70.02 2.67-7.19 5.92-14.22 7.63-21.71 1.7-7.48 1.73-15.68-1.84-22.47-3.41-6.51-9.7-10.83-16.8-13.01 4.75-4.63 7.73-7.66 7.88-7.78 8.42-7.13 21.14-5.39 27.38 3.63.18.27 26.32 44.69 48.05 63.74 4.23 3.711 6.38 8.921 6.35 14.141z" fill="#e0e7f9"/><path d="m359.5 469.57c-33.52 16.91-71.4 26.43-111.5 26.43-31.57 0-61.67-5.91-89.25-16.56-11.71-4.51-22.97-9.88-33.69-16.02l-2.95-33.58 189.12-16.6 43-3.771z" fill="#fbc520"/><path d="m359.5 469.57c-33.52 16.91-71.4 26.43-111.5 26.43-31.57 0-61.67-5.91-89.25-16.56 39.28 3.31 78.67 5.82 117.99 3.63 14.95-.83 31.34-3.04 41.4-14.13 12.68-13.99 9.36-37.45-3.05-51.69-1.23-1.41-2.51-2.74-3.86-4.01l43-3.771z" fill="#fbb01d"/><path d="m354.23 409.47c.76 8.64-23.03 18.3-58.75 25.32-16.34 3.22-35.18 5.89-55.31 7.66-64.1 5.62-116.96-.02-118.06-12.61-.28-3.21 2.82-6.56 8.67-9.85 4.97-2.81 11.92-5.59 20.46-8.23 14-4.3 32.27-8.21 53.04-11.22 10.11-1.46 20.8-2.71 31.89-3.68 64.1-5.63 116.96.02 118.06 12.61z" fill="#fbda26"/><path d="m354.23 409.47c.76 8.64-23.03 18.3-58.75 25.32-26.03.14-52.21-2.61-78.12-5.68-21.8-2.58-44.12-5.55-63.52-15.83-.87-.46-1.75-.96-2.6-1.52 14-4.3 32.27-8.21 53.04-11.22 10.11-1.46 20.8-2.71 31.89-3.68 64.1-5.63 116.96.02 118.06 12.61z" fill="#fbc520"/><path d="m383.59 350.26-3.1 51.72-.41 6.94c-1.13 18.59-86.02 17.11-108.29 15.77-19.84-1.19-106.77-9.81-105.63-28.59l3.51-58.65 24.84 1.49z" fill="#fbc520"/><path d="m380.49 401.98-.41 6.94c-1.13 18.59-86.02 17.11-108.29 15.77-19.84-1.19-106.77-9.81-105.63-28.59l3.51-58.65 24.84 1.49c-4.63 4.71-8.63 9.98-11.32 16.1-5.32 12.13-4.22 27.86 5.56 36.8 12.426 11.35 131.757 29.651 191.74 10.14z" fill="#fbb01d"/><path d="m383.59 350.26c-.62 10.41-35.71 17.07-82.49 16.66-8.27-.07-16.91-.36-25.8-.89-59.07-3.54-106.36-16.34-105.63-28.58.73-12.25 49.22-19.31 108.29-15.77 24.67 1.48 47.29 4.57 65.21 8.56 24.99 5.57 40.85 12.89 40.42 20.02z" fill="#fbda26"/><path d="m275.76 346.35c-5.446 10.714 6.602 16.182 25.34 20.57-8.27-.07-16.91-.36-25.8-.89-59.07-3.54-106.36-16.34-105.63-28.58.73-12.25 49.22-19.31 108.29-15.77 24.67 1.48 47.29 4.57 65.21 8.56-3.32.62-6.79.85-10.16 1.11-17.43 1.39-34.67 5.05-51.16 10.86-2.37.83-4.95 1.9-6.09 4.14z" fill="#fbb01d"/><path d="m334.32 318.59c-18.44 9.52-53.35 18.67-93.95 23.66-61.24 7.54-112.21 2.78-113.86-10.64l-6.56-53.32-1.35-10.93 221.74-27.29 7.91 64.25c.56 4.52-4.56 9.44-13.93 14.27z" fill="#fbc520"/><path d="m334.32 318.59c-.09-7.93.88-16.19-1.97-23.51-5.23-13.41-21.741-18.369-36.11-17.55-9.368.534-127.07 29.513-176.29.76l-1.35-10.93 221.74-27.29 7.91 64.25c.56 4.52-4.56 9.44-13.93 14.27z" fill="#fbb01d"/><path d="m232.46 278.01c-.49.06-.98.12-1.46.17-60.58 7.28-110.76 2.49-112.4-10.82-1.33-10.73 29.28-23.73 72.9-32.37 10.94-2.17 22.7-4.06 34.98-5.57 61.23-7.53 112.21-2.77 113.86 10.65 1.65 13.41-46.65 30.4-107.88 37.94z" fill="#fbda26"/><path d="m232.46 278.01c47.349-24.297 8.521-38.787-40.96-43.02 10.94-2.17 22.7-4.06 34.98-5.57 61.23-7.53 112.21-2.77 113.86 10.65 1.65 13.41-46.65 30.4-107.88 37.94z" fill="#fbc520"/><path d="m389.6 188.28c-4.27 16.37-12.56 30.49-23.33 41.33-18.93 19.08-45.52 28.03-71.35 21.29-.86-.22-22.9-5.93-23.74-6.19-38.94-11.76-39.83-50.49-28.31-94.68 6.41-24.63 15.98-45.8 30.25-58.15 10.7-9.27 24.05-13.58 40.68-10.66 1.83.32 21.92 5.71 23.74 6.19 40.52 10.56 63.82 55.72 52.06 100.87z" fill="#fbc520"/><path d="m378.04 184.87c-4.32 14.22-10.64 28.09-11.67 42.92-.04.61-.08 1.21-.1 1.82-18.93 19.08-45.52 28.03-71.35 21.29-.86-.22-22.9-5.93-23.74-6.19-38.94-11.76-39.83-50.49-28.31-94.68 6.41-24.63 15.98-45.8 30.25-58.15 8.54 3.08 17.09 6.12 25.68 8.99l34.75 11.63c17.15 5.74 35.92 12.82 44.21 28.89 6.81 13.22 4.61 29.25.28 43.48z" fill="#fbb01d"/><path d="m365.85 182.09c-.01.05-.03.1-.04.15-11.81 45.06-54.15 73.03-94.63 62.47-40.52-10.56-63.82-55.72-52.06-100.87 11.38-43.65 51.37-71.29 90.63-63.54 1.35.26 2.7.57 4.05.92 40.52 10.56 63.82 55.72 52.05 100.87z" fill="#fbda26"/><g fill="#fbc520"><path d="m319.101 123.163-7.706-2.232 3.011-10.013c.955-3.173-.844-6.52-4.018-7.474-3.171-.952-6.52.845-7.474 4.019l-3.239 10.772c-10.961-.506-21.853 6.583-25.435 18.497-4.098 13.627 3.31 27.971 16.506 31.976 16.588 5.036 8.671 31.503-7.92 26.479l-14.611-4.554c-3.16-.981-6.527.779-7.513 3.943-.986 3.163.779 6.527 3.943 7.514l8.974 2.797-3.046 10.128c-1.158 3.849 1.729 7.729 5.748 7.729 2.579 0 4.962-1.677 5.743-4.274l3.244-10.787c4.629.213 8.943-.86 12.802-2.929 10.186-5.458 12.434-15.164 12.628-15.552 4.098-13.626-3.307-27.971-16.506-31.977-16.596-5.038-8.667-31.509 7.93-26.477l13.601 3.94c3.181.925 6.511-.911 7.433-4.093.92-3.183-.912-6.51-4.095-7.432z"/><path d="m360.546 180.857c-10.962 41.825-50.263 67.787-87.837 57.985-37.611-9.802-59.238-51.72-48.323-93.629 10.563-40.516 47.682-66.172 84.124-58.979-62.557 6.331-79.135 64.375-65.468 105.404 13.722 41.193 73.646 62.131 117.504-10.781z"/></g></g></svg>