<svg id="Layer_1" enable-background="new 0 0 496 496" height="512" viewBox="0 0 496 496" width="512" xmlns="http://www.w3.org/2000/svg"><g><path d="m496 248c0 29.74-5.24 58.27-14.85 84.7-10.57 29.09-26.43 55.65-46.43 78.5-36.71 11.78-53.16 30.07-64.73 52.76-36.02 20.4-77.65 32.04-121.99 32.04s-85.97-11.64-121.99-32.04c-16.98-25.34-40.88-46.85-71.42-60.73-18.48-22.99-32.95-49.35-42.33-78.01-7.96-24.3-12.26-50.25-12.26-77.22 0-136.97 111.03-248 248-248s248 111.03 248 248z" fill="#755377"/><path d="m481.15 332.7c-10.57 29.09-26.43 55.65-46.43 78.5-36.71 11.78-53.16 30.07-64.73 52.76-36.02 20.4-77.65 32.04-121.99 32.04s-85.97-11.64-121.99-32.04c-16.98-25.34-40.88-46.85-71.42-60.73-18.48-22.99-32.95-49.35-42.33-78.01 1.09-3.84 2.15-7.69 3.18-11.55 7.02-26.22 12.65-52.85 15.98-79.81 3.25-26.37 4.46-53.67 15.59-77.8 13.82-29.99 41.81-51.7 72.36-64.24s63.78-16.9 96.65-20.02c35.5-3.37 71.51-5.42 106.63.73 35.12 6.16 69.63 21.21 93.65 47.56 31.38 34.43 41.03 82.84 49.44 128.65z" fill="#5b3c5c"/><path d="m438.76 307.56c.04 8.34 0 16.67-.14 25.01-.27 16.46-.88 32.92-1.84 49.36-.57 9.76-1.25 19.52-2.06 29.27-6.44 7.39-13.34 14.39-20.63 20.97-2.76 2.49-5.57 4.91-8.44 7.28h-315.3c-12.33-10.16-23.66-21.49-33.82-33.82-2.01-24.61-3.22-45.55-3.58-65.91v-.17c-.56-31.06.85-60.77 4.3-100.11 1.11-12.39 1.09-49.63 53.1-52.4 87.9-4.68 165.83-4.58 238.87-2.27 19.46.62 38.58 1.39 57.44 2.27 13.97.66 26.46 10.04 27.57 22.44 2.86 32.64 4.38 65.35 4.53 98.08z" fill="#b75236"/><path d="m438.76 307.56c-4.02-4.47-7.25-9.63-9.36-15.34-5.27-14.26-3.71-29.979-3.86-45.18-.16-15.21-2.76-31.76-13.9-42.1-8.89-8.25-21.44-10.91-33.29-13.46-9.74-2.09-19.46-4.33-29.13-6.71 19.46.62 38.58 1.39 57.44 2.27 13.97.66 26.46 10.04 27.57 22.44 2.86 32.64 4.38 65.35 4.53 98.08z" fill="#d1623e"/><path d="m420.15 190.37-16.31 20.19c-40.31 49.95-70.27 87.88-106.67 144.23-5.9 9.13-19.28 10.58-29.28 3.15l-74.2-55.12c-9.91-7.37-12.45-20.47-5.58-28.78 37.57-45.39 64.35-80.93 93.53-122.81 9.24-13.26 18.72-27.16 28.86-42.21 6-8.9 19.22-10.21 29.1-2.88l74.85 55.61c9.84 7.31 12.42 20.3 5.7 28.62z" fill="#7ad57c"/><path d="m403.84 210.56c-40.31 49.95-70.27 87.88-106.67 144.23-5.9 9.13-19.28 10.58-29.28 3.15l-74.2-55.12c-9.91-7.37-12.45-20.47-5.58-28.78 37.57-45.39 64.35-80.93 93.53-122.81 4.61.3 9.21.81 13.78 1.55 9.93 1.59 19.68 4.2 29.07 7.8 7.75 2.98 15.96 7.36 18.74 15.2 1.85 5.22.91 11.12 2.85 16.31 2.24 5.99 8.03 10.06 14.13 11.97s12.59 2 18.98 2.31c8.33.4 16.91 1.3 24.65 4.19z" fill="#58cb5d"/><path d="m259.89 313.82-21.552-16.012c6.681-8.303 3.012-21.992-8.086-30.249 33.825-42.137 56.3-73.016 86.224-116.252 11.084 8.227 25.213 7.805 31.259-.943l21.998 16.343c-6.592 8.319-2.906 21.943 8.151 30.164-33.648 42.519-57.113 72.055-86.624 115.847-11.169-8.28-25.398-7.792-31.37 1.102z" fill="#e0e7f9"/><path d="m370.73 205.91c-29.93 37.83-52.101 66.178-79.471 106.808-11.17-8.28-25.399-7.788-31.369 1.102l-21.552-16.012c6.68-8.31 3.014-21.989-8.086-30.249 32.42-40.38 54.398-70.419 82.529-110.899 3.95 1.14 7.87 2.44 11.71 3.92 7.75 2.98 15.96 7.36 18.74 15.2 1.85 5.22.91 11.12 2.85 16.31 2.24 5.99 8.03 10.06 14.13 11.97 3.409 1.07 6.949 1.57 10.519 1.85z" fill="#cdd9f8"/><path d="m334.32 169.76-11.54 34.09c-18.94 56.19-33.14 100.69-47.04 162.69-2.38 10.61-14.44 16.59-26.38 13.08l-88.69-26.09c-11.84-3.48-18.75-14.9-15.17-25.07 25.76-73.18 39.87-123.87 57.81-197.14 2.56-10.43 14.51-16.24 26.31-12.77l15.76 4.64 73.7 21.68c11.76 3.46 18.67 14.75 15.24 24.89z" fill="#58cb5d"/><path d="m322.78 203.85c-18.94 56.19-33.14 100.69-47.04 162.69-2.38 10.61-14.44 16.59-26.38 13.08l-88.69-26.09c-11.84-3.48-18.75-14.9-15.17-25.07 25.76-73.18 39.87-123.87 57.81-197.14 2.56-10.43 14.51-16.24 26.31-12.77l15.76 4.64c1.33 5 1.01 10.5-.08 15.62-1.47 6.94-4.22 13.55-5.79 20.46-1.56 6.91-1.85 14.49 1.42 20.78 4.4 8.47 14.05 12.66 23.17 15.49 18.13 5.63 37.13 8.44 56.11 8.31.84-.01 1.7-.01 2.57 0z" fill="#44ac3a"/><path d="m226.599 340.981-25.76-7.579c3.4-10.101-4.771-21.678-18.039-25.59 17.179-51.23 27.594-87.97 40.732-138.883 13.244 3.889 26.359-1.39 29.009-11.689l26.29 7.734c-3.311 10.084 4.857 21.596 18.073 25.489-16.881 51.528-28.695 87.354-41.253 138.646-13.342-3.911-26.522 1.463-29.052 11.872z" fill="#e0e7f9"/><path d="m293.11 202.03c-14.9 45.54-25.859 79.708-37.459 127.078-13.34-3.91-26.522 1.463-29.052 11.873l-25.76-7.579c3.4-10.1-4.769-21.671-18.039-25.59 17.18-51.23 27.602-87.973 40.732-138.883 5.18 1.52 10.338 1.641 14.858.611.11 3.67.85 7.26 2.54 10.51 4.4 8.47 14.05 12.66 23.17 15.49 9.48 2.94 19.19 5.12 29.01 6.49z" fill="#cdd9f8"/><path d="m243.24 346.2-90.2 20.22c-12.05 2.7-23.63-3.93-25.43-14.56-12.99-76.49-25.24-127.66-45.12-200.43-2.82-10.36 4.81-21.24 16.82-23.93l18.48-4.14 72.5-16.26c11.97-2.68 23.49 3.84 25.41 14.37 5.38 29.58 10.02 55.37 14.92 80.07 7.78 39.26 16.21 75.77 29.35 120.42 3.06 10.43-4.58 21.51-16.73 24.24z" fill="#7ad57c"/><path d="m243.24 346.2-90.2 20.22c-12.05 2.7-23.63-3.93-25.43-14.56-12.99-76.49-25.24-127.66-45.12-200.43-2.82-10.36 4.81-21.24 16.82-23.93l18.48-4.14c10.92 3.36 20.69 9.82 26.87 19.36 5.59 8.63 7.87 18.98 12.63 28.1 8.89 17.03 26.86 28.97 46.01 30.57 8.92.74 18.44-.47 27.32.15 7.78 39.26 16.21 75.77 29.35 120.42 3.06 10.43-4.58 21.51-16.73 24.24z" fill="#58cb5d"/><path d="m204.592 323.458-26.201 5.872c-1.928-10.482-14.69-16.639-28.19-13.622-9.839-53.131-18.556-90.315-31.773-141.207 13.468-3.026 22.372-14.002 19.691-24.292l26.739-5.997c1.998 10.424 14.726 16.526 28.171 13.517 10.243 53.246 17.295 90.3 31.203 141.243-13.563 3.054-22.479 14.156-19.64 24.486z" fill="#e0e7f9"/><path d="m204.592 323.458-26.201 5.872c-1.93-10.48-14.69-16.642-28.19-13.622-9.84-53.13-18.563-90.317-31.773-141.207 13.46-3.02 22.371-14.002 19.691-24.292l9.541-2.139c3.6 7.36 5.82 15.45 9.63 22.75 8.61 16.49 25.73 28.21 44.19 30.39 6.53 32.73 12.932 61.782 22.752 97.762-13.56 3.06-22.481 14.156-19.64 24.486z" fill="#cdd9f8"/><path d="m416.36 394.88c-.47 10.26-1.06 20.51-1.79 30.76-.15 2.17-.31 4.35-.48 6.53-2.76 2.49-5.57 4.91-8.44 7.28-11.12 9.16-23.04 17.38-35.66 24.51h-243.98c-12.62-7.13-24.54-15.35-35.66-24.51-12.33-10.16-23.66-21.49-33.82-33.82-.65-.8-1.3-1.6-1.94-2.4-1.11-21.16-1.66-42.33-1.64-63.51v-.17c.03-33.39 1.46-66.79 4.3-100.11 1.05-12.1 12.85-21.24 26.06-21.9 9.7-.49 19.4-.93 29.1-1.33 97.63-4.08 194.2-3.95 274.81 1.33 13.19.86 25.01 9.8 26.07 21.9 2.33 27.41 3.71 54.89 4.14 82.37.39 24.36.03 48.73-1.07 73.07z" fill="#e87247"/><path d="m416.36 394.88c-3.54-19.13-11.59-25.1-51.26-24.31-9.57.19-19.39.1-28.33-3.33-8.93-3.43-16.9-10.91-18.25-20.39-.7-4.89.49-10.1 3.55-13.99 3.21-4.09 8.12-6.44 12.96-8.36 5.84-2.33 11.88-4.26 17.33-7.4 3.43-1.98 6.58-4.48 9.06-7.59 2.08-2.59 2.95-4.31 6.48-4.13 8.73.42 18.33 2.91 26.57 5.72 8.01 2.73 15.51 6.66 22.96 10.71.39 24.36.03 48.73-1.07 73.07z" fill="#d1623e"/><path d="m449.24 350.04c-.857 2.513-1.084 4.565-1.304 7.045-.31 3.39-3.981 5.219-7.851 5.609-26.14 2.67-58.97 2.653-87.83-.567-15.08-1.67-12.277-65.312-.606-66.702 4.31-.51 8.745-1.021 13.261-1.975 26.29-2.05 55.25-1.42 76.09 1.3 3.86.5 7.36 2.73 7.67 6.12 1.46 16.36 1.65 32.79.57 49.17z" fill="#d1623e"/><path d="m449.24 350.04c-.16 2.48-.35 4.96-.57 7.44-.31 3.39-3.8 5.73-7.67 6.12-26.14 2.67-60.52 3.22-89.38 0-15.08-1.67-11.67-67.46 0-68.85 4.31-.51 8.76-.95 13.29-1.3-.27 2.32.06 4.65 1.15 6.88 1.91 3.92 5.78 6.59 7.86 10.42 4.53 8.37-.65 19.39 3.39 28.01 2.37 5.05 7.59 8.3 13.02 9.64 5.42 1.33 11.09 1.03 16.66.7 8.249-.481 30.653-2.03 42.25.94z" fill="#b75236"/><path d="m365.24 329.17c0 6.3-2.47 12.01-6.49 16.24-4.29 4.52-10.36 7.33-17.08 7.33-13.01 0-23.56-10.55-23.56-23.57 0-5.84 2.13-11.18 5.65-15.3 4.32-5.06 10.74-8.26 17.91-8.26 13.02 0 23.57 10.55 23.57 23.56z" fill="#fbda26"/><path d="m414.57 425.64c-.15 2.17-.31 4.35-.48 6.53-2.76 2.49-5.57 4.91-8.44 7.28-11.12 9.16-23.04 17.38-35.66 24.51h-243.98c-12.62-7.13-24.54-15.35-35.66-24.51-12.33-10.16-23.66-21.49-33.82-33.82-.65-.8-1.3-1.6-1.94-2.4-1.11-21.16-1.66-42.33-1.64-63.51v-.17c.03-33.39 1.46-66.79 4.3-100.11 1.05-12.1 12.85-21.24 26.06-21.9 9.7-.49 19.4-.93 29.1-1.33-1.62 2.38-3.05 4.88-4.3 7.45-9.93 20.48-10 44.16-9.87 66.92l.58 102.35c.06 11.15.57 23.47 8.26 31.53 8.55 8.97 22.52 9.21 34.9 8.83l183.66-5.57c21.28-.65 60.77.74 88.93-2.08z" fill="#d1623e"/><path d="m358.75 345.41c-4.29 4.52-10.36 7.33-17.08 7.33-13.01 0-23.56-10.55-23.56-23.57 0-5.84 2.13-11.18 5.65-15.3 1.28 2.38 3.29 4.38 5.73 5.55 5.19 2.49 11.81 1.44 16.41 4.89 5.06 3.81 5.39 11.22 8.69 16.62 1.08 1.77 2.51 3.28 4.16 4.48z" fill="#fbc520"/></g></svg>