<svg id="Layer_1" enable-background="new 0 0 512 512" height="512" viewBox="0 0 512 512" width="512" xmlns="http://www.w3.org/2000/svg"><g><path d="m461.234 400.829c25.14-38.475 39.768-84.441 39.768-133.831 0-135.311-109.691-245.002-245.002-245.002s-245.002 109.691-245.002 245.002c0 49.39 14.628 95.357 39.768 133.831z" fill="#49b1f7"/><path d="m352.751 142.719c-22.134-70.318-96.091-69.397-96.091-69.397s-73.958-.921-96.091 69.397c-16.6 52.739-13.405 106.109-20.516 148.12-4.385 25.902 13.656 50.334 39.659 54.07 18.533 2.663 43.487 4.572 76.948 4.572s58.416-1.909 76.948-4.572c26.004-3.736 44.044-28.168 39.659-54.07-7.112-42.011-3.916-95.382-20.516-148.12z" fill="#56415e"/><path d="m373.267 290.839c-1.642-9.698-2.732-20.006-3.645-30.767-39.598 13.678-46.101-23-46.101-23l-150.39-120.724c-5.024 7.435-9.344 16.145-12.563 26.371-16.6 52.739-13.405 106.109-20.516 148.12-4.385 25.902 13.656 50.334 39.659 54.07 18.533 2.663 43.487 4.572 76.948 4.572s58.416-1.909 76.948-4.572c26.005-3.736 44.045-28.168 39.66-54.07z" fill="#45304c"/><path d="m452.515 375.145c-15.306-30.612-42.169-39.159-54.409-41.51 0 0-10.391-1.898-24.483-5.654-6.037 15.391-12.846 29.643-20.429 42.619-16.955 29.017-42.632 51.585-74.255 65.266-14.161 6.126-30.402 6.126-44.566 0-20.485-8.863-38.454-21.474-53.194-37.132-.402.193-.795.395-1.201.584-3.852-.101-33.789-.312-50.771 16.019-7.539 7.251-11.361 16.717-11.361 28.138v25.87c39.329 26.91 86.9 42.655 138.154 42.655 85.921 0 161.499-44.238 205.234-111.171-2.285-9.862-5.16-18.566-8.719-25.684z" fill="#ffb332"/><path d="m119.346 443.475c0-45.025 60.941-42.646 60.941-42.646.663-.307 1.311-.628 1.963-.945-8.463-8.81-15.893-18.606-22.132-29.284-7.637-13.07-14.488-27.43-20.555-42.936-14.693 3.967-25.669 5.971-25.669 5.971-12.24 2.351-39.103 10.898-54.409 41.51-3.559 7.118-6.434 15.822-8.719 25.684 17.977 27.512 41.337 51.184 68.58 69.531 0-7.503 0-16.397 0-26.885z" fill="#ff9100"/><path d="m297.652 279.675c0-5.788 0-4.054 0-7.802-10.092 9.022-27.399 20.517-41.652 20.862-.812-.02-1.635-.08-2.464-.169-1.692 8.67-5.017 22.254-11.195 37.083-9.583 23.004-28.175 53.729-62.362 69.67-.25-.007-.616-.013-1.076-.016 15.147 16.802 33.925 30.256 55.471 39.578 14.164 6.126 30.405 6.126 44.566 0 31.623-13.681 57.3-36.249 74.255-65.266 8.032-13.744 15.206-28.902 21.502-45.347-29.683-7.819-77.045-24.127-77.045-48.593z" fill="#cc8c60"/><path d="m255.049 292.69c-14.065-.813-30.831-11.993-40.701-20.816v7.802c0 24.143-46.115 40.339-75.855 48.275 6.324 16.561 13.54 31.827 21.625 45.664 5.755 9.85 12.538 18.935 20.194 27.203 53.595-24.795 70.187-84.646 74.737-108.128z" fill="#ba7d54"/><path d="m175.841 192.03s-5.01-31.704.76-50.586c-5.235-3.49-15.35-5.194-19.899-.746-9.314 9.105-2.49 22.855.776 31.541 1.003 2.667 1.649 5.364 1.942 8.066.635 5.872 3.819 14.466 17.019 14.263-.199-.845-.403-1.678-.598-2.538z" fill="#ba7d54"/><path d="m356.614 140.699c-4.549-4.447-14.664-2.744-19.899.746 5.77 18.881.76 50.586.76 50.586-.195.86-.399 1.693-.599 2.539 13.201.203 16.384-8.391 17.019-14.263.293-2.702.939-5.4 1.942-8.066 3.267-8.687 10.091-22.437.777-31.542z" fill="#cc8c60"/><path d="m332.373 131.622c-1.902-2.144-2.948-4.648-3.025-7.242-.294-9.872-2.787-34.036-19.534-45.187-11.878-7.91-28.577-7.828-49.633.247-1.95.748-4.068.849-6.066.313-13.149 12.465-15.29 33.668-15.564 42.856-.079 2.671-1.156 5.248-3.115 7.454-10.794 12.163-8.43 47.699-5.912 62.329 5.577 24.616 13.655 46.08 24.008 63.798 7.224 12.363 17.013 22.826 28.788 30.92 13.461-8.196 24.553-19.4 32.473-32.954 10.056-17.208 17.904-38.061 23.334-62.023 2.349-14.942 4.852-48.559-5.754-60.511z" fill="#dba783"/><g><path d="m254.416 254.155c-10.057-17.213-17.906-38.066-23.324-61.98-2.447-14.213-4.743-48.737 5.743-60.553 1.903-2.144 2.949-4.647 3.026-7.242.288-9.658 2.689-32.986 18.471-44.436-1.736.301-3.529.135-5.198-.505-21.055-8.072-37.754-8.155-49.631-.248-16.746 11.151-19.24 35.316-19.534 45.189-.077 2.595-1.123 5.098-3.026 7.242-10.486 11.817-8.19 46.34-5.743 60.553 5.418 23.915 13.266 44.767 23.324 61.98 10.21 17.474 25.673 31.064 44.716 39.303 8.53 3.689 18.309 3.689 26.837 0 5.115-2.213 9.962-4.824 14.528-7.781-12.434-8.051-22.721-18.742-30.189-31.522z" fill="#cc8c60"/></g><path d="m118.862 200.275c-2.481-39.21-51.666-42.984-82.752-41.411-16.07 32.616-25.112 69.317-25.112 108.135 0 32.277 6.25 63.091 17.596 91.308 6.147-15.965 16.348-32.585 33.249-42.316 40.06-23.067 61.019-52.491 57.019-115.716z" fill="#73c3f9"/><path d="m393.138 200.275c2.481-39.21 51.666-42.984 82.752-41.411 16.07 32.616 25.112 69.317 25.112 108.135 0 32.277-6.25 63.091-17.596 91.308-6.147-15.965-16.348-32.585-33.249-42.316-40.06-23.067-61.019-52.491-57.019-115.716z" fill="#73c3f9"/><path d="m437.608 431.418c-4.848-20.04-17.209-31.614-27.207-37.935-6.251-3.952-14.401.497-14.401 7.892v66.688c15.223-10.62 29.18-22.926 41.608-36.645z" fill="#ff9100"/><g><path d="m256 90.717c-15.722 0-30.942.337-45.396.965-1.098 5.68-.525 13.01 4.803 21.342-4.393 1.598-14.989 6.319-16.415 15.064-1.167 7.156 4.147 15.038 15.778 23.45 13.203.849 27.011 1.321 41.23 1.321 94.038 0 170.27-20.544 170.27-35.344 0-14.801-76.232-26.798-170.27-26.798z" fill="#deeeff"/><path d="m85.73 117.514c0 12.718 56.296 29.678 131.809 34.198-38.889-26.734.148-37.91.148-37.91-6.189-8.797-6.813-16.432-5.629-22.183-72.738 3.05-126.328 13.487-126.328 25.895z" fill="#d3dcfb"/><path d="m274.702 0h-22.788c-3.108 2.371-10.051 8.26-17.064 18.234-8.441 12.006-18.495 32.409-18.622 61.562-.324.378-.81.986-1.367 1.791 13.322.478 27.16.735 41.376.735 38.599 0 74.492-1.858 104.469-5.045-8.701-44.59-44.191-77.277-86.004-77.277z" fill="#d3dcfb"/><path d="m147.261 76.783c20.507 2.318 43.991 3.996 69.334 4.865.646-.842 1.092-1.294 1.092-1.294 0-56.277 36.715-80.354 36.715-80.354h-21.232c-41.658 0-77.041 32.446-85.909 76.783z" fill="#bec8f7"/><path d="m362.343 88.73c-.389-4.452-1.053-8.805-1.949-13.051-29.461 3.36-65.429 5.337-104.268 5.337-13.857 0-27.336-.257-40.298-.733-2.774 3.471-11.053 16.117-.421 32.741-.466.17-1.013.382-1.6.622 13.496.555 27.624.855 42.192.855 38.91 0 74.764-2.105 103.438-5.644 2.009-.248 3.498-2.023 3.431-4.093z" fill="#bec8f7"/><path d="m217.687 80.352c-25.865-.904-49.674-2.697-70.11-5.175-.95 4.404-1.643 8.927-2.047 13.553l-.508 15.511c-.067 2.059 1.407 3.827 3.402 4.09 19.854 2.611 43.44 4.511 69.261 5.469-13.777-19.585.002-33.446.002-33.446z" fill="#a8b7ef"/></g></g></svg>