<svg id="Layer_1" enable-background="new 0 0 512 512" height="512" viewBox="0 0 512 512" width="512" xmlns="http://www.w3.org/2000/svg"><g><path d="m461.422 400.543c25.026-38.416 39.579-84.278 39.579-133.545 0-135.311-109.691-245.002-245.002-245.002s-245.002 109.691-245.002 245.002c0 49.267 14.554 95.129 39.58 133.545z" fill="#45304c"/><path d="m333.608 292.324c-15.269-10.254-40.603-21.722-77.601-21.722-37.34 0-62.805 11.686-78.031 22.015v.476c2.63-1.06 5.675-1.02 8.378.355 12.703 6.461 38.865 17.469 69.653 17.469s56.936-10.993 69.63-17.445c2.565-1.304 5.437-1.4 7.971-.501z" fill="#bec8f7"/><path d="m256.007 311.351c21.343 0 40.466-5.218 54.536-10.616-7.809-6.233-12.846-13.34-12.846-21.317 0-5.795 0-4.059 0-7.811-10.103 9.032-27.429 20.54-41.698 20.886-14.269-.346-31.595-11.853-41.698-20.886v7.811c0 7.972-5.032 15.077-12.834 21.307 14.077 5.404 33.202 10.626 54.54 10.626z" fill="#f9c98a"/><path d="m398.263 333.437s-25.228-4.604-50.413-13.681c-.297.902-.73 1.768-1.33 2.556-9.918 13.015-38.593 43.285-90.513 43.285-5.77 0-11.237-.392-16.439-1.075.089.155.17.31.261.465-6.41.281-23.67 1.413-40.749 5.766-28.873 7.36-44.135 20.565-44.135 38.185v81.301c30.806 13.973 65.014 21.76 101.045 21.761h.02c52.082-.002 100.36-16.263 140.052-43.975 0-17.965 0-36.525 0-52.148 0-31.519 21.382-54.458 36.259-66.608-12.793-10.393-26.334-14.349-34.058-15.832z" fill="#9589e8"/><path d="m165.48 322.29c-.596-.782-1.028-1.642-1.324-2.536-25.187 9.079-50.419 13.683-50.419 13.683-7.724 1.483-21.265 5.439-34.058 15.831 14.878 12.151 36.259 35.09 36.259 66.608v52.148c12.678 8.851 26.234 16.527 40.507 22.885 0-17.919 0-52.806 0-81.973 0-41.229 86.01-42.539 86.01-42.539-.353-.549-.691-1.093-1.015-1.635-42.782-4.933-67.01-30.725-75.96-42.472z" fill="#7e6dd1"/><path d="m276.302 363.336v85.191c0 7.687 6.29 13.977 13.977 13.977h25.624c7.687 0 13.977-6.29 13.977-13.977v-109.159c-12.255 9.989-29.916 20.125-53.578 23.968z" fill="#d3dcfb"/><path d="m276.302 448.527c0 7.687 6.29 13.977 13.977 13.977h18.218c-4.994-5.307-5.406-11.503-5.406-11.503s0-31 0-53c0-13.938 15.456-17.236 26.788-17.783v-40.848c-12.255 9.989-29.915 20.124-53.577 23.967z" fill="#bec8f7"/><path d="m348.329 311.811-9.394-15.578c-2.749-4.558-8.552-6.248-13.297-3.836-12.695 6.452-38.842 17.445-69.63 17.445-.919 0-1.834-.011-2.745-.03-4.566 3.101-15.553 11.784-18.922 25.479-2.339 9.513-.492 19.491 5.488 29.696-1.322.058-3.112.153-5.261.304 6.663 1.149 13.795 1.814 21.439 1.814 52.67 0 81.731-30.781 91.712-43.879 2.53-3.318 2.764-7.842.61-11.415z" fill="#deeeff"/><path d="m256.008 309.842c-30.788 0-56.95-11.008-69.653-17.469-4.748-2.414-10.554-.723-13.302 3.84l-9.384 15.581c-2.151 3.572-1.916 8.093.611 11.41 9.089 11.929 34.015 38.527 78.172 43.188-22.981-35.764 13.556-56.55 13.556-56.55z" fill="#d3dcfb"/><path d="m80.69 348.465c-7.86 6.161-15.505 14.692-21.423 26.528-3.543 7.087-6.408 15.745-8.69 25.55 17.693 27.16 40.621 50.593 67.361 68.866 0-18.394 0-37.507 0-53.533 0-32.22-22.349-55.482-37.248-67.411z" fill="#9589e8"/><path d="m461.422 400.543c-2.282-9.805-5.146-18.463-8.69-25.55-5.918-11.836-13.563-20.367-21.423-26.528-14.899 11.929-37.248 35.191-37.248 67.412v53.532c26.74-18.273 49.668-41.706 67.361-68.866z" fill="#b5b0f7"/><path d="m139.766 117.744c-6.375 21.949-9.711 47.422-8.11 76.967.738 13.574 2.571 26.853 6.124 40.277 1.339 5.062 4.802 9.241 9.417 11.305.172.077.345.154.518.231 25.846 11.49 53.897 17.178 82.182 17.178h52.209c28.284 0 56.335-5.688 82.18-17.177.173-.077.346-.154.52-.232 4.615-2.065 8.077-6.243 9.417-11.305 3.545-13.396 5.391-26.726 6.123-40.277 1.601-29.546-1.735-55.018-8.11-76.967z" fill="#eab049"/><path d="m374.222 234.988c1.889-7.138 3.283-14.258 4.296-21.401-43.008 12.165-48.638-22.863-48.638-22.863l-98.375-72.979h-91.739c-6.375 21.949-9.711 47.422-8.11 76.967.738 13.575 2.571 26.853 6.124 40.277 1.339 5.062 4.802 9.241 9.417 11.305.172.077.345.154.518.231 25.846 11.49 53.897 17.178 82.182 17.178h52.209c28.284 0 56.335-5.688 82.18-17.177.174-.077.346-.154.52-.232 4.614-2.066 8.076-6.244 9.416-11.306z" fill="#ea9939"/><path d="m175.664 141.709c-.659.113-1.323.221-1.992.324-13.802 2.123-22.001 16.54-17.05 29.597.03.078.059.156.088.233 1.004 2.67 1.651 5.37 1.945 8.075.636 5.878 3.823 14.482 17.038 14.279-.2-.847-.405-1.681-.6-2.542 0 .001-4.891-30.994.571-49.966z" fill="#f9c98a"/><path d="m336.336 141.709c5.462 18.971.571 49.966.571 49.966-.195.861-.4 1.695-.6 2.542 13.215.203 16.402-8.401 17.038-14.279.293-2.705.94-5.406 1.944-8.075.029-.077.058-.155.088-.233 4.951-13.057-3.248-27.474-17.049-29.598-.669-.102-1.333-.21-1.992-.323z" fill="#ffd9a1"/><path d="m336.962 141.82c-22.835-3.782-39.907-13.407-52.375-24.076h-13.738c-12.489 9.324-29.037 17.475-50.588 20.845-4.443 14.954-2.56 37.761-.579 48.544 5.623 23.243 13.766 43.511 24.201 60.24 9.831 15.761 24.376 28.244 42.208 36.362 11.402-7.844 20.883-17.95 27.9-29.866 10.147-17.232 18.065-38.107 23.532-62.049 1.928-11.106 3.759-34.598-.561-50z" fill="#fce6ca"/><path d="m245.099 246.255c-10.147-16.268-18.066-35.976-23.533-58.578-1.926-10.486-3.757-32.664.563-47.205 22.834-3.571 39.906-12.657 52.374-22.729h-47.09c-12.467 10.669-29.54 20.294-52.374 24.076-4.32 15.402-2.489 38.894-.563 50.001 5.467 23.941 13.386 44.817 23.533 62.049 10.301 17.493 25.902 31.098 45.115 39.346 4.097 1.758 8.48 2.669 12.876 2.753 4.396-.084 8.778-.995 12.875-2.753 6.839-2.935 13.21-6.562 19.057-10.789-18.162-7.861-32.944-20.318-42.833-36.171z" fill="#ffd9a1"/><path d="m256.006 93.287c-16.167 0-31.819.347-46.682.992-1.13 5.841-.54 13.379 4.939 21.946-4.518 1.644-15.413 6.498-16.88 15.49-1.2 7.358 4.264 15.464 16.225 24.114 13.577.873 27.776 1.358 42.397 1.358 96.701 0 175.093-21.126 175.093-36.345.001-15.218-78.391-27.555-175.092-27.555z" fill="#deeeff"/><path d="m80.913 120.842c0 13.078 57.891 30.519 135.542 35.166-39.99-27.491.152-38.983.152-38.983-6.365-9.046-7.006-16.898-5.788-22.811-74.798 3.137-129.906 13.869-129.906 26.628z" fill="#d3dcfb"/><path d="m275.238 0h-23.433c-3.196 2.438-10.335 8.494-17.547 18.75-8.681 12.346-19.018 33.327-19.149 63.306-.333.389-.833 1.014-1.405 1.841 13.7.491 27.929.756 42.548.756 39.692 0 76.601-1.911 107.428-5.188-8.95-45.852-45.445-79.465-88.442-79.465z" fill="#d3dcfb"/><path d="m144.188 78.957c21.088 2.384 45.237 4.109 71.297 5.003.665-.866 1.123-1.331 1.123-1.331 0-57.871 37.754-82.629 37.754-82.629h-21.833c-42.838 0-79.222 33.365-88.341 78.957z" fill="#bec8f7"/><path d="m365.361 91.244c-.4-4.578-1.083-9.054-2.004-13.421-30.296 3.456-67.282 5.488-107.222 5.488-14.25 0-28.11-.264-41.439-.754-2.852 3.57-11.366 16.573-.433 33.668-.479.174-1.042.393-1.645.64 13.878.571 28.407.879 43.387.879 40.012 0 76.882-2.164 106.368-5.804 2.065-.255 3.597-2.08 3.528-4.209z" fill="#bec8f7"/><path d="m216.608 82.627c-26.598-.929-51.081-2.773-72.096-5.321-.977 4.529-1.689 9.18-2.105 13.937l-.522 15.95c-.069 2.118 1.446 3.935 3.499 4.205 20.417 2.685 44.67 4.639 71.223 5.624-14.167-20.139.002-34.393.002-34.393s-.001-.001-.001-.002z" fill="#a8b7ef"/><g fill="#56415e"><path d="m10.998 266.998c0 34.603 7.188 67.521 20.132 97.364 9.065-17.895 23.507-38.153 44.957-47.359 42.731-18.34 33.235-80.268 27.131-126.54-4.145-31.422-35.028-45.75-55.383-52.698-23.341 37.517-36.837 81.795-36.837 129.233z"/><path d="m501.002 266.998c0 34.603-7.188 67.521-20.132 97.364-9.065-17.895-23.507-38.153-44.957-47.359-42.732-18.34-33.235-80.268-27.131-126.54 4.145-31.422 35.028-45.75 55.383-52.698 23.341 37.517 36.837 81.795 36.837 129.233z"/></g></g></svg>