<svg id="Layer_1" enable-background="new 0 0 512 512" height="512" viewBox="0 0 512 512" width="512" xmlns="http://www.w3.org/2000/svg"><g><path d="m38.573 379.999h434.854c17.609-33.813 27.575-72.241 27.575-113.001 0-135.311-109.691-245.002-245.002-245.002s-245.002 109.691-245.002 245.002c0 40.76 9.966 79.188 27.575 113.001z" fill="#ff4155"/><path d="m282.398 3.798c-7.65 3.428-17.665 8.635-27.609 15.899-26.962 19.695-41.214 45.498-41.214 74.618 0 13.8.317 28.62 1.368 43.679h135.182v-43.869c0-42.614-28.702-78.844-67.727-90.327z" fill="#ffc7ab"/><path d="m215.075 94.314c0-53.267 47.012-80.075 69.491-89.85-9.019-2.894-18.618-4.464-28.566-4.464-51.769 0-94.125 42.356-94.125 94.125v43.869h54.573c-1.045-14.946-1.373-29.746-1.373-43.68z" fill="#ffaa7b"/><path d="m256.021 337.155c20.045 0 39.618-5.351 56.726-15.348.494-15.201.791-30.106.97-44.607-3.717-9.647-4.958-21.043-5.264-29.93-5.298 6.171-10.858 11.333-16.171 15.459-10.352 8.038-23.125 12.405-36.282 12.405-13.156 0-25.93-4.366-36.281-12.405-5.313-4.126-10.874-9.288-16.172-15.459-.307 8.925-1.558 20.379-5.311 30.052.066 14.488.281 29.279.705 44.285 17.191 10.13 36.897 15.548 57.08 15.548z" fill="#ffaa7b"/><path d="m203.547 247.269c-.307 8.925-1.558 20.379-5.311 30.052.066 14.488.281 29.279.705 44.285 6.789 4.001 13.975 7.254 21.424 9.741 1.351-.137 2.698-.374 4.037-.735 31.04-8.368 31.598-55.48 31.598-55.48-13.156 0-25.93-4.366-36.281-12.405-5.314-4.125-10.874-9.287-16.172-15.458z" fill="#fc9460"/><path d="m198.887 319.576c1.658 61.38 6.822 126.472 20.023 189.632 12.095 1.837 24.481 2.792 37.09 2.792 12.447 0 24.675-.936 36.624-2.727 13.278-63.614 18.285-128.965 20.186-189.502-17.123 10.02-36.719 15.383-56.789 15.383-20.204.001-39.931-5.428-57.134-15.578z" fill="#deeeff"/><path d="m256.029 362.421c19.536 0 38.64-4.856 55.64-13.964.468-9.662.844-19.234 1.141-28.686-17.123 10.021-36.719 15.383-56.789 15.383-20.204 0-39.931-5.428-57.134-15.579.256 9.464.598 19.02 1.037 28.64 17.115 9.268 36.392 14.206 56.105 14.206z" fill="#d3dcfb"/><path d="m355.256 131.998c-4.103-3.76-13.276-1.854-16.81.448.774 4.821.818 9.753.149 14.623l-4.17 30.372c0 2.448-.077 4.85-.219 7.211 10.169 3.067 16.22-6.062 17.071-12.327.366-2.697.965-5.355 1.796-7.949 2.705-8.447 12.463-22.957 2.183-32.378z" fill="#ffaa7b"/><path d="m156.744 131.998c4.103-3.76 13.276-1.854 16.81.448-.774 4.821-.818 9.753-.149 14.623l4.17 30.372c0 2.448.077 4.85.219 7.211-10.169 3.067-16.22-6.062-17.071-12.327-.366-2.697-.965-5.355-1.796-7.949-2.705-8.447-12.463-22.957-2.183-32.378z" fill="#fc9460"/><path d="m336.936 123.063c-.939-2.449-2.122-4.929-3.613-7.268-2.525-3.962-3.636-8.648-3.297-13.32.974-13.438.452-39.721-17.19-47.659-14.988-6.744-33.372-2.839-45.096 1.059-7.614 2.532-15.866 2.532-23.48 0-5.311-1.766-11.99-3.529-19.099-4.308-7.645 13.064-11.586 27.446-11.586 42.747 0 64.377 6.863 150.934 63.281 180.495 5.513-2.071 10.721-4.956 15.424-8.609 19.831-15.399 43.144-45.085 43.144-88.759l4.17-30.372c1.114-8.096.271-16.366-2.658-24.006z" fill="#ffc7ab"/><path d="m278.72 274.07c-56.332-28.361-63.644-113.768-63.644-179.756 0-16.688 4.621-30.774 11.651-42.559-9.021-1.177-18.863-.854-27.562 3.061-17.692 7.96-18.166 34.371-17.181 47.774.341 4.636-.801 9.274-3.307 13.206-1.444 2.266-2.6 4.664-3.524 7.038-2.997 7.701-3.871 16.052-2.748 24.229l4.171 30.379c0 43.674 23.314 73.359 43.144 88.759 10.351 8.038 23.125 12.404 36.281 12.404 7.855-.001 15.57-1.569 22.719-4.535z" fill="#ffaa7b"/><path d="m432.314 330.234c-3.534-1.695-7.332-3.143-11.377-4.342l-65.15-24.863c-3.521-1.444-7.073-2.806-10.669-4.071-2.837 3.605-6.956 8.283-12.409 13.198-5.371 69.811-24.305 144.261-36.435 186.451l45.187.056c26.275-9.789 50.417-23.961 71.543-41.62 0-24.531 0-48.194 0-63.722 0-26.78 16.876-44.171 30.979-54.036-3.557-2.642-7.43-5.017-11.669-7.051z" fill="#56415e"/><path d="m191.841 319.951c-.667-.447-1.317-.897-1.96-1.348l.295 1.002-32.085 38.441c-2.948.379-15.769 2.318-28.783 8.738-19.447 9.594-29.726 24.647-29.726 43.531v45.21c20.833 17.308 44.571 31.238 70.385 40.929l.001-.002 45.108.055c-13.18-52.67-19.879-123.408-23.235-176.556z" fill="#45304c"/><path d="m166.867 296.964c-3.581 1.261-7.119 2.617-10.626 4.055l-65.219 24.886c-4.011 1.191-7.778 2.627-11.286 4.306-4.229 2.025-8.094 4.388-11.643 7.017 14.107 9.879 31.044 27.328 30.989 54.184-.032 15.501-.08 39.111-.13 63.597.704.589 1.42 1.164 2.131 1.745 0-13.196 0-29.213 0-46.438 0-44.694 57.779-50.851 57.779-50.851l32.98-39.513c-12.05-8.078-20.261-17.001-24.975-22.988z" fill="#38273f"/><path d="m133.801 353.482 25.059 5.981c2.958.706 5.705 2.108 8.012 4.09l12.172 10.458-2.251 1.657 2.251.343 23.143-17.902c-1.955-33.415-1.97-86.776-1.97-86.776l-13.663 5.206c-11.648 4.439-21.61 12.421-28.48 22.822l-28.569 43.252c-2.728 4.133-.52 9.719 4.296 10.869z" fill="#6c5475"/><path d="m202.078 356.195-23.033 17.817-32.684 24.058c-7.859 5.784-11.078 16.013-7.879 25.232 9.192 26.489 21.028 52.351 31.485 73.15 16.262 6.1 33.343 10.518 51.035 13.049-11.484-55.518-16.628-113.053-18.924-153.306z" fill="#876d93"/><path d="m377.749 353.482-25.06 5.981c-2.958.706-5.705 2.108-8.012 4.09l-12.172 10.458 2.252 1.657-2.252.343-23.143-17.902c1.955-33.415 2.419-86.776 2.419-86.776l13.394 5.177c11.536 4.459 21.397 12.4 28.214 22.72l28.656 43.383c2.728 4.133.52 9.719-4.296 10.869z" fill="#6c5475"/><path d="m365.19 398.07-32.684-24.058-23.033-17.817c-2.298 40.269-7.444 97.833-18.939 153.37 17.655-2.491 34.707-6.857 50.943-12.903 10.483-20.835 22.368-46.783 31.591-73.361 3.2-9.218-.02-19.447-7.878-25.231z" fill="#876d93"/><path d="m442.525 336.225c-14.382 9.656-32.522 27.332-32.522 55.095v66.215c26.107-21.127 47.784-47.506 63.423-77.537-5.796-16.72-15.339-32.82-30.901-43.773z" fill="#6c5475"/><path d="m69.553 336.169c-15.608 10.954-25.174 27.08-30.98 43.829 15.629 30.011 37.288 56.376 63.373 77.496.052-25.367.103-50.057.136-66.083.056-27.84-18.148-45.574-32.529-55.242z" fill="#56415e"/><path d="m411.6 77.746c-17.771 12.145-31.22 30.742-26.537 58.7 12.27 73.253-44.248 110.625 44.083 149.899 31.405 13.964 51.185 30.3 63.502 44.267 5.444-20.286 8.354-41.61 8.354-63.615 0-76.224-34.812-144.316-89.402-189.251z" fill="#ff7186"/><path d="m100.4 77.746c17.771 12.145 31.22 30.742 26.537 58.7-12.27 73.253 44.248 110.625-44.083 149.899-31.405 13.964-51.185 30.3-63.502 44.267-5.444-20.286-8.354-41.61-8.354-63.615 0-76.224 34.812-144.316 89.402-189.251z" fill="#ff7186"/><g><path d="m334.862 189.059c-3.298 8.139-10.154 17.931-22.717 23.381-2.319-13.828-12.296-27.674-25.616-30.694l-20.359-5.981c-3.539-1.04-7.083.776-8.508 3.859-.26.563-1.047.563-1.307 0-1.425-3.083-4.969-4.898-8.508-3.859l-20.359 5.981c-13.583 3.08-23.696 17.417-25.751 31.513-13.897-5.241-21.131-15.636-24.6-24.2v.004c0 3.873.361 7.744 1.072 11.551 8.648 46.353 35.605 64.373 55.982 74.758 13.643 6.953 29.825 6.958 43.47.011 20.374-10.373 47.462-28.396 56.126-74.757.713-3.813 1.075-7.689 1.075-11.567zm-55.182 52.403c-8.744 3.09-18.286-2.41-19.406-11.512-.014-.118-.028-.236-.041-.356-.184-1.698-1.605-3.002-3.334-3.002-1.73 0-3.151 1.305-3.334 3.002-.014.12-.027.238-.041.356-1.12 9.102-10.662 14.602-19.406 11.512-12.031-4.251-17.206-12.302-19.431-18.205 6.518-8.916 16.116-15.314 27.163-17.752l3.637-.803c5.3-1.17 9.399-6.344 10.902-11.857.172-.633 1.072-.633 1.245 0 1.503 5.513 5.601 10.687 10.902 11.857l3.637.803c10.452 2.307 19.61 8.156 26.088 16.33-1.344 5.962-5.55 15.022-18.581 19.627z" fill="#945230"/><path d="m243.163 241.75c-2.854.802-5.996.79-9.048-.289-12.031-4.251-17.207-12.302-19.431-18.205 3.693-5.051 8.375-9.291 13.748-12.464-15.126-9.919-5.984-25.437-4.3-28.029-11.872 4.484-20.513 17.587-22.395 30.494-13.897-5.24-21.131-15.636-24.6-24.2v.004c0 3.873.361 7.744 1.072 11.551 8.648 46.353 35.605 64.373 55.982 74.758 10.096 5.145 21.581 6.475 32.401 4.009-28.511-7.707-24.556-32.557-23.429-37.629z" fill="#753616"/></g></g></svg>