<svg id="Layer_1" enable-background="new 0 0 512 512" height="512" viewBox="0 0 512 512" width="512" xmlns="http://www.w3.org/2000/svg"><g><path d="m460.46 402.005c25.614-38.712 40.542-85.113 40.542-135.007 0-135.311-109.691-245.002-245.002-245.002s-245.002 109.691-245.002 245.002c0 49.894 14.928 96.295 40.542 135.007z" fill="#38273f"/><path d="m220.422 26.488c-.55 15.106 6.076 29.67 19.694 43.289 43.022 43.022 79.69 160.803 80.087 162.081.179.486 4.542 11.949 16.512 16.337 7.562 2.774 16.329 2.061 26.13-2.103 2.168-6.986 5.629-14.826 10.799-23.774 46.177-79.919-9.67-111.493-27.674-166.2-7.877-23.935-25.954-37.967-43.797-46.181-23.857-10.983-50.869-12.857-75.809-5.645-3.151 6.263-5.635 13.775-5.942 22.196z" fill="#eab049"/><path d="m359.807 369.329c51.299-67.479-15.899-67.855 3.78-125.492-31.723 14.426-41.733-12.592-41.733-12.592s-36.658-118.88-80.492-162.714c-25.59-25.59-20.938-49.458-12.635-64.896-5.982 1.585-11.857 3.679-17.551 6.3-17.844 8.214-35.92 22.247-43.797 46.181-18.005 54.707-73.852 86.281-27.675 166.2s-43.168 72.026 13.837 147.012h103.133 103.133z" fill="#ea9939"/><path d="m312.321 277.517c-35.161-17.431-76.446-17.431-111.607 0l-3.609 32.22h119.332z" fill="#bec8f7"/><path d="m256.526 298.975c14.849 0 30.222-1.974 45.694-5.866.07-.018.14-.028.211-.044-2.668-3.849-4.197-7.961-4.197-12.337 0-5.762 0-4.036 0-7.767-10.046 8.981-27.275 20.424-41.463 20.767-14.189-.344-31.417-11.786-41.463-20.767v7.767c0 4.41-1.557 8.55-4.265 12.425 15.402 3.861 30.703 5.822 45.483 5.822z" fill="#ffcf8f"/><path d="m312.8 342.489c-17.16 7.022-36.023 10.584-56.274 10.584-20.257 0-39.126-3.565-56.293-10.594 2.187 53.84 7.247 110.28 18.411 166.691 12.18 1.863 24.655 2.83 37.355 2.83 13.074 0 25.905-1.035 38.425-3.008 11.202-56.661 16.21-113.133 18.376-166.503z" fill="#823c26"/><path d="m330.048 323.313-16.888-27.126c-2.376-3.817-6.945-5.63-11.306-4.533-13.182 3.317-28.652 5.821-45.328 5.821-1.318 0-2.625-.021-3.928-.052-4.763 5.093-25.265 29.956.928 56.149.33.33.626.648.925.967.694.008 1.374.033 2.075.033 29.602 0 52.623-7.549 69.691-16.752 5.224-2.816 6.968-9.468 3.831-14.507z" fill="#b26847"/><path d="m256.526 297.475c-16.676 0-32.15-2.508-45.337-5.829-4.361-1.098-8.931.714-11.308 4.532l-16.887 27.125c-3.136 5.038-1.393 11.689 3.83 14.507 17.071 9.209 40.097 16.762 69.703 16.762-29.386-29.384-.001-57.097-.001-57.097z" fill="#945230"/><path d="m180.929 379.024c-3.271-2.629-5.713-4.815-7.867-6.744-4.761-4.262-7.634-6.835-12.908-8.094l-2.096-.5.094.781c-3.678.85-14.099 3.638-24.655 9.978-17.182 10.317-26.264 25.142-26.264 42.87v44.335c18.762 14.361 39.658 26.076 62.136 34.575-8.827-17.981-19.837-42.198-28.524-67.233-2.996-8.634-.042-18.091 7.351-23.533l32.683-24.057c.792-.583.819-1.76.05-2.378z" fill="#bec8f7"/><path d="m108.733 462.782c0-11.872 0-27.418 0-45.467 0-42 51.073-51.669 51.073-51.669l-.192-1.588-24.519-5.852c-3.807-.908-5.55-5.314-3.392-8.581l15.221-23.043c-17.923 5.221-32.386 7.863-32.386 7.863-12.184 2.34-38.925 10.849-54.163 41.322-3.624 7.248-6.536 16.145-8.835 26.24 15.47 23.379 34.848 43.941 57.193 60.775z" fill="#a8b7ef"/><path d="m344.561 495.49c47.655-18.484 88.082-51.444 115.898-93.485-2.299-10.096-5.211-18.992-8.835-26.24-15.237-30.473-41.979-38.982-54.163-41.322 0 0-13.78-2.517-31.107-7.492l14.976 22.673c2.158 3.267.418 7.673-3.392 8.581l-25.059 5.981c-5.247 1.253-8.097 3.801-12.817 8.023-2.062 1.845-4.629 4.141-7.957 6.815-.769.618-.741 1.795.05 2.377l32.683 24.057c7.393 5.442 10.347 14.899 7.351 23.533-7.978 22.996-18.477 47.262-27.628 66.499z" fill="#bec8f7"/><path d="m160.505 185.166c2.585 3.114 6.859 5.451 13.925 5.342-.207-.875-.418-1.735-.619-2.624 0 0-2.853-18.079-1.879-35.378-6.656 7.585-12 16.709-11.427 32.66z" fill="#ffcf8f"/><path d="m342.777 152.507c.974 17.299-1.879 35.377-1.879 35.377-.202.889-.413 1.75-.619 2.624 7.065.108 11.34-2.227 13.924-5.342.573-15.951-4.77-25.075-11.426-32.659z" fill="#ffcf8f"/><path d="m343.525 153.372c-10.216-12.022-24.047-19.814-24.047-43.416 0-59.856-58.481-38.46-58.481-38.46-2.349.901-4.935.901-7.284 0 0 0-6.438-2.353-15.039-3.315.116.117.224.234.341.352 0 0-47.545 140.806 44.646 216.323.345.282.668.562 1.002.843 13.565-8.428 24.752-19.843 32.787-33.593 10.395-17.788 18.508-39.345 24.121-64.115 1.287-8.187 2.618-21.796 1.954-34.619z" fill="#fce6ca"/><path d="m197.259 252.105c10.555 18.063 26.539 32.112 46.224 40.629 8.817 3.813 18.927 3.814 27.743 0 5.197-2.248 10.127-4.893 14.776-7.884-92.182-75.519-44.64-216.317-44.64-216.317-17.16-2.583-46.131-.706-46.131 41.423 0 23.576-13.801 31.377-24.013 43.375-.723 13.042.581 26.862 1.93 34.703 5.601 24.721 13.714 46.277 24.111 64.071z" fill="#ffd9a1"/><path d="m378.288 359.664-25.059 5.981c-2.958.706-5.705 2.108-8.012 4.09l-12.172 10.458 2.251 1.657-2.251.343-23.143-17.902c1.955-33.415 2.419-86.775 2.419-86.775l13.394 5.177c11.536 4.459 21.397 12.4 28.213 22.72l28.655 43.383c2.729 4.132.521 9.719-4.295 10.868z" fill="#d3dcfb"/><path d="m365.728 404.251-32.684-24.058-23.032-17.816c-2.209 38.714-7.056 93.414-17.64 146.931 18.613-2.77 36.546-7.625 53.545-14.336 9.449-19.326 19.593-42.159 27.689-65.489 3.2-9.219-.019-19.447-7.878-25.232z" fill="#deeeff"/><path d="m134.747 359.664 25.059 5.981c2.958.706 5.705 2.108 8.012 4.09l12.172 10.458-2.251 1.657 2.251.343 23.143-17.902c-1.956-33.415-2.419-86.775-2.419-86.775l-13.393 5.177c-11.536 4.459-21.397 12.4-28.213 22.72l-28.655 43.383c-2.73 4.132-.522 9.719 4.294 10.868z" fill="#d3dcfb"/><path d="m203.022 362.377-23.033 17.816-32.684 24.058c-7.858 5.784-11.078 16.013-7.879 25.232 8.165 23.528 18.412 46.547 27.929 65.976 16.946 6.58 34.805 11.323 53.336 13.998-10.604-53.564-15.457-108.329-17.669-147.08z" fill="#deeeff"/><path d="m100.696 239.382c-20.667-43.333-11.333-79.333 2-114.454 6.291-16.571.708-31.797-6.943-43.262-51.911 44.925-84.754 111.293-84.754 185.332 0 29.823 5.338 58.396 15.099 84.827 7.815-13.189 25.936-24.748 45.932-31.655 26.666-9.211 49.332-37.455 28.666-80.788z" fill="#56415e"/><path d="m411.304 239.382c20.667-43.333 11.333-79.333-2-114.454-6.291-16.571-.708-31.797 6.943-43.262 51.911 44.925 84.754 111.293 84.754 185.332 0 29.823-5.337 58.396-15.098 84.827-7.815-13.189-25.937-24.748-45.932-31.655-26.667-9.211-49.333-37.455-28.667-80.788z" fill="#56415e"/><path d="m435.31 433.915c-5.781-15.498-16.23-24.949-24.906-30.434-6.251-3.952-14.401.497-14.401 7.892v56.683c14.29-9.97 27.466-21.425 39.307-34.141z" fill="#a8b7ef"/></g></svg>