<svg id="Layer_1" enable-background="new 0 0 512 512" height="512" viewBox="0 0 512 512" width="512" xmlns="http://www.w3.org/2000/svg"><g><path d="m466.451 392.486c21.934-36.705 34.551-79.621 34.551-125.488 0-135.311-109.691-245.002-245.002-245.002s-245.002 109.691-245.002 245.002c0 45.868 12.617 88.783 34.551 125.488z" fill="#7e6dd1"/><path d="m207.708 340.041c13.752 10.68 30.724 16.481 48.203 16.481s34.451-5.801 48.203-16.481c6.969-5.412 14.254-12.174 21.21-20.239-4.886-2.887-8.79-7.256-10.974-12.576-4.049-9.864-5.355-21.792-5.673-31.01-5.298 6.17-10.859 11.333-16.172 15.458-10.054 7.808-22.395 12.138-35.15 12.381v-.009c-1.329.035-1.371.035-2.709 0v.009c-12.755-.243-25.096-4.574-35.15-12.381-5.313-4.126-10.874-9.288-16.172-15.458-.318 9.218-1.624 21.146-5.673 31.01-2.202 5.364-6.152 9.759-11.094 12.645 6.938 8.035 14.201 14.774 21.151 20.17z" fill="#ffaa7b"/><path d="m207.708 340.041c5.808 4.51 12.194 8.139 18.946 10.839 2.846-1.218 5.114-1.431 5.114-1.431 19.27-14.448 23.304-35.051 24.06-45.378-.294-.003-.625-.011-1.182-.025v.009c-12.755-.243-25.096-4.574-35.15-12.381-5.313-4.126-10.874-9.288-16.172-15.458-.318 9.218-1.624 21.146-5.673 31.01-2.202 5.364-6.152 9.759-11.094 12.645 6.938 8.035 14.201 14.774 21.151 20.17z" fill="#fc9460"/><path d="m355.085 160.945c-4.103-3.76-13.276-1.854-16.81.448.774 4.821.818 9.753.149 14.623l-4.17 30.372c0 2.448-.077 4.85-.219 7.211 10.169 3.067 16.22-6.062 17.071-12.327.366-2.697.965-5.355 1.796-7.949 2.705-8.447 12.463-22.957 2.183-32.378z" fill="#ffaa7b"/><path d="m156.573 160.945c4.103-3.76 13.276-1.854 16.81.448-.774 4.821-.818 9.753-.149 14.623l4.17 30.372c0 2.448.077 4.85.219 7.211-10.169 3.067-16.22-6.062-17.071-12.327-.366-2.697-.965-5.355-1.796-7.949-2.705-8.447-12.463-22.957-2.183-32.378z" fill="#fc9460"/><path d="m336.85 152.01c-.938-2.449-2.122-4.929-3.613-7.268-2.525-3.962-3.636-8.648-3.297-13.32.973-13.439.451-39.721-17.19-47.659-14.987-6.744-33.372-2.839-45.096 1.059-7.614 2.532-15.866 2.532-23.48 0-1.248-.415-2.576-.829-3.962-1.232-13.336 11.077-13.636 33.366-12.659 45.47.389 4.821-.915 9.643-3.778 13.731-1.65 2.356-2.97 4.849-4.026 7.318-3.425 8.007-4.423 16.69-3.14 25.192l4.766 31.586c0 45.41 26.638 76.276 49.297 92.288 2.215 1.565 4.537 2.977 6.931 4.267 5.206-2.045 10.126-4.827 14.593-8.296 19.831-15.4 43.144-45.085 43.144-88.759l4.17-30.372c1.112-8.096.269-16.365-2.66-24.005z" fill="#ffc7ab"/><g><path d="m271.11 295.147c-21.792-15.4-47.412-45.085-47.412-88.759l-4.584-30.379c-1.234-8.177-.273-16.529 3.02-24.229 1.016-2.374 2.285-4.772 3.872-7.038 2.754-3.932 4.008-8.569 3.634-13.206-1.023-12.671-.603-36.957 15.871-46.3-.448-.13-.894-.267-1.337-.415-11.725-3.899-30.109-7.803-45.096-1.059-17.692 7.961-18.166 34.371-17.181 47.774.341 4.637-.801 9.274-3.307 13.206-1.444 2.266-2.6 4.664-3.524 7.038-2.997 7.7-3.871 16.052-2.749 24.229l4.171 30.379c0 43.674 23.314 73.359 43.145 88.759 10.351 8.038 23.125 12.404 36.281 12.404 9.161 0 18.134-2.122 26.235-6.122-3.882-1.744-7.585-3.841-11.039-6.282z" fill="#ffaa7b"/></g><path d="m336.281 368.833-19.203-12.496c-4.251 4.17-8.525 7.882-12.685 11.112-13.831 10.741-30.9 16.575-48.48 16.575-14.903 0-29.432-4.208-41.939-12.029.083 1.216.219 2.467.423 3.762-7.396 3.473-48.437 24.288-48.437 58.411v60.748c27.872 11.025 58.247 17.084 90.04 17.084 56.631 0 108.766-19.223 150.259-51.487 0-.8 0-1.596 0-2.379 0-37.975-46.849-73.885-69.978-89.301z" fill="#49b1f7"/><path d="m167.461 434.169c0-36.146 48.609-57.526 48.609-57.526-.234-1.284-.389-2.492-.501-3.658-2.814-1.668-5.531-3.514-8.134-5.535-4.094-3.179-8.298-6.824-12.482-10.913l-19.181 12.482c-23.071 15.377-69.803 51.198-69.803 89.077v2.591c18.556 14.395 39.24 26.173 61.492 34.806 0-17.163 0-41.098 0-61.324z" fill="#1fa2ea"/><path d="m428.593 357.43-87.556-31.46c-7.651 12.773-16.645 23.442-25.664 32.014l20.251 13.178c22.402 14.932 67.78 49.715 67.78 86.497v5.042c25.278-19.069 46.738-42.923 63.046-70.214-8.032-14.812-20.019-27.746-37.857-35.057z" fill="#deeeff"/><path d="m170.963 325.97-87.556 31.46c-17.838 7.311-29.824 20.246-37.858 35.057 16.308 27.291 37.768 51.145 63.046 70.215 0-1.714 0-3.401 0-5.042 0-36.782 45.378-71.565 67.781-86.497l20.251-13.178c-9.019-8.573-18.013-19.242-25.664-32.015z" fill="#d3dcfb"/><path d="m329.964 321.991c-2.94-1.056-5.648-2.606-8.018-4.549-6.981 8.435-14.403 15.407-21.469 20.894-12.715 9.874-28.405 15.237-44.565 15.237-9.253 0-18.35-1.766-26.825-5.123-2.863.759-7.554 2.634-10.998 7.169-3.766 4.959-5.008 11.706-3.701 20.066 12.544 7.254 26.861 11.138 41.522 11.138 18.427 0 36.318-6.115 50.816-17.374 12.739-9.892 26.496-24.005 37.666-42.274z" fill="#d3dcfb"/><path d="m211.347 338.336c-7.042-5.469-14.439-12.412-21.399-20.809-2.345 1.903-5.016 3.423-7.912 4.464l-14.574 5.237c11.164 18.243 24.907 32.339 37.633 42.221 3.475 2.699 7.149 5.093 10.974 7.187-4.621-25.331 15.699-27.186 15.699-27.186-7.319-2.571-14.225-6.303-20.421-11.114z" fill="#bec8f7"/><path d="m403.38 71.276c-10.032 16.683-19.735 42.759-10.188 73.441 16.667 53.563-61.155 131.937-3.911 147.084 42.804 11.326 79.851 22.532 98.965 53.4 8.268-24.559 12.755-50.856 12.755-78.203.001-79.983-38.332-151.006-97.621-195.722z" fill="#9589e8"/><path d="m108.62 71.276c10.032 16.683 19.735 42.759 10.188 73.441-16.666 53.563 61.155 131.937 3.911 147.084-42.804 11.326-79.851 22.532-98.965 53.4-8.268-24.559-12.755-50.856-12.755-78.203-.001-79.983 38.332-151.006 97.621-195.722z" fill="#9589e8"/><path d="m418.241 411.887c-.508-.34-1.011-.666-1.509-.979-6.211-3.911-14.296.619-14.296 7.958v29.367c.627 3.119.969 6.264.969 9.425v5.042c11.876-8.959 22.896-18.986 32.947-29.917-4.046-8.332-10.195-15.606-18.111-20.896z" fill="#d3dcfb"/><g><g fill="#d3dcfb"><path d="m242.394 16.273h.957 24.955.957c.174 0 .346.006.52.007.108-.704.165-1.426.165-2.161 0-7.798-6.321-14.119-14.119-14.119s-14.119 6.321-14.119 14.119c0 .735.056 1.456.164 2.161.174-.002.347-.007.52-.007z"/><path d="m193.451 58.615c11.155-26.127 29.685-42.092 49.901-43.177-.361 0-.682 0-.957 0-27.657 0-53.474 13.908-68.638 37.037-6.9 10.525-18.303 27.94-18.303 66.731v17.282l.722.414c2.376-1.351 10.561-5.772 23.552-10.398 1.403-39.19 8.655-56.022 13.723-67.889z"/><path d="m337.902 52.476c-15.164-23.129-40.981-37.037-68.638-37.037-.304 0-.627 0-.957 0 20.215 1.085 38.746 17.049 49.901 43.177 5.067 11.868 12.319 28.7 13.722 67.889 12.992 4.626 21.176 9.047 23.552 10.398l.722-.414v-17.282c0-38.791-11.402-56.206-18.302-66.731z"/></g><path d="m255.829 113.688c32.718 0 59.05 6.7 76.521 12.965-1.427-40.024-8.996-57.045-13.759-68.202-10.339-24.215-27.154-39.822-45.668-42.922-1.216-.054-2.435-.091-3.66-.091-7.281 0-22.58 0-26.869 0-1.224 0-2.443.037-3.66.091-18.514 3.1-35.329 18.707-45.668 42.922-4.764 11.157-12.332 28.178-13.759 68.202 17.472-6.265 43.804-12.965 76.522-12.965z" fill="#49b1f7"/><path d="m238.735 15.53c-18.514 3.1-35.329 18.707-45.668 42.921-4.764 11.157-12.333 28.179-13.76 68.202 11.564-4.146 27.03-8.472 45.64-10.931.463-.611.746-.944.746-.944-14.108-63.103 30.136-99.34 30.136-99.34-5.687 0-11.138 0-13.434 0-1.225 0-2.444.038-3.66.092z" fill="#1fa2ea"/><path d="m255.829 112.854c-12.129 0-23.375.923-33.623 2.401-4.769 5.929-11.612 18.912-1.383 37.207 19.646-6.128 35.006-5.686 35.006-5.686s40.447-1.171 74.029 26.477c8.182 6.736 20.612 2.756 23.143-7.535 1.833-7.454 3.203-17.086 3.203-29.229 0-.001-38.926-23.635-100.375-23.635z" fill="#deeeff"/><path d="m158.657 165.718c2.531 10.292 14.961 14.271 23.143 7.535 13.218-10.883 27.499-17.298 39.959-21.08-13.958-23.458 3.934-37.394 3.934-37.394-43.756 5.634-70.239 21.709-70.239 21.709 0 12.144 1.37 21.776 3.203 29.23z" fill="#bec8f7"/></g></g></svg>