<svg id="Layer_1" enable-background="new 0 0 512 512" height="512" viewBox="0 0 512 512" width="512" xmlns="http://www.w3.org/2000/svg"><g><path d="m53.274 404.606h405.452c26.678-39.226 42.276-86.594 42.276-137.608 0-135.311-109.691-245.002-245.002-245.002s-245.002 109.691-245.002 245.002c0 51.015 15.598 98.382 42.276 137.608z" fill="#49b1f7"/><path d="m386.488 341.703c.805-31.549-8.977-62.086-17.762-82.875-7.335-17.357-8.745-36.602-4.19-54.886 6.703-26.908 9.414-68.227-2.745-109.424-12.248-41.5-35.663-56.5-55.47-60.485-1.851-.373-3.513-1.352-4.9-2.633-5.361-4.954-21.339-16.881-50.918-16.881-33.717 0-120.039 26.124-105.442 164.512.908 8.607 1.439 17.25 1.441 25.905v2.583c0 30-23 33-39 84-5.629 17.944.084 40.376 6.384 55.296z" fill="#945230"/><path d="m369.782 261.368c-41.593 23.062-56.762-21.054-56.762-21.054l-102.998-216.374c-36.003 16.424-75.171 58.288-64.96 155.091.908 8.607 1.439 17.25 1.441 25.905l.001 2.583c0 30-23 33-39 84-5.629 17.944.084 40.376 6.384 55.296l272.601-5.111c.772-30.291-8.213-59.643-16.707-80.336z" fill="#753616"/><path d="m275.551 403.15c-13.315 5.481-28.586 5.481-41.904 0-21.49-8.847-40.039-21.866-54.703-38.197l13.98 138.834c20.127 5.348 41.266 8.213 63.076 8.213s42.949-2.865 63.076-8.213l14.348-142.489c-15.12 18.052-34.803 32.354-57.873 41.852z" fill="#88ce65"/><path d="m208.558 393.244-.539-3.512c-10.861-7.051-20.618-15.36-29.075-24.779l4.382 43.515c1.298.092 2.017.167 2.017.167 4.789-16.678 23.215-15.391 23.215-15.391z" fill="#6faf46"/><path d="m295.409 284.667c0-5.763 0-4.036 0-7.767-10.047 8.982-27.275 20.424-41.464 20.768-.181-.004-.365-.018-.547-.026-1.837 23.002-10.01 71.44-45.857 94.955 8.104 5.304 16.83 9.902 26.106 13.721 13.318 5.481 28.588 5.482 41.904 0 22.885-9.421 42.439-23.568 57.51-41.415l4.342-43.123c-22.065-8.879-41.994-21.279-41.994-37.113z" fill="#ffd9a1"/><path d="m253.945 297.668c-14.189-.344-31.417-11.786-41.463-20.768v7.767c0 14.884-17.611 26.732-38.05 35.474l4.871 48.377c8.514 9.41 18.332 17.701 29.255 24.726 36.714-23.282 44.998-72.458 46.844-95.651-.488.036-.975.063-1.457.075z" fill="#f9c98a"/><path d="m354.104 146.318c-4.529-4.427-14.598-2.731-19.809.743 5.744 18.796.757 50.357.757 50.357-.194.856-.397 1.685-.596 2.527 13.141.202 16.31-8.353 16.943-14.199.291-2.69.935-5.375 1.933-8.03 3.251-8.646 10.044-22.333.772-31.398z" fill="#ffd9a1"/><path d="m213.713 151.026s3.436 104.103 68.562 139.712c12.443-8.025 22.734-18.703 30.197-31.475 10.01-17.13 17.824-37.89 23.228-61.742 1.895-12.043 3.886-36.274-1.029-51.377-2.917-10.375-1.251-7.333-12.917-19-11.667-11.667-4.349-26.621-17.927-40.198-5.063-5.063-9.738-6.502-13.052-6.721-3.818-.252-7.514-1.352-10.962-3.01-8.983-4.32-27.087-9-47.973 7.802-16.993 13.67-17.021 36.682-23.285 60.676z" fill="#fce6ca"/><path d="m217.713 151.026-8.337-8.62c-4.436 18.456-11.958 37.725-33.273 53.954-1.483 1.129-2.158 3.031-1.725 4.844 5.351 22.279 12.856 41.807 22.351 58.058 10.164 17.395 25.557 30.923 44.514 39.125 8.491 3.672 18.227 3.673 26.716 0 5.732-2.48 11.133-5.455 16.167-8.869-63.049-36.7-66.413-138.492-66.413-138.492z" fill="#ffd9a1"/><path d="m115.555 422.605c-7.863 7.089-11.85 16.411-11.85 27.709v8.605c17.255 13.713 36.401 25.149 56.986 33.85l-8.535-84.767c-16.048 2.258-28.342 7.157-36.601 14.603z" fill="#d3dcfb"/><path d="m144.102 328.016c-6.209 3.142-12.003 6.217-16.781 8.815-7.027 3.821-14.362 7.043-21.968 9.519-13.557 4.414-32.889 14.765-44.979 38.943-2.769 5.538-5.117 12.051-7.099 19.313 14.34 21.085 31.887 39.809 51.931 55.487 0-3.049 0-6.299 0-9.779 0-27.94 25.021-37.666 47.102-40.812z" fill="#bec8f7"/><path d="m184.271 407.037c-3.393-.266-13.434-.867-25.163.173-3.244.288-6.341.68-9.315 1.158l8.388 83.305c11.813 5.15 24.103 9.41 36.798 12.664l-9.984-99.152c-.258.595-.504 1.206-.724 1.852z" fill="#deeeff"/><path d="m176.305 318.882c0-2.609-2.637-4.388-5.057-3.411-9.563 3.86-20.076 8.92-29.43 13.705l8.125 80.689c18.362-2.994 35.399-1.229 35.399-1.229z" fill="#d3dcfb"/><path d="m458.726 404.606c-1.982-7.262-4.33-13.774-7.099-19.313-12.09-24.179-31.422-34.53-44.979-38.943-7.605-2.476-14.941-5.698-21.968-9.519-4.561-2.48-10.048-5.396-15.938-8.388l-16.506 163.922c43.353-18.536 80.274-49.212 106.49-87.759z" fill="#d3dcfb"/><path d="m335.695 318.882-18.675 185.456c12.695-3.254 24.985-7.514 36.798-12.664l16.362-162.497c-9.353-4.785-19.867-9.845-29.43-13.705-2.419-.978-5.055.8-5.055 3.41z" fill="#deeeff"/><path d="m106.982 207.877c9.419-39.438-31.304-60.281-59.36-69.771-23.211 37.444-36.625 81.599-36.625 128.892 0 20.328 2.484 40.075 7.152 58.96 65.56-.013 76.673-67.165 88.833-118.081z" fill="#73c3f9"/><path d="m405.017 207.877c-9.419-39.438 31.304-60.281 59.36-69.771 23.211 37.444 36.625 81.599 36.625 128.892 0 20.328-2.484 40.075-7.152 58.96-65.559-.013-76.672-67.165-88.833-118.081z" fill="#73c3f9"/><path d="m431.81 437.614c-5.357-17.959-16.865-28.579-26.282-34.532-6.251-3.952-14.401.496-14.401 7.892v60.412c14.76-9.779 28.397-21.116 40.683-33.772z" fill="#bec8f7"/><g><path d="m256 90.307c-15.651 0-30.802.335-45.191.96-1.094 5.655-.522 12.951 4.782 21.245-4.373 1.591-14.921 6.29-16.341 14.995-1.162 7.123 4.128 14.97 15.706 23.344 13.143.845 26.889 1.315 41.043 1.315 93.612 0 169.5-20.452 169.5-35.184.001-14.732-75.887-26.675-169.499-26.675z" fill="#ffdd40"/><path d="m86.5 116.983c0 12.66 56.041 29.544 131.213 34.043-38.713-26.613.147-37.738.147-37.738-6.161-8.757-6.782-16.358-5.603-22.082-72.409 3.035-125.757 13.425-125.757 25.777z" fill="#ffc839"/><path d="m274.618 0h-22.685c-3.094 2.36-10.005 8.223-16.987 18.151-8.403 11.951-18.411 32.263-18.538 61.284-.322.377-.806.981-1.36 1.783 13.262.476 27.037.731 41.189.731 38.424 0 74.155-1.85 103.997-5.022-8.664-44.388-43.993-76.927-85.616-76.927z" fill="#fee77f"/><path d="m147.753 76.436c20.415 2.307 43.792 3.978 69.02 4.843.643-.839 1.087-1.288 1.087-1.288 0-56.023 36.549-79.991 36.549-79.991h-21.136c-41.47 0-76.692 32.299-85.52 76.436z" fill="#ffdd40"/><path d="m361.862 88.329c-.387-4.432-1.049-8.765-1.94-12.993-29.328 3.345-65.133 5.313-103.797 5.313-13.795 0-27.212-.256-40.116-.73-2.761 3.456-11.003 16.044-.419 32.593-.464.169-1.008.38-1.592.62 13.435.552 27.499.851 42.001.851 38.734 0 74.426-2.095 102.97-5.619 1.999-.247 3.483-2.014 3.415-4.075z" fill="#ffc839"/><path d="m217.86 79.988c-25.748-.899-49.449-2.684-69.793-5.151-.946 4.384-1.636 8.886-2.038 13.492l-.506 15.441c-.067 2.05 1.4 3.81 3.387 4.071 19.765 2.599 43.243 4.491 68.948 5.444-13.715-19.496.002-33.295.002-33.295 0-.001 0-.001 0-.002z" fill="#ffb332"/></g></g></svg>