<svg id="Layer_1" enable-background="new 0 0 512 512" height="512" viewBox="0 0 512 512" width="512" xmlns="http://www.w3.org/2000/svg"><g><path d="m46.696 394.406h418.609c22.646-37.123 35.698-80.741 35.698-127.408 0-135.311-109.691-245.002-245.002-245.002s-245.002 109.691-245.002 245.002c-.001 46.667 13.05 90.284 35.697 127.408z" fill="#7e6dd1"/><g><path d="m232.035 336.884c4.3 2.847 5.289 9.127 1.238 13.276-.279.435-2.215 1.856-.814 3.183 38.896 36.871 8.128 36.47 47.816-.693 1.812-1.697-1.413-2.598-2.459-6.373-1.622-5.879 3.425-9.297 3.512-9.401 14.997-9.928 25.199-23.82 31.155-40.489-8.376-6.503-13.821-13.954-13.821-22.344 0-5.929 0-4.153 0-7.991-10.337 9.241-28.063 21.014-42.661 21.368-14.599-.354-32.325-12.127-42.662-21.368v7.991c0 8.03-4.986 15.202-12.757 21.505 5.771 17.126 16.601 31.505 31.453 41.336z" fill="#ffaa7b"/><path d="m256.278 287.406c-.092.003-.186.011-.278.013-14.599-.354-32.325-12.127-42.662-21.368v7.991c0 8.03-4.986 15.202-12.757 21.505 5.771 17.126 16.602 31.505 31.453 41.335.863.572 1.586 1.286 2.168 2.089 17.196-14.128 21.174-39.31 22.076-51.565z" fill="#fc9460"/></g><path d="m231.648 350.473-24.001 27.49c-5.251 6.048-14.89 4.969-18.682-2.091-2.016-3.753-4.268-8.091-6.625-12.855-.1.553-.208 1.1-.288 1.672-6.949 1.686-45.523 12.537-45.523 45.292v70.954c35.341 19.781 76.082 31.063 119.462 31.065h.019c4.014 0 8.003-.104 11.97-.295 0-32.388 0-75.27 0-96.677-.001-27.683-24.136-53.351-36.332-64.555z" fill="#fc90ce"/><path d="m138.029 481.758c0-16.458 0-47.359 0-71.777 0-35 45.378-44.065 45.378-44.065.023-.199.062-.383.088-.579-6.312-12.568-13.577-28.558-19.294-45.449-.583-1.722-.661-3.54-.281-5.267-26.38 9.744-53.471 14.689-53.471 14.689-7.898 1.517-21.739 5.559-34.822 16.178 15.222 12.427 37.121 35.903 37.121 68.167v52.11c8.07 5.828 16.515 11.166 25.281 15.993z" fill="#ff7acb"/><path d="m232.886 335.597c-3.245-2.148-6.176-4.445-8.835-6.827-6.927.935-37.099 6.631-41.808 34.803 2.382 4.817 4.663 9.212 6.713 13.029 4.296 7.997 15.253 9.23 21.204 2.375l24.736-28.331c4.011-4.594 3.075-11.682-2.01-15.049z" fill="#ff7acb"/><path d="m225.58 330.103c-13.71-11.641-20.422-25.713-23.611-35.268-1.884-5.644-8.594-7.898-13.549-4.605-8.012 5.324-15.353 11.601-21.861 18.695-2.838 3.094-3.814 7.482-2.468 11.459 5.721 16.903 12.973 32.891 19.318 45.53 3.796-32.896 42.171-35.811 42.171-35.811z" fill="#ff54b6"/><path d="m401.551 329.311s-27.092-4.945-53.471-14.689c.38 1.727.302 3.545-.281 5.267-7.47 22.073-17.59 42.628-24.764 55.984-3.791 7.06-13.431 8.139-18.682 2.091l-24.001-27.49c-12.196 11.204-36.331 36.873-36.331 64.555v96.677c3.966.191 7.956.294 11.97.295h.019c10.293-.001 20.436-.642 30.396-1.876l-.002-.001 72.537-20.753.003.01c14.229-6.599 27.717-14.524 40.309-23.615 0-17.992 0-36.486 0-52.11 0-32.263 21.898-55.74 37.121-68.167-13.084-10.619-26.925-14.662-34.823-16.178z" fill="#ffbbe5"/><path d="m346.792 308.924c-6.508-7.094-13.849-13.371-21.861-18.695-4.955-3.293-11.665-1.039-13.549 4.605-3.712 11.119-12.184 28.36-30.918 40.763-5.085 3.367-6.021 10.455-2.01 15.049l24.736 28.331c5.951 6.854 16.909 5.621 21.204-2.375 7.262-13.52 17.379-34.096 24.867-56.219 1.346-3.977.37-8.365-2.469-11.459z" fill="#fc90ce"/><path d="m465.304 394.406c-2.182-8.573-4.835-16.198-8.025-22.579-6.055-12.11-13.876-20.837-21.918-27.141-15.243 12.205-38.109 36.004-38.109 68.969v53.543c27.35-19.332 50.563-44.123 68.052-72.792z" fill="#fc90ce"/><path d="m76.639 344.686c-8.041 6.304-15.863 15.031-21.918 27.141-3.19 6.381-5.843 14.005-8.025 22.579 17.489 28.669 40.702 53.461 68.052 72.792 0-18.439 0-37.503 0-53.543 0-32.965-22.866-56.764-38.109-68.969z" fill="#ff54b6"/><path d="m135.047 228.586c1.37 5.179 4.913 9.454 9.634 11.566.176.079.353.158.53.236 26.443 11.756 55.143 17.575 84.082 17.575h53.415c28.938 0 57.637-5.819 84.08-17.574.177-.079.354-.158.531-.237 4.721-2.112 8.264-6.388 9.634-11.567 3.627-13.706 5.516-27.343 6.265-41.207 4.225-77.987-25.068-128.355-55.055-160.148-18.56-19.678-41.7-33.675-64.889-24.191-4.664 1.907-9.885 1.907-14.549 0-23.189-9.483-46.329 4.514-64.888 24.191-29.987 31.793-59.28 82.161-55.055 160.148.755 13.888 2.63 27.474 6.265 41.208z" fill="#56415e"/><path d="m183.837 27.23c-29.987 31.793-59.28 82.161-55.055 160.148.756 13.888 2.63 27.473 6.265 41.207 1.37 5.179 4.913 9.454 9.634 11.567.176.079.353.158.53.236 26.443 11.756 55.143 17.575 84.082 17.575h53.415c28.938 0 57.637-5.819 84.08-17.574.177-.079.354-.158.531-.237 4.721-2.112 8.264-6.388 9.634-11.567 1.943-7.341 3.374-14.665 4.411-22.013-26.535 6.239-31.507-22.953-31.507-22.953l-128.855-70.397c-22.859-53.092 27.723-110.183 27.723-110.183-23.188-9.483-46.329 4.514-64.888 24.191z" fill="#45304c"/><path d="m173.807 133.152c-.674.115-1.354.226-2.038.331-14.121 2.172-22.509 16.923-17.444 30.281.03.08.06.159.09.238 1.027 2.731 1.689 5.494 1.99 8.262.651 6.014 3.911 14.816 17.432 14.609-.205-.867-.414-1.72-.614-2.6 0 0-5.004-31.711.584-51.121z" fill="#fc9460"/><path d="m338.192 133.152c5.589 19.41.584 51.121.584 51.121-.2.881-.409 1.734-.613 2.6 13.52.208 16.781-8.595 17.432-14.609.299-2.768.962-5.531 1.989-8.262.03-.079.06-.158.09-.238 5.065-13.359-3.323-28.109-17.444-30.281-.684-.105-1.363-.216-2.038-.331z" fill="#ffaa7b"/><path d="m220.646 162.902c2.913 25.556 10.947 61.33 32.68 86.628 10.338 12.034 22.882 20.717 37.467 26.01 9.886-7.56 18.199-16.872 24.538-27.636 10.382-17.63 18.484-38.988 24.076-63.483 1.971-11.364 3.845-35.398-.575-51.157-32.36-5.36-53.415-22.188-66.296-37.44-8.661-10.255-24.413-10.255-33.074 0-5.254 6.221-11.87 12.705-20.058 18.565-.369 5.125-1.469 24.73 1.242 48.513z" fill="#ffc7ab"/><path d="m346.594 431.306h-47.844c-6.79 0-12.347 5.556-12.347 12.347v66.47c25.617-3.171 50.002-10.303 72.537-20.753v-45.717c.001-6.791-5.555-12.347-12.346-12.347z" fill="#fc90ce"/><path d="m424.632 89.272c-11.418 13.391-19.854 32.32-13.299 57.129 21.667 81.998-27.707 119.651 12 148.737 25.265 18.508 49.133 30.753 64.277 51.927 8.674-25.091 13.392-52.027 13.392-80.067 0-69.969-29.334-133.082-76.37-177.726z" fill="#9589e8"/><path d="m87.368 89.272c11.418 13.391 19.854 32.32 13.299 57.129-21.667 81.998 27.707 119.651-12 148.737-25.265 18.508-49.133 30.753-64.277 51.927-8.674-25.091-13.391-52.027-13.391-80.067-.001-69.969 29.333-133.082 76.369-177.726z" fill="#9589e8"/><path d="m269.172 288.16c8.39-3.602 16.1-8.21 23.009-13.691-83.516-29.311-71.179-161.246-71.179-161.246l-.001-.001c-12.11 9.012-27.804 16.725-47.834 20.043-4.42 15.759-2.546 39.793-.575 51.157 5.593 24.494 13.695 45.852 24.077 63.483 10.54 17.897 26.501 31.817 46.159 40.256 4.191 1.798 8.675 2.73 13.173 2.817 4.497-.088 8.98-1.02 13.171-2.818z" fill="#ffaa7b"/></g></svg>