<svg id="Layer_1" enable-background="new 0 0 512 512" height="512" viewBox="0 0 512 512" width="512" xmlns="http://www.w3.org/2000/svg"><g><path d="m45.198 391.892 421.605-.001c21.716-36.574 34.199-79.273 34.199-124.894 0-135.311-109.691-245.002-245.002-245.002s-245.002 109.691-245.002 245.002c0 45.622 12.484 88.321 34.2 124.895z" fill="#7e6dd1"/><path d="m355.306 71.72c-22.874-72.671-99.306-71.719-99.306-71.719s-76.432-.951-99.306 71.719c-17.156 54.503-13.853 109.659-21.203 153.076-4.532 26.769 14.112 52.018 40.986 55.879 19.152 2.752 44.942 4.725 79.523 4.725s60.37-1.973 79.523-4.725c26.874-3.861 45.518-29.111 40.986-55.879-7.35-43.417-4.047-98.574-21.203-153.076z" fill="#56415e"/><path d="m256 .001s-76.432-.951-99.306 71.719c-17.156 54.503-13.853 109.659-21.203 153.076-4.532 26.769 14.112 52.018 40.986 55.879 19.153 2.752 44.942 4.725 79.523 4.725s60.37-1.973 79.523-4.725c26.874-3.861 45.518-29.111 40.986-55.879-35.335 18.129-46.602-8.644-46.602-8.644s-65.396-92.818-96.429-140.305c-31.032-47.488 22.522-75.846 22.522-75.846z" fill="#45304c"/><path d="m318.343 306.537c.259-2.584 1.413-4.777 3.073-6.387-13.05-7.793-22.37-17.217-22.37-28.248 0-5.982 0-4.19 0-8.063-10.43 9.324-28.316 21.203-43.046 21.56-14.73-.357-32.616-12.236-43.045-21.56v8.063c0 10.674-8.732 19.843-21.122 27.487 1.701 1.581 2.88 3.763 3.112 6.367 2.019 22.588 14.373 44.586 36.717 65.383 6.609 6.153.711 17.356-8.629 14.816-1.254-.343-2.585-.716-3.975-1.117-.986-.285-1.989.453-1.989 1.496v13.373c5.611 3.271 11.458 6.238 17.531 8.866 14.048 6.075 30.154 6.076 44.2 0 5.571-2.41 10.947-5.112 16.13-8.065v-13.785c0-1.031-.987-1.78-1.982-1.498-.9.255-1.78.501-2.618.73-9.322 2.543-15.247-8.655-8.63-14.816 22.081-20.55 34.408-42.285 36.643-64.602z" fill="#ffd9a1"/><path d="m212.955 271.902c0 10.674-8.732 19.843-21.122 27.487 1.701 1.581 2.88 3.763 3.112 6.367 1.347 15.071 7.302 29.879 17.749 44.244.576-.062 1.162-.145 1.76-.253 39.091-7.066 41.546-64.348 41.546-64.348-14.73-.356-32.616-12.236-43.045-21.56z" fill="#f9c98a"/><path d="m294.931 398.433c-5.184 2.953-10.559 5.655-16.13 8.065-14.045 6.076-30.152 6.075-44.2 0-6.074-2.628-11.92-5.595-17.532-8.866v111.277c12.681 2.025 25.681 3.091 38.931 3.091 13.251 0 26.251-1.066 38.931-3.091z" fill="#6c5475"/><path d="m188.752 354.836c-4.402 10.56-5.818 15.386-6.262 17.52-4.35.343-19.602 1.834-34.684 6.746-23.917 7.792-36.56 20.605-36.56 37.056v48.486c33.19 24.349 72.728 40.553 115.685 45.632v-142.512l-35.086-17.957c-1.226 1.384-2.268 3.05-3.093 5.029z" fill="#ff7186"/><path d="m193.221 350.51-56.988-29.167c-15.466 4.201-27.093 6.325-27.093 6.325-12.649 2.429-40.411 11.263-56.229 42.899-3.036 6.072-5.584 13.271-7.712 21.326 17.229 29.017 40.291 54.151 67.549 73.834 0-13.685 0-31.422 0-49.569 0-38.49 71.049-42.391 71.049-42.391s-.184-2.702 6.341-18.354c.854-2.051 1.906-3.652 3.083-4.903z" fill="#ff4155"/><path d="m466.803 391.892c-2.128-8.055-4.676-15.254-7.712-21.326-15.819-31.636-43.581-40.47-56.23-42.899 0 0-10.342-1.888-24.494-5.628l-93.298 46.713v141.523c77.391-9.149 143.723-54.365 181.734-118.383z" fill="#ff7186"/><path d="m290.741 387.458c18.502-5.045 52.497-16.377 78.066-36.743 3.007-2.396 5.682-5.046 8.021-7.895 9.341-11.379 4.158-28.645-9.892-33.043-11.033-3.454-22.784-7.75-33.274-12.878-7.399-3.617-16.048 1.289-16.868 9.485-1.791 17.893-10.793 40.014-36.152 63.617-2.947 2.743-4.109 7.05-2.682 11.06 1.831 5.146 7.509 7.834 12.781 6.397z" fill="#d3dcfb"/><path d="m232.723 370c-8.356-7.777-14.927-15.392-20.058-22.75-3.353-1.386-9.492-3.244-15.092-1.311-3.961 1.366-6.928 4.359-8.82 8.898-4.402 10.56-5.818 15.386-6.262 17.52-.416.033-.933.076-1.539.132 15.955 7.305 31.264 12.132 41.672 14.97 5.271 1.438 10.949-1.251 12.781-6.398 1.427-4.012.265-8.318-2.682-11.061z" fill="#d3dcfb"/><path d="m196.496 305.618c-.735-8.222-9.628-12.974-17.014-9.287-10.469 5.226-22.29 9.608-33.442 13.137-13.973 4.421-19.003 21.575-9.803 32.985 2.41 2.988 5.184 5.764 8.32 8.262 12.044 9.593 25.956 17.18 39.239 23.052-.001-.018-.163-2.752 6.341-18.353 6.524-15.651 24.315-5.666 24.317-5.665-11.967-16.245-16.811-31.301-17.958-44.131z" fill="#bec8f7"/><path d="m190.137 445.884c-4.872 0-8.857-3.986-8.857-8.857v-72.757c0-4.871 3.986-8.857 8.857-8.857 4.872 0 8.857 3.986 8.857 8.857v72.757c0 4.871-3.985 8.857-8.857 8.857z" fill="#deeeff"/><path d="m321.863 445.884c-4.872 0-8.857-3.986-8.857-8.857v-72.757c0-4.871 3.986-8.857 8.857-8.857 4.872 0 8.857 3.986 8.857 8.857v72.757c.001 4.871-3.985 8.857-8.857 8.857z" fill="#deeeff"/><path d="m419.776 84.794c-12.029 10.951-24.282 29.431-19.438 57.533 8.178 47.444-2.645 163.175 95.607 174.404 3.314-16.059 5.057-32.691 5.057-49.732 0-72.345-31.364-137.357-81.226-182.205z" fill="#9589e8"/><path d="m92.224 84.794c12.029 10.951 24.282 29.431 19.438 57.533-8.178 47.444 2.645 163.175-95.606 174.404-3.314-16.059-5.057-32.691-5.057-49.732-.001-72.345 31.363-137.357 81.225-182.205z" fill="#9589e8"/><path d="m435.825 433.339c-5.119-18.997-17.039-30.118-26.751-36.258-6.251-3.952-14.402.496-14.402 7.892v63.987c15.014-10.328 28.813-22.287 41.153-35.621z" fill="#ff4155"/><path d="m361.73 136.423c-1.26-.555-2.74-.467-3.865.327-5.067 3.578-11.741 3.973-17.227 1.271 2.688 19.177-1.119 43.304-1.119 43.304-.202.889-.413 1.749-.619 2.624 13.642.21 16.932-8.672 17.589-14.74.302-2.793.971-5.58 2.007-8.336 2.139-5.688 5.748-13.475 5.659-20.812-.019-1.581-.978-3.001-2.425-3.638z" fill="#ffd9a1"/><path d="m341.365 138.348c-2.449-1.067-4.697-2.709-6.495-4.96-7.74-9.692-20.07-28.512-26.096-55.807-.522-2.367-3.019-3.729-5.269-2.827-8.177 3.278-27.665 8.757-55.156 1.541-6.609-1.735-11.977-1.579-16.424.048-5.269 23.092-25.272 140.397 49.673 203.798 14.327-8.516 26.114-20.296 34.479-34.612 10.392-17.784 18.504-39.335 24.114-64.098 1.578-10.028 3.218-28.193 1.174-43.083z" fill="#fce6ca"/><path d="m233.478 75.846c-29.795 8.216-20.269 78.769-51.49 106.982-5.059 4.572-6.99 11.678-5.012 18.203 5.051 16.664 11.392 31.576 18.942 44.497 10.552 18.058 26.532 32.103 46.212 40.618 8.815 3.812 18.922 3.813 27.735 0 4.541-1.965 8.875-4.237 13.001-6.772-78.356-64.707-53.236-188.702-49.388-203.528z" fill="#ffd9a1"/></g></svg>