<svg id="Layer_1" enable-background="new 0 0 512 512" height="512" viewBox="0 0 512 512" width="512" xmlns="http://www.w3.org/2000/svg"><g><path d="m41.757 385.906h428.486c19.587-35.215 30.759-75.754 30.759-118.908 0-135.311-109.691-245.002-245.002-245.002s-245.002 109.691-245.002 245.002c0 43.154 11.172 83.693 30.759 118.908z" fill="#49b1f7"/><path d="m336.483 288.817c-15.637-10.501-41.58-22.245-79.468-22.245-38.238 0-64.317 11.967-79.909 22.544v.488c2.693-1.085 5.811-1.044 8.58.363 13.009 6.616 39.8 17.889 71.329 17.889s58.306-11.258 71.306-17.865c2.627-1.335 5.568-1.434 8.163-.513v-.661z" fill="#ffb332"/><path d="m235.799 347.411s14.135 6.201 20.201 15.097c6.066-8.896 20.201-15.097 20.201-15.097l58.284-29.644c-4.214-1.247-8.485-2.388-12.842-3.394-10.152-10.152-12.726-29.399-13.189-42.865-5.298 6.171-10.858 11.333-16.171 15.459-10.352 8.039-23.125 12.405-36.282 12.405-13.156 0-25.93-4.366-36.281-12.405-5.313-4.126-10.874-9.288-16.172-15.459-.464 13.466-3.037 32.713-13.19 42.865-4.357 1.005-8.628 2.147-12.842 3.394z" fill="#fc9460"/><path d="m236.901 345.75-14.195-7.22c-.342 6.574.831 14.147 4.665 22.579-8.828.611-40.203 4.886-52.168 34.668-.288.003-.651.008-1.048.016l5.155 103.948c24.127 7.945 49.903 12.259 76.69 12.259.858 0 1.711-.024 2.568-.032 0-54.688 0-136.519 0-144.551 0-12.167-21.667-21.667-21.667-21.667z" fill="#bec8f7"/><path d="m229.699 362.508c-4.317-8.658-5.79-16.43-5.549-23.243l-43.868-22.312c-3.335.939-6.629 1.952-9.887 3.038l3.834 77.299c1.284-.022 1.999-.017 1.999-.017 13.341-35.042 53.471-34.765 53.471-34.765z" fill="#a8b7ef"/><path d="m275.099 345.75s-21.667 9.5-21.667 21.667v144.551c.856.009 1.709.032 2.568.032 26.787 0 52.563-4.314 76.69-12.259l8.915-179.75c-3.258-1.086-6.552-2.098-9.887-3.038z" fill="#d3dcfb"/><path d="m293.266 444.997v64.187c13.54-2.066 26.709-5.255 39.424-9.443l3.31-66.744h-30.734c-6.6 0-12 5.4-12 12z" fill="#deeeff"/><path d="m436.934 354.268c-3.432-1.619-7.108-3.006-11.018-4.161l-54.981-26.168-8.114 163.601c45.408-22.034 82.975-57.682 107.422-101.634-7.456-13.042-18.113-24.47-33.309-31.638z" fill="#6c5475"/><path d="m340.067 310.66-9.41 189.741c11.232-3.59 22.114-7.963 32.576-13.065l8.095-163.21-9.751-4.641c-7.029-3.104-14.182-6.445-21.51-8.825z" fill="#876d93"/><path d="m105.156 414.961c-5.155 5.115-7.769 11.184-7.769 18.035v20.716c15.731 13.38 33.171 24.812 51.955 33.91l-4.419-89.095c-18.617 3.196-31.99 8.716-39.767 16.434z" fill="#6c5475"/><path d="m141.221 323.865-55.137 26.242c-3.909 1.154-7.586 2.542-11.018 4.161-15.196 7.168-25.853 18.596-33.309 31.638 14.688 26.407 34.116 49.811 57.131 69.072 0-6.545 0-13.893 0-21.981 0-20.501 24.644-29.239 46.111-32.963z" fill="#56415e"/><path d="m175.203 395.777c-3.352.034-14.397.298-26.975 2.21-1.312.2-2.598.411-3.862.632l4.4 88.716c10.463 5.102 21.344 9.475 32.576 13.064l-5.287-106.593c-.289.65-.581 1.297-.852 1.971z" fill="#876d93"/><path d="m171.933 310.66c-7.328 2.38-14.481 5.721-21.51 8.826l-9.751 4.641 3.77 76.006c16.787-2.973 31.787-2.859 31.787-2.859z" fill="#6c5475"/><g><path d="m238.457 23.332c-52.68 7.178-57.687 37.046-57.71 48.004-.005 2.298-1.278 4.428-3.344 5.433-27.403 13.331-12.629 79.578-12.629 79.578 2.752.184 7.632 1.298 9.78 2.339.526-3.274 1.385-8.497 2.598-11.612.924-2.374 2.079-4.772 3.523-7.038 2.506-3.932 3.647-8.569 3.307-13.206-.985-13.403-2.51-37.813 15.182-45.774 14.988-6.744 33.374-2.839 45.098 1.06 7.614 2.532 15.863 2.532 23.477 0 11.725-3.899 30.11-7.804 45.098-1.06 17.641 7.938 16.164 32.221 15.19 45.659-.339 4.672.772 9.358 3.297 13.32 1.491 2.339 2.674 4.819 3.613 7.268 1.167 3.044 1.997 8.19 2.51 11.384 2.708-1.312 8.578-2.741 11.889-2.273.405-14.048 1.702-31.193 1.702-31.193 15.611-76.462-55.859-109.617-112.581-101.889z" fill="#f9f0e1"/></g><path d="m355.256 156.237c-4.103-3.76-13.276-1.854-16.81.448.774 4.821.818 9.753.149 14.623l-4.17 30.372c0 2.448-.077 4.85-.219 7.211 10.169 3.067 16.22-6.062 17.071-12.327.366-2.697.965-5.355 1.796-7.949 2.705-8.447 12.463-22.957 2.183-32.378z" fill="#ffaa7b"/><path d="m156.744 156.237c4.103-3.76 13.276-1.854 16.81.448-.774 4.821-.818 9.753-.149 14.623l4.17 30.372c0 2.448.077 4.85.219 7.211-10.169 3.067-16.22-6.062-17.071-12.327-.366-2.697-.965-5.355-1.796-7.949-2.705-8.447-12.463-22.957-2.183-32.378z" fill="#fc9460"/><path d="m336.936 147.302c-.938-2.449-2.122-4.929-3.612-7.268-2.525-3.962-3.636-8.648-3.298-13.32.974-13.438.452-39.721-17.19-47.659-14.987-6.744-33.372-2.839-45.096 1.059-7.614 2.532-15.866 2.532-23.48 0-.345-.115-.698-.229-1.054-.344-13.46 10.297-13.788 33.519-12.879 45.887.347 4.724-.816 9.449-3.369 13.454-1.471 2.309-2.648 4.752-3.59 7.17-3.054 7.845-3.944 16.354-2.8 24.685l4.249 30.95c0 44.495 23.752 74.739 43.956 90.428 3.028 2.351 6.271 4.368 9.658 6.083 4.93-2.015 9.597-4.686 13.85-7.989 19.831-15.399 43.145-45.085 43.145-88.758l4.17-30.372c1.112-8.096.269-16.366-2.66-24.006z" fill="#ffc7ab"/><g><path d="m268.992 290.439c-19.831-15.399-43.145-45.085-43.145-88.758l-4.171-30.379c-1.123-8.177-.249-16.529 2.749-24.229.924-2.374 2.079-4.772 3.523-7.038 2.506-3.932 3.647-8.57 3.307-13.206-.93-12.661-.549-36.921 14.408-46.279-.47-.136-.938-.281-1.403-.435-11.725-3.899-30.109-7.803-45.096-1.059-17.692 7.96-18.166 34.371-17.182 47.774.341 4.636-.8 9.274-3.307 13.206-1.444 2.266-2.6 4.664-3.523 7.038-2.997 7.7-3.871 16.052-2.749 24.229l4.171 30.379c0 43.674 23.314 73.359 43.145 88.758 10.351 8.038 23.125 12.404 36.281 12.404 8.563 0 16.96-1.861 24.637-5.369-4.118-1.882-8.031-4.23-11.645-7.036z" fill="#ffaa7b"/></g><path d="m286.844 354.059v87.241c0 7.872 6.441 14.313 14.313 14.313h26.241c7.872 0 14.313-6.441 14.313-14.313v-111.785c-12.55 10.23-30.635 20.609-54.867 24.544z" fill="#ffc839"/><path d="m286.844 441.3c0 7.872 6.441 14.313 14.313 14.313h18.18c-3.931-3.851-4.704-9.549-4.704-9.549s0-41 0-56.75c0-10.55 16.305-16.945 27.077-20.522v-39.278c-12.55 10.229-30.635 20.609-54.867 24.544v87.242z" fill="#ffb332"/><path d="m351.557 308.773-9.62-15.953c-2.815-4.668-8.757-6.398-13.617-3.928-13 6.607-39.777 17.865-71.306 17.865-5.72 0-11.281-.375-16.636-1.022-2.499 1.962-8.003 6.809-12.255 14.348-4.959 8.793-8.98 22.934-.753 41.026-.7.048-1.555.124-2.518.229 9.583 2.528 20.285 4.059 32.161 4.059 53.937 0 83.698-31.522 93.92-44.935 2.591-3.397 2.831-8.03.624-11.689z" fill="#ffdd40"/><path d="m172.063 292.8-9.61 15.956c-2.203 3.658-1.962 8.288.626 11.684 8.343 10.949 29.715 33.968 66.618 42.062-17.849-35.803 12.857-56.518 12.857-56.518-25.139-2.653-45.902-11.539-56.869-17.117-4.862-2.472-10.808-.74-13.622 3.933z" fill="#ffc839"/><path d="m423.681 88.386c-15.746 13.879-37.918 40.539-33.318 77.996 7 57-70.231 103.436-.616 125.218 53.274 16.669 85.854 19.411 101.513 43.98 6.337-21.762 9.742-44.773 9.742-68.582 0-70.436-29.734-133.919-77.321-178.612z" fill="#73c3f9"/><path d="m88.32 88.386c15.746 13.879 37.918 40.539 33.318 77.996-7 57 70.231 103.436.616 125.218-53.274 16.669-85.854 19.411-101.513 43.98-6.337-21.762-9.742-44.773-9.742-68.582-.001-70.436 29.733-133.919 77.321-178.612z" fill="#73c3f9"/><path d="m437.43 431.627c-5.99-11.988-14.809-19.676-22.301-24.412-6.251-3.952-14.401.497-14.401 7.892v49.573c13.32-9.77 25.621-20.846 36.702-33.053z" fill="#56415e"/><g><path d="m240.207 38.204c-.107.674-.216 1.338-.328 1.992-3.015 17.6 10.397 33.716 28.254 33.716h80.746c-3.73-7.117-8.589-13.725-14.403-19.659-5.059-5.163-9.289-11.008-13.06-17.111-11.571-18.726-30.408-32.155-52.389-36.007-9.205 6.166-26.055 19.63-28.82 37.069z" fill="#876d93"/><path d="m347.605 71.577h-79.045c-16.713 0-29.267-15.084-26.445-31.557.105-.612.207-1.234.307-1.864 2.886-18.205 22.178-31.787 29.643-36.42-5.184-1.132-10.556-1.736-16.065-1.736-27.481 0-51.615 14.807-65.416 37.142-3.771 6.103-8.001 11.948-13.06 17.111-10.576 10.794-18.016 23.81-21.182 38.08h199.316c-1.618-7.29-4.357-14.249-8.053-20.756z" fill="#6c5475"/><path d="m357.143 90.333h-125.581c-4.111 4.143-19.904 22.5-1.979 44.447h127.56c5.971 0 10.857-4.886 10.857-10.857v-22.733c0-5.971-4.886-10.857-10.857-10.857z" fill="#a98bbc"/><path d="m144 101.19v22.732c0 5.971 4.886 10.857 10.857 10.857h75.536c-20.868-24.423 2.085-44.447 2.085-44.447h-77.622c-5.97.001-10.856 4.887-10.856 10.858z" fill="#876d93"/></g></g></svg>