<svg id="Layer_1" enable-background="new 0 0 512 512" height="512" viewBox="0 0 512 512" width="512" xmlns="http://www.w3.org/2000/svg"><g><path d="m52.229 403.051h407.543c26.038-38.92 41.23-85.71 41.23-136.053 0-135.311-109.691-245.002-245.002-245.002s-245.002 109.691-245.002 245.002c0 50.343 15.193 97.133 41.231 136.053z" fill="#49b1f7"/><path d="m385.543 341.703c.805-31.549-8.977-62.086-17.762-82.875-7.335-17.357-8.745-36.602-4.19-54.886 6.703-26.908 9.414-68.227-2.745-109.424-12.248-41.5-35.663-56.5-55.47-60.485-1.851-.373-3.513-1.352-4.9-2.633-5.361-4.954-21.339-16.881-50.919-16.881-33.717 0-120.038 26.124-105.442 164.512.908 8.607 1.439 17.25 1.441 25.905l.001 2.583c0 30-23 33-39 84-5.629 17.944-2.589 35.265 3.712 50.185h275.274z" fill="#945230"/><path d="m368.678 260.98c-35.803 16.44-45.272-19.16-45.272-19.16s-43.627-7.839-53.627-55.839c-7.395-35.495-76.389-87.387-111.841-112.02-12.168 24.444-18.749 58.352-13.822 105.069.908 8.607 1.439 17.25 1.441 25.905l.001 2.583c0 30-23 33-39 84-5.629 17.944-2.589 35.265 3.712 50.185h275.273c.777-30.479-8.325-60.01-16.865-80.723z" fill="#753616"/><path d="m333.172 297.5c-15.183-10.197-40.375-21.6-77.164-21.6-37.13 0-62.452 11.62-77.592 21.891v.474c2.615-1.054 5.643-1.014 8.331.353 12.632 6.424 38.646 17.371 69.261 17.371s56.615-10.931 69.238-17.347c2.551-1.297 5.406-1.392 7.926-.498z" fill="#ffb332"/><path d="m356.159 146.318c-4.529-4.427-14.598-2.731-19.809.743 5.744 18.796.757 50.357.757 50.357-.194.856-.397 1.685-.596 2.527 13.141.202 16.31-8.353 16.942-14.199.291-2.69.935-5.375 1.933-8.03 3.252-8.646 10.045-22.333.773-31.398z" fill="#ffaa7b"/><path d="m256.007 316.42c21.223 0 40.238-5.188 54.23-10.556-7.765-6.198-12.774-13.265-12.774-21.197 0-5.763 0-4.036 0-7.767-10.046 8.981-27.275 20.424-41.463 20.768-14.189-.344-31.417-11.787-41.463-20.768v7.767c0 7.927-5.004 14.992-12.762 21.187 13.997 5.373 33.014 10.566 54.232 10.566z" fill="#fc9460"/><path d="m451.626 379.705c-15.237-30.473-41.979-38.982-54.163-41.322 0 0-25.087-4.577-50.129-13.604-.295.896-.726 1.758-1.323 2.542-9.862 12.941-38.376 43.042-90.004 43.042-10.452 0-19.941-1.249-28.536-3.325l.011.014s-97.523 2.932-97.523 56.932v53.141c36.824 22.137 79.943 34.875 126.041 34.875 84.968 0 159.825-43.26 203.772-108.949-2.185-8.903-4.873-16.801-8.146-23.346z" fill="#ff9100"/><path d="m165.989 327.297c-.592-.778-1.022-1.633-1.316-2.521-25.045 9.028-50.136 13.606-50.136 13.606-12.185 2.34-38.926 10.849-54.163 41.322-3.272 6.545-5.96 14.444-8.145 23.346 20.535 30.694 47.819 56.49 79.73 75.264 0-13.749 0-31.377 0-52.334 0-54 97.523-56.932 97.523-56.932l-1.518-1.894c-34.165-8.089-54.069-29.48-61.975-39.857z" fill="#f47b03"/><path d="m218.275 151.182c.023.222 2.418 22.556 10.43 48.906 7.421 24.405 21.323 57.375 45.416 75.843 5.443 4.172 11.195 7.431 17.224 9.816 9.321-7.28 17.171-16.199 23.181-26.484 10.01-17.13 17.824-37.89 23.228-61.742 1.895-12.043 3.886-36.273-1.029-51.376-2.917-10.375-1.251-7.333-12.917-19-11.667-11.667-4.349-26.621-17.927-40.198-5.063-5.063-9.738-6.502-13.052-6.721-3.818-.252-7.514-1.352-10.962-3.01-8.983-4.32-27.087-9-47.973 7.802-9.827 7.905-13.978 18.937-16.944 31.472z" fill="#ffc7ab"/><path d="m270.013 298.387c8.289-3.586 15.896-8.191 22.683-13.692-61.407-23.394-72.928-133.67-72.928-133.67l-1.512-39.624c-7.175 25.68-6.214 59.16-40.098 84.959-1.483 1.129-2.158 3.031-1.725 4.844 5.351 22.28 12.856 41.807 22.351 58.058 10.164 17.395 25.557 30.923 44.514 39.125 8.49 3.673 18.225 3.673 26.715 0z" fill="#ffaa7b"/><path d="m106.982 207.877c9.419-39.438-31.304-60.281-59.36-69.771-23.211 37.444-36.625 81.599-36.625 128.892 0 20.328 2.484 40.075 7.152 58.96 65.56-.013 76.673-67.165 88.833-118.081z" fill="#73c3f9"/><path d="m405.017 207.877c-9.419-39.438 31.304-60.281 59.36-69.771 23.211 37.444 36.625 81.599 36.625 128.892 0 20.328-2.484 40.075-7.152 58.96-65.559-.013-76.672-67.165-88.833-118.081z" fill="#73c3f9"/><path d="m426.625 442.805c-5.182-18.736-16.996-29.735-26.634-35.828-6.251-3.952-14.402.496-14.402 7.892v60.081c14.813-9.252 28.567-20.04 41.036-32.145z" fill="#f47b03"/><g><path d="m258.054 90.307c-15.651 0-30.802.335-45.191.96-1.094 5.655-.522 12.951 4.782 21.245-4.373 1.591-14.921 6.29-16.341 14.995-1.162 7.123 4.128 14.97 15.706 23.344 13.143.845 26.889 1.315 41.043 1.315 93.612 0 169.5-20.452 169.5-35.184.002-14.732-75.886-26.675-169.499-26.675z" fill="#ffdd40"/><path d="m88.554 116.982c0 12.66 56.041 29.544 131.213 34.043-38.713-26.613.147-37.738.147-37.738-6.161-8.757-6.782-16.358-5.603-22.082-72.409 3.036-125.757 13.426-125.757 25.777z" fill="#ffc839"/><path d="m276.672 0h-22.685c-3.094 2.36-10.005 8.223-16.987 18.151-8.403 11.951-18.411 32.263-18.538 61.284-.322.377-.806.981-1.36 1.783 13.262.476 27.037.731 41.189.731 38.424 0 74.154-1.85 103.996-5.022-8.662-44.388-43.991-76.927-85.615-76.927z" fill="#fee77f"/><path d="m149.808 76.435c20.415 2.307 43.792 3.978 69.02 4.843.643-.839 1.087-1.288 1.087-1.288 0-56.022 36.549-79.99 36.549-79.99h-21.136c-41.47 0-76.692 32.299-85.52 76.435z" fill="#ffdd40"/><path d="m363.917 88.329c-.387-4.432-1.049-8.765-1.94-12.992-29.328 3.345-65.133 5.313-103.797 5.313-13.795 0-27.212-.256-40.116-.73-2.761 3.456-11.003 16.044-.419 32.593-.464.169-1.008.38-1.592.62 13.435.552 27.499.851 42.001.851 38.734 0 74.426-2.095 102.97-5.619 1.999-.247 3.483-2.014 3.415-4.075z" fill="#ffc839"/><path d="m219.915 79.988c-25.748-.899-49.449-2.684-69.793-5.151-.946 4.384-1.635 8.886-2.038 13.492l-.506 15.441c-.067 2.05 1.4 3.81 3.387 4.071 19.765 2.599 43.243 4.491 68.948 5.444-13.715-19.496.002-33.295.002-33.295 0-.001 0-.001 0-.002z" fill="#ffb332"/></g><path d="m284.972 360.851v84.712c0 7.644 6.254 13.898 13.898 13.898h25.48c7.644 0 13.898-6.254 13.898-13.898v-108.545c-12.186 9.933-29.747 20.012-53.276 23.833z" fill="#ffc839"/><path d="m284.972 445.563c0 7.644 6.254 13.898 13.898 13.898h17.653c-3.817-3.74-4.567-9.272-4.567-9.272s0-39.811 0-55.105c0-10.244 15.832-16.454 26.292-19.927v-38.139c-12.186 9.933-29.747 20.011-53.276 23.832z" fill="#ffb332"/><path d="m347.809 316.878-9.341-15.49c-2.734-4.533-8.503-6.213-13.222-3.815-12.623 6.415-38.624 17.347-69.238 17.347-5.554 0-10.954-.364-16.153-.992-2.427 1.905-7.771 6.612-11.9 13.932-4.815 8.538-8.72 22.269-.731 39.837-.68.047-1.51.12-2.445.223 9.305 2.455 19.697 3.942 31.229 3.942 52.374 0 81.271-30.608 91.197-43.633 2.514-3.3 2.747-7.798.604-11.351z" fill="#ffdd40"/><path d="m173.519 301.368-9.331 15.493c-2.139 3.552-1.905 8.047.608 11.346 8.101 10.632 28.853 32.983 64.686 40.843-17.331-34.765 12.484-54.879 12.484-54.879-24.41-2.576-44.571-11.205-55.22-16.621-4.721-2.402-10.495-.72-13.227 3.818z" fill="#ffc839"/></g></svg>