<svg id="Layer_1" enable-background="new 0 0 512 512" height="512" viewBox="0 0 512 512" width="512" xmlns="http://www.w3.org/2000/svg"><g><path d="m43.683 389.329h424.635c20.786-35.999 32.684-77.774 32.684-122.331 0-135.311-109.691-245.002-245.002-245.002s-245.002 109.691-245.002 245.002c0 44.557 11.898 86.333 32.685 122.331z" fill="#49b1f7"/><path d="m432.314 351.948c-3.534-1.695-7.332-3.143-11.377-4.342l-65.15-24.863c-3.522-1.444-7.073-2.806-10.669-4.072-2.836 3.605-6.956 8.283-12.409 13.198-4.362 56.697-17.67 116.449-29.014 159.501l50.65.063c47.995-21.061 87.955-57.046 113.973-102.106-7.441-15.35-18.78-29.116-36.004-37.379z" fill="#753616"/><path d="m191.841 341.665c-11.039-7.4-18.848-15.503-23.706-21.415l-9.721 59.489s-52.127 14.692-52.127 54.419v26.761c15.558 12.025 32.598 22.226 50.805 30.271l52.054.065c-9.34-48.241-14.495-105.084-17.305-149.59z" fill="#753616"/><path d="m168.705 320.939c-.662-.79-1.277-1.548-1.838-2.261-3.581 1.261-7.119 2.617-10.626 4.055l-65.219 24.886c-4.011 1.191-7.778 2.627-11.286 4.306-17.252 8.26-28.606 22.038-36.053 37.405 16.604 28.756 38.893 53.807 65.318 73.651 0-8.852 0-18.912 0-29.75 0-38 49.861-52.053 49.861-52.053z" fill="#66290e"/><path d="m191.841 341.665c3.147 49.834 9.228 115.146 20.839 166.517 14.061 2.508 28.537 3.818 43.32 3.818 14.717 0 29.13-1.301 43.133-3.788 12.057-43.317 28.611-111.812 33.575-176.342-14.933 13.46-39.958 28.715-76.719 28.715-27.901.001-49.043-8.794-64.148-18.92z" fill="#6c5475"/><path d="m255.989 390.801c34.05 0 58.025-13.089 73.244-25.715 1.441-11.091 2.629-22.21 3.475-33.215-14.933 13.46-39.958 28.715-76.719 28.715-27.901 0-49.043-8.795-64.149-18.921.633 10.016 1.384 20.661 2.275 31.689 14.93 9.489 35.34 17.447 61.874 17.447z" fill="#876d93"/><path d="m133.801 375.196 25.06 5.981c2.958.706 5.705 2.108 8.012 4.09l12.172 10.458-2.251 1.657 2.251.343 23.143-17.902c-1.956-33.416-1.97-55.44-1.97-55.44l-31.577-19.303-39.134 59.248c-2.729 4.132-.521 9.719 4.294 10.868z" fill="#945230"/><path d="m202.078 377.909-23.033 17.817-32.684 24.058c-7.859 5.784-11.078 16.013-7.879 25.232 5.532 15.942 12.022 31.652 18.593 46.174 18.764 8.292 38.763 14.296 59.647 17.662-8.529-48.252-12.655-96.08-14.644-130.943z" fill="#b26847"/><path d="m377.749 375.196-25.06 5.981c-2.958.706-5.705 2.108-8.012 4.09l-12.172 10.458 2.251 1.657-2.251.343-23.143-17.902c1.956-33.416 1.97-55.44 1.97-55.44l31.577-19.303 39.134 59.248c2.73 4.132.522 9.719-4.294 10.868z" fill="#945230"/><path d="m365.19 419.784-32.684-24.058-23.033-17.817c-1.99 34.881-6.12 82.741-14.658 131.019 20.844-3.318 40.808-9.268 59.549-17.493 6.609-14.591 13.141-30.387 18.704-46.419 3.2-9.219-.02-19.448-7.878-25.232z" fill="#b26847"/><path d="m333.154 287.725c-15.183-10.196-40.375-21.6-77.164-21.6-37.13 0-62.452 11.62-77.592 21.891v.474c2.615-1.054 5.643-1.014 8.331.353 12.632 6.424 38.646 17.371 69.261 17.371s56.615-10.931 69.238-17.347c2.551-1.297 5.407-1.392 7.926-.498z" fill="#bec8f7"/><path d="m255.989 306.645c22.365 0 42.274-5.763 56.441-11.424-2.727-8.766-3.709-18.462-3.977-26.237-5.298 6.171-10.858 11.333-16.171 15.458-10.352 8.039-23.125 12.405-36.282 12.405-13.156 0-25.93-4.366-36.281-12.405-5.313-4.126-10.874-9.288-16.172-15.458-.268 7.775-1.25 17.471-3.977 26.237 14.171 5.664 34.073 11.424 56.419 11.424z" fill="#fc9460"/><path d="m256 19.714c-51.769 0-94.125 42.356-94.125 94.125v43.869h188.25v-43.869c0-51.769-42.356-94.125-94.125-94.125z" fill="#f9f0e1"/><path d="m355.256 153.712c-4.103-3.76-13.276-1.854-16.81.448.775 4.821.819 9.753.15 14.623l-4.17 30.372c0 2.448-.077 4.85-.219 7.211 10.169 3.067 16.22-6.062 17.071-12.327.366-2.697.965-5.355 1.796-7.949 2.704-8.447 12.462-22.957 2.182-32.378z" fill="#ffaa7b"/><path d="m156.744 153.712c4.103-3.76 13.276-1.854 16.81.448-.774 4.821-.818 9.753-.149 14.623l4.17 30.372c0 2.448.077 4.85.219 7.211-10.169 3.067-16.22-6.062-17.071-12.327-.366-2.697-.965-5.355-1.796-7.949-2.705-8.447-12.463-22.957-2.183-32.378z" fill="#fc9460"/><path d="m336.937 144.777c-.939-2.449-2.122-4.929-3.613-7.268-2.525-3.962-3.636-8.648-3.298-13.32.974-13.438.452-39.721-17.19-47.659-14.987-6.744-33.372-2.839-45.096 1.06-7.381 2.454-15.36 2.522-22.777.218-11.632 11.086-11.885 32.806-11.014 44.659.351 4.773-.824 9.548-3.404 13.595-1.487 2.333-2.676 4.801-3.627 7.245-3.086 7.928-3.986 16.525-2.83 24.944l4.294 31.275c0 44.962 24.001 75.523 44.417 91.376 2.156 1.674 4.422 3.178 6.766 4.534 4.513-1.955 8.789-4.472 12.716-7.522 19.831-15.399 43.145-45.085 43.145-88.758l4.17-30.372c1.112-8.097.269-16.367-2.659-24.007z" fill="#ffc7ab"/><g><path d="m273.082 287.914c-19.831-15.399-43.144-45.085-43.144-88.758l-4.171-30.379c-1.123-8.177-.249-16.529 2.749-24.229.924-2.374 2.079-4.772 3.523-7.038 2.506-3.932 3.647-8.57 3.307-13.206-.907-12.344-.564-35.711 13.316-45.546-1.484-.298-2.954-.687-4.401-1.168-11.725-3.899-30.109-7.803-45.096-1.06-17.691 7.96-18.166 34.371-17.182 47.774.341 4.636-.801 9.274-3.307 13.206-1.444 2.266-2.599 4.664-3.523 7.038-2.997 7.701-3.871 16.052-2.749 24.229l4.171 30.379c0 43.674 23.314 73.359 43.144 88.758 10.351 8.038 23.125 12.404 36.281 12.404 9.33 0 18.463-2.206 26.681-6.351-3.369-1.698-6.589-3.715-9.599-6.053z" fill="#ffaa7b"/></g><path d="m314.66 219.374c-10.052 1.194-26.159.861-39.361-9.8-5.735-4.632-13.879-2.702-17.553 2.942-.808 1.241-2.684 1.241-3.492 0-3.675-5.646-11.817-7.575-17.553-2.943-13.201 10.662-29.308 10.994-39.36 9.8-2.752-.327-4.206 3.188-2.006 4.873 21.583 16.534 42.372 11.033 54.007 5.386.036-.017.072-.035.107-.053 4.153-2.066 8.951-2.066 13.104 0 .036.018.071.035.107.053 11.635 5.647 32.423 11.148 54.007-5.386 2.199-1.684.744-5.199-2.007-4.872z" fill="#f9f0e1"/><path d="m322.045 4.831c-7.727-7.727-19.436-4.893-32.535-.442-13.567 4.609-27.848 6.34-41.951 5.194-6.738 2.318-18.578 8.828-21.729 26.384-4.153 23.144-6.661 50.778-6.817 52.528-.055.273-.201 1.062-.346 2.217h116.174c6.029 0 11.834-.521 17.367-1.385-8.096-31.107-20.83-75.163-30.163-84.496z" fill="#b26847"/><path d="m227.307 36.231c4.307-24 25.189-26.369 25.189-26.369l-.003-.008c-10.149-.342-20.26-2.156-30.003-5.466-13.099-4.451-24.808-7.284-32.535.442-9.333 9.333-22.066 53.388-30.162 84.495 5.535.863 11.342 1.385 17.373 1.385h43.001c.171-1.253.333-2 .333-2s2.5-28.479 6.807-52.479z" fill="#945230"/><path d="m351.626 87.102c-5.955 1-12.241 1.609-18.786 1.609-4.361 0-69.738 0-113.869 0-.512 2.747-3.604 22.287 10.071 30.414-.516.472-1.098 1.051-1.692 1.722h105.49c9.414 0 18.307-1.242 26.42-3.128-1.28-5.427-4.042-16.92-7.634-30.617z" fill="#945230"/><path d="m220.5 88.711c-22.051 0-39.147 0-41.334 0-6.547 0-12.835-.61-18.792-1.61-3.592 13.697-6.354 25.189-7.634 30.618 8.115 1.887 17.01 3.129 26.426 3.129h50.253c1.291-1.283 2.331-2 2.331-2-16.25-7.384-11.25-30.137-11.25-30.137z" fill="#753616"/><path d="m400.504 111.5c-2.917-5.242-9.379-7.394-14.827-4.884-12.825 5.91-31.524 12.23-52.837 12.23-4.053 0-60.806 0-104.228 0 .145.091.281.189.43.278-2.176 1.992-5.534 5.834-6.002 10.894-.375 4.05 1.187 8.017 4.599 11.812h105.201c25.417 0 47.342-7.317 62.485-14.303 6.062-2.796 8.425-10.193 5.179-16.027z" fill="#b26847"/><path d="m231.75 118.847c-27.273 0-50.037 0-52.584 0-21.29 0-39.971-6.307-52.795-12.211-5.429-2.5-11.87-.366-14.798 4.845-3.279 5.837-.923 13.266 5.157 16.069 15.141 6.98 37.047 14.281 62.436 14.281h50.517c-12.796-12.796 2.067-22.984 2.067-22.984z" fill="#945230"/><path d="m501.002 266.998c0-45.531-12.435-88.151-34.072-124.678-18.819-1.912-45.265 1.095-64.967 21.626-32.481 33.848-70.275 121.899 11.037 140.067 37.82 8.451 61.871 23.148 76.784 36.455 7.284-23.194 11.218-47.872 11.218-73.47z" fill="#73c3f9"/><path d="m10.998 266.998c0-45.531 12.435-88.151 34.072-124.678 18.819-1.912 45.265 1.095 64.967 21.626 32.481 33.848 70.275 121.899-11.037 140.067-37.82 8.451-61.871 23.148-76.784 36.455-7.284-23.194-11.218-47.872-11.218-73.47z" fill="#73c3f9"/><path d="m441.711 426.777c-5.944-13.819-15.638-22.435-23.769-27.576-6.251-3.952-14.401.496-14.401 7.892v55.482c13.965-10.548 26.762-22.556 38.17-35.798z" fill="#66290e"/><g><path d="m284.953 351.076v84.712c0 7.644 6.254 13.898 13.898 13.898h25.48c7.644 0 13.898-6.254 13.898-13.898v-108.545c-12.185 9.933-29.746 20.012-53.276 23.833z" fill="#d3dcfb"/><path d="m284.953 435.788c0 7.644 6.254 13.898 13.898 13.898h17.653c-3.817-3.74-4.567-9.272-4.567-9.272s0-39.811 0-55.105c0-10.244 15.832-16.454 26.292-19.927v-38.139c-12.186 9.933-29.747 20.011-53.276 23.832z" fill="#bec8f7"/><path d="m347.791 307.103-9.341-15.49c-2.734-4.533-8.503-6.213-13.222-3.815-12.623 6.415-38.624 17.347-69.238 17.347-5.554 0-10.954-.364-16.153-.992-2.427 1.905-7.771 6.612-11.9 13.932-4.815 8.538-8.72 22.269-.731 39.837-.68.047-1.51.12-2.445.223 9.305 2.454 19.696 3.942 31.229 3.942 52.374 0 81.271-30.608 91.197-43.633 2.514-3.3 2.746-7.799.604-11.351z" fill="#deeeff"/><path d="m173.5 291.593-9.331 15.493c-2.139 3.552-1.905 8.047.608 11.345 8.101 10.632 28.853 32.983 64.686 40.843-17.331-34.765 12.484-54.879 12.484-54.879-24.41-2.576-44.571-11.205-55.22-16.621-4.72-2.401-10.494-.719-13.227 3.819z" fill="#d3dcfb"/></g><path d="m230.549 213.725c-11.779 6.572-24.675 6.663-33.209 5.649-2.752-.327-4.206 3.188-2.006 4.873 14.596 11.181 28.823 12.281 40.107 10.077-8.803-5.608-6.643-15.677-4.892-20.599z" fill="#efe1cb"/></g></svg>