<svg id="Layer_1" enable-background="new 0 0 512 512" height="512" viewBox="0 0 512 512" width="512" xmlns="http://www.w3.org/2000/svg"><g><path d="m47.316 395.399h417.368c23.023-37.339 36.318-81.315 36.318-128.401 0-135.311-109.691-245.002-245.002-245.002s-245.002 109.691-245.002 245.002c0 47.087 13.295 91.062 36.318 128.401z" fill="#ff9100"/><path d="m415.765 235.677c0-13.431-5.707-25.523-14.827-33.994-11.217-10.419-13.833-25.369-9.815-37.59 14.957-45.487-18.557-61.983-40.109-118.964-18.742-49.548-71.762-46.416-88.914-43.995-2.022.285-4.062.393-6.1.357-2.038.036-4.078-.072-6.1-.357-17.153-2.42-70.173-5.553-88.914 43.996-21.553 56.98-55.066 73.477-40.11 118.964 4.018 12.22 1.403 27.171-9.815 37.59-9.12 8.471-14.827 20.563-14.827 33.994 0 8.778 2.439 16.985 6.676 23.983 5.312 8.775 7.764 19.027 6.642 29.224-1.448 13.169.866 28.043 11.731 42.259h134.717 134.717c10.865-14.216 13.179-29.091 11.73-42.259-1.122-10.197 1.33-20.449 6.642-29.224 4.237-7 6.676-15.206 6.676-23.984z" fill="#f9f0e1"/><path d="m330.047 218.787s-47.521-111.223-78.474-148.764c-30.951-37.538 4.421-68.527 4.427-68.532-2.038.036-4.077-.072-6.1-.357-17.153-2.42-70.173-5.553-88.914 43.996-21.553 56.98-55.066 73.477-40.11 118.964 4.018 12.22 1.403 27.171-9.815 37.59-9.12 8.471-14.827 20.563-14.827 33.994 0 8.778 2.439 16.984 6.676 23.983 5.312 8.775 7.764 19.027 6.642 29.224-1.448 13.168.866 28.043 11.731 42.259h134.717 134.717c10.865-14.216 13.179-29.091 11.73-42.259-1.122-10.197 1.33-20.449 6.642-29.224-68.103 20.761-79.042-40.874-79.042-40.874z" fill="#efe1cb"/><path d="m335.604 279.334c-15.565-10.453-41.389-22.143-79.104-22.143-38.063 0-64.022 11.912-79.543 22.441v.486c2.681-1.08 5.785-1.04 8.54.362 12.949 6.586 39.618 17.807 71.002 17.807 31.385 0 58.039-11.206 70.979-17.783 2.615-1.329 5.542-1.427 8.125-.511v-.659z" fill="#753616"/><path d="m174.197 185.47s-5.113-32.355.776-51.623c-5.342-3.561-15.665-5.3-20.307-.761-9.505 9.292-2.541 23.324.792 32.188 1.023 2.721 1.683 5.474 1.982 8.232.649 5.992 3.897 14.762 17.368 14.555-.204-.864-.412-1.713-.611-2.591z" fill="#fc9460"/><path d="m358.677 133.086c-4.642-4.539-14.965-2.8-20.307.761 5.888 19.268.776 51.623.776 51.623-.199.878-.407 1.727-.611 2.591 13.471.207 16.72-8.564 17.368-14.555.298-2.758.958-5.511 1.982-8.232 3.332-8.864 10.297-22.896.792-32.188z" fill="#ffaa7b"/><path d="m112.471 397.133c-5.935 5.791-8.945 12.722-8.945 20.598v41.023c20.611 16.412 43.92 29.581 69.168 38.709-7.832-32.788-15.391-70.304-19.641-117.659-18.733 3.507-32.37 9.317-40.582 17.329z" fill="#6c5475"/><path d="m110.98 329.978c-12.491 2.398-39.905 11.121-55.525 42.361-3.249 6.498-5.939 14.287-8.14 23.06 15.288 24.794 34.871 46.657 57.709 64.553 0-11.382 0-25.731 0-42.222 0-22.047 24.628-31.972 48.166-36.426-.874-9.544-1.618-19.479-2.198-29.868-.703-12.575 2.844-24.763 9.628-34.785-25.077 8.841-49.64 13.327-49.64 13.327z" fill="#56415e"/><path d="m318.355 336.881c-15.264 9.183-35.697 16.633-61.855 16.633-10.499 0-20.061-1.216-28.753-3.247l.028 1.103c-2.424.371-7.696 1.412-13.494 4.033-9.999 4.521-16.895 11.702-20.006 20.813-.275-.002-.611-.003-.979-.003.056 33.939 3.932 77.661 15.964 131.314 15.131 2.923 30.751 4.472 46.736 4.473h.01c16.396 0 32.41-1.625 47.904-4.696 17.372-77.092 17.93-133.772 14.445-170.423z" fill="#d3dcfb"/><path d="m193.298 377.712c1.325.002 2.064.02 2.064.02 6.836-22.499 33.945-25.05 33.945-25.05l-.052-2.062c-13.42-2.951-24.779-7.881-34.19-13.488-1.121 11.514-1.844 25.04-1.767 40.58z" fill="#bec8f7"/><path d="m234.321 351.619v159.415c7.143.626 14.369.965 21.674.965h.01c7.765 0 15.441-.378 23.021-1.085v-159.353c-6.979 1.243-14.479 1.953-22.526 1.953-7.914 0-15.297-.689-22.179-1.895z" fill="#deeeff"/><path d="m340.882 496.889c51.742-19.112 95.255-55.193 123.801-101.49-2.201-8.773-4.891-16.563-8.14-23.06-15.62-31.239-43.034-39.962-55.525-42.361 0 0-23.423-4.278-47.876-12.712 6.514 9.903 9.898 21.852 9.209 34.17-3.522 63.08-13.612 113.125-21.469 145.453z" fill="#6c5475"/><path d="m256.5 299.242c18.55 0 35.445-3.915 48.835-8.475-4.283-4.845-6.829-10.13-6.829-15.855 0-5.907 0-4.137 0-7.962-10.299 9.207-27.961 20.938-42.506 21.29-14.546-.352-32.207-12.083-42.506-21.29v7.962c0 5.618-2.451 10.813-6.59 15.584 13.513 4.676 30.697 8.746 49.596 8.746z" fill="#fc9460"/><path d="m194.274 376.217c-3.798-.028-16.798.046-31.603 2.039-3.893.524-7.583 1.142-11.105 1.835 4.706 51.447 13.387 92.947 19.184 116.659 13.209 4.903 26.954 8.702 41.127 11.279-12.565-55.163-16.53-99.944-16.535-134.506-.391.879-.754 1.774-1.068 2.694z" fill="#876d93"/><path d="m195.362 377.732c-.375-40.151 4.591-67.132 8.135-81.139 1.184-4.68-3.551-8.673-7.98-6.754-5.918 2.564-11.151 5.102-15.767 7.557-19.809 10.532-31.543 31.726-30.292 54.126.578 10.348 1.344 20.386 2.248 30.071 22.068-4.39 43.655-3.861 43.656-3.861z" fill="#6c5475"/><path d="m333.597 297.395c-4.616-2.454-9.849-4.992-15.767-7.557-4.429-1.919-9.164 2.074-7.98 6.754 6.535 25.836 17.922 95.78-8.319 211.167 14.205-2.67 27.976-6.566 41.202-11.574 6.842-28.101 17.571-80.514 21.156-144.664 1.251-22.4-10.483-43.594-30.292-54.126z" fill="#876d93"/><path d="m333.938 123.823c-1.941-2.188-3.009-4.744-3.087-7.39-.3-10.075-2.844-34.734-19.934-46.114-12.122-8.072-29.163-7.988-50.65.252-2.319.889-4.872.889-7.191 0-1.606-.616-3.179-1.171-4.736-1.696-15.779 12.201-18.212 35.979-18.508 45.922-.081 2.718-1.177 5.341-3.17 7.586-10.985 12.379-8.579 48.545-6.017 63.434 5.676 25.052 13.898 46.897 24.434 64.929 8.197 14.027 19.629 25.66 33.5 34.217 15.677-8.516 28.512-20.851 37.419-36.095 10.262-17.561 18.271-38.842 23.812-63.294 2.398-15.247 4.952-49.554-5.872-61.751z" fill="#ffc7ab"/><g><path d="m246.007 248.869c-10.264-17.566-18.273-38.846-23.802-63.251-2.497-14.505-4.84-49.736 5.861-61.795 1.942-2.188 3.01-4.742 3.088-7.39.3-10.075 2.845-34.735 19.934-46.115.157-.105.325-.193.484-.295-20.774-7.667-37.311-7.584-49.146.295-17.09 11.38-19.634 36.04-19.934 46.115-.079 2.648-1.146 5.203-3.089 7.39-10.701 12.059-8.358 47.291-5.861 61.795 5.529 24.405 13.538 45.685 23.802 63.251 10.42 17.832 26.199 31.701 45.632 40.109 8.704 3.765 18.685 3.765 27.387 0 3.681-1.593 7.23-3.383 10.637-5.357-14.579-8.45-26.548-20.298-34.993-34.752z" fill="#ffaa7b"/></g><path d="m22.782 342.241c32.033-.54 57.723-30.149 47.491-64.502-13.252-44.492.252-102.508 19.252-145.872 7.799-17.799 5.949-33.391 1.06-45.591-48.911 44.793-79.588 109.172-79.588 180.722.001 26.253 4.138 51.536 11.785 75.243z" fill="#ffb332"/><path d="m489.218 342.241c-32.033-.54-57.723-30.149-47.491-64.502 13.252-44.492-.252-102.508-19.252-145.872-7.799-17.799-5.949-33.391-1.06-45.591 48.911 44.793 79.588 109.172 79.588 180.722-.001 26.253-4.138 51.536-11.785 75.243z" fill="#ffb332"/><path d="m436.443 432.698c-4.927-19.748-17.162-31.199-27.08-37.47-6.251-3.952-14.402.496-14.402 7.892v65.671c15.152-10.455 29.064-22.576 41.482-36.093z" fill="#56415e"/><g><path d="m278.026 344.277v86.842c0 7.836 6.411 14.247 14.247 14.247h26.121c7.836 0 14.247-6.411 14.247-14.247v-111.273c-12.492 10.182-30.494 20.514-54.615 24.431z" fill="#945230"/><path d="m278.026 431.119c0 7.836 6.411 14.248 14.247 14.248h18.097c-3.913-3.834-4.682-9.505-4.682-9.505s0-40.812 0-56.49c0-10.502 16.23-16.867 26.953-20.428v-39.098c-12.492 10.183-30.494 20.514-54.615 24.431z" fill="#753616"/><path d="m350.609 299.199-9.576-15.88c-2.802-4.647-8.717-6.369-13.555-3.91-12.94 6.577-39.594 17.783-70.979 17.783-5.694 0-11.229-.373-16.559-1.017-2.488 1.953-7.967 6.778-12.199 14.282-4.936 8.753-8.939 22.828-.749 40.838-.697.048-1.548.123-2.506.228 9.539 2.516 20.192 4.041 32.014 4.041 53.69 0 83.314-31.378 93.489-44.729 2.578-3.383 2.817-7.994.62-11.636z" fill="#b26847"/><path d="m171.937 283.299-9.566 15.882c-2.193 3.641-1.953 8.25.623 11.631 8.304 10.899 29.579 33.812 66.312 41.87-17.767-35.639 12.798-56.259 12.798-56.259-25.023-2.64-45.691-11.487-56.608-17.039-4.838-2.461-10.757-.736-13.559 3.915z" fill="#945230"/></g></g></svg>