<svg id="Layer_1" enable-background="new 0 0 512 512" height="512" viewBox="0 0 512 512" width="512" xmlns="http://www.w3.org/2000/svg"><g><path d="m473.228 380.375c17.732-33.904 27.773-72.465 27.773-113.377 0-135.311-109.691-245.002-245.002-245.002s-245.002 109.691-245.002 245.002c0 40.912 10.042 79.473 27.774 113.377z" fill="#88ce65"/><path d="m255.739 364.665c16.167 0 31.902-4.859 45.175-13.856 10.015-14.256 17.523-31.75 16.35-51.508-1.123-18.909-9.598-30.738-9.912-31.167-1.768-2.721-3.295-6.087-4.552-10.011h-3.076c-2.587 2.432-5.174 4.639-7.705 6.604-10.352 8.039-23.126 12.405-36.282 12.405s-25.93-4.366-36.282-12.405c-2.53-1.965-5.117-4.172-7.704-6.604h-2.657c.07.068.136.141.206.209-1.272 4.05-2.83 7.509-4.635 10.293-.62.861-8.829 12.608-9.933 31.198-1.164 19.611 6.223 36.99 16.126 51.188 13.213 8.869 28.835 13.654 44.881 13.654z" fill="#ffada3"/><path d="m255.739 277.132c-13.156 0-25.93-4.366-36.282-12.405-2.53-1.965-5.117-4.172-7.704-6.604h-2.657c.07.068.136.141.206.209-1.272 4.05-2.83 7.509-4.635 10.293-.62.861-8.829 12.608-9.933 31.198-1.164 19.611 6.223 36.99 16.126 51.188 44.499-9.718 44.879-73.879 44.879-73.879z" fill="#ff988a"/><path d="m208.364 347.269c6.513 10.186 14.473 18.896 21.895 25.804 1.71 1.591 2.69 3.845 2.69 6.183v131.656c7.591.709 15.276 1.088 23.051 1.088s15.46-.379 23.05-1.087v-131.359c.085-.412-.473-4.059 2.689-7.004 7.359-6.849 15.245-15.47 21.727-25.544-13.785 10.149-30.512 15.658-47.727 15.658-17.069.001-33.658-5.411-47.375-15.395z" fill="#6c5475"/><path d="m230.26 373.073c1.71 1.591 2.69 3.845 2.69 6.183v5.609c7.348 2.165 15.017 3.299 22.789 3.299 7.957 0 15.805-1.191 23.311-3.459v-5.152c.085-.412-.473-4.059 2.689-7.003 7.359-6.849 15.245-15.47 21.727-25.544-13.785 10.149-30.511 15.658-47.727 15.658-17.069 0-33.658-5.412-47.375-15.396 6.513 10.188 14.473 18.897 21.896 25.805z" fill="#45304c"/><path d="m376.305 304.066s-4.971 69.713-98.756 75.19v131.79c11.489-1.001 22.75-2.798 33.729-5.331l77.83-33.022c8.964-5.813 17.527-12.192 25.632-19.094 0-18.889 0-36.427 0-49.025 0-27.199 21.209-49.569 38.951-63.527-21.65-18.942-62.539-22.134-77.386-36.981z" fill="#3e7fdd"/><path d="m158.193 361.243c-6.213.49-32.757 3.939-32.757 26.922v85.724l75.849 31.958c10.8 2.464 21.873 4.214 33.165 5.199v-131.79c-36.141-2.11-59.083-13.762-73.644-27.286-1.234 2.785-2.107 5.878-2.613 9.273z" fill="#3e7fdd"/><path d="m135.695 304.066c-14.739 14.739-55.143 17.993-76.91 36.573 17.845 13.927 39.475 36.466 39.475 63.935v49.871c7.979 6.721 16.396 12.937 25.197 18.609l3.48 1.467c0-24.643 0-68.929 0-86.356 0-24.732 32.579-25.5 32.579-25.5.441-3.673 1.295-6.855 2.463-9.615-24.343-21.76-26.284-48.984-26.284-48.984z" fill="#266fc6"/><path d="m370.891 276.536c-12.968-13.811-36.783-24.915-55.172-35.803 0 0-.286.163-.886.49-4.355 6.169-9.079 11.558-13.834 16.164 1.087 3.645 2.722 7.912 5.096 11.566 0 0 34.252 47.001-25.377 102.501-2.02 1.88-3.169 4.522-3.169 7.281 0 6.558 6.226 11.345 12.555 9.628 17.743-4.813 50.752-15.742 75.539-35.486 23.716-18.891 26.002-54.238 5.248-76.341z" fill="#d3dcfb"/><path d="m203.259 335.02c-4.477-.761-21.336-2.889-33.36 5.709-6.429 4.598-10.363 11.494-11.706 20.514-.233.018-.503.042-.79.07 22.852 14.818 49.281 23.445 64.492 27.572 6.329 1.717 12.555-3.071 12.555-9.629 0-2.759-1.149-5.401-3.168-7.281-13.907-12.943-22.704-25.424-28.023-36.955z" fill="#d3dcfb"/><path d="m205.905 269.475c2.378-3.66 4.014-7.935 5.102-11.583-4.835-4.622-9.653-10.048-14.095-16.285-.42-.23-.631-.35-.631-.35-18.389 10.887-42.204 21.991-55.172 35.802-20.754 22.104-18.468 57.45 5.248 76.34 4.189 3.336 8.615 6.415 13.16 9.261 4.157-34.56 44.536-25.966 44.536-25.966l.002-.004c-18.873-38.765 1.85-67.215 1.85-67.215z" fill="#bec8f7"/><path d="m238.248 1.094c-52.68 7.178-57.687 37.046-57.71 48.004-.005 2.298-1.278 4.428-3.344 5.433-27.402 13.33-12.628 79.577-12.628 79.577 2.752.184 7.632 1.298 9.78 2.339.526-3.274 1.385-8.497 2.598-11.612.924-2.374 2.079-4.772 3.523-7.038 2.506-3.931 3.647-8.569 3.307-13.206-.985-13.403-2.511-37.813 15.181-45.774 14.988-6.744 33.374-2.839 45.098 1.06 7.614 2.532 15.862 2.532 23.477 0 11.725-3.899 30.11-7.804 45.098-1.06 17.641 7.938 16.164 32.221 15.19 45.659-.339 4.672.772 9.358 3.297 13.32 1.491 2.339 2.674 4.819 3.613 7.268 1.167 3.045 1.997 8.19 2.51 11.384 2.708-1.312 8.578-2.741 11.889-2.273.405-14.048 1.702-31.193 1.702-31.193 15.611-76.461-55.859-109.617-112.581-101.888z" fill="#56415e"/><path d="m238.248 1.094c-52.68 7.178-57.687 37.046-57.71 48.004-.005 2.298-1.278 4.428-3.344 5.433-27.402 13.33-12.628 79.577-12.628 79.577 2.752.184 7.632 1.298 9.78 2.339.526-3.274 1.385-8.497 2.598-11.613.924-2.374 2.079-4.772 3.523-7.038 2.506-3.931 3.647-8.569 3.307-13.206-.985-13.403-2.511-37.813 15.181-45.774 14.988-6.744 33.374-2.839 45.098 1.06 2.337.777 4.734 1.313 7.154 1.613-.354-.728-.728-1.45-1.141-2.161-22.963-39.568 11.02-59.154 11.02-59.154-7.713-.397-15.402-.093-22.838.92z" fill="#45304c"/><path d="m355.047 133.998c-4.103-3.76-13.276-1.854-16.81.448.774 4.821.818 9.753.15 14.623l-4.17 30.372c0 2.448-.077 4.85-.219 7.211 10.169 3.067 16.22-6.062 17.071-12.327.366-2.697.965-5.355 1.796-7.949 2.704-8.447 12.462-22.957 2.182-32.378z" fill="#ffada3"/><path d="m156.535 133.998c4.103-3.76 13.276-1.854 16.81.448-.774 4.821-.818 9.753-.149 14.623l4.17 30.372c0 2.448.077 4.85.219 7.211-10.169 3.067-16.22-6.062-17.071-12.327-.366-2.697-.965-5.355-1.796-7.949-2.705-8.447-12.463-22.957-2.183-32.378z" fill="#ff988a"/><path d="m336.728 125.063c-.939-2.449-2.122-4.929-3.613-7.268-2.525-3.962-3.636-8.648-3.298-13.32.973-13.439.451-39.721-17.19-47.659-14.987-6.744-33.372-2.839-45.096 1.06-6.544 2.176-13.558 2.476-20.234.912-11.733 10.937-11.991 32.662-11.122 44.486.348 4.734-.817 9.47-3.376 13.485-1.475 2.314-2.654 4.762-3.598 7.187-3.061 7.863-3.953 16.391-2.807 24.741l4.259 31.021c0 44.597 23.806 74.909 44.056 90.634 2.118 1.645 4.34 3.132 6.641 4.469 3.78-1.807 7.379-4.013 10.722-6.609 19.831-15.4 43.144-45.085 43.144-88.759l4.17-30.372c1.113-8.098.27-16.368-2.658-24.008z" fill="#ffc1bb"/><g><path d="m274.891 268.2c-19.831-15.4-43.145-45.085-43.145-88.759l-4.171-30.379c-1.123-8.177-.249-16.529 2.748-24.229.924-2.374 2.079-4.772 3.523-7.038 2.506-3.932 3.647-8.57 3.307-13.206-.898-12.225-.575-35.264 12.912-45.261-2.033-.316-4.045-.798-6.015-1.453-11.724-3.899-30.109-7.804-45.096-1.06-17.692 7.96-18.166 34.371-17.181 47.774.341 4.636-.801 9.274-3.307 13.206-1.444 2.266-2.599 4.664-3.523 7.038-2.997 7.7-3.871 16.052-2.748 24.229l4.171 30.379c0 43.674 23.314 73.359 43.145 88.759 10.351 8.038 23.125 12.404 36.281 12.404 9.713 0 19.215-2.387 27.691-6.867-3.005-1.588-5.883-3.433-8.592-5.537z" fill="#ffada3"/></g><path d="m411.74 456.137c25.228-20.797 46.211-46.552 61.488-75.762-2.773-10.113-5.949-19.214-9.59-26.642-2.69-5.487-6.632-10.03-11.389-13.899-18.032 13.856-40.51 36.74-40.51 64.74.001 13.162.001 31.71.001 51.563z" fill="#548bed"/><path d="m59.75 339.834c-4.756 3.868-8.699 8.412-11.389 13.899-3.641 7.428-6.817 16.529-9.59 26.642 15.277 29.21 36.26 54.965 61.488 75.762 0-19.853 0-38.401 0-51.563.001-28-22.477-50.884-40.509-64.74z" fill="#548bed"/><path d="m377.172 471.233h-54c-6.6 0-12-5.4-12-12v46.528c28.167-6.482 54.472-17.829 78-33.095v-13.431c0 6.598-5.4 11.998-12 11.998z" fill="#72aafc"/><path d="m381.829 426.733h-63.314c-4.039 0-7.343 3.304-7.343 7.343v27.157c0 6.6 5.4 12 12 12h54c6.6 0 12-5.4 12-12v-27.157c0-4.039-3.304-7.343-7.343-7.343z" fill="#94c5ff"/><path d="m189.351 471.233h-54c-6.6 0-11.999-5.398-12-11.997v13.774c23.539 15.188 49.846 26.45 78 32.865v-46.642c0 6.6-5.4 12-12 12z" fill="#72aafc"/><path d="m194.008 426.733h-63.314c-4.039 0-7.343 3.304-7.343 7.343v27.157c0 6.6 5.4 12 12 12h54c6.6 0 12-5.4 12-12v-27.157c-.001-4.039-3.305-7.343-7.343-7.343z" fill="#94c5ff"/><path d="m192.819 449.811c-4.693 0-8.532-3.839-8.532-8.532v-70.083c0-4.693 3.839-8.532 8.532-8.532 4.693 0 8.532 3.839 8.532 8.532v70.083c-.001 4.693-3.84 8.532-8.532 8.532z" fill="#deeeff"/><path d="m319.704 449.811c-4.693 0-8.532-3.839-8.532-8.532v-70.083c0-4.693 3.839-8.532 8.532-8.532 4.693 0 8.532 3.839 8.532 8.532v70.083c0 4.693-3.84 8.532-8.532 8.532z" fill="#deeeff"/><g fill="#b4d667"><path d="m411.6 77.746c-17.771 12.145-31.22 30.742-26.537 58.7 12.27 73.253-44.248 110.625 44.083 149.899 31.405 13.964 51.185 30.3 63.502 44.267 5.444-20.286 8.354-41.61 8.354-63.615 0-76.224-34.812-144.316-89.402-189.251z"/><path d="m100.4 77.746c17.771 12.145 31.22 30.742 26.537 58.7-12.27 73.253 44.248 110.625-44.083 149.899-31.405 13.964-51.185 30.3-63.502 44.267-5.444-20.286-8.354-41.61-8.354-63.615 0-76.224 34.812-144.316 89.402-189.251z"/></g></g></svg>