<svg id="Layer_1" enable-background="new 0 0 512 512" height="512" viewBox="0 0 512 512" width="512" xmlns="http://www.w3.org/2000/svg"><g><path d="m55.726 408.143h400.548c28.172-39.9 44.728-88.587 44.728-141.145 0-135.311-109.691-245.002-245.002-245.002s-245.002 109.691-245.002 245.002c0 52.558 16.556 101.245 44.728 141.145z" fill="#ffc839"/><path d="m451.626 396.858c-15.237-30.473-41.979-38.982-54.163-41.322 0 0-31.163-5.689-58.697-16.884-.847 2.707-2.693 5.109-5.401 6.569-18.784 10.128-44.12 18.437-76.699 18.437-6.635 0-12.954-.36-18.994-.995.156.351.304.7.469 1.054-6.706.848-28.183 4.112-49.416 13.221-34.021 14.592-52.004 37.454-52.004 66.114v37.99c35.299 19.716 75.974 30.958 119.279 30.958 82.753 0 155.917-41.033 200.274-103.857-1.4-4.091-2.943-7.875-4.648-11.285z" fill="#72aafc"/><path d="m174.404 338.172c-27.813 11.512-59.867 17.364-59.867 17.364-12.185 2.34-38.926 10.849-54.163 41.322-1.705 3.41-3.247 7.194-4.648 11.285 21.474 30.414 49.699 55.72 82.495 73.737 0-10.279 0-23.031 0-38.828 0-68.512 102.19-78.088 102.19-78.088-.36-.716-.693-1.419-1.014-2.116-24.425-2.319-44.118-9.37-59.445-17.638-2.864-1.546-4.776-4.139-5.548-7.038z" fill="#548bed"/><path d="m340.258 330.117-19.202-30.842c-2.702-4.34-7.896-6.401-12.854-5.154-14.987 3.771-32.577 6.618-51.536 6.618-1.976 0-3.933-.038-5.878-.098v16.407c-2.898 1.436-11.725 6.535-15.607 16.985-3.199 8.613-2.203 18.59 2.959 29.683-1.031.13-2.414.318-4.088.576 7.131.871 14.656 1.365 22.613 1.365 33.657 0 59.831-8.583 79.236-19.046 5.94-3.202 7.923-10.766 4.357-16.494z" fill="#548bed"/><path d="m205.118 294.112c-4.959-1.249-10.154.812-12.857 5.153l-19.2 30.84c-3.566 5.728-1.584 13.29 4.355 16.494 16.16 8.717 37.031 16.111 62.988 18.348-17.459-34.754 11.884-46.942 11.884-46.942v-17.322c-17.289-.396-33.338-3.087-47.17-6.571z" fill="#3e7fdd"/><g><path d="m344.664 282.618c-6.749-23.638-9.547-42.091-10.153-56.35-5.126 18.497-11.825 34.875-19.985 48.838-4.708 8.058-10.552 15.274-17.339 21.527-10.139 59.151 8.82 103.71 23.74 128.06 3.144 5.131 11.522 2.979 11.441-2.946-.671-49.038 30.469-75.48 12.296-139.129z" fill="#45304c"/></g><path d="m256.655 39.38c15.726 0 29.067 3.027 40.297 7.691.317-2.05.484-4.151.484-6.29-.001-22.523-18.259-40.781-40.781-40.781s-40.781 18.258-40.781 40.781c0 2.139.167 4.239.484 6.29 11.23-4.664 24.571-7.691 40.297-7.691z" fill="#56415e"/><path d="m256.655 30.74c-16.028-16.028 0-30.74 0-30.74-22.522 0-40.781 18.258-40.781 40.781 0 2.139.167 4.239.484 6.29 11.23-4.664 24.571-7.69 40.297-7.69z" fill="#45304c"/><g><path d="m209.232 52.997c12.583-6.492 28.23-10.997 47.423-10.997s34.84 4.505 47.423 10.998c2.235 1.153 4.392 2.407 6.484 3.738-12.63-15.836-32.077-25.996-53.907-25.996s-41.277 10.159-53.907 25.995c2.091-1.331 4.249-2.585 6.484-3.738z" fill="#d3dcfb"/></g><path d="m176.96 166.835c1.141-3.733 2.702-6.965 4.813-9.344 1.9-2.141 3.092-4.79 3.177-7.624.494-16.555 6.857-70.191 67.964-46.766 2.401.92 5.081.92 7.482 0 61.107-23.425 67.47 30.211 67.964 46.766.085 2.834 1.277 5.483 3.177 7.624 2.111 2.379 3.672 5.611 4.813 9.344v-.001c3.096-2.064 7.903-3.487 12.247-3.385l.001-.013v-40.181c0-30.449-16.974-58.668-44.52-72.879-12.583-6.492-28.23-10.997-47.423-10.997s-34.84 4.505-47.423 10.997c-27.546 14.211-44.52 42.43-44.52 72.879v40.181l.001.013c4.344-.101 9.151 1.322 12.247 3.386z" fill="#56415e"/><path d="m256.655 39.38c-19.193 0-34.84 4.505-47.423 10.997-27.546 14.211-44.52 42.43-44.52 72.879v40.181l.001.013c4.345-.102 9.151 1.322 12.247 3.385 1.141-3.733 2.702-6.965 4.813-9.344 1.9-2.141 3.092-4.79 3.177-7.624.485-16.237 6.622-68.137 64.513-48.021-.242-.316-.474-.634-.736-.946-27.162-32.33 7.928-61.52 7.928-61.52z" fill="#45304c"/><path d="m176.203 214.572s-4.987-31.561.757-50.357c-5.212-3.474-15.281-5.17-19.809-.743-9.272 9.064-2.478 22.752.773 31.398.998 2.655 1.642 5.34 1.933 8.03.633 5.845 3.802 14.4 16.942 14.199-.199-.842-.402-1.671-.596-2.527z" fill="#fc9460"/><path d="m356.159 163.472c-4.529-4.427-14.598-2.731-19.809.743 5.744 18.796.757 50.357.757 50.357-.194.856-.397 1.685-.596 2.527 13.141.202 16.31-8.353 16.943-14.199.291-2.69.935-5.375 1.933-8.03 3.25-8.646 10.044-22.334.772-31.398z" fill="#ffaa7b"/><path d="m332.027 154.436c-1.893-2.134-2.935-4.627-3.012-7.209-.293-9.828-2.775-33.882-19.445-44.983-11.825-7.874-28.448-7.792-49.408.246-2.262.867-4.753.867-7.014 0-2.541-.974-5.016-1.826-7.429-2.567-16.968 11.378-19.5 35.909-19.799 45.942-.079 2.642-1.143 5.19-3.081 7.372-10.675 12.03-8.337 47.176-5.847 61.645 5.516 24.346 13.506 45.575 23.744 63.098 8.468 14.492 20.501 26.34 35.147 34.775 16.267-8.327 29.552-20.78 38.643-36.34 10.01-17.13 17.823-37.889 23.228-61.742 2.34-14.873 4.832-48.338-5.727-60.237z" fill="#ffc7ab"/><g><path d="m241.562 276.416c-10.012-17.135-17.825-37.893-23.218-61.7-2.436-14.149-4.721-48.516 5.717-60.28 1.895-2.134 2.936-4.626 3.013-7.209.293-9.828 2.775-33.884 19.445-44.984.717-.478 1.454-.924 2.207-1.343-18.884-6.406-34.007-5.966-44.986 1.343-16.671 11.101-19.152 35.156-19.445 44.984-.077 2.583-1.118 5.075-3.013 7.209-10.439 11.763-8.153 46.131-5.717 60.28 5.394 23.807 13.207 44.565 23.218 61.7 10.164 17.395 25.557 30.924 44.513 39.125 8.491 3.672 18.227 3.673 26.716 0 2.758-1.193 5.43-2.512 8.031-3.926-15.282-8.307-27.795-20.335-36.481-35.199z" fill="#ffaa7b"/></g><path d="m406.128 73.383c-16.025 13.071-32.156 34.048-22.649 61.873 16.968 49.663-27.401 117.49 22.451 167.342 29.337 29.337 64.405 27.937 88.303 21.818 4.424-18.417 6.77-37.643 6.77-57.418-.001-78.739-37.153-148.793-94.875-193.615z" fill="#ffdd40"/><path d="m105.872 73.383c16.025 13.071 32.156 34.048 22.649 61.873-16.968 49.663 27.401 117.49-22.451 167.342-29.337 29.337-64.405 27.937-88.303 21.818-4.424-18.417-6.769-37.643-6.769-57.418 0-78.739 37.152-148.793 94.874-193.615z" fill="#ffdd40"/><path d="m422.118 447.066c-4.931-19.734-17.16-31.18-27.074-37.448-6.251-3.952-14.402.496-14.402 7.892v60.45c14.916-8.833 28.813-19.205 41.476-30.894z" fill="#548bed"/><path d="m316.888 318.295c0 26.763 4.415 52.863 23.451 56.098 7.473-25.799 15.898-51.243 4.325-91.775-.279-.977-.541-1.932-.807-2.892-12.371 6.632-26.969 18.671-26.969 38.569z" fill="#56415e"/></g></svg>