<svg id="Layer_1" enable-background="new 0 0 512 512" height="512" viewBox="0 0 512 512" width="512" xmlns="http://www.w3.org/2000/svg"><g><path d="m463.608 397.122c23.683-37.706 37.394-82.311 37.394-130.124 0-135.311-109.691-245.002-245.002-245.002s-245.002 109.691-245.002 245.002c0 47.814 13.71 92.419 37.394 130.125z" fill="#49b1f7"/><g><path d="m377.195 206.566c-1.642-17.644-21.01-21.267-21.481-39.082-.007-.281 0-.557.003-.835h-199.433c.003.278.01.555.003.835-.471 17.814-19.839 21.437-21.481 39.082-.987 10.604 5.152 19.194 10.652 25.614 5.5 6.421 11.612 15.1 10.543 25.685-1.202 11.903-10.565 17.095-14.343 27.606-3.907 10.871-.723 25.252 5.15 33.701 5.872 8.449 13.781 12.367 21.414 16.044h85.586 4.385 85.586c7.633-3.677 15.542-7.595 21.414-16.044s9.056-22.83 5.15-33.701c-3.777-10.511-13.141-15.703-14.343-27.606-1.069-10.585 5.043-19.264 10.543-25.685 5.5-6.42 11.639-15.01 10.652-25.614z" fill="#56415e"/></g><g><path d="m365.193 319.172c5.872-8.449 9.056-22.83 5.15-33.701-3.777-10.511-13.141-15.703-14.343-27.606-.425-4.204.295-8.102 1.647-11.683-32.138 4.391-29.468-20.05-29.468-20.05s-18.381-25.735-37.716-59.482h-134.18c.003.278.01.555.003.835-.471 17.814-19.839 21.437-21.481 39.082-.987 10.604 5.152 19.194 10.652 25.614 5.5 6.421 11.611 15.1 10.542 25.685-1.202 11.903-10.565 17.095-14.343 27.606-3.907 10.871-.722 25.252 5.15 33.701s13.781 12.367 21.414 16.044h85.586 4.385 85.586c7.635-3.678 15.544-7.596 21.416-16.045z" fill="#45304c"/></g><path d="m196.09 309.624c1.982 22.164 14.103 43.75 36.029 64.157 2.665 2.481 3.254 5.798 2.391 8.673h44.318c-.864-2.874-.276-6.19 2.391-8.673 21.666-20.165 33.762-41.493 35.954-63.391.254-2.536 1.386-4.688 3.015-6.268-12.806-7.647-21.951-16.894-21.951-27.718 0-5.87 0-4.111 0-7.912-10.235 9.149-27.785 20.806-42.239 21.156-14.454-.35-32.004-12.006-42.238-21.156v7.912c0 10.474-8.568 19.471-20.726 26.971 1.671 1.552 2.827 3.693 3.056 6.249z" fill="#cc8c60"/><path d="m213.762 268.492v7.912c0 10.474-8.568 19.471-20.726 26.971 1.669 1.552 2.826 3.692 3.054 6.249 1.518 16.981 8.996 33.622 22.267 49.654.421-.314.834-.625 1.226-.929 27.705-21.451 34.801-51.928 36.542-68.707-.041.001-.083.005-.124.006-14.455-.35-32.005-12.006-42.239-21.156z" fill="#ba7d54"/><path d="m223.812 368.592-85.334-43.675c-15.176 4.123-26.585 6.206-26.585 6.206-12.412 2.384-39.654 11.052-55.175 42.095-3.349 6.697-6.096 14.786-8.327 23.904 17.271 27.498 39.856 51.316 66.309 70.029l109.112.102z" fill="#6faf46"/><path d="m455.282 373.218c-15.522-31.043-42.763-39.711-55.176-42.095 0 0-10.148-1.853-24.035-5.522l-86.071 43.096v98.619l106.925.1c26.614-18.753 49.33-42.667 66.683-70.294-2.23-9.118-4.977-17.207-8.326-23.904z" fill="#88ce65"/><path d="m335.764 345.783-51.241 25.656v8.978h-57.046v-9.949l-36.999-18.936-1.106 95.592s-21.795 24.113-3.755 54.608c22.292 6.676 45.917 10.268 70.383 10.268 52.467 0 101.075-16.5 140.937-44.583 0-16.176 0-33.179 0-48.958 0-42.894-43.209-65.239-61.173-72.676z" fill="#6faf46"/><path d="m191.372 447.124 1.094-94.575-14.719-7.533c-16.587 6.572-63.066 28.954-63.066 73.443v48.693c22.041 15.591 46.774 27.625 73.358 35.287-18.801-30.829 3.333-55.315 3.333-55.315z" fill="#5ea033"/><path d="m290.089 389.793c18.155-4.951 51.513-16.07 76.602-36.055 2.951-2.351 5.575-4.951 7.871-7.747 9.166-11.166 4.08-28.108-9.707-32.424-10.826-3.389-22.356-7.605-32.65-12.637-7.261-3.549-15.747 1.265-16.552 9.307-1.757 17.557-10.59 39.264-35.475 62.425-2.892 2.692-4.032 6.917-2.631 10.853 1.798 5.05 7.37 7.689 12.542 6.278z" fill="#b4d667"/><path d="m233.159 372.662c-15.01-13.971-24.179-27.413-29.479-39.735-6.351-1.672-40.415-8.977-50.876 23.421-.179.555-.364 1.09-.553 1.607 24.264 17.347 54.165 27.247 70.999 31.837 5.172 1.411 10.744-1.228 12.542-6.278 1.399-3.934.259-8.16-2.633-10.852z" fill="#b4d667"/><path d="m191.372 447.124c-4.78 0-8.691-3.911-8.691-8.691v-71.393c0-4.78 3.911-8.691 8.691-8.691 4.78 0 8.691 3.911 8.691 8.691v71.392c0 4.781-3.911 8.692-8.691 8.692z" fill="#deeeff"/><path d="m320.628 447.124c-4.78 0-8.691-3.911-8.691-8.691v-71.393c0-4.78 3.911-8.691 8.691-8.691 4.78 0 8.691 3.911 8.691 8.691v71.392c0 4.781-3.911 8.692-8.691 8.692z" fill="#deeeff"/><path d="m414.139 79.883c-16.742 13.589-28.982 33.256-19.341 59.499 40.981 111.551-45.137 106.666 38.981 159.751 26.003 16.41 42.751 35.312 53.028 50.192 9.184-25.73 14.195-53.441 14.195-82.327 0-75.032-33.74-142.173-86.863-187.115z" fill="#73c3f9"/><path d="m97.861 79.883c16.742 13.589 28.982 33.256 19.341 59.499-40.981 111.551 45.137 106.666-38.981 159.751-26.003 16.41-42.751 35.312-53.028 50.192-9.184-25.73-14.195-53.441-14.195-82.327 0-75.032 33.74-142.173 86.863-187.115z" fill="#73c3f9"/><path d="m209.416 18.542c1.759-.354 3.338-1.285 4.656-2.502 5.093-4.708 20.274-16.04 48.378-16.04 31.587 0 109.723 24.139 98.665 150.859h-209.647c-1.858-22.213-2.516-48.554 5.245-74.85 11.637-39.429 33.884-53.681 52.703-57.467z" fill="#56415e"/><path d="m151.468 150.859h130.225c-11.919-22.173-23.194-46.394-29.67-68.448-18.502-63.005 52.444-71.483 52.444-71.483-15.825-8.245-31.501-10.928-42.017-10.928-28.104 0-43.285 11.332-48.379 16.039-1.318 1.218-2.897 2.148-4.656 2.502-18.818 3.786-41.066 18.038-52.703 57.468-7.76 26.296-7.102 52.637-5.244 74.85z" fill="#45304c"/><path d="m174.045 187.526s-5.08-32.151.771-51.298c-5.309-3.539-15.566-5.267-20.179-.757-9.445 9.233-2.525 23.177.787 31.985 1.017 2.704 1.673 5.439 1.969 8.18.644 5.954 3.873 14.669 17.259 14.464-.202-.858-.41-1.702-.607-2.574z" fill="#ba7d54"/><path d="m357.363 135.471c-4.613-4.51-14.87-2.782-20.179.757 5.851 19.147.771 51.298.771 51.298-.198.872-.405 1.716-.607 2.574 13.386.206 16.615-8.51 17.259-14.464.297-2.741.952-5.476 1.969-8.18 3.312-8.808 10.232-22.751.787-31.985z" fill="#cc8c60"/><path d="m343.381 143.023c-.668-6.842-6.538-12.015-13.411-11.89-21.259.385-51.208-9.683-65.105-32.496-4.57-7.503-9.278-13.028-13.821-17.119-11.963 12.526-15.747 29.719-15.747 29.719-.082 2.75-1.19 5.402-3.207 7.674-11.112 12.522-8.679 49.105-6.086 64.167 5.741 25.342 14.058 47.439 24.716 65.679 7.997 13.686 19.048 25.107 32.412 33.668 14.222-8.579 25.934-20.36 34.278-34.638 10.503-17.974 18.701-39.756 24.372-64.784 1.47-9.349 2.993-25.692 1.599-39.98z" fill="#dba783"/><path d="m251.201 247.786c-10.505-17.979-18.703-39.76-24.362-64.739-2.556-14.846-4.954-50.907 5.999-63.249 1.988-2.239 3.081-4.854 3.161-7.564 0 0 3.831-17.437 16.024-29.822-15.556-14.658-29.425-12.024-29.425-12.024-33.103 2.062-41.835 41.846-41.835 41.846-.081 2.71-1.173 5.325-3.161 7.564-10.953 12.343-8.555 48.403-5.999 63.249 5.659 24.979 13.857 46.76 24.362 64.739 10.665 18.252 26.816 32.447 46.706 41.052 8.909 3.853 19.124 3.853 28.032 0 4.758-2.059 9.295-4.446 13.602-7.123-13.695-8.515-24.991-20.044-33.104-33.929z" fill="#cc8c60"/><path d="m197.612 309.488c-.721-8.068-9.448-12.73-16.695-9.113-10.273 5.128-21.872 9.428-32.814 12.891-13.711 4.339-18.646 21.17-9.62 32.366 2.364 2.933 5.087 5.656 8.164 8.107 2.002 1.595 4.062 3.127 6.157 4.61 11.554-35.782 51.902-23.133 51.902-23.133-4.298-9.255-6.395-17.913-7.094-25.728z" fill="#88ce65"/></g></svg>