<svg id="Layer_1" enable-background="new 0 0 512 512" height="512" viewBox="0 0 512 512" width="512" xmlns="http://www.w3.org/2000/svg"><g><path d="m38.742 380.318h434.517c17.713-33.89 27.744-72.431 27.744-113.32 0-135.311-109.691-245.002-245.002-245.002s-245.002 109.691-245.002 245.002c-.001 40.889 10.029 79.43 27.743 113.32z" fill="#7e6dd1"/><path d="m333.154 266.794c-15.183-10.196-40.375-21.6-77.165-21.6-37.13 0-62.452 11.62-77.592 21.891v.474c2.615-1.054 5.643-1.014 8.331.353 12.632 6.424 38.646 17.37 69.261 17.37s56.615-10.931 69.238-17.347c2.551-1.297 5.407-1.392 7.926-.498v-.643z" fill="#1fa2ea"/><path d="m432.314 331.018c-3.534-1.696-7.332-3.143-11.377-4.342l-65.15-24.863c-3.522-1.444-7.073-2.806-10.669-4.072-10.603 13.476-38.943 41.913-89.128 41.913-14.707 0-27.524-2.454-38.584-6.248.231.587.474 1.177.737 1.773-6.06 3.118-29.923 17.022-24.449 40.059.735 3.095.4 6.224-.943 8.811-4.626 8.911-10.854 27.01-.588 48.111 1.678 3.449 1.806 7.432.351 10.929-4.316 10.367-11.821 35.633 3.122 61.407 19.308 4.897 39.531 7.504 60.364 7.504 56.063 0 107.716-18.844 149.003-50.524 0-26.509 0-52.653 0-69.371 0-29.421 20.371-47.517 35.053-56.741-2.443-1.572-5.011-3.035-7.742-4.346z" fill="#49b1f7"/><path d="m197.677 504.997c-15.414-25.271-8.437-50.142-3.78-61.331 1.632-3.922 1.472-8.342-.386-12.162-10.11-20.782-3.637-38.658.57-46.763 1.573-3.03 1.86-6.527 1.071-9.848-6.009-25.29 24.965-39.011 24.965-39.011-.296-.618-.568-1.23-.829-1.84-27.775-8.973-44.738-26.534-52.422-36.294-3.581 1.261-7.119 2.617-10.626 4.055l-65.219 24.886c-4.011 1.191-7.778 2.627-11.286 4.306-2.75 1.317-5.333 2.788-7.792 4.369 14.682 9.225 35.053 27.32 35.053 56.741v69.371c26.485 20.321 57.239 35.349 90.681 43.521z" fill="#1fa2ea"/><path d="m255.989 285.715c22.365 0 42.274-5.763 56.441-11.424-2.727-8.766-3.709-18.462-3.977-26.237-5.298 6.171-10.858 11.333-16.171 15.458-10.352 8.039-23.126 12.405-36.282 12.405s-25.93-4.366-36.281-12.405c-5.313-4.126-10.874-9.288-16.172-15.458-.268 7.775-1.25 17.471-3.977 26.237 14.171 5.663 34.073 11.424 56.419 11.424z" fill="#fc9460"/><path d="m347.791 286.172-9.341-15.49c-2.734-4.533-8.503-6.213-13.222-3.815-12.623 6.415-38.624 17.347-69.238 17.347-8.844 0-17.301-.917-25.166-2.371-9.574 7.815-24.488 25.38-13.01 53.293 10.994 3.668 23.683 6.02 38.176 6.02 52.373 0 81.271-30.608 91.197-43.632 2.514-3.301 2.746-7.799.604-11.352z" fill="#73c3f9"/><path d="m72.917 334.724c-17.468 10.827-27.944 27.837-34.176 45.594 2.016 3.857 4.139 7.648 6.35 11.381l34.962 45.752c8.96 9.249 18.628 17.809 28.944 25.558 0-27.031 0-53.864 0-70.905 0-30.11-21.341-48.364-36.08-57.38z" fill="#49b1f7"/><path d="m403.003 392.104c-14.726 0-14.726-12-29.452-12-14.725 0-14.725 12-29.451 12s-14.725-12-29.45-12c-14.723 0-14.723 12-29.447 12-14.723 0-14.723-12-29.446-12-14.721 0-14.721 12-29.442 12-14.725 0-14.725-12-29.449-12-1.052 0-2.022.067-2.935.181-.191 1.328-.579 2.603-1.183 3.764-4.626 8.911-10.854 27.01-.588 48.111.861 1.77 1.307 3.681 1.347 5.594 1.033-.15 2.141-.239 3.358-.239 14.724 0 14.724 12 29.449 12 14.721 0 14.721-12 29.442-12 14.723 0 14.723 12 29.446 12s14.723-12 29.447-12c14.725 0 14.725 12 29.45 12s14.725-12 29.451-12 14.726 12 29.452 12c.702 0 1.362-.035 2-.087 0-22.2 0-43.152 0-57.324 0-.03.002-.058.002-.087-.638.052-1.298.087-2.001.087z" fill="#73c3f9"/><path d="m106.997 449.466c.494.03 1 .05 1.531.05 14.723 0 14.723-12 29.446-12s14.723 12 29.447 12c14.074 0 14.704-10.957 27.592-11.924-.062-2.088-.566-4.164-1.501-6.087-10.11-20.782-3.637-38.658.57-46.763.752-1.449 1.202-3.005 1.389-4.598-13.341.735-13.808 11.961-28.05 11.961-14.723 0-14.723-12-29.447-12-14.723 0-14.723 12-29.446 12-.531 0-1.038-.02-1.532-.05 0 .017.001.033.001.05z" fill="#49b1f7"/><path d="m466.972 391.589c2.188-3.698 4.29-7.452 6.286-11.271-6.231-17.757-16.708-34.767-34.176-45.594-14.739 9.016-36.08 27.27-36.08 57.381v70.904c10.32-7.753 19.992-16.316 28.956-25.57z" fill="#73c3f9"/><path d="m467.015 391.533c-1.494.36-3.17.572-5.106.572-14.728 0-14.728-12-29.455-12-14.725 0-14.725 12-29.451 12v57.412c14.531 0 14.733-11.677 28.885-11.985 13.435-13.855 25.243-29.288 35.127-45.999z" fill="#9bd8f9"/><path d="m108.528 392.104c-14.724 0-14.724-12-29.447-12s-14.723 12-29.445 12c-1.712 0-3.22-.167-4.58-.454 9.872 16.671 21.661 32.068 35.069 45.892 13.682.556 14.039 11.973 28.404 11.973.161 0 .311-.009.469-.012 0-22.228 0-43.211 0-57.4v-.012c-.159.004-.309.013-.47.013z" fill="#73c3f9"/><path d="m424.928 89.548c-9.472 11.63-17.823 29.692-9.163 53.152 15.985 43.3-102.985 98.077 0 136.689 36.984 13.866 61.631 30.79 78.034 46.786 4.704-18.95 7.203-38.771 7.203-59.177 0-69.823-29.209-132.823-76.074-177.45z" fill="#9589e8"/><path d="m87.071 89.548c9.472 11.63 17.824 29.692 9.163 53.152-15.985 43.3 102.985 98.077 0 136.689-36.984 13.866-61.631 30.79-78.034 46.786-4.704-18.95-7.203-38.771-7.203-59.177.001-69.823 29.21-132.823 76.074-177.45z" fill="#9589e8"/><path d="m360.715 73.843c-28.72-67.54-72.973-77.201-97.955-73.005-4.47.75-9.049.75-13.519 0-24.983-4.196-69.235 5.465-97.955 73.005 0 0-44.354 88.517 32.643 137.613h144.143c76.997-49.096 32.643-137.613 32.643-137.613z" fill="#56415e"/><path d="m249.24.838c-24.983-4.196-69.235 5.465-97.956 73.005 0 0-44.353 88.517 32.644 137.613h144.143c24.966-15.919 37.165-35.983 42.263-55.83-9.675 2.302-11.823-4.448-11.823-4.448l-37.428-4.846s-38.776-53.39-71.724-86.339c-32.948-32.946-.119-59.155-.119-59.155z" fill="#45304c"/><path d="m338.726 135.267c.49 4.168.445 8.399-.13 12.586l-4.171 30.372c0 2.448-.077 4.85-.219 7.211 10.169 3.067 16.22-6.062 17.071-12.327.366-2.697.965-5.355 1.796-7.949 1.211-3.78 3.832-8.774 5.438-13.982 1.924-6.24-2.369-12.62-8.843-13.477-4.105-.543-7.73-1.368-10.942-2.434z" fill="#ffaa7b"/><path d="m173.405 147.853c-.575-4.187-.619-8.418-.13-12.586-3.212 1.065-6.837 1.891-10.942 2.434-6.474.857-10.767 7.237-8.843 13.477 1.606 5.208 4.227 10.202 5.438 13.982.831 2.594 1.429 5.252 1.795 7.949.851 6.265 6.902 15.394 17.071 12.327-.142-2.36-.219-4.762-.219-7.211z" fill="#fc9460"/><path d="m339.771 135.602c-35.409-10.865-17.21-49.971-35.052-67.813-14.718-14.718-35.46-10.803-43.434-7.237-3.37 1.508-7.2 1.508-10.57 0-.878-.393-1.919-.788-3.081-1.164-13.507 10.206-13.824 33.427-12.917 45.772.345 4.701-.812 9.405-3.353 13.391-1.465 2.298-2.636 4.729-3.573 7.137-3.04 7.808-3.926 16.277-2.787 24.569l4.23 30.805c0 44.286 23.641 74.388 43.749 90.004 1.798 1.396 3.674 2.671 5.607 3.842 4.871-2.007 9.483-4.656 13.69-7.923 19.831-15.4 43.144-45.085 43.144-88.759l4.171-30.372c.56-4.075.623-8.192.176-12.252z" fill="#ffc7ab"/><path d="m273.082 269.644c-19.831-15.4-43.144-45.085-43.144-88.759l-4.171-30.379c-1.123-8.177-.249-16.528 2.749-24.229.924-2.374 2.079-4.772 3.523-7.038 2.506-3.932 3.647-8.57 3.307-13.206-.922-12.551-.563-36.507 14.014-46.039-8.772-3.366-28.127-6.156-42.077 7.795-17.842 17.842.357 56.949-35.053 67.813-.447 4.057-.384 8.172.175 12.244l4.171 30.379c0 43.674 23.314 73.359 43.145 88.759 10.351 8.038 23.125 12.404 36.281 12.404 8.347 0 16.537-1.763 24.055-5.101-2.422-1.378-4.757-2.921-6.975-4.643z" fill="#ffaa7b"/><path d="m232.466 282.136c-20.11-3.486-36.503-10.595-45.739-15.292-4.721-2.401-10.495-.719-13.227 3.818l-9.331 15.493c-2.139 3.552-1.905 8.047.608 11.346 7.368 9.67 25.209 29.031 55.336 38.371-11.902-27.994 2.687-45.708 12.353-53.736z" fill="#49b1f7"/></g></svg>