<svg id="Layer_1" enable-background="new 0 0 512 512" height="512" viewBox="0 0 512 512" width="512" xmlns="http://www.w3.org/2000/svg"><g><path d="m465.304 394.406c22.646-37.123 35.698-80.741 35.698-127.408 0-135.311-109.691-245.002-245.002-245.002s-245.002 109.691-245.002 245.002c0 46.667 13.052 90.284 35.698 127.408z" fill="#fc90ce"/><path d="m196.677 268.446s34.621-18.102 58.647-18.102 59.998 18.102 59.998 18.102v32.314h-118.645z" fill="#ffb332"/><path d="m311.518 296.159c-8.21-6.45-13.532-13.824-13.532-22.116 0-5.929 0-4.153 0-7.991-10.337 9.241-28.063 21.014-42.662 21.368-.496-.012-.996-.04-1.499-.077-.048.693-2.647 34.7-23.205 55.62-2.489.342-12.737 2.131-21.864 9.192 5.951 3.108 12.087 5.981 18.413 8.585 18.917 7.785 40.607 7.786 59.519 0 11.251-4.632 21.927-10.079 31.979-16.257-1.544-22.371-4.675-38.459-7.149-48.324z" fill="#ffaa7b"/><path d="m212.663 274.043c0 7.741-4.641 14.682-11.936 20.818-.028.31-.076.624-.157.942-2.446 9.669-5.567 25.5-7.158 47.549 5.406 3.401 10.999 6.585 16.766 9.545 9.983-7.487 21.141-8.51 21.141-8.51 21.658-21.658 24.004-56.967 24.004-56.967-14.599-.353-32.325-12.127-42.661-21.368.001 4.044.001 1.627.001 7.991z" fill="#fc9460"/><path d="m285.508 357.959c-18.185 7.486-39.04 7.485-57.229 0-12.27-5.052-23.829-11.109-34.6-18.068-3.027 37.056-1.794 92.792 15.179 167.56 15.256 2.974 31.012 4.549 47.138 4.55h.01c16.126 0 31.882-1.576 47.138-4.55 16.805-74.029 18.179-129.397 15.267-166.45-10.288 6.494-21.281 12.173-32.903 16.958z" fill="#d3dcfb"/><path d="m242.568 349.74c-4.923-2.001-9.354-4.205-13.349-6.552-6.426 1.162-26.846 6.486-33.666 27.887-.783-.177-1.864-.392-3.162-.59-.036 6.589.069 13.554.353 20.906 12.336 9.962 30.756 7.467 39.784-5.92l14.379-21.321c3.435-5.093 1.353-12.097-4.339-14.41z" fill="#deeeff"/><path d="m231.32 344.386c-19.13-10.586-28.725-24.438-33.533-35.833-2.732 14.532-5.342 35.648-5.402 63.42 2.598.424 4.193.904 4.193.904 7.328-26.006 34.742-28.491 34.742-28.491z" fill="#d3dcfb"/><path d="m314.213 308.553c-5.672 13.441-17.997 30.301-44.781 41.187-5.692 2.313-7.773 9.317-4.338 14.41l14.379 21.321c9.028 13.387 27.449 15.882 39.785 5.919 1.45-37.526-1.708-65.089-5.045-82.837z" fill="#deeeff"/><path d="m340.954 496.862c52.082-19.256 95.828-55.702 124.35-102.456-2.182-8.574-4.835-16.198-8.025-22.579-13.016-26.03-33.889-40.632-47.776-46.217-6.603-2.656-13.086-5.577-19.39-8.882-9.145-4.793-22.501-11.25-36.178-15.968 6.538 9.939 6.848 31.707 6.156 44.07-3.549 63.553-11.797 118.33-19.137 152.032z" fill="#ffc839"/><path d="m151.924 392.838c-2.407-.113-8.21-.233-15.244.727-8.462 1.154-20.323 4.164-28.78 11.948-7.233 6.658-10.9 15.697-10.9 26.869v21.002c21.731 18.554 46.739 33.382 74.046 43.478-5.696-26.155-11.938-65.007-16.108-110.799-1.134 2.012-2.151 4.257-3.014 6.775z" fill="#ffc839"/><path d="m151.908 344.83c-.691-12.363-.381-34.131 6.157-44.07-13.677 4.717-27.033 11.175-36.178 15.968-6.304 3.304-12.786 6.226-19.39 8.882-13.887 5.586-34.761 20.187-47.776 46.217-3.19 6.381-5.843 14.005-8.025 22.579 13.91 22.803 31.45 43.144 51.804 60.244 0-6.758 0-14.196 0-22.268 0-42.5 54.487-37.976 54.487-37.976.642-2.034 1.383-3.893 2.205-5.596-1.312-14.046-2.434-28.758-3.284-43.98z" fill="#ffb332"/><path d="m334.234 276.031c-1.144-.608-33.688-14.325-33.791-14.369 0 0 5.996 9.437 8.635 21.623 6.486 33.583 13.993 118.388-10.234 224.975 15.253-2.69 30.013-6.803 44.152-12.175 6.841-32.698 17.97-100.058 21.64-165.73 1.257-22.483-10.519-43.753-30.402-54.324z" fill="#ffdd40"/><path d="m195.553 371.075c-6.505-1.465-32.924-5.628-42.953 19.966 4.942 43.542 11.69 82.518 16.402 105.044 14.14 5.373 28.9 9.485 44.152 12.175-12.113-53.293-16.293-101.141-16.634-139.863-.343.867-.672 1.752-.967 2.678z" fill="#ffdd40"/><path d="m147.363 330.355c1.207 21.6 3.223 43.374 5.626 64.046 9.989-31.638 43.589-21.525 43.589-21.525l.001-.003c-.664-40.918 2.976-72.156 6.342-89.588 2.639-12.186 8.635-21.623 8.635-21.623-.103.043-32.647 13.76-33.791 14.369-19.882 10.571-31.658 31.841-30.402 54.324z" fill="#ffc839"/><path d="m424.632 89.272c-11.418 13.391-19.854 32.32-13.299 57.129 21.667 81.998-27.707 119.651 12 148.737 25.265 18.508 49.133 30.753 64.277 51.927 8.674-25.091 13.392-52.027 13.392-80.067 0-69.968-29.334-133.082-76.37-177.726z" fill="#ffbbe5"/><path d="m87.368 89.272c11.418 13.391 19.854 32.32 13.299 57.129-21.667 81.998 27.707 119.651-12 148.737-25.265 18.508-49.134 30.753-64.277 51.927-8.674-25.091-13.391-52.027-13.391-80.067-.001-69.968 29.333-133.082 76.369-177.726z" fill="#ffbbe5"/><path d="m441.295 427.279c-5.244-18.469-16.951-29.341-26.514-35.387-6.251-3.952-14.401.496-14.401 7.892v65.159c15.025-10.977 28.756-23.62 40.915-37.664z" fill="#ffb332"/><path d="m135.047 228.586c1.37 5.179 4.913 9.454 9.634 11.566.176.079.353.158.53.236 26.443 11.756 55.143 17.575 84.082 17.575h53.415c28.938 0 57.637-5.819 84.08-17.574.177-.079.354-.158.531-.237 4.721-2.112 8.264-6.388 9.634-11.567 3.627-13.706 5.516-27.343 6.265-41.207 4.226-77.987-25.068-128.355-55.054-160.148-18.561-19.678-41.7-33.675-64.89-24.191-4.664 1.907-9.885 1.907-14.549 0-23.189-9.483-46.329 4.514-64.888 24.191-29.987 31.793-59.28 82.161-55.056 160.148.756 13.889 2.631 27.474 6.266 41.208z" fill="#945230"/><path d="m183.837 27.231c-29.987 31.793-59.28 82.161-55.056 160.148.756 13.888 2.631 27.473 6.265 41.207 1.37 5.179 4.913 9.454 9.634 11.567.177.079.353.158.53.236 26.443 11.756 55.143 17.575 84.082 17.575h53.415c28.938 0 57.637-5.819 84.08-17.574l.531-.237c4.721-2.112 8.264-6.388 9.634-11.567 1.943-7.341 3.374-14.665 4.411-22.013-26.535 6.239-31.507-22.953-31.507-22.953l-128.855-70.398c-22.858-53.092 27.724-110.183 27.724-110.183-23.188-9.483-46.329 4.514-64.888 24.192z" fill="#753616"/><path d="m173.807 133.152c-.674.115-1.354.226-2.038.331-14.121 2.172-22.509 16.923-17.444 30.281.03.08.06.159.09.238 1.027 2.731 1.689 5.494 1.99 8.262.651 6.014 3.911 14.816 17.432 14.609-.204-.867-.414-1.72-.613-2.6 0 0-5.005-31.711.583-51.121z" fill="#fc9460"/><path d="m338.193 133.152c5.589 19.41.584 51.121.584 51.121-.2.881-.409 1.734-.614 2.6 13.52.207 16.781-8.595 17.432-14.609.299-2.768.962-5.531 1.989-8.262.03-.079.06-.158.09-.238 5.065-13.359-3.323-28.109-17.444-30.281-.684-.105-1.363-.216-2.037-.331z" fill="#ffaa7b"/><path d="m220.646 162.902c2.913 25.556 10.947 61.33 32.68 86.628 10.338 12.034 22.882 20.717 37.467 26.01 9.886-7.56 18.199-16.872 24.538-27.636 10.382-17.63 18.484-38.988 24.076-63.483 1.971-11.364 3.845-35.398-.575-51.157-32.36-5.36-53.415-22.188-66.296-37.44-8.661-10.255-24.413-10.255-33.074 0-5.254 6.221-11.87 12.705-20.058 18.565-.369 5.125-1.468 24.73 1.242 48.513z" fill="#ffc7ab"/><path d="m269.173 288.16c8.39-3.602 16.099-8.21 23.009-13.691-83.516-29.311-71.179-161.246-71.179-161.246h-.001c-12.11 9.012-27.804 16.725-47.834 20.043-4.42 15.759-2.546 39.793-.575 51.157 5.593 24.494 13.695 45.852 24.077 63.483 10.54 17.897 26.501 31.817 46.159 40.256 4.191 1.799 8.675 2.73 13.173 2.817 4.496-.089 8.979-1.02 13.171-2.819z" fill="#ffaa7b"/></g></svg>