<svg id="Layer_1" enable-background="new 0 0 512 512" height="512" viewBox="0 0 512 512" width="512" xmlns="http://www.w3.org/2000/svg"><g><path d="m41.706 385.815h428.588c19.556-35.194 30.708-75.7 30.708-118.817 0-135.311-109.691-245.002-245.002-245.002s-245.002 109.691-245.002 245.002c0 43.117 11.152 83.624 30.708 118.817z" fill="#49b1f7"/><g><path d="m321.668 306.668c-10.152-10.152-12.726-29.399-13.189-42.865-5.298 6.171-10.858 11.333-16.171 15.458-10.352 8.039-23.125 12.405-36.282 12.405-1.06 0-2.116-.039-3.17-.095-2.026 13.227-7.268 34.821-20.588 48.361l2.521 1.282s14.849 6.514 21.211 15.858c6.361-9.344 21.21-15.858 21.21-15.858l59.79-30.41c-5.014-1.548-10.116-2.932-15.332-4.136z" fill="#ffd9a1"/></g><path d="m255.171 291.648c-12.853-.185-25.3-4.523-35.426-12.387-5.313-4.126-10.874-9.288-16.172-15.458-.463 13.466-3.037 32.713-13.189 42.865-5.227 1.206-10.339 2.594-15.365 4.146l57.71 29.353c15.465-12.152 20.708-35.889 22.442-48.519z" fill="#f9c98a"/><path d="m236.893 338.045-25.747-13.095c-10.882 2.966-25.677 11.164-28.622 33.77-7.775.559-47.636 5.071-47.636 38.662v82.612c35.72 20.361 77.052 32.006 121.112 32.006.856 0 1.706-.024 2.56-.033 0-54.335 0-143.837 0-152.257 0-12.165-21.667-21.665-21.667-21.665z" fill="#ff4155"/><path d="m136.388 480.85c0-18.501 0-56.987 0-83.469 0-36 47.476-37.237 47.476-37.237 2.595-23.979 18.497-31.718 29.231-34.205l-32.82-16.693c-68.457 22.323-101.153 31.251-118.201 43.419 17.748 12.113 45.66 37.275 45.66 75.772v33.602c9.076 6.911 18.648 13.201 28.654 18.811z" fill="#e80054"/><path d="m404.265 428.438c0-38.497 27.913-63.658 45.66-75.772-17.047-12.168-49.743-21.096-118.201-43.419l-56.618 28.797s-21.667 9.5-21.667 21.666v152.257c.854.009 1.704.033 2.56.033 55.73 0 107.105-18.616 148.265-49.96.001-11.691.001-23.134.001-33.602z" fill="#ff7186"/><path d="m314.218 283.522c-1.151-.636-2.581.029-2.844 1.317-1.711 8.38-9.135 34.779-36.704 50.447-2.715 1.543-3.365 5.165-1.311 7.518l27.858 31.907c5.784 6.662 16.433 5.463 20.608-2.309 7.058-13.14 16.891-33.14 24.169-54.642 1.303-3.85.376-8.107-2.37-11.103-8.473-9.243-18.402-17.061-29.406-23.135z" fill="#deeeff"/><path d="m237.346 335.286c-6.252-3.553-11.459-7.661-15.807-11.982-6.878.28-34.242 3.374-38.859 34.429 2.673 5.48 5.237 10.435 7.512 14.67 4.175 7.772 14.824 8.97 20.608 2.309l27.857-31.907c2.054-2.353 1.404-5.976-1.311-7.519z" fill="#deeeff"/><path d="m200.642 284.839c-.263-1.288-1.694-1.953-2.844-1.317-11.004 6.074-20.932 13.892-29.405 23.135-2.747 2.996-3.673 7.253-2.37 11.103 5.282 15.606 11.906 30.405 17.843 42.38 3.979-36.731 39.192-35.361 39.192-35.361l.003-.01c-16.025-15.038-21.053-33.234-22.419-39.93z" fill="#d3dcfb"/><path d="m402.265 463.562c27.822-20.736 51.081-47.246 68.029-77.747-2.09-6.497-4.379-12.424-6.89-17.549-3.194-6.514-7.627-11.622-14.464-16.29-17.677 11.837-46.674 37.229-46.674 76.462-.001 10.923-.001 22.905-.001 35.124z" fill="#f9a0b1"/><path d="m63.06 351.977c-6.837 4.669-11.271 9.776-14.464 16.29-2.512 5.124-4.8 11.051-6.89 17.549 16.948 30.501 40.207 57.011 68.029 77.747 0-12.22 0-24.201 0-35.124 0-39.233-28.998-64.626-46.675-76.462z" fill="#ff4155"/><g fill="#f9a0b1"><circle cx="265.238" cy="388.903" r="11.798"/><ellipse cx="265.238" cy="440.236" rx="11.798" ry="11.798" transform="matrix(.23 -.973 .973 .23 -224.16 597.234)"/><ellipse cx="265.238" cy="491.569" rx="11.798" ry="11.798" transform="matrix(.707 -.707 .707 .707 -269.906 331.529)"/></g><path d="m424.225 88.894c-15.7 13.518-34.475 36.736-34.475 70.488 0 58-57.369 107.248 18.525 129.624 44.055 12.989 67.593 38.317 79.592 57.284 8.508-24.87 13.135-51.538 13.135-79.292 0-70.168-29.505-133.439-76.777-178.104z" fill="#73c3f9"/><path d="m87.775 88.894c15.7 13.518 34.476 36.736 34.476 70.488 0 58 57.369 107.248-18.526 129.624-44.055 12.989-67.593 38.317-79.592 57.284-8.508-24.87-13.135-51.538-13.135-79.292 0-70.168 29.505-133.439 76.777-178.104z" fill="#73c3f9"/><path d="m368.662 70.108c-.115-1.821-1.848-3.093-3.618-2.651l-7.505 1.875c-2.107.527-4.036-1.358-3.546-3.473 7.034-30.339-4.44-54.207-8.555-61.459-.736-1.298-2.347-1.817-3.707-1.202-49.468 22.37-52.292-9.001-97.824-2.216-14.452 18.139-36.153 55.974-6.362 94.471 19.049 24.615 11.602 43.237-1.963 56.168h119.208c15.529-32.391 14.598-70.047 13.872-81.513z" fill="#945230"/><path d="m239.546 95.454c-29.964-38.719-7.839-76.766 6.611-94.78-2.708.34-5.565.812-8.604 1.448-23.633 4.952-46.968 12.294-58.527 28.421-1.593 2.222-3.702 4.021-6.227 5.068-3.864 1.602-8.868 5.124-11.912 10.178-6.944 11.526-16.33 45.057-6.12 81.115.891 3.148 1.749 6.302 2.562 9.471 1.299 5.065 2.961 10.167 5.045 15.247h75.21c13.564-12.931 21.011-31.553 1.962-56.168z" fill="#753616"/><path d="m355.283 148.526c-4.103-3.76-13.276-1.854-16.81.448.774 4.821.818 9.753.15 14.623l-4.17 30.372c0 2.448-.077 4.85-.219 7.211 10.169 3.067 16.22-6.062 17.071-12.327.366-2.697.965-5.355 1.796-7.949 2.704-8.447 12.461-22.957 2.182-32.378z" fill="#ffd9a1"/><path d="m156.77 148.526c4.103-3.76 13.276-1.854 16.81.448-.774 4.821-.818 9.753-.149 14.623l4.17 30.372c0 2.448.077 4.85.219 7.211-10.169 3.067-16.22-6.062-17.071-12.327-.366-2.697-.965-5.355-1.796-7.949-2.705-8.447-12.463-22.957-2.183-32.378z" fill="#f9c98a"/><path d="m336.944 139.59c-.939-2.449-2.122-4.929-3.613-7.268-2.525-3.962-3.636-8.647-3.297-13.32.823-11.359.571-31.889-10.181-42.765-1.85-1.872-4.771-2.176-7.007-.787-28.671 17.825-54.272 21.722-74.806 19.878-1.318 8.111-1.171 16.266-.745 22.056.349 4.753-.82 9.506-3.389 13.536-1.48 2.323-2.664 4.781-3.611 7.213-3.072 7.893-3.968 16.453-2.817 24.833l4.275 31.137c0 44.764 23.896 75.19 44.221 90.973 1.914 1.487 3.911 2.846 5.975 4.083 3.641-1.772 7.109-3.924 10.34-6.433 19.831-15.399 43.145-45.085 43.145-88.759l4.17-30.372c1.112-8.095.269-16.365-2.66-24.005z" fill="#fce6ca"/><g><path d="m276.175 282.728c-19.831-15.399-43.145-45.085-43.145-88.759l-4.171-30.379c-1.123-8.177-.249-16.529 2.749-24.229.924-2.374 2.08-4.772 3.523-7.038 2.506-3.931 3.648-8.569 3.307-13.206-.453-6.16-.588-15.065 1.108-23.664-18.416-1.382-32.89-7.429-42.023-12.455-4.615-2.539-10.415-.399-12.243 4.541-3.942 10.651-3.885 23.484-3.29 31.578.341 4.637-.8 9.275-3.307 13.206-1.444 2.266-2.599 4.664-3.523 7.038-2.998 7.7-3.872 16.052-2.748 24.229l4.171 30.379c0 43.674 23.314 73.359 43.145 88.759 10.351 8.038 23.125 12.404 36.281 12.404 9.917 0 19.616-2.483 28.224-7.148-2.813-1.523-5.509-3.277-8.058-5.256z" fill="#ffd9a1"/></g></g></svg>