<svg id="Layer_1" enable-background="new 0 0 512 512" height="512" viewBox="0 0 512 512" width="512" xmlns="http://www.w3.org/2000/svg"><g><path d="m466.802 391.892c21.716-36.574 34.2-79.273 34.2-124.894 0-135.311-109.691-245.002-245.002-245.002s-245.002 109.691-245.002 245.002c0 45.621 12.484 88.32 34.2 124.894z" fill="#fc90ce"/><path d="m355.987 71.72c-22.874-72.671-99.305-71.719-99.305-71.719s-76.432-.952-99.306 71.719c-17.156 54.503-13.853 109.659-21.203 153.076-4.532 26.769 14.112 52.018 40.986 55.879 19.152 2.752 44.942 4.725 79.523 4.725s60.37-1.973 79.523-4.725c26.874-3.861 45.518-29.111 40.986-55.879-7.351-43.417-4.048-98.574-21.204-153.076z" fill="#56415e"/><path d="m256.682.001s-76.432-.951-99.306 71.719c-17.156 54.503-13.853 109.659-21.203 153.076-4.532 26.769 14.112 52.018 40.986 55.879 19.153 2.752 44.942 4.725 79.523 4.725s60.37-1.973 79.523-4.725c26.874-3.861 45.518-29.111 40.986-55.879-35.335 18.129-46.602-8.644-46.602-8.644s-65.396-92.818-96.429-140.305c-31.033-47.488 22.522-75.846 22.522-75.846z" fill="#45304c"/><path d="m358.235 136.972c-5.027 3.375-11.543 3.696-16.915 1.049 2.688 19.177-1.119 43.304-1.119 43.304-.202.889-.413 1.749-.619 2.624 13.642.209 16.932-8.672 17.589-14.74.302-2.793.971-5.58 2.007-8.336 2.08-5.532 5.552-13.051 5.658-20.21.026-1.729-.986-3.307-2.569-4.003-1.312-.578-2.842-.487-4.032.312z" fill="#ffaa7b"/><path d="m459.09 370.566c-15.818-31.635-43.58-40.47-56.229-42.898 0 0-32.352-5.906-60.937-17.528-.88 2.81-2.795 5.304-5.607 6.82-19.5 10.515-45.803 19.14-79.625 19.14-14.609 0-27.809-1.615-39.671-4.292.155.498.311.996.479 1.501-4.739.7-17.738 3.109-30.915 9.884-21.627 11.118-33.059 28.735-33.059 50.948v72.152h244.992c27.585-19.766 50.898-45.117 68.285-74.399-2.129-8.056-4.677-15.256-7.713-21.328z" fill="#deeeff"/><path d="m155.025 394.139c0-52.861 64.488-59.582 64.488-59.582-.286-.807-.554-1.604-.809-2.393-16.33-3.509-30.18-9.027-41.654-15.217-2.974-1.604-4.959-4.296-5.76-7.306-28.874 11.951-62.151 18.026-62.151 18.026-12.65 2.429-40.412 11.263-56.23 42.898-3.036 6.072-5.584 13.271-7.712 21.326 17.387 29.283 40.7 54.633 68.285 74.399h41.543c0-20.508 0-46.803 0-72.151z" fill="#d3dcfb"/><path d="m434.462 428.288c0-17.925-8.719-34.873-23.621-44.834-.508-.34-1.011-.666-1.509-.979-6.211-3.91-14.296.619-14.296 7.958v75.858h3.481c12.992-9.309 25.021-19.871 35.945-31.486z" fill="#d3dcfb"/><path d="m343.472 301.279-19.934-32.018c-2.805-4.506-8.198-6.646-13.345-5.351-15.559 3.915-33.82 6.871-53.503 6.871-5.912 0-11.693-.271-17.315-.751-8.317 4.509-35.328 22.717-21.877 63.278-.598.088-1.329.204-2.174.353 12.352 2.816 26.119 4.515 41.367 4.515 34.941 0 62.114-8.91 82.259-19.773 6.166-3.326 8.225-11.177 4.522-17.124z" fill="#9589e8"/><path d="m189.83 269.25-19.933 32.017c-3.702 5.947-1.644 13.797 4.521 17.123 12.335 6.654 27.319 12.565 45.093 16.157-17.003-47.936 22.767-64.286 22.767-64.286h-.001c-14.194-1.014-27.409-3.416-39.1-6.361-5.148-1.296-10.542.844-13.347 5.35z" fill="#7e6dd1"/><path d="m342.047 138.348c-2.449-1.067-4.697-2.709-6.495-4.96-7.74-9.691-20.07-28.512-26.096-55.807-.523-2.367-3.019-3.729-5.269-2.827-8.177 3.278-27.665 8.757-55.156 1.541-6.609-1.735-11.977-1.579-16.424.048-5.269 23.092-25.272 140.397 49.673 203.798 14.327-8.516 26.114-20.296 34.479-34.612 10.393-17.784 18.504-39.335 24.114-64.098 1.578-10.028 3.218-28.193 1.174-43.083z" fill="#ffc7ab"/><path d="m392.057 394.139c-10.849 0-167.969 0-238.532 0v95.457c31.173 14.377 65.879 22.401 102.46 22.403h.029c53.159-.003 102.357-16.943 142.509-45.708v-65.686c0-3.571-2.895-6.466-6.466-6.466z" fill="#9589e8"/><path d="m113.477 400.605v65.686c12.962 9.286 26.872 17.331 41.549 23.981 0-20.083 0-59.121 0-96.133-19.677 0-32.975 0-35.083 0-3.571 0-6.466 2.895-6.466 6.466z" fill="#7e6dd1"/><path d="m245.493 511.761c3.485.147 6.985.239 10.507.239 3.713 0 7.403-.097 11.075-.261v-199.295h-21.582z" fill="#7e6dd1"/><path d="m256 289.006c-7.547 0-13.722 6.175-13.722 13.722v26.579c0 7.547 6.175 13.722 13.722 13.722s13.722-6.175 13.722-13.722v-26.579c0-7.547-6.175-13.722-13.722-13.722z" fill="#b5b0f7"/><path d="m419.776 84.794c-12.029 10.951-24.282 29.431-19.438 57.533 8.178 47.444-2.645 163.175 95.607 174.404 3.314-16.059 5.057-32.691 5.057-49.732 0-72.345-31.364-137.357-81.226-182.205z" fill="#ffbbe5"/><path d="m92.224 84.794c12.029 10.951 24.282 29.431 19.438 57.533-8.178 47.444 2.645 163.175-95.606 174.404-3.314-16.059-5.057-32.691-5.057-49.732-.001-72.345 31.363-137.357 81.225-182.205z" fill="#ffbbe5"/><path d="m234.16 75.846c-29.795 8.216-20.269 78.769-51.49 106.982-5.059 4.572-6.99 11.678-5.012 18.203 5.051 16.664 11.392 31.576 18.942 44.497 10.552 18.058 26.532 32.103 46.212 40.618 8.815 3.812 18.922 3.813 27.735 0 4.541-1.965 8.875-4.237 13.001-6.772-78.356-64.707-53.236-188.702-49.388-203.528z" fill="#ffaa7b"/></g></svg>