<svg id="Layer_1" enable-background="new 0 0 512 512" height="512" viewBox="0 0 512 512" width="512" xmlns="http://www.w3.org/2000/svg"><g><path d="m45.198 391.892h421.604c21.716-36.574 34.2-79.273 34.2-124.895 0-135.311-109.691-245.002-245.002-245.002s-245.002 109.691-245.002 245.002c0 45.622 12.484 88.321 34.2 124.895z" fill="#ffc839"/><path d="m363.929 77.947c-24.86-78.981-107.929-77.946-107.929-77.946s-83.069-1.034-107.929 77.947c-18.645 59.236-15.056 119.181-23.044 166.368-4.925 29.093 15.338 56.535 44.545 60.732 20.816 2.991 48.844 5.135 86.428 5.135s65.612-2.144 86.428-5.135c29.207-4.197 49.47-31.638 44.545-60.732-7.988-47.187-4.399-107.133-23.044-166.369z" fill="#56415e"/><path d="m256 .001s-83.069-1.034-107.929 77.947c-18.645 59.236-15.056 119.181-23.044 166.368-4.925 29.093 15.338 56.535 44.545 60.732 20.815 2.991 48.844 5.135 86.428 5.135s65.612-2.144 86.428-5.135c29.207-4.197 49.47-31.638 44.545-60.732-45.694 21.368-58.716-24.204-58.716-24.204s-45.59-69.164-86.33-124.798c-40.739-55.634 14.073-95.313 14.073-95.313z" fill="#45304c"/><path d="m231.819 335.308c4.339 2.872 5.336 9.209 1.249 13.396-.282.439-2.235 1.873-.822 3.212 39.246 37.203 8.201 36.798 48.247-.699 1.829-1.712-1.425-2.622-2.481-6.431-1.636-5.932 3.456-9.381 3.543-9.485 15.132-10.017 25.426-24.035 31.435-40.853-8.451-6.562-13.945-14.079-13.945-22.545 0-5.983 0-4.19 0-8.063-10.43 9.324-28.316 21.203-43.045 21.56-14.73-.357-32.615-12.236-43.045-21.56v8.063c0 8.102-5.031 15.339-12.872 21.699 5.823 17.279 16.751 31.788 31.736 41.706z" fill="#ffaa7b"/><path d="m260.978 284.872c-1.688.301-3.353.488-4.978.527-14.73-.357-32.615-12.236-43.045-21.56v8.064c0 8.102-5.031 15.338-12.872 21.699 5.731 17.005 16.414 31.316 31.033 41.22.525-.24 1.047-.502 1.562-.811 17.102-10.271 25.117-35.549 28.3-49.139z" fill="#fc9460"/><path d="m231.429 349.02-24.217 27.738c-5.298 6.102-15.024 5.014-18.85-2.11-1.591-2.962-3.33-6.292-5.148-9.894-.044.689-.094 1.372-.112 2.086-7.427.804-41.853 6.118-41.853 35.411v81.242c34.232 18.189 73.282 28.507 114.751 28.507 4.053 0 8.082-.104 12.087-.299 0-32.679 0-75.946 0-97.545 0-27.932-24.352-53.831-36.658-65.136z" fill="#49b1f7"/><path d="m142.75 484.288c0-21.268 0-59.926 0-82.038 0-31.631 41.836-34.041 41.836-34.041 0-.249.009-.491.012-.737-6.743-13.133-14.915-30.678-21.222-49.313-.589-1.737-.667-3.572-.284-5.314-26.617 9.832-53.952 14.821-53.952 14.821-7.967 1.53-21.929 5.607-35.126 16.316 15.36 12.537 37.464 36.227 37.464 68.787v52.061c9.886 7.239 20.338 13.746 31.272 19.458z" fill="#1fa2ea"/><path d="m232.678 334.011c-3.342-2.212-6.354-4.579-9.079-7.036-7.433.634-38.755 5.299-40.422 38.462 1.823 3.613 3.571 6.96 5.176 9.948 4.334 8.068 15.39 9.313 21.395 2.397l24.958-28.586c4.048-4.636 3.104-11.789-2.028-15.185z" fill="#deeeff"/><path d="m225.199 328.376c-13.762-11.728-20.507-25.879-23.717-35.495-1.901-5.695-8.671-7.97-13.671-4.647-8.084 5.372-15.492 11.706-22.058 18.864-2.864 3.122-3.848 7.549-2.49 11.562 6.331 18.708 14.521 36.302 21.322 49.545.005-39.167 40.614-39.829 40.614-39.829z" fill="#d3dcfb"/><path d="m400.523 412.771c0-32.56 22.104-56.251 37.464-68.787-13.197-10.709-27.159-14.786-35.126-16.316 0 0-27.336-4.99-53.952-14.821.383 1.742.305 3.577-.284 5.314-7.538 22.271-17.748 43.011-24.987 56.487-3.826 7.124-13.552 8.212-18.85 2.11l-24.217-27.738c-12.306 11.305-36.658 37.204-36.658 65.136v97.545c4.005.194 8.034.299 12.087.299 54.054 0 104.01-17.515 144.523-47.168 0-17.99 0-36.446 0-52.061z" fill="#73c3f9"/><path d="m347.609 307.098c-6.566-7.158-13.974-13.491-22.058-18.863-5-3.323-11.77-1.048-13.671 4.646-3.745 11.219-12.294 28.615-31.197 41.13-5.131 3.397-6.075 10.549-2.028 15.185l24.958 28.586c6.005 6.916 17.061 5.672 21.395-2.397 7.327-13.641 17.535-34.403 25.091-56.725 1.359-4.013.374-8.441-2.49-11.562z" fill="#deeeff"/><g fill="#9bd8f9"><ellipse cx="256.161" cy="414.499" rx="12.248" ry="12.248" transform="matrix(.707 -.707 .707 .707 -218.068 302.538)"/><ellipse cx="256.161" cy="467.791" rx="12.248" ry="12.248" transform="matrix(.707 -.707 .707 .707 -255.751 318.146)"/><path d="m466.802 391.892c-2.128-8.055-4.677-15.254-7.712-21.326-6.109-12.219-14.001-21.025-22.115-27.385-15.38 12.314-38.452 36.328-38.452 69.59v53.521c27.588-19.764 50.892-45.117 68.279-74.4z"/></g><path d="m75.025 343.181c-8.114 6.36-16.006 15.167-22.115 27.385-3.036 6.072-5.584 13.272-7.712 21.326 17.387 29.283 40.691 54.635 68.279 74.399 0-18.448 0-37.483 0-53.521 0-33.261-23.072-57.275-38.452-69.589z" fill="#49b1f7"/><path d="m425.516 90.117c-10 11.268-18.312 28.234-14.18 52.209 7.869 45.652-1.835 154.512 84.951 172.676 3.087-15.524 4.715-31.573 4.715-48.004 0-69.529-28.967-132.288-75.486-176.881z" fill="#ffdd40"/><path d="m100.664 142.326c4.133-23.975-4.18-40.941-14.18-52.209-46.519 44.593-75.486 107.352-75.486 176.881 0 16.431 1.628 32.481 4.715 48.004 86.786-18.164 77.082-127.024 84.951-172.676z" fill="#ffdd40"/><path d="m172.479 181.325s-5.177-32.765.786-52.278c-5.41-3.607-15.864-5.367-20.565-.771-9.625 9.41-2.573 23.62.802 32.596 1.036 2.756 1.705 5.544 2.007 8.336.657 6.068 3.947 14.95 17.589 14.74-.207-.874-.418-1.734-.619-2.623z" fill="#fc9460"/><path d="m359.3 128.276c-4.701-4.596-15.155-2.836-20.565.771 5.963 19.513.786 52.278.786 52.278-.202.889-.413 1.749-.619 2.624 13.642.209 16.932-8.672 17.589-14.74.302-2.793.971-5.58 2.007-8.336 3.375-8.977 10.428-23.187.802-32.597z" fill="#ffaa7b"/><path d="m339.248 128.717-8.234-27.576c-1.598-5.353-6.742-8.821-12.308-8.34-19.798 1.711-40.86 2.64-62.706 2.66-5.871-.005-11.68-.081-17.429-.215-.775 1.069-1.388 2.275-1.784 3.6l-8.445 28.282c-5.01 16.264-3.023 42.064-.934 54.107 5.788 25.347 14.171 47.449 24.915 65.693 7.614 12.928 17.977 23.832 30.452 32.219 13.692-8.429 24.984-19.853 33.09-33.617 10.475-17.789 18.65-39.339 24.293-64.054 2.037-11.744 3.974-36.9-.91-52.759z" fill="#ffc7ab"/><g><path d="m253.126 245.529c-10.475-17.789-18.65-39.339-24.293-64.054-2.037-11.742-3.974-36.899.91-52.757l8.234-27.576c.709-2.374 2.118-4.375 3.95-5.828-16.83-.319-33.123-1.172-48.633-2.512-5.566-.481-10.71 2.987-12.308 8.34l-8.234 27.576c-4.885 15.858-2.947 41.015-.91 52.757 5.643 24.715 13.818 46.265 24.293 64.054 10.635 18.058 26.74 32.103 46.574 40.618 4.229 1.815 8.753 2.755 13.291 2.842 4.538-.087 9.062-1.027 13.291-2.842 5.355-2.299 10.428-5.014 15.204-8.089-12.916-8.316-23.606-19.347-31.369-32.529z" fill="#ffaa7b"/></g></g></svg>