<svg id="Layer_1" enable-background="new 0 0 511.994 511.994" height="512" viewBox="0 0 511.994 511.994" width="512" xmlns="http://www.w3.org/2000/svg"><g><path d="m42.357 386.978h427.281c19.961-35.465 31.361-76.391 31.361-119.986 0-135.311-109.691-245.002-245.002-245.002s-245.002 109.691-245.002 245.002c0 43.595 11.401 84.522 31.362 119.986z" fill="#7e6dd1"/><path d="m333.151 282.538c-15.183-10.196-40.374-21.6-77.164-21.6-37.13 0-62.452 11.62-77.592 21.891v.474c2.615-1.054 5.643-1.014 8.331.353 12.632 6.424 38.646 17.371 69.261 17.371s56.615-10.931 69.238-17.347c2.551-1.297 5.406-1.392 7.926-.498z" fill="#6faf46"/><path d="m368.633 70.108c-.115-1.821-1.848-3.093-3.618-2.651l-7.505 1.875c-2.107.527-4.036-1.358-3.546-3.473 7.034-30.339-4.44-54.207-8.555-61.459-.736-1.298-2.347-1.817-3.707-1.202-49.468 22.37-52.292-9.001-97.824-2.216-14.452 18.139-36.153 55.974-6.362 94.471 19.049 24.615 11.602 43.237-1.963 56.169h119.208c15.53-32.392 14.598-70.048 13.872-81.514z" fill="#eab049"/><path d="m239.517 95.454c-29.964-38.719-7.839-76.766 6.611-94.78-2.708.34-5.565.812-8.604 1.448-23.633 4.952-46.968 12.294-58.527 28.421-1.593 2.222-3.702 4.021-6.227 5.068-3.864 1.602-8.868 5.124-11.912 10.178-6.944 11.526-16.33 45.057-6.12 81.115.891 3.147 1.749 6.302 2.562 9.471 1.299 5.065 2.961 10.167 5.045 15.247h75.21c13.564-12.931 21.011-31.553 1.962-56.168z" fill="#ea9939"/><path d="m432.311 346.762c-3.534-1.696-7.332-3.143-11.377-4.342l-65.15-24.863c-3.522-1.444-7.073-2.806-10.669-4.072-10.603 13.476-38.943 41.914-89.128 41.914-10.91 0-20.785-1.347-29.673-3.589l.724 1.187c-6.694 1.252-27.731 5.605-48.538 14.267-33.565 13.976-51.307 32.803-51.307 54.446v53.724c37.421 23.179 81.548 36.561 128.804 36.561 91.716 0 171.647-50.405 213.641-125.016-7.396-16.483-19.048-31.449-37.327-40.217z" fill="#ffdd40"/><path d="m128.693 476.346c0-14.983 0-33.789 0-54.637 0-51.333 100.768-67.622 100.768-67.622l-1.095-1.795c-33.199-7.728-53.013-28.02-61.502-38.802-3.581 1.261-7.119 2.617-10.626 4.055l-65.219 24.886c-4.011 1.191-7.778 2.627-11.286 4.306-18.307 8.765-29.974 23.743-37.376 40.24 20.644 36.681 50.462 67.503 86.336 89.369z" fill="#ffc839"/><path d="m255.986 301.458c22.365 0 42.274-5.763 56.441-11.424-2.727-8.766-3.709-18.462-3.977-26.237-5.298 6.171-10.858 11.333-16.171 15.458-10.352 8.039-23.125 12.405-36.282 12.405-13.156 0-25.93-4.366-36.281-12.405-5.313-4.126-10.874-9.288-16.172-15.458-.268 7.775-1.25 17.471-3.977 26.237 14.171 5.664 34.073 11.424 56.419 11.424z" fill="#f9c98a"/><path d="m355.254 148.526c-4.103-3.76-13.276-1.854-16.81.448.774 4.821.818 9.753.15 14.623l-4.17 30.372c0 2.448-.077 4.85-.219 7.211 10.169 3.067 16.22-6.062 17.071-12.327.366-2.697.965-5.355 1.796-7.949 2.704-8.447 12.462-22.957 2.182-32.378z" fill="#ffd9a1"/><path d="m156.741 148.526c4.103-3.76 13.276-1.854 16.81.448-.774 4.821-.818 9.753-.149 14.623l4.17 30.372c0 2.448.077 4.85.219 7.211-10.169 3.067-16.22-6.062-17.071-12.327-.366-2.697-.965-5.355-1.796-7.949-2.705-8.447-12.463-22.957-2.183-32.378z" fill="#f9c98a"/><path d="m336.915 139.59c-.939-2.449-2.122-4.929-3.613-7.268-2.525-3.962-3.636-8.648-3.297-13.32.823-11.359.571-31.889-10.181-42.765-1.85-1.872-4.771-2.176-7.007-.787-28.671 17.825-54.272 21.722-74.806 19.879-1.318 8.111-1.17 16.266-.745 22.056.349 4.752-.82 9.506-3.389 13.536-1.48 2.322-2.664 4.781-3.611 7.213-3.073 7.893-3.968 16.453-2.817 24.833l4.275 31.137c0 44.764 23.896 75.19 44.221 90.973 1.914 1.487 3.911 2.846 5.975 4.083 3.641-1.772 7.109-3.924 10.34-6.433 19.831-15.399 43.145-45.085 43.145-88.758l4.17-30.372c1.112-8.097.269-16.367-2.66-24.007z" fill="#fce6ca"/><g><path d="m276.146 282.728c-19.831-15.399-43.144-45.085-43.144-88.758l-4.171-30.379c-1.123-8.177-.249-16.529 2.749-24.229.924-2.373 2.08-4.772 3.523-7.038 2.506-3.931 3.648-8.569 3.307-13.206-.453-6.16-.588-15.065 1.108-23.664-18.416-1.382-32.89-7.429-42.023-12.455-4.615-2.54-10.415-.399-12.243 4.541-3.942 10.651-3.885 23.484-3.29 31.578.341 4.637-.8 9.275-3.307 13.206-1.444 2.266-2.599 4.664-3.523 7.038-2.998 7.7-3.872 16.052-2.748 24.229l4.171 30.379c0 43.674 23.314 73.359 43.145 88.758 10.351 8.038 23.125 12.404 36.281 12.404 9.917 0 19.616-2.483 28.224-7.148-2.814-1.523-5.51-3.277-8.059-5.256z" fill="#ffd9a1"/></g><path d="m424.223 88.888c-15.7 13.518-34.475 36.736-34.475 70.488 0 58-57.369 107.248 18.525 129.624 44.055 12.989 67.593 38.317 79.592 57.284 8.508-24.87 13.135-51.538 13.135-79.292-.001-70.168-29.506-133.439-76.777-178.104z" fill="#9589e8"/><path d="m87.772 88.888c15.7 13.518 34.476 36.736 34.476 70.488 0 58 57.369 107.248-18.526 129.624-44.055 12.989-67.593 38.317-79.592 57.284-8.508-24.87-13.135-51.538-13.135-79.292 0-70.168 29.505-133.439 76.777-178.104z" fill="#9589e8"/><path d="m437.605 431.412c-4.848-20.04-17.209-31.614-27.207-37.935-6.251-3.952-14.401.496-14.401 7.892v66.688c15.223-10.619 29.181-22.926 41.608-36.645z" fill="#ffc839"/><g><path d="m284.95 345.889v84.712c0 7.644 6.254 13.898 13.898 13.898h25.48c7.644 0 13.898-6.254 13.898-13.898v-108.544c-12.185 9.933-29.746 20.011-53.276 23.832z" fill="#88ce65"/><path d="m284.95 430.601c0 7.644 6.254 13.898 13.898 13.898h17.653c-3.817-3.74-4.567-9.272-4.567-9.272s0-39.811 0-55.105c0-10.244 15.832-16.454 26.292-19.927v-38.139c-12.186 9.933-29.747 20.011-53.276 23.832z" fill="#6faf46"/><path d="m347.788 301.916-9.341-15.49c-2.734-4.533-8.503-6.213-13.222-3.815-12.623 6.415-38.624 17.347-69.238 17.347-5.554 0-10.954-.364-16.153-.992-2.427 1.905-7.771 6.612-11.9 13.932-4.815 8.538-8.72 22.269-.731 39.837-.68.047-1.51.12-2.445.223 9.305 2.454 19.696 3.942 31.229 3.942 52.373 0 81.271-30.608 91.197-43.633 2.514-3.3 2.747-7.798.604-11.351z" fill="#b4d667"/><path d="m173.497 286.406-9.331 15.493c-2.139 3.552-1.905 8.048.608 11.345 8.101 10.632 28.853 32.983 64.686 40.843-17.331-34.765 12.484-54.879 12.484-54.879-24.41-2.576-44.571-11.205-55.22-16.621-4.72-2.4-10.494-.718-13.227 3.819z" fill="#88ce65"/></g></g></svg>