<svg id="Layer_1" enable-background="new 0 0 512 512" height="512" viewBox="0 0 512 512" width="512" xmlns="http://www.w3.org/2000/svg"><g><path d="m466.802 391.893c21.716-36.574 34.2-79.273 34.2-124.895 0-135.311-109.691-245.002-245.002-245.002s-245.002 109.691-245.002 245.002c0 45.621 12.484 88.32 34.2 124.895z" fill="#49b1f7"/><path d="m355.9 71.72c-22.875-72.671-99.306-71.719-99.306-71.719s-76.432-.951-99.306 71.719c-17.156 54.503-13.853 109.659-21.203 153.076-4.532 26.769 14.112 52.018 40.986 55.879 19.152 2.752 44.942 4.725 79.523 4.725s60.37-1.973 79.523-4.725c26.874-3.861 45.518-29.111 40.986-55.879-7.351-43.417-4.048-98.574-21.203-153.076z" fill="#945230"/><path d="m256.594.001s-76.432-.951-99.306 71.719c-17.156 54.503-13.853 109.659-21.203 153.076-4.532 26.769 14.112 52.018 40.986 55.879 19.153 2.752 44.942 4.725 79.523 4.725s60.37-1.973 79.523-4.725c26.874-3.861 45.518-29.111 40.986-55.879-35.335 18.129-46.602-8.644-46.602-8.644s-65.396-92.818-96.429-140.305c-31.033-47.488 22.522-75.846 22.522-75.846z" fill="#753616"/><path d="m336.116 285.225c-15.762-10.585-41.915-22.424-80.108-22.424-38.546 0-64.835 12.063-80.553 22.726v.492c2.715-1.094 5.858-1.053 8.649.366 13.113 6.669 40.121 18.033 71.904 18.033s58.775-11.348 71.88-18.009c2.648-1.346 5.613-1.445 8.229-.517v-.667z" fill="#ffb332"/><path d="m256.008 304.867c22.033 0 41.773-5.386 56.299-10.959-8.061-6.434-13.261-13.771-13.261-22.006 0-5.982 0-4.19 0-8.063-10.43 9.324-28.315 21.203-43.045 21.56-14.73-.357-32.616-12.236-43.045-21.56v8.063c0 8.23-5.195 15.564-13.249 21.995 14.53 5.58 34.273 10.97 56.301 10.97z" fill="#fc9460"/><path d="m402.86 327.667s-26.043-4.752-52.042-14.123c-.306.931-.754 1.825-1.373 2.638-10.239 13.435-39.84 44.684-93.438 44.684-10.901 0-20.792-1.309-29.747-3.482l.321 1.147c-5.018.948-20.69 4.245-36.187 10.982-25.107 10.915-38.379 25.873-38.379 43.258v76.119c31.562 14.823 66.801 23.11 103.98 23.11h.01c54.052-.001 104.006-17.516 144.518-47.168 0-17.991 0-36.446 0-52.061 0-32.561 22.104-56.251 37.464-68.788-13.198-10.709-27.16-14.786-35.127-16.316z" fill="#88ce65"/><path d="m162.555 316.159c-.615-.807-1.061-1.695-1.367-2.618-26.001 9.372-52.048 14.125-52.048 14.125-7.967 1.53-21.929 5.607-35.127 16.316 15.36 12.537 37.464 36.227 37.464 68.788v52.061c13.086 9.578 27.162 17.881 42.039 24.745 0-19.344 0-50.723 0-76.806 0-40.944 74.954-53.056 74.954-53.056l-.539-1.926c-36.109-8.205-57.088-30.75-65.376-41.629z" fill="#6faf46"/><path d="m75.025 343.181c-8.114 6.36-16.006 15.167-22.115 27.385-3.036 6.072-5.584 13.272-7.712 21.327 17.387 29.282 40.691 54.635 68.279 74.4 0-18.449 0-37.483 0-53.521 0-33.263-23.072-57.276-38.452-69.591z" fill="#88ce65"/><path d="m466.802 391.893c-2.128-8.055-4.676-15.254-7.712-21.327-6.109-12.218-14.001-21.024-22.115-27.385-15.38 12.314-38.452 36.328-38.452 69.59v53.521c27.588-19.764 50.892-45.117 68.279-74.399z" fill="#b4d667"/><path d="m419.776 84.794c-12.029 10.951-24.282 29.431-19.438 57.533 8.178 47.444-2.645 163.175 95.607 174.404 3.314-16.059 5.057-32.691 5.057-49.732 0-72.345-31.364-137.357-81.226-182.205z" fill="#73c3f9"/><path d="m92.224 84.794c12.029 10.951 24.282 29.431 19.438 57.533-8.178 47.444 2.645 163.175-95.606 174.404-3.314-16.059-5.057-32.691-5.057-49.732-.001-72.345 31.363-137.357 81.225-182.205z" fill="#73c3f9"/><path d="m286.077 351.204v87.944c0 7.935 6.493 14.428 14.428 14.428h26.452c7.936 0 14.428-6.493 14.428-14.428v-112.686c-12.65 10.312-30.881 20.775-55.308 24.742z" fill="#ffc839"/><path d="m286.077 439.147c0 7.936 6.493 14.428 14.428 14.428h18.326c-3.962-3.882-4.742-9.626-4.742-9.626s0-41.33 0-57.207c0-10.635 16.436-17.082 27.296-20.687v-39.594c-12.651 10.312-30.882 20.775-55.309 24.742v87.944z" fill="#ffb332"/><path d="m351.312 305.553-9.697-16.081c-2.838-4.706-8.828-6.45-13.727-3.96-13.105 6.66-40.097 18.009-71.88 18.009-5.766 0-11.372-.378-16.769-1.03-2.52 1.978-8.068 6.864-12.354 14.464-4.999 8.864-9.053 23.118-.759 41.357-.706.049-1.568.125-2.538.231 9.66 2.548 20.448 4.092 32.42 4.092 54.372 0 84.372-31.776 94.676-45.297 2.61-3.427 2.852-8.097.628-11.785z" fill="#ffdd40"/><path d="m170.372 289.451-9.687 16.084c-2.221 3.688-1.978 8.355.631 11.779 8.41 11.037 29.954 34.241 67.154 42.401-17.993-36.091 12.961-56.973 12.961-56.973-25.341-2.674-46.271-11.633-57.327-17.255-4.901-2.492-10.895-.746-13.732 3.964z" fill="#ffc839"/><path d="m362.323 136.423c-1.26-.555-2.74-.467-3.865.327-5.067 3.578-11.741 3.973-17.227 1.271 2.688 19.177-1.119 43.304-1.119 43.304-.202.889-.413 1.749-.619 2.624 13.642.21 16.932-8.672 17.589-14.74.302-2.793.971-5.58 2.007-8.336 2.139-5.688 5.748-13.475 5.659-20.812-.018-1.581-.977-3.001-2.425-3.638z" fill="#ffaa7b"/><path d="m341.959 138.348c-2.449-1.067-4.697-2.709-6.495-4.96-7.74-9.692-20.07-28.512-26.096-55.807-.522-2.367-3.019-3.729-5.269-2.827-8.177 3.278-27.665 8.757-55.156 1.541-6.609-1.735-11.977-1.579-16.424.048-5.269 23.092-25.272 140.397 49.673 203.798 14.327-8.516 26.114-20.296 34.479-34.612 10.392-17.784 18.504-39.335 24.114-64.098 1.578-10.028 3.218-28.193 1.174-43.083z" fill="#ffc7ab"/><path d="m234.072 75.846c-29.795 8.216-20.269 78.769-51.49 106.982-5.059 4.572-6.99 11.678-5.012 18.203 5.051 16.664 11.392 31.576 18.942 44.497 10.552 18.058 26.532 32.103 46.212 40.618 8.815 3.812 18.922 3.813 27.735 0 4.541-1.965 8.875-4.237 13.001-6.772-78.356-64.707-53.236-188.702-49.388-203.528z" fill="#ffaa7b"/></g></svg>