<svg id="Layer_1" enable-background="new 0 0 512 512" height="512" viewBox="0 0 512 512" width="512" xmlns="http://www.w3.org/2000/svg"><g><path d="m475.847 375.22c16.097-32.638 25.155-69.369 25.155-108.222 0-135.311-109.691-245.002-245.002-245.002s-245.002 109.691-245.002 245.002c0 38.853 9.058 75.584 25.155 108.222z" fill="#ffc839"/><path d="m238.457 1.094c-52.68 7.178-57.687 37.046-57.71 48.004-.005 2.298-1.278 4.428-3.344 5.433-27.402 13.33-12.628 79.577-12.628 79.577 2.752.184 7.632 1.298 9.78 2.339.526-3.274 1.385-8.497 2.598-11.612.924-2.374 2.079-4.772 3.523-7.038 2.506-3.931 3.647-8.569 3.307-13.206-.985-13.403-2.51-37.813 15.181-45.774 14.988-6.744 33.374-2.839 45.098 1.06 7.614 2.532 15.862 2.532 23.477 0 11.725-3.899 30.11-7.804 45.098-1.06 17.641 7.938 16.164 32.221 15.19 45.659-.339 4.672.772 9.358 3.297 13.32 1.491 2.339 2.674 4.819 3.613 7.268 1.167 3.044 1.997 8.19 2.51 11.384 2.708-1.312 8.578-2.741 11.889-2.273.405-14.048 1.702-31.193 1.702-31.193 15.612-76.461-55.859-109.617-112.581-101.888z" fill="#56415e"/><path d="m257.007.023c-6.269-.11-12.493.245-18.55 1.07-52.68 7.178-57.687 37.046-57.71 48.004-.005 2.298-1.278 4.428-3.344 5.433-27.402 13.33-12.628 79.577-12.628 79.577 2.752.184 7.632 1.298 9.78 2.338.526-3.274 1.385-8.497 2.598-11.612.924-2.374 2.079-4.772 3.523-7.038 2.506-3.931 3.647-8.569 3.307-13.206-.985-13.403-2.51-37.813 15.181-45.774 14.988-6.744 33.374-2.839 45.098 1.06.425.141.853.272 1.282.397-.389-.807-.805-1.609-1.284-2.398-23.769-39.171 12.746-57.85 12.747-57.851z" fill="#45304c"/><path d="m235.799 325.172s14.135 6.201 20.201 15.097c6.066-8.896 20.201-15.097 20.201-15.097l58.284-29.644c-4.214-1.247-8.485-2.388-12.842-3.394-10.152-10.152-12.726-29.399-13.189-42.865-5.298 6.171-10.858 11.333-16.171 15.458-10.352 8.039-23.125 12.405-36.282 12.405-13.156 0-25.93-4.366-36.281-12.405-5.313-4.126-10.874-9.288-16.172-15.458-.464 13.466-3.037 32.713-13.19 42.865-4.356 1.005-8.628 2.147-12.841 3.394z" fill="#cc8c60"/><path d="m219.719 264.728c-5.314-4.126-10.874-9.288-16.172-15.458-.313 9.095-1.599 20.82-5.522 30.606 10.614 21.552 27.048 48.763 39.314 40.877 13.925-8.953 17.484-31.346 18.378-43.626-13.057-.063-25.722-4.419-35.998-12.399z" fill="#ba7d54"/><path d="m236.901 323.511-56.618-28.797c-3.335.939-6.629 1.952-9.887 3.038l10.036 202.353c23.803 7.711 49.195 11.895 75.568 11.895.858 0 1.711-.023 2.568-.032 0-50.99 0-157.564 0-166.79 0-12.167-21.667-21.667-21.667-21.667z" fill="#bec8f7"/><path d="m190.183 357.869-16.108-61.296c-1.23.386-2.46.772-3.68 1.178l3.314 66.822c1.283-.052 1.997-.058 1.997-.058 4.345-9.533 14.477-6.646 14.477-6.646z" fill="#a8b7ef"/><path d="m275.099 323.511s-21.667 9.5-21.667 21.667v166.79c.856.009 1.709.032 2.568.032 26.373 0 51.765-4.184 75.569-11.895l10.036-202.353c-3.258-1.085-6.552-2.098-9.887-3.038z" fill="#d3dcfb"/><g fill="#deeeff"><path d="m293.266 422.758v65.753c0 6.6 5.4 12 12 12h25.051c.419-.133.835-.271 1.252-.407l4.431-89.346h-30.734c-6.6 0-12 5.4-12 12z"/><path d="m314.21 268.988c-1.151-.635-2.581.029-2.844 1.317-1.711 8.38-9.135 34.779-36.704 50.447-2.715 1.543-3.365 5.165-1.311 7.518l27.858 31.907c5.784 6.662 16.433 5.464 20.608-2.309 7.059-13.14 16.891-33.14 24.169-54.642 1.303-3.85.377-8.107-2.37-11.103-8.473-9.243-18.402-17.06-29.406-23.135z"/><path d="m197.789 268.988c1.151-.635 2.581.029 2.844 1.317 1.711 8.38 9.135 34.779 36.704 50.447 2.715 1.543 3.365 5.165 1.311 7.518l-27.858 31.907c-5.784 6.662-16.433 5.464-20.608-2.309-7.058-13.14-16.891-33.14-24.169-54.642-1.303-3.85-.376-8.107 2.37-11.103 8.474-9.243 18.403-17.06 29.406-23.135z"/></g><path d="m436.934 332.029c-3.432-1.619-7.108-3.006-11.018-4.16l-54.981-26.169-9.244 186.386c49.552-23.731 89.873-63.632 114.155-112.867-.904-2.221-1.865-4.42-2.936-6.573-7.509-15.09-18.872-28.549-35.976-36.617z" fill="#548bed"/><path d="m340.067 288.421-10.531 212.344c11.225-3.528 22.103-7.835 32.567-12.871l9.225-186.007-9.75-4.641c-7.03-3.104-14.183-6.445-21.511-8.825z" fill="#72aafc"/><path d="m136.253 369.359c-26.206 8.214-40.058 23.226-40.058 43.413v39.913c16.355 14.09 34.584 26.064 54.277 35.478l-6.004-121.054c-2.707.643-5.463 1.387-8.215 2.25z" fill="#548bed"/><path d="m141.221 301.626-55.137 26.242c-3.909 1.154-7.586 2.542-11.018 4.16-17.104 8.068-28.467 21.527-35.976 36.618-1.071 2.152-2.033 4.352-2.936 6.573 14.957 30.326 36.006 57.102 61.542 78.747 0-11.856 0-25.808 0-41.195 0-27.016 25.117-38.907 46.848-44.142z" fill="#3e7fdd"/><path d="m174.763 363.037c-3.522.109-16.536.733-30.849 4.205l5.984 120.652c10.464 5.035 21.342 9.343 32.567 12.871l-6.898-139.065c-.281.42-.552.86-.804 1.337z" fill="#72aafc"/><path d="m140.672 301.887 3.317 66.875c16.793-4.123 31.718-4.247 31.718-4.247l-3.774-76.095c-7.328 2.38-14.481 5.721-21.51 8.826z" fill="#548bed"/><path d="m411.6 77.746c-17.771 12.145-31.22 30.742-26.537 58.7 12.27 73.253-44.248 110.625 44.083 149.899 31.405 13.964 51.185 30.3 63.502 44.267 5.444-20.286 8.354-41.61 8.354-63.615 0-76.224-34.812-144.316-89.402-189.251z" fill="#ffdd40"/><path d="m100.4 77.746c17.771 12.145 31.22 30.742 26.537 58.7-12.27 73.253 44.248 110.625-44.083 149.899-31.405 13.964-51.185 30.3-63.502 44.267-5.444-20.286-8.354-41.61-8.354-63.615 0-76.224 34.812-144.316 89.402-189.251z" fill="#ffdd40"/><path d="m437.608 431.418c-4.848-20.04-17.209-31.614-27.207-37.935-6.251-3.952-14.401.496-14.401 7.892v66.688c15.223-10.62 29.18-22.927 41.608-36.645z" fill="#3e7fdd"/><path d="m355.256 133.998c-4.103-3.76-13.276-1.854-16.81.448.774 4.821.818 9.753.149 14.623l-4.17 30.372c0 2.448-.077 4.85-.219 7.21 10.169 3.067 16.22-6.062 17.071-12.327.366-2.697.965-5.355 1.796-7.949 2.706-8.446 12.463-22.956 2.183-32.377z" fill="#cc8c60"/><path d="m156.744 133.998c4.103-3.76 13.276-1.854 16.81.448-.774 4.821-.818 9.753-.149 14.623l4.17 30.372c0 2.448.077 4.85.219 7.21-10.169 3.067-16.22-6.062-17.071-12.327-.366-2.697-.965-5.355-1.796-7.949-2.705-8.446-12.463-22.956-2.183-32.377z" fill="#ba7d54"/><path d="m336.937 125.063c-.939-2.449-2.122-4.929-3.613-7.268-2.525-3.962-3.636-8.648-3.298-13.32.974-13.438.452-39.721-17.19-47.659-14.987-6.744-33.372-2.839-45.096 1.059-7.614 2.532-15.866 2.532-23.48 0-.607-.202-1.236-.403-1.877-.604-14.281 9.903-14.638 33.782-13.713 46.371.346 4.707-.813 9.416-3.357 13.407-1.466 2.3-2.639 4.735-3.577 7.145-3.043 7.818-3.93 16.296-2.79 24.598l4.235 30.841c0 44.338 23.668 74.475 43.801 90.109 3.39 2.632 7.047 4.851 10.879 6.684 5.142-2.039 10.004-4.794 14.422-8.225 19.831-15.4 43.145-45.085 43.145-88.759l4.17-30.372c1.11-8.097.267-16.367-2.661-24.007z" fill="#dba783"/><g><path d="m267.172 268.2c-19.831-15.4-43.144-45.085-43.144-88.759l-4.171-30.379c-1.123-8.177-.249-16.529 2.749-24.229.924-2.374 2.079-4.772 3.524-7.038 2.506-3.932 3.647-8.57 3.306-13.206-.943-12.834-.537-37.582 15.031-46.651-.068-.022-.137-.041-.205-.064-11.725-3.899-30.109-7.803-45.096-1.059-17.692 7.96-18.166 34.371-17.181 47.774.341 4.636-.801 9.274-3.307 13.206-1.444 2.266-2.599 4.664-3.524 7.038-2.997 7.7-3.871 16.052-2.748 24.229l4.171 30.379c0 43.674 23.314 73.359 43.144 88.759 10.351 8.038 23.125 12.404 36.281 12.404 8.224 0 16.299-1.706 23.726-4.949-4.455-1.944-8.676-4.441-12.556-7.455z" fill="#cc8c60"/></g><path d="m334.863 191.059c-3.298 8.139-10.153 17.931-22.717 23.381-2.319-13.828-12.296-27.674-25.616-30.694l-20.359-5.981c-3.539-1.04-7.083.776-8.508 3.859-.26.563-1.047.563-1.307 0-1.425-3.083-4.969-4.898-8.508-3.859l-20.359 5.981c-13.583 3.08-23.696 17.417-25.751 31.513-13.897-5.241-21.131-15.636-24.6-24.2v.004c0 3.873.361 7.744 1.072 11.551 8.648 46.353 35.605 64.373 55.982 74.758 13.643 6.953 29.825 6.958 43.47.011 20.374-10.373 47.462-28.396 56.126-74.757.713-3.813 1.075-7.689 1.075-11.567zm-55.183 52.403c-8.744 3.09-18.286-2.41-19.406-11.512-.014-.118-.028-.236-.041-.356-.184-1.698-1.605-3.002-3.334-3.002-1.73 0-3.151 1.305-3.335 3.002-.013.12-.027.238-.041.356-1.12 9.102-10.662 14.602-19.406 11.512-12.031-4.251-17.206-12.302-19.431-18.205 6.518-8.916 16.116-15.314 27.163-17.752l3.637-.803c5.3-1.17 9.399-6.344 10.902-11.857.172-.633 1.072-.633 1.245 0 1.503 5.513 5.601 10.687 10.902 11.857l3.637.803c10.452 2.307 19.61 8.156 26.088 16.33-1.343 5.962-5.548 15.022-18.58 19.627z" fill="#56415e"/><path d="m243.164 243.75c-2.854.802-5.996.79-9.048-.289-12.031-4.251-17.207-12.302-19.431-18.205 3.693-5.051 8.375-9.291 13.748-12.464-15.126-9.919-5.984-25.437-4.3-28.029-11.872 4.484-20.513 17.587-22.395 30.494-13.897-5.241-21.131-15.636-24.6-24.2v.004c0 3.873.361 7.744 1.072 11.551 8.648 46.353 35.605 64.373 55.982 74.758 10.096 5.145 21.58 6.475 32.401 4.009-28.511-7.707-24.557-32.557-23.429-37.629z" fill="#45304c"/></g></svg>