<svg id="Layer_1" enable-background="new 0 0 512 512" height="512" viewBox="0 0 512 512" width="512" xmlns="http://www.w3.org/2000/svg"><g><path d="m466.622 392.197c21.828-36.641 34.38-79.451 34.38-125.199 0-135.311-109.691-245.002-245.002-245.002s-245.002 109.691-245.002 245.002c0 45.748 12.552 88.557 34.38 125.199z" fill="#7e6dd1"/><path d="m344.195 90.87c-20.314-64.541-88.195-63.696-88.195-63.696s-67.881-.845-88.196 63.695c-15.236 48.405-12.303 97.391-18.831 135.95-4.024 23.774 12.533 46.198 36.4 49.628 17.01 2.444 39.914 4.196 70.626 4.196s53.616-1.752 70.626-4.196c23.867-3.429 40.425-25.854 36.4-49.628-6.526-38.559-3.593-87.544-18.83-135.949z" fill="#45304c"/><path d="m323.525 212.882s7.545 36.503 40.022 23.501c.179-3.135.025-6.336-.522-9.564-4.016-23.723-4.456-51.396-7.744-80.449l-19.411 1.511z" fill="#56415e"/><g><path d="m231.845 335.498c4.334 2.869 5.33 9.199 1.248 13.381-.281.438-2.232 1.871-.821 3.208 39.204 37.163 8.192 36.759 48.195-.699 1.827-1.71-1.424-2.619-2.478-6.424-1.635-5.926 3.452-9.371 3.54-9.475 15.116-10.006 25.398-24.009 31.402-40.809-8.442-6.555-13.931-14.064-13.931-22.521 0-5.976 0-4.186 0-8.055-10.418 9.314-28.285 21.181-42.999 21.537-14.714-.357-32.58-12.223-42.999-21.537v8.055c0 8.094-5.025 15.322-12.858 21.676 5.816 17.262 16.732 31.755 31.701 41.663z" fill="#ffaa7b"/></g><path d="m213.001 264.106v8.055c0 8.094-5.025 15.322-12.858 21.676 5.751 17.067 16.495 31.42 31.205 41.318.487-.324.941-.643 1.355-.953 21.208-15.878 23.622-38.624 23.569-48.572-.09.003-.182.011-.272.013-14.714-.357-32.58-12.223-42.999-21.537z" fill="#fc9460"/><path d="m268.074 414.261c0-27.901-24.326-53.773-36.618-65.066l-24.191 27.708c-5.292 6.096-15.008 5.008-18.83-2.107-3.598-6.699-7.932-15.198-12.306-24.785l15.447 153.412c20.531 5.581 42.126 8.577 64.424 8.577 4.049 0 8.073-.104 12.074-.298 0-32.644 0-75.865 0-97.441z" fill="#ffc839"/><path d="m193.714 379.786c-2.147-.998-4.03-2.666-5.279-4.991-3.598-6.699-7.932-15.198-12.306-24.785l3.822 37.957c1.339.06 2.085.113 2.085.113 2.011-8.301 11.672-8.287 11.672-8.287z" fill="#ffb332"/><path d="m232.704 334.202c-18.882-12.501-27.422-29.878-31.163-41.085-1.899-5.689-8.661-7.961-13.656-4.642-5.923 3.936-11.478 8.394-16.609 13.308 0 .022.004.042.004.064l4.948 49.141c4.324 9.454 8.608 17.858 12.199 24.544 4.33 8.06 15.373 9.302 21.372 2.394l24.931-28.556c4.042-4.631 3.099-11.775-2.026-15.168z" fill="#ffdd40"/><path d="m335.871 350.011c-4.374 9.587-8.707 18.085-12.306 24.784-3.822 7.116-13.538 8.203-18.83 2.107l-24.191-27.708c-12.293 11.293-36.618 37.165-36.618 65.066v97.441c4 .195 8.025.299 12.074.299 22.298 0 43.893-2.996 64.423-8.578z" fill="#ffdd40"/><path d="m324.935 375.531c3.108-5.787 6.737-12.866 10.46-20.793l5.326-52.892c0-.413.07-.802.187-1.168-4.802-4.478-9.956-8.567-15.43-12.204-4.995-3.319-11.757-1.047-13.656 4.641-3.741 11.207-12.281 28.585-31.163 41.086-5.126 3.393-6.069 10.538-2.026 15.169l24.931 28.556c5.998 6.908 17.041 5.665 21.371-2.395z" fill="#fee77f"/><path d="m108.846 402.311c-5.706 5.315-8.6 11.9-8.6 19.57v34.213c17.433 14.374 36.882 26.392 57.869 35.549l-10.458-103.861c-17.883 2.321-30.934 7.193-38.811 14.529z" fill="#d3dcfb"/><path d="m139.957 311.319c-6.439 3.258-12.447 6.448-17.403 9.142-7.287 3.962-14.895 7.304-22.782 9.872-14.059 4.577-34.107 15.312-46.645 40.385-3.055 6.11-5.616 13.361-7.75 21.479 14.837 24.907 33.969 46.952 56.368 65.128 0-9.443 0-21.317 0-35.442 0-21.696 24.224-29.754 46.06-32.612z" fill="#bec8f7"/><path d="m180.938 386.516c-3.588-.186-14.742-.589-27.477.61-2.868.27-5.615.605-8.26.992l10.31 102.388c12.231 5.507 24.998 10.034 38.197 13.494l-12-119.173c-.289.526-.554 1.081-.77 1.689z" fill="#deeeff"/><path d="m182.037 388.081-8.683-86.234c0-2.706-2.734-4.55-5.244-3.537-9.917 4.003-20.82 9.251-30.52 14.213l7.762 77.09c18.855-2.796 36.685-1.532 36.685-1.532z" fill="#d3dcfb"/><path d="m466.622 392.197c-2.135-8.118-4.696-15.369-7.75-21.479-12.538-25.074-32.586-35.808-46.645-40.385-7.887-2.568-15.495-5.909-22.781-9.872-4.73-2.572-10.42-5.595-16.528-8.698l-18.071 179.461c46.751-20.641 85.825-55.465 111.775-99.027z" fill="#d3dcfb"/><path d="m338.646 301.847-20.355 202.153c13.199-3.46 25.966-7.986 38.197-13.494l17.922-177.983c-9.7-4.962-20.602-10.21-30.52-14.213-2.509-1.014-5.244.831-5.244 3.537z" fill="#deeeff"/><path d="m404.86 72.411c-10.498 12.634-17.374 29.386-10.384 49.845 16.968 49.663-27.401 117.49 22.451 167.342 25.988 25.988 56.468 27.851 79.702 23.685 2.868-14.988 4.372-30.46 4.372-46.285.001-79.313-37.698-149.81-96.141-194.587z" fill="#9589e8"/><path d="m117.524 122.256c6.99-20.459.114-37.211-10.384-49.845-58.444 44.777-96.142 115.274-96.142 194.587 0 15.825 1.504 31.297 4.372 46.285 23.234 4.166 53.714 2.303 79.702-23.685 49.853-49.852 5.484-117.68 22.452-167.342z" fill="#9589e8"/><path d="m440.344 428.341c-5.886-14.558-15.904-23.562-24.279-28.858-6.251-3.952-14.401.497-14.401 7.892v56.606c14.137-10.471 27.106-22.428 38.68-35.64z" fill="#bec8f7"/><g><path d="m174.033 132.176c1.183-3.871 2.802-7.223 4.991-9.69 1.97-2.22 3.207-4.968 3.294-7.906.512-17.168 7.111-72.791 70.481-48.498 2.49.955 5.269.955 7.76 0 63.37-24.293 69.969 31.33 70.481 48.498.088 2.938 1.324 5.686 3.294 7.906 2.189 2.467 3.808 5.819 4.991 9.691v-.001c3.211-2.14 8.195-3.616 12.701-3.511l.001-.013v-41.669c0-31.577-17.603-60.841-46.169-75.578-13.049-6.733-29.275-11.405-49.179-11.405s-36.13 4.672-49.18 11.405c-28.566 14.738-46.169 44.001-46.169 75.578v41.669l.001.013c4.506-.106 9.491 1.371 12.702 3.511z" fill="#56415e"/><path d="m253.468 66.302c-.239-.32-.462-.641-.715-.961-34.214-43.286 3.921-65.338 3.926-65.341-19.904 0-36.13 4.672-49.179 11.404-28.566 14.738-46.169 44.002-46.169 75.579v41.669l.001.013c4.505-.106 9.49 1.371 12.701 3.511 1.183-3.871 2.802-7.223 4.991-9.69 1.97-2.221 3.207-4.968 3.294-7.906.512-17.168 7.111-72.791 70.481-48.498.22.084.445.151.669.22z" fill="#45304c"/><path d="m173.248 181.68s-5.172-32.73.785-52.222c-5.404-3.603-15.846-5.362-20.543-.77-9.615 9.4-2.57 23.595.801 32.561 1.035 2.753 1.703 5.537 2.005 8.327.656 6.062 3.942 14.934 17.57 14.724-.206-.872-.417-1.732-.618-2.62z" fill="#fc9460"/><path d="m359.869 128.688c-4.696-4.591-15.138-2.832-20.543.77 5.957 19.492.785 52.222.785 52.222-.201.888-.412 1.747-.618 2.621 13.627.209 16.914-8.663 17.57-14.724.302-2.79.969-5.574 2.005-8.327 3.371-8.967 10.416-23.162.801-32.562z" fill="#ffaa7b"/><path d="m334.843 119.317c-1.964-2.213-3.043-4.798-3.123-7.475-.304-10.192-2.877-35.138-20.165-46.65-12.263-8.166-29.502-8.08-51.238.255-2.346.9-4.929.9-7.274 0-1.075-.412-2.131-.788-3.184-1.16-15.551 12.413-17.974 36.076-18.271 46.026-.082 2.744-1.188 5.392-3.201 7.659-11.091 12.499-8.662 49.012-6.075 64.045 5.73 25.293 14.031 47.349 24.669 65.554 8.13 13.913 19.423 25.481 33.097 34.075 15.296-8.586 27.841-20.813 36.617-35.831 10.381-17.765 18.483-39.293 24.089-64.029 2.425-15.424 5.009-50.13-5.941-62.469z" fill="#ffc7ab"/><g><path d="m247.825 245.815c-10.383-17.77-18.485-39.297-24.078-63.985-2.525-14.673-4.896-50.313 5.929-62.512 1.965-2.213 3.045-4.797 3.125-7.475.302-10.149 2.861-34.925 19.953-46.5-21.599-8.222-38.742-8.277-50.948-.15-17.288 11.512-19.862 36.458-20.166 46.651-.079 2.679-1.16 5.263-3.124 7.475-10.825 12.199-8.455 47.839-5.929 62.512 5.593 24.688 13.695 46.215 24.078 63.985 10.54 18.039 26.503 32.069 46.162 40.574 8.805 3.808 18.902 3.808 27.705 0 4.077-1.764 7.984-3.779 11.728-6.004-14.309-8.507-26.081-20.273-34.435-34.571z" fill="#ffaa7b"/></g></g></g></svg>