<svg id="Layer_1" enable-background="new 0 0 512 512" height="512" viewBox="0 0 512 512" width="512" xmlns="http://www.w3.org/2000/svg"><g><path d="m475.832 375.249c16.106-32.645 25.17-69.387 25.17-108.251 0-135.311-109.691-245.002-245.002-245.002s-245.002 109.691-245.002 245.002c0 38.864 9.064 75.606 25.17 108.251z" fill="#7e6dd1"/><path d="m255.974 0c-51.769 0-94.125 42.356-94.125 94.125v43.869h188.25v-43.869c0-51.769-42.356-94.125-94.125-94.125z" fill="#56415e"/><path d="m161.849 94.125v43.869h79.26c8.344-28.436 14.481-62.633 3.125-80.118-21.545-33.174 11.74-57.876 11.74-57.876-51.769 0-94.125 42.356-94.125 94.125z" fill="#45304c"/><path d="m220.358 333.769c22.501 11.466 49.138 11.285 71.284 0 15.724-8.013 33.842-18.828 50.079-35.971-6.542-2.184-13.226-4.076-20.105-5.663-10.152-10.152-12.726-29.399-13.189-42.865-5.298 6.171-10.858 11.333-16.171 15.459-10.352 8.038-23.126 12.405-36.282 12.405s-25.93-4.366-36.282-12.405c-5.313-4.126-10.874-9.288-16.172-15.459-.464 13.466-3.037 32.713-13.19 42.865-6.865 1.584-13.535 3.472-20.064 5.65 16.241 17.151 34.364 27.969 50.092 35.984z" fill="#ffaa7b"/><path d="m230.835 316.573c14.905-10.162 18.751-28.923 19.697-39.698-11.207-1.031-21.923-5.222-30.839-12.147-5.313-4.126-10.874-9.288-16.172-15.458-.325 9.446-1.701 21.727-5.99 31.727 9.053 21.766 21.582 43.567 33.304 35.576z" fill="#fc9460"/><path d="m273.3 323.396-12.144 19.113 22.029-5.913z" fill="#d3dcfb"/><path d="m238.648 323.396 12.143 19.113-22.029-5.913z" fill="#d3dcfb"/><path d="m355.23 133.998c-4.103-3.76-13.276-1.854-16.81.448.774 4.821.818 9.753.149 14.623l-4.17 30.372c0 2.448-.077 4.85-.219 7.21 10.169 3.067 16.22-6.062 17.071-12.327.366-2.697.965-5.355 1.796-7.949 2.705-8.446 12.463-22.956 2.183-32.377z" fill="#ffaa7b"/><path d="m156.718 133.998c4.103-3.76 13.276-1.854 16.81.448-.774 4.821-.818 9.753-.149 14.623l4.17 30.372c0 2.448.077 4.85.219 7.21-10.169 3.067-16.22-6.062-17.071-12.327-.366-2.697-.965-5.355-1.796-7.949-2.705-8.446-12.463-22.956-2.183-32.377z" fill="#fc9460"/><path d="m336.911 125.063c-.939-2.449-2.122-4.929-3.613-7.268-2.525-3.962-3.636-8.648-3.298-13.32.974-13.438.452-39.721-17.19-47.659-14.988-6.744-33.372-2.839-45.096 1.059-7.614 2.532-15.866 2.532-23.48 0-.607-.202-1.236-.403-1.878-.604-14.281 9.903-14.638 33.782-13.713 46.371.346 4.707-.813 9.416-3.357 13.407-1.466 2.3-2.639 4.735-3.577 7.145-3.043 7.818-3.93 16.296-2.79 24.598l4.235 30.841c0 44.338 23.669 74.475 43.801 90.109 3.39 2.632 7.047 4.851 10.879 6.684 5.142-2.039 10.004-4.794 14.422-8.225 19.831-15.399 43.145-45.085 43.145-88.759l4.17-30.372c1.111-8.097.268-16.367-2.66-24.007z" fill="#ffc7ab"/><g><path d="m267.146 268.2c-19.831-15.399-43.144-45.085-43.144-88.759l-4.171-30.379c-1.123-8.177-.249-16.529 2.749-24.229.924-2.374 2.079-4.772 3.524-7.038 2.506-3.932 3.647-8.57 3.306-13.206-.943-12.834-.537-37.582 15.03-46.651-.068-.022-.137-.041-.205-.064-11.725-3.898-30.109-7.803-45.096-1.059-17.692 7.961-18.166 34.371-17.181 47.774.34 4.636-.801 9.274-3.307 13.206-1.444 2.266-2.599 4.664-3.523 7.038-2.998 7.7-3.871 16.052-2.749 24.229l4.171 30.379c0 43.674 23.314 73.359 43.144 88.759 10.351 8.038 23.125 12.404 36.281 12.404 8.224 0 16.299-1.706 23.726-4.949-4.454-1.944-8.675-4.441-12.555-7.455z" fill="#ffaa7b"/></g><path d="m334.836 191.059c-3.298 8.139-10.153 17.931-22.717 23.381-2.319-13.828-12.296-27.674-25.616-30.694l-20.359-5.981c-3.539-1.04-7.083.776-8.508 3.859-.26.563-1.047.563-1.307 0-1.425-3.083-4.969-4.898-8.508-3.859l-20.359 5.981c-13.583 3.08-23.696 17.417-25.751 31.513-13.897-5.241-21.131-15.636-24.6-24.2v.004c0 3.873.361 7.744 1.072 11.551 8.648 46.353 35.605 64.373 55.982 74.758 13.643 6.953 29.825 6.958 43.47.011 20.375-10.373 47.462-28.396 56.126-74.757.713-3.813 1.075-7.689 1.075-11.567zm-55.182 52.403c-8.744 3.09-18.286-2.41-19.406-11.512-.014-.118-.028-.236-.041-.356-.184-1.698-1.605-3.002-3.334-3.002-1.73 0-3.151 1.305-3.335 3.002-.013.12-.027.238-.041.356-1.12 9.102-10.662 14.602-19.406 11.512-12.031-4.251-17.206-12.302-19.431-18.205 6.518-8.916 16.116-15.314 27.163-17.752l3.637-.803c5.3-1.17 9.399-6.344 10.902-11.857.172-.633 1.072-.633 1.245 0 1.503 5.513 5.601 10.687 10.902 11.857l3.637.803c10.452 2.307 19.61 8.156 26.088 16.33-1.343 5.962-5.548 15.022-18.58 19.627z" fill="#56415e"/><path d="m243.137 243.75c-2.854.802-5.996.79-9.048-.289-12.031-4.251-17.206-12.302-19.431-18.205 3.693-5.051 8.375-9.291 13.747-12.464-15.126-9.919-5.984-25.437-4.3-28.029-11.872 4.484-20.513 17.587-22.395 30.494-13.897-5.24-21.131-15.636-24.6-24.2v.004c0 3.873.361 7.744 1.072 11.551 8.648 46.353 35.605 64.373 55.982 74.758 10.096 5.145 21.581 6.475 32.401 4.009-28.51-7.707-24.555-32.557-23.428-37.629z" fill="#45304c"/><path d="m472.884 368.647c-7.509-15.091-18.872-28.55-35.976-36.618-3.432-1.619-7.108-3.006-11.018-4.16l-64.339-22.408c-7.65-3.379-15.436-6.335-23.447-8.854-15.619 16.871-33.203 27.377-48.413 35.128-20.933 10.668-46.113 10.839-67.382 0-8.13-4.143-16.939-9.087-25.763-15.356-7.444 5.38-13.742 14.012-14.141 27.875-4.177.32-16.85 1.665-29.708 6.748-20.662 8.168-31.584 22.131-31.584 40.38v80.163c38.684 25.567 85.045 40.455 134.887 40.455 96.447 0 179.863-55.738 219.832-136.751-.907-2.232-1.872-4.44-2.948-6.602z" fill="#49b1f7"/><path d="m122.612 472.521c0-18.805 0-52.232 0-81.14 0-43 61.271-45.721 61.271-45.721 0-14.363 6.374-23.096 13.896-28.408-8.093-5.638-16.225-12.373-23.884-20.646-8.011 2.519-15.797 5.475-23.447 8.854l-64.338 22.409c-3.909 1.154-7.586 2.542-11.018 4.16-17.104 8.068-28.467 21.527-35.976 36.618-1.076 2.162-2.041 4.371-2.948 6.602 19.579 39.685 49.589 73.298 86.444 97.272z" fill="#1fa2ea"/><path d="m303.427 323.2c-4.708 2.803-9.322 5.286-13.736 7.535-20.933 10.668-46.113 10.839-67.382 0-4.43-2.258-9.062-4.751-13.787-7.566v25.864c1.374.722 2.738 1.43 4.085 2.116 27.396 13.961 59.827 13.74 86.789 0 1.329-.677 2.675-1.375 4.031-2.087z" fill="#73c3f9"/><path d="m394.798 413.574h-270.257c-4.054 0-7.34 3.286-7.34 7.34v47.985c4.802 3.308 9.729 6.447 14.77 9.413h248.056c5.042-2.966 9.967-6.105 14.77-9.413v-55.325z" fill="#73c3f9"/><path d="m314.185 268.931c-1.151-.635-2.582.029-2.845 1.317-1.711 8.38-9.135 34.779-36.704 50.447-2.715 1.543-3.365 5.165-1.311 7.518l27.858 31.907c5.784 6.662 16.433 5.464 20.608-2.309 7.058-13.14 16.891-33.14 24.169-54.642 1.303-3.85.376-8.107-2.37-11.103-8.473-9.243-18.402-17.061-29.405-23.135z" fill="#deeeff"/><path d="m237.312 320.695c-6.756-3.84-12.296-8.326-16.846-13.031-6.615.681-36.189 5.415-37.976 35.156 2.729 5.607 5.349 10.675 7.667 14.991 4.175 7.772 14.825 8.971 20.608 2.309l27.858-31.907c2.054-2.352 1.404-5.975-1.311-7.518z" fill="#deeeff"/><path d="m221.839 309.053.001-.002c-15.095-14.808-19.899-32.273-21.232-38.803-.263-1.288-1.694-1.953-2.844-1.317-11.003 6.074-20.932 13.892-29.405 23.135-2.746 2.996-3.673 7.253-2.37 11.103 5.298 15.652 11.946 30.493 17.895 42.487.003-35.049 37.955-36.603 37.955-36.603z" fill="#d3dcfb"/><path d="m411.6 77.746c-17.771 12.145-31.22 30.742-26.537 58.7 12.27 73.253-44.248 110.625 44.083 149.899 31.405 13.964 51.185 30.3 63.502 44.267 5.444-20.286 8.354-41.61 8.354-63.615 0-76.224-34.812-144.316-89.402-189.251z" fill="#9589e8"/><path d="m100.4 77.746c17.771 12.145 31.22 30.742 26.537 58.7-12.27 73.253 44.248 110.625-44.083 149.899-31.405 13.964-51.185 30.3-63.502 44.267-5.444-20.286-8.354-41.61-8.354-63.615 0-76.224 34.812-144.316 89.402-189.251z" fill="#9589e8"/><path d="m435.067 434.19c-4.908-19.818-17.173-31.299-27.111-37.583-6.251-3.952-14.402.497-14.402 7.892v65.254c15.137-10.29 29.061-22.23 41.513-35.563z" fill="#1fa2ea"/></g></svg>