<svg id="Layer_1" enable-background="new 0 0 512 512" height="512" viewBox="0 0 512 512" width="512" xmlns="http://www.w3.org/2000/svg"><g><path d="m460.461 402.004c25.613-38.712 40.541-85.112 40.541-135.006 0-135.311-109.691-245.002-245.002-245.002s-245.002 109.691-245.002 245.002c0 49.894 14.928 96.294 40.542 135.006z" fill="#49b1f7"/><path d="m220.422 26.488c-.55 15.106 6.076 29.67 19.695 43.289 43.022 43.023 79.691 160.805 80.088 162.082.179.486 4.542 11.949 16.512 16.338 7.562 2.774 16.329 2.061 26.13-2.103 2.168-6.986 5.629-14.827 10.799-23.775 46.177-79.92-9.67-111.494-27.675-166.202-7.877-23.935-25.954-37.968-43.798-46.182-23.857-10.981-50.869-12.855-75.809-5.643-3.152 6.263-5.636 13.775-5.942 22.196z" fill="#56415e"/><path d="m359.808 369.333c51.299-67.48-15.899-67.856 3.78-125.493-31.723 14.427-41.734-12.592-41.734-12.592s-36.658-118.881-80.493-162.716c-25.591-25.591-20.939-49.458-12.635-64.896-5.982 1.585-11.858 3.679-17.552 6.3-17.844 8.214-35.92 22.247-43.797 46.182-18.005 54.708-73.852 86.281-27.675 166.202 46.177 79.92-43.169 72.027 13.837 147.014h103.134 103.135z" fill="#45304c"/><path d="m160.504 185.168c2.585 3.115 6.859 5.451 13.925 5.342-.207-.875-.418-1.735-.619-2.624 0 0-2.853-18.079-1.879-35.378-6.656 7.584-12 16.708-11.427 32.66z" fill="#fc9460"/><path d="m342.778 152.508c.974 17.299-1.879 35.378-1.879 35.378-.201.889-.413 1.75-.619 2.624 7.065.109 11.34-2.227 13.925-5.342.572-15.951-4.771-25.075-11.427-32.66z" fill="#ffaa7b"/><path d="m232.708 341.807c4.18 2.767 5.14 8.871 1.203 12.903-.271.423-2.152 1.804-.792 3.094 37.803 35.836 7.899 35.446 46.474-.674 1.762-1.649-1.373-2.525-2.39-6.194-1.576-5.714 3.329-9.036 3.413-9.137 14.576-9.649 24.491-23.151 30.28-39.352-8.141-6.321-13.433-13.562-13.433-21.716 0-5.763 0-4.036 0-7.767-10.046 8.982-27.275 20.424-41.463 20.768-14.189-.344-31.417-11.787-41.463-20.768v7.767c0 7.805-4.846 14.775-12.399 20.901 5.609 16.646 16.136 30.621 30.57 40.175z" fill="#ffaa7b"/><path d="m256.588 293.704c-.196.009-.393.024-.588.028-14.189-.344-31.417-11.786-41.463-20.768v7.767c0 7.805-4.846 14.775-12.399 20.901 5.552 16.477 15.929 30.33 30.139 39.876.419-.298.839-.612 1.259-.952 18.776-15.188 22.388-37.324 23.052-46.852z" fill="#fc9460"/><path d="m290.246 367.131-10.578-12.116c-5.099 4.684-12.341 11.976-18.943 20.9 13.419-.907 23.709-5.486 29.521-8.784z" fill="#d3dcfb"/><path d="m251.264 375.9c-6.599-8.917-13.836-16.203-18.932-20.885l-10.213 11.698c5.291 3.324 15.303 8.234 29.145 9.187z" fill="#d3dcfb"/><path d="m451.627 375.769c-15.237-30.473-41.979-38.982-54.163-41.322 0 0-26.331-4.806-51.97-14.276.369 1.678.294 3.445-.273 5.119-7.261 21.453-17.096 41.43-24.068 54.412-3.656 6.809-12.904 7.885-18.032 2.159-8.221 5.258-25.204 13.979-47.398 13.979-22.838 0-39.121-9.236-46.451-14.41l-.265.304c-5.103 5.878-14.472 4.83-18.157-2.032-2.549-4.746-5.482-10.434-8.531-16.78-.06.461-.13.912-.177 1.385-3.45 1.047-15.117 4.866-26.956 11.941-18.528 11.073-28.322 24.849-28.322 39.838v59.139c37.492 23.307 81.738 36.775 129.136 36.775 85.417 0 160.611-43.722 204.461-109.996-2.299-10.093-5.211-18.988-8.834-26.235z" fill="#88ce65"/><path d="m128.362 416.085c0-35.296 55.183-50.628 55.183-50.628v-.001c-5.633-11.524-11.801-25.499-16.765-40.167-.567-1.673-.643-3.44-.273-5.119-25.639 9.47-51.97 14.276-51.97 14.276-12.184 2.34-38.926 10.849-54.163 41.322-3.623 7.247-6.535 16.142-8.834 26.235 19.842 29.989 46.102 55.359 76.823 74.151-.001-16.918-.001-40.388-.001-60.069z" fill="#6faf46"/><path d="m343.526 153.373c-10.216-12.022-24.047-19.814-24.047-43.417 0-59.856-58.482-38.461-58.482-38.461-2.349.901-4.935.901-7.284 0 0 0-6.438-2.353-15.039-3.315.116.117.224.234.341.352 0 0-47.546 140.807 44.647 216.325.344.282.668.562 1.002.843 13.565-8.428 24.753-19.844 32.787-33.594 10.395-17.788 18.508-39.346 24.121-64.116 1.287-8.184 2.618-21.793 1.954-34.617z" fill="#ffc7ab"/><path d="m197.258 252.107c10.555 18.063 26.539 32.112 46.225 40.629 8.817 3.813 18.927 3.814 27.743 0 5.197-2.248 10.127-4.893 14.776-7.884-92.183-75.519-44.64-216.319-44.64-216.319-17.16-2.583-46.131-.706-46.131 41.424 0 23.576-13.801 31.377-24.013 43.376-.723 13.042.581 26.862 1.93 34.704 5.601 24.72 13.714 46.276 24.11 64.07z" fill="#ffaa7b"/><path d="m203.89 379.109s19.246 18.23 51.831 18.23 53.834-18.23 53.834-18.23l-14.92-16.612s-15.25 12.083-38.635 12.083-37.198-12.083-37.198-12.083z" fill="#b4d667"/><path d="m233.536 340.557c-6.046-4.003-10.987-8.525-15.029-13.175-5.597 1.024-32.936 7.495-36.263 36.117 3.062 6.377 6.016 12.107 8.596 16.912 4.175 7.772 14.824 8.971 20.608 2.309l24.041-27.536c3.899-4.465 2.989-11.355-1.953-14.627z" fill="#deeeff"/><path d="m219.688 328.708c-8.884-9.737-13.678-20.209-16.202-27.769-1.831-5.486-8.352-7.677-13.169-4.477-7.787 5.175-14.922 11.275-21.247 18.17-2.758 3.007-3.707 7.271-2.399 11.137 4.905 14.492 10.968 28.29 16.562 39.777.2-.059.311-.09.311-.09 2.517-32.59 36.143-36.748 36.144-36.748z" fill="#d3dcfb"/><path d="m344.243 314.633c-6.325-6.895-13.46-12.996-21.247-18.17-4.816-3.201-11.337-1.01-13.168 4.476-3.608 10.807-11.842 27.564-30.05 39.618-4.942 3.272-5.852 10.162-1.954 14.627l24.041 27.536c5.784 6.662 16.434 5.463 20.608-2.309 7.058-13.14 16.891-33.139 24.169-54.641 1.308-3.865.359-8.13-2.399-11.137z" fill="#deeeff"/><path d="m100.696 239.382c-20.667-43.333-11.333-79.333 2-114.454 6.291-16.571.708-31.797-6.943-43.262-51.911 44.925-84.754 111.293-84.754 185.332 0 29.823 5.338 58.396 15.099 84.827 7.815-13.189 25.936-24.748 45.932-31.655 26.666-9.211 49.332-37.455 28.666-80.788z" fill="#73c3f9"/><path d="m411.304 239.382c20.667-43.333 11.333-79.333-2-114.454-6.291-16.571-.708-31.797 6.943-43.262 51.911 44.925 84.754 111.293 84.754 185.332 0 29.823-5.337 58.396-15.098 84.827-7.815-13.189-25.937-24.748-45.932-31.655-26.667-9.211-49.333-37.455-28.667-80.788z" fill="#73c3f9"/><path d="m437.608 431.418c-4.848-20.04-17.209-31.614-27.207-37.935-6.251-3.952-14.401.496-14.401 7.892v66.688c15.223-10.62 29.18-22.927 41.608-36.645z" fill="#6faf46"/></g></svg>