<svg id="Layer_1" enable-background="new 0 0 512 512" height="512" viewBox="0 0 512 512" width="512" xmlns="http://www.w3.org/2000/svg"><g><path d="m456.274 408.143c28.172-39.9 44.728-88.588 44.728-141.146 0-135.31-109.691-245.002-245.002-245.002s-245.002 109.691-245.002 245.002c0 52.558 16.556 101.245 44.728 141.146z" fill="#49b1f7"/><path d="m297.463 301.82c0-5.762 0-4.036 0-7.767-10.046 8.981-27.275 20.424-41.464 20.768-.521-.013-1.048-.045-1.576-.086l.058.215c-.195 1.951-1.771 15.315-9.504 32.319-7.651 16.827-23.072 40.764-53.113 59.396-1.86.126-9.207.973-13.982 6.587-1.401 1.647-2.421 3.553-3.103 5.68 15.919 18.153 35.855 32.657 58.846 42.604 14.654 6.338 31.456 6.338 46.107 0 32.716-14.154 59.281-37.502 76.823-67.523 7.667-13.121 14.564-27.51 20.704-43.02-29.215-7.433-79.796-23.945-79.796-49.173z" fill="#ffaa7b"/><path d="m256 314.821c-14.189-.344-31.417-11.786-41.463-20.768v7.767c0 24.875-49.182 41.278-78.563 48.858 6.17 15.624 13.109 30.121 20.83 43.334 5.516 9.44 11.927 18.217 19.138 26.259 3.094-11.818 16.384-12.129 16.384-12.129 59.296-36.57 63.674-93.321 63.674-93.321z" fill="#fc9460"/><path d="m451.626 396.858c-15.237-30.473-41.979-38.983-54.163-41.322 0 0-10.344-1.89-24.372-5.628-6.01 15.321-12.788 29.509-20.336 42.426-16.878 28.886-42.439 51.352-73.919 64.971-14.097 6.099-30.264 6.098-44.364 0-22.705-9.823-42.308-24.269-57.818-42.386-2.299 3.543-3.222 8.011-2.731 13.342-3.488.281-12.129 1.205-20.89 3.917-15.16 4.691-23.174 12.542-23.174 22.703v22.181c36.846 22.177 80.001 34.938 126.141 34.938 82.753 0 155.917-41.033 200.274-103.857-1.4-4.091-2.943-7.876-4.648-11.285z" fill="#7e6dd1"/><path d="m131.358 454.882c0-23.081 44.235-25.23 44.235-25.23-.846-6.066.188-10.414 2.083-13.542-6.408-7.333-12.152-15.267-17.123-23.775-7.602-13.01-14.423-27.305-20.462-42.742-14.627 3.95-25.554 5.944-25.554 5.944-12.185 2.34-38.926 10.849-54.163 41.322-1.705 3.409-3.247 7.194-4.648 11.285 19.961 28.271 45.757 52.125 75.632 69.816 0-7.291 0-15.342 0-23.078z" fill="#7255ce"/><path d="m380.393 348.771-14.696-5.765c-2.847-1.117-6.064.258-7.228 3.087-5.261 12.79-11.093 24.688-17.371 35.43-15.416 26.384-38.8 46.921-67.623 59.392-10.688 4.623-22.953 4.624-33.644 0-18.831-8.148-35.32-19.757-48.803-34.172-2.657.301-8.91 1.527-13.147 6.509-3.143 3.695-4.47 8.63-3.978 14.678 15.494 15.842 34.125 28.645 55.209 37.766 8.753 3.786 18.147 5.678 27.542 5.678 9.396 0 18.791-1.893 27.542-5.679 34.139-14.771 61.877-39.167 80.214-70.55 6.943-11.878 13.362-24.978 19.122-39.008 1.191-2.901-.22-6.22-3.139-7.366z" fill="#9589e8"/><path d="m192.325 408.143.006-.003c-7.698-8.011-14.453-16.915-20.122-26.617-6.328-10.83-12.202-22.828-17.496-35.732-1.161-2.83-4.377-4.207-7.225-3.093l-14.702 5.751c-2.921 1.143-4.334 4.461-3.146 7.364 5.794 14.15 12.26 27.359 19.256 39.332 7.417 12.694 16.396 24.222 26.691 34.455-2.895-21.011 16.738-21.457 16.738-21.457z" fill="#7e6dd1"/><g><path d="m344.664 282.618c-6.749-23.638-9.547-42.091-10.153-56.35-5.126 18.497-11.824 34.875-19.985 48.838-4.708 8.059-10.552 15.274-17.339 21.528-10.139 59.151 8.82 103.71 23.74 128.06 3.144 5.131 11.522 2.979 11.441-2.946-.671-49.039 30.468-75.481 12.296-139.13z" fill="#45304c"/></g><path d="m318.362 318.295c0 23.067 2.829 46.689 22.952 52.743 7.19-24.679 14.421-49.646 3.35-88.42-.059-.206-.111-.403-.169-.607-10.791 5.827-26.133 17.423-26.133 36.284z" fill="#56415e"/><path d="m256.655 39.38c15.726 0 29.067 3.027 40.296 7.691.317-2.05.484-4.151.484-6.29 0-22.523-18.258-40.781-40.78-40.781-22.523 0-40.781 18.258-40.781 40.781 0 2.139.167 4.239.484 6.29 11.23-4.664 24.571-7.691 40.297-7.691z" fill="#56415e"/><path d="m256.655 0c-22.523 0-40.781 18.258-40.781 40.781 0 2.139.167 4.239.484 6.29 11.23-4.664 24.571-7.691 40.296-7.691v-8.639c-16.549-16.55.001-30.741.001-30.741z" fill="#45304c"/><g><path d="m209.232 52.997c12.583-6.492 28.23-10.997 47.423-10.997s34.84 4.505 47.423 10.998c2.235 1.153 4.392 2.407 6.484 3.738-12.63-15.836-32.077-25.996-53.907-25.996s-41.277 10.159-53.908 25.995c2.092-1.331 4.25-2.585 6.485-3.738z" fill="#ffe07d"/></g><path d="m176.96 166.835c1.141-3.733 2.702-6.965 4.813-9.344 1.9-2.141 3.092-4.79 3.177-7.624.494-16.555 6.857-70.191 67.964-46.766 2.402.92 5.081.92 7.483 0 61.107-23.425 67.47 30.211 67.964 46.766.085 2.834 1.277 5.483 3.177 7.624 2.111 2.379 3.672 5.611 4.813 9.344v-.001c3.096-2.064 7.903-3.487 12.247-3.385l.001-.013v-40.181c0-30.449-16.974-58.668-44.52-72.879-12.583-6.492-28.23-10.997-47.423-10.997s-34.84 4.505-47.423 10.997c-27.546 14.211-44.52 42.43-44.52 72.879v40.181l.001.013c4.343-.101 9.15 1.322 12.246 3.386z" fill="#56415e"/><path d="m253.558 103.314c-.231-.309-.446-.618-.69-.926-32.992-41.741 3.781-63.005 3.786-63.008-19.193 0-34.84 4.505-47.423 10.997-27.546 14.211-44.52 42.43-44.52 72.879v40.181l.001.013c4.344-.102 9.151 1.322 12.247 3.385 1.141-3.732 2.702-6.965 4.813-9.344 1.9-2.141 3.092-4.791 3.177-7.624.494-16.555 6.857-70.192 67.964-46.766.213.082.429.146.645.213z" fill="#45304c"/><path d="m176.203 214.572s-4.987-31.561.757-50.357c-5.211-3.474-15.281-5.17-19.809-.743-9.272 9.064-2.478 22.752.773 31.398.998 2.655 1.642 5.34 1.933 8.03.633 5.845 3.802 14.4 16.942 14.199-.199-.842-.402-1.671-.596-2.527z" fill="#fc9460"/><path d="m356.159 163.472c-4.529-4.427-14.598-2.731-19.809.743 5.744 18.796.757 50.357.757 50.357-.194.856-.397 1.685-.596 2.527 13.141.202 16.31-8.353 16.942-14.199.291-2.69.935-5.375 1.933-8.03 3.251-8.646 10.045-22.334.773-31.398z" fill="#ffaa7b"/><path d="m332.027 154.436c-1.893-2.134-2.935-4.627-3.012-7.209-.293-9.828-2.775-33.883-19.445-44.983-11.825-7.874-28.448-7.792-49.408.246-2.262.868-4.753.868-7.014 0-1.037-.397-2.055-.76-3.07-1.119-14.996 11.97-17.332 34.788-17.618 44.382-.079 2.646-1.145 5.199-3.087 7.385-10.695 12.052-8.352 47.262-5.858 61.758 5.526 24.39 13.53 45.658 23.788 63.213 7.84 13.416 18.73 24.571 31.915 32.858 14.75-8.28 26.847-20.069 35.309-34.551 10.011-17.13 17.823-37.89 23.228-61.742 2.339-14.874 4.831-48.34-5.728-60.238z" fill="#ffc7ab"/><g><path d="m248.117 276.416c-10.012-17.135-17.825-37.894-23.218-61.7-2.435-14.149-4.721-48.516 5.717-60.28 1.895-2.134 2.936-4.626 3.013-7.209.292-9.787 2.759-33.677 19.24-44.839-20.827-7.928-37.358-7.981-49.128-.145-16.671 11.101-19.153 35.156-19.446 44.984-.077 2.583-1.118 5.075-3.013 7.209-10.439 11.764-8.153 46.131-5.717 60.28 5.394 23.807 13.206 44.565 23.218 61.7 10.164 17.395 25.557 30.923 44.513 39.125 8.491 3.672 18.227 3.672 26.716 0 3.931-1.701 7.699-3.644 11.309-5.79-13.797-8.202-25.148-19.548-33.204-33.335z" fill="#ffaa7b"/></g><path d="m263.287 494.576h-13.4c-3.921 0-7.129-3.208-7.129-7.129v-40.976c0-3.921 3.208-7.129 7.129-7.129h13.4c3.921 0 7.129 3.208 7.129 7.129v40.976c0 3.921-3.208 7.129-7.129 7.129z" fill="#b5b0f7"/><path d="m406.128 73.383c-16.025 13.071-32.156 34.048-22.649 61.873 16.968 49.663-27.401 117.49 22.451 167.342 29.337 29.337 64.405 27.937 88.303 21.818 4.424-18.417 6.77-37.643 6.77-57.418-.001-78.739-37.153-148.793-94.875-193.615z" fill="#73c3f9"/><path d="m105.872 73.383c16.025 13.071 32.156 34.048 22.649 61.873-16.968 49.663 27.401 117.49-22.451 167.342-29.337 29.337-64.405 27.937-88.303 21.818-4.424-18.417-6.769-37.643-6.769-57.418 0-78.739 37.153-148.793 94.874-193.615z" fill="#73c3f9"/><path d="m424.394 444.938c-5.974-11.436-14.506-18.856-21.795-23.464-6.251-3.952-14.402.497-14.402 7.892v43.93c12.952-8.317 25.068-17.821 36.197-28.358z" fill="#7255ce"/></g></svg>