<svg id="Layer_1" enable-background="new 0 0 512 512" height="512" viewBox="0 0 512 512" width="512" xmlns="http://www.w3.org/2000/svg"><g><path d="m43.771 389.478h424.458c20.84-36.033 32.773-77.862 32.773-122.48 0-135.31-109.691-245.002-245.002-245.002s-245.002 109.691-245.002 245.002c0 44.619 11.933 86.448 32.773 122.48z" fill="#88ce65"/><path d="m242.48 16.273h.957 24.955.957c.174 0 .346.006.52.007.108-.704.165-1.426.165-2.161.001-7.798-6.321-14.119-14.119-14.119s-14.119 6.321-14.119 14.119c0 .735.056 1.456.164 2.161.174-.002.347-.007.52-.007z" fill="#594261"/><path d="m230.259 397.96c1.71 1.591 2.691 3.845 2.691 6.183v5.477h46.1v-5.179c.085-.412-.473-4.059 2.689-7.003 7.359-6.85 17.245-17.47 23.727-27.544-13.785 10.149-32.512 17.658-49.727 17.658-17.069 0-35.658-7.412-49.375-17.396 6.513 10.187 16.473 20.896 23.895 27.804z" fill="#deeeff"/><path d="m231.402 510.775c8.09.807 16.295 1.225 24.598 1.225 8.472 0 16.844-.431 25.095-1.27v-106.11h-49.693z" fill="#3e7fdd"/><path d="m463.639 378.62c-15.119-30.84-69.667-32-87.333-49.667 0 0-4.971 69.714-98.756 75.19v106.902c15.126-1.318 29.857-4.014 44.07-7.955l77.955-37.567c27.881-20.196 51.345-46.115 68.655-76.045-1.443-3.909-2.971-7.552-4.591-10.858z" fill="#548bed"/><path d="m413.321 402.018c-.508-.339-1.011-.665-1.509-.979-6.211-3.911-14.296.619-14.296 7.958v57.517l2.058-.992c12.951-9.381 24.934-20.011 35.805-31.69-3.128-12.854-10.839-24.315-22.058-31.814z" fill="#3e7fdd"/><path d="m153.851 369.573c-1.202 4.097-1.577 8.622-1.112 13.552-6.251 2.194-33.981 14.132-33.981 52.995v32.561l72.12 34.545c14.059 3.867 28.623 6.517 43.573 7.82v-106.903c-42.514-2.482-66.777-18.165-80.6-34.57z" fill="#548bed"/><path d="m120.258 436.12c0-42.928 34.103-51.944 34.103-51.944-.609-5.037-.314-9.423.668-13.243-17.773-20.178-19.334-41.98-19.334-41.98-17.667 17.667-72.215 18.827-87.334 49.667-1.621 3.306-3.148 6.949-4.59 10.858 17.416 30.112 41.06 56.166 69.166 76.414l7.321 3.507c0-10.638 0-22.007 0-33.279z" fill="#3e7fdd"/><path d="m370.891 301.423c-12.968-13.811-36.783-24.915-55.172-35.803 0 0-.286.164-.886.49-4.355 6.169-9.079 11.558-13.834 16.164 1.087 3.645 2.722 7.912 5.096 11.566 0 0 34.252 47.001-25.377 102.501-2.02 1.88-3.169 4.522-3.169 7.281 0 6.558 6.226 11.345 12.555 9.629 17.743-4.813 50.752-15.742 75.539-35.486 23.716-18.893 26.002-54.239 5.248-76.342z" fill="#73c3f9"/><path d="m231.282 396.862c-20.672-19.241-30.056-37.458-33.5-53.051-8.515.482-27.06 2.896-37.635 14.549-5.845 6.441-8.335 14.741-7.413 24.687 23.825 16.761 52.902 26.314 69.162 30.725 6.329 1.717 12.555-3.071 12.555-9.628-.001-2.76-1.15-5.402-3.169-7.282z" fill="#73c3f9"/><path d="m198.132 345.307c-7.334-30.198 7.773-50.945 7.773-50.945 2.378-3.66 4.014-7.935 5.102-11.583-4.835-4.623-9.653-10.048-14.095-16.285-.42-.23-.631-.351-.631-.351-18.389 10.888-42.204 21.991-55.172 35.803-20.754 22.103-18.468 57.45 5.248 76.34 2.586 2.06 5.266 4.019 8.005 5.89-4.028-33.319 31.483-38.181 43.77-38.869z" fill="#49b1f7"/><path d="m355.256 160.945c-4.103-3.76-13.276-1.854-16.81.448.774 4.821.818 9.753.149 14.623l-4.17 30.372c0 2.448-.077 4.85-.219 7.211 10.169 3.067 16.22-6.062 17.071-12.327.366-2.697.965-5.355 1.796-7.949 2.705-8.447 12.463-22.957 2.183-32.378z" fill="#ffaa7b"/><path d="m156.744 160.945c4.103-3.76 13.276-1.854 16.81.448-.774 4.821-.818 9.753-.149 14.623l4.17 30.372c0 2.448.077 4.85.219 7.211-10.169 3.067-16.22-6.062-17.071-12.327-.366-2.697-.965-5.355-1.796-7.949-2.705-8.447-12.463-22.957-2.183-32.378z" fill="#fc9460"/><path d="m336.936 152.01c-.938-2.449-2.122-4.929-3.613-7.268-2.525-3.962-3.636-8.648-3.297-13.32.973-13.438.451-39.721-17.19-47.659-14.987-6.744-33.372-2.839-45.096 1.059-7.614 2.532-15.866 2.532-23.48 0-1.053-.35-2.161-.7-3.313-1.042-13.564 10.353-13.896 33.737-12.981 46.188.349 4.753-.821 9.508-3.39 13.539-1.481 2.323-2.665 4.781-3.612 7.215-3.073 7.894-3.969 16.456-2.818 24.839l4.276 31.144c0 44.773 23.901 75.206 44.231 90.994 3.08 2.392 6.373 4.458 9.821 6.198 5.655-2.08 10.995-5.012 15.808-8.749 19.831-15.4 43.145-45.085 43.145-88.759l4.17-30.372c1.111-8.098.268-16.368-2.661-24.007z" fill="#ffc7ab"/><g><path d="m266.971 295.147c-19.831-15.4-43.145-45.085-43.145-88.759l-4.171-30.378c-1.123-8.177-.249-16.529 2.749-24.229.924-2.374 2.079-4.772 3.524-7.038 2.506-3.932 3.647-8.569 3.306-13.206-.944-12.853-.536-37.656 15.099-46.691-.025-.008-.049-.015-.074-.023-11.725-3.899-30.109-7.803-45.096-1.059-17.692 7.96-18.166 34.371-17.181 47.774.341 4.637-.801 9.274-3.307 13.206-1.444 2.266-2.6 4.664-3.524 7.038-2.997 7.7-3.871 16.052-2.749 24.229l4.171 30.378c0 43.674 23.314 73.359 43.145 88.759 10.351 8.038 23.125 12.404 36.281 12.404 8.188 0 16.227-1.693 23.626-4.908-4.489-1.951-8.745-4.461-12.654-7.497z" fill="#ffaa7b"/></g><path d="m252.959 307.417c-26.711-20.351-15.867-47.342-15.81-47.482-8.334 4.308-19.837 7.32-28.729-1.572-9.519-9.519-12.648-30.098-13.633-44.889-.633-9.494-10.042-16.885-19.558-16.885 0 0-8.445 28.309 1.563 49.557 9.144 19.412-32.015 81.231 40.552 132.135 8.563 6.007 20.57 9.273 32.949 10.026-20.267-31.19 27.59-61.9 2.666-80.89z" fill="#753616"/><path d="m220.068 234.337c1.515 4.625 4.908 8.288 10.098 10.909-.028.068-.056.148-.084.219 3.066-1.383 6.286-2.48 9.639-3.22l3.905-.862c7.228-1.595 12.375-10.127 12.375-17.529v-6.18c0-5.122-4.923-8.807-9.837-7.363l-21.861 6.423c-.833.189-1.651.427-2.459.692-1.448 3.088-4.021 10.054-1.776 16.911z" fill="#945230"/><path d="m196.249 255.238-.333 15.698c-.12 4.896 6.674 6.25 8.439 1.681 5.063-13.098 15.424-23.281 28.323-28.234.01-.017.017-.027.017-.027-19.725-8.438-8.394-27.624-8.394-27.624-16.091 3.649-27.648 22.011-28.052 38.506z" fill="#753616"/><path d="m335.207 246.146c10.009-21.247 1.564-49.557 1.564-49.557h-1.564c-9.515 0-17.362 7.391-17.994 16.885-.985 14.792-4.114 35.37-13.633 44.889-11.181 11.181-26.494 3.543-34.438-1.83-3.877-2.622-8.445-4.013-13.124-4.013h-.018-.01c-4.684 0-9.257 1.393-13.137 4.017-2.198 1.486-4.961 3.144-8.042 4.53-1.932 6.627-6.535 29.899 17.013 47.841 11.196 8.529 6.235 19.477-.044 33.338-6.088 13.439-13.431 29.676-3.782 45.896 17.26 1.493 35.624-1.982 46.658-9.86 72.14-51.507 31.408-112.724 40.551-132.136z" fill="#945230"/><path d="m256 217.673v6.18c0 7.402 5.147 15.933 12.375 17.529l3.905.862c16.132 3.561 29.409 14.964 35.365 30.374 1.766 4.569 8.56 3.215 8.44-1.681l-.333-15.698c-.404-16.495-11.961-34.857-28.053-38.506l-21.861-6.423c-4.915-1.444-9.838 2.241-9.838 7.363z" fill="#945230"/><path d="m321.582 503.109c19.197-5.321 37.444-12.921 54.438-22.489h-42.438c-6.6 0-12-5.4-12-12z" fill="#49b1f7"/><path d="m392.239 436.12h-63.314c-4.039 0-7.343 3.304-7.343 7.343v27.157c0 6.6 5.4 12 12 12h38.84c9.447-5.112 18.513-10.835 27.16-17.101v-22.057c0-4.038-3.304-7.342-7.343-7.342z" fill="#73c3f9"/><path d="m178.915 480.62h-42.935c17.14 9.65 35.556 17.296 54.935 22.624v-34.624c0 6.6-5.4 12-12 12z" fill="#49b1f7"/><path d="m183.572 436.12h-63.314c-4.039 0-7.343 3.304-7.343 7.343v22.419c8.497 6.125 17.397 11.724 26.663 16.738h39.337c6.6 0 12-5.4 12-12v-27.157c0-4.039-3.304-7.343-7.343-7.343z" fill="#73c3f9"/><path d="m193.537 58.615c11.155-26.127 29.685-42.092 49.901-43.177-.361 0-.682 0-.957 0-27.657 0-53.474 13.908-68.638 37.037-6.9 10.525-18.303 27.94-18.303 66.731v17.282l.722.414c2.376-1.351 10.561-5.772 23.552-10.398 1.403-39.19 8.656-56.022 13.723-67.889z" fill="#49b1f7"/><path d="m337.988 52.476c-15.164-23.129-40.981-37.037-68.638-37.037-.304 0-.627 0-.957 0 20.215 1.085 38.746 17.049 49.901 43.177 5.067 11.868 12.319 28.7 13.722 67.889 12.992 4.626 21.176 9.047 23.552 10.398l.722-.414v-17.282c0-38.791-11.402-56.206-18.302-66.731z" fill="#73c3f9"/><path d="m255.915 113.688c32.718 0 59.05 6.7 76.521 12.965-1.427-40.024-8.996-57.045-13.759-68.202-10.339-24.215-27.154-39.822-45.668-42.922-1.216-.054-2.435-.091-3.66-.091-7.281 0-22.58 0-26.869 0-1.224 0-2.443.037-3.66.091-18.514 3.1-35.329 18.707-45.668 42.922-4.764 11.157-12.333 28.178-13.759 68.202 17.472-6.265 43.804-12.965 76.522-12.965z" fill="#49b1f7"/><path d="m238.821 15.53c-18.514 3.1-35.329 18.707-45.668 42.921-4.764 11.157-12.333 28.179-13.76 68.202 11.564-4.146 27.03-8.472 45.64-10.931.463-.611.746-.944.746-.944-14.108-63.103 30.136-99.34 30.136-99.34-5.687 0-11.138 0-13.434 0-1.225 0-2.444.038-3.66.092z" fill="#1fa2ea"/><path d="m255.915 112.854c-12.129 0-23.375.923-33.623 2.401-4.769 5.929-11.612 18.912-1.383 37.207 19.646-6.128 35.006-5.686 35.006-5.686s40.447-1.171 74.029 26.477c8.182 6.736 20.612 2.756 23.143-7.535 1.833-7.454 3.203-17.086 3.203-29.229 0-.001-38.926-23.635-100.375-23.635z" fill="#deeeff"/><path d="m158.743 165.718c2.531 10.292 14.961 14.271 23.143 7.535 13.218-10.883 27.499-17.298 39.959-21.08-13.958-23.458 3.934-37.394 3.934-37.394-43.756 5.634-70.239 21.709-70.239 21.709 0 12.144 1.37 21.776 3.203 29.23z" fill="#bec8f7"/><g fill="#b4d667"><path d="m403.38 71.276c-10.032 16.684-19.735 42.76-10.188 73.441 6.453 20.738-1.258 45.195-9.81 68.262-6.925 18.678-5.484 39.43 3.99 56.953 8.268 15.293 21.995 26.929 38.453 32.53 26.822 9.128 49.026 21.104 62.422 42.738 8.268-24.559 12.755-50.856 12.755-78.203 0-79.982-38.333-151.005-97.622-195.721z"/><path d="m108.62 71.276c10.032 16.684 19.735 42.76 10.188 73.441-6.453 20.738 1.258 45.195 9.81 68.262 6.925 18.678 5.484 39.43-3.99 56.953-8.269 15.293-21.994 26.929-38.453 32.53-26.821 9.128-49.026 21.104-62.422 42.738-8.268-24.559-12.755-50.856-12.755-78.203 0-79.982 38.333-151.005 97.622-195.721z"/></g></g></svg>