<svg id="Layer_1" enable-background="new 0 0 512 512" height="512" viewBox="0 0 512 512" width="512" xmlns="http://www.w3.org/2000/svg"><g><path d="m473.258 380.318c17.713-33.89 27.743-72.431 27.743-113.32 0-135.311-109.691-245.002-245.002-245.002s-245.002 109.691-245.002 245.002c0 40.889 10.03 79.43 27.743 113.32z" fill="#88ce65"/><path d="m432.314 331.018c-3.534-1.695-7.332-3.143-11.378-4.342l-65.15-24.863c-3.521-1.444-7.073-2.806-10.669-4.072-2.836 3.605-6.956 8.283-12.409 13.198-5.33 69.281-24.018 143.13-36.157 185.483l45.411.055v.002c56.743-21.268 103.496-62.975 131.296-116.163-6.997-19.94-19.352-38.94-40.944-49.298z" fill="#ffc839"/><path d="m169.482 496.267 45.353.056c-13.021-52.566-19.659-122.765-22.995-175.589-12.049-8.077-20.26-16.999-24.974-22.987-3.581 1.261-7.119 2.617-10.626 4.055l-65.219 24.886c-4.011 1.191-7.778 2.627-11.286 4.306-21.623 10.353-33.991 29.367-40.994 49.324 27.708 53.013 74.245 94.618 130.736 115.95z" fill="#ffc839"/><path d="m166.867 297.747c-3.581 1.261-7.119 2.617-10.626 4.055l-65.219 24.886c-4.011 1.191-7.778 2.627-11.286 4.306-21.623 10.353-33.991 29.367-40.994 49.324 16.763 32.072 40.427 59.958 69.008 81.717 0-13.737 0-30.261 0-47.035 0-41.5 51.111-54.753 51.111-54.753l15.972-53.534c-3.306-3.326-5.957-6.414-7.966-8.966z" fill="#ffb332"/><path d="m191.841 320.734c3.614 57.228 11.097 134.868 26.382 188.365 12.314 1.906 24.93 2.9 37.778 2.9 12.508 0 24.794-.943 36.798-2.751 11.605-38.82 33.992-121.384 39.91-198.309-14.933 13.46-39.959 28.715-76.719 28.715-27.902.001-49.044-8.794-64.149-18.92z" fill="#6c5475"/><path d="m255.989 369.87c34.05 0 58.025-13.089 73.244-25.715 1.441-11.091 2.628-22.211 3.475-33.215-14.933 13.46-39.959 28.715-76.719 28.715-27.901 0-49.043-8.795-64.149-18.921.633 10.016 1.384 20.661 2.275 31.689 14.93 9.49 35.34 17.447 61.874 17.447z" fill="#56415e"/><path d="m133.801 354.266 25.059 5.981c2.958.706 5.705 2.108 8.012 4.09l12.172 10.458-2.251 1.657 2.251.343 23.143-17.902c-1.956-33.415-1.97-55.44-1.97-55.44l-31.577-19.303-39.135 59.248c-2.728 4.132-.52 9.718 4.296 10.868z" fill="#ffdd40"/><path d="m202.078 356.979-23.033 17.817-32.684 24.058c-7.859 5.784-11.078 16.013-7.879 25.232 9.051 26.082 20.663 51.55 31 72.182 16.356 6.175 33.543 10.65 51.352 13.21-11.368-55.268-16.471-112.441-18.756-152.499z" fill="#fee77f"/><path d="m377.749 354.266-25.059 5.981c-2.958.706-5.705 2.108-8.012 4.09l-12.173 10.458 2.252 1.657-2.252.343-23.143-17.902c1.955-33.415 1.97-55.44 1.97-55.44l31.577-19.303 39.135 59.248c2.729 4.132.521 9.718-4.295 10.868z" fill="#ffdd40"/><path d="m365.19 398.853-32.684-24.058-23.033-17.817c-2.287 40.074-7.393 97.275-18.77 152.563 17.772-2.52 34.929-6.943 51.259-13.064 10.364-20.669 22.024-46.223 31.106-72.393 3.2-9.217-.02-19.446-7.878-25.231z" fill="#fee77f"/><path d="m333.154 266.794c-15.183-10.196-40.375-21.6-77.164-21.6-37.13 0-62.452 11.62-77.592 21.891v.474c2.615-1.054 5.643-1.014 8.331.353 12.632 6.424 38.646 17.37 69.261 17.37s56.615-10.931 69.238-17.347c2.551-1.297 5.406-1.392 7.926-.498z" fill="#945230"/><path d="m255.989 285.715c22.365 0 42.274-5.763 56.441-11.424-2.727-8.766-3.709-18.462-3.977-26.237-5.298 6.171-10.858 11.333-16.171 15.458-10.352 8.039-23.125 12.405-36.282 12.405-13.156 0-25.93-4.366-36.281-12.405-5.313-4.126-10.874-9.288-16.172-15.458-.268 7.775-1.25 17.471-3.977 26.237 14.171 5.663 34.073 11.424 56.419 11.424z" fill="#f9c98a"/><path d="m276.169 337.407v84.712c0 7.644 6.254 13.898 13.898 13.898h25.48c7.644 0 13.898-6.254 13.898-13.898v-108.545c-12.185 9.933-29.746 20.012-53.276 23.833z" fill="#945230"/><path d="m276.169 422.119c0 7.644 6.254 13.898 13.898 13.898h17.864c-4.828-5.406-5.124-11.684-5.124-11.684s0-49.667 0-63.896c0-10.152 16.931-16.011 26.638-18.538v-28.325c-12.185 9.933-29.747 20.011-53.276 23.832z" fill="#753616"/><path d="m173.5 270.662c2.733-4.537 8.506-6.219 13.228-3.818 12.632 6.424 38.646 17.37 69.261 17.37s56.615-10.931 69.238-17.347c4.719-2.398 10.489-.718 13.222 3.815l9.341 15.49c2.142 3.553 1.91 8.051-.605 11.351-9.926 13.024-38.823 43.632-91.197 43.632-52.381 0-81.287-30.629-91.212-43.655-2.513-3.298-2.747-7.794-.608-11.346z" fill="#b26847"/><path d="m360.715 73.843c-28.72-67.54-72.973-77.201-97.955-73.005-4.47.75-9.049.75-13.519 0-24.983-4.196-69.235 5.465-97.956 73.005 0 0-44.353 88.517 32.643 137.613h144.143c76.997-49.096 32.644-137.613 32.644-137.613z" fill="#56415e"/><path d="m249.24.838c-24.983-4.196-69.235 5.465-97.956 73.005 0 0-44.354 88.517 32.643 137.613h144.143c24.966-15.919 37.165-35.983 42.263-55.83-9.675 2.302-11.823-4.448-11.823-4.448l-37.428-4.846s-38.776-53.39-71.724-86.338c-32.947-32.947-.118-59.156-.118-59.156z" fill="#45304c"/><path d="m338.726 135.267c.49 4.168.445 8.399-.13 12.586l-4.171 30.372c0 2.448-.077 4.85-.219 7.211 10.169 3.067 16.22-6.062 17.071-12.327.366-2.697.965-5.355 1.796-7.949 1.211-3.78 3.832-8.774 5.438-13.982 1.924-6.24-2.369-12.62-8.843-13.477-4.105-.543-7.73-1.368-10.942-2.434z" fill="#ffd9a1"/><path d="m173.404 147.853c-.575-4.186-.619-8.418-.13-12.586-3.212 1.065-6.837 1.891-10.942 2.434-6.474.857-10.767 7.237-8.843 13.477 1.606 5.208 4.227 10.202 5.438 13.982.831 2.594 1.429 5.252 1.795 7.949.851 6.265 6.902 15.394 17.071 12.327-.142-2.36-.219-4.762-.219-7.211z" fill="#f9c98a"/><path d="m339.771 135.602c-35.409-10.865-17.21-49.971-35.052-67.813-14.718-14.718-35.46-10.803-43.434-7.237-3.37 1.508-7.2 1.508-10.57 0-.878-.393-1.919-.788-3.081-1.164-13.507 10.206-13.824 33.427-12.917 45.772.346 4.701-.812 9.405-3.353 13.391-1.465 2.298-2.636 4.729-3.573 7.137-3.04 7.809-3.926 16.277-2.787 24.569l4.23 30.805c0 44.286 23.641 74.388 43.749 90.004 1.798 1.396 3.674 2.671 5.607 3.842 4.871-2.007 9.483-4.656 13.691-7.924 19.831-15.399 43.144-45.084 43.144-88.759l4.171-30.372c.559-4.074.622-8.191.175-12.251z" fill="#fce6ca"/><path d="m424.928 89.548c-9.472 11.63-17.823 29.692-9.163 53.152 15.985 43.3-102.985 98.077 0 136.689 36.984 13.866 61.631 30.79 78.034 46.786 4.704-18.95 7.203-38.771 7.203-59.177 0-69.823-29.209-132.822-76.074-177.45z" fill="#b4d667"/><path d="m87.071 89.548c9.472 11.63 17.824 29.692 9.163 53.152-15.985 43.3 102.985 98.077 0 136.689-36.984 13.866-61.631 30.79-78.034 46.786-4.704-18.95-7.203-38.771-7.203-59.177.001-69.823 29.21-132.822 76.074-177.45z" fill="#b4d667"/><path d="m437.608 431.418c-4.848-20.04-17.209-31.614-27.207-37.935-6.251-3.952-14.401.497-14.401 7.892v66.688c15.223-10.62 29.18-22.926 41.608-36.645z" fill="#ffb332"/><path d="m255.989 284.214c-30.615 0-56.63-10.946-69.261-17.37-4.721-2.401-10.495-.719-13.228 3.818l-9.331 15.493c-2.139 3.552-1.906 8.047.607 11.346 9.925 13.026 38.832 43.655 91.212 43.655-30.302-30.303.001-56.942.001-56.942z" fill="#945230"/><path d="m273.081 269.644c-19.831-15.4-43.144-45.085-43.144-88.759l-4.171-30.379c-1.123-8.177-.249-16.529 2.749-24.229.924-2.374 2.079-4.772 3.523-7.038 2.506-3.931 3.647-8.569 3.307-13.206-.922-12.551-.563-36.507 14.014-46.039-8.772-3.366-28.127-6.156-42.077 7.795-17.842 17.842.357 56.949-35.053 67.813-.447 4.057-.384 8.172.175 12.244l4.171 30.379c0 43.674 23.314 73.359 43.145 88.759 10.351 8.038 23.125 12.404 36.281 12.404 8.347 0 16.537-1.763 24.055-5.101-2.422-1.378-4.756-2.921-6.975-4.643z" fill="#ffd9a1"/></g></svg>