<svg id="Layer_1" enable-background="new 0 0 512 512" height="512" viewBox="0 0 512 512" width="512" xmlns="http://www.w3.org/2000/svg"><g><path d="m463.608 397.122c23.683-37.706 37.393-82.311 37.393-130.124 0-135.31-109.691-245.002-245.002-245.002s-245.002 109.691-245.002 245.002c0 47.814 13.71 92.419 37.394 130.125z" fill="#ffc839"/><g><path d="m377.195 206.566c-1.642-17.645-21.01-21.267-21.481-39.082-.007-.281 0-.557.003-.836h-199.433c.003.278.01.555.003.836-.471 17.814-19.839 21.437-21.482 39.082-.987 10.604 5.152 19.194 10.652 25.614 5.5 6.421 11.612 15.1 10.543 25.685-1.202 11.903-10.565 17.095-14.343 27.606-3.907 10.871-.722 25.252 5.15 33.701s13.781 12.367 21.414 16.044h85.586 4.385 85.586c7.633-3.677 15.542-7.595 21.414-16.044s9.056-22.83 5.15-33.701c-3.777-10.511-13.141-15.703-14.343-27.606-1.069-10.585 5.042-19.264 10.542-25.685 5.502-6.42 11.641-15.01 10.654-25.614z" fill="#945230"/></g><path d="m356.001 257.865c-28.112 4.983-32.578-21.305-32.578-21.305s-17.91-31.883-36.394-69.911h-130.745c.002.278.01.555.003.835-.471 17.814-19.839 21.438-21.482 39.082-.987 10.604 5.152 19.194 10.652 25.614 5.5 6.421 11.612 15.1 10.543 25.685-1.202 11.903-10.565 17.095-14.343 27.606-3.907 10.87-.722 25.252 5.15 33.7 5.872 8.449 13.781 12.367 21.414 16.044h85.586 4.385 85.586c7.633-3.677 15.542-7.595 21.414-16.044 5.872-8.448 9.056-22.83 5.15-33.7-3.776-10.511-13.139-15.703-14.341-27.606z" fill="#753616"/><path d="m317.174 310.39c.254-2.536 1.386-4.688 3.015-6.268-12.806-7.647-21.95-16.894-21.95-27.718 0-5.87 0-4.111 0-7.912-10.235 9.149-27.785 20.806-42.239 21.156-14.454-.35-32.004-12.007-42.238-21.156v7.912c0 10.474-8.568 19.471-20.726 26.971 1.669 1.552 2.826 3.692 3.054 6.248v.001c1.982 22.164 14.103 43.75 36.029 64.157 6.485 6.037.697 17.03-8.467 14.539-1.231-.336-2.537-.703-3.901-1.096-.967-.28-1.952.444-1.952 1.468v13.123c5.506 3.21 11.243 6.121 17.203 8.7 13.785 5.961 29.589 5.962 43.371 0 5.467-2.365 10.741-5.016 15.828-7.914v-13.527c0-1.012-.969-1.747-1.945-1.47-.883.251-1.747.492-2.569.716-9.147 2.496-14.961-8.492-8.468-14.538 21.666-20.166 33.762-41.494 35.955-63.392z" fill="#ffaa7b"/><path d="m256 289.648c-14.454-.35-32.004-12.007-42.238-21.156v7.912c0 10.474-8.568 19.471-20.726 26.971 1.669 1.552 2.826 3.692 3.054 6.248 1.51 16.891 8.916 33.445 22.056 49.398.477-.214.956-.434 1.436-.673 30.664-15.262 35.935-55.539 36.842-68.721-.141.006-.284.018-.424.021z" fill="#fc9460"/><path d="m294.201 400.562c-5.086 2.898-10.361 5.549-15.828 7.914-13.782 5.962-29.586 5.961-43.371 0-5.96-2.579-11.696-5.49-17.203-8.7v109.254c12.449 1.949 25.205 2.97 38.201 2.97s25.752-1.021 38.201-2.97z" fill="#deeeff"/><path d="m167.967 367.403c-7.338 1.463-44.354 10.479-44.354 43.312v57.857l103.865-.315v-97.79l-46.878-23.993c-7.266 4.392-12.253 11.227-12.633 20.929z" fill="#9589e8"/><path d="m138.479 324.917c-15.176 4.123-26.586 6.206-26.586 6.206-12.412 2.384-39.654 11.052-55.175 42.094-3.349 6.697-6.096 14.786-8.327 23.905 17.723 28.217 41.05 52.548 68.402 71.471l8.318-.025c0-18.419 0-40.706 0-57.853 0-35.39 44.33-42.059 44.33-42.059 0-10.976 5.747-17.478 12.803-21.339z" fill="#7e6dd1"/><path d="m455.282 373.218c-15.522-31.042-42.763-39.71-55.176-42.094 0 0-10.149-1.853-24.035-5.522l-91.548 45.837v96.647l111.894-.34c26.829-18.801 49.731-42.824 67.192-70.623-2.231-9.12-4.978-17.208-8.327-23.905z" fill="#9589e8"/><path d="m290.089 389.793c18.155-4.951 51.513-16.07 76.602-36.055 2.951-2.351 5.575-4.951 7.87-7.747 9.166-11.166 4.08-28.108-9.706-32.424-10.826-3.389-22.357-7.605-32.651-12.637-7.261-3.549-15.747 1.265-16.551 9.307-1.758 17.557-10.591 39.264-35.475 62.425-2.892 2.692-4.032 6.917-2.631 10.853 1.798 5.05 7.37 7.689 12.542 6.278z" fill="#b5b0f7"/><path d="m207.222 340.223c-19.106-.256-38.491 7.67-39.256 27.181-.17.034-.372.076-.573.119 20.6 11.541 42.401 18.603 55.855 22.271 5.172 1.411 10.744-1.228 12.541-6.278 1.401-3.935.26-8.161-2.631-10.852-12.097-11.263-20.394-22.178-25.936-32.441z" fill="#b5b0f7"/><path d="m197.612 309.488c-.721-8.068-9.448-12.73-16.695-9.113-10.273 5.128-21.871 9.428-32.814 12.891-13.711 4.339-18.646 21.17-9.62 32.366 2.364 2.933 5.087 5.656 8.164 8.107 7.112 5.665 14.889 10.616 22.796 14.918 0-28.465 38.617-26.918 38.617-26.918-6.602-11.723-9.588-22.626-10.448-32.251z" fill="#9589e8"/><path d="m209.416 18.542c1.759-.354 3.338-1.284 4.656-2.502 5.094-4.708 20.275-16.04 48.378-16.04 31.587 0 109.723 24.139 98.665 150.859h-209.647c-1.858-22.213-2.516-48.554 5.245-74.85 11.637-39.429 33.884-53.681 52.703-57.467z" fill="#945230"/><path d="m252.031 82.419c-17.08-57.458 37.184-77.873 37.192-77.877-10.245-3.319-19.683-4.542-26.773-4.542-28.104 0-43.285 11.332-48.379 16.039-1.318 1.218-2.897 2.148-4.656 2.502-18.818 3.787-41.066 18.039-52.703 57.468-7.76 26.295-7.103 52.637-5.245 74.85h128.033c-11.092-23.746-21.531-48.463-27.469-68.44z" fill="#753616"/><path d="m174.045 187.526s-5.08-32.151.771-51.298c-5.309-3.539-15.566-5.267-20.179-.757-9.445 9.233-2.525 23.177.787 31.985 1.017 2.704 1.673 5.44 1.969 8.18.645 5.954 3.873 14.669 17.259 14.464-.202-.858-.409-1.702-.607-2.574z" fill="#fc9460"/><path d="m357.364 135.471c-4.613-4.51-14.871-2.782-20.18.757 5.851 19.147.771 51.298.771 51.298-.198.872-.405 1.716-.607 2.574 13.386.205 16.615-8.51 17.259-14.464.297-2.74.953-5.476 1.969-8.18 3.312-8.808 10.233-22.751.788-31.985z" fill="#ffaa7b"/><path d="m343.381 143.022c-.668-6.842-6.538-12.015-13.411-11.89-21.259.385-51.208-9.683-65.105-32.497-4.899-8.042-9.958-13.829-14.801-17.992-11.727 12.651-15.452 29.597-15.452 29.597-.083 2.789-1.207 5.479-3.253 7.784-11.271 12.7-8.803 49.806-6.173 65.083 5.823 25.704 14.258 48.115 25.068 66.616 7.88 13.484 18.678 24.806 31.714 33.402 14.75-8.633 26.87-20.673 35.44-35.34 10.503-17.974 18.701-39.756 24.372-64.784 1.472-9.347 2.996-25.69 1.601-39.979z" fill="#ffc7ab"/><path d="m251.215 247.786c-10.505-17.98-18.702-39.76-24.362-64.739-2.556-14.846-4.954-50.907 5.999-63.249 1.988-2.239 3.081-4.854 3.161-7.564 0 0 3.829-17.43 16.018-29.814-15.56-14.666-29.432-12.032-29.432-12.032-33.104 2.062-41.835 41.846-41.835 41.846-.081 2.71-1.173 5.325-3.161 7.564-10.953 12.342-8.554 48.403-5.999 63.249 5.659 24.98 13.857 46.76 24.362 64.739 10.665 18.251 26.816 32.446 46.706 41.052 8.909 3.853 19.124 3.854 28.032 0 4.761-2.06 9.301-4.449 13.609-7.128-13.693-8.514-24.986-20.041-33.098-33.924z" fill="#ffaa7b"/><path d="m116.762 452.45v16.143c32.165 22.258 69.909 37.012 110.715 41.744v-64.233h-104.371c-3.504.001-6.344 2.842-6.344 6.346z" fill="#7e6dd1"/><path d="m396.463 446.105h-111.94v64.233c41.324-4.792 79.511-19.86 111.94-42.593z" fill="#7e6dd1"/><path d="m191.372 447.124c-4.78 0-8.691-3.911-8.691-8.691v-71.393c0-4.78 3.911-8.691 8.691-8.691 4.78 0 8.691 3.911 8.691 8.691v71.392c0 4.781-3.911 8.692-8.691 8.692z" fill="#deeeff"/><path d="m320.628 447.124c-4.78 0-8.691-3.911-8.691-8.691v-71.393c0-4.78 3.911-8.691 8.691-8.691 4.78 0 8.691 3.911 8.691 8.691v71.392c.001 4.781-3.91 8.692-8.691 8.692z" fill="#deeeff"/><path d="m414.139 79.883c-16.742 13.589-28.982 33.256-19.341 59.499 40.981 111.551-45.137 106.666 38.981 159.751 26.003 16.41 42.751 35.312 53.028 50.192 9.184-25.73 14.195-53.441 14.195-82.327 0-75.032-33.74-142.173-86.863-187.115z" fill="#ffdd40"/><path d="m97.861 79.883c16.743 13.589 28.982 33.256 19.341 59.499-40.981 111.551 45.137 106.666-38.981 159.751-26.003 16.41-42.751 35.312-53.028 50.192-9.184-25.73-14.195-53.441-14.195-82.327 0-75.032 33.74-142.173 86.863-187.115z" fill="#ffdd40"/><path d="m396.417 467.745c13.449-9.425 25.911-20.163 37.195-32.03-5.366-17.918-16.858-28.518-26.263-34.463-6.251-3.952-14.402.497-14.402 7.892v58.612z" fill="#7e6dd1"/></g></svg>