<svg id="Layer_1" enable-background="new 0 0 512 512" height="512" viewBox="0 0 512 512" width="512" xmlns="http://www.w3.org/2000/svg"><g><path d="m472.145 382.429c18.408-34.397 28.857-73.691 28.857-115.431 0-135.31-109.691-245.002-245.002-245.002s-245.002 109.691-245.002 245.002c0 41.74 10.449 81.034 28.857 115.431z" fill="#88ce65"/><path d="m239.502 16.469c-43.974 7.857-77.627 46.522-77.627 92.666v43.869h77.627z" fill="#cc8c60"/><path d="m273.362 16.633v136.371h76.763v-43.869c0-45.841-33.213-84.295-76.763-92.502z" fill="#dba783"/><path d="m223.222 335.718c20.509 10.452 44.834 10.46 65.347.017 12.995-6.616 27.803-15.316 41.544-28.448-2.794-.765-5.614-1.483-8.471-2.143-10.152-10.152-12.726-29.399-13.189-42.865-5.298 6.171-10.858 11.333-16.171 15.458-10.352 8.039-23.125 12.405-36.281 12.405s-25.93-4.366-36.282-12.405c-5.313-4.126-10.874-9.288-16.172-15.458-.464 13.466-3.037 32.713-13.189 42.865-2.885.666-5.732 1.391-8.552 2.164 13.685 13.105 28.437 21.795 41.416 28.41z" fill="#cc8c60"/><path d="m203.547 262.279c-.464 13.466-3.037 32.713-13.189 42.865-2.885.665-5.732 1.391-8.552 2.164 13.685 13.104 28.437 21.794 41.417 28.409 3.694 1.883 7.513 3.421 11.411 4.626 1.795-.54 3.002-.749 3.002-.749 13.363-13.363 15.913-44.065 15.913-44.065l-2.069-5.566c-11.541-.881-22.6-5.112-31.76-12.225-5.314-4.126-10.875-9.288-16.173-15.459z" fill="#ba7d54"/><path d="m355.256 147.008c-4.103-3.76-13.276-1.854-16.81.448.774 4.821.818 9.753.149 14.623l-4.17 30.372c0 2.448-.077 4.85-.219 7.211 10.169 3.067 16.22-6.062 17.071-12.327.366-2.697.965-5.355 1.796-7.949 2.705-8.447 12.463-22.957 2.183-32.378z" fill="#cc8c60"/><path d="m156.744 147.008c4.103-3.76 13.276-1.854 16.81.448-.774 4.821-.818 9.753-.149 14.623l4.17 30.372c0 2.448.077 4.85.219 7.211-10.169 3.067-16.22-6.062-17.071-12.327-.366-2.697-.965-5.355-1.796-7.949-2.705-8.447-12.463-22.957-2.183-32.378z" fill="#ba7d54"/><path d="m336.937 138.073c-.939-2.449-2.122-4.929-3.613-7.268-2.525-3.962-3.636-8.648-3.297-13.32.973-13.438.451-39.722-17.19-47.659-14.987-6.744-33.372-2.839-45.096 1.059-7.614 2.532-15.866 2.532-23.48 0-.645-.214-1.313-.428-1.996-.641-12.878 10.635-13.178 33.446-12.278 45.692.35 4.76-.822 9.522-3.395 13.559-1.483 2.326-2.669 4.789-3.618 7.226-3.077 7.907-3.975 16.48-2.822 24.876l4.283 31.189c0 44.841 23.936 75.318 44.297 91.129 2.77 2.151 5.712 4.039 8.784 5.662 5.271-2.052 10.25-4.859 14.767-8.368 19.831-15.399 43.145-45.084 43.145-88.759l4.17-30.371c1.11-8.097.267-16.366-2.661-24.006z" fill="#dba783"/><g><path d="m269.04 281.21c-19.831-15.399-43.145-45.084-43.145-88.759l-4.171-30.378c-1.123-8.177-.249-16.528 2.749-24.229.924-2.374 2.079-4.772 3.524-7.038 2.506-3.931 3.647-8.569 3.307-13.206-.93-12.657-.55-36.904 14.391-46.27-.481-.138-.959-.287-1.435-.445-11.725-3.898-30.109-7.803-45.096-1.059-17.692 7.96-18.166 34.371-17.182 47.774.341 4.636-.801 9.274-3.307 13.206-1.444 2.266-2.6 4.665-3.524 7.038-2.997 7.701-3.871 16.052-2.748 24.229l4.171 30.378c0 43.674 23.314 73.359 43.145 88.759 10.351 8.039 23.125 12.404 36.281 12.404 8.572 0 16.977-1.865 24.661-5.38-4.109-1.88-8.014-4.223-11.621-7.024z" fill="#cc8c60"/></g><path d="m334.863 204.068c-3.298 8.139-10.154 17.931-22.717 23.381-2.319-13.828-12.296-27.674-25.616-30.695l-20.359-5.981c-3.539-1.039-7.083.776-8.508 3.859-.26.563-1.047.563-1.307 0-1.425-3.082-4.969-4.898-8.508-3.859l-20.359 5.981c-13.583 3.08-23.696 17.417-25.751 31.513-13.897-5.241-21.131-15.636-24.6-24.2v.004c0 3.873.361 7.744 1.072 11.551 8.648 46.353 35.605 64.373 55.982 74.758 13.643 6.953 29.825 6.958 43.471.011 20.374-10.373 47.462-28.396 56.126-74.757.712-3.811 1.074-7.687 1.074-11.566zm-55.183 52.403c-8.744 3.089-18.286-2.41-19.406-11.512-.014-.118-.028-.236-.041-.356-.184-1.698-1.605-3.002-3.335-3.002-1.73 0-3.151 1.304-3.335 3.002-.013.12-.027.239-.041.356-1.12 9.102-10.662 14.602-19.406 11.512-12.031-4.251-17.206-12.302-19.431-18.205 6.518-8.916 16.116-15.314 27.163-17.752l3.637-.803c5.3-1.17 9.399-6.344 10.902-11.857.172-.633 1.072-.633 1.245 0 1.503 5.513 5.601 10.687 10.901 11.857l3.637.803c10.452 2.307 19.61 8.156 26.088 16.33-1.341 5.963-5.546 15.023-18.578 19.627z" fill="#56415e"/><path d="m287.235 334.549c-19.677 10.017-43.01 10.01-62.682-.016-12.652-6.448-27.063-14.942-40.368-27.857-10.205 2.673-20.008 6.027-29.574 10.037v23.865c16.447 22.48 38.453 36.496 51.049 41.791 5.661 2.379 11.695 3.585 17.936 3.585h17.684l4.325 1.5h20.79l4.325-1.5h17.684c6.24 0 12.274-1.207 17.936-3.585 12.525-5.264 34.355-19.151 50.771-41.411v-24.359c-9.505-3.97-19.244-7.294-29.382-9.946-13.361 12.943-27.826 21.447-40.494 27.896z" fill="#deeeff"/><path d="m224.553 334.533c-12.652-6.448-27.063-14.942-40.368-27.857-10.205 2.673-20.008 6.027-29.574 10.037v23.865c5.508 7.528 11.64 14.084 17.832 19.704 19.161 3.058 46.588 5.83 46.588-3.365 0-14.13 18.601-17.322 18.604-17.323-4.481-1.228-8.866-2.912-13.082-5.061z" fill="#d3dcfb"/><path d="m343.885 355.371c-13.616 12.583-28.181 20.062-37.546 23.998-5.661 2.379-11.695 3.585-17.936 3.585h-17.683l-4.325 1.501c-7.442 0-13.348 0-20.79 0l-4.325-1.501h-17.684c-5.814 0-11.444-1.061-16.765-3.127-4.165 1.83-9.421 4.455-14.725 7.954-15.333 10.114-23.438 22.655-23.438 36.268v71.91c27.129 10.355 56.565 16.041 87.332 16.041 59.505 0 114.05-21.22 156.496-56.498 0-3.927 0-7.722 0-11.335 0-37.255-44.651-72.541-68.611-88.796z" fill="#49b1f7"/><path d="m170.169 424.048c0-24.205 26.043-38.126 38.734-43.473-1.092-.365-2.176-.758-3.243-1.206-9.349-3.929-23.881-11.392-37.477-23.936-23.911 16.212-68.583 51.48-68.583 88.719v11.431c20.88 17.336 44.689 31.262 70.569 40.945 0-13.738 0-47.556 0-72.48z" fill="#1fa2ea"/><path d="m245.605 511.765c3.449.144 6.911.235 10.395.235s6.946-.091 10.395-.235v-127.31h-20.789v127.31z" fill="#73c3f9"/><path d="m472.145 382.429c-.856-1.799-1.736-3.564-2.649-5.28-8.001-15.05-21.438-26.485-37.469-32.275l-67.829-24.496c1.249 2.519 2.099 6.246-.318 10.351-6.324 10.743-14.078 19.469-22.049 26.497 22.402 14.931 67.78 49.714 67.78 86.496v14.13c25.575-20.61 46.921-46.249 62.534-75.423z" fill="#ffc839"/><path d="m148.12 330.728c-2.416-4.105-1.566-7.832-.318-10.351l-67.829 24.496c-16.031 5.79-29.468 17.225-37.469 32.275-.913 1.717-1.794 3.481-2.649 5.28 15.613 29.174 36.959 54.813 62.534 75.423 0-4.933 0-9.677 0-14.13 0-36.782 45.378-71.565 67.78-86.496-7.971-7.028-15.725-15.754-22.049-26.497z" fill="#ffb332"/><path d="m204.017 329.379c-.06.241-.119.478-.169.675-4.426-.38-18.713-.872-28.115 7.326-5.263 4.589-8.058 11.104-8.329 19.374 13.676 12.55 28.246 20.035 37.675 23.998 5.861 2.463 12.159 3.703 18.517 3.703h22.01c-21.739-16.54-34.313-37.183-41.589-55.076z" fill="#ffdd40"/><path d="m316.924 297.35c-2.744 17.718-12.985 58.539-50.53 87.106h22.01c6.358 0 12.656-1.239 18.517-3.703 14.564-6.122 41.396-20.628 58.252-49.263 5.008-8.507-2.33-15.639-2.284-15.539-7.444-8.623-16.772-15.419-27.262-19.861l-9.317-3.945c-4.079-1.728-8.708.828-9.386 5.205z" fill="#ffdd40"/><path d="m255.726 378.018c-7.27 0-13.218 5.948-13.218 13.218v25.602c0 7.27 5.948 13.218 13.218 13.218s13.218-5.948 13.218-13.218v-25.602c.001-7.27-5.948-13.218-13.218-13.218z" fill="#9bd8f9"/><circle cx="329.195" cy="448.307" fill="#73c3f9" r="28.25"/><path d="m423.681 88.386c-15.746 13.879-37.918 40.539-33.318 77.996 7 57-70.231 103.436-.616 125.218 53.274 16.669 85.854 19.411 101.513 43.98 6.337-21.762 9.742-44.773 9.742-68.582 0-70.436-29.734-133.919-77.321-178.612z" fill="#b4d667"/><path d="m88.32 88.386c15.746 13.879 37.918 40.539 33.318 77.996-7 57 70.231 103.436.616 125.218-53.274 16.669-85.854 19.411-101.513 43.98-6.338-21.762-9.743-44.773-9.743-68.582 0-70.436 29.734-133.919 77.322-178.612z" fill="#b4d667"/><path d="m195.076 297.35c-.678-4.376-5.306-6.932-9.384-5.206l-9.317 3.945c-10.49 4.442-19.818 11.237-27.262 19.861.046-.1-7.292 7.032-2.284 15.539 6.335 10.761 14.078 19.526 22.05 26.602 0-31.376 36.097-26.409 36.098-26.409-5.957-13.945-8.678-26.435-9.901-34.332z" fill="#ffc839"/><path d="m420.572 393.938c-5.153-4.834-13.584-1.2-13.584 5.865v28.205c1.678 5.161 2.623 10.416 2.623 15.712v14.13c10.932-8.81 21.083-18.545 30.353-29.076-3.771-16.855-12.064-27.96-19.392-34.836z" fill="#ffb332"/><g><path d="m240.255 38.204c-.107.674-.216 1.338-.328 1.992-3.015 17.6 10.397 33.716 28.254 33.716h80.746c-3.729-7.116-8.589-13.725-14.403-19.659-5.059-5.163-9.289-11.008-13.06-17.111-11.571-18.726-30.408-32.155-52.389-36.007-9.204 6.166-26.055 19.63-28.82 37.069z" fill="#49b1f7"/><path d="m347.653 71.577h-79.045c-16.713 0-29.267-15.084-26.444-31.557.105-.612.207-1.234.307-1.864 2.886-18.204 22.178-31.787 29.643-36.42-5.185-1.132-10.556-1.736-16.066-1.736-27.481 0-51.615 14.807-65.416 37.142-3.771 6.103-8.001 11.948-13.06 17.111-10.576 10.793-18.015 23.81-21.182 38.08h199.316c-1.617-7.29-4.356-14.249-8.053-20.756z" fill="#1fa2ea"/><path d="m357.191 90.334h-125.581c-4.111 4.143-19.904 22.5-1.978 44.447h127.56c5.971 0 10.857-4.886 10.857-10.857v-22.734c-.001-5.971-4.886-10.856-10.858-10.856z" fill="#73c3f9"/><path d="m144.048 101.19v22.732c0 5.971 4.886 10.857 10.857 10.857h75.536c-20.868-24.423 2.085-44.447 2.085-44.447h-77.622c-5.97.002-10.856 4.887-10.856 10.858z" fill="#49b1f7"/></g><path d="m234.191 290.382c6.096 3.106 12.699 4.816 19.356 5.148-22.126-15.781-10.108-36.783-8.45-39.447-3.321 1.45-7.223 1.717-10.982.389-12.031-4.251-17.206-12.302-19.431-18.205 4.041-5.527 9.266-10.083 15.285-13.331-17.317-10.518-4.697-26.905-4.006-27.778-12.81 3.768-22.249 17.548-24.226 31.111-13.897-5.241-21.131-15.636-24.6-24.2v.004c0 3.873.361 7.744 1.072 11.552 8.649 46.352 35.606 64.372 55.982 74.757z" fill="#45304c"/></g></svg>