<svg id="Layer_1" enable-background="new 0 0 512 512" height="512" viewBox="0 0 512 512" width="512" xmlns="http://www.w3.org/2000/svg"><g><path d="m52.912 404.083h406.177c26.46-39.123 41.914-86.299 41.914-137.086 0-135.31-109.691-245.002-245.002-245.002s-245.002 109.691-245.002 245.002c-.001 50.787 15.453 97.963 41.913 137.086z" fill="#7e6dd1"/><g><path d="m157.608 132.78c-.657 12.07-.329 25.348 1.214 39.981.097.917.172 1.836.259 2.754h195.15c.087-.918.163-1.837.259-2.754 1.543-14.632 1.871-27.911 1.214-39.981z" fill="#753616"/></g><path d="m451.626 383.416c-15.237-30.473-41.979-38.982-54.163-41.322 0 0-2.644-.482-7.066-1.441-2.492 4.894-5.046 9.688-7.686 14.333-22.096 38.877-55.557 69.115-96.767 87.445-18.455 8.209-39.619 8.208-58.077 0-10.253-4.561-20.025-9.859-29.262-15.843.094.621.213 1.246.361 1.877-7.504-.332-32.555-.1-50.299 15.997-9.2 8.345-14.89 19.642-17.025 33.667 36.453 21.519 78.962 33.871 124.358 33.871 84.525 0 159.051-42.804 203.088-107.917-2.056-7.809-4.522-14.787-7.462-20.667z" fill="#fc90ce"/><path d="m200.979 430.098c-.267-.825-.465-1.622-.634-2.405-28.674-18.177-52.304-42.898-69.245-72.707-2.705-4.76-5.32-9.673-7.87-14.691-5.396 1.197-8.694 1.799-8.694 1.799-12.185 2.34-38.926 10.85-54.163 41.322-2.94 5.88-5.406 12.858-7.462 20.668 20.686 30.585 48.1 56.247 80.116 74.863 7.884-54.705 67.952-48.849 67.952-48.849z" fill="#ff7acb"/><path d="m356.804 331.707c-2.977 5.813-6.097 11.414-9.38 16.76-15.943 25.962-40.086 46.154-69.819 58.395-13.315 5.481-28.586 5.481-41.904 0-5.951-2.45-11.665-5.232-17.147-8.301l-.759 2.243c-2.819 1.033-12.87 5.226-17.32 13.893-2.163 4.213-2.668 8.836-1.509 13.769-.182-.008-.383-.015-.586-.023 9.304 6.044 19.152 11.391 29.487 15.988 18.458 8.208 39.623 8.209 58.077 0 41.21-18.33 74.672-48.567 96.767-87.445 2.965-5.217 5.825-10.611 8.606-16.135-7.342-1.572-20.413-4.627-34.513-9.144z" fill="#deeeff"/><path d="m165.882 348.467c-3.352-5.458-6.534-11.18-9.568-17.124-13.533 4.393-26.233 7.45-34 9.152 2.837 5.647 5.757 11.16 8.786 16.49 17.066 30.028 40.918 54.895 69.878 73.109-6.571-20.281 18.003-28.115 18.003-28.115l.904-2.67c-22.516-12.315-40.992-29.655-54.003-50.842z" fill="#d3dcfb"/><path d="m154.929 331.791c3.44 6.932 7.091 13.553 10.954 19.843 15.942 25.962 40.086 46.154 69.819 58.395 13.318 5.481 28.588 5.482 41.904 0 29.734-12.241 53.877-32.433 69.819-58.395 3.796-6.18 7.385-12.684 10.773-19.486-28.01-8.826-60.734-23.478-60.734-43.769 0-5.762 0-4.036 0-7.767-10.046 8.982-27.275 20.424-41.463 20.768-14.189-.344-31.417-11.786-41.463-20.768v7.767c-.001 20.019-31.857 34.55-59.609 43.412z" fill="#ffd9a1"/><path d="m256 301.379c-14.189-.344-31.417-11.786-41.463-20.768v7.767c0 20.02-31.855 34.551-59.608 43.413 3.44 6.931 7.091 13.552 10.954 19.842 12.762 20.783 30.79 37.854 52.723 50.123 33.178-30.835 37.552-82.383 38.032-100.408-.213.01-.427.026-.638.031z" fill="#f9c98a"/><g><path d="m344.664 269.176c-6.749-23.639-9.547-42.091-10.153-56.351-5.126 18.497-11.825 34.875-19.985 48.838-4.708 8.059-10.552 15.274-17.339 21.528-10.139 59.151 8.82 103.71 23.74 128.059 3.144 5.131 11.522 2.979 11.441-2.946-.671-49.037 30.469-75.479 12.296-139.128z" fill="#945230"/><path d="m332.368 408.305c-.229-16.745 3.251-30.855 7.21-44.711-18.026-2.388-20.383-18.148-23.19-44.212-2.854-26.499 21.532-37.706 30.636-40.942-.672-3.002-1.451-6.085-2.359-9.264-6.749-23.638-9.547-42.09-10.153-56.35-5.126 18.497-11.825 34.875-19.985 48.838-4.708 8.059-10.552 15.274-17.339 21.528-10.139 59.15 8.82 103.709 23.74 128.059 3.143 5.131 11.521 2.979 11.44-2.946z" fill="#753616"/></g><path d="m176.203 201.13s-4.987-31.561.757-50.357c-5.212-3.474-15.281-5.17-19.809-.743-9.272 9.064-2.478 22.752.773 31.398.998 2.655 1.642 5.34 1.933 8.03.633 5.845 3.802 14.4 16.942 14.199-.199-.842-.402-1.671-.596-2.527z" fill="#f9c98a"/><path d="m356.159 150.03c-4.529-4.427-14.598-2.731-19.809.743 5.744 18.796.757 50.357.757 50.357-.194.856-.397 1.685-.596 2.527 13.141.202 16.31-8.353 16.942-14.199.291-2.69.935-5.375 1.933-8.03 3.251-8.646 10.045-22.334.773-31.398z" fill="#ffd9a1"/><g><path d="m168.645 269.176c6.749-23.639 9.547-42.091 10.153-56.351 5.126 18.497 11.825 34.875 19.985 48.838 4.708 8.059 10.552 15.274 17.339 21.528 10.139 59.151-8.82 103.71-23.74 128.059-3.144 5.131-11.522 2.979-11.441-2.946.672-49.037-30.468-75.479-12.296-139.128z" fill="#753616"/></g><path d="m332.027 140.994c-1.893-2.134-2.935-4.627-3.012-7.209-.01-.319-.022-.656-.036-1.005h-99.003c-.27 2.312-1.298 4.528-3.011 6.457-10.674 12.029-8.337 47.172-5.846 61.641 5.515 24.344 13.505 45.571 23.743 63.093 8.185 14.008 19.697 25.551 33.683 33.926 15.055-8.296 27.391-20.221 35.982-34.923 10.011-17.13 17.823-37.889 23.228-61.742 2.339-14.874 4.831-48.339-5.728-60.238z" fill="#fce6ca"/><path d="m245.64 262.974c-10.012-17.135-17.825-37.893-23.218-61.7-2.436-14.149-4.722-48.517 5.717-60.28 1.895-2.134 2.936-4.626 3.013-7.209.01-.319.022-.656.036-1.005h-46.856c-.015.349-.027.686-.036 1.005-.077 2.583-1.118 5.075-3.013 7.209-10.439 11.763-8.153 46.131-5.717 60.28 5.393 23.807 13.206 44.565 23.218 61.7 10.164 17.395 25.557 30.924 44.513 39.125 8.491 3.672 18.227 3.673 26.716 0 3.481-1.506 6.84-3.195 10.07-5.052-14.361-8.253-26.146-19.873-34.443-34.073z" fill="#ffd9a1"/><path d="m122.314 154.147c8.259-42.918-10.261-62.182-28.423-70.834-50.828 44.892-82.893 110.539-82.893 183.685 0 29.287 5.149 57.37 14.574 83.404 12.455-16.048 30.712-32.425 57.315-43.979 85.758-37.247 25.334-79.041 39.427-152.276z" fill="#9589e8"/><path d="m389.685 154.147c-8.259-42.918 10.262-62.182 28.423-70.834 50.828 44.892 82.893 110.539 82.893 183.685 0 29.287-5.149 57.37-14.574 83.404-12.455-16.048-30.712-32.425-57.315-43.979-85.758-37.247-25.333-79.041-39.427-152.276z" fill="#9589e8"/><path d="m388.663 423.507v49.501c13.647-8.806 26.359-18.935 37.963-30.198-5.958-13.577-15.512-22.106-23.561-27.196-6.252-3.952-14.402.497-14.402 7.893z" fill="#ff7acb"/><g><path d="m240.863 38.204c-.107.674-.216 1.338-.328 1.992-3.015 17.6 10.397 33.716 28.254 33.716h80.746c-3.73-7.116-8.589-13.725-14.403-19.659-5.059-5.163-9.289-11.008-13.06-17.111-11.571-18.726-30.408-32.155-52.389-36.007-9.204 6.166-26.055 19.63-28.82 37.069z" fill="#fc90ce"/><path d="m348.261 71.577h-79.045c-16.713 0-29.267-15.084-26.444-31.557.105-.612.207-1.234.307-1.864 2.886-18.205 22.178-31.787 29.643-36.42-5.184-1.132-10.556-1.736-16.065-1.736-27.481 0-51.615 14.807-65.416 37.142-3.771 6.103-8.001 11.948-13.06 17.111-10.576 10.793-18.016 23.81-21.182 38.08h199.316c-1.618-7.29-4.357-14.249-8.054-20.756z" fill="#ff7acb"/><path d="m357.799 90.334h-125.581c-4.111 4.143-19.904 22.5-1.979 44.447h127.56c5.971 0 10.857-4.886 10.857-10.857v-22.734c.001-5.971-4.885-10.856-10.857-10.856z" fill="#ffbbe5"/><path d="m144.657 101.19v22.732c0 5.971 4.886 10.857 10.857 10.857h75.536c-20.868-24.423 2.086-44.447 2.086-44.447h-77.622c-5.972.002-10.857 4.887-10.857 10.858z" fill="#fc90ce"/></g></g></svg>