<svg id="Layer_1" enable-background="new 0 0 512 512" height="512" viewBox="0 0 512 512" width="512" xmlns="http://www.w3.org/2000/svg"><g><path d="m74.756 431.851h362.488c39.61-43.523 63.758-101.368 63.758-164.853 0-135.311-109.691-245.002-245.002-245.002s-245.002 109.691-245.002 245.002c0 63.485 24.148 121.33 63.758 164.853z" fill="#88ce65"/><path d="m354.21 52.326c-4.602-2.552-8.088-6.778-9.622-11.812-4.941-16.221-25.793-49.171-113.788-38.389-1.419.174-2.259 1.683-1.667 2.984l4.343 9.554c.788 1.734-.923 3.55-2.696 2.854-12.577-4.933-47.873-13.013-99.082 21.744-2.634 1.787-3.352 5.351-1.652 8.042 3.953 6.257 10.486 18.224 13.019 32.313 5.047 28.076-10.951 42.592 2.362 72.903h225.35c5.883-24.595 15.665-82.318-16.567-100.193z" fill="#945230"/><path d="m230.752 108.907s-9.723-25.858 11.277-46.858-11.249-44.532-11.249-44.532c-12.577-4.933-47.873-13.013-99.082 21.744-2.634 1.788-3.352 5.351-1.652 8.042 3.953 6.257 10.486 18.224 13.019 32.313 5.047 28.077-10.951 42.592 2.362 72.902h70.501z" fill="#753616"/><path d="m377.15 151.337c-7.642-8.915-17.857-5.379-23.328-2.434-.809 5.519-1.974 11.365-3.58 17.52-1.388 5.32-1.922 10.807-1.522 16.28.464 6.368.547 16.112-1.541 27.155 14.014 6.374 18.446-.279 19.834-5.552 1.039-3.947 2.602-7.729 4.734-11.209 6.092-9.948 15.746-29.693 5.403-41.76z" fill="#ffd9a1"/><path d="m163.28 182.702c.399-5.473-.134-10.96-1.522-16.28-1.606-6.154-2.771-12-3.58-17.52-5.471-2.945-15.686-6.481-23.328 2.434-10.343 12.067-.689 31.812 5.402 41.759 2.132 3.48 3.694 7.262 4.733 11.209 1.389 5.273 5.821 11.926 19.834 5.552-2.086-11.041-2.003-20.786-1.539-27.154z" fill="#f9c98a"/><path d="m209.01 314.09c29.159 16.597 65.218 16.526 94.314-.181 3.647-2.094 6.958-4.339 10.004-6.685-11.893-7.391-17.29-21.415-19.73-33.185-24.09 9.586-51.104 9.586-75.194 0-2.44 11.768-7.835 25.788-19.723 33.18 3.136 2.416 6.555 4.723 10.329 6.871z" fill="#f9c98a"/><path d="m320.491 310.549c-3.118-1.015-5.898-2.421-8.38-4.123-3.193 2.538-6.715 4.95-10.619 7.192-18.645 10.707-40.264 14.296-60.911 10.779-2.443 1.442-6.6 4.486-8.542 9.373-1.374 3.456-1.394 7.193-.062 11.132-1.559.315-4.012.887-6.969 1.821 24.975 8.983 53.074 6.752 76.485-6.691 13.18-7.568 22.108-17.049 28.135-26.915-3.27-.816-6.337-1.656-9.137-2.568z" fill="#ff7186"/><path d="m199.897 306.422c-2.484 1.703-5.266 3.111-8.387 4.127-2.796.911-5.858 1.749-9.122 2.564 6.073 9.944 15.092 19.496 28.441 27.094 5.303 3.019 10.844 5.461 16.531 7.333 4.009-1.124 6.667-1.482 6.667-1.482-6.336-14.658 9.04-21.272 9.04-21.272-11.191-1.591-22.145-5.247-32.238-10.992-4.028-2.293-7.655-4.766-10.932-7.372z" fill="#ff4155"/><path d="m350.284 138.378c-12.648-5.065-24.729-16.675-39.216-41.756-3.6-6.234-11.378-8.656-17.924-5.661-12.199 5.582-36.379 13.698-65.639 18.493-2.899 3.987-5.548 8.932-7.309 15.049-1.079 3.747-1.308 7.73-.764 11.613.818 5.838 1.959 11.997 3.503 18.462 1.42 5.948 1.965 12.083 1.556 18.202-1.332 19.964.393 69.606 45.566 97.723 5.267 3.278 10.742 6.005 16.353 8.193 6.937-2.17 13.69-5.09 20.121-8.783 43.802-25.153 45.522-69.302 44.231-87.152-.396-5.476.121-10.989 1.508-16.302 1.692-6.476 2.893-12.609 3.705-18.38.586-4.155-1.794-8.141-5.691-9.701z" fill="#fce6ca"/><g><path d="m270.474 268.87c-44.181-27.499-45.868-76.05-44.565-95.576.399-5.985-.134-11.985-1.522-17.802-1.509-6.323-2.626-12.347-3.426-18.057-.532-3.797-.308-7.693.747-11.358 2.102-7.299 5.489-12.916 9.044-17.17-13.213 2.304-27.538 3.961-42.329 4.402-7.633.228-14.958 3.254-20.453 8.558-4.211 4.065-8.458 9.806-10.93 17.655-1.055 3.351-1.279 6.914-.747 10.387.8 5.222 1.916 10.73 3.426 16.513 1.388 5.32 1.921 10.808 1.522 16.28-1.302 17.856.384 62.258 44.565 87.405 25.509 14.52 55.961 17.086 83.221 7.734-6.383-2.282-12.603-5.268-18.553-8.971z" fill="#ffd9a1"/></g><path d="m324.603 311.789c-5.556 9.532-13.979 18.744-26.672 26.033-20.51 11.778-44.924 14.214-67.06 7.317-10.099 2.246-42.676 12.175-42.676 46.794v110.53c21.536 6.193 44.277 9.537 67.805 9.537 39.781 0 77.341-9.49 110.557-26.316 0-25.69 0-54.807 0-72.953 0-22.21 26.476-44.841 48.835-59.997-22.379-29.989-65.064-33.701-90.789-40.945z" fill="#deeeff"/><path d="m214.364 337.982c-12.851-7.315-21.357-16.594-26.953-26.197-25.724 7.247-68.42 10.955-90.803 40.948 22.359 15.156 48.835 37.787 48.835 59.997v72.954c14.027 7.105 28.836 12.885 44.252 17.212 0-27.677 0-82.013 0-110.963 0-39.917 44.329-45.875 44.331-45.876-6.795-1.829-13.408-4.515-19.662-8.075z" fill="#d3dcfb"/><path d="m437.244 431.851c-2.461-18.707-5.821-38.109-10.393-55.09-2.682-9.962-6.893-18.164-12.17-24.975-22.638 15.15-50.238 38.27-50.238 60.945v74.003c27.609-13.652 52.283-32.339 72.801-54.883z" fill="#ff7186"/><path d="m97.319 351.786c-5.277 6.811-9.487 15.013-12.17 24.975-4.572 16.981-7.931 36.384-10.393 55.09 20.518 22.544 45.191 41.232 72.8 54.883 0-25.943 0-55.609 0-74.003 0-22.676-27.6-45.795-50.237-60.945z" fill="#ff4155"/><g fill="#b4d667"><path d="m111.156 168.89c5.468-35.749-16.662-57.662-34.184-69.126-40.917 43.785-65.974 102.579-65.974 167.234 0 45.634 12.477 88.354 34.206 124.935 9.046-62.235 39.168-81.151 82.724-98.551 52.565-21-25.566-67-16.772-124.492z"/><path d="m400.844 168.89c-5.468-35.749 16.662-57.662 34.184-69.126 40.917 43.785 65.974 102.579 65.974 167.234 0 45.634-12.477 88.354-34.206 124.935-9.046-62.235-39.168-81.151-82.724-98.551-52.565-21 25.566-67 16.772-124.492z"/></g></g></svg>