<svg id="Layer_1" enable-background="new 0 0 512 512" height="512" viewBox="0 0 512 512" width="512" xmlns="http://www.w3.org/2000/svg"><g><path d="m81.062 438.504h349.876c43.332-44.193 70.064-104.724 70.064-171.506 0-135.31-109.691-245.002-245.002-245.002s-245.002 109.691-245.002 245.002c0 66.783 26.732 127.312 70.064 171.506z" fill="#fc90ce"/><path d="m407.234 283.541c-5.16-13.676-19.653-45.177-51.139-71.593-2.518 10.909-12.739 18.571-24.203 17.535-1.319-.119-2.592-.372-3.83-.701 5.395 15.592 14.891 46.017 19.941 79.869 1.016 6.807 7.485 11.449 14.227 10.066 11.358-2.33 28.326-8.126 42.322-22.543 3.253-3.351 4.33-8.264 2.682-12.633z" fill="#945230"/><path d="m368.03 267.663c-7.211-17.963 4.886-26.828 12.58-30.48-6.705-8.447-14.798-17.082-24.514-25.234-2.518 10.909-12.739 18.571-24.203 17.535-1.319-.119-2.592-.372-3.83-.702 5.395 15.592 14.891 46.017 19.941 79.869 1.016 6.808 7.485 11.449 14.227 10.066 9.803-2.011 23.783-6.619 36.427-17.108-15.564-1.32-22.629-14.02-30.628-33.946z" fill="#753616"/><ellipse cx="336.119" cy="208.989" fill="#ffdd40" rx="22.765" ry="22.765" transform="matrix(.99 -.144 .144 .99 -26.609 50.619)"/><path d="m177.622 229.484c-11.464 1.036-21.685-6.626-24.203-17.535-31.485 26.416-45.979 57.916-51.139 71.593-1.648 4.369-.572 9.282 2.681 12.633 13.996 14.417 30.964 20.213 42.322 22.543 6.742 1.383 13.211-3.258 14.227-10.066 5.05-33.852 14.546-64.277 19.941-79.869-1.237.329-2.509.582-3.829.701z" fill="#753616"/><path d="m150.723 211.038c1.132 12.522 12.2 21.755 24.722 20.624 12.522-1.132 21.755-12.2 20.624-24.722-1.132-12.522-12.2-21.755-24.722-20.624-12.522 1.132-21.755 12.2-20.624 24.722z" fill="#ffdd40"/><path d="m254.758 0c-60.7 0-109.906 52.163-109.906 116.51 0 9.317 1.048 18.371 2.999 27.054h213.816c1.95-8.684 2.999-17.738 2.999-27.054-.002-64.347-49.209-116.51-109.908-116.51z" fill="#945230"/><path d="m234.104 106.837c-33.451-81.212 54.568-101.175 54.568-101.175-10.683-3.67-22.078-5.662-33.914-5.662-60.7 0-109.906 52.163-109.906 116.51 0 9.317 1.048 18.371 2.998 27.054h91.338c2.225-9.701 1.085-21.749-5.084-36.727z" fill="#753616"/><path d="m187.24 350.625c42.021 28.134 96.317 28.134 138.338 0 11.789-7.893 21.361-16.963 29.154-26.658-13.637-2.177-26.738-3.687-36.512-6.869-17.114-5.572-20.468-34.61-23.386-49.313-24.379 14.317-53.292 14.276-77.645-.122-2.924 14.663-6.249 43.848-23.411 49.435-9.599 3.125-22.409 4.638-35.783 6.754 7.811 9.738 17.41 18.849 29.245 26.773z" fill="#ffd9a1"/><path d="m176.2 178.527c.341-5.496-.114-11.006-1.3-16.348-1.984-8.941-3.171-17.225-3.799-24.813-5.799-2.914-15.692-5.791-23.185 2.952-10.659 12.436-.71 32.784 5.567 43.035 2.197 3.587 3.808 7.484 4.878 11.551 1.366 5.188 5.596 11.661 18.537 6.527-1.138-9.273-1.042-17.363-.698-22.904z" fill="#f9c98a"/><path d="m335.8 178.527c-.341-5.496.114-11.006 1.3-16.348 1.984-8.941 3.171-17.225 3.799-24.813 5.799-2.914 15.691-5.791 23.185 2.952 10.659 12.436.71 32.784-5.567 43.035-2.197 3.587-3.807 7.484-4.878 11.551-1.366 5.188-5.596 11.661-18.537 6.527 1.138-9.273 1.042-17.363.698-22.904z" fill="#ffd9a1"/><path d="m340.898 137.366c-48.589-6.397-88.2-18.666-109.059-31.919-5.511 4.952-8.444 12.323-7.676 19.884.9 8.858 2.385 18.397 4.642 28.573 1.572 7.084 2.175 14.392 1.723 21.68-1.297 20.914.05 69.159 34.418 103.267 11.908-1.382 23.575-5.562 34.017-12.554 37.717-25.252 39.157-69.838 38.045-87.769-.341-5.496.114-11.006 1.299-16.348.315-1.413 2.591-16.256 2.591-24.814z" fill="#fce6ca"/><path d="m231.615 175.935c.439-7.074-.147-14.166-1.673-21.042-2.191-9.876-3.632-19.135-4.506-27.732-.8-7.878 2.536-15.548 8.667-20.323-4.699-2.794-8.583-5.639-11.532-8.49-3.821-3.694-9.985-3.421-13.448.611-9.917 11.543-20.998 19.41-29.882 24.484-6.078 3.471-9.528 10.228-8.82 17.191.679 6.68 1.798 13.873 3.501 21.546 1.185 5.342 1.64 10.852 1.299 16.348-1.112 17.931.328 62.517 38.045 87.769 16.321 10.927 35.63 15 54.181 12.225-35.739-33.201-37.121-81.803-35.832-102.587z" fill="#ffd9a1"/><path d="m422.749 372.629c-5.744-36.764-39.684-44.255-70.174-49.001-7.726 9.894-17.348 19.145-29.305 27.15-38.377 25.695-87.339 27.103-126.889 4.254-4.631 1.247-13.957 4.252-23.394 10.196-17.39 10.954-26.581 26.684-26.581 45.488v75.435c32.977 16.529 70.193 25.849 109.594 25.849 68.528 0 130.473-28.147 174.938-73.496-2.05-20.8-4.739-43.796-8.189-65.875z" fill="#88ce65"/><path d="m366.901 462.254h-220.995v-51.539h220.995z" fill="#b4d667"/><path d="m36.185 375.263c16.016-4.367 28.702-15.03 28.702-37.881 0-97.5 35-100 55-149.826 12.416-30.933-11.78-72.083-31.916-98.846-47.386 44.676-76.973 108.023-76.973 178.288 0 38.873 9.071 75.618 25.187 108.265z" fill="#ffbbe5"/><path d="m475.815 375.263c-16.016-4.367-28.702-15.03-28.702-37.881 0-97.5-35-100-55-149.826-12.416-30.933 11.78-72.083 31.917-98.846 47.385 44.676 76.973 108.023 76.973 178.288-.001 38.873-9.072 75.618-25.188 108.265z" fill="#ffbbe5"/><path d="m395.888 468.129c0-11.863 0-27.493 0-41.247 0-16.099-11.441-25.739-20.422-30.827-4.725-2.676-10.578.771-10.578 6.202v84.25c10.811-5.376 21.167-11.526 31-18.378z" fill="#6faf46"/><path d="m189.522 350.778c-12.001-8.035-21.648-17.325-29.388-27.26-30.671 4.742-65.094 12.062-70.883 49.111-3.45 22.079-6.139 45.075-8.189 65.875 19.287 19.671 41.868 36.099 66.844 48.403 0-14.952 0-44.789 0-76.192 0-40.289 42.107-52.592 50.362-54.617-2.967-1.643-5.888-3.407-8.746-5.32z" fill="#6faf46"/><path d="m217.19 267.663c-2.924 14.662-6.249 43.848-23.411 49.436-9.599 3.125-22.409 4.638-35.783 6.753 7.81 9.738 17.409 18.849 29.244 26.773 3.083 2.064 6.238 3.958 9.444 5.719.527-.081 1.049-.157 1.584-.245 51.342-8.459 57.36-62.998 58.049-77.611-13.424.036-26.855-3.569-39.127-10.825z" fill="#f9c98a"/></g></svg>