<svg id="Layer_1" enable-background="new 0 0 512 512" height="512" viewBox="0 0 512 512" width="512" xmlns="http://www.w3.org/2000/svg"><g><path d="m432.055 437.36c42.674-44.091 68.947-104.155 68.947-170.362 0-135.31-109.691-245.002-245.002-245.002s-245.002 109.691-245.002 245.002c0 66.207 26.272 126.271 68.947 170.362z" fill="#ff4155"/><path d="m331.648 317.445c-14.877-9.991-39.56-21.164-75.607-21.164-36.381 0-61.192 11.385-76.026 21.449v.464c2.562-1.033 5.529-.994 8.163.346 12.376 6.295 37.867 17.02 67.864 17.02s55.473-10.711 67.841-16.997c2.5-1.27 5.297-1.364 7.766-.488v-.63z" fill="#753616"/><path d="m135.861 156.604c2.327 8.439 5.553 17.378 9.735 26.859h221.182c1.541-5.07 4.182-14.863 5.749-26.859z" fill="#eab049"/><path d="m375.979 182.293c-7.568-8.829-17.684-5.327-23.103-2.411-.801 5.466-1.954 11.256-3.545 17.35-1.375 5.269-1.903 10.703-1.507 16.123.46 6.306.542 15.957-1.526 26.892 13.878 6.312 18.268-.276 19.643-5.499 1.029-3.908 2.577-7.654 4.688-11.1 6.033-9.85 15.593-29.404 5.35-41.355z" fill="#ffc7ab"/><path d="m164.176 213.356c.395-5.42-.133-10.855-1.507-16.123-1.591-6.095-2.744-11.884-3.545-17.35-5.419-2.916-15.535-6.418-23.103 2.411-10.243 11.951-.683 31.505 5.35 41.355 2.111 3.447 3.659 7.192 4.688 11.1 1.375 5.223 5.764 11.811 19.643 5.499-2.068-10.936-1.986-20.586-1.526-26.892z" fill="#ffaa7b"/><path d="m241.23 370.7c9.428 4.185 20.194 4.185 29.623.001 19.572-8.687 34.555-20.582 45.651-32.042-14.408-6.511-20.612-22.028-23.27-34.849-23.857 9.493-50.611 9.493-74.468 0-2.654 12.804-8.846 28.296-23.213 34.822 11.099 11.468 26.09 23.374 45.677 32.068z" fill="#ffaa7b"/><path d="m349.374 169.46c-6.138-2.458-13.649-6.479-21.401-12.856h-101.951c-2.471 3.378-4.693 7.445-6.232 12.333-1.072 3.404-1.299 7.023-.759 10.552.812 5.305 1.947 10.9 3.48 16.775 1.411 5.404 1.952 10.979 1.547 16.539-1.323 18.14.39 63.246 45.272 88.791 5.026 2.862 10.244 5.261 15.588 7.208 7.292-2.182 14.386-5.207 21.125-9.078 43.379-24.91 45.082-68.632 43.803-86.31-.392-5.423.12-10.883 1.494-16.145 1.675-6.413 2.865-12.487 3.669-18.202.581-4.115-1.777-8.062-5.635-9.607z" fill="#ffdaca"/><path d="m269.793 299.916c-43.754-24.904-45.425-68.876-44.135-86.561.395-5.42-.133-10.854-1.508-16.123-1.495-5.727-2.601-11.182-3.393-16.354-.526-3.439-.305-6.968.74-10.287 1.81-5.749 4.584-10.35 7.592-13.988h-63.5c-3.008 3.638-5.782 8.239-7.592 13.988-1.045 3.319-1.266 6.847-.74 10.287.792 5.171 1.898 10.626 3.393 16.354 1.375 5.268 1.903 10.703 1.508 16.123-1.29 17.684.38 61.656 44.135 86.561 24.961 14.208 54.702 16.863 81.45 7.991-6.174-2.049-12.19-4.712-17.95-7.991z" fill="#ffc7ab"/><path d="m344.826 346.198c-10.221 13.135-38.417 42.015-88.785 42.015-13.331 0-25.093-2.036-35.396-5.256.236.506.474 1.012.73 1.521-9.083 1.237-42.312 8.25-42.217 44.46l.186 70.806c24.114 7.945 49.879 12.256 76.656 12.256 39.321 0 76.468-9.277 109.396-25.743 0-17.016 0-33.37 0-45.095 0-22.014 26.264-44.445 48.419-59.456-16.812-22.489-45.159-30.048-68.989-35.508z" fill="#ffc839"/><path d="m167.245 346.182c-23.844 5.461-52.232 13.012-69.061 35.524 22.155 15.01 48.42 37.441 48.42 59.456v45.095c10.967 5.484 22.412 10.151 34.24 13.963-.04-15.329-.114-43.609-.187-71.285-.107-40.79 43.068-43.206 43.068-43.206-.401-.732-.77-1.453-1.126-2.168-29.804-8.711-47.664-27.498-55.354-37.379z" fill="#ffb332"/><path d="m432.055 437.36c-1.906-11.021-4.169-21.843-6.855-31.821-2.656-9.865-6.826-17.988-12.052-24.733-22.419 15.004-49.753 37.9-49.753 60.357v46.093c25.744-12.577 48.95-29.531 68.66-49.896z" fill="#ffdd40"/><path d="m98.851 380.806c-5.226 6.746-9.396 14.868-12.052 24.733-2.686 9.978-4.948 20.8-6.855 31.821 19.71 20.365 42.917 37.32 68.66 49.895 0-17.374 0-34.139 0-46.093 0-22.456-27.334-45.352-49.753-60.356z" fill="#ffc839"/><path d="m275.814 386.633v83.003c0 7.49 6.128 13.618 13.618 13.618h24.966c7.49 0 13.618-6.128 13.618-13.618v-106.354c-11.941 9.732-29.147 19.607-52.202 23.351z" fill="#945230"/><path d="m275.814 469.636c0 7.49 6.128 13.618 13.618 13.618h17.324c-4.647-4.253-4.841-10.372-4.841-10.372s0-35.522 0-52.75c0-13.251 17.852-14.546 26.101-14.44v-42.411c-11.94 9.732-29.146 19.607-52.201 23.352v83.003z" fill="#753616"/><path d="m345.991 336.433-9.153-15.178c-2.678-4.441-8.332-6.088-12.955-3.738-12.369 6.286-37.844 16.997-67.841 16.997-6.017 0-11.848-.437-17.433-1.178-5.123 2.678-16.121 9.639-20.452 21.848-3.16 8.911-2.077 18.757 3.218 29.294-.495.067-1.073.156-1.701.261 10.533 3.399 22.618 5.566 36.369 5.566 51.317 0 79.631-29.991 89.356-42.752 2.463-3.232 2.691-7.639.592-11.12z" fill="#b26847"/><path d="m241.338 333.671c-23.491-2.644-42.865-10.94-53.161-16.177-4.626-2.353-10.283-.705-12.96 3.741l-9.143 15.18c-2.096 3.48-1.867 7.885.595 11.117 7.396 9.707 25.565 29.378 56.414 38.249.413-.039.642-.052.642-.052-18.685-34.115 13.1-50.012 17.613-52.058z" fill="#945230"/><path d="m236.772 46.106c-.129.813-.261 1.614-.396 2.404-3.639 21.241 12.547 40.69 34.098 40.69h97.447c-4.501-8.588-10.365-16.564-17.382-23.725-6.105-6.231-11.21-13.285-15.761-20.65-13.964-22.6-36.697-38.806-63.225-43.455-11.109 7.441-31.445 23.69-34.781 44.736z" fill="#945230"/><path d="m366.383 86.382h-95.395c-20.17 0-35.32-18.203-31.914-38.084.127-.739.25-1.489.371-2.25 3.483-21.97 26.766-38.362 35.774-43.953-6.256-1.366-12.738-2.095-19.387-2.095-33.165 0-62.29 17.87-78.946 44.824-4.551 7.365-9.656 14.419-15.761 20.65-12.763 13.026-21.742 28.735-25.564 45.957h240.541c-1.952-8.798-5.258-17.197-9.719-25.049z" fill="#753616"/><path d="m377.894 109.018h-151.556c-4.962 5-24.021 27.153-2.388 53.64h153.943c7.207 0 13.103-5.896 13.103-13.103v-27.435c.001-7.207-5.895-13.102-13.102-13.102z" fill="#b26847"/><path d="m10.998 266.998c0 50.867 15.522 98.098 42.062 137.255 5.579-33.216 23.713-59.515 61.214-80.735 61.505-34.803-6.162-52.136-6.162-124.636 0-45.386-33.091-58.954-59.364-62.579-23.904 37.826-37.75 82.641-37.75 130.695z" fill="#ff7186"/><path d="m501.002 266.998c0 50.867-15.521 98.098-42.061 137.255-5.579-33.216-23.713-59.515-61.214-80.735-61.505-34.803 6.162-52.136 6.162-124.636 0-45.386 33.091-58.954 59.364-62.579 23.903 37.826 37.749 82.641 37.749 130.695z" fill="#ff7186"/><path d="m120.666 122.12v27.434c0 7.206 5.896 13.103 13.103 13.103h91.16c-25.184-29.475 2.517-53.64 2.517-53.64h-93.677c-7.206.001-13.103 5.896-13.103 13.103z" fill="#945230"/></g></svg>