<svg id="Layer_1" enable-background="new 0 0 512 512" height="512" viewBox="0 0 512 512" width="512" xmlns="http://www.w3.org/2000/svg"><g><path d="m430.938 438.504c43.332-44.194 70.064-104.724 70.064-171.506 0-135.31-109.691-245.002-245.002-245.002s-245.002 109.691-245.002 245.002c0 66.783 26.732 127.312 70.064 171.506z" fill="#7e6dd1"/><path d="m327.185 36.942c-.97-2.977-2.129-5.79-3.416-8.434-4.376-8.992-12.117-15.906-21.405-19.613-15.181-6.06-31.79-9.244-49.148-8.864-68.732 1.504-123.226 58.656-123.226 127.404v60.121c0 35.775 15.11 91.847 39.262 137.73.008.014.022.023.039.023h173.416c.016 0 .031-.009.039-.023 24.152-45.883 39.262-101.956 39.262-137.73v-61.548c0-20.582-5.005-40.049-13.854-57.252-5.757-11.191-16.312-19.203-28.678-21.542-.114-.022-.228-.043-.34-.063-5.54-1.016-10.206-4.854-11.951-10.209z" fill="#eab049"/><path d="m253.217.03c-68.732 1.505-123.226 58.656-123.226 127.405v60.122c0 35.774 15.11 91.847 39.262 137.73.008.014.022.023.039.023h173.416c.016 0 .031-.009.039-.023 12.394-23.546 22.399-49.771 29.21-74.563-39.404 13.84-45.032-16.811-45.032-16.811s-32.062-44.031-88.359-114.443c-56.296-70.412 14.651-119.44 14.651-119.44z" fill="#ea9939"/><path d="m248.163 366.562.286.112h14.795l.335-.034c1.371-.288 32.403-7.296 49.24-52.372-12.475-9.283-15.403-33.482-17.984-46.483-24.379 14.317-53.292 14.276-77.645-.122-2.6 13.042-5.527 37.559-18.217 46.755 4.538 12.67 17.613 39.799 49.19 52.144z" fill="#ffc7ab"/><path d="m299.066 288.597c-1.955-7.623-3.126-15.244-4.231-20.811-24.379 14.317-53.292 14.276-77.645-.122-2.6 13.042-5.527 37.559-18.217 46.755 2.593 7.239 7.98 19.195 18.004 30.42 3.041-.354 5.798-1.814 8.915-2.592 17.47-4.364 21.672-22.277 25.47-31.864 2.288-5.776 7.498-9.893 13.639-10.837 12.902-1.987 28.142-7.714 34.065-10.949z" fill="#ffaa7b"/><path d="m422.749 372.629c-8.166-52.264-73.315-45.368-104.528-55.531-2.539-.826-4.769-2.18-6.746-3.916-16.72 45.246-48.232 51.859-48.232 51.859h-14.487c-14.396-5.628-24.844-14.319-32.363-23.263-4.961 1.115-10.984 3.404-15.9 8.123-5.633 5.406-8.629 12.884-8.916 22.241-5.271.107-22.81 1.349-34.527 12.724-7.093 6.886-10.689 16.214-10.689 27.726v73.538c32.989 16.541 70.221 25.87 109.639 25.87 68.528 0 130.473-28.147 174.938-73.496-2.051-20.8-4.739-43.796-8.189-65.875z" fill="#73c3f9"/><path d="m147.862 412.591c0-40.29 45.193-38.952 45.193-38.952 0-21.935 14.728-28.562 24.457-30.552-9.737-11.114-14.833-22.834-17.212-29.715-1.922 1.643-4.077 2.931-6.521 3.726-31.213 10.163-96.362 3.267-104.528 55.531-3.45 22.08-6.139 45.075-8.189 65.875 19.276 19.659 41.842 36.079 66.8 48.381 0-22.427 0-52.219 0-74.294z" fill="#49b1f7"/><path d="m332.472 109.008c-5.867-9.152-14.026-15.974-28.428-12.74-18.335 4.116-40.556 18.819-69.393 23.969-6.342 8.214-9.286 19.086-6.823 30.341.061.279.123.559.185.84 1.336 6.024 1.85 12.238 1.465 18.436-1.254 20.221.37 70.501 42.904 98.978 3.264 2.186 6.641 4.106 10.094 5.802 5.678-2.09 11.178-4.861 16.372-8.339 37.717-25.252 39.157-69.838 38.045-87.769-.341-5.496.114-11.006 1.299-16.348.983-4.43 1.772-8.524 2.394-12.316 2.324-14.155-.373-28.778-8.114-40.854z" fill="#ffdaca"/><g><path d="m272.729 266.918c-41.362-27.692-42.94-76.586-41.721-96.249.374-6.027-.125-12.069-1.425-17.928-.061-.273-.121-.545-.18-.816-2.703-12.351 1.28-24.234 9.163-32.455-9.497 2.013-19.721 3.057-30.792 2.348-21.718-1.39-38.784 18.358-34.131 39.617.054.247.109.495.164.744 1.185 5.342 1.64 10.853 1.299 16.348-1.112 17.931.328 62.517 38.045 87.769 21.583 14.45 48.388 16.907 71.758 7.396-4.187-1.903-8.264-4.152-12.18-6.774z" fill="#ffc7ab"/></g><path d="m245.301 353.562c-8.906-3.62-15.803-8.069-21.148-12.804-4.324.15-15.513 1.324-23.659 9.142-5.574 5.349-8.561 12.729-8.902 21.948 4.351 5.424 8.712 10.008 12.773 13.814 9.79 9.175 25.436 7.485 32.938-3.639l11.453-16.983c2.737-4.057 1.079-9.635-3.455-11.478z" fill="#deeeff"/><path d="m206.676 311.365c-.772-3.668-4.773-5.641-8.171-4.061l-32.406 15.061c6.475 22.218 16.784 39.026 26.958 51.274 0-32.743 32.836-31.393 32.836-31.393-12.982-10.673-17.586-23.136-19.217-30.881z" fill="#d3dcfb"/><path d="m305.325 311.365c-2.269 10.775-10.295 30.683-38.626 42.197-4.534 1.843-6.192 7.421-3.456 11.479l11.453 16.983c7.502 11.124 23.148 12.814 32.938 3.639 13.106-12.283 29.334-32.647 38.267-63.298l-32.406-15.061c-3.398-1.58-7.398.394-8.17 4.061z" fill="#deeeff"/><path d="m97.089 162.655c-6.444-22.828-19.448-38.158-32.694-48.335-33.413 41.877-53.397 94.94-53.397 152.679 0 47.772 13.684 92.339 37.332 130.021 4.062-24.908 5.292-53.115 32.731-71.709 51.655-35.004 27.869-120.714 16.028-162.656z" fill="#9589e8"/><path d="m414.911 162.655c6.444-22.828 19.448-38.158 32.694-48.335 33.413 41.877 53.397 94.94 53.397 152.679 0 47.772-13.684 92.339-37.332 130.021-4.062-24.908-5.292-53.115-32.732-71.709-51.654-35.004-27.868-120.714-16.027-162.656z" fill="#9589e8"/><path d="m395.888 468.129c0-11.863 0-27.493 0-41.247 0-16.099-11.441-25.739-20.422-30.827-4.725-2.676-10.578.771-10.578 6.202v84.25c10.811-5.376 21.167-11.526 31-18.378z" fill="#49b1f7"/></g></svg>