<svg id="Layer_1" enable-background="new 0 0 512 512" height="512" viewBox="0 0 512 512" width="512" xmlns="http://www.w3.org/2000/svg"><g><path d="m432.032 437.384c42.688-44.094 68.97-104.167 68.97-170.386 0-135.31-109.691-245.002-245.002-245.002s-245.002 109.691-245.002 245.002c0 66.219 26.282 126.292 68.97 170.386z" fill="#ffc839"/><ellipse cx="254.286" cy="17.173" fill="#ff7186" rx="17.173" ry="17.173" transform="matrix(.228 -.974 .974 .228 179.57 260.84)"/><path d="m290.748 374.205c-21.607 11.73-47.889 11.73-69.496 0-18.776-10.192-27.268-25.123-30.938-38.503-8.618 2.582-19.424 4.64-30.813 7.456l2.628 1.857s35.489 55.396 73.166 66.727v99.38c6.827.57 13.73.878 20.705.878s13.878-.308 20.706-.879v-99.38c37.676-11.331 73.166-66.727 73.166-66.727l2.628-1.857c-11.389-2.816-22.195-4.874-30.813-7.456-3.671 13.381-12.163 28.312-30.939 38.504z" fill="#deeeff"/><path d="m179.469 365.675c-1.56 1.097-3.045 2.357-4.396 3.818-5.61 6.067-7.898 14.352-6.809 24.639-5.409 1.276-24.194 7.323-24.194 29.719v61.118c28.339 14.586 59.882 23.819 93.307 26.331v-99.559c-22.415-6.741-44.053-29.076-57.908-46.066z" fill="#49b1f7"/><path d="m145.569 423.851c0-25.031 24.348-28.527 24.348-28.527-1.982-14.911 3.365-23.519 10.508-28.483-9.994-12.118-16.215-21.826-16.215-21.826l-3.163-2.235c-29.285 7.104-62.955 18.883-73.345 57.474-3.116 11.574-5.659 24.29-7.735 37.131 18.927 19.55 41.081 35.957 65.602 48.363 0-15.709 0-44.408 0-61.897z" fill="#1fa2ea"/><path d="m432.032 437.384c-2.075-12.841-4.619-25.558-7.735-37.131-10.39-38.591-44.06-50.369-73.345-57.474l-3.163 2.235s-35.49 55.396-73.166 66.727v99.559c61.641-4.633 116.909-32.082 157.409-73.916z" fill="#49b1f7"/><path d="m223.796 355.15c20.025 10.871 44.384 10.871 64.409 0 11.877-6.448 19.296-14.943 23.902-23.629-11.46-7.339-16.694-20.983-19.072-32.455-23.73 9.443-50.34 9.443-74.07 0-2.378 11.473-7.612 25.116-19.072 32.455 4.606 8.686 12.026 17.181 23.903 23.629z" fill="#ffada3"/><path d="m254.112 336.109c1.568-4.84 5.822-8.35 10.894-8.752 15.577-1.237 27.978-5.422 35.286-8.499-3.703-6.289-5.928-13.379-7.257-19.793-23.73 9.442-50.34 9.442-74.07 0-2.378 11.473-7.612 25.116-19.072 32.455 4.606 8.686 12.026 17.182 23.903 23.629 3.93 2.133 8.029 3.842 12.228 5.138 10.756-6.955 15.784-17.067 18.088-24.178z" fill="#ff988a"/><g><path d="m319.527 335.031c-3.405-1.108-6.397-2.693-9.036-4.619-4.379 8.718-11.632 17.318-23.534 23.779-19.249 10.449-42.663 10.449-61.912 0-11.902-6.461-19.156-15.061-23.535-23.779-2.64 1.927-5.632 3.511-9.037 4.62-1.473.48-3.024.939-4.637 1.385 3.713 13.999 12.481 29.742 32.19 40.441 22.369 12.143 49.58 12.143 71.95 0 19.709-10.699 28.477-26.443 32.189-40.441-1.614-.447-3.164-.906-4.638-1.386z" fill="#d3dcfb"/></g><path d="m256 29.123c-62.623 0-113.86 51.237-113.86 113.861v36.378h227.721v-36.378c0-62.624-51.238-113.861-113.861-113.861z" fill="#56415e"/><path d="m289.229 34.104-34.943 52.879s12.105 13.314 0 25.419l52.912 66.958h62.663v-36.378c0-51.075-34.086-94.571-80.632-108.878z" fill="#45304c"/><path d="m375.339 178.198c-7.527-8.782-17.59-5.299-22.979-2.398-.797 5.437-1.944 11.195-3.526 17.258-1.367 5.241-1.893 10.646-1.499 16.037.457 6.273.539 15.871-1.518 26.749 13.804 6.278 18.17-.275 19.538-5.469 1.024-3.888 2.563-7.613 4.663-11.041 6-9.8 15.509-29.25 5.321-41.136z" fill="#ffada3"/><path d="m164.666 209.094c.393-5.391-.132-10.797-1.499-16.037-1.582-6.062-2.729-11.821-3.526-17.258-5.39-2.901-15.452-6.384-22.979 2.398-10.189 11.887-.679 31.337 5.322 41.135 2.1 3.428 3.639 7.154 4.663 11.041 1.368 5.195 5.734 11.748 19.538 5.469-2.058-10.876-1.976-20.475-1.519-26.748z" fill="#ff988a"/><path d="m299 317.998s29.248 40.134-21.669 87.526c-1.725 1.605-2.706 3.861-2.706 6.217 0 5.6 5.316 9.688 10.721 8.222 15.151-4.11 43.337-13.442 64.504-30.302 20.251-16.131 22.203-46.313 4.481-65.187-11.073-11.793-31.409-21.275-47.112-30.572 0 0-4.002 2.292-14.186 7.092-.001-.001 1.33 9.87 5.967 17.004z" fill="#73c3f9"/><path d="m205.68 358.345-.266.288c-3.718-.062-20.483.201-30.341 10.86-5.61 6.067-7.898 14.352-6.809 24.639-.022.005-.048.012-.07.017 20.23 14.053 44.713 22.084 58.462 25.814 5.404 1.466 10.721-2.622 10.721-8.222 0-2.356-.981-4.612-2.706-6.217-18.49-17.209-26.403-33.459-28.991-47.179z" fill="#73c3f9"/><path d="m213.001 317.997c4.636-7.134 5.968-17.004 5.968-17.004-10.185-4.8-14.186-7.092-14.186-7.092-15.702 9.297-36.038 18.778-47.112 30.572-17.722 18.874-15.77 49.057 4.481 65.188 2.501 1.992 5.102 3.875 7.766 5.661-4.969-37.39 36.132-35.166 36.132-35.166-5.505-25.056 6.951-42.159 6.951-42.159z" fill="#49b1f7"/><path d="m355.884 156.141c.111-21.875-19.498-38.59-41.1-35.137-27.511 4.397-55.392 5.673-83.12 3.857-9.328 6.546-15.543 17.364-15.48 29.842.055 10.79 1.423 23.48 5.168 37.827 1.401 5.368 1.938 10.917 1.535 16.451-1.33 18.28.451 64.055 46.827 89.23 4.476 2.43 9.101 4.479 13.821 6.19 6.918-1.976 13.664-4.711 20.107-8.209 45.26-24.569 46.997-69.241 45.699-87.082-.393-5.4.131-10.815 1.499-16.054 3.655-14 4.991-26.385 5.044-36.915z" fill="#ffc1bb"/><g><path d="m270.128 296.193c-45.26-24.569-46.997-69.242-45.699-87.082.393-5.4-.131-10.815-1.498-16.054-3.654-14.001-4.99-26.386-5.043-36.916-.068-13.466 7.342-24.968 18.084-31.022-12.964-.698-25.901-2.06-38.756-4.115-21.601-3.453-41.21 13.262-41.1 35.137.053 10.53 1.389 22.915 5.043 36.916 1.367 5.239 1.891 10.654 1.498 16.054-1.298 17.84.44 62.512 45.699 87.082 24.227 13.152 52.74 15.542 78.53 7.183-5.746-1.863-11.359-4.252-16.758-7.183z" fill="#ffada3"/></g><path d="m201.826 471.988c-4.007 0-7.285-3.278-7.285-7.285v-59.844c0-4.007 3.278-7.285 7.285-7.285 4.007 0 7.285 3.278 7.285 7.285v59.844c0 4.006-3.278 7.285-7.285 7.285z" fill="#deeeff"/><path d="m310.174 471.988c-4.007 0-7.285-3.278-7.285-7.285v-59.844c0-4.007 3.278-7.285 7.285-7.285 4.007 0 7.285 3.278 7.285 7.285v59.844c0 4.006-3.278 7.285-7.285 7.285z" fill="#deeeff"/><g><path d="m272.47 17.173h-20.857c-8.131 9.24-30.152 39.726 1.48 69.811h26.302c6.869 0 12.489 5.62 12.489 12.489v17.614h77.976v-2.523c.001-53.565-43.825-97.391-97.39-97.391z" fill="#ff4155"/></g><path d="m254.286 17.173h-18.184c-53.565 0-97.391 43.826-97.391 97.391v2.523h81.404v-17.614c0-6.869 5.62-12.489 12.489-12.489h21.681c-37.765-34.438.001-69.811.001-69.811z" fill="#e80054"/><path d="m221.272 112.403h-79.701c-5.17 0-9.4 4.23-9.4 9.4v12.423c0 5.17 4.23 9.4 9.4 9.4h79.701z" fill="#ff4155"/><path d="m412.093 112.403h-134.855v31.223h134.855c8.586 0 15.612-7.025 15.612-15.612-.001-8.586-7.026-15.611-15.612-15.611z" fill="#ff7186"/><path d="m293.526 128.014c0-8.586-7.025-15.612-15.612-15.612h-57.798v31.223h57.799c8.585.001 15.611-7.024 15.611-15.611z" fill="#ff4155"/><path d="m254.286 112.403h-34.17v31.223h34.17c-16.804-16.804 0-31.223 0-31.223z" fill="#e80054"/><path d="m403.888 214.402c-8 56.98-61.338 68.534 7.91 113.39 32.493 21.047 46.842 46.471 52.92 67.531 23.001-37.321 36.284-81.268 36.284-128.325 0-42.575-10.867-82.61-29.968-117.493-24.602 8.402-61.853 27.195-67.146 64.897z" fill="#ffdd40"/><path d="m108.112 214.402c8 56.98 61.338 68.534-7.91 113.39-32.493 21.047-46.842 46.471-52.92 67.531-23.001-37.321-36.284-81.268-36.284-128.325 0-42.575 10.867-82.61 29.968-117.493 24.602 8.402 61.853 27.195 67.146 64.897z" fill="#ffdd40"/><path d="m395.888 468.129c0-11.863 0-27.493 0-41.247 0-16.099-11.441-25.739-20.422-30.827-4.725-2.676-10.578.771-10.578 6.202v84.25c10.811-5.376 21.167-11.526 31-18.378z" fill="#1fa2ea"/></g></svg>