<svg id="Layer_1" enable-background="new 0 0 511.923 511.923" height="512" viewBox="0 0 511.923 511.923" width="512" xmlns="http://www.w3.org/2000/svg"><g><path d="m81.041 438.522h349.84c43.343-44.195 70.082-104.732 70.082-171.524 0-135.31-109.691-245.002-245.002-245.002s-245.002 109.691-245.002 245.002c.001 66.792 26.74 127.329 70.082 171.524z" fill="#7e6dd1"/><path d="m379.071 217.118c-6.036-14.264-6.641-30.158-2.545-45.095 3.27-11.923 5.024-24.53 5.024-37.573 0-74.254-56.784-134.45-126.83-134.45s-126.83 60.196-126.83 134.451c0 13.043 1.754 25.65 5.024 37.573 4.096 14.937 3.492 30.83-2.545 45.094-1.626 3.842-2.479 7.816-2.479 11.885 0 33.214 56.784 69.857 126.83 69.857s126.83-36.643 126.83-69.857c0-4.068-.853-8.043-2.479-11.885z" fill="#56415e"/><path d="m379.1 241.207c-39.996 13.273-55.641-26.825-55.641-26.825s-44.469-28.667-82.129-99.77c-29.386-55.48 7.855-97.985 25.639-113.985-4.032-.41-8.116-.627-12.25-.627-70.046 0-126.83 60.196-126.83 134.451 0 13.043 1.754 25.65 5.024 37.573 4.096 14.937 3.492 30.83-2.545 45.094-1.626 3.842-2.479 7.816-2.479 11.886 0 33.214 56.784 69.857 126.83 69.857 61.524 0 112.81-28.269 124.381-57.654z" fill="#45304c"/><path d="m338.074 157.82c-.283 1.429-.579 2.87-.904 4.334-1.185 5.341-1.64 10.851-1.299 16.346.345 5.557.441 13.678-.709 22.988 12.767 4.972 16.956-1.456 18.314-6.613 1.071-4.066 2.681-7.963 4.878-11.549 1.511-2.467 3.232-5.518 4.828-8.903 3.244-6.88-1.515-14.906-9.116-15.194-5.444-.206-10.777-.687-15.992-1.409z" fill="#ffada3"/><path d="m176.284 178.501c.341-5.495-.114-11.004-1.299-16.346-1.984-8.939-3.171-17.222-3.798-24.809-5.798-2.913-15.689-5.79-23.182 2.952-10.658 12.434-.71 32.779 5.566 43.028 2.197 3.586 3.807 7.483 4.878 11.549 1.366 5.187 5.595 11.659 18.534 6.526-1.139-9.272-1.043-17.361-.699-22.9z" fill="#ff988a"/><path d="m248.125 366.507.286.112h14.793l.335-.034c1.371-.288 32.398-7.295 49.233-52.364-12.473-9.281-15.401-33.477-17.981-46.476-24.375 14.315-53.284 14.274-77.634-.122-2.6 13.04-5.526 37.553-18.214 46.748 4.537 12.668 17.61 39.793 49.182 52.136z" fill="#ffada3"/><path d="m298.475 286.342c-1.634-6.867-2.687-13.57-3.685-18.597-24.375 14.315-53.284 14.274-77.633-.122-2.6 13.04-5.527 37.553-18.215 46.748 3.992 11.145 14.595 33.472 38.58 47.086 1.286-.473 2.129-.669 2.129-.669 6.839-13.7 10.849-32.753 12.991-46.095 1.352-8.424 7.88-15.036 16.268-16.588 13.561-2.511 25.472-9.253 29.565-11.763z" fill="#ff988a"/><path d="m311.428 313.135c-10.525 28.482-26.913 41.653-37.609 47.503-5.277 2.886-11.21 4.349-17.224 4.349-5.905 0-11.749-1.391-16.944-4.199-25.049-13.537-35.613-36.567-39.381-47.462-1.922 1.643-4.076 2.93-6.52 3.725-12.269 3.995-29.781 5.355-47.014 8.707 4.657 12.135 27.401 62.329 87.567 70.293v114.985c5.158.452 10.356.76 15.601.887h12.117c5.244-.127 10.443-.435 15.601-.887v-114.985c53.836-19.004 78.65-57.312 85.895-70.611-16.688-3.124-33.47-4.523-45.342-8.389-2.541-.826-4.77-2.18-6.747-3.916z" fill="#deeeff"/><path d="m200.27 313.325c-1.922 1.643-4.076 2.93-6.52 3.725-12.269 3.995-29.781 5.355-47.014 8.707 4.32 11.256 24.207 55.252 75.082 67.922 2.279-3.703 3.341-6.661 2.839-8.632-5.008-19.67 14.994-24.261 14.994-24.261-25.049-13.535-35.613-36.566-39.381-47.461z" fill="#d3dcfb"/><path d="m169.219 359.451c-2.118 5.817-2.589 12.714-1.38 20.636-6.024 1.539-28.891 8.938-28.891 32.442v69.743c29.39 16.013 62.415 26.195 97.532 28.958v-115.179c-32.087-4.247-53.528-20.508-67.261-36.6z" fill="#fc90ce"/><path d="m140.448 483.089c0-20.8 0-53.616 0-70.56 0-25.993 29.098-31.299 29.098-31.299-1.477-8.456-.961-15.16.8-20.477-13.053-14.842-19.481-29.822-21.58-35.382-27.301 5.071-54.447 14.682-59.528 47.201-3.454 22.105-6.145 45.13-8.196 65.949 17.354 17.697 37.375 32.764 59.406 44.568z" fill="#ff7acb"/><path d="m430.882 438.522c-2.051-20.819-4.742-43.844-8.196-65.949-5.181-33.163-33.309-42.501-61.148-47.497-6.995 12.966-31.781 51.802-86.094 70.974v115.179c60.733-4.778 115.23-31.708 155.438-72.707z" fill="#fc90ce"/><path d="m339.135 157.973c-42.842-5.641-77.75-27.426-99.448-44.653-2.757 3.85-4.126 8.633-3.629 13.525.757 7.449 2.005 15.471 3.904 24.029 1.322 5.957 1.829 12.102 1.449 18.232-1.24 19.997.366 69.72 42.429 97.881 2.215 1.482 4.481 2.845 6.787 4.1 2.833-1.428 5.605-3.03 8.293-4.83 37.711-25.248 39.151-69.828 38.04-87.755-.341-5.495.114-11.005 1.299-16.346.313-1.413.601-2.804.876-4.183z" fill="#ffc1bb"/><path d="m284.047 265.095c-41.062-27.491-42.629-76.031-41.419-95.551.371-5.983-.124-11.982-1.415-17.798-1.854-8.354-3.072-16.185-3.811-23.457-.507-4.988.956-9.872 3.894-13.71-8.012-6.255-14.357-11.993-18.757-16.247-3.821-3.694-9.984-3.42-13.447.611-9.915 11.542-20.995 19.407-29.877 24.48-6.077 3.471-9.526 10.227-8.819 17.188.679 6.679 1.798 13.871 3.5 21.543 1.185 5.341 1.64 10.851 1.299 16.346-1.111 17.928.328 62.507 38.04 87.755 23.947 16.033 54.327 17.302 79.303 3.831-2.898-1.485-5.735-3.146-8.491-4.991z" fill="#ffada3"/><path d="m300.94 297.993s30.594 41.981-22.667 91.554c-1.804 1.679-2.831 4.039-2.831 6.504 0 5.857 5.561 10.134 11.214 8.6 15.848-4.299 45.332-14.061 67.473-31.697 21.183-16.873 23.225-48.445 4.687-68.188-9.247-9.848-24.668-18.155-38.868-26.052-6.456-3.591-14.25-3.801-20.9-.584-.075.036-.151.073-.227.11-2.511 1.213-3.835 4.017-3.167 6.724.905 3.666 2.542 8.806 5.286 13.029z" fill="#ffbbe5"/><path d="m203.076 338.812-.153.1c-3.022.025-19.082.701-28.696 11.908-6.118 7.132-8.265 16.974-6.388 29.267-.017.004-.039.011-.057.015 20.384 13.188 43.924 20.87 57.485 24.549 5.653 1.534 11.214-2.743 11.214-8.6 0-2.465-1.027-4.825-2.831-6.504-19.964-18.582-28.146-36.097-30.574-50.735z" fill="#ffbbe5"/><path d="m210.983 297.993c2.744-4.223 4.382-9.362 5.286-13.029.668-2.708-.656-5.512-3.167-6.725-.076-.037-.152-.073-.227-.11-6.65-3.216-14.444-3.006-20.9.584-14.201 7.897-29.622 16.205-38.868 26.053-18.538 19.743-16.496 51.314 4.687 68.188 3.74 2.979 7.693 5.729 11.751 8.271-7.273-41.645 33.82-40.812 33.82-40.812-4.86-25.292 7.618-42.42 7.618-42.42z" fill="#fc90ce"/><path d="m199.294 459.071c-4.191 0-7.621-3.429-7.621-7.621v-62.599c0-4.191 3.429-7.621 7.621-7.621 4.191 0 7.621 3.429 7.621 7.621v62.599c0 4.192-3.429 7.621-7.621 7.621z" fill="#deeeff"/><path d="m312.629 459.071c-4.191 0-7.621-3.429-7.621-7.621v-62.599c0-4.191 3.429-7.621 7.621-7.621 4.191 0 7.621 3.429 7.621 7.621v62.599c0 4.192-3.429 7.621-7.621 7.621z" fill="#deeeff"/><path d="m97.536 197.101c4.1-37.547-19.946-59.849-41.277-72.065-28.523 40.051-45.299 89.047-45.299 141.962 0 45.959 12.661 88.956 34.68 125.706 2.337-29.437 8.79-60.85 37.274-79.048 56.166-35.885 7.455-50.924 14.622-116.555z" fill="#9589e8"/><path d="m414.388 197.101c-4.1-37.547 19.946-59.849 41.277-72.065 28.522 40.051 45.299 89.047 45.299 141.962 0 45.959-12.661 88.956-34.68 125.706-2.337-29.437-8.79-60.85-37.274-79.048-56.167-35.885-7.455-50.924-14.622-116.555z" fill="#9589e8"/><path d="m395.849 468.129c0-11.863 0-27.493 0-41.247 0-16.099-11.441-25.739-20.422-30.827-4.725-2.676-10.578.771-10.578 6.202v84.25c10.812-5.376 21.168-11.526 31-18.378z" fill="#ff7acb"/></g></svg>