<svg id="Layer_1" enable-background="new 0 0 512 512" height="512" viewBox="0 0 512 512" width="512" xmlns="http://www.w3.org/2000/svg"><g><path d="m74.756 431.851h362.488c39.61-43.523 63.758-101.368 63.758-164.853 0-135.31-109.691-245.002-245.002-245.002s-245.002 109.691-245.002 245.002c0 63.485 24.148 121.33 63.758 164.853z" fill="#49b1f7"/><path d="m352.175 52.255c-2.337-1.557-4.252-3.668-5.396-6.232-4.081-9.149-16.902-30.741-46.537-29.095-3.913.218-7.715-1.234-10.603-3.883-3.129-2.87-8.017-6.524-14.697-9.236-1.017 1.076-2.018 2.232-2.993 3.496-2 2.593-4.996 4.204-8.248 4.583-6.407.746-17.62 3.717-27.224 14.832-9.604 11.114-10.918 22.639-10.728 29.087.097 3.273-1.063 6.471-3.338 8.825-17.233 17.839-10.586 37.744-7.031 45.322.996 2.124 1.285 4.49.993 6.817-1.566 12.48 4.549 24.519 13.419 35.043h141.843c4.06-23.882 9.965-79.951-19.46-99.559z" fill="#56415e"/><g><path d="m218.226 115.512c.283-2.256.003-4.548-.962-6.607-3.445-7.345-9.887-26.637 6.815-43.926 2.205-2.282 3.329-5.381 3.235-8.554-.185-6.249 1.089-17.418 10.397-28.191 9.309-10.772 20.176-13.651 26.385-14.375 3.152-.367 6.056-1.928 7.994-4.441 1.433-1.856 2.917-3.492 4.435-4.94-5.74-2.564-12.928-4.478-21.615-4.478-17.578 0-29.04 7.828-34.729 13.045-2.888 2.648-6.69 4.101-10.603 3.883-29.635-1.646-42.456 19.946-46.537 29.095-1.144 2.564-3.059 4.676-5.396 6.232-29.425 19.608-23.52 75.677-19.46 99.559h95.078c-9.673-10.736-16.672-23.272-15.037-36.302z" fill="#45304c"/></g><path d="m377.149 151.337c-7.642-8.915-17.857-5.379-23.328-2.434-.809 5.519-1.973 11.365-3.58 17.52-1.388 5.32-1.921 10.807-1.522 16.281.464 6.368.547 16.112-1.54 27.155 14.014 6.374 18.446-.279 19.834-5.553 1.039-3.947 2.602-7.729 4.733-11.209 6.093-9.948 15.747-29.693 5.403-41.76z" fill="#cc8c60"/><path d="m163.28 182.702c.399-5.473-.134-10.96-1.522-16.281-1.606-6.154-2.771-12-3.58-17.52-5.471-2.945-15.686-6.481-23.328 2.434-10.343 12.067-.689 31.812 5.402 41.759 2.132 3.48 3.695 7.262 4.733 11.209 1.389 5.274 5.821 11.926 19.834 5.553-2.086-11.041-2.003-20.786-1.539-27.154z" fill="#ba7d54"/><path d="m312.787 306.857c-11.507-7.478-16.788-21.233-19.19-32.818-24.09 9.586-51.104 9.586-75.194 0-2.401 11.582-7.68 25.332-19.18 32.812-4.914 3.198-9.475 4.425-16.836 6.263 6.073 9.944 15.092 19.496 28.441 27.094 28.03 15.955 62.694 15.887 90.663-.174 13.18-7.568 22.108-17.049 28.136-26.916-7.61-1.901-12.112-3.187-16.84-6.261z" fill="#cc8c60"/><path d="m210.828 340.207c1.504.856 3.031 1.657 4.572 2.421 20.153-5.094 29.783-17.175 34.212-25.772 2.934-5.696 8.579-9.435 14.967-9.939 15.163-1.196 29.491-4.493 40.06-7.503-6.036-7.459-9.302-16.98-11.042-25.375-24.09 9.586-51.104 9.586-75.194 0-2.402 11.583-7.68 25.332-19.18 32.812-4.914 3.198-9.475 4.425-16.836 6.263 6.074 9.943 15.093 19.495 28.441 27.093z" fill="#ba7d54"/><path d="m243.545 337.325 8.012 13.735-16.641-3.081z" fill="#d3dcfb"/><path d="m268.455 337.325-8.012 13.735 16.641-3.081z" fill="#d3dcfb"/><path d="m426.851 376.761c-14.151-52.559-70.842-56.128-102.249-64.972-5.556 9.532-13.979 18.744-26.671 26.033-25.78 14.804-57.731 14.867-83.567.161l-4.673.886c-3.759.63-18.159 3.396-32.78 10.84-22.279 11.342-34.056 28.174-34.056 48.674v85.969c33.847 17.655 72.327 27.648 113.145 27.648 71.825 0 136.43-30.909 181.244-80.149-2.462-18.706-5.821-38.109-10.393-55.09z" fill="#ffc839"/><path d="m144.356 485.134c0-16.123 0-51.078 0-86.752 0-48.667 66.473-58.175 66.473-58.175l-10.669-12.556c-4.325-4.001-7.86-8.269-10.745-12.646l-2.598-3.057c-31.519 8.728-87.604 12.573-101.668 64.812-4.572 16.981-7.931 36.384-10.393 55.09 19.723 21.672 43.282 39.787 69.6 53.284z" fill="#ffb332"/><path d="m219.413 340.63v19.952c23.645 9.754 50.39 9.638 73.959-.326v-20.007c-23.219 11.488-50.638 11.624-73.959.381z" fill="#ffdd40"/><path d="m357.391 127.206c-.039-4.656-3.559-8.468-8.176-9.076-8.038-1.057-15.126-5.758-19.258-12.597-2.468-4.086-7.554-5.561-11.909-3.606-11.596 5.204-25.613 2.171-33.929-7.645-2.93-3.458-8.015-4.262-11.83-1.814-9.881 6.343-22.703 6.342-32.583-.002-3.815-2.449-8.898-1.642-11.831 1.815-3.986 4.699-9.29 7.829-15.007 9.259-.154.693-.242 1.41-.248 2.148-.107 12.692 1.373 27.801 5.867 45.019 1.594 6.107 2.205 12.406 1.747 18.69-1.495 20.499.441 71.471 51.161 100.34 5.667 3.225 11.551 5.923 17.577 8.121 5.917-2.026 11.686-4.603 17.219-7.753 44.181-25.147 45.868-69.548 44.566-87.405-.4-5.473.133-10.96 1.522-16.281 3.915-14.996 5.205-28.157 5.112-39.213z" fill="#dba783"/><g><path d="m271.733 268.409c-49.849-28.374-51.752-78.471-50.282-98.618.451-6.176-.151-12.367-1.717-18.369-4.417-16.922-5.872-31.772-5.766-44.246.013-1.51.359-2.936.956-4.225-6.753 2.222-14.265 1.992-20.978-1.024-4.354-1.955-9.438-.475-11.906 3.61-4.13 6.834-11.214 11.538-19.257 12.595-4.615.606-8.134 4.42-8.174 9.075-.093 11.056 1.196 24.218 5.111 39.216 1.388 5.32 1.921 10.808 1.522 16.281-1.302 17.856.384 62.257 44.565 87.405 26.143 14.88 57.487 17.218 85.266 7.018-6.644-2.284-13.124-5.181-19.34-8.718z" fill="#cc8c60"/></g><path d="m300.703 290.79-2.025-1.02s-2.296 28.601-29.197 45.269c-2.207 1.367-2.633 4.397-.852 6.287l24.148 25.628c5.015 5.352 13.824 4.021 17.047-2.568 5.449-11.139 12.988-28.064 18.356-46.156.97-3.268.022-6.785-2.378-9.207-7.317-7.385-15.791-13.546-25.099-18.233z" fill="#deeeff"/><path d="m211.297 290.79 2.025-1.02s2.296 28.601 29.197 45.269c2.207 1.367 2.633 4.397.852 6.287l-24.148 25.628c-5.015 5.352-13.824 4.021-17.047-2.568-5.449-11.139-12.988-28.064-18.356-46.156-.97-3.268-.021-6.785 2.378-9.207 7.317-7.385 15.791-13.546 25.099-18.233z" fill="#deeeff"/><path d="m46.524 394.1c12.84-65.504 38.941-73.577 79.697-98.385 46-28-8.667-62.667-20-116.65-6.031-28.726-26.974-48.31-45.252-60.348-31.347 41.167-49.971 92.545-49.971 148.281 0 46.542 12.991 90.044 35.526 127.102z" fill="#73c3f9"/><path d="m465.476 394.1c-12.84-65.504-38.941-73.577-79.697-98.385-46-28 8.667-62.667 20-116.65 6.031-28.726 26.974-48.31 45.252-60.348 31.347 41.167 49.971 92.545 49.971 148.281 0 46.542-12.992 90.044-35.526 127.102z" fill="#73c3f9"/><path d="m395.888 468.129c0-11.863 0-27.493 0-41.247 0-16.099-11.441-25.739-20.422-30.827-4.725-2.676-10.578.771-10.578 6.202v84.25c10.811-5.376 21.167-11.526 31-18.378z" fill="#ffb332"/><path d="m224.668 318.349-.001-.007c-10.184-14.271-11.344-28.571-11.344-28.571l-2.025 1.02c-9.308 4.687-17.782 10.848-25.099 18.233-2.399 2.422-3.347 5.939-2.377 9.207 2.761 9.307 6.097 18.297 9.427 26.357 7.192-26.622 31.419-26.239 31.419-26.239z" fill="#d3dcfb"/></g></svg>