<svg id="Layer_1" enable-background="new 0 0 512 512" height="512" viewBox="0 0 512 512" width="512" xmlns="http://www.w3.org/2000/svg"><g><path d="m53.938 405.564h404.125c27.079-39.412 42.94-87.134 42.94-138.566 0-135.311-109.691-245.002-245.002-245.002s-245.002 109.691-245.002 245.002c-.001 51.432 15.859 99.154 42.939 138.566z" fill="#ffc839"/><path d="m385.543 350.6c.805-31.549-8.977-62.086-17.762-82.875-7.334-17.357-8.745-36.602-4.19-54.886 6.703-26.908 9.414-68.227-2.745-109.424-12.248-41.5-35.663-56.5-55.47-60.485-1.851-.373-3.513-1.352-4.9-2.633-5.361-4.954-21.339-16.881-50.918-16.881-33.717 0-120.039 26.124-105.442 164.512.908 8.607 1.439 17.25 1.441 25.905l.001 2.583c0 30-23 33-39 84-5.629 17.944-2.589 35.265 3.712 50.185h275.273z" fill="#56415e"/><path d="m367.781 267.725c-42.719 9.778-40.812-25.596-40.812-25.596l-16.732-109.182-140.763-68.64c-19.066 24.818-31.679 63.685-25.357 123.621.908 8.607 1.439 17.25 1.441 25.905l.001 2.583c0 30-23 33-39 84-5.629 17.944-2.589 35.265 3.712 50.185h275.273c.804-31.55-8.978-62.087-17.763-82.876z" fill="#45304c"/><path d="m333.172 306.397c-15.183-10.196-40.375-21.6-77.164-21.6-37.13 0-62.452 11.62-77.592 21.891v.474c2.615-1.054 5.643-1.014 8.331.353 12.632 6.424 38.646 17.371 69.261 17.371s56.615-10.931 69.238-17.347c2.551-1.296 5.407-1.392 7.926-.498z" fill="#bec8f7"/><path d="m256.007 325.316c21.223 0 40.238-5.188 54.23-10.556-7.765-6.198-12.774-13.265-12.774-21.197 0-5.763 0-4.036 0-7.767-10.046 8.982-27.275 20.424-41.463 20.768-14.189-.344-31.417-11.787-41.463-20.768v7.767c0 7.927-5.004 14.992-12.762 21.187 13.997 5.374 33.014 10.566 54.232 10.566z" fill="#fc9460"/><path d="m451.626 388.601c-15.237-30.473-41.979-38.982-54.163-41.322 0 0-25.086-4.578-50.129-13.604-.295.897-.726 1.758-1.323 2.542-9.862 12.941-38.376 43.042-90.004 43.042-27.622 0-48.623-8.62-63.698-18.618-21.301 4.616-71.183 19.195-71.183 54.532v56.383c38.682 25.56 85.038 40.444 134.874 40.444 83.879 0 157.9-42.16 202.062-106.436-1.839-6.318-3.969-12.029-6.436-16.963z" fill="#b26847"/><path d="m165.989 336.194c-.592-.777-1.022-1.632-1.316-2.522-25.045 9.028-50.136 13.606-50.136 13.606-12.185 2.34-38.926 10.849-54.163 41.322-2.467 4.933-4.597 10.644-6.436 16.963 18.682 27.19 42.708 50.422 70.562 68.179 0-14.837 0-36.212 0-59.345 0-34.696 50.187-48.507 69.667-52.561-14.147-8.982-23.378-19.342-28.178-25.642z" fill="#945230"/><path d="m118.922 450.246v19.846c39.122 26.456 86.295 41.908 137.078 41.908 52.576 0 101.278-16.567 141.186-44.756v-23.896h-271.366c-3.809 0-6.898 3.088-6.898 6.898z" fill="#945230"/><path d="m356.159 155.215c-4.529-4.427-14.598-2.731-19.809.743 5.744 18.796.757 50.357.757 50.357-.194.856-.397 1.685-.596 2.527 13.141.202 16.31-8.354 16.943-14.199.291-2.69.935-5.375 1.933-8.03 3.25-8.646 10.044-22.334.772-31.398z" fill="#ffaa7b"/><path d="m336.725 155.04c-2.917-10.375-1.25-7.333-12.917-19s-4.349-26.621-17.927-40.198c-5.063-5.063-9.737-6.502-13.052-6.721-3.818-.252-7.514-1.352-10.962-3.01-8.983-4.32-27.088-9-47.973 7.802-8.706 7.004-12.959 16.46-15.879 27.244l9.363 19.337s-22.288 109.342 58.037 158.424c11.954-7.941 21.866-18.361 29.111-30.759 10.01-17.13 17.823-37.889 23.228-61.742 1.895-12.043 3.887-36.274-1.029-51.377z" fill="#ffc7ab"/><path d="m270.013 307.284c6.096-2.638 11.818-5.833 17.122-9.524-80.233-47.29-58.197-155.317-58.197-155.317l-10.697-22.092c-7.16 25.673-6.222 59.125-40.083 84.906-1.483 1.129-2.158 3.031-1.725 4.844 5.351 22.279 12.856 41.807 22.351 58.058 10.164 17.395 25.557 30.924 44.514 39.125 8.489 3.672 18.225 3.673 26.715 0z" fill="#ffaa7b"/><path d="m276.188 377.009v84.712c0 7.644 6.254 13.898 13.898 13.898h25.48c7.644 0 13.898-6.254 13.898-13.898v-108.544c-12.186 9.933-29.747 20.011-53.276 23.832z" fill="#d3dcfb"/><path d="m329.464 388.091v-34.915c-12.186 9.933-29.747 20.011-53.276 23.832v84.712c0 7.644 6.254 13.898 13.898 13.898h17.856c-4.829-5.061-5.116-11.172-5.116-11.172s0-33 0-55c0-14.164 15.554-19.411 26.638-21.355z" fill="#bec8f7"/><path d="m347.809 325.775-9.341-15.49c-2.734-4.533-8.503-6.213-13.222-3.815-12.623 6.416-38.624 17.347-69.238 17.347-.294 0-.585-.008-.878-.01-5.236 4.396-31.113 28.698-.713 56.922.533.006 1.053.029 1.591.029 52.374 0 81.271-30.608 91.197-43.632 2.514-3.3 2.747-7.799.604-11.351z" fill="#deeeff"/><path d="m117 152.555c0-31.784-14.147-51.685-29.039-63.835-47.379 44.675-76.963 108.018-76.963 178.278 0 23.252 3.252 45.74 9.306 67.05 69.263 13.287 96.696-138.182 96.696-181.493z" fill="#ffdd40"/><path d="m395 152.555c0-31.784 14.147-51.685 29.039-63.835 47.379 44.675 76.963 108.018 76.963 178.278 0 23.252-3.252 45.74-9.306 67.05-69.263 13.287-96.696-138.182-96.696-181.493z" fill="#ffdd40"/><path d="m395 468.76c13.417-9.263 25.866-19.828 37.162-31.516-3.486-11.812-10.887-22.265-21.357-29.263-.508-.34-1.011-.666-1.509-.979-6.211-3.911-14.296.619-14.296 7.958z" fill="#945230"/><g><path d="m239.309 40.376c-.113.712-.229 1.414-.347 2.105-3.187 18.601 10.988 35.633 29.86 35.633h85.337c-3.942-7.521-9.077-14.505-15.222-20.777-5.347-5.457-9.817-11.634-13.803-18.084-12.228-19.79-32.136-33.983-55.367-38.054-9.727 6.517-27.536 20.747-30.458 39.177z" fill="#945230"/><path d="m352.813 75.647h-83.54c-17.663 0-30.931-15.941-27.948-33.351.111-.647.219-1.304.325-1.97 3.05-19.24 23.439-33.595 31.328-38.491-5.479-1.196-11.155-1.835-16.978-1.835-29.043 0-54.549 15.649-69.135 39.254-3.985 6.45-8.456 12.627-13.803 18.084-11.177 11.407-19.04 25.164-22.387 40.245h210.648c-1.709-7.704-4.603-15.06-8.51-21.936z" fill="#753616"/><path d="m362.893 95.47h-132.721c-4.345 4.379-21.036 23.779-2.091 46.974h134.812c6.311 0 11.474-5.164 11.474-11.475v-24.025c.001-6.311-5.163-11.474-11.474-11.474z" fill="#b26847"/><path d="m137.632 106.944v24.025c0 6.311 5.164 11.475 11.475 11.475h79.831c-22.054-25.812 2.204-46.974 2.204-46.974h-82.035c-6.311 0-11.475 5.163-11.475 11.474z" fill="#945230"/></g><path d="m256.008 323.817c-30.615 0-56.63-10.946-69.261-17.371-4.721-2.401-10.495-.719-13.228 3.818l-9.331 15.493c-2.139 3.552-1.905 8.047.608 11.346 9.925 13.026 38.832 43.655 91.212 43.655-34.993-30.69 0-56.941 0-56.941z" fill="#d3dcfb"/></g></svg>