<svg id="Layer_1" enable-background="new 0 0 512 512" height="512" viewBox="0 0 512 512" width="512" xmlns="http://www.w3.org/2000/svg"><g><path d="m430.938 438.504c43.332-44.193 70.064-104.724 70.064-171.506 0-135.31-109.691-245.002-245.002-245.002s-245.002 109.691-245.002 245.002c0 66.783 26.732 127.312 70.064 171.506z" fill="#88ce65"/><path d="m389.742 224.539c-2.57-4.041-6.279-6.917-10.442-8.479-5.43-2.037-9.768-6.154-12.097-11.457 6.408-10.136 10.127-22.14 10.114-35.02-.047-47.293-4.854-103.495-23.077-115.856-2.36-1.601-4.295-3.772-5.45-6.408-4.121-9.406-17.072-31.607-47.003-29.914-3.952.224-7.793-1.269-10.709-3.992-5.746-5.365-17.324-13.413-35.078-13.413s-29.332 8.048-35.077 13.413c-2.917 2.723-6.757 4.216-10.709 3.992-29.932-1.692-42.882 20.508-47.003 29.914-1.155 2.636-3.09 4.808-5.45 6.408-18.224 12.361-23.03 68.563-23.077 115.856-.013 12.88 3.707 24.883 10.114 35.02-2.328 5.303-6.666 9.42-12.096 11.457-4.163 1.562-7.872 4.438-10.443 8.479-6.346 9.974-3.309 23.132 6.562 29.359 1.297.819 2.161 2.174 2.367 3.694.808 5.99 4.151 11.596 9.65 15.095s11.993 4.151 17.762 2.346c1.464-.458 3.058-.25 4.348.578 9.828 6.307 23.034 3.472 29.375-6.495 2.57-4.041 3.604-8.619 3.255-13.051-.284-3.604.348-7.165 1.783-10.394v-139.95h118.139v142.26c.806 2.584 1.141 5.319.924 8.083-.349 4.432.685 9.011 3.256 13.051 6.342 9.967 19.546 12.801 29.375 6.495 1.291-.828 2.885-1.036 4.348-.578 5.768 1.805 12.263 1.153 17.762-2.346s8.841-9.105 9.65-15.095c.205-1.52 1.069-2.876 2.366-3.694 9.869-6.226 12.907-19.384 6.561-29.358z" fill="#56415e"/><path d="m380.814 257.593c-28.965 0-22.584-27.343-22.584-27.343l-42.73-4.2v21.932c.807 2.583 1.142 5.319.924 8.083-.349 4.432.685 9.01 3.256 13.051 6.342 9.967 19.546 12.801 29.375 6.495 1.291-.828 2.885-1.036 4.348-.578 5.768 1.805 12.263 1.153 17.761-2.346 5.498-3.498 8.841-9.105 9.65-15.094z" fill="#45304c"/><g><path d="m226.083 99.33c1.284-2.546 1.919-5.385 1.646-8.25-.972-10.224-.451-35.919 26.527-48.995 3.562-1.726 6.192-4.898 7.417-8.696 2.213-6.864 7.641-18.082 20.5-26.555-6.359-3.677-15.054-6.834-26.173-6.834-17.754 0-29.332 8.048-35.077 13.413-2.917 2.723-6.757 4.216-10.709 3.992-29.932-1.692-42.882 20.508-47.003 29.914-1.155 2.636-3.09 4.808-5.45 6.409-18.224 12.361-23.03 68.563-23.077 115.856-.013 12.88 3.706 24.883 10.114 35.02-2.328 5.303-6.666 9.419-12.096 11.456-4.163 1.562-7.872 4.438-10.443 8.479-6.346 9.974-3.309 23.132 6.562 29.359 1.297.819 2.161 2.174 2.367 3.694.808 5.99 4.151 11.596 9.649 15.095 5.499 3.499 11.993 4.151 17.762 2.346 1.464-.458 3.058-.25 4.348.578 9.828 6.307 23.034 3.473 29.375-6.495 2.57-4.041 3.604-8.619 3.255-13.051-.284-3.604.348-7.165 1.783-10.394v-139.95h26.772c.375-2.39 1.015-4.533 1.951-6.391z" fill="#45304c"/></g><ellipse cx="343.019" cy="216.535" fill="#ffc839" rx="32.936" ry="19.214" transform="matrix(.922 -.386 .386 .922 -57.026 149.353)"/><path d="m138.603 203.809c-4.1 9.788 6.176 23.42 22.954 30.448 16.777 7.028 33.702 4.791 37.802-4.996 4.1-9.788-6.176-23.42-22.954-30.448-16.777-7.029-33.702-4.792-37.802 4.996z" fill="#ffc839"/><path d="m363.974 140.319c-7.39-8.621-17.115-5.944-22.944-3.073-.625 7.62-1.815 15.946-3.809 24.934-1.185 5.342-1.64 10.852-1.3 16.348.345 5.558.441 13.68-.709 22.991 12.769 4.973 16.959-1.456 18.317-6.614 1.071-4.067 2.682-7.965 4.878-11.551 6.277-10.252 16.226-30.6 5.567-43.035z" fill="#cc8c60"/><path d="m176.31 178.527c.341-5.496-.114-11.006-1.3-16.348-1.984-8.941-3.171-17.225-3.799-24.813-5.799-2.914-15.691-5.791-23.185 2.952-10.659 12.436-.71 32.784 5.567 43.035 2.197 3.587 3.808 7.484 4.878 11.551 1.366 5.188 5.596 11.66 18.537 6.527-1.138-9.273-1.042-17.363-.698-22.904z" fill="#ba7d54"/><path d="m255.272 291.223c14.001 0 28.382-2.181 42.863-6.474-1.42-6.289-2.382-12.336-3.3-16.963-24.379 14.317-53.293 14.276-77.646-.122-.945 4.74-1.935 10.999-3.418 17.486 14.022 4.032 27.941 6.073 41.501 6.073z" fill="#ba7d54"/><path d="m422.749 372.629c-7.229-46.268-59.112-46.173-92.579-52.592-.565.723-1.218 1.394-1.969 1.984-20.707 16.267-45.244 24.515-72.928 24.515-7.523 0-14.804-.631-21.848-1.845.09.201.163.397.255.599-4.189.104-13.426.564-24.101 2.544-13.474 2.499-32.092 8.001-44.269 20.025-8.646 8.537-13.031 19.256-13.031 31.857v89.283c31.498 14.747 66.642 23.001 103.721 23.001 68.528 0 130.473-28.147 174.938-73.496-2.051-20.8-4.739-43.796-8.189-65.875z" fill="#ff7186"/><path d="m153.779 399.715c0-54 82.276-52.955 82.276-52.955-.299-.589-.582-1.174-.853-1.756-19.59-3.074-37.309-10.77-52.868-22.996-.663-.521-1.246-1.107-1.764-1.733-33.493 6.187-84.18 6.664-91.319 52.354-3.45 22.079-6.139 45.075-8.189 65.875 20.789 21.202 45.4 38.642 72.717 51.204 0-25.862 0-60.758 0-89.993z" fill="#ff4155"/><path d="m326.761 112.08c-3.993-1.407-7.511-4.082-9.909-7.699-2.03-3.062-5.943-4.285-9.373-2.969-9.216 3.536-19.773 1.717-27.285-4.793-2.736-2.371-6.71-2.802-9.675-.726-9.222 6.459-21.617 6.46-30.84.002-2.967-2.077-6.943-1.646-9.68.726-2.569 2.226-5.498 3.889-8.602 4.991-1.1 3.332-1.585 6.903-1.329 10.526.649 9.172 2.032 19.296 4.47 30.288 1.339 6.034 1.853 12.257 1.468 18.464-1.256 20.252.371 70.608 42.969 99.129 7.038 4.712 14.571 8.281 22.358 10.734 2.572-1.332 5.09-2.817 7.54-4.457 37.717-25.252 39.157-69.838 38.045-87.769-.341-5.496.114-11.006 1.299-16.348 2.091-9.424 3.305-18.126 3.901-26.039.794-10.519-5.407-20.556-15.357-24.06z" fill="#dba783"/><path d="m269.771 257.812c-41.266-27.628-42.841-76.409-41.625-96.027.373-6.013-.125-12.041-1.422-17.886-2.363-10.649-3.702-20.456-4.331-29.341-.376-5.307.862-10.511 3.376-14.948-6.96 3.985-15.457 4.713-23.048 1.803-3.493-1.339-7.381.013-9.473 3.113-2.237 3.314-5.423 5.835-9.066 7.282-9.407 3.737-15.024 13.458-14.309 23.554.574 8.121 1.799 17.085 3.958 26.817 1.186 5.342 1.64 10.852 1.299 16.348-1.112 17.931.328 62.517 38.045 87.769 24.555 16.44 55.874 17.365 81.196 2.789-8.587-2.368-16.899-6.117-24.6-11.273z" fill="#cc8c60"/><path d="m332.689 306.837-10.862-20.222c-3.032-5.646-9.722-8.279-15.765-6.147-13.704 4.834-31.34 9.122-50.789 9.122-2.412 0-4.795-.067-7.147-.191-6.195 4.893-28.481 25.289-14.445 55.892-1.19.03-2.798.09-4.72.204 8.035 1.692 16.797 2.675 26.312 2.675 33.735 0 58.001-12.344 73.937-24.864 5.002-3.931 6.489-10.864 3.479-16.469z" fill="#f9a0b1"/><path d="m188.708 286.603-10.861 20.222c-3.01 5.604-1.524 12.537 3.478 16.468 12.733 10.005 30.787 19.892 54.73 23.468-18.057-35.621 14.432-57.259 14.432-57.259l-.004-.009c-17.548-.628-33.432-4.597-46.007-9.036-6.043-2.134-12.735.5-15.768 6.146z" fill="#ff7186"/><path d="m103.301 276.617c-8.217-24.822-18.688-47.569-1.355-97.552 10.766-31.045-6.501-63.318-21.131-83.319-43.186 44.171-69.816 104.598-69.816 171.252 0 46.865 13.179 90.642 36.007 127.864 5.637-82.162 71.432-72.516 56.295-118.245z" fill="#b4d667"/><path d="m408.7 276.617c8.217-24.822 18.688-47.569 1.355-97.552-10.766-31.045 6.501-63.318 21.131-83.319 43.186 44.171 69.816 104.598 69.816 171.252 0 46.865-13.179 90.642-36.007 127.864-5.638-82.162-71.433-72.516-56.295-118.245z" fill="#b4d667"/><path d="m395.888 468.129c0-11.863 0-27.493 0-41.247 0-16.099-11.441-25.739-20.422-30.827-4.725-2.676-10.578.771-10.578 6.202v84.25c10.811-5.376 21.167-11.526 31-18.378z" fill="#ff4155"/><g fill="#ffdd40"><circle cx="356.83" cy="211.983" r="8.674"/><circle cx="157.115" cy="213.983" r="8.674"/></g></g></svg>