<svg id="Layer_1" enable-background="new 0 0 512 512" height="512" viewBox="0 0 512 512" width="512" xmlns="http://www.w3.org/2000/svg"><g><path d="m45.198 391.892h421.604c21.716-36.574 34.2-79.273 34.2-124.894 0-135.311-109.691-245.002-245.002-245.002s-245.002 109.691-245.002 245.002c0 45.621 12.484 88.32 34.2 124.894z" fill="#ff9100"/><path d="m363.929 77.947c-24.86-78.981-107.929-77.946-107.929-77.946s-83.069-1.034-107.929 77.947c-18.645 59.236-15.056 119.181-23.044 166.368-4.925 29.093 15.338 56.535 44.545 60.732 20.816 2.991 48.844 5.135 86.428 5.135s65.612-2.144 86.428-5.135c29.207-4.197 49.47-31.638 44.545-60.732-7.988-47.187-4.399-107.133-23.044-166.369z" fill="#945230"/><path d="m256 .001s-83.069-1.034-107.929 77.947c-18.645 59.236-15.056 119.181-23.044 166.368-4.925 29.093 15.338 56.535 44.545 60.732 20.816 2.991 48.844 5.135 86.428 5.135s65.612-2.144 86.428-5.135c29.207-4.197 49.47-31.638 44.545-60.732-45.694 21.368-58.716-24.204-58.716-24.204s-45.59-69.164-86.33-124.798c-40.739-55.634 14.073-95.313 14.073-95.313z" fill="#753616"/><path d="m172.479 181.325s-5.177-32.765.786-52.278c-5.41-3.607-15.864-5.367-20.565-.771-9.625 9.41-2.573 23.62.802 32.596 1.036 2.756 1.705 5.544 2.007 8.336.657 6.068 3.947 14.95 17.589 14.74-.207-.874-.418-1.734-.619-2.623z" fill="#f9c98a"/><path d="m359.3 128.276c-4.701-4.596-15.155-2.836-20.565.771 5.963 19.513.786 52.278.786 52.278-.202.889-.413 1.749-.619 2.624 13.642.209 16.932-8.672 17.589-14.74.302-2.793.971-5.58 2.007-8.336 3.375-8.977 10.428-23.187.802-32.597z" fill="#ffd9a1"/><path d="m231.819 335.308c4.339 2.873 5.336 9.209 1.249 13.396-.282.439-2.235 1.873-.822 3.212 39.246 37.203 8.201 36.798 48.247-.699 1.829-1.712-1.425-2.622-2.481-6.431-1.636-5.932 3.456-9.381 3.543-9.485 15.133-10.017 25.426-24.035 31.436-40.853-8.451-6.562-13.946-14.079-13.946-22.545 0-5.982 0-4.19 0-8.063-10.43 9.324-28.315 21.204-43.045 21.56-14.73-.357-32.616-12.236-43.045-21.56v8.063c0 8.102-5.031 15.339-12.872 21.699 5.823 17.279 16.751 31.788 31.736 41.706z" fill="#ffd9a1"/><path d="m253.136 285.192c-14.125-1.661-30.418-12.625-40.18-21.352v8.063c0 8.102-5.031 15.339-12.872 21.699 5.756 17.079 16.506 31.443 31.224 41.352.459-.294.917-.603 1.372-.943 16.657-12.445 19.982-35.725 20.456-48.819z" fill="#f9c98a"/><path d="m268.087 414.156c0-27.932-24.352-53.831-36.658-65.136l-24.217 27.738c-5.298 6.102-15.024 5.014-18.85-2.11-3.602-6.706-7.941-15.214-12.319-24.811l15.463 153.567c20.552 5.593 42.171 8.596 64.494 8.596 4.053 0 8.082-.104 12.087-.299 0-32.679 0-75.946 0-97.545z" fill="#6faf46"/><path d="m232.679 334.01c-4.193-2.776-7.875-5.793-11.11-8.929-3.231-.344-9.641-.597-16.807 1.481-9.065 2.628-20.965 9.624-26.916 27.926 3.74 7.97 7.386 15.083 10.508 20.896 4.335 8.069 15.39 9.312 21.395 2.397l24.958-28.586c4.047-4.635 3.103-11.788-2.028-15.185z" fill="#88ce65"/><path d="m201.482 292.881c-1.901-5.695-8.671-7.97-13.671-4.647-5.93 3.94-11.491 8.402-16.627 13.323.001.022.004.042.004.064l4.954 49.194c.887 1.94 1.771 3.822 2.649 5.668 10.791-36.456 44.686-29.617 44.686-29.617-12.609-11.415-18.921-24.778-21.995-33.985z" fill="#6faf46"/><path d="m335.956 349.837c-4.378 9.597-8.716 18.104-12.319 24.811-3.826 7.124-13.552 8.212-18.85 2.11l-24.217-27.738c-12.306 11.305-36.658 37.204-36.658 65.136v97.545c4.006.194 8.035.299 12.088.299 22.323 0 43.942-3.003 64.494-8.596z" fill="#88ce65"/><path d="m325.009 375.385c3.112-5.793 6.744-12.879 10.471-20.815l5.332-52.949c0-.413.07-.803.187-1.169-4.807-4.483-9.967-8.576-15.447-12.217-5-3.323-11.77-1.048-13.671 4.646-3.745 11.219-12.294 28.616-31.196 41.13-5.131 3.397-6.076 10.549-2.028 15.185l24.958 28.586c6.004 6.915 17.06 5.671 21.394-2.397z" fill="#b4d667"/><path d="m339.248 128.718-8.234-27.576c-1.598-5.353-6.742-8.821-12.308-8.34-19.798 1.711-40.86 2.64-62.706 2.66-5.871-.005-11.68-.081-17.429-.215-.775 1.069-1.388 2.275-1.784 3.6l-8.445 28.282c-5.01 16.264-3.023 42.064-.934 54.107 5.788 25.347 14.171 47.449 24.915 65.693 7.613 12.928 17.977 23.832 30.452 32.219 13.692-8.429 24.984-19.853 33.09-33.617 10.475-17.789 18.65-39.339 24.293-64.054 2.037-11.745 3.975-36.901-.91-52.759z" fill="#fce6ca"/><g><path d="m253.126 245.529c-10.475-17.789-18.65-39.339-24.293-64.054-2.037-11.742-3.974-36.899.91-52.757l8.234-27.576c.709-2.374 2.118-4.375 3.95-5.828-16.83-.319-33.123-1.172-48.633-2.512-5.566-.481-10.71 2.987-12.308 8.34l-8.234 27.576c-4.885 15.858-2.947 41.015-.91 52.757 5.643 24.715 13.818 46.265 24.293 64.054 10.635 18.058 26.74 32.103 46.574 40.618 4.229 1.815 8.753 2.755 13.291 2.842 4.538-.087 9.062-1.027 13.291-2.842 5.355-2.299 10.427-5.014 15.204-8.089-12.916-8.316-23.606-19.347-31.369-32.529z" fill="#ffd9a1"/></g><path d="m144.03 366.389c-22.808 11.984-34.863 30.159-34.863 52.559v44.166c15.036 11.275 31.406 20.867 48.84 28.484l-12.675-125.879c-.434.219-.868.442-1.302.67z" fill="#6c5475"/><path d="m139.833 311.103c-6.446 3.261-12.461 6.454-17.421 9.152-7.295 3.967-14.911 7.312-22.806 9.882-14.074 4.582-34.144 15.328-46.695 40.429-3.036 6.072-5.584 13.272-7.712 21.326 16.79 28.279 39.113 52.878 65.469 72.331 0-12.512 0-27.712 0-45.276 0-27.066 17.545-42.743 34.827-51.624z" fill="#56415e"/><path d="m177.63 355.144c-3.877.623-18.628 3.379-33.6 11.245-.36.189-.709.384-1.064.576l12.435 123.492c12.243 5.521 25.025 10.056 38.24 13.524l-15.222-151.172c-.272.76-.538 1.533-.789 2.335z" fill="#876d93"/><path d="m173.265 301.621c0-2.709-2.737-4.556-5.25-3.541-9.928 4.008-20.842 9.261-30.552 14.229l5.666 56.269c17.547-9.664 35.66-12.091 35.661-12.091z" fill="#6c5475"/><path d="m466.802 391.892c-2.128-8.055-4.676-15.254-7.712-21.326-12.551-25.101-32.621-35.847-46.695-40.429-7.896-2.571-15.511-5.916-22.806-9.882-4.735-2.575-10.431-5.601-16.546-8.708l-18.087 179.629c46.811-20.694 85.917-55.614 111.846-99.284z" fill="#6c5475"/><path d="m338.735 301.621-20.376 202.36c13.215-3.468 25.996-8.003 38.24-13.524l17.939-178.149c-9.711-4.968-20.625-10.221-30.552-14.229-2.513-1.014-5.251.833-5.251 3.542z" fill="#876d93"/><path d="m425.894 90.485c-12.001 12.88-21.5 30.765-18.748 54.232 6.594 56.23 1.826 128.075 48.145 160.819 17.283 12.218 27.783 24.888 34.159 35.973 7.498-23.496 11.553-48.528 11.553-74.511-.001-69.339-28.814-131.942-75.109-176.513z" fill="#ffb332"/><path d="m86.106 90.485c12.001 12.88 21.501 30.765 18.748 54.232-6.594 56.23-1.826 128.075-48.145 160.819-17.283 12.218-27.783 24.888-34.159 35.973-7.498-23.496-11.553-48.528-11.553-74.511.001-69.339 28.813-131.942 75.109-176.513z" fill="#ffb332"/><path d="m437.608 431.418c-4.848-20.04-17.209-31.614-27.207-37.935-6.251-3.952-14.401.496-14.401 7.892v66.688c15.223-10.62 29.18-22.927 41.608-36.645z" fill="#56415e"/></g></svg>