<svg id="Layer_1" enable-background="new 0 0 512 512" height="512" viewBox="0 0 512 512" width="512" xmlns="http://www.w3.org/2000/svg"><g><path d="m468.415 389.164c20.727-35.961 32.587-77.678 32.587-122.166 0-135.311-109.691-245.002-245.002-245.002s-245.002 109.691-245.002 245.002c0 44.488 11.86 86.205 32.587 122.166z" fill="#7e6dd1"/><path d="m333.734 322.239c-3.969-1.158-7.996-2.212-12.091-3.157-10.152-10.152-12.726-29.399-13.189-42.865-5.298 6.171-10.858 11.333-16.171 15.458-10.352 8.039-23.125 12.405-36.281 12.405s-25.93-4.366-36.281-12.405c-5.313-4.126-10.874-9.288-16.172-15.458-.464 13.466-3.037 32.713-13.19 42.865-4.214.972-8.354 2.059-12.434 3.257 11.492 29.025 36.289 76.77 77.888 87.276-.002-.001 56.09-27.22 77.921-87.376z" fill="#ffaa7b"/><path d="m219.719 291.674c-5.313-4.126-10.874-9.288-16.172-15.458-.464 13.466-3.037 32.713-13.19 42.865-.646.149-1.285.31-1.927.464.204 25.649 5.161 51.754 25.771 43.98 38.152-14.39 41.799-59.446 41.799-59.446-13.156 0-25.93-4.366-36.281-12.405z" fill="#fc9460"/><path d="m355.256 160.945c-4.103-3.76-13.276-1.854-16.81.448.774 4.821.818 9.753.149 14.623l-4.17 30.372c0 2.448-.077 4.85-.219 7.211 10.169 3.067 16.22-6.062 17.071-12.327.366-2.697.965-5.355 1.796-7.949 2.705-8.447 12.464-22.957 2.183-32.378z" fill="#ffaa7b"/><path d="m156.744 160.945c4.103-3.76 13.276-1.854 16.81.448-.774 4.821-.818 9.753-.149 14.623l4.17 30.372c0 2.448.077 4.85.219 7.211-10.169 3.067-16.22-6.062-17.071-12.327-.366-2.697-.965-5.355-1.796-7.949-2.705-8.447-12.463-22.957-2.183-32.378z" fill="#fc9460"/><path d="m343.885 369.309c-13.616 12.583-28.181 20.062-37.546 23.998-5.661 2.379-11.695 3.585-17.935 3.585h-17.684l-4.325 1.5c-7.442 0-13.348 0-20.79 0l-4.325-1.5h-17.684c-6.24 0-12.274-1.206-17.936-3.585-4.483-1.884-10.164-4.592-16.355-8.272-.005.561-.012 1.122.016 1.701-2.628 1.175-9.966 4.724-17.394 10.754-12.147 9.863-18.568 21.664-18.568 34.125v35.061h244.607c4.955-3.53 9.782-7.228 14.454-11.108-1.952-36.313-45.12-70.375-68.535-86.259z" fill="#ff7186"/><path d="m154.859 431.614c0-29.333 36.027-43.919 36.027-43.919-.05-.61-.071-1.197-.084-1.777-7.119-4.108-15.014-9.531-22.618-16.547-23.387 15.856-66.627 49.944-68.511 86.273 4.643 3.852 9.438 7.525 14.361 11.031h40.826c-.001-11.512-.001-24.121-.001-35.061z" fill="#ff4155"/><path d="m153.358 464.675v24.828c31.221 14.432 65.986 22.497 102.642 22.497 54.149 0 104.185-17.58 144.74-47.325z" fill="#ff4155"/><path d="m154.859 464.675h-43.599c13.541 9.932 28.144 18.498 43.599 25.516 0-6.787 0-15.824 0-25.516z" fill="#e80054"/><path d="m432.026 358.81-67.829-24.496c1.248 2.519 2.099 6.246-.318 10.351-6.324 10.743-14.078 19.469-22.049 26.497 22.402 14.932 67.78 49.715 67.78 86.496v.193c23.589-19.01 43.59-42.292 58.804-68.688-8.099-14.096-21.049-24.813-36.388-30.353z" fill="#d3dcfb"/><path d="m148.12 344.665c-2.416-4.105-1.566-7.832-.318-10.351l-67.828 24.496c-15.339 5.54-28.289 16.257-36.389 30.354 15.214 26.396 35.215 49.677 58.804 68.688 0-.064 0-.13 0-.193 0-36.782 45.378-71.565 67.78-86.496-7.971-7.029-15.725-15.755-22.049-26.498z" fill="#bec8f7"/><path d="m212.701 361.009v1.147c-3.492.413-12.519 2.095-18.331 8.705-3.662 4.164-5.358 9.5-5.05 15.875-.016.007-.038.017-.054.025 5.973 3.498 11.446 6.094 15.813 7.929 5.861 2.464 12.159 3.703 18.517 3.703h22.01c-14.822-11.278-25.375-24.463-32.905-37.384z" fill="#deeeff"/><path d="m214.201 363.525c-12.671-20.689-17.395-41.061-19.126-52.239-.678-4.376-5.306-6.933-9.384-5.206l-9.317 3.945c-10.49 4.442-19.818 11.237-27.262 19.861.046-.1-7.292 7.032-2.284 15.539 12.262 20.832 29.801 34.181 44.058 42.269-1.889-23.001 23.313-24.168 23.315-24.169z" fill="#d3dcfb"/><path d="m316.924 311.287c-2.744 17.718-12.985 58.539-50.53 87.106h22.01c6.358 0 12.656-1.239 18.517-3.703 14.564-6.122 41.396-20.628 58.251-49.263 5.008-8.507-2.33-15.639-2.284-15.539-7.444-8.623-16.772-15.419-27.262-19.861l-9.317-3.945c-4.078-1.728-8.707.828-9.385 5.205z" fill="#deeeff"/><path d="m336.748 152.01c-.938-2.449-2.122-4.929-3.612-7.268-2.525-3.962-3.636-8.648-3.297-13.32.973-13.439.451-39.721-17.19-47.659-14.987-6.744-33.372-2.839-45.096 1.059-7.614 2.532-15.866 2.532-23.48 0-.989-.329-2.029-.657-3.106-.98-14.068 10.079-14.419 33.839-13.496 46.408.348 4.732-.817 9.466-3.375 13.479-1.474 2.313-2.653 4.76-3.596 7.183-3.059 7.859-3.951 16.383-2.805 24.729l4.257 31.006c0 44.576 23.795 74.874 44.036 90.592 3.305 2.566 6.863 4.741 10.589 6.551 5.548-2.073 10.788-4.97 15.519-8.643 19.831-15.4 43.145-45.085 43.145-88.759l4.17-30.372c1.108-8.097.265-16.366-2.663-24.006z" fill="#ffc7ab"/><g><path d="m266.252 295.147c-19.831-15.4-43.144-45.085-43.144-88.759l-4.171-30.379c-1.123-8.177-.249-16.529 2.749-24.229.924-2.374 2.079-4.772 3.523-7.038 2.506-3.932 3.647-8.569 3.307-13.206-.948-12.904-.536-37.859 15.285-46.803-11.735-3.869-29.951-7.664-44.825-.971-17.692 7.96-18.166 34.371-17.181 47.774.34 4.637-.801 9.274-3.307 13.206-1.444 2.266-2.6 4.664-3.524 7.038-2.997 7.7-3.871 16.052-2.748 24.229l4.171 30.379c0 43.674 23.314 73.359 43.144 88.759 10.351 8.038 23.125 12.404 36.281 12.404 8.091 0 16.034-1.657 23.361-4.798-4.588-1.967-8.936-4.511-12.921-7.606z" fill="#ffaa7b"/></g><path d="m403.38 71.276c-10.032 16.683-19.735 42.759-10.188 73.441 16.667 53.563-61.155 131.937-3.911 147.084 42.804 11.326 79.851 22.532 98.965 53.4 8.268-24.559 12.755-50.856 12.755-78.203.001-79.983-38.332-151.006-97.621-195.722z" fill="#9589e8"/><path d="m108.62 71.276c10.032 16.683 19.735 42.759 10.188 73.441-16.667 53.563 61.155 131.937 3.911 147.084-42.804 11.326-79.851 22.532-98.965 53.4-8.268-24.559-12.755-50.856-12.755-78.203-.001-79.983 38.332-151.006 97.621-195.722z" fill="#9589e8"/><path d="m420.927 407.037c-.508-.34-1.011-.666-1.509-.979-6.211-3.911-14.296.619-14.296 7.958v22.922c2.831 6.751 4.488 13.698 4.488 20.719v.193c10.801-8.704 20.839-18.314 30.02-28.698-4.025-8.845-10.4-16.566-18.703-22.115z" fill="#bec8f7"/><g><path d="m242.292 16.273h.957 24.955.957c.174 0 .346.006.52.007.108-.704.165-1.426.165-2.161 0-7.798-6.322-14.119-14.119-14.119-7.798 0-14.119 6.321-14.119 14.119 0 .735.056 1.456.164 2.161.173-.002.346-.007.52-.007z" fill="#d3dcfb"/><path d="m193.348 58.615c11.155-26.127 29.685-42.092 49.901-43.177-.361 0-.682 0-.957 0-27.657 0-53.474 13.908-68.638 37.037-6.9 10.525-18.303 27.94-18.303 66.731v17.282l.722.414c2.376-1.351 10.561-5.772 23.552-10.398 1.404-39.19 8.656-56.022 13.723-67.889z" fill="#e80054"/><path d="m337.799 52.476c-15.164-23.129-40.981-37.037-68.638-37.037-.304 0-.627 0-.957 0 20.216 1.085 38.746 17.049 49.901 43.177 5.067 11.868 12.319 28.7 13.722 67.889 12.992 4.626 21.177 9.047 23.552 10.398l.722-.414v-17.282c.001-38.791-11.402-56.206-18.302-66.731z" fill="#ff4155"/><path d="m255.727 113.688c32.718 0 59.05 6.7 76.521 12.965-1.427-40.024-8.996-57.045-13.759-68.202-10.339-24.215-27.154-39.822-45.668-42.922-1.216-.054-2.435-.091-3.66-.091-7.281 0-22.58 0-26.87 0-1.224 0-2.443.037-3.66.091-18.514 3.1-35.329 18.707-45.668 42.922-4.764 11.157-12.333 28.178-13.76 68.202 17.473-6.265 43.806-12.965 76.524-12.965z" fill="#ff7186"/><path d="m238.632 15.53c-18.514 3.1-35.329 18.707-45.668 42.921-4.764 11.157-12.333 28.179-13.76 68.202 11.564-4.146 27.03-8.472 45.64-10.931.463-.611.746-.944.746-.944-14.108-63.103 30.136-99.34 30.136-99.34-5.687 0-11.138 0-13.435 0-1.224 0-2.443.038-3.659.092z" fill="#ff4155"/><path d="m255.727 112.854c-12.129 0-23.375.923-33.623 2.401-4.769 5.929-11.612 18.912-1.383 37.207 19.646-6.128 35.006-5.686 35.006-5.686s40.447-1.171 74.029 26.477c8.182 6.736 20.612 2.756 23.143-7.535 1.833-7.454 3.203-17.086 3.203-29.229 0-.001-38.927-23.635-100.375-23.635z" fill="#deeeff"/><path d="m158.554 165.718c2.531 10.292 14.961 14.271 23.143 7.535 13.218-10.883 27.499-17.298 39.959-21.08-13.958-23.458 3.934-37.394 3.934-37.394-43.756 5.634-70.239 21.709-70.239 21.709 0 12.144 1.37 21.776 3.203 29.23z" fill="#bec8f7"/></g></g></svg>