<svg height="512pt" viewBox="0 0 512 512" width="512pt" xmlns="http://www.w3.org/2000/svg"><path d="m512 256c0 141.386719-114.613281 256-256 256s-256-114.613281-256-256 114.613281-256 256-256 256 114.613281 256 256zm0 0" fill="#1ea1e3"/><path d="m263.675781 511.875c137.832031-4.058594 248.324219-117.058594 248.324219-255.875 0-.664062-.019531-1.324219-.023438-1.988281l-122.636718-122.636719-9.179688 6.339844-41.761718-41.757813-15.953126 27.449219-48.128906-48.128906.171875 80.21875-65.664062-65.664063 36.230469 124.417969-178.152344 100.855469zm0 0" fill="#0053bf"/><g fill="#ffdf57"><path d="m260.316406 75.277344h14v51.148437h-14zm0 0"/><path d="m196.230469 95.945312 12.585937-6.125 20.460938 42.054688-12.585938 6.125zm0 0"/><path d="m145.292969 131.375 9.898437-9.898438 32.394532 32.390626-9.902344 9.902343zm0 0"/><path d="m113.601562 186.070312 7.363282-11.90625 31.828125 19.683594-7.363281 11.90625zm0 0"/><path d="m305.355469 131.898438 20.460937-42.054688 12.585938 6.125-20.460938 42.054688zm0 0"/><path d="m347.042969 153.871094 32.394531-32.394532 9.898438 9.898438-32.394532 32.394531zm0 0"/></g><path d="m260.316406 385.574219h14v51.148437h-14zm0 0" fill="#ffce00"/><path d="m196.226562 416.058594 20.460938-42.054688 12.589844 6.125-20.460938 42.054688zm0 0" fill="#ffce00"/><path d="m145.289062 380.625 32.394532-32.394531 9.898437 9.898437-32.394531 32.394532zm0 0" fill="#ffce00"/><path d="m113.582031 325.933594 31.824219-19.679688 7.363281 11.90625-31.824219 19.679688zm0 0" fill="#ffce00"/><path d="m305.355469 380.085938 12.585937-6.125 20.460938 42.054687-12.585938 6.125zm0 0" fill="#ffce00"/><path d="m347.039062 358.132812 9.902344-9.898437 32.390625 32.390625-9.898437 9.902344zm0 0" fill="#ffce00"/><path d="m153.285156 268.195312-86.382812 46.910157v-118.210938l86.382812 46.910157zm0 0" fill="#ffeea6"/><path d="m66.902344 255.90625v59.199219l86.382812-46.910157v-12.289062zm0 0" fill="#f9e48c"/><path d="m446.167969 218.972656c-3.183594 9.519532-14.566407 15.269532-25.425781 12.851563-10.859376-2.421875-28.039063-14.542969-24.855469-24.0625 3.179687-9.515625 25.515625-12.828125 36.375-10.40625 10.863281 2.421875 17.089843 12.097656 13.90625 21.617187zm0 0" fill="#ff9500"/><path d="m443.507812 190.160156c4.554688 8.839844-.148437 19.472656-10.507812 23.75-10.359375 4.273438-32.894531 4.882813-37.453125-3.960937-4.558594-8.839844 10.589844-23.785157 20.949219-28.058594 10.359375-4.277344 22.453125-.574219 27.011718 8.269531zm0 0" fill="#ffa300"/><path d="m420.378906 262.820312c0 84.535157-68.527344 153.0625-153.0625 153.0625s-153.0625-68.527343-153.0625-153.0625c0-84.535156 68.527344-153.0625 153.0625-153.0625s153.0625 68.527344 153.0625 153.0625zm0 0" fill="#ffce00"/><path d="m114.417969 255.90625c-.101563 2.292969-.164063 4.597656-.164063 6.914062 0 84.535157 68.527344 153.0625 153.0625 153.0625s153.0625-68.527343 153.0625-153.0625c0-2.316406-.0625-4.621093-.164062-6.914062zm0 0" fill="#ffa300"/><path d="m185.714844 392.328125c23.621094 14.914063 51.597656 23.554687 81.601562 23.554687 81.203125 0 147.621094-63.238281 152.734375-143.148437-23.621093-14.914063-51.601562-23.554687-81.605469-23.554687-81.199218 0-147.621093 63.234374-152.730468 143.148437zm0 0" fill="#ffeea6"/><path d="m293.472656 255.90625c-59.550781 18.28125-103.632812 71.914062-107.757812 136.421875 23.621094 14.914063 51.601562 23.554687 81.601562 23.554687 81.203125 0 147.625-63.238281 152.734375-143.148437-11.308593-7.140625-23.628906-12.824219-36.679687-16.828125zm0 0" fill="#f9e48c"/><path d="m377 186.722656c0 7.21875-5.851562 13.070313-13.070312 13.070313s-13.070313-5.851563-13.070313-13.070313 5.851563-13.070312 13.070313-13.070312 13.070312 5.851562 13.070312 13.070312zm0 0" fill="#ff9700"/><path d="m292.019531 238.757812-63.042969 34.234376v-86.269532l63.042969 34.234375zm0 0" fill="#ffeea6"/><path d="m260.441406 255.90625h-31.464844v17.085938zm0 0" fill="#f9e48c"/></svg>