<svg height="512pt" viewBox="0 0 512 512" width="512pt" xmlns="http://www.w3.org/2000/svg"><path d="m512 256c0 141.386719-114.613281 256-256 256s-256-114.613281-256-256 114.613281-256 256-256 256 114.613281 256 256zm0 0" fill="#0053bf"/><path d="m512 256c0-9.773438-.566406-19.414062-1.632812-28.902344l-109.929688-109.929687-89.152344 249.832031 95.722656 95.71875c63.644532-46.570312 104.992188-121.8125 104.992188-206.71875zm0 0" fill="#27488f"/><path d="m403.238281 242.535156c-9.371093-64.117187-72.464843-112.199218-147.238281-112.199218s-137.867188 48.082031-147.238281 112.203124l-29.078125 199.058594c45.910156 43.625 107.984375 70.402344 176.316406 70.402344s130.40625-26.777344 176.316406-70.402344zm0 0" fill="#fe6a16"/><path d="m432.316406 441.597656-29.082031-199.0625c-9.367187-64.117187-72.460937-112.199218-147.234375-112.199218-.09375 0-.191406.003906-.285156.003906v381.65625c.09375 0 .1875.003906.285156.003906 68.332031 0 130.40625-26.777344 176.316406-70.402344zm0 0" fill="#f24500"/><path d="m190.6875 149.519531c0 25.503907-20.675781 46.179688-46.179688 46.179688-25.503906 0-46.179687-20.675781-46.179687-46.179688 0-25.503906 20.675781-46.179687 46.179687-46.179687 25.503907 0 46.179688 20.675781 46.179688 46.179687zm0 0" fill="#ff9500"/><path d="m168.59375 149.519531c0 13.300781-10.785156 24.085938-24.085938 24.085938-13.300781 0-24.085937-10.785157-24.085937-24.085938s10.785156-24.085937 24.085937-24.085937c13.300782 0 24.085938 10.785156 24.085938 24.085937zm0 0" fill="#ffb13b"/><path d="m413.671875 149.519531c0 25.503907-20.675781 46.179688-46.179687 46.179688-25.503907 0-46.179688-20.675781-46.179688-46.179688 0-25.503906 20.675781-46.179687 46.179688-46.179687 25.503906 0 46.179687 20.675781 46.179687 46.179687zm0 0" fill="#fe8205"/><path d="m391.578125 149.519531c0 13.300781-10.785156 24.085938-24.085937 24.085938-13.300782 0-24.085938-10.785157-24.085938-24.085938s10.785156-24.085937 24.085938-24.085937c13.300781 0 24.085937 10.785156 24.085937 24.085937zm0 0" fill="#ffa426"/><path d="m407.019531 256.328125c0 84.496094-68.496093 152.992187-152.992187 152.992187s-152.992188-68.496093-152.992188-152.992187c0-84.492187 68.496094-152.988281 152.992188-152.988281s152.992187 68.496094 152.992187 152.988281zm0 0" fill="#fe8205"/><path d="m407.019531 256.328125c0-83.929687-67.589843-152.0625-151.304687-152.96875v305.941406c83.714844-.90625 151.304687-69.039062 151.304687-152.972656zm0 0" fill="#fa5d0f"/><path d="m320.1875 295.492188c0 35.453124-28.738281 64.191406-64.1875 64.191406s-64.1875-28.738282-64.1875-64.191406c0-35.449219 28.738281-64.1875 64.1875-64.1875s64.1875 28.738281 64.1875 64.1875zm0 0" fill="#fff"/><path d="m256 231.304688c-.097656 0-.191406.007812-.285156.007812v128.363281c.09375 0 .1875.007813.285156.007813 35.449219 0 64.1875-28.738282 64.1875-64.191406 0-35.449219-28.738281-64.1875-64.1875-64.1875zm0 0" fill="#f2f6fc"/><path d="m271.929688 268.179688-10.289063 3.957031c-3.632813 1.394531-7.652344 1.394531-11.28125 0l-10.289063-3.957031c-6.066406-2.335938-10.070312-8.164063-10.070312-14.664063 0-8.675781 7.03125-15.710937 15.710938-15.710937h20.578124c8.675782 0 15.710938 7.035156 15.710938 15.710937 0 6.5-4.003906 12.328125-10.070312 14.664063zm0 0" fill="#555a66"/><path d="m266.289062 237.804688h-10.574218v35.367187c2.007812.035156 4.019531-.304687 5.925781-1.035156l10.289063-3.957031c6.066406-2.335938 10.070312-8.164063 10.070312-14.664063 0-8.675781-7.035156-15.710937-15.710938-15.710937zm0 0" fill="#333940"/><path d="m187.164062 210.304688c0 8.066406-6.539062 14.605468-14.605468 14.605468s-14.605469-6.539062-14.605469-14.605468c0-8.066407 6.539063-14.605469 14.605469-14.605469s14.605468 6.539062 14.605468 14.605469zm0 0" fill="#555a66"/><path d="m354.046875 210.304688c0 8.066406-6.539063 14.605468-14.605469 14.605468s-14.605468-6.539062-14.605468-14.605468c0-8.066407 6.539062-14.605469 14.605468-14.605469s14.605469 6.539062 14.605469 14.605469zm0 0" fill="#333940"/></svg>