<svg height="512pt" viewBox="0 0 512 512.001" width="512pt" xmlns="http://www.w3.org/2000/svg"><path d="m512 256c0 141.386719-114.613281 256-256 256-141.382812 0-256-114.613281-256-256s114.617188-256 256-256c141.386719 0 256 114.613281 256 256zm0 0" fill="#ffce00"/><path d="m498.078125 172.554688-83.304687-83.304688-184.652344 95.785156-121.660156-40.804687 309.789062 309.789062c57.230469-46.949219 93.75-118.21875 93.75-198.019531 0-29.21875-4.90625-57.289062-13.921875-83.445312zm0 0" fill="#ffa300"/><path d="m200.453125 185.035156-73.902344-28.867187c-26.574219-10.382813-39.703125-40.34375-29.324219-66.917969l122.023438 47.664062zm0 0" fill="#fff"/><path d="m311.550781 185.035156 73.898438-28.867187c26.578125-10.382813 39.703125-40.34375 29.324219-66.917969l-122.019532 47.664062zm0 0" fill="#f2f6fc"/><path d="m73.433594 435.433594c46.445312 47.25 111.078125 76.566406 182.566406 76.566406s136.121094-29.3125 182.566406-76.5625c-4.492187-6.253906-9.925781-11.996094-11.539062-24.691406-3.019532-23.722656 8.886718-25.238282 5.867187-48.960938-3.019531-23.726562-14.921875-22.210937-17.941406-45.933594-3.019531-23.726562 10.769531-26.070312 5.785156-49.460937-5.035156-23.628906-14.839843-21.71875-17.859375-45.449219-1.914062-15.035156 5.449219-32.523437-.445312-45.785156-6.070313-13.652344-24.109375-19.867188-33.683594-31.015625-9.640625-11.226563-13.066406-29.972656-25.519531-38.019531-12.320313-7.960938-30.789063-3.410156-45.148438-7.632813-13.910156-4.089843-26.917969-18.03125-42.082031-18.03125s-28.171875 13.941407-42.085938 18.03125c-14.355468 4.222657-32.824218-.328125-45.144531 7.632813-12.457031 8.046875-15.878906 26.792968-25.519531 38.019531-9.574219 11.148437-27.613281 17.363281-33.683594 31.015625-5.898437 13.265625 1.46875 30.753906-.445312 45.785156-3.019532 23.726563-14.921875 22.210938-17.941406 45.933594-3.019532 23.726562 8.886718 25.238281 5.867187 48.964844-3.019531 23.722656-14.921875 22.210937-17.941406 45.933594-3.019531 23.726562 8.886719 25.242187 5.867187 48.96875-1.613281 12.695312-7.046875 18.4375-11.539062 24.691406zm0 0" fill="#e9edf5"/><path d="m438.566406 435.4375c-4.492187-6.253906-9.925781-11.996094-11.539062-24.691406-3.019532-23.722656 8.886718-25.238282 5.867187-48.960938-3.019531-23.726562-14.921875-22.210937-17.941406-45.933594-3.019531-23.726562 10.769531-26.070312 5.785156-49.460937-5.035156-23.628906-14.839843-21.71875-17.859375-45.449219-1.914062-15.035156 5.449219-32.523437-.445312-45.785156-6.070313-13.652344-24.109375-19.867188-33.683594-31.015625-9.640625-11.226563-13.066406-29.972656-25.519531-38.019531-12.320313-7.960938-30.789063-3.410156-45.148438-7.632813-13.910156-4.089843-26.917969-18.03125-42.082031-18.03125-.097656 0-.191406.007813-.285156.007813v431.53125c.09375 0 .1875.003906.285156.003906 71.488281 0 136.121094-29.3125 182.566406-76.5625zm0 0" fill="#dce1eb"/><path d="m368.75 198.136719c0-27.644531-27.785156-50.050781-62.058594-50.050781-20.945312 0-39.453125 8.378906-50.691406 21.195312-11.238281-12.816406-29.746094-21.195312-50.691406-21.195312-34.273438 0-62.058594 22.40625-62.058594 50.050781 0 24.628906 22.066406 45.089843 51.117188 49.257812 3.554687 24.917969 29.785156 44.273438 61.632812 44.273438s58.078125-19.355469 61.632812-44.273438c29.050782-4.167969 51.117188-24.628906 51.117188-49.257812zm0 0" fill="#fff"/><path d="m306.691406 148.085938c-20.945312 0-39.453125 8.378906-50.691406 21.195312-.089844-.101562-.191406-.203125-.285156-.304688v122.683594c.09375 0 .191406.003906.285156.003906 31.847656 0 58.078125-19.351562 61.632812-44.269531 29.050782-4.167969 51.117188-24.628906 51.117188-49.257812 0-27.644531-27.785156-50.050781-62.058594-50.050781zm0 0" fill="#f2f6fc"/><path d="m206.757812 201.9375c0 6.867188-5.5625 12.429688-12.429687 12.429688-6.863281 0-12.429687-5.5625-12.429687-12.429688 0-6.863281 5.566406-12.429688 12.429687-12.429688 6.867187 0 12.429687 5.566407 12.429687 12.429688zm0 0" fill="#555a66"/><path d="m330.101562 201.9375c0 6.867188-5.5625 12.429688-12.429687 12.429688-6.863281 0-12.429687-5.5625-12.429687-12.429688 0-6.863281 5.566406-12.429688 12.429687-12.429688 6.867187 0 12.429687 5.566407 12.429687 12.429688zm0 0" fill="#333940"/><path d="m262.992188 214.980469h-13.984376c-5.894531 0-10.675781 4.777343-10.675781 10.675781 0 4.414062 2.722657 8.375 6.84375 9.960938l3.824219 1.472656v8.410156h14v-8.410156l3.824219-1.472656c4.125-1.585938 6.84375-5.546876 6.84375-9.960938 0-5.894531-4.78125-10.675781-10.675781-10.675781zm0 0" fill="#555a66"/><path d="m262.992188 214.980469h-7.277344v30.519531h7.285156v-8.410156l3.824219-1.472656c4.125-1.585938 6.84375-5.546876 6.84375-9.960938 0-5.894531-4.78125-10.675781-10.675781-10.675781zm0 0" fill="#333940"/></svg>