<svg height="512pt" viewBox="0 0 512 512" width="512pt" xmlns="http://www.w3.org/2000/svg"><path d="m512 256c0 141.386719-114.613281 256-256 256s-256-114.613281-256-256 114.613281-256 256-256 256 114.613281 256 256zm0 0" fill="#1ea1e3"/><path d="m510.71875 281.722656-188.117188-188.117187-239.863281 281.113281 134.339844 134.339844c12.691406 1.9375 25.691406 2.941406 38.921875 2.941406 132.703125 0 241.816406-100.972656 254.71875-230.277344zm0 0" fill="#0053bf"/><path d="m256 411.207031c-55.230469 0-100-44.769531-100-100v-143.011719c0-55.226562 44.769531-100 100-100 55.226562 0 100 44.769532 100 100v143.011719c0 55.230469-44.769531 100-100 100zm0 0" fill="#ffce00"/><path d="m256 68.195312c-.097656 0-.191406.003907-.285156.003907v343.003906c.09375 0 .1875.007813.285156.007813 55.226562 0 100-44.773438 100-100v-143.015626c0-55.230468-44.769531-100-100-100zm0 0" fill="#ffa300"/><path d="m156 168.195312h200v48.644532h-200zm0 0" fill="#555a66"/><path d="m255.714844 168.195312h100.285156v48.644532h-100.285156zm0 0" fill="#333940"/><path d="m156 255.453125h200v48.644531h-200zm0 0" fill="#555a66"/><path d="m255.714844 255.453125h100.285156v48.644531h-100.285156zm0 0" fill="#333940"/><path d="m133.023438 397.28125c-60.648438-3.621094-93.757813-72.425781-58.742188-122.078125l72.253906-102.46875c15.734375-22.320313 41.339844-35.59375 68.644532-35.59375v182.742187c0 44.636719-37.59375 80.058594-82.15625 77.398438zm0 0" fill="#fff"/><path d="m378.976562 397.28125c60.648438-3.621094 93.757813-72.425781 58.742188-122.078125l-72.253906-102.46875c-15.734375-22.320313-41.339844-35.59375-68.644532-35.59375v182.742187c0 44.636719 37.59375 80.058594 82.15625 77.398438zm0 0" fill="#f2f6fc"/></svg>