<svg height="512pt" viewBox="0 0 512 512" width="512pt" xmlns="http://www.w3.org/2000/svg"><path d="m512 256c0 141.386719-114.613281 256-256 256s-256-114.613281-256-256 114.613281-256 256-256 256 114.613281 256 256zm0 0" fill="#0053bf"/><path d="m350.789062 493.867188c94.457032-37.675782 161.210938-129.972657 161.210938-237.867188 0-2.0625-.03125-4.121094-.078125-6.175781l-84.246094-84.242188-6.121093 18.878907-63.246094-63.242188-269.910156 110.253906zm0 0" fill="#27488f"/><path d="m256 512c57.082031 0 109.796875-18.691406 152.367188-50.273438l-6.039063-61.5c-9.308594-94.773437-72.015625-165.835937-146.328125-165.835937s-137.019531 71.0625-146.328125 165.835937l-6.039063 61.5c42.570313 31.582032 95.285157 50.273438 152.367188 50.273438zm0 0" fill="#fe6a16"/><path d="m408.367188 461.726562-6.039063-61.5c-9.308594-94.773437-72.015625-165.835937-146.328125-165.835937-.09375 0-.191406.003906-.285156.003906v277.601563c.09375 0 .1875.003906.285156.003906 57.082031 0 109.796875-18.691406 152.367188-50.273438zm0 0" fill="#f24500"/><path d="m256 512c39.027344 0 76.007812-8.746094 109.109375-24.367188l-1.550781-15.765624c-6.84375-69.660157-52.933594-121.898438-107.558594-121.898438s-100.714844 52.238281-107.558594 121.898438l-1.550781 15.765624c33.101563 15.621094 70.082031 24.367188 109.109375 24.367188zm0 0" fill="#ff9500"/><path d="m365.109375 487.632812-1.550781-15.765624c-6.84375-69.660157-52.933594-121.898438-107.558594-121.898438-.09375 0-.191406.003906-.285156.003906v162.023438c.09375 0 .1875.003906.285156.003906 39.027344 0 76.007812-8.746094 109.109375-24.367188zm0 0" fill="#fe8205"/><path d="m164.765625 196.542969c0 25.503906-20.675781 46.179687-46.179687 46.179687-25.503907 0-46.179688-20.675781-46.179688-46.179687 0-25.503907 20.675781-46.179688 46.179688-46.179688 25.503906 0 46.179687 20.675781 46.179687 46.179688zm0 0" fill="#ff9500"/><path d="m142.671875 196.542969c0 13.300781-10.785156 24.085937-24.085937 24.085937-13.300782 0-24.085938-10.785156-24.085938-24.085937 0-13.304688 10.785156-24.085938 24.085938-24.085938 13.300781 0 24.085937 10.78125 24.085937 24.085938zm0 0" fill="#ffb13b"/><path d="m439.59375 196.542969c0 25.503906-20.675781 46.179687-46.179688 46.179687-25.503906 0-46.179687-20.675781-46.179687-46.179687 0-25.503907 20.675781-46.179688 46.179687-46.179688 25.503907 0 46.179688 20.675781 46.179688 46.179688zm0 0" fill="#fe8205"/><path d="m417.5 196.542969c0 13.300781-10.785156 24.085937-24.085938 24.085937-13.300781 0-24.085937-10.785156-24.085937-24.085937 0-13.304688 10.785156-24.085938 24.085937-24.085938 13.300782 0 24.085938 10.78125 24.085938 24.085938zm0 0" fill="#ffa426"/><path d="m386.894531 202.871094c0 72.292968-58.601562 130.898437-130.894531 130.898437s-130.894531-58.605469-130.894531-130.898437c0-72.289063 58.601562-130.894532 130.894531-130.894532s130.894531 58.605469 130.894531 130.894532zm0 0" fill="#fe8205"/><path d="m256 71.976562c-.09375 0-.191406.003907-.285156.003907v261.785156c.09375 0 .1875.003906.285156.003906 72.292969 0 130.894531-58.605469 130.894531-130.894531 0-72.296875-58.601562-130.898438-130.894531-130.898438zm0 0" fill="#fa5d0f"/><path d="m368.75 185.78125c0-35.660156-27.785156-64.5625-62.058594-64.5625-20.945312 0-39.738281 10.390625-50.976562 26.925781-11.238282-16.535156-29.460938-26.925781-50.40625-26.925781-34.273438 0-62.054688 28.902344-62.054688 64.5625 0 31.769531 22.0625 58.160156 51.113282 63.539062 3.558593 32.144532 29.785156 57.105469 61.632812 57.105469s58.078125-24.960937 61.632812-57.105469c29.050782-5.378906 51.117188-31.769531 51.117188-63.539062zm0 0" fill="#fff"/><path d="m255.714844 148.152344v158.269531c.09375 0 .1875.003906.285156.003906 31.847656 0 58.078125-24.960937 61.632812-57.105469 29.050782-5.378906 51.117188-31.769531 51.117188-63.539062 0-35.660156-27.785156-64.5625-62.058594-64.5625-20.945312 0-39.738281 10.390625-50.976562 26.925781zm0 0" fill="#f2f6fc"/><path d="m206.757812 178.011719c0 6.863281-5.566406 12.429687-12.429687 12.429687s-12.429687-5.566406-12.429687-12.429687c0-6.867188 5.566406-12.429688 12.429687-12.429688s12.429687 5.5625 12.429687 12.429688zm0 0" fill="#555a66"/><path d="m330.101562 178.011719c0 6.863281-5.566406 12.429687-12.429687 12.429687s-12.429687-5.566406-12.429687-12.429687c0-6.867188 5.566406-12.429688 12.429687-12.429688s12.429687 5.5625 12.429687 12.429688zm0 0" fill="#333940"/><path d="m262.992188 196.121094h-13.984376c-5.894531 0-10.671874 4.78125-10.671874 10.675781 0 4.417969 2.71875 8.378906 6.839843 9.964844l3.824219 1.46875v11.644531h14v-11.644531l3.824219-1.46875c4.125-1.585938 6.84375-5.546875 6.84375-9.964844 0-5.894531-4.78125-10.675781-10.675781-10.675781zm0 0" fill="#555a66"/><path d="m262.992188 196.121094h-7.277344v33.753906h7.285156v-11.644531l3.824219-1.46875c4.121093-1.585938 6.84375-5.546875 6.84375-9.964844 0-5.894531-4.78125-10.675781-10.675781-10.675781zm0 0" fill="#333940"/></svg>