<svg height="512pt" viewBox="0 0 512 512" width="512pt" xmlns="http://www.w3.org/2000/svg"><path d="m512 256c0 141.386719-114.613281 256-256 256s-256-114.613281-256-256 114.613281-256 256-256 256 114.613281 256 256zm0 0" fill="#1ea1e3"/><path d="m507.820312 302.261719-152.71875-152.714844-3.386718 9.371094-79.800782-79.804688-100.4375 29 71.21875 71.21875-106.085937 68.539063 118.886719 118.882812-76.09375 77.632813 67.433594 67.433593c3.042968.105469 6.09375.179688 9.164062.179688 125.589844 0 230.042969-90.4375 251.820312-209.738281zm0 0" fill="#0053bf"/><path d="m332.597656 444.386719h-153.195312l-31.699219-227.421875h216.59375zm0 0" fill="#fff"/><path d="m364.296875 216.964844h-108.582031v227.421875h76.882812zm0 0" fill="#f2f6fc"/><path d="m224.304688 328.164062c-13.820313 3.707032-27.960938 6.011719-42.183594 6.890626l12.160156 87.242187h123.4375l14.984375-107.515625c-33.085937-12.191406-73.375 4.210938-108.398437 13.382812zm0 0" fill="#fe6a16"/><path d="m332.703125 314.78125c-23.515625-8.667969-50.671875-2.882812-76.988281 4.480469v103.035156h62.003906zm0 0" fill="#fa5d0f"/><path d="m271.914062 371.484375h-29v-263.371094h-71.4375v-29h100.4375zm0 0" fill="#ffce00"/><path d="m255.714844 79.113281h16.195312v292.371094h-16.195312zm0 0" fill="#ffa300"/><path d="m355.101562 149.546875h-198.203124l-9.195313 50.976563h216.59375zm0 0" fill="#a3d4ff"/><path d="m355.101562 149.546875h-99.386718v50.976563h108.582031zm0 0" fill="#87c7ff"/><path d="m136.609375 186.0625h238.78125v61.804688h-238.78125zm0 0" fill="#dbeeff"/><path d="m255.714844 186.0625h119.675781v61.804688h-119.675781zm0 0" fill="#bfe1ff"/></svg>