<svg height="512pt" viewBox="0 0 512 512" width="512pt" xmlns="http://www.w3.org/2000/svg"><path d="m512 256c0 141.386719-114.613281 256-256 256s-256-114.613281-256-256 114.613281-256 256-256 256 114.613281 256 256zm0 0" fill="#09ce67"/><path d="m90.417969 199.128906 283.917969 283.921875c81.8125-42.730469 137.664062-128.363281 137.664062-227.050781 0-17.382812-1.742188-34.355469-5.042969-50.765625l-85.375-85.375zm0 0" fill="#1aad5c"/><path d="m181.898438 159.492188c0 30.007812-24.324219 54.328124-54.328126 54.328124-30.007812 0-54.332031-24.320312-54.332031-54.328124 0-30.003907 24.324219-54.328126 54.332031-54.328126 30.003907 0 54.328126 24.324219 54.328126 54.328126zm0 0" fill="#555a66"/><path d="m127.570312 141.792969c-23.578124 0-43.640624 15.023437-51.15625 36.015625 7.515626 20.992187 27.578126 36.011718 51.15625 36.011718 23.574219 0 43.636719-15.019531 51.15625-36.011718-7.519531-20.992188-27.582031-36.015625-51.15625-36.015625zm0 0" fill="#636978"/><path d="m438.761719 159.492188c0 30.007812-24.324219 54.328124-54.332031 54.328124-30.003907 0-54.328126-24.320312-54.328126-54.328124 0-30.003907 24.324219-54.328126 54.328126-54.328126 30.007812 0 54.332031 24.324219 54.332031 54.328126zm0 0" fill="#333940"/><path d="m384.429688 141.792969c23.578124 0 43.640624 15.023437 51.15625 36.015625-7.515626 20.992187-27.578126 36.011718-51.15625 36.011718-23.574219 0-43.636719-15.019531-51.15625-36.011718 7.519531-20.992188 27.582031-36.015625 51.15625-36.015625zm0 0" fill="#555a66"/><path d="m256 512c63.148438 0 120.941406-22.878906 165.582031-60.777344l-4.746093-48.316406c-10.230469-104.167969-79.15625-182.28125-160.835938-182.28125s-150.605469 78.113281-160.835938 182.28125l-4.746093 48.316406c44.640625 37.898438 102.433593 60.777344 165.582031 60.777344zm0 0" fill="#555a66"/><path d="m421.582031 451.222656-4.746093-48.316406c-10.230469-104.167969-79.15625-182.28125-160.835938-182.28125-.09375 0-.191406.003906-.285156.003906v291.367188c.09375 0 .1875.003906.285156.003906 63.148438 0 120.941406-22.878906 165.582031-60.777344zm0 0" fill="#333940"/><path d="m256 344.96875c-61.523438 0-113.585938 57.9375-122.636719 135.789062 36.417969 19.914063 78.203125 31.242188 122.636719 31.242188s86.21875-11.328125 122.636719-31.242188c-9.050781-77.851562-61.113281-135.789062-122.636719-135.789062zm0 0" fill="#7e8596"/><path d="m378.636719 480.757812c-9.050781-77.851562-61.113281-135.789062-122.636719-135.789062-.09375 0-.191406.003906-.285156.003906v167.023438c.09375 0 .1875.003906.285156.003906 44.433594 0 86.21875-11.328125 122.636719-31.242188zm0 0" fill="#707789"/><path d="m386.894531 202.871094c0 72.292968-58.601562 130.898437-130.894531 130.898437s-130.894531-58.605469-130.894531-130.898437c0-72.289063 58.601562-130.894532 130.894531-130.894532s130.894531 58.605469 130.894531 130.894532zm0 0" fill="#7e8596"/><path d="m256 71.976562c-.09375 0-.191406.003907-.285156.003907v261.785156c.09375 0 .1875.003906.285156.003906 72.292969 0 130.894531-58.605469 130.894531-130.894531 0-72.296875-58.601562-130.898438-130.894531-130.898438zm0 0" fill="#707789"/><g fill="#333940"><path d="m206.757812 206.679688c0 6.863281-5.566406 12.429687-12.429687 12.429687s-12.429687-5.566406-12.429687-12.429687c0-6.867188 5.566406-12.433594 12.429687-12.433594s12.429687 5.566406 12.429687 12.433594zm0 0"/><path d="m330.101562 206.679688c0 6.863281-5.566406 12.429687-12.429687 12.429687s-12.429687-5.566406-12.429687-12.429687c0-6.867188 5.566406-12.433594 12.429687-12.433594s12.429687 5.566406 12.429687 12.433594zm0 0"/><path d="m261.886719 282.820312h-11.773438c-9.972656 0-17.695312-8.734374-16.46875-18.636718l5.882813-47.472656c1.03125-8.3125 8.09375-14.554688 16.472656-14.554688s15.441406 6.242188 16.472656 14.554688l5.882813 47.472656c1.226562 9.902344-6.496094 18.636718-16.46875 18.636718zm0 0"/></g><path d="m261.886719 282.820312h-11.773438c-9.972656 0-17.695312-8.734374-16.46875-18.636718l5.882813-47.472656c1.03125-8.3125 8.09375-14.554688 16.472656-14.554688s15.441406 6.242188 16.472656 14.554688l5.882813 47.472656c1.226562 9.902344-6.496094 18.636718-16.46875 18.636718zm0 0" fill="#555a66"/><path d="m278.355469 264.183594-5.882813-47.472656c-1.03125-8.3125-8.09375-14.554688-16.472656-14.554688-.097656 0-.191406.011719-.285156.011719v80.652343h6.171875c9.972656 0 17.695312-8.734374 16.46875-18.636718zm0 0" fill="#333940"/></svg>