<svg height="512pt" viewBox="0 0 512 512" width="512pt" xmlns="http://www.w3.org/2000/svg"><path d="m512 256c0 141.386719-114.613281 256-256 256s-256-114.613281-256-256 114.613281-256 256-256 256 114.613281 256 256zm0 0" fill="#09ce67"/><path d="m512 256c0-11.496094-.769531-22.808594-2.238281-33.902344l-151.6875-151.6875-62.453125 342.660156 72.914062 72.914063c84.960938-41.648437 143.464844-128.980469 143.464844-229.984375zm0 0" fill="#1aad5c"/><path d="m430.785156 319.859375 14.765625-59.542969-28.359375-52.15625 8.007813-54.703125-44.628907-32.570312-22.496093-50.476563-55.136719-2.832031-46.9375-29.078125-46.9375 29.078125-55.136719 2.832031-22.496093 50.476563-44.625 32.570312 8.007812 54.703125-28.539062 53.195313 14.945312 58.488281-28.539062 53.195312 14.167968 55.460938c46.816406 51.304688 114.222656 83.5 189.152344 83.5s142.339844-32.195312 189.15625-83.507812l14.164062-55.4375zm0 0" fill="#fe6a16"/><path d="m430.785156 319.859375 14.765625-59.542969-28.359375-52.15625 8.007813-54.703125-44.628907-32.570312-22.496093-50.476563-55.136719-2.832031-46.9375-29.078125v473.5c74.929688 0 142.339844-32.195312 189.15625-83.507812l14.164062-55.4375zm0 0" fill="#f24500"/><path d="m306.691406 148.085938c-20.945312 0-39.453125 10.046874-50.691406 25.417968-11.238281-15.371094-29.746094-25.417968-50.691406-25.417968-34.273438 0-62.058594 26.871093-62.058594 60.019531v277.773437c34.019531 16.71875 72.285156 26.121094 112.75 26.121094s78.730469-9.402344 112.75-26.121094v-277.773437c0-33.148438-27.785156-60.019531-62.058594-60.019531zm0 0" fill="#f5e3a7"/><path d="m306.691406 148.085938c-20.945312 0-39.453125 10.046874-50.691406 25.417968v338.496094c40.464844 0 78.730469-9.402344 112.75-26.121094v-277.773437c0-33.148438-27.785156-60.019531-62.058594-60.019531zm0 0" fill="#f5d882"/><path d="m206.757812 201.9375c0 6.867188-5.566406 12.429688-12.429687 12.429688s-12.429687-5.5625-12.429687-12.429688c0-6.863281 5.566406-12.429688 12.429687-12.429688s12.429687 5.566407 12.429687 12.429688zm0 0" fill="#555a66"/><path d="m330.101562 201.9375c0 6.867188-5.566406 12.429688-12.429687 12.429688s-12.429687-5.5625-12.429687-12.429688c0-6.863281 5.566406-12.429688 12.429687-12.429688s12.429687 5.566407 12.429687 12.429688zm0 0" fill="#333940"/><path d="m287.3125 214.367188c0 17.292968-14.019531 31.3125-31.3125 31.3125s-31.3125-14.019532-31.3125-31.3125c0-17.292969 14.019531-31.308594 31.3125-31.308594s31.3125 14.015625 31.3125 31.308594zm0 0" fill="#fff"/><path d="m256 183.058594v62.621094c17.292969 0 31.3125-14.019532 31.3125-31.3125 0-17.292969-14.019531-31.308594-31.3125-31.308594zm0 0" fill="#f2f6fc"/><path d="m266.824219 235.617188-6.992188 2.691406c-2.46875.949218-5.195312.949218-7.664062 0l-6.992188-2.691406c-4.121093-1.585938-6.84375-5.542969-6.84375-9.960938 0-5.894531 4.78125-10.675781 10.675781-10.675781h13.984376c5.894531 0 10.675781 4.78125 10.675781 10.675781 0 4.414062-2.722657 8.375-6.84375 9.960938zm0 0" fill="#555a66"/><path d="m262.992188 214.980469h-6.992188v24.039062c1.300781 0 2.597656-.238281 3.832031-.710937l6.992188-2.691406c4.121093-1.585938 6.84375-5.546876 6.84375-9.960938 0-5.894531-4.78125-10.675781-10.675781-10.675781zm0 0" fill="#333940"/></svg>