<svg height="512pt" viewBox="0 0 512 512" width="512pt" xmlns="http://www.w3.org/2000/svg"><path d="m512 256c0 141.386719-114.613281 256-256 256s-256-114.613281-256-256 114.613281-256 256-256 256 114.613281 256 256zm0 0" fill="#0053bf"/><path d="m512 256c0-11.558594-.78125-22.9375-2.265625-34.089844l-110.644531-110.644531-98.433594 311.007813 65.070312 65.070312c86.476563-41.089844 146.273438-129.230469 146.273438-231.34375zm0 0" fill="#27488f"/><path d="m256 512c57.601562 0 110.757812-19.027344 153.53125-51.136719l-23.261719-179.949219c-8.289062-64.121093-64.113281-112.203124-130.269531-112.203124s-121.980469 48.082031-130.269531 112.203124l-23.261719 179.949219c42.773438 32.109375 95.929688 51.136719 153.53125 51.136719zm0 0" fill="#ffce00"/><path d="m409.816406 460.863281-23.261718-179.949219c-8.285157-64.121093-64.113282-112.203124-130.269532-112.203124-.09375 0-.1875.003906-.285156.003906v343.28125c.09375 0 .191406.003906.285156.003906 57.601563 0 110.757813-19.027344 153.53125-51.136719zm0 0" fill="#ffa300"/><path d="m48.875 256.328125c0-26.730469 20.710938-49.152344 30.347656-72.398437 9.992188-24.097657 11.582032-54.503907 29.742188-72.664063 18.15625-18.160156 48.566406-19.746094 72.664062-29.738281 23.242188-9.640625 45.667969-30.351563 72.398438-30.351563 26.730468 0 49.15625 20.710938 72.402344 30.351563 24.097656 9.992187 54.503906 11.578125 72.664062 29.738281s19.746094 48.566406 29.738281 72.664063c9.640625 23.246093 30.347657 45.667968 30.347657 72.398437 0 26.734375-20.707032 49.15625-30.347657 72.402344-9.992187 24.097656-11.578125 54.503906-29.738281 72.664062-18.160156 18.160157-48.566406 19.746094-72.664062 29.738281-23.246094 9.640626-45.667969 30.351563-72.402344 30.351563-26.730469 0-49.15625-20.710937-72.398438-30.351563-24.097656-9.992187-54.507812-11.578124-72.664062-29.738281-18.160156-18.160156-19.746094-48.566406-29.742188-72.664062-9.636718-23.246094-30.347656-45.667969-30.347656-72.402344zm0 0" fill="#fe6a16"/><path d="m428.828125 183.929688c-9.988281-24.097657-11.578125-54.503907-29.738281-72.664063s-48.566406-19.746094-72.664063-29.738281c-22.75-9.433594-44.722656-29.464844-70.425781-30.265625v410.222656c25.703125-.886719 47.675781-20.917969 70.425781-30.351563 24.097657-9.992187 54.503907-11.578124 72.664063-29.738281 18.160156-18.160156 19.75-48.566406 29.738281-72.664062 9.640625-23.246094 30.351563-45.667969 30.351563-72.402344 0-26.730469-20.710938-49.152344-30.351563-72.398437zm0 0" fill="#fa5d0f"/><path d="m195.9375 193.609375c0 23.457031-19.011719 42.46875-42.46875 42.46875-23.453125 0-42.46875-19.011719-42.46875-42.46875 0-23.453125 19.015625-42.46875 42.46875-42.46875 23.457031 0 42.46875 19.015625 42.46875 42.46875zm0 0" fill="#ffa426"/><path d="m175.617188 193.609375c0 12.234375-9.914063 22.148437-22.148438 22.148437-12.230469 0-22.148438-9.914062-22.148438-22.148437 0-12.230469 9.917969-22.148437 22.148438-22.148437 12.234375 0 22.148438 9.917968 22.148438 22.148437zm0 0" fill="#f5d882"/><path d="m401 193.609375c0 23.457031-19.015625 42.46875-42.46875 42.46875-23.457031 0-42.46875-19.011719-42.46875-42.46875 0-23.453125 19.011719-42.46875 42.46875-42.46875 23.453125 0 42.46875 19.015625 42.46875 42.46875zm0 0" fill="#ff9500"/><path d="m380.679688 193.609375c0 12.234375-9.917969 22.148437-22.148438 22.148437-12.234375 0-22.148438-9.914062-22.148438-22.148437 0-12.230469 9.914063-22.148437 22.148438-22.148437 12.230469 0 22.148438 9.917968 22.148438 22.148437zm0 0" fill="#f5cd62"/><path d="m380.699219 256.332031c0 68.867188-124.699219 124.699219-124.699219 124.699219s-124.699219-55.832031-124.699219-124.699219c0-68.871093 55.828125-124.699219 124.699219-124.699219s124.699219 55.828126 124.699219 124.699219zm0 0" fill="#ffdf57"/><path d="m256 131.632812c-.097656 0-.070312-.042968 0 0l.167969 249.441407c.007812.039062-.167969-.042969-.167969-.042969s124.699219-55.832031 124.699219-124.699219c0-68.871093-55.828125-124.699219-124.699219-124.699219zm0 0" fill="#ffce00"/><path d="m302.023438 286c0 25.417969-20.605469 46.023438-46.023438 46.023438s-46.023438-20.605469-46.023438-46.023438 20.605469-46.023438 46.023438-46.023438 46.023438 20.605469 46.023438 46.023438zm0 0" fill="#fff"/><path d="m256 239.976562c-.097656 0-.191406.003907-.285156.003907v92.039062c.09375 0 .1875.003907.285156.003907 25.417969 0 46.023438-20.605469 46.023438-46.023438s-20.605469-46.023438-46.023438-46.023438zm0 0" fill="#f2f6fc"/><g fill="#555a66"><path d="m197.417969 210.304688c0 6.863281-5.5625 12.429687-12.429688 12.429687-6.863281 0-12.429687-5.566406-12.429687-12.429687 0-6.863282 5.566406-12.429688 12.429687-12.429688 6.867188 0 12.429688 5.566406 12.429688 12.429688zm0 0"/><path d="m339.441406 210.304688c0 6.863281-5.566406 12.429687-12.429687 12.429687-6.867188 0-12.429688-5.566406-12.429688-12.429687 0-6.863282 5.5625-12.429688 12.429688-12.429688 6.863281 0 12.429687 5.566406 12.429687 12.429688zm0 0"/><path d="m266.289062 237.804688h-20.578124c-8.679688 0-15.710938 7.035156-15.710938 15.710937 0 6.5 4.003906 12.328125 10.070312 14.664063l8.929688 3.433593v39.636719h14v-39.636719l8.929688-3.433593c6.066406-2.335938 10.070312-8.164063 10.070312-14.664063 0-8.675781-7.035156-15.710937-15.710938-15.710937zm0 0"/></g><path d="m266.289062 237.804688-10.289062.125v73.445312l7-.125v-39.636719l8.929688-3.433593c6.066406-2.335938 10.070312-8.164063 10.070312-14.664063 0-8.675781-7.035156-15.710937-15.710938-15.710937zm0 0" fill="#333940"/></svg>