<svg height="512pt" viewBox="0 0 512 512" width="512pt" xmlns="http://www.w3.org/2000/svg"><path d="m512 256c0 141.386719-114.613281 256-256 256s-256-114.613281-256-256 114.613281-256 256-256 256 114.613281 256 256zm0 0" fill="#09ce67"/><path d="m512 256c0-13.132812-.992188-26.035156-2.902344-38.636719l-76.78125-76.78125-108.710937 257.621094 72.242187 72.238281c69.929688-45.699218 116.152344-124.667968 116.152344-214.441406zm0 0" fill="#1aad5c"/><path d="m403.238281 242.535156c-9.371093-64.117187-72.464843-112.199218-147.238281-112.199218s-137.867188 48.082031-147.238281 112.203124l-29.078125 199.058594c45.910156 43.625 107.984375 70.402344 176.316406 70.402344s130.40625-26.777344 176.316406-70.402344zm0 0" fill="#707789"/><path d="m432.316406 441.597656-29.082031-199.0625c-9.367187-64.117187-72.460937-112.199218-147.234375-112.199218-.09375 0-.191406.003906-.285156.003906v381.65625c.09375 0 .1875.003906.285156.003906 68.332031 0 130.40625-26.777344 176.316406-70.402344zm0 0" fill="#636978"/><path d="m271.21875 236.601562c0-73.601562-50.640625-133.261718-113.109375-133.261718s-113.109375 59.660156-113.109375 133.261718c0 73.597657 50.640625 133.261719 113.109375 133.261719s113.109375-59.664062 113.109375-133.261719zm0 0" fill="#cdd2e1"/><path d="m467 236.601562c0-73.601562-50.640625-133.261718-113.109375-133.261718s-113.109375 59.660156-113.109375 133.261718c0 73.597657 50.640625 133.261719 113.109375 133.261719s113.109375-59.664062 113.109375-133.261719zm0 0" fill="#bec3d2"/><path d="m407.019531 256.328125c0 84.496094-68.496093 152.992187-152.992187 152.992187s-152.992188-68.496093-152.992188-152.992187c0-84.492187 68.496094-152.988281 152.992188-152.988281s152.992187 68.496094 152.992187 152.988281zm0 0" fill="#fff"/><path d="m407.019531 256.332031c0-83.933593-67.589843-152.066406-151.304687-152.972656v305.941406c83.714844-.90625 151.304687-69.039062 151.304687-152.96875zm0 0" fill="#f2f6fc"/><path d="m187.164062 216.582031c0 8.066407-6.539062 14.605469-14.605468 14.605469s-14.605469-6.539062-14.605469-14.605469c0-8.066406 6.539063-14.605469 14.605469-14.605469s14.605468 6.539063 14.605468 14.605469zm0 0" fill="#555a66"/><path d="m354.046875 216.582031c0 8.066407-6.539063 14.605469-14.605469 14.605469s-14.605468-6.539062-14.605468-14.605469c0-8.066406 6.539062-14.605469 14.605468-14.605469s14.605469 6.539063 14.605469 14.605469zm0 0" fill="#333940"/><path d="m291.953125 486.332031h-71.90625l-15.917969-222.820312c-2.199218-27.480469 19.507813-50.996094 47.074219-50.996094h9.59375c27.566406 0 49.273437 23.515625 47.074219 50.996094zm0 0" fill="#bec3d2"/><path d="m260.796875 212.515625h-5.082031v273.820313h36.238281l15.917969-222.824219c2.199218-27.480469-19.507813-50.996094-47.074219-50.996094zm0 0" fill="#afb4c8"/></svg>