<svg height="512pt" viewBox="0 0 512 512" width="512pt" xmlns="http://www.w3.org/2000/svg"><path d="m512 256c0 141.386719-114.613281 256-256 256s-256-114.613281-256-256 114.613281-256 256-256 256 114.613281 256 256zm0 0" fill="#ffce00"/><path d="m512 256c0-19.765625-2.242188-39.003906-6.484375-57.480469l-99.75-99.753906-137.71875 254.328125 121.402344 121.402344c73.5-44.984375 122.550781-126.011719 122.550781-218.496094zm0 0" fill="#ffa300"/><g fill="#0053bf"><path d="m184.765625 131.710938c0 25.503906-20.675781 46.179687-46.179687 46.179687-25.503907 0-46.179688-20.675781-46.179688-46.179687 0-25.503907 20.675781-46.179688 46.179688-46.179688 25.503906 0 46.179687 20.675781 46.179687 46.179688zm0 0"/><path d="m162.671875 131.710938c0 13.304687-10.785156 24.085937-24.085937 24.085937-13.300782 0-24.085938-10.78125-24.085938-24.085937 0-13.300782 10.785156-24.082032 24.085938-24.082032 13.300781 0 24.085937 10.78125 24.085937 24.082032zm0 0"/><path d="m419.59375 131.710938c0 25.503906-20.675781 46.179687-46.179688 46.179687-25.503906 0-46.179687-20.675781-46.179687-46.179687 0-25.503907 20.675781-46.179688 46.179687-46.179688 25.503907 0 46.179688 20.675781 46.179688 46.179688zm0 0"/></g><path d="m397.5 131.710938c0 13.304687-10.785156 24.085937-24.085938 24.085937-13.300781 0-24.085937-10.78125-24.085937-24.085937 0-13.300782 10.785156-24.082032 24.085937-24.082032 13.300782 0 24.085938 10.78125 24.085938 24.082032zm0 0" fill="#27488f"/><path d="m403.238281 242.535156c-9.371093-64.117187-72.464843-112.199218-147.238281-112.199218s-137.867188 48.082031-147.238281 112.203124l-29.078125 199.058594c45.910156 43.625 107.984375 70.402344 176.316406 70.402344s130.40625-26.777344 176.316406-70.402344zm0 0" fill="#0053bf"/><path d="m432.316406 441.597656-29.082031-199.0625c-9.367187-64.117187-72.460937-112.199218-147.234375-112.199218-.09375 0-.191406.003906-.285156.003906v381.65625c.09375 0 .1875.003906.285156.003906 68.332031 0 130.40625-26.777344 176.316406-70.402344zm0 0" fill="#27488f"/><path d="m422.308594 250.667969c0 92.941406-75.34375 168.28125-168.28125 168.28125-92.941406 0-168.28125-75.339844-168.28125-168.28125 0-92.9375 75.339844-168.28125 168.28125-168.28125 92.9375 0 168.28125 75.34375 168.28125 168.28125zm0 0" fill="#1ea1e3"/><path d="m422.308594 250.667969c0-92.375-74.433594-167.351563-166.59375-168.261719v336.523438c92.160156-.90625 166.59375-75.886719 166.59375-168.261719zm0 0" fill="#2864f0"/><path d="m187.164062 195.632812c0 8.066407-6.539062 14.605469-14.605468 14.605469s-14.605469-6.539062-14.605469-14.605469c0-8.066406 6.539063-14.605468 14.605469-14.605468s14.605468 6.539062 14.605468 14.605468zm0 0" fill="#333940"/><path d="m354.046875 195.632812c0 8.066407-6.539063 14.605469-14.605469 14.605469s-14.605468-6.539062-14.605468-14.605469c0-8.066406 6.539062-14.605468 14.605468-14.605468s14.605469 6.539062 14.605469 14.605468zm0 0" fill="#23272b"/><path d="m133.644531 375.390625 49.398438 15.15625-15.15625 49.398437-49.398438-15.15625zm0 0" fill="#fff"/><path d="m393.527344 424.800781-49.398438 15.152344-15.15625-49.398437 49.398438-15.152344zm0 0" fill="#f2f6fc"/><path d="m332.574219 418.949219h-153.148438c-49.558593 0-89.734375-40.171875-89.734375-89.730469v-10.4375c0-49.558594 40.175782-89.730469 89.734375-89.730469h153.148438c49.558593 0 89.734375 40.171875 89.734375 89.730469v10.4375c0 49.558594-40.175782 89.730469-89.734375 89.730469zm0 0" fill="#65b1fc"/><path d="m332.574219 229.050781h-76.859375v189.898438h76.859375c49.558593 0 89.734375-40.175781 89.734375-89.730469v-10.4375c0-49.558594-40.175782-89.730469-89.734375-89.730469zm0 0" fill="#4a98f7"/><path d="m205.839844 324c0 18.378906-14.902344 33.28125-33.28125 33.28125s-33.28125-14.902344-33.28125-33.28125 14.902344-33.28125 33.28125-33.28125 33.28125 14.902344 33.28125 33.28125zm0 0" fill="#1ea1e3"/><path d="m376.839844 324c0 18.378906-14.902344 33.28125-33.28125 33.28125s-33.28125-14.902344-33.28125-33.28125 14.902344-33.28125 33.28125-33.28125 33.28125 14.902344 33.28125 33.28125zm0 0" fill="#0053bf"/></svg>