<svg height="512pt" viewBox="0 0 512 512" width="512pt" xmlns="http://www.w3.org/2000/svg"><path d="m512 256c0 141.386719-114.613281 256-256 256s-256-114.613281-256-256 114.613281-256 256-256 256 114.613281 256 256zm0 0" fill="#0053bf"/><path d="m95.921875 219.222656 268.65625 268.65625c87.097656-40.855468 147.421875-129.3125 147.421875-231.878906 0-7.546875-.347656-15.007812-.984375-22.390625l-87.730469-87.726563zm0 0" fill="#27488f"/><path d="m256 512c57.601562 0 110.757812-19.027344 153.53125-51.136719l-23.261719-179.949219c-8.289062-64.121093-64.113281-112.203124-130.269531-112.203124s-121.980469 48.082031-130.269531 112.203124l-23.261719 179.949219c42.773438 32.109375 95.929688 51.136719 153.53125 51.136719zm0 0" fill="#ffa300"/><path d="m409.53125 460.863281-23.261719-179.949219c-8.289062-64.121093-64.113281-112.203124-130.269531-112.203124-.09375 0-.191406.003906-.285156.003906v343.28125c.09375 0 .1875.003906.285156.003906 57.601562 0 110.757812-19.027344 153.53125-51.136719zm0 0" fill="#fe8205"/><path d="m181.855469 178.902344c0 28.957031-23.472657 52.425781-52.429688 52.425781-28.953125 0-52.425781-23.46875-52.425781-52.425781 0-28.953125 23.472656-52.425782 52.425781-52.425782 28.957031 0 52.429688 23.472657 52.429688 52.425782zm0 0" fill="#ffa426"/><path d="m156.769531 178.902344c0 15.101562-12.242187 27.34375-27.34375 27.34375-15.097656 0-27.339843-12.242188-27.339843-27.34375 0-15.101563 12.242187-27.339844 27.339843-27.339844 15.101563 0 27.34375 12.238281 27.34375 27.339844zm0 0" fill="#f5d882"/><path d="m435 178.902344c0 28.957031-23.472656 52.425781-52.425781 52.425781-28.957031 0-52.429688-23.46875-52.429688-52.425781 0-28.953125 23.472657-52.425782 52.429688-52.425782 28.953125 0 52.425781 23.472657 52.425781 52.425782zm0 0" fill="#ff9500"/><path d="m409.914062 178.902344c0 15.101562-12.242187 27.34375-27.339843 27.34375-15.101563 0-27.34375-12.242188-27.34375-27.34375 0-15.101563 12.242187-27.339844 27.34375-27.339844 15.097656 0 27.339843 12.238281 27.339843 27.339844zm0 0" fill="#f5cd62"/><path d="m409.941406 256.332031c0 85.019531-154.226562 126.585938-154.226562 126.585938s-153.65625-41.570313-153.65625-126.585938c0-85.019531 68.921875-153.941406 153.941406-153.941406s153.941406 68.921875 153.941406 153.941406zm0 0" fill="#ffdf57"/><path d="m255.714844 382.917969s154.226562-41.566407 154.226562-126.585938-68.921875-153.941406-153.941406-153.941406c-.09375 0-.191406.003906-.285156.003906v280.527344zm0 0" fill="#ffce00"/><path d="m312.816406 292.957031c0 31.378907-25.4375 56.816407-56.816406 56.816407s-56.816406-25.4375-56.816406-56.816407c0-31.378906 25.4375-56.816406 56.816406-56.816406s56.816406 25.4375 56.816406 56.816406zm0 0" fill="#fff"/><path d="m256 236.140625c-.097656 0-.191406.003906-.285156.003906v113.621094c.09375 0 .1875.007813.285156.007813 31.378906 0 56.816406-25.4375 56.816406-56.816407 0-31.378906-25.4375-56.816406-56.816406-56.816406zm0 0" fill="#f2f6fc"/><path d="m183.683594 199.511719c0 8.476562-6.871094 15.347656-15.34375 15.347656-8.476563 0-15.347656-6.871094-15.347656-15.347656 0-8.472657 6.871093-15.34375 15.347656-15.34375 8.472656 0 15.34375 6.871093 15.34375 15.34375zm0 0" fill="#555a66"/><path d="m359.007812 199.511719c0 8.476562-6.871093 15.347656-15.347656 15.347656-8.472656 0-15.34375-6.871094-15.34375-15.347656 0-8.472657 6.871094-15.34375 15.34375-15.34375 8.476563 0 15.347656 6.871093 15.347656 15.34375zm0 0" fill="#333940"/><path d="m268.703125 233.460938h-25.40625c-10.710937 0-19.394531 8.683593-19.394531 19.394531 0 8.023437 4.945312 15.21875 12.433594 18.101562l12.664062 4.871094v48.300781h14v-48.300781l12.664062-4.871094c7.492188-2.882812 12.433594-10.078125 12.433594-18.101562 0-10.710938-8.683594-19.394531-19.394531-19.394531zm0 0" fill="#555a66"/><path d="m268.703125 233.460938h-12.988281v90.667968h7.285156v-48.300781l12.664062-4.871094c7.492188-2.882812 12.433594-10.078125 12.433594-18.101562 0-10.710938-8.683594-19.394531-19.394531-19.394531zm0 0" fill="#333940"/><path d="m268.5 102.898438c-4.125-.332032-8.289062-.507813-12.5-.507813s-8.375.175781-12.5.507813v74.996093h25zm0 0" fill="#fe6a16"/><path d="m268.5 102.898438c-4.125-.332032-8.289062-.507813-12.5-.507813-.09375 0-.191406.003906-.285156.003906v75.5h12.785156zm0 0" fill="#f24500"/><path d="m190.066406 117.195312v38.183594h25v-47.476562c-8.664062 2.382812-17.019531 5.503906-25 9.292968zm0 0" fill="#fe6a16"/><path d="m321.933594 117.195312c-7.980469-3.789062-16.335938-6.910156-25-9.292968v47.476562h25zm0 0" fill="#f24500"/><path d="m399.464844 383h-55.804688v35.949219h60.453125zm0 0" fill="#f24500"/><path d="m328.316406 482.949219h46.210938c12.289062-6.429688 23.992187-13.820313 35.003906-22.085938l-1.792969-13.863281h-79.421875zm0 0" fill="#f24500"/><g fill="#fe6a16"><path d="m112.535156 383h55.804688v35.949219h-60.453125zm0 0"/><path d="m183.683594 482.949219h-46.214844c-12.285156-6.429688-23.988281-13.820313-35-22.085938l1.792969-13.863281h79.421875zm0 0"/><path d="m110.925781 290.71875h50.074219v-28.933594h-58.699219c.808594 10.3125 3.871094 19.953125 8.625 28.933594zm0 0"/><path d="m156.769531 337.992188v-26.992188h-31.527343c8.964843 10.0625 19.867187 19.058594 31.527343 26.992188zm0 0"/></g><path d="m401.074219 290.71875h-50.074219v-28.933594h58.699219c-.808594 10.3125-3.871094 19.953125-8.625 28.933594zm0 0" fill="#f24500"/><path d="m355.230469 337.992188v-26.992188h31.527343c-8.964843 10.0625-19.867187 19.058594-31.527343 26.992188zm0 0" fill="#f24500"/></svg>