<svg height="512pt" viewBox="0 0 512 512" width="512pt" xmlns="http://www.w3.org/2000/svg"><path d="m512 256c0 141.386719-114.613281 256-256 256s-256-114.613281-256-256 114.613281-256 256-256 256 114.613281 256 256zm0 0" fill="#ffce00"/><path d="m92.367188 215.984375 271.996093 271.996094c87.210938-40.808594 147.636719-129.332031 147.636719-231.980469 0-7.539062-.34375-14.996094-.984375-22.371094l-87.667969-87.667968zm0 0" fill="#ffa300"/><path d="m407.882812 280.914062c-9.664062-64.121093-74.75-112.203124-151.882812-112.203124s-142.21875 48.082031-151.882812 112.203124l-24.238282 160.863282c45.886719 43.519531 107.882813 70.222656 176.121094 70.222656s130.234375-26.703125 176.121094-70.222656zm0 0" fill="#707789"/><path d="m432.121094 441.777344-24.238282-160.863282c-9.664062-64.121093-74.75-112.203124-151.882812-112.203124-.09375 0-.191406.003906-.285156.003906v343.28125c.09375 0 .1875.003906.285156.003906 68.238281 0 130.234375-26.703125 176.121094-70.222656zm0 0" fill="#636978"/><path d="m256 512c33.804688 0 66.070312-6.566406 95.617188-18.472656l-6.789063-77.011719c-5.652344-64.121094-43.71875-112.203125-88.828125-112.203125s-83.175781 48.082031-88.828125 112.203125l-6.789063 77.011719c29.546876 11.90625 61.8125 18.472656 95.617188 18.472656zm0 0" fill="#afb4c8"/><path d="m351.617188 493.527344-6.789063-77.011719c-5.652344-64.121094-43.71875-112.203125-88.828125-112.203125-.09375 0-.191406.003906-.285156.007812v207.675782c.09375 0 .1875.003906.285156.003906 33.804688 0 66.070312-6.566406 95.617188-18.472656zm0 0" fill="#9196aa"/><path d="m181.855469 178.902344c0 28.957031-23.472657 52.425781-52.429688 52.425781-28.953125 0-52.425781-23.46875-52.425781-52.425781 0-28.953125 23.472656-52.425782 52.425781-52.425782 28.957031 0 52.429688 23.472657 52.429688 52.425782zm0 0" fill="#707789"/><path d="m156.769531 178.902344c0 15.101562-12.242187 27.34375-27.34375 27.34375-15.097656 0-27.339843-12.242188-27.339843-27.34375 0-15.101563 12.242187-27.339844 27.339843-27.339844 15.101563 0 27.34375 12.238281 27.34375 27.339844zm0 0" fill="#9196aa"/><path d="m435 178.902344c0 28.957031-23.472656 52.425781-52.425781 52.425781-28.957031 0-52.429688-23.46875-52.429688-52.425781 0-28.953125 23.472657-52.425782 52.429688-52.425782 28.953125 0 52.425781 23.472657 52.425781 52.425782zm0 0" fill="#636978"/><path d="m409.914062 178.902344c0 15.101562-12.242187 27.34375-27.339843 27.34375-15.101563 0-27.34375-12.242188-27.34375-27.34375 0-15.101563 12.242187-27.339844 27.34375-27.339844 15.097656 0 27.339843 12.238281 27.339843 27.339844zm0 0" fill="#7e8596"/><path d="m409.941406 256.332031c0 85.015625-153.941406 116.667969-153.941406 116.667969s-153.941406-31.652344-153.941406-116.667969c0-85.019531 68.921875-153.941406 153.941406-153.941406s153.941406 68.921875 153.941406 153.941406zm0 0" fill="#fff"/><path d="m256 102.390625c-.097656 0-.191406.003906-.285156.003906v270.546875c.171875.035156.285156.058594.285156.058594s153.941406-31.652344 153.941406-116.667969c0-85.019531-68.921875-153.941406-153.941406-153.941406zm0 0" fill="#f2f6fc"/><path d="m305.242188 256.332031c0 85.015625-49.242188 116.667969-49.242188 116.667969s-49.242188-31.652344-49.242188-116.667969c0-85.019531 22.046876-153.941406 49.242188-153.941406s49.242188 68.921875 49.242188 153.941406zm0 0" fill="#dce1eb"/><path d="m256 102.390625c-.097656 0-.191406.011719-.285156.011719v270.40625c.183594.125.285156.191406.285156.191406s49.242188-31.648438 49.242188-116.667969-22.046876-153.941406-49.242188-153.941406zm0 0" fill="#cdd2e1"/><path d="m279.722656 382.890625-15.324218 5.890625c-5.40625 2.082031-11.390626 2.082031-16.796876 0l-15.324218-5.890625c-9.035156-3.476563-15-12.15625-15-21.839844 0-12.921875 10.476562-23.394531 23.398437-23.394531h30.648438c12.921875 0 23.398437 10.472656 23.398437 23.394531 0 9.679688-5.964844 18.363281-15 21.839844zm0 0" fill="#555a66"/><path d="m271.324219 337.65625h-15.609375v52.671875c2.941406.039063 5.890625-.46875 8.683594-1.542969l15.324218-5.894531c9.035156-3.476563 15-12.15625 15-21.835937 0-12.925782-10.476562-23.398438-23.398437-23.398438zm0 0" fill="#333940"/><path d="m183.683594 231.328125c0 8.476563-6.871094 15.347656-15.34375 15.347656-8.476563 0-15.347656-6.871093-15.347656-15.347656 0-8.472656 6.871093-15.34375 15.347656-15.34375 8.472656 0 15.34375 6.871094 15.34375 15.34375zm0 0" fill="#555a66"/><path d="m359.007812 231.328125c0 8.476563-6.871093 15.347656-15.347656 15.347656-8.472656 0-15.34375-6.871093-15.34375-15.347656 0-8.472656 6.871094-15.34375 15.34375-15.34375 8.476563 0 15.347656 6.871094 15.347656 15.34375zm0 0" fill="#333940"/></svg>