<svg height="512pt" viewBox="0 0 512 512.002" width="512pt" xmlns="http://www.w3.org/2000/svg"><path d="m512 256c0 141.386719-114.613281 256-256 256-141.382812 0-256-114.613281-256-256s114.617188-256 256-256c141.386719 0 256 114.613281 256 256zm0 0" fill="#1ea1e3"/><path d="m340.046875 210.988281-139.835937-139.835937 5.429687 435.882812c16.285156 3.25 33.121094 4.964844 50.359375 4.964844 141.386719 0 256-114.613281 256-256 0-10.496094-.644531-20.839844-1.871094-31.003906l-148-147.996094zm0 0" fill="#0053bf"/><path d="m334.046875 63.378906c19.761719 0 35.78125 16.019532 35.78125 35.777344v123.714844c0 39.519531-32.039063 71.558594-71.558594 71.558594v-195.273438c0-19.757812 16.019531-35.777344 35.777344-35.777344zm0 0" fill="#f2f6fc"/><path d="m334.359375 84.84375c12.460937 0 22.5625 10.101562 22.5625 22.5625v96.527344c0 24.921875-20.203125 45.128906-45.128906 45.128906v-141.65625c0-12.460938 10.101562-22.5625 22.566406-22.5625zm0 0" fill="#ffa426"/><path d="m177.953125 63.378906c-19.757813 0-35.777344 16.019532-35.777344 35.777344v123.714844c0 39.519531 32.039063 71.558594 71.558594 71.558594v-195.273438c0-19.757812-16.019531-35.777344-35.78125-35.777344zm0 0" fill="#fff"/><path d="m177.644531 84.84375c-12.460937 0-22.566406 10.101562-22.566406 22.5625v96.527344c0 24.921875 20.207031 45.128906 45.128906 45.128906v-141.65625c.003907-12.460938-10.101562-22.5625-22.5625-22.5625zm0 0" fill="#ffce00"/><path d="m256 512c46.015625 0 89.1875-12.148438 126.5-33.398438l-14.949219-135.070312c-7.097656-64.121094-54.898437-112.203125-111.550781-112.203125-56.648438 0-104.453125 48.082031-111.546875 112.203125l-14.949219 135.070312c37.3125 21.25 80.484375 33.398438 126.496094 33.398438zm0 0" fill="#ffdf57"/><path d="m382.5 478.601562-14.949219-135.070312c-7.097656-64.121094-54.898437-112.203125-111.550781-112.203125-.09375 0-.1875.007813-.285156.007813v280.660156c.09375 0 .191406.003906.285156.003906 46.015625 0 89.1875-12.148438 126.5-33.398438zm0 0" fill="#ffce00"/><path d="m256 512c26.171875 0 51.425781-3.9375 75.203125-11.234375l-3.042969-27.492187c-4.589844-41.476563-35.511718-72.582032-72.160156-72.582032-36.644531 0-67.566406 31.105469-72.160156 72.582032l-3.042969 27.492187c23.78125 7.296875 49.03125 11.234375 75.203125 11.234375zm0 0" fill="#ffce00"/><path d="m331.203125 500.765625-3.042969-27.492187c-4.589844-41.476563-35.511718-72.582032-72.160156-72.582032-.09375 0-.1875.007813-.285156.007813v111.300781c.09375 0 .191406.003906.285156.003906 26.171875-.003906 51.425781-3.941406 75.203125-11.238281zm0 0" fill="#fdba12"/><path d="m390.519531 304.3125c0-59.632812-60.226562-107.976562-134.519531-107.976562s-134.515625 48.34375-134.515625 107.976562c0 59.636719 60.222656 107.976562 134.515625 107.976562s134.519531-48.339843 134.519531-107.976562zm0 0" fill="#fff"/><path d="m256 196.339844c-.09375 0-.1875 0-.285156 0v215.949218c.09375 0 .191406.003907.285156.003907 74.292969 0 134.519531-48.34375 134.519531-107.976563 0-59.636718-60.226562-107.976562-134.519531-107.976562zm0 0" fill="#f2f6fc"/><path d="m187.164062 310.304688c0 8.066406-6.539062 14.605468-14.605468 14.605468s-14.605469-6.539062-14.605469-14.605468c0-8.066407 6.539063-14.605469 14.605469-14.605469s14.605468 6.539062 14.605468 14.605469zm0 0" fill="#555a66"/><path d="m354.046875 310.304688c0 8.066406-6.539063 14.605468-14.605469 14.605468s-14.605468-6.539062-14.605468-14.605468c0-8.066407 6.539062-14.605469 14.605468-14.605469s14.605469 6.539062 14.605469 14.605469zm0 0" fill="#333940"/><path d="m302.027344 366.753906c0-21.949218-20.609375-39.746094-46.027344-39.746094s-46.023438 17.796876-46.023438 39.746094c0 21.953125 20.605469 39.746094 46.023438 39.746094s46.027344-17.792969 46.027344-39.746094zm0 0" fill="#ffdf57"/><path d="m256 327.007812c-.09375 0-.1875.003907-.285156.003907v79.480469c.097656 0 .191406.007812.285156.007812 25.421875 0 46.027344-17.796875 46.027344-39.746094 0-21.953125-20.605469-39.746094-46.027344-39.746094zm0 0" fill="#ffce00"/><path d="m271.929688 368.027344-10.289063 3.957031c-3.628906 1.398437-7.648437 1.398437-11.28125 0l-10.289063-3.957031c-6.066406-2.332032-10.070312-8.164063-10.070312-14.664063 0-8.675781 7.035156-15.707031 15.710938-15.707031h20.578124c8.679688 0 15.710938 7.03125 15.710938 15.707031 0 6.5-4.003906 12.332031-10.070312 14.664063zm0 0" fill="#555a66"/><path d="m266.289062 337.65625h-10.574218v35.363281c2.007812.035157 4.019531-.300781 5.925781-1.035156l10.289063-3.957031c6.066406-2.332032 10.070312-8.164063 10.070312-14.664063 0-8.675781-7.03125-15.707031-15.710938-15.707031zm0 0" fill="#333940"/></svg>