<svg height="512pt" viewBox="0 0 511 512" width="512pt" xmlns="http://www.w3.org/2000/svg"><path d="m512.421875 255.960938c0 141.363281-114.597656 255.960937-255.960937 255.960937-141.363282 0-255.960938-114.597656-255.960938-255.960937 0-141.363282 114.597656-255.960938 255.960938-255.960938 141.363281 0 255.960937 114.597656 255.960937 255.960938zm0 0" fill="#1ea1e3"/><path d="m512.421875 255.960938c0-15.414063-1.367187-30.507813-3.976563-45.171876l-137.757812-137.757812-40.867188 187.589844-187.585937-187.589844-32.953125 108.324219 288.214844 288.214843c69.242187-45.808593 114.925781-124.371093 114.925781-213.609374zm0 0" fill="#0053bf"/><path d="m256.460938 511.921875c57.589843 0 110.738281-19.027344 153.503906-51.128906l-23.253906-179.925781c-8.289063-64.105469-64.105469-112.179688-130.25-112.179688-66.148438 0-121.964844 48.074219-130.25 112.179688l-23.257813 179.925781c42.769531 32.101562 95.914063 51.128906 153.507813 51.128906zm0 0" fill="#ffa300"/><path d="m409.964844 460.792969-23.253906-179.925781c-8.289063-64.105469-64.105469-112.179688-130.25-112.179688-.097657 0-.191407 0 0 .085938v343.226562c-.191407-.082031-.097657-.078125 0-.078125 57.589843 0 110.738281-19.027344 153.503906-51.128906zm0 0" fill="#ff9500"/><path d="m256.460938 511.921875c31.832031 0 62.300781-5.828125 90.414062-16.449219l-3.027344-23.425781c-5.558594-43.015625-43.007812-75.269531-87.386718-75.269531-44.382813 0-81.828126 32.253906-87.386719 75.265625l-3.027344 23.429687c28.113281 10.621094 58.582031 16.449219 90.414063 16.449219zm0 0" fill="#fe6a16"/><path d="m346.875 495.472656-3.027344-23.425781c-5.558594-43.015625-43.007812-75.269531-87.386718-75.269531-.097657 0-.191407.007812-.109376.027344v115.132812c-.082031-.023438.011719-.015625.109376-.015625 31.832031 0 62.300781-5.828125 90.414062-16.449219zm0 0" fill="#fa5d0f"/><path d="m94.917969 147.417969c0-26.128907 47.3125-74.386719 47.3125-74.386719s47.3125 48.257812 47.3125 74.386719c0 26.132812-21.179688 47.3125-47.3125 47.3125-26.128907 0-47.3125-21.179688-47.3125-47.3125zm0 0" fill="#ffa426"/><path d="m117.558594 147.417969c0-13.625 24.675781-42.722657 24.675781-42.722657s24.671875 29.097657 24.671875 42.722657c0 13.628906-11.046875 24.675781-24.671875 24.675781-13.628906 0-24.675781-11.046875-24.675781-24.675781zm0 0" fill="#f5d882"/><path d="m418 147.417969c0-26.128907-47.3125-74.386719-47.3125-74.386719s-47.3125 48.257812-47.3125 74.386719c0 26.132812 21.183594 47.3125 47.3125 47.3125s47.3125-21.179688 47.3125-47.3125zm0 0" fill="#ff9500"/><path d="m395.363281 147.417969c0-13.625-24.675781-42.722657-24.675781-42.722657s-24.675781 29.097657-24.675781 42.722657c0 13.628906 11.046875 24.675781 24.675781 24.675781s24.675781-11.046875 24.675781-24.675781zm0 0" fill="#f5cd62"/><path d="m410.375 256.289062c0 85.007813-153.914062 126.652344-153.914062 126.652344s-153.917969-41.644531-153.917969-126.652344c0-85.003906 68.910156-153.914062 153.917969-153.914062 85.003906 0 153.914062 68.910156 153.914062 153.914062zm0 0" fill="#fff"/><path d="m256.460938 102.375c-.097657 0-.191407.003906-.285157.003906l.285157 280.5625c.171874.046875 0 0 0 0s153.914062-41.644531 153.914062-126.652344c0-85.003906-68.910156-153.914062-153.914062-153.914062zm0 0" fill="#f2f6fc"/><path d="m256.460938 102.375c-83.558594 0-151.558594 66.582031-153.851563 149.585938h307.703125c-2.292969-83.003907-70.296875-149.585938-153.851562-149.585938zm0 0" fill="#fe6a16"/><path d="m256.726562 102.5c-.097656 0-.191406.003906-.289062.003906v149.582032h154.140625c-2.292969-83.003907-70.296875-149.585938-153.851563-149.585938zm0 0" fill="#fa5d0f"/><path d="m313.269531 277.089844c0 31.375-25.433593 56.8125-56.808593 56.8125s-56.808594-25.4375-56.808594-56.8125c0-31.371094 25.433594-56.808594 56.808594-56.808594s56.808593 25.4375 56.808593 56.808594zm0 0" fill="#fff"/><path d="m256.460938 220.28125c-.097657 0-.191407.007812 0 .128906v113.601563c-.191407-.117188-.097657-.113281 0-.113281 31.375 0 56.808593-25.433594 56.808593-56.808594 0-31.371094-25.433593-56.808594-56.808593-56.808594zm0 0" fill="#f2f6fc"/><path d="m184.15625 199.480469c0 8.476562-6.871094 15.34375-15.34375 15.34375s-15.34375-6.867188-15.34375-15.34375c0-8.472657 6.871094-15.339844 15.34375-15.339844s15.34375 6.867187 15.34375 15.339844zm0 0" fill="#555a66"/><path d="m359.449219 199.480469c0 8.476562-6.867188 15.34375-15.339844 15.34375s-15.34375-6.867188-15.34375-15.34375c0-8.472657 6.871094-15.339844 15.34375-15.339844s15.339844 6.867187 15.339844 15.339844zm0 0" fill="#333940"/><path d="m269.160156 233.425781h-25.398437c-10.710938 0-19.394531 8.679688-19.394531 19.390625 0 8.023438 4.941406 15.214844 12.433593 18.097656l12.660157 4.871094v48.292969h14v-48.292969l12.660156-4.871094c7.492187-2.882812 12.433594-10.074218 12.433594-18.097656-.003907-10.710937-8.683594-19.390625-19.394532-19.390625zm0 0" fill="#555a66"/><path d="m269.445312 233.425781h-12.984374v90.652344h7.285156v-48.292969l12.660156-4.871094c7.492188-2.882812 12.433594-10.074218 12.433594-18.097656-.003906-10.710937-8.683594-19.390625-19.394532-19.390625zm0 0" fill="#333940"/></svg>