<svg height="512pt" viewBox="0 0 512 512" width="512pt" xmlns="http://www.w3.org/2000/svg"><path d="m512 256c0 141.386719-114.613281 256-256 256s-256-114.613281-256-256 114.613281-256 256-256 256 114.613281 256 256zm0 0" fill="#1ea1e3"/><path d="m452 91.335938-59.679688 320.816406 34.5 34.5c52.277344-46.867188 85.179688-114.914063 85.179688-190.652344 0-62.714844-22.5625-120.148438-60-164.664062zm0 0" fill="#0053bf"/><path d="m452 420.664062v-329.328124c-18.40625-21.886719-40.410156-40.644532-65.105469-55.367188v207.082031c-31.945312-78.304687-79.011719-127.128906-130.894531-127.128906-87.300781 0-160.964844 138.222656-171.902344 322.550781l-.40625 6.855469c45.484375 41.417969 105.945313 66.671875 172.308594 66.671875 78.671875 0 149.039062-35.496094 196-91.335938zm0 0" fill="#dce1eb"/><path d="m386.894531 35.96875v207.082031c-31.945312-78.304687-79.011719-127.128906-130.894531-127.128906-.09375 0-.191406.007813-.285156.007813v396.066406c.09375 0 .1875.003906.285156.003906 78.671875 0 149.039062-35.496094 196-91.335938v-329.328124c-18.40625-21.886719-40.410156-40.644532-65.105469-55.367188zm0 0" fill="#cdd2e1"/><path d="m256 512c44.195312 0 85.773438-11.199219 122.054688-30.914062l-.800782-12.277344c-7.714844-118.371094-59.675781-207.136719-121.253906-207.136719s-113.539062 88.765625-121.253906 207.136719l-.800782 12.277344c36.28125 19.714843 77.859376 30.914062 122.054688 30.914062zm0 0" fill="#bec3d2"/><path d="m378.054688 481.085938-.800782-12.277344c-7.714844-118.371094-59.675781-207.136719-121.253906-207.136719-.09375 0-.191406.007813-.285156.007813v250.316406c.09375 0 .1875.003906.285156.003906 44.195312 0 85.773438-11.199219 122.054688-30.914062zm0 0" fill="#afb4c8"/><path d="m98.054688 214.367188c0-69.738282 70.714843-126.273438 157.945312-126.273438s157.945312 56.535156 157.945312 126.273438c0 69.742187-158.230468 157.464843-158.230468 157.464843s-157.660156-87.722656-157.660156-157.464843zm0 0" fill="#cdd2e1"/><path d="m255.714844 371.832031s158.230468-87.722656 158.230468-157.464843c0-69.738282-70.714843-126.273438-157.945312-126.273438-.097656 0-.191406.003906-.285156.003906v283.742188zm0 0" fill="#bec3d2"/><path d="m125.105469 214.367188c0-57.796876 58.601562-104.648438 130.894531-104.648438s130.894531 46.851562 130.894531 104.648438c0 57.796874-131.179687 94.570312-131.179687 94.570312s-130.609375-36.773438-130.609375-94.570312zm0 0" fill="#fff"/><path d="m255.714844 308.9375s131.179687-36.773438 131.179687-94.570312c0-57.792969-58.601562-104.648438-130.894531-104.648438-.09375 0-.191406.003906-.285156.003906zm0 0" fill="#f2f6fc"/><path d="m220.035156 164.121094c-7.941406-19.652344-31.992187-29.757813-53.71875-22.574219l-47.316406 19.859375c-2.121094 7.34375-15.996094 14.949219-15.996094 22.746094 0 19.148437 6.726563 37.160156 18.5625 52.867187l73.507813-24.308593c21.726562-7.183594 32.902343-28.9375 24.960937-48.589844zm0 0" fill="#cdd2e1"/><path d="m291.964844 164.121094c7.941406-19.652344 31.992187-29.757813 53.71875-22.574219l45.316406 19.859375c2.121094 7.34375 17.996094 14.949219 17.996094 22.746094 0 19.148437-6.726563 37.160156-18.5625 52.867187l-73.507813-24.308593c-21.726562-7.183594-32.902343-28.9375-24.960937-48.589844zm0 0" fill="#bec3d2"/><path d="m206.757812 171.9375c0 6.867188-5.566406 12.429688-12.429687 12.429688s-12.429687-5.5625-12.429687-12.429688c0-6.863281 5.566406-12.429688 12.429687-12.429688s12.429687 5.566407 12.429687 12.429688zm0 0" fill="#555a66"/><path d="m330.101562 171.9375c0 6.867188-5.566406 12.429688-12.429687 12.429688s-12.429687-5.5625-12.429687-12.429688c0-6.863281 5.566406-12.429688 12.429687-12.429688s12.429687 5.566407 12.429687 12.429688zm0 0" fill="#333940"/><path d="m262.65625 215 10.753906-4.136719c6.628906-2.550781 11.007813-8.921875 11.007813-16.027343 0-9.480469-7.6875-17.171876-17.171875-17.171876h-22.492188c-9.484375 0-17.171875 7.691407-17.171875 17.171876 0 7.105468 4.375 13.476562 11.007813 16.027343l10.753906 4.136719h-31.34375v14h76v-14zm0 0" fill="#555a66"/><path d="m294 215h-31.34375l10.753906-4.136719c6.628906-2.550781 11.007813-8.921875 11.007813-16.027343 0-9.480469-7.6875-17.171876-17.171875-17.171876h-11.53125v51.335938h38.285156zm0 0" fill="#333940"/></svg>