<svg height="512pt" viewBox="0 0 512 512" width="512pt" xmlns="http://www.w3.org/2000/svg"><path d="m512 256c0 141.386719-114.613281 256-256 256s-256-114.613281-256-256 114.613281-256 256-256 256 114.613281 256 256zm0 0" fill="#09ce67"/><path d="m507.996094 301.335938-143.910156-143.914063-8.761719 15.339844-105.324219-105.324219-100.414062 279.496094 159.535156 159.535156c101.332031-21.386719 180.570312-102.699219 198.875-205.132812zm0 0" fill="#1aad5c"/><path d="m150.550781 489.34375c32.15625 14.550781 67.855469 22.65625 105.449219 22.65625s73.292969-8.105469 105.449219-22.65625l-36.175781-124.507812h-138.546876zm0 0" fill="#ffa300"/><path d="m361.449219 489.34375-36.175781-124.507812h-69.558594v147.160156c.09375 0 .1875.003906.285156.003906 37.59375 0 73.292969-8.105469 105.449219-22.65625zm0 0" fill="#ff9500"/><path d="m287.339844 111.558594-34.226563-41.039063c-8.136719-9.757812-22.640625-11.070312-32.394531-2.933593-4.710938 3.925781-7.429688 9.339843-8.09375 14.984374-5.671875-.359374-11.484375 1.34375-16.195312 5.269532-9.753907 8.136718-11.070313 22.640625-2.933594 32.394531l1.316406 1.582031c-48.433594 22.9375-81.9375 72.261719-81.9375 129.414063 0 79.042969 64.078125 143.121093 143.121094 143.121093 79.046875 0 143.125-64.078124 143.125-143.121093 0-68.277344-47.8125-125.382813-111.78125-139.671875zm0 0" fill="#ffce00"/><path d="m287.339844 111.558594-31.625-37.921875v320.714843h.285156c79.046875 0 143.121094-64.078124 143.121094-143.121093 0-68.277344-47.8125-125.382813-111.78125-139.671875zm0 0" fill="#ffa300"/><path d="m305.699219 313.703125h-99.398438c-10.808593 0-19.574219-8.761719-19.574219-19.574219v-4.25c0-10.808594 8.765626-19.574218 19.574219-19.574218h99.398438c10.808593 0 19.574219 8.765624 19.574219 19.574218v4.25c0 10.8125-8.765626 19.574219-19.574219 19.574219zm0 0" fill="#fe6a16"/><path d="m305.699219 270.304688h-49.984375v43.398437h49.984375c10.808593 0 19.574219-8.761719 19.574219-19.574219v-4.25c0-10.808594-8.765626-19.574218-19.574219-19.574218zm0 0" fill="#f24500"/><path d="m182.398438 241.929688c0 9.058593-7.347657 16.402343-16.40625 16.402343-9.058594 0-16.40625-7.34375-16.40625-16.402343 0-9.0625 7.347656-16.40625 16.40625-16.40625 9.058593 0 16.40625 7.34375 16.40625 16.40625zm0 0" fill="#555a66"/><path d="m362.414062 241.929688c0 9.058593-7.347656 16.402343-16.40625 16.402343-9.058593 0-16.40625-7.34375-16.40625-16.402343 0-9.0625 7.347657-16.40625 16.40625-16.40625 9.058594 0 16.40625 7.34375 16.40625 16.40625zm0 0" fill="#333940"/></svg>