<svg height="512pt" viewBox="0 0 512 512" width="512pt" xmlns="http://www.w3.org/2000/svg"><path d="m512 256c0 141.386719-114.613281 256-256 256s-256-114.613281-256-256 114.613281-256 256-256 256 114.613281 256 256zm0 0" fill="#ffce00"/><path d="m271.457031 511.523438c134.183594-7.996094 240.542969-119.332032 240.542969-255.523438 0-13.621094-1.074219-26.988281-3.125-40.035156l-90.320312-90.320313-57.335938 76.886719-83.523438-83.519531-178.234374 154.476562 83.691406 83.695313-40.855469 25.179687zm0 0" fill="#ffa300"/><path d="m262 396.109375h-87.441406c-22.078125 0-40.859375-16.101563-44.230469-37.921875l-6.78125-43.902344c-4.882813-31.605468 23.613281-58.195312 54.804687-51.140625l83.648438 18.917969zm0 0" fill="#fff"/><path d="m262 292.003906h-118.847656c-30.007813 0-55.535156-21.882812-60.113282-51.539062l-9.21875-59.667969c-6.632812-42.957031 32.09375-79.097656 74.488282-69.507813l113.691406 25.710938zm0 0" fill="#fe6a16"/><path d="m250 396.109375h87.441406c22.078125 0 40.859375-16.101563 44.230469-37.921875l6.78125-43.902344c4.882813-31.605468-23.613281-58.195312-54.804687-51.140625l-83.648438 18.917969zm0 0" fill="#f2f6fc"/><path d="m250 292.003906h118.847656c30.007813 0 55.535156-21.882812 60.113282-51.539062l9.21875-59.667969c6.632812-42.957031-32.09375-79.097656-74.488282-69.507813l-113.691406 25.710938zm0 0" fill="#f24500"/><path d="m256.253906 417.285156h-.507812c-16.261719 0-29.441406-13.179687-29.441406-29.441406v-248.671875c0-16.261719 13.179687-29.441406 29.441406-29.441406h.507812c16.261719 0 29.441406 13.179687 29.441406 29.441406v248.671875c0 16.261719-13.179687 29.441406-29.441406 29.441406zm0 0" fill="#555a66"/><path d="m256.253906 109.730469h-.507812c-.089844 0-.175782.007812-.261719.007812v307.539063c.085937 0 .171875.007812.261719.007812h.507812c16.261719 0 29.441406-13.179687 29.441406-29.441406v-248.671875c0-16.261719-13.179687-29.441406-29.441406-29.441406zm0 0" fill="#333940"/><path d="m192 187c0 23.75-19.25 43-43 43s-43-19.25-43-43 19.25-43 43-43 43 19.25 43 43zm0 0" fill="#f24500"/><path d="m406 187c0 23.75-19.25 43-43 43s-43-19.25-43-43 19.25-43 43-43 43 19.25 43 43zm0 0" fill="#d13400"/></svg>