<svg height="512pt" viewBox="0 0 512 512" width="512pt" xmlns="http://www.w3.org/2000/svg"><path d="m512 256c0 141.386719-114.613281 256-256 256s-256-114.613281-256-256 114.613281-256 256-256 256 114.613281 256 256zm0 0" fill="#09ce67"/><path d="m509.652344 290.675781-213.28125-213.675781-164.371094 318.695312 116.171875 116.175782c2.601563.078125 5.210937.128906 7.828125.128906 129.621094 0 236.726562-96.34375 253.652344-221.324219zm0 0" fill="#1aad5c"/><path d="m315.261719 120.375c0 32.726562-26.535157 59.257812-59.261719 59.257812s-59.261719-26.53125-59.261719-59.257812c0-32.730469 26.535157-59.261719 59.261719-59.261719s59.261719 26.53125 59.261719 59.261719zm0 0" fill="#555a66"/><path d="m256 61.113281c-.171875 0-.34375.011719-.515625.015625v118.492188c.171875 0 .34375.011718.515625.011718 32.730469 0 59.261719-26.53125 59.261719-59.257812 0-32.730469-26.53125-59.261719-59.261719-59.261719zm0 0" fill="#333940"/><path d="m427.140625 277.746094c0 94.519531-76.621094 171.140625-171.140625 171.140625s-171.140625-76.621094-171.140625-171.140625c0-94.519532 76.621094-171.140625 171.140625-171.140625s171.140625 76.621093 171.140625 171.140625zm0 0" fill="#fe6a16"/><path d="m256 106.605469c-.171875 0-.34375.003906-.515625.003906v342.269531c.171875 0 .34375.007813.515625.007813 94.519531 0 171.140625-76.625 171.140625-171.140625 0-94.519532-76.621094-171.140625-171.140625-171.140625zm0 0" fill="#fa5d0f"/><g fill="#555a66"><path d="m150 270c0 9.941406-8.058594 18-18 18s-18-8.058594-18-18 8.058594-18 18-18 18 8.058594 18 18zm0 0"/><path d="m218 182c0 12.703125-10.296875 23-23 23s-23-10.296875-23-23 10.296875-23 23-23 23 10.296875 23 23zm0 0"/><path d="m214 361c0 11.597656-9.402344 21-21 21s-21-9.402344-21-21 9.402344-21 21-21 21 9.402344 21 21zm0 0"/></g><path d="m398 270c0 9.941406-8.058594 18-18 18s-18-8.058594-18-18 8.058594-18 18-18 18 8.058594 18 18zm0 0" fill="#333940"/><path d="m340 182c0 12.703125-10.296875 23-23 23s-23-10.296875-23-23 10.296875-23 23-23 23 10.296875 23 23zm0 0" fill="#333940"/><path d="m340 361c0 11.597656-9.402344 21-21 21s-21-9.402344-21-21 9.402344-21 21-21 21 9.402344 21 21zm0 0" fill="#333940"/></svg>