<svg height="512pt" viewBox="0 0 512 512" width="512pt" xmlns="http://www.w3.org/2000/svg"><path d="m512 256c0 141.386719-114.613281 256-256 256s-256-114.613281-256-256 114.613281-256 256-256 256 114.613281 256 256zm0 0" fill="#ffce00"/><path d="m511.960938 259.132812-122.316407-122.316406-15.664062 27.023438-73.132813-73.136719-21.894531 83.480469-172.230469-16.59375 104.066406 104.066406-71.378906-15.59375-87.261718 82.414062 105.875 105.875-18.613282 17.167969 52.351563 52.351563c20.527343 5.304687 42.050781 8.128906 64.238281 8.128906 140.335938 0 254.277344-112.929688 255.960938-252.867188zm0 0" fill="#ffa300"/><path d="m80.175781 328.476562h-28.027343v-26h15.234374l55.128907-71.589843 103.519531-13.15625 3.28125 25.789062-92.796875 11.796875zm0 0" fill="#636978"/><path d="m139.410156 451.519531-8.222656-24.664062 8.773438-2.921875-15.34375-67.027344 76.695312-43.023438 12.71875 22.675782-59.726562 33.507812 16.265624 71.070313zm0 0" fill="#636978"/><path d="m230.929688 212.867188-54.691407-46.214844-49.066406 6.332031-20.449219-15.394531 15.632813-20.773438 11.992187 9.027344 49.925782-6.445312 63.4375 53.609374zm0 0" fill="#636978"/><g fill="#555a66"><path d="m459.851562 328.476562h-28.027343l-56.339844-73.160156-92.796875-11.796875 3.28125-25.789062 103.519531 13.15625 55.128907 71.589843h15.234374zm0 0"/><path d="m372.589844 451.519531-31.160156-10.382812 16.265624-71.070313-59.726562-33.507812 12.71875-22.675782 76.695312 43.023438-15.34375 67.027344 8.773438 2.921875zm0 0"/><path d="m281.070312 212.867188-16.78125-19.859376 63.4375-53.609374 49.925782 6.445312 11.992187-9.027344 15.632813 20.773438-20.449219 15.394531-49.066406-6.332031zm0 0"/><path d="m315.0625 129.136719c0 32.617187-26.441406 59.0625-59.0625 59.0625s-59.0625-26.445313-59.0625-59.0625c0-32.621094 26.441406-59.0625 59.0625-59.0625s59.0625 26.441406 59.0625 59.0625zm0 0"/></g><path d="m256 70.074219c-.375 0-.746094.019531-1.121094.027343v118.070313c.375.007813.746094.027344 1.121094.027344 32.617188 0 59.0625-26.441407 59.0625-59.0625 0-32.621094-26.445312-59.0625-59.0625-59.0625zm0 0" fill="#333940"/><path d="m366.636719 280.535156c0 61.105469-49.53125 110.640625-110.636719 110.640625s-110.636719-49.535156-110.636719-110.640625c0-61.101562 49.53125-110.636718 110.636719-110.636718s110.636719 49.535156 110.636719 110.636718zm0 0" fill="#555a66"/><path d="m256 169.898438c-.375 0-.746094.007812-1.121094.011718v221.25c.375.003906.746094.015625 1.121094.015625 61.105469 0 110.636719-49.535156 110.636719-110.640625 0-61.101562-49.53125-110.636718-110.636719-110.636718zm0 0" fill="#333940"/></svg>