<svg height="512pt" viewBox="0 0 512 512" width="512pt" xmlns="http://www.w3.org/2000/svg"><path d="m512 256c0 141.386719-114.613281 256-256 256s-256-114.613281-256-256 114.613281-256 256-256 256 114.613281 256 256zm0 0" fill="#09ce67"/><path d="m511.898438 263.113281-170.082032-170.082031-50.59375 299.570312 87.890625 87.890626c77.253907-42.457032 130.226563-123.621094 132.785157-217.378907zm0 0" fill="#1aad5c"/><path d="m476.402344 354.839844c-14.019532-133.507813-108.472656-233.621094-220.402344-233.621094s-206.382812 100.113281-220.402344 233.621094l-2.792968 26.59375c43.886718 77.925781 127.386718 130.566406 223.195312 130.566406s179.308594-52.640625 223.195312-130.566406zm0 0" fill="#1ea1e3"/><path d="m476.402344 354.839844c-14.019532-133.507813-108.472656-233.621094-220.402344-233.621094-.171875 0-.34375.007812-.515625.007812v390.769532c.171875 0 .34375.003906.515625.003906 95.808594 0 179.308594-52.640625 223.195312-130.566406zm0 0" fill="#0053bf"/><path d="m256 52.605469c-98.859375 0-179 148.09375-179 330.777343 0 19.890626.953125 39.371094 2.773438 58.296876 45.898437 43.578124 107.9375 70.320312 176.226562 70.320312s130.328125-26.742188 176.226562-70.320312c1.820313-18.921876 2.773438-38.40625 2.773438-58.296876 0-182.683593-80.140625-330.777343-179-330.777343zm0 0" fill="#fe6a16"/><path d="m256 52.605469c-.171875 0-.34375.011719-.515625.011719v459.375c.171875 0 .34375.007812.515625.007812 68.289062 0 130.328125-26.742188 176.226562-70.320312 1.820313-18.925782 2.773438-38.40625 2.773438-58.296876 0-182.683593-80.140625-330.777343-179-330.777343zm0 0" fill="#f24500"/><path d="m368.75 165.78125c0-35.660156-27.785156-64.5625-62.058594-64.5625-20.945312 0-39.453125 10.804688-50.691406 27.34375-11.238281-16.535156-29.746094-27.34375-50.691406-27.34375-34.273438 0-62.058594 28.902344-62.058594 64.5625 0 20.027344 8.769531 37.917969 22.53125 49.753906 15.203125 13.078125 28.59375 28.046875 40.136719 44.445313 11.289062 16.035156 29.511719 26.445312 50.082031 26.445312 20.566406 0 38.792969-10.410156 50.078125-26.445312 11.542969-16.398438 24.9375-31.367188 40.140625-44.445313 13.761719-11.835937 22.53125-29.726562 22.53125-49.753906zm0 0" fill="#fff"/><path d="m306.691406 101.21875c-20.945312 0-39.453125 10.808594-50.691406 27.34375-.167969-.25-.34375-.492188-.515625-.738281v158.59375c.171875.003906.34375.007812.515625.007812 20.566406 0 38.792969-10.410156 50.078125-26.445312 11.546875-16.398438 24.9375-31.367188 40.140625-44.445313 13.761719-11.835937 22.527344-29.726562 22.527344-49.753906.003906-35.660156-27.78125-64.5625-62.054688-64.5625zm0 0" fill="#f2f6fc"/><path d="m209.082031 148.613281c0 8.75-7.09375 15.839844-15.84375 15.839844s-15.84375-7.089844-15.84375-15.839844 7.09375-15.84375 15.84375-15.84375 15.84375 7.09375 15.84375 15.84375zm0 0" fill="#555a66"/><path d="m334.605469 148.613281c0 8.75-7.09375 15.839844-15.84375 15.839844s-15.84375-7.089844-15.84375-15.839844 7.09375-15.84375 15.84375-15.84375 15.84375 7.09375 15.84375 15.84375zm0 0" fill="#333940"/><path d="m254.421875 241.644531c-22.550781 0-40.828125-18.277343-40.828125-40.828125v-20.953125c0-22.546875 18.277344-40.828125 40.828125-40.828125 22.546875 0 40.828125 18.28125 40.828125 40.828125v20.953125c0 22.546875-18.28125 40.828125-40.828125 40.828125zm0 0" fill="#555a66"/><path d="m255.484375 139.0625v102.554688c22.054687-.566407 39.765625-18.609376 39.765625-40.800782v-20.953125c0-22.191406-17.710938-40.234375-39.765625-40.800781zm0 0" fill="#333940"/><path d="m254.421875 206.152344c-22.550781 0-40.828125-18.277344-40.828125-40.828125v-20.953125c0-22.546875 18.277344-40.828125 40.828125-40.828125 22.546875 0 40.828125 18.28125 40.828125 40.828125v20.953125c0 22.550781-18.28125 40.828125-40.828125 40.828125zm0 0" fill="#ffce00"/><path d="m255.484375 103.570312v102.554688c22.054687-.566406 39.765625-18.609375 39.765625-40.800781v-20.953125c0-22.191406-17.710938-40.234375-39.765625-40.800782zm0 0" fill="#ffa300"/></svg>