<svg height="512pt" viewBox="0 0 512 512" width="512pt" xmlns="http://www.w3.org/2000/svg"><path d="m512 256c0 141.386719-114.613281 256-256 256s-256-114.613281-256-256 114.613281-256 256-256 256 114.613281 256 256zm0 0" fill="#09ce67"/><path d="m507.914062 301.761719-196.378906-196.382813-225.835937 252.792969 153.25 153.25c5.636719.371094 11.320312.578125 17.050781.578125 125.765625 0 230.34375-90.691406 251.914062-210.238281zm0 0" fill="#1aad5c"/><path d="m291.101562 92.925781c-7.53125 28.871094-33.78125 50.183594-65.015624 50.183594h-4.894532c-23.941406 0-43.347656 19.40625-43.347656 43.347656v36.363281h87.871094c37.238281 0 68.339844-29.757812 68.441406-66.996093.082031-28.683594-17.816406-53.179688-43.054688-62.898438zm0 0" fill="#fe6a16"/><path d="m291.101562 92.925781c-4.988281 19.121094-18.195312 34.921875-35.617187 43.414063v86.480468h10.230469c37.238281 0 68.339844-29.757812 68.441406-66.996093.082031-28.683594-17.816406-53.179688-43.054688-62.898438zm0 0" fill="#dd5410"/><path d="m330.738281 288.054688h-149.476562c-28.144531 0-50.960938-22.816407-50.960938-50.960938s22.816407-50.957031 50.960938-50.957031h149.476562c28.144531 0 50.960938 22.8125 50.960938 50.957031s-22.816407 50.960938-50.960938 50.960938zm0 0" fill="#dd5410"/><path d="m330.738281 186.136719h-75.253906v101.917969h75.253906c28.144531 0 50.960938-22.816407 50.960938-50.960938s-22.816407-50.957031-50.960938-50.957031zm0 0" fill="#b54310"/><path d="m388.054688 375.472656h-264.109376c-28.144531 0-50.960937-22.816406-50.960937-50.960937s22.816406-50.957031 50.960937-50.957031h264.109376c28.144531 0 50.960937 22.8125 50.960937 50.957031s-22.816406 50.960937-50.960937 50.960937zm0 0" fill="#fe6a16"/><path d="m388.054688 273.554688h-132.570313v101.917968h132.570313c28.144531 0 50.960937-22.816406 50.960937-50.960937s-22.816406-50.957031-50.960937-50.957031zm0 0" fill="#dd5410"/></svg>