<svg height="512pt" viewBox="0 0 512 512" width="512pt" xmlns="http://www.w3.org/2000/svg"><path d="m512 256c0 141.386719-114.613281 256-256 256s-256-114.613281-256-256 114.613281-256 256-256 256 114.613281 256 256zm0 0" fill="#1ea1e3"/><path d="m274.402344 511.335938c124.089844-8.816407 223.738281-106.0625 236.269531-229.089844l-215.097656-215.097656-107.46875 93.050781 61.5 61.496093-89.605469 84.050782 80.476562 80.476562-33.84375 57.34375zm0 0" fill="#0053bf"/><path d="m276.304688 60h-.15625c-4.585938 10.398438-14.980469 17.660156-27.074219 17.660156h-1.457031c-22.921876 0-41.5 18.582032-41.5 41.5h70.1875c16.335937 0 29.582031-13.242187 29.582031-29.578125 0-16.339843-13.246094-29.582031-29.582031-29.582031zm0 0" fill="#fff"/><path d="m276.304688 60h-.15625c-3.71875 8.4375-11.261719 14.804688-20.433594 16.910156v42.25h20.589844c16.335937 0 29.582031-13.242187 29.582031-29.582031 0-16.335937-13.246094-29.578125-29.582031-29.578125zm0 0" fill="#f2f6fc"/><path d="m305.367188 443.566406h-98.734376l-28.515624-162.535156h155.765624zm0 0" fill="#ffa300"/><path d="m333.882812 281.03125h-78.167968v162.535156h49.652344zm0 0" fill="#ffa300"/><path d="m300.1875 172.082031h-88.375c-16.335938 0-29.582031-13.246093-29.582031-29.582031s13.246093-29.582031 29.582031-29.582031h88.375c16.339844 0 29.582031 13.246093 29.582031 29.582031s-13.242187 29.582031-29.582031 29.582031zm0 0" fill="#dbeeff"/><path d="m300.1875 112.917969h-44.472656v59.164062h44.472656c16.339844 0 29.582031-13.246093 29.582031-29.582031s-13.242187-29.582031-29.582031-29.582031zm0 0" fill="#bfe1ff"/><path d="m316.5 250h-121c-22.367188 0-40.5-18.132812-40.5-40.5s18.132812-40.5 40.5-40.5h121c22.367188 0 40.5 18.132812 40.5 40.5s-18.132812 40.5-40.5 40.5zm0 0" fill="#fff"/><path d="m316.5 169h-60.785156v81h60.785156c22.367188 0 40.5-18.132812 40.5-40.5s-18.132812-40.5-40.5-40.5zm0 0" fill="#f2f6fc"/><path d="m160 234.917969h192v70.828125h-192zm0 0" fill="#ffce00"/><path d="m255.714844 234.917969h96.285156v70.828125h-96.285156zm0 0" fill="#ffa300"/></svg>