<svg height="512pt" viewBox="0 0 512 512" width="512pt" xmlns="http://www.w3.org/2000/svg"><path d="m512 256c0 141.386719-114.613281 256-256 256s-256-114.613281-256-256 114.613281-256 256-256 256 114.613281 256 256zm0 0" fill="#fe6a16"/><path d="m511.882812 263.515625-129.191406-129.191406-32.273437 247.117187 70.414062 70.414063c53.957031-45.457031 88.871094-112.792969 91.050781-188.339844zm0 0" fill="#d84707"/><path d="m256 512c74.847656 0 142.1875-32.128906 189-83.335938l-24.035156-202.386718c-10.40625-87.601563-80.480469-153.292969-163.527344-153.292969s-153.121094 65.691406-163.523438 153.292969l-24.363281 205.125c46.691407 49.613281 112.945313 80.597656 186.449219 80.597656zm0 0" fill="#dce1eb"/><path d="m420.964844 226.277344c-10.40625-87.601563-80.480469-153.292969-163.527344-153.292969-.652344 0-1.300781.015625-1.953125.023437v438.984376c.171875 0 .34375.007812.515625.007812 74.847656 0 142.1875-32.128906 189-83.335938zm0 0" fill="#cdd2e1"/><path d="m297 206.648438h-82c-22.644531 0-41 18.355468-41 41 0 22.644531 18.355469 41 41 41s41-18.355469 41-41c0 22.644531 18.355469 41 41 41s41-18.355469 41-41c0-22.644532-18.355469-41-41-41zm0 0" fill="#fff"/><path d="m297 206.648438h-41.515625v47.484374c.335937-2.113281.515625-4.277343.515625-6.484374 0 22.644531 18.355469 41 41 41s41-18.355469 41-41c0-22.644532-18.355469-41-41-41zm0 0" fill="#f2f6fc"/><path d="m22.023438 360c39.867187 89.554688 129.625 152 233.976562 152s194.109375-62.445312 233.976562-152zm0 0" fill="#1ea1e3"/><path d="m255.484375 360v151.996094c.171875 0 .34375.003906.515625.003906 104.351562 0 194.109375-62.445312 233.976562-152zm0 0" fill="#0053bf"/><path d="m274.480469 234.269531-11.9375 4.59375c-4.210938 1.617188-8.875 1.617188-13.085938 0l-11.9375-4.59375c-7.039062-2.707031-11.683593-9.46875-11.683593-17.011719 0-10.066406 8.160156-18.226562 18.226562-18.226562h23.875c10.066406 0 18.226562 8.160156 18.226562 18.226562 0 7.542969-4.644531 14.304688-11.683593 17.011719zm0 0" fill="#555a66"/><path d="m267.9375 199.03125h-12.453125v41.023438c2.390625.066406 4.789063-.320313 7.058594-1.191407l11.9375-4.59375c7.039062-2.707031 11.683593-9.46875 11.683593-17.011719 0-10.066406-8.160156-18.226562-18.226562-18.226562zm0 0" fill="#333940"/><path d="m183.683594 200.882812c0 8.476563-6.871094 15.347657-15.34375 15.347657-8.476563 0-15.347656-6.871094-15.347656-15.347657 0-8.472656 6.871093-15.34375 15.347656-15.34375 8.472656 0 15.34375 6.871094 15.34375 15.34375zm0 0" fill="#555a66"/><path d="m359.007812 200.882812c0 8.476563-6.871093 15.347657-15.347656 15.347657-8.472656 0-15.34375-6.871094-15.34375-15.347657 0-8.472656 6.871094-15.34375 15.34375-15.34375 8.476563 0 15.347656 6.871094 15.347656 15.34375zm0 0" fill="#333940"/><path d="m297 225.824219h89v19h-89zm0 0" fill="#9196aa"/><path d="m294.183594 275.945312 3.179687-18.730468 82.292969 13.972656-3.179688 18.730469zm0 0" fill="#9196aa"/><g fill="#afb4c8"><path d="m126 225.824219h89v19h-89zm0 0"/><path d="m130.242188 271.5625 84.402343-14.339844 3.179688 18.734375-84.402344 14.339844zm0 0"/></g></svg>