<svg height="512pt" viewBox="0 0 512 512" width="512pt" xmlns="http://www.w3.org/2000/svg"><path d="m512 256c0 141.386719-114.613281 256-256 256s-256-114.613281-256-256 114.613281-256 256-256 256 114.613281 256 256zm0 0" fill="#fe6a16"/><path d="m512 256c0-7.082031-.300781-14.089844-.863281-21.027344l-105.21875-105.21875-130.207031 104.835938-107.898438-107.894532-61.316406 62.984376 284.101562 284.101562c72.859375-45.128906 121.402344-125.777344 121.402344-217.78125zm0 0" fill="#d84707"/><path d="m182.5 203.5h-44c-24.300781 0-44-19.699219-44-44s19.699219-44 44-44 44 19.699219 44 44zm0 0" fill="#fff"/><path d="m158.640625 179.640625h-20.140625c-11.125 0-20.140625-9.015625-20.140625-20.140625 0-11.121094 9.019531-20.140625 20.140625-20.140625 11.125 0 20.140625 9.019531 20.140625 20.140625zm0 0" fill="#dce1eb"/><path d="m329.5 203.5h44c24.300781 0 44-19.699219 44-44s-19.699219-44-44-44-44 19.699219-44 44zm0 0" fill="#f2f6fc"/><path d="m353.359375 179.640625h20.140625c11.125 0 20.140625-9.015625 20.140625-20.140625 0-11.121094-9.019531-20.140625-20.140625-20.140625-11.125 0-20.140625 9.019531-20.140625 20.140625zm0 0" fill="#cdd2e1"/><path d="m256 512c61.164062 0 117.308594-21.464844 161.34375-57.253906l-27.0625-257.085938c-3.570312-33.914062-32.167969-59.660156-66.269531-59.660156h-136.023438c-34.101562 0-62.699219 25.746094-66.269531 59.660156l-27.0625 257.085938c44.035156 35.789062 100.179688 57.253906 161.34375 57.253906zm0 0" fill="#e9edf5"/><path d="m417.34375 454.746094-27.0625-257.085938c-3.570312-33.914062-32.167969-59.660156-66.269531-59.660156h-68.296875v373.996094c.09375 0 .1875.003906.285156.003906 61.164062 0 117.308594-21.464844 161.34375-57.253906zm0 0" fill="#dce1eb"/><path d="m320.1875 307.6875c0 35.453125-28.738281 64.191406-64.1875 64.191406s-64.1875-28.738281-64.1875-64.191406c0-35.449219 28.738281-64.1875 64.1875-64.1875s64.1875 28.738281 64.1875 64.1875zm0 0" fill="#fff"/><path d="m256 243.5c-.097656 0-.191406.007812-.285156.007812v128.363282c.09375 0 .1875.007812.285156.007812 35.449219 0 64.1875-28.738281 64.1875-64.191406 0-35.449219-28.738281-64.1875-64.1875-64.1875zm0 0" fill="#f2f6fc"/><path d="m271.929688 280.371094-10.289063 3.960937c-3.632813 1.394531-7.652344 1.394531-11.28125 0l-10.289063-3.960937c-6.066406-2.332032-10.070312-8.160156-10.070312-14.660156 0-8.679688 7.035156-15.710938 15.710938-15.710938h20.578124c8.679688 0 15.710938 7.035156 15.710938 15.710938 0 6.5-4.003906 12.328124-10.070312 14.660156zm0 0" fill="#555a66"/><path d="m266.289062 250h-10.574218v35.363281c2.007812.039063 4.019531-.300781 5.925781-1.03125l10.289063-3.960937c6.066406-2.332032 10.070312-8.160156 10.070312-14.660156 0-8.675782-7.035156-15.710938-15.710938-15.710938zm0 0" fill="#333940"/><path d="m187.164062 222.5c0 8.066406-6.539062 14.605469-14.605468 14.605469s-14.605469-6.539063-14.605469-14.605469 6.539063-14.605469 14.605469-14.605469 14.605468 6.539063 14.605468 14.605469zm0 0" fill="#555a66"/><path d="m354.046875 222.5c0 8.066406-6.539063 14.605469-14.605469 14.605469s-14.605468-6.539063-14.605468-14.605469 6.539062-14.605469 14.605468-14.605469 14.605469 6.539063 14.605469 14.605469zm0 0" fill="#333940"/></svg>