<svg height="512pt" viewBox="0 0 512 512" width="512pt" xmlns="http://www.w3.org/2000/svg"><path d="m511.730469 255.867188c0 141.308593-114.554688 255.863281-255.863281 255.863281-141.3125 0-255.867188-114.554688-255.867188-255.863281 0-141.3125 114.554688-255.867188 255.867188-255.867188 141.308593 0 255.863281 114.554688 255.863281 255.867188zm0 0" fill="#ffce00"/><path d="m511.730469 255.867188c0-1.917969-.03125-3.828126-.070313-5.738282l-141.566406-141.566406-12.945312 290.75 57.328124 57.328125c59.242188-46.859375 97.253907-119.375 97.253907-200.773437zm0 0" fill="#ffa300"/><path d="m255.867188 59.96875c-120.058594 0-217.386719 145.984375-217.386719 326.0625 0 1.632812.023437 3.253906.039062 4.878906 45.164063 72.535156 125.609375 120.820313 217.347657 120.820313 91.734374 0 172.179687-48.285157 217.34375-120.820313.015624-1.625.042968-3.246094.042968-4.878906 0-180.078125-97.328125-326.0625-217.386718-326.0625zm0 0" fill="#555a66"/><path d="m255.867188 59.96875v452.03125c-.191407-.269531-.097657-.269531 0-.269531 91.734374 0 172.179687-48.285157 217.34375-120.820313.015624-1.625.042968-3.246094.042968-4.878906 0-180.078125-97.328125-326.0625-217.386718-326.0625zm0 0" fill="#333940"/><path d="m110.960938 466.75c41.195312 28.367188 91.105468 44.980469 144.90625 44.980469 53.796874 0 103.710937-16.613281 144.902343-44.980469l-10.015625-239.507812c-3.253906-43.527344-39.519531-77.183594-83.167968-77.183594-19.472657 0-37.460938 6.714844-51.71875 17.996094-14.257813-11.28125-32.25-17.996094-51.71875-17.996094-43.648438 0-79.914063 33.65625-83.167969 77.183594zm0 0" fill="#e9edf5"/><path d="m400.769531 466.75-10.015625-239.507812c-3.253906-43.527344-39.519531-77.183594-83.167968-77.183594-19.472657 0-37.460938 6.714844-51.71875 17.996094-.09375-.074219-.191407-.140626 0-.152344v343.890625c-.191407-.0625-.09375-.0625 0-.0625 53.796874 0 103.710937-16.613281 144.902343-44.980469zm0 0" fill="#dce1eb"/><path d="m187.066406 222.382812c0 8.0625-6.535156 14.597657-14.597656 14.597657s-14.597656-6.535157-14.597656-14.597657 6.535156-14.597656 14.597656-14.597656 14.597656 6.535156 14.597656 14.597656zm0 0" fill="#555a66"/><path d="m353.863281 222.382812c0 8.0625-6.539062 14.597657-14.601562 14.597657s-14.597657-6.535157-14.597657-14.597657 6.535157-14.597656 14.597657-14.597656 14.601562 6.535156 14.601562 14.597656zm0 0" fill="#333940"/><path d="m255.867188 291.328125-27.175782-54.347656h54.347656zm0 0" fill="#fe6a16"/><path d="m255.867188 291.328125 27.171874-54.347656h-27.171874zm0 0" fill="#fa5d0f"/></svg>