<svg xmlns="http://www.w3.org/2000/svg" viewBox="0 0 64 64"><defs><style>.a{fill:#ffd42a;}.b{fill:#ffbc2a;}.c{fill:#fff;}.d{fill:#1a1a1a;}.e,.f{fill:none;stroke-linecap:round;stroke-linejoin:round;stroke-width:4px;}.e{stroke:#1a1a1a;}.f{stroke:#ffbc2a;}</style></defs><circle class="a" cx="32" cy="32" r="30.45"/><path class="b" d="M11.33,9.68A30.42,30.42,0,1,0,58.46,47q-.84.81-1.74,1.53c-.8.63-1.62,1.22-2.48,1.77s-1.73,1-2.64,1.52a21.53,21.53,0,0,1-2.77,1.25c-.94.38-1.91.71-2.89,1s-2,.49-3,.66a25.06,25.06,0,0,1-3,.36c-.72,0-1.44.09-2.16.09-1,0-2-.06-3-.16s-2-.25-3-.45A28.07,28.07,0,0,1,26,52.75a27.6,27.6,0,0,1-2.74-1.32c-.89-.49-1.76-1-2.6-1.59A30,30,0,0,1,18.21,48,29.06,29.06,0,0,1,16,45.92c-.7-.73-1.37-1.49-2-2.28S12.77,42,12.22,41.16a27.41,27.41,0,0,1-1.52-2.64c-.46-.9-.87-1.84-1.24-2.78s-.71-1.91-1-2.89a28.21,28.21,0,0,1-.67-3c-.18-1-.28-2-.36-3-.06-.71-.08-1.43-.08-2.15q0-1.5.15-3t.45-3c.2-1,.46-2,.76-3s.65-1.92,1-2.86A21.63,21.63,0,0,1,11,10.1l.24-.39Z"/><path class="c" d="M21.09,27.87a7.14,7.14,0,0,0,14,2.8,6.86,6.86,0,0,0,.13-1.28A6.51,6.51,0,0,0,35,27.87Z"/><path class="d" d="M30,27.87a3.19,3.19,0,0,0-.08.62,2.68,2.68,0,0,0,5.36,0h0a2.16,2.16,0,0,0-.09-.62Z"/><path class="c" d="M44.3,27.87a7.16,7.16,0,0,0,14,3,6.9,6.9,0,0,0,0-3Z"/><path class="d" d="M53.25,27.87a2.16,2.16,0,0,0-.09.62,2.7,2.7,0,0,0,5.39.06h0a2.23,2.23,0,0,0-.09-.63Z"/><path class="e" d="M44.59,47.05s-6.93-6.43-13.38,0"/><path class="f" d="M21.55,24.17h17.5"/><path class="f" d="M39,24.17H56.55"/></svg>