<svg xmlns="http://www.w3.org/2000/svg" viewBox="0 0 64 64"><defs><style>.a{fill:#ffd42a;}.b{fill:#ffbc2a;}.c{fill:#fff;}.d{fill:#1a1a1a;}.e{fill:none;stroke:#1a1a1a;stroke-linecap:round;stroke-linejoin:round;stroke-width:4px;}</style></defs><circle class="a" cx="32" cy="32" r="30.45"/><path class="b" d="M11.33,9.68A30.42,30.42,0,1,0,58.47,47q-.84.81-1.74,1.53c-.8.63-1.62,1.22-2.48,1.77s-1.73,1-2.64,1.52a20.61,20.61,0,0,1-2.77,1.24,27.42,27.42,0,0,1-2.89,1,28.17,28.17,0,0,1-3,.66,25.08,25.08,0,0,1-3,.37c-.72,0-1.44.08-2.16.08a29.83,29.83,0,0,1-3-.15c-1-.11-2-.26-3-.46a29.63,29.63,0,0,1-2.95-.75,26.46,26.46,0,0,1-2.86-1,27.6,27.6,0,0,1-2.74-1.32,27.81,27.81,0,0,1-2.6-1.59C19.8,49.25,19,48.65,18.22,48A29.19,29.19,0,0,1,16,45.92c-.71-.73-1.37-1.49-2-2.28a27.08,27.08,0,0,1-1.76-2.48,28.68,28.68,0,0,1-1.52-2.64,30.13,30.13,0,0,1-1.24-2.78,29,29,0,0,1-1-2.89,27.16,27.16,0,0,1-.67-3q-.25-1.5-.36-3c-.06-.71-.08-1.43-.08-2.15q0-1.5.15-3t.45-3c.2-1,.46-2,.76-3s.65-1.92,1-2.86a21.59,21.59,0,0,1,1.33-2.74l.24-.39Z"/><path class="c" d="M20.42,22.05a7,7,0,0,0-.17,1.5,7.16,7.16,0,0,0,14.3,0A7.06,7.06,0,0,0,34.38,22Z"/><path class="d" d="M29.36,22.05a2.72,2.72,0,0,0-.08.63,2.67,2.67,0,0,0,5.34,0h0a2.26,2.26,0,0,0-.07-.63Z"/><path class="c" d="M43.64,22.05a7.68,7.68,0,0,0-.18,1.5,7.16,7.16,0,0,0,14.32,0A7.78,7.78,0,0,0,57.6,22Z"/><path class="d" d="M52.55,22.05a2.72,2.72,0,0,0-.08.63,2.68,2.68,0,0,0,5.35,0h0a2.72,2.72,0,0,0-.08-.63Z"/><path class="e" d="M39.3,37.21s7.33-2.91,8.59-.76-6.06,4.29-3.66,8.1-.63,3.66-3.16,2.65l-2.53-1"/></svg>