<svg xmlns="http://www.w3.org/2000/svg" viewBox="0 0 64 64"><defs><style>.a{fill:#ffd42a;}.b{fill:#ffbc2a;}.c{fill:#1a1a1a;}.d{fill:#fff;}.e{fill:#f55;}</style></defs><circle class="a" cx="32" cy="32" r="30.45"/><path class="b" d="M11.33,9.68A30.43,30.43,0,1,0,58.47,47c-.56.53-1.14,1-1.74,1.52a26.5,26.5,0,0,1-2.47,1.77c-.86.55-1.74,1.06-2.64,1.52s-1.83.87-2.78,1.24A29.64,29.64,0,0,1,46,54a30.33,30.33,0,0,1-3,.67c-1,.17-2,.29-3,.37-.72.05-1.43.07-2.15.07-1,0-2,0-3-.15s-2-.25-3-.45-2-.46-3-.76-1.92-.65-2.86-1-1.85-.84-2.74-1.33a27.66,27.66,0,0,1-2.59-1.59A27,27,0,0,1,18.2,48,29.8,29.8,0,0,1,14,43.6c-.63-.79-1.22-1.62-1.77-2.47s-1-1.74-1.51-2.64-.88-1.84-1.25-2.78a29.64,29.64,0,0,1-1-2.89,30.28,30.28,0,0,1-.66-3,28,28,0,0,1-.37-3c-.05-.72-.08-1.43-.08-2.15a28,28,0,0,1,.16-3,30.33,30.33,0,0,1,.45-3,29.63,29.63,0,0,1,.75-2.95,28.76,28.76,0,0,1,1-2.86,27.6,27.6,0,0,1,1.32-2.74l.24-.4Z"/><path class="c" d="M52.3,32.79a20.3,20.3,0,0,1-40.6,0H52.3Z"/><path class="c" d="M18.78,32.79H11.7a20.3,20.3,0,0,0,40.6,0H45.21v3.59a4.6,4.6,0,0,1-2.83,4.27,4.5,4.5,0,0,1-1.81.37H23.43a4.71,4.71,0,0,1-3.29-1.36,4.59,4.59,0,0,1-1-1.47,4.76,4.76,0,0,1-.37-1.81Z"/><path class="d" d="M18.78,32.79v3.59a4.76,4.76,0,0,0,.37,1.81,4.59,4.59,0,0,0,1,1.47A4.71,4.71,0,0,0,23.43,41H40.57a4.71,4.71,0,0,0,3.29-1.36,4.59,4.59,0,0,0,1.35-3.28V32.79H18.78Z"/><path class="e" d="M38.38,49.75l-.06-.26a5,5,0,0,0-.21-.54,5.12,5.12,0,0,0-.27-.52c-.1-.17-.21-.33-.32-.49a5.58,5.58,0,0,0-.39-.46,5.81,5.81,0,0,0-.43-.43c-.15-.13-.31-.26-.48-.38a4.65,4.65,0,0,0-.52-.34,6,6,0,0,0-.56-.3l-.59-.25a6.17,6.17,0,0,0-.61-.19c-.21-.06-.42-.1-.64-.14s-.43-.07-.65-.09l-.65,0-.46,0c-.22,0-.44,0-.66.07l-.64.12c-.21.05-.41.11-.62.18L29,46l-.56.28-.54.33c-.17.12-.33.25-.49.38s-.3.27-.45.41-.27.3-.39.45a4.71,4.71,0,0,0-.34.48,5.29,5.29,0,0,0-.29.52,4.93,4.93,0,0,0-.22.53c0,.14-.09.28-.13.42a17.09,17.09,0,0,0,12.77,0Z"/><path class="c" d="M14.91,13.23A1.89,1.89,0,0,0,14.5,17c-.41-.11-.07,0,.16.11l.94.51c.76.43,1.73,1,2.68,1.55l1,.61-1,.6c-1,.56-1.92,1.13-2.68,1.56l-.94.52c-.23.12-.57.21-.16.1a1.89,1.89,0,1,0,.78,3.7l.19-.05a3,3,0,0,0,.93-.4c.3-.16.66-.35,1.06-.58.8-.45,1.78-1,2.74-1.59l3.74-2.25h0l0,0A1.89,1.89,0,0,0,23.68,18L20.2,15.87c-1-.56-1.94-1.14-2.74-1.59-.4-.23-.76-.42-1.06-.58a3,3,0,0,0-.93-.4,1.76,1.76,0,0,0-.56-.07Z"/><path class="c" d="M49,13.23a1.68,1.68,0,0,0-.5.07,3,3,0,0,0-.94.4l-1.05.58c-.8.45-1.78,1-2.74,1.59L40.26,18a1.88,1.88,0,0,0-.42,3.18l.13.1.05,0,0,0s1.82,1.11,3.74,2.24c1,.57,1.94,1.14,2.74,1.59l1.05.58a3,3,0,0,0,.94.4,1.89,1.89,0,0,0,1.15-3.6l-.12,0c.16.05,0,0-.22-.11l-.94-.52c-.76-.43-1.73-1-2.67-1.56l-1-.6,1-.61c.94-.56,1.91-1.12,2.67-1.55l.94-.51c.24-.12.57-.21.17-.11A1.89,1.89,0,0,0,49,13.23Z"/></svg>