<svg xmlns="http://www.w3.org/2000/svg" viewBox="0 0 64 64"><defs><style>.a{fill:#ffd42a;}.b{fill:#ffbc2a;}.c{fill:#1a1a1a;}.d{fill:#fff;}.e{fill:#c24040;}.f{fill:#f55;}</style></defs><circle class="a" cx="32" cy="32" r="30.45"/><path class="b" d="M11.33,9.68A30.42,30.42,0,1,0,58.47,47q-.84.8-1.74,1.53c-.8.63-1.62,1.22-2.48,1.77s-1.73,1-2.64,1.52a20.61,20.61,0,0,1-2.77,1.24,29.9,29.9,0,0,1-2.89,1q-1.48.41-3,.66a27.31,27.31,0,0,1-3,.37c-.72,0-1.44.08-2.16.08a29.83,29.83,0,0,1-3-.15c-1-.11-2-.26-3-.46a29.63,29.63,0,0,1-2.95-.75,28.76,28.76,0,0,1-2.86-1,27.6,27.6,0,0,1-2.74-1.32,27.81,27.81,0,0,1-2.6-1.59C19.8,49.25,19,48.65,18.22,48A29.19,29.19,0,0,1,16,45.92c-.71-.73-1.37-1.49-2-2.28a27.08,27.08,0,0,1-1.76-2.48,28.68,28.68,0,0,1-1.52-2.64c-.46-.91-.87-1.83-1.24-2.78a29,29,0,0,1-1-2.89,28.21,28.21,0,0,1-.67-3q-.25-1.5-.36-3c-.06-.71-.08-1.43-.08-2.15q0-1.5.15-3t.45-3c.2-1,.46-2,.76-3s.65-1.92,1-2.86a21.59,21.59,0,0,1,1.33-2.74l.24-.39Z"/><path class="b" d="M38.92,60.87h14v-7.7L39.05,57.46Z"/><path class="c" d="M41.45,32.46c-5.32,0-9.6,5.78-9.6,13V56.67a17.49,17.49,0,0,0,.13,2H50.91a17.49,17.49,0,0,0,.13-2V45.42c0-7.18-4.28-13-9.59-13Z"/><path class="d" d="M24.15,13.64h3.41a6.06,6.06,0,0,1,6.06,6.06h0a6.06,6.06,0,0,1-6.06,6.06H24.15a6.06,6.06,0,0,1-6.06-6.06h0A6.06,6.06,0,0,1,24.15,13.64Z"/><ellipse class="c" cx="33.19" cy="19.7" rx="2.67" ry="2.63"/><path class="d" d="M48.26,13.64h3.41a6.06,6.06,0,0,1,6.06,6.06h0a6.06,6.06,0,0,1-6.06,6.06H48.26A6.06,6.06,0,0,1,42.2,19.7h0A6.06,6.06,0,0,1,48.26,13.64Z"/><ellipse class="c" cx="57.75" cy="19.7" rx="2.67" ry="2.63"/><path class="e" d="M41.46,49H41a4.64,4.64,0,0,0-.65.11,4.75,4.75,0,0,0-.64.2,4.91,4.91,0,0,0-.62.28,6,6,0,0,0-.6.37,5,5,0,0,0-.57.46c-.18.16-.36.34-.53.52a7.57,7.57,0,0,0-.5.6,7.74,7.74,0,0,0-.44.67,7.43,7.43,0,0,0-.4.73,7.51,7.51,0,0,0-.34.77c-.11.26-.2.54-.29.82a8.15,8.15,0,0,0-.22.85c-.06.29-.09.45-.13.68H47.8a.85.85,0,0,0-.07-.41c-.07-.14-.13-.58-.21-.86s-.16-.56-.26-.83-.21-.54-.33-.79-.25-.5-.38-.74a6.56,6.56,0,0,0-.43-.68c-.15-.21-.32-.43-.48-.62a6.88,6.88,0,0,0-.53-.55c-.18-.17-.36-.33-.55-.48s-.39-.27-.59-.39a5.2,5.2,0,0,0-.62-.32c-.21-.08-.42-.16-.64-.22a4.53,4.53,0,0,0-.64-.13,3.64,3.64,0,0,0-.66,0Z"/><path class="f" d="M47.85,56a.38.38,0,0,0-.07-.26,4.87,4.87,0,0,0-.21-.53c-.08-.18-.17-.35-.26-.52a5.25,5.25,0,0,0-.33-.49c-.12-.16-.25-.31-.38-.46a5.81,5.81,0,0,0-.43-.43L45.69,53a6.06,6.06,0,0,0-.53-.35c-.18-.1-.36-.2-.55-.29a6.14,6.14,0,0,0-.59-.25,6.36,6.36,0,0,0-.62-.19,4.56,4.56,0,0,0-.64-.14c-.21,0-.43-.07-.64-.09s-.44,0-.66,0H41a4.62,4.62,0,0,0-.65.07,2.78,2.78,0,0,0-.64.12,6.32,6.32,0,0,0-.62.18,4.92,4.92,0,0,0-.6.23c-.2.09-.39.18-.57.28a5.84,5.84,0,0,0-.53.33c-.17.12-.34.24-.5.37a4.37,4.37,0,0,0-.44.42,4.28,4.28,0,0,0-.4.45c-.12.16-.24.32-.34.48s-.2.34-.29.51a3.49,3.49,0,0,0-.22.53c-.06.18-.09.28-.13.43a17.12,17.12,0,0,0,12.78,0Z"/></svg>