<svg xmlns="http://www.w3.org/2000/svg" viewBox="0 0 64 64"><defs><style>.a{fill:#ffd42a;}.b{fill:#ffbc2a;}.c,.d{fill:none;stroke-linecap:round;stroke-linejoin:round;stroke-width:4px;}.c{stroke:#1a1a1a;}.d{stroke:#0085a6;}.e{fill:#1a1a1a;}</style></defs><circle class="a" cx="32" cy="32" r="30.45" transform="matrix(1, -0.06, 0.06, 1, -1.72, 1.82)"/><path class="b" d="M11.33,9.68A30.43,30.43,0,1,0,58.47,47c-.56.53-1.14,1-1.74,1.52a26.5,26.5,0,0,1-2.47,1.77c-.86.55-1.74,1.06-2.64,1.52s-1.83.87-2.78,1.24A29.64,29.64,0,0,1,46,54a30.33,30.33,0,0,1-3,.67c-1,.17-2,.29-3,.37-.72.05-1.43.07-2.15.07-1,0-2,0-3-.15a28.05,28.05,0,0,1-3-.46,30.34,30.34,0,0,1-3-.75c-1-.3-1.92-.65-2.86-1s-1.85-.84-2.74-1.33a27.66,27.66,0,0,1-2.59-1.59A27,27,0,0,1,18.2,48,29.8,29.8,0,0,1,14,43.6c-.63-.79-1.22-1.62-1.77-2.47s-1-1.74-1.51-2.64-.88-1.84-1.25-2.78a29.64,29.64,0,0,1-1-2.89,30.28,30.28,0,0,1-.66-3,28,28,0,0,1-.37-3c-.05-.72-.08-1.43-.08-2.15a28,28,0,0,1,.16-3,30.33,30.33,0,0,1,.45-3,29.63,29.63,0,0,1,.75-2.95,28.76,28.76,0,0,1,1-2.86,27.6,27.6,0,0,1,1.32-2.74l.24-.4Z"/><path class="c" d="M13.56,31.32a13.58,13.58,0,0,0,13.57,0"/><path class="c" d="M36.41,31.32a13.6,13.6,0,0,0,13.58,0"/><path class="d" d="M32.64,16.23h5.71l-5.71,5.71h5.71"/><path class="d" d="M42.05,8.45h5.71L43.18,17.7H49"/><path class="d" d="M52.4,4.16h5.72l-4.58,9.25h5.84"/><circle class="e" cx="34.11" cy="47.27" r="2.38"/></svg>