<svg xmlns="http://www.w3.org/2000/svg" viewBox="0 0 64 64"><defs><style>.a{fill:#ffd42a;}.b{fill:#ffbc2a;}.c{fill:#1a1a1a;}.d{fill:#fff;}</style></defs><circle class="a" cx="32" cy="32" r="30.45" transform="matrix(1, -0.06, 0.06, 1, -1.72, 1.82)"/><path class="b" d="M11.33,9.68A30.43,30.43,0,1,0,58.47,47c-.56.53-1.14,1-1.74,1.52a26.5,26.5,0,0,1-2.47,1.77c-.86.55-1.74,1.06-2.64,1.52s-1.83.87-2.78,1.24A29.64,29.64,0,0,1,46,54a30.33,30.33,0,0,1-3,.67c-1,.17-2,.29-3,.37-.72.05-1.43.07-2.15.07-1,0-2,0-3-.15a28.05,28.05,0,0,1-3-.46,30.34,30.34,0,0,1-3-.75c-1-.3-1.92-.65-2.86-1s-1.85-.84-2.74-1.33a27.66,27.66,0,0,1-2.59-1.59A27,27,0,0,1,18.2,48,29.8,29.8,0,0,1,14,43.6c-.63-.79-1.22-1.62-1.77-2.47s-1-1.74-1.51-2.64-.88-1.84-1.25-2.78a29.64,29.64,0,0,1-1-2.89,30.28,30.28,0,0,1-.66-3,28,28,0,0,1-.37-3c-.05-.72-.08-1.43-.08-2.15a28,28,0,0,1,.16-3,30.33,30.33,0,0,1,.45-3,29.63,29.63,0,0,1,.75-2.95,28.76,28.76,0,0,1,1-2.86,27.6,27.6,0,0,1,1.32-2.74l.24-.4Z"/><path class="c" d="M33,32.11c-8,0-14.42,2.64-14.42,5.89a2.08,2.08,0,0,0,.07.5,7.5,7.5,0,0,0-.47,2.62c0,3.6,2.42,6.51,5.4,6.51a5.25,5.25,0,0,0,4.55-3,5.25,5.25,0,0,0,4.55,3,5.42,5.42,0,0,0,4.87-3.71,5.41,5.41,0,0,0,4.87,3.71c3,0,5.39-2.91,5.39-6.51a7.73,7.73,0,0,0-.46-2.62,2.14,2.14,0,0,0,.06-.5c0-3.25-6.45-5.89-14.41-5.89Z"/><path class="d" d="M15,18.21a6.92,6.92,0,0,0-.17,1.51,7.16,7.16,0,0,0,14.31,0A6.37,6.37,0,0,0,29,18.21Z"/><path class="c" d="M24,18.21a2.59,2.59,0,0,0-.08.63,2.67,2.67,0,0,0,5.34,0h0a2.18,2.18,0,0,0-.08-.63Z"/><path class="d" d="M38.25,18.21a6.92,6.92,0,0,0-.17,1.51,7.16,7.16,0,0,0,14.32,0,7.6,7.6,0,0,0-.18-1.51Z"/><path class="c" d="M47.19,18.21a2.59,2.59,0,0,0-.08.63,2.68,2.68,0,0,0,5.35,0h0a2.59,2.59,0,0,0-.08-.63Z"/></svg>