<svg xmlns="http://www.w3.org/2000/svg" viewBox="0 0 64 64"><defs><style>.a{fill:#ffd42a;}.b{fill:#ffbc2a;}.c,.d,.e{fill:none;stroke-linecap:round;stroke-linejoin:round;stroke-width:4px;}.c{stroke:#1a1a1a;}.d{stroke:#ffbc2a;}.e{stroke:#fff;}</style></defs><circle class="a" cx="32" cy="32" r="30.45" transform="matrix(1, -0.06, 0.06, 1, -1.72, 1.82)"/><path class="b" d="M11.33,9.68A30.43,30.43,0,1,0,58.47,47c-.56.53-1.14,1-1.74,1.52a26.5,26.5,0,0,1-2.47,1.77c-.86.55-1.74,1.06-2.64,1.52s-1.83.87-2.78,1.24A29.64,29.64,0,0,1,46,54a30.33,30.33,0,0,1-3,.67c-1,.17-2,.29-3,.37-.72.05-1.43.07-2.15.07-1,0-2,0-3-.15s-2-.25-3-.45-2-.46-3-.76-1.92-.65-2.86-1-1.85-.84-2.74-1.33a27.66,27.66,0,0,1-2.59-1.59A27,27,0,0,1,18.2,48,29.8,29.8,0,0,1,14,43.6c-.63-.79-1.22-1.62-1.77-2.47s-1-1.74-1.51-2.64-.88-1.84-1.25-2.78a29.64,29.64,0,0,1-1-2.89,30.28,30.28,0,0,1-.66-3,28,28,0,0,1-.37-3c-.05-.72-.08-1.43-.08-2.15a28,28,0,0,1,.16-3,30.33,30.33,0,0,1,.45-3,29.63,29.63,0,0,1,.75-2.95,28.76,28.76,0,0,1,1-2.86,27.6,27.6,0,0,1,1.32-2.74l.24-.4Z"/><path class="c" d="M22.66,40.91s17.67-8.71,20,0"/><path class="d" d="M30,45.91s2.44-2.81,7.32,0"/><path class="e" d="M14.81,18.06H26.06"/><path class="c" d="M26.06,18.06H23.29"/><path class="e" d="M38.82,18.06H50.07"/><path class="c" d="M50.07,18.06H47.31"/></svg>