<svg xmlns="http://www.w3.org/2000/svg" viewBox="0 0 64 64"><defs><style>.a{fill:#ffd42a;}.b{fill:#ffbc2a;}.c{fill:#1a1a1a;}.d{fill:#fff;}</style></defs><circle class="a" cx="32" cy="32" r="30.45" transform="translate(-0.39 0.39) rotate(-0.7)"/><path class="b" d="M11.33,9.68A30.43,30.43,0,1,0,58.47,47c-.56.53-1.14,1-1.74,1.52a26.5,26.5,0,0,1-2.47,1.77c-.86.55-1.74,1.06-2.64,1.52s-1.83.87-2.78,1.24A29.64,29.64,0,0,1,46,54a30.33,30.33,0,0,1-3,.67c-1,.17-2,.29-3,.37-.72.05-1.43.07-2.15.07-1,0-2,0-3-.15a28.05,28.05,0,0,1-3-.46,29.63,29.63,0,0,1-3-.75c-1-.3-1.92-.65-2.86-1s-1.85-.84-2.74-1.33a26.42,26.42,0,0,1-2.59-1.59A27,27,0,0,1,18.2,48,29.8,29.8,0,0,1,14,43.6c-.63-.79-1.22-1.62-1.77-2.47s-1-1.74-1.51-2.64-.88-1.84-1.25-2.78a29.64,29.64,0,0,1-1-2.89,30.28,30.28,0,0,1-.66-3,28,28,0,0,1-.37-3c-.05-.72-.08-1.43-.08-2.15a28,28,0,0,1,.16-3,30.33,30.33,0,0,1,.45-3,29.63,29.63,0,0,1,.75-2.95,28.76,28.76,0,0,1,1-2.86,27.6,27.6,0,0,1,1.32-2.74l.24-.4Z"/><path class="c" d="M33,32.11c-8,0-14.42,2.64-14.42,5.89a2.08,2.08,0,0,0,.07.5,7.5,7.5,0,0,0-.47,2.62c0,3.6,2.42,6.51,5.4,6.51a5.25,5.25,0,0,0,4.55-3,5.25,5.25,0,0,0,4.55,3,5.42,5.42,0,0,0,4.87-3.71,5.41,5.41,0,0,0,4.87,3.71c3,0,5.39-2.91,5.39-6.51a7.73,7.73,0,0,0-.46-2.62,2.14,2.14,0,0,0,.06-.5c0-3.25-6.45-5.89-14.41-5.89Z"/><ellipse class="d" cx="22.02" cy="19.72" rx="7.16" ry="7.05"/><ellipse class="c" cx="26.19" cy="19.72" rx="2.67" ry="2.63"/><ellipse class="d" cx="43.87" cy="19.72" rx="7.16" ry="7.05"/><ellipse class="c" cx="48.04" cy="19.72" rx="2.67" ry="2.63"/></svg>